<?xml version="1.0" encoding="UTF-8"?>
<!DOCTYPE svg PUBLIC "-//W3C//DTD SVG 1.0//EN" "http://www.w3.org/TR/2001/REC-SVG-20010904/DTD/svg10.dtd">
<!-- Creator: CorelDRAW X6 -->
<svg xmlns="http://www.w3.org/2000/svg" xml:space="preserve" width="110mm" height="110mm" version="1.0" style="shape-rendering:geometricPrecision; text-rendering:geometricPrecision; image-rendering:optimizeQuality; fill-rule:evenodd; clip-rule:evenodd"
viewBox="0 0 11000 11000"
 xmlns:xlink="http://www.w3.org/1999/xlink">
 <defs>
  <style type="text/css">
   <![CDATA[
    .fil3 {fill:#7B2A2C}
    .fil1 {fill:#B05A55}
    .fil0 {fill:#D5852C}
    .fil8 {fill:#F1778B}
    .fil5 {fill:#F9B6AA}
    .fil6 {fill:#FC6ABC}
    .fil7 {fill:#FEA6DB}
    .fil2 {fill:#FEE2C9}
    .fil4 {fill:white}
   ]]>
  </style>
 </defs>
 <g id="Layer_x0020_1">
  <metadata id="CorelCorpID_0Corel-Layer"/>
  <g id="_1026497712">
   <path class="fil0" d="M9190 5988c-118,112 -432,62 -573,5 -154,-63 -292,-168 -399,-295 -108,-128 -205,-298 -229,-465 -22,-164 48,-433 151,-540 -140,121 -19,-215 374,-268 167,-23 348,3 489,98 72,49 89,17 161,43 138,50 322,352 306,490 -15,130 39,197 48,329 11,158 -15,197 -42,339 66,-40 158,-155 269,-89 87,52 100,220 48,297 -155,232 -385,88 -317,-208l12 12 -298 252zm-1093 -1958c326,-72 382,444 59,446 -313,2 -424,-365 -59,-446zm-787 -904c-20,22 -245,72 -292,-12 -29,-52 -13,-557 461,-630 199,-30 440,-16 564,163 97,142 171,428 70,574l494 198c176,-583 -377,-1106 -902,-1246 -314,-84 -611,-16 -873,172 -186,133 -444,452 -425,692l-34 93 198 -25c12,84 -430,157 -553,203 -550,205 -958,541 -1311,1001 -364,472 -553,1180 -526,1779 5,93 101,632 74,659 -99,-36 70,-107 -475,-182 -196,-27 -398,-32 -585,43 -331,133 -616,589 -28,617 219,11 436,6 654,10 183,4 289,-118 440,-223 47,-33 164,-97 184,-146 55,-131 14,-98 132,-198 74,-63 40,-161 120,-212 143,-92 130,117 150,149 87,33 205,-188 298,-45l18 6 -57 149c184,-62 109,83 149,185 52,133 -44,187 -133,270 -87,82 -215,141 -257,184 -139,147 -255,306 -470,419 -122,65 -234,44 -290,158 -102,209 -202,375 -291,599 -171,432 -335,1013 -163,1465 75,198 253,410 484,407 345,-4 227,-412 225,-597 211,-40 740,12 969,43 389,52 449,73 594,439 126,316 343,434 544,91 100,-170 166,-734 84,-888 -208,-94 -275,-63 -498,-230 -234,-176 -147,-227 -151,-262 -2,-21 -18,-28 -21,-65 -7,-73 42,-75 81,-99 -155,-239 95,-130 147,-160 29,-34 2,-193 130,-133 33,15 99,109 142,145 95,79 299,171 423,151l-25 -87c185,-45 316,1093 693,652 128,-149 69,-422 -32,-573 -174,-258 -260,-180 -538,-214 -387,-47 -807,-167 -1155,-345 -167,-85 -842,-459 -872,-627 160,63 350,247 512,352 597,386 1323,616 2036,577 907,-51 1740,-522 2165,-1337 626,-1200 307,-2952 -930,-3704 -531,-324 -793,-276 -1348,-405z"/>
   <path class="fil1" d="M2288 9303c94,116 453,148 590,157 133,8 260,-130 318,-246 61,-124 -9,-84 -33,-115 -548,34 -892,-725 -1004,-1160 -156,-603 -262,-1267 -315,-1887 -57,-671 -61,-1417 33,-2084 57,-401 81,-994 311,-1340 107,-161 172,-147 285,-262 -285,-105 -482,177 -540,159 -16,-66 129,-161 192,-189 150,-65 193,-34 339,-40 7,-87 9,-140 54,-218 9,-13 118,-156 118,-156 37,14 266,450 315,525 111,171 232,321 366,473 125,142 282,290 428,410 76,64 463,314 477,366l-16 19 16 -19 77 32 344 60c-147,-221 -197,-208 -397,-357 -147,-110 -289,-216 -432,-331 -130,-103 -691,-651 -738,-775 119,111 235,281 356,403 237,239 561,518 839,702 74,48 452,267 474,296l-99 -37 82 93c30,-73 95,-161 168,-232 90,-89 182,-126 249,-186 -253,-326 -510,-556 -793,-844 -124,-126 -304,-266 -445,-377 -89,-70 -421,-296 -468,-352 400,193 1297,1037 1595,1393 249,297 195,152 42,-76 -99,-147 -212,-285 -324,-421 -119,-144 -227,-255 -358,-387 -63,-63 -372,-335 -393,-371 131,63 570,511 682,641 101,116 201,236 291,361 78,107 193,301 270,389l228 -80c-123,-353 -483,-803 -745,-1078 -138,-146 -327,-309 -496,-419 -76,-50 -578,-293 -589,-319 12,-114 574,239 639,287 192,143 385,291 542,473 323,374 622,765 797,1234l691 -283 7 16c-10,-180 73,-158 -29,-351 -182,-345 -283,-511 -551,-820 -281,-323 -643,-598 -1022,-798 -415,-218 -1009,-414 -1474,-271 -416,128 -900,328 -1063,766 -746,2 -1061,675 -1267,1295 -227,682 -355,1520 -330,2238 29,820 105,1559 199,2371 63,546 -175,1974 610,1953 -182,-345 -142,-591 -111,-972 21,-248 34,-252 -20,-495 -19,-80 -91,-469 -20,-503 61,14 45,302 58,371 63,354 183,609 422,883 198,226 505,422 793,503 63,18 333,46 321,110l-7 26 -539 -154z"/>
   <path class="fil2" d="M3196 6541l1 -1 27 -14c166,1 267,-54 496,-30 167,18 302,63 460,89 -106,-654 -93,-1119 157,-1739 116,-286 374,-690 603,-914 55,-53 240,-198 267,-236l-185 -51 -213 371c-135,-12 -105,20 -117,-128l-393 -160 -77 -32 -16 19c-280,-28 -1058,-886 -1272,-1112 76,224 421,640 601,801 132,117 261,203 416,286 205,110 333,109 524,178 -17,81 -574,-184 -628,-216 -346,-208 -648,-537 -852,-884 -43,-74 -290,-524 -322,-546 -20,180 -32,133 26,214 -55,40 -205,-87 -403,156 -297,364 -302,1062 -304,1525 -1,386 24,742 98,1121 74,373 188,588 297,926 -136,-75 -338,-998 -365,-1180 -80,-534 -41,-940 -26,-1466l-68 525c-20,180 -41,377 -45,557 -5,189 9,378 37,565 9,61 113,460 106,473l-58 -154c-46,70 117,646 156,754 32,90 303,604 306,615l-72 61 -3 10 333 327c214,341 660,421 1031,379l-18 -9 160 -328 15 7c-332,-7 -706,42 -1016,-75 -3,1 -140,-32 -165,-35 -2,0 -90,-67 -102,-77 -159,-132 -159,-633 257,-690 162,-22 344,87 346,118zm22 -1405c543,-67 947,850 346,993 -238,57 -496,-154 -595,-356 -108,-221 -25,-603 249,-637zm-38 -438c520,-71 523,187 385,215 -96,18 -245,-72 -658,35 -115,29 -173,70 -272,111 -102,41 -154,-64 -5,-160 175,-114 343,-172 550,-201z"/>
   <path class="fil3" d="M4276 10751c87,-8 294,53 347,-29l35 108c-44,36 -171,58 -228,43 -125,-33 -92,-47 -154,-122zm1296 -682l155 -20c77,67 115,199 154,298 60,153 28,199 1,370 0,0 -182,-7 -207,-12 -125,-28 -81,-45 -74,-161 11,-176 -21,-308 -29,-475zm-969 635l-363 -12 -72 -221c59,-41 132,-15 211,-124 74,-103 55,-153 75,-263l77 11 72 609zm-180 -844c169,-10 1159,27 1238,136l0 21 -1215 28 0 -25 -23 -160zm1584 -1120c177,9 107,0 196,-101 33,-37 102,78 158,118 217,157 298,89 477,151 64,62 159,262 104,336 -79,108 -192,176 -327,179 -219,5 -530,-182 -660,-360l68 -19 -88 -124c34,-34 91,-7 116,-39l-44 -141zm-4635 -321c27,16 230,502 675,758 89,51 45,68 89,148 27,48 111,94 90,105 -409,207 -1001,-752 -854,-1011zm2387 -685l6 20 304 122 -7 -22 -407 850 104 -970zm1378 -841c32,55 148,17 6,164 -35,37 -132,134 -169,161 -112,84 -50,-31 -185,136 -48,60 -110,113 -165,166 -116,113 -248,218 -409,258 -141,34 -453,2 -422,-201 42,-274 493,-487 695,-644 63,-48 -15,-117 104,-199 146,-102 60,-158 125,-209 81,-64 15,153 153,148 102,-3 130,-120 214,-90l-43 185c43,24 31,16 135,-7l-39 132zm-2849 2410l539 154 7 -26c12,-64 -258,-92 -321,-110 -288,-81 -595,-277 -793,-503 -239,-274 -359,-529 -422,-883 -13,-69 3,-357 -58,-371 -71,34 1,423 20,503 54,243 41,247 20,495 -31,381 -71,627 111,972 -785,21 -547,-1407 -610,-1953 -94,-812 -170,-1551 -199,-2371 -25,-718 103,-1556 330,-2238 206,-620 521,-1293 1267,-1295 163,-438 647,-638 1063,-766 465,-143 1059,53 1474,271 379,200 741,475 1022,798 268,309 369,475 551,820 102,193 19,171 29,351l-7 -16 -691 283c-175,-469 -474,-860 -797,-1234 -157,-182 -350,-330 -542,-473 -65,-48 -627,-401 -639,-287 11,26 513,269 589,319 169,110 358,273 496,419 262,275 622,725 745,1078l-228 80c-77,-88 -192,-282 -270,-389 -90,-125 -190,-245 -291,-361 -112,-130 -551,-578 -682,-641 21,36 330,308 393,371 131,132 239,243 358,387 112,136 225,274 324,421 153,228 207,373 -42,76 -298,-356 -1195,-1200 -1595,-1393 47,56 379,282 468,352 141,111 321,251 445,377 283,288 540,518 793,844 -67,60 -159,97 -249,186 -73,71 -138,159 -168,232l-82 -93 99 37c-22,-29 -400,-248 -474,-296 -278,-184 -602,-463 -839,-702 -121,-122 -237,-292 -356,-403 47,124 608,672 738,775 143,115 285,221 432,331 200,149 250,136 397,357l-344 -60 393 160c12,148 -18,116 117,128l213 -371 185 51c-27,38 -212,183 -267,236 -229,224 -487,628 -603,914 -250,620 -263,1085 -157,1739 -158,-26 -293,-71 -460,-89 -229,-24 -330,31 -496,30l-27 14 -1 1 -114 45c-123,153 -336,153 -304,503l82 136c310,117 684,68 1016,75l-15 -7 -160 328 18 9c-371,42 -817,-38 -1031,-379l-94 -116 -33 22 103 166 6 11 7 9 5 13 8 9 7 10 9 9 8 8 8 9 8 9 8 8 9 9 8 8 10 8 8 8 10 7 11 8 12 6 61 49c-168,189 -456,244 -699,204l-76 -363 -1 11 374 56c-6,-60 -193,-68 -252,-87 -134,-43 -133,-45 -156,-173 -27,-146 -32,-451 -41,-618l300 381 21 -16c35,-73 -182,-282 -229,-348 -150,-211 -110,-213 -139,-464 -39,-328 -117,-779 -103,-1098l102 478 58 154c7,-13 -97,-412 -106,-473 -28,-187 -42,-376 -37,-565 4,-180 25,-377 45,-557l68 -525c-15,526 -54,932 26,1466 27,182 229,1105 365,1180 -109,-338 -223,-553 -297,-926 -74,-379 -99,-735 -98,-1121 2,-463 7,-1161 304,-1525 198,-243 348,-116 403,-156 -58,-81 -46,-34 -26,-214 32,22 279,472 322,546 204,347 506,676 852,884 54,32 611,297 628,216 -191,-69 -319,-68 -524,-178 -155,-83 -284,-169 -416,-286 -180,-161 -525,-577 -601,-801 214,226 992,1084 1272,1112l16 -19c-14,-52 -401,-302 -477,-366 -146,-120 -303,-268 -428,-410 -134,-152 -255,-302 -366,-473 -49,-75 -278,-511 -315,-525 0,0 -109,143 -118,156 -45,78 -47,131 -54,218 -146,6 -189,-25 -339,40 -63,28 -208,123 -192,189 58,18 255,-264 540,-159 -113,115 -178,101 -285,262 -230,346 -254,939 -311,1340 -94,667 -90,1413 -33,2084 53,620 159,1284 315,1887 112,435 456,1194 1004,1160l-103 -67c-236,-55 -460,-278 -588,-475 -83,-128 -287,-623 -278,-759 69,29 350,-23 432,-49 179,-59 173,-102 299,-190 120,37 186,97 345,125 168,30 275,18 438,13l-89 758c-15,89 -6,240 4,332 11,97 -23,183 -44,278 -45,195 -73,395 -60,595 20,327 171,709 521,795 140,22 65,186 226,398 89,117 376,102 461,12l-100 -423 -25 -343 904 -14 37 367 -65 353 -27 -7c17,99 306,134 384,100 135,-60 97,-253 139,-370 240,263 389,49 540,-105 41,-163 100,-189 120,-420 18,-192 -15,-344 -10,-517 177,-15 284,-84 385,-219 49,108 93,260 228,283 288,48 445,-276 331,-602 -61,-173 -139,-198 -199,-308 400,-59 602,-51 994,-217 282,-118 515,-265 745,-466 465,-408 737,-998 820,-1604 383,-78 594,-360 684,-728 136,-553 -205,-1150 -696,-1354 -88,-36 -199,-60 -295,-60 -176,-1 -119,57 -225,-89 -196,-270 -454,-493 -739,-664 126,-382 -24,-734 -314,-993 -325,-290 -580,-386 -1017,-386 -243,-341 -352,-502 -707,-751 -132,-93 -315,-200 -461,-267 -50,-23 -511,-205 -509,-208 22,-23 416,66 597,-204 105,-156 20,-549 -95,-586 84,190 217,399 59,593 -282,348 -926,83 -1286,31 -248,-36 -501,-50 -750,-38 -234,12 -466,49 -690,117 -102,31 -190,82 -290,118 -100,35 -203,52 -302,94 -773,327 -560,619 -938,663 -406,47 -627,366 -818,703 -229,436 -157,326 -286,665 7,16 -179,642 -197,735 -53,270 -96,571 -114,845 -40,610 -1,1209 55,1816 71,753 136,908 -103,1655 -127,397 -295,1207 202,1428 -21,-66 -204,-197 -272,-428 -113,-388 38,-783 149,-1149 19,-61 105,-559 123,-568 75,483 58,1008 66,1499 10,634 487,894 731,728 4,-65 -116,-85 -157,-348 -9,-61 -26,-457 3,-493 107,292 99,346 334,580 158,157 529,287 677,130l-158 -149 17 -21 82 34zm7670 -3525l-7 -33 -188 -936 -256 -531c512,-43 905,355 1039,819 123,422 -103,1132 -602,1189l14 -508zm-1845 -2557c-98,-40 -793,-203 -803,-95 555,129 817,81 1348,405 1237,752 1556,2504 930,3704 -425,815 -1258,1286 -2165,1337 -713,39 -1439,-191 -2036,-577 -162,-105 -352,-289 -512,-352 30,168 705,542 872,627 348,178 768,298 1155,345 278,34 364,-44 538,214 101,151 160,424 32,573 -377,441 -508,-697 -693,-652l25 87c-124,20 -328,-72 -423,-151 -43,-36 -109,-130 -142,-145 -128,-60 -101,99 -130,133 -52,30 -302,-79 -147,160 -39,24 -88,26 -81,99 3,37 19,44 21,65 4,35 -83,86 151,262 223,167 290,136 498,230 82,154 16,718 -84,888 -201,343 -418,225 -544,-91 -145,-366 -205,-387 -594,-439 -229,-31 -758,-83 -969,-43 2,185 120,593 -225,597 -231,3 -409,-209 -484,-407 -172,-452 -8,-1033 163,-1465 89,-224 189,-390 291,-599 56,-114 168,-93 290,-158 215,-113 331,-272 470,-419 42,-43 170,-102 257,-184 89,-83 185,-137 133,-270 -40,-102 35,-247 -149,-185l57 -149 -18 -6c-93,-143 -211,78 -298,45 -20,-32 -7,-241 -150,-149 -80,51 -46,149 -120,212 -118,100 -77,67 -132,198 -20,49 -137,113 -184,146 -151,105 -257,227 -440,223 -218,-4 -435,1 -654,-10 -588,-28 -303,-484 28,-617 187,-75 389,-70 585,-43 545,75 376,146 475,182 27,-27 -69,-566 -74,-659 -27,-599 162,-1307 526,-1779 353,-460 761,-796 1311,-1001 123,-46 565,-119 553,-203l-198 25 34 -93c-19,-240 239,-559 425,-692 262,-188 559,-256 873,-172 525,140 1078,663 902,1246l-494 -198zm-4347 -2461c756,-165 1868,52 2536,445 340,200 603,388 839,710 71,97 168,166 43,197 -102,25 -182,56 -274,107 -280,159 -338,317 -401,364l-61 -95c-5,83 86,45 -4,206l-88 206c-410,-938 -1371,-1815 -2382,-2018 -90,-18 -188,-32 -279,-34l-295 10c369,-110 595,-98 974,-12 290,65 568,171 828,316 225,126 470,308 650,493 122,127 456,614 496,646 -114,-364 -673,-868 -990,-1075 -482,-314 -1018,-465 -1592,-466z"/>
   <path class="fil1" d="M3766 760c574,1 1110,152 1592,466 317,207 876,711 990,1075 -40,-32 -374,-519 -496,-646 -180,-185 -425,-367 -650,-493 -260,-145 -538,-251 -828,-316 -379,-86 -605,-98 -974,12l295 -10c91,2 189,16 279,34 1011,203 1972,1080 2382,2018l88 -206c90,-161 -1,-123 4,-206l61 95c63,-47 121,-205 401,-364 92,-51 172,-82 274,-107 125,-31 28,-100 -43,-197 -236,-322 -499,-510 -839,-710 -668,-393 -1780,-610 -2536,-445z"/>
   <path class="fil4" d="M8140 4693c-103,107 -173,376 -151,540 24,167 121,337 229,465 107,127 245,232 399,295 141,57 455,107 573,-5 -104,-44 143,-84 237,-312 50,-124 55,-387 -14,-494 -122,108 -241,-11 -328,-42 -38,109 -301,464 -399,379 -4,-37 296,-210 345,-401 27,-105 -267,-259 -49,-535 -216,-198 -652,-108 -842,110z"/>
   <path class="fil1" d="M3060 9032l-153 -198c10,-101 154,-240 254,-287 172,-80 290,-59 458,-92l89 -758c-163,5 -270,17 -438,-13 -159,-28 -225,-88 -345,-125 -126,88 -120,131 -299,190 -82,26 -363,78 -432,49 -9,136 195,631 278,759 128,197 352,420 588,475z"/>
   <path class="fil2" d="M5137 6893l39 -132c-104,23 -92,31 -135,7l43 -185c-84,-30 -112,87 -214,90 -138,5 -72,-212 -153,-148 -65,51 21,107 -125,209 -119,82 -41,151 -104,199 -202,157 -653,370 -695,644 -31,203 281,235 422,201 161,-40 293,-145 409,-258 55,-53 117,-106 165,-166 135,-167 73,-52 185,-136 37,-27 134,-124 169,-161 142,-147 26,-109 -6,-164z"/>
   <path class="fil0" d="M9763 4809c40,-130 283,-33 363,39 91,81 155,203 190,319 77,260 -44,618 -358,611l-7 -33 7 33 -14 508c499,-57 725,-767 602,-1189 -134,-464 -527,-862 -1039,-819l256 531z"/>
   <path class="fil4" d="M7310 3126c10,-108 705,55 803,95 101,-146 27,-432 -70,-574 -124,-179 -365,-193 -564,-163 -474,73 -490,578 -461,630 47,84 272,34 292,12z"/>
   <path class="fil3" d="M3121 5462c213,-51 161,379 -1,373 -211,-8 -182,-329 1,-373zm97 -326c-274,34 -357,416 -249,637 99,202 357,413 595,356 601,-143 197,-1060 -346,-993z"/>
   <path class="fil5" d="M2860 7225l-82 -136c-56,-60 -4,18 -87,-71 -64,-69 -55,-34 -66,-138 -10,-94 46,-212 92,-300 0,0 164,-41 164,-41 86,29 114,32 201,47l114 -45c-2,-31 -184,-140 -346,-118 -416,57 -416,558 -257,690 12,10 100,77 102,77 25,3 162,36 165,35zm-892 -1741l-102 -478c-14,319 64,770 103,1098 29,251 -11,253 139,464 47,66 264,275 229,348l-21 16 -300 -381c9,167 14,472 41,618 23,128 22,130 156,173 59,19 246,27 252,87l199 -106 6 11 7 9 5 13 8 9 7 10 9 9 8 8 8 9 8 9 8 8 9 9 8 8 10 8 8 8 10 7 11 8 12 6 -12 -6 -11 -8 -10 -7 -8 -8 -10 -8 -8 -8 -9 -9 -8 -8 -8 -9 -8 -9 -8 -8 -9 -9 -7 -10 -8 -9 -5 -13 -7 -9 -6 -11 -103 -166 33 -22 94 116 -333 -327 3 -10 72 -61c-3,-11 -274,-525 -306,-615 -39,-108 -202,-684 -156,-754zm1256 1042l-27 14 27 -14z"/>
   <path class="fil3" d="M8140 4693c190,-218 626,-308 842,-110 -218,276 76,430 49,535 -49,191 -349,364 -345,401 98,85 361,-270 399,-379 87,31 206,150 328,42 69,107 64,370 14,494 -94,228 -341,268 -237,312l298 -252 -12 -12c-68,296 162,440 317,208 52,-77 39,-245 -48,-297 -111,-66 -203,49 -269,89 27,-142 53,-181 42,-339 -9,-132 -63,-199 -48,-329 16,-138 -168,-440 -306,-490 -72,-26 -89,6 -161,-43 -141,-95 -322,-121 -489,-98 -393,53 -514,389 -374,268z"/>
   <path class="fil2" d="M6007 8740l44 141c-25,32 -82,5 -116,39l88 124 -68 19c130,178 441,365 660,360 135,-3 248,-71 327,-179 55,-74 -40,-274 -104,-336 -179,-62 -260,6 -477,-151 -56,-40 -125,-155 -158,-118 -89,101 -19,110 -196,101z"/>
   <path class="fil4" d="M9763 4809l188 936 7 33c314,7 435,-351 358,-611 -35,-116 -99,-238 -190,-319 -80,-72 -323,-169 -363,-39z"/>
   <polygon class="fil4" points="4627,10442 5543,10452 5506,10085 4602,10099 "/>
   <path class="fil1" d="M1372 8419c-147,259 445,1218 854,1011 21,-11 -63,-57 -90,-105 -44,-80 0,-97 -89,-148 -445,-256 -648,-742 -675,-758z"/>
   <path class="fil2" d="M2465 7429l-374 -56 1 -11 76 363c243,40 531,-15 699,-204l-61 -49 -12 -6 -11 -8 -10 -7 -8 -8 -10 -8 -8 -8 -9 -9 -8 -8 -8 -9 -8 -9 -8 -8 -9 -9 -7 -10 -8 -9 -5 -13 -7 -9 -6 -11 -199 106z"/>
   <path class="fil3" d="M3180 4698c-207,29 -375,87 -550,201 -149,96 -97,201 5,160 99,-41 157,-82 272,-111 413,-107 562,-17 658,-35 138,-28 135,-286 -385,-215z"/>
   <path class="fil2" d="M5572 10069c8,167 40,299 29,475 -7,116 -51,133 74,161 25,5 207,12 207,12 27,-171 59,-217 -1,-370 -39,-99 -77,-231 -154,-298l-155 20z"/>
   <path class="fil6" d="M5661 9996c-79,-109 -1069,-146 -1238,-136l23 160 0 25 1215 -28 0 -21z"/>
   <path class="fil3" d="M8086 4080c115,-42 156,112 59,136 -78,20 -193,-87 -59,-136zm11 -50c-365,81 -254,448 59,446 323,-2 267,-518 -59,-446z"/>
   <path class="fil2" d="M4531 10095l-77 -11c-20,110 -1,160 -75,263 -79,109 -152,83 -211,124l72 221 363 12 -72 -609z"/>
   <polygon class="fil7" points="3655,8704 4062,7854 4069,7876 3765,7754 3759,7734 "/>
   <path class="fil8" d="M2778 7089c-32,-350 181,-350 304,-503 -87,-15 -115,-18 -201,-47 0,0 -164,41 -164,41 -46,88 -102,206 -92,300 11,104 2,69 66,138 83,89 31,11 87,71z"/>
   <path class="fil4" d="M3121 5462c-183,44 -212,365 -1,373 162,6 214,-424 1,-373z"/>
   <path class="fil4" d="M4276 10751c62,75 29,89 154,122 57,15 184,-7 228,-43l-35 -108c-53,82 -260,21 -347,29z"/>
   <path class="fil4" d="M8086 4080c-134,49 -19,156 59,136 97,-24 56,-178 -59,-136z"/>
  </g>
 </g>
</svg>
