<?xml version="1.0" encoding="UTF-8"?>
<!DOCTYPE svg PUBLIC "-//W3C//DTD SVG 1.0//EN" "http://www.w3.org/TR/2001/REC-SVG-20010904/DTD/svg10.dtd">
<!-- Creator: CorelDRAW X6 -->
<svg xmlns="http://www.w3.org/2000/svg" xml:space="preserve" width="1299px" height="1299px" version="1.0" style="shape-rendering:geometricPrecision; text-rendering:geometricPrecision; image-rendering:optimizeQuality; fill-rule:evenodd; clip-rule:evenodd"
viewBox="0 0 1299 1299"
 xmlns:xlink="http://www.w3.org/1999/xlink">
 <defs>
  <style type="text/css">
   <![CDATA[
    .fil3 {fill:#7B2A2C}
    .fil1 {fill:#B05A55}
    .fil0 {fill:#D5852C}
    .fil8 {fill:#F1778B}
    .fil5 {fill:#F9B6AA}
    .fil6 {fill:#FC6ABC}
    .fil7 {fill:#FEA6DB}
    .fil2 {fill:#FEE2C9}
    .fil4 {fill:white}
   ]]>
  </style>
 </defs>
 <g id="Layer_x0020_1">
  <metadata id="CorelCorpID_0Corel-Layer"/>
  <path class="fil0" d="M1102 700c-14,13 -51,7 -68,0 -18,-7 -34,-20 -47,-35 -12,-15 -24,-35 -27,-55 -2,-19 6,-51 18,-63 -17,14 -2,-26 44,-32 20,-3 41,0 58,12 8,5 10,2 19,5 16,6 38,41 36,58 -2,15 5,23 6,38 1,19 -2,24 -5,40 8,-4 19,-18 32,-10 10,6 11,26 5,35 -18,27 -45,10 -37,-25l1 2 -35 30zm-129 -232c38,-8 45,53 7,53 -37,0 -50,-43 -7,-53zm-93 -106c-2,2 -29,8 -34,-2 -4,-6 -2,-66 54,-74 23,-4 52,-2 67,19 11,17 20,51 8,68l58 23c21,-69 -44,-130 -106,-147 -37,-10 -73,-2 -103,20 -22,16 -53,54 -51,82l-4 11 24 -3c1,10 -51,19 -66,24 -64,24 -113,64 -154,118 -43,56 -66,140 -62,211 0,10 11,74 8,77 -11,-4 9,-12 -56,-21 -23,-3 -47,-4 -69,5 -39,16 -73,69 -3,73 26,1 51,0 77,1 22,0 34,-14 52,-26 6,-4 19,-12 22,-18 6,-15 1,-11 15,-23 9,-7 5,-19 14,-25 17,-11 16,14 18,18 10,3 24,-23 35,-6l2 1 -6 18c21,-8 13,9 17,21 7,16 -5,22 -15,32 -11,10 -26,17 -31,22 -16,17 -30,36 -55,49 -15,8 -28,6 -34,19 -12,25 -24,44 -35,71 -20,51 -39,119 -19,173 9,23 30,48 57,48 41,-1 27,-49 27,-71 25,-4 87,2 114,5 46,7 53,9 70,52 15,38 41,52 64,11 12,-20 20,-87 10,-105 -24,-11 -32,-7 -58,-27 -28,-21 -18,-27 -18,-31 0,-2 -2,-3 -3,-8 -1,-8 5,-8 10,-11 -18,-28 11,-16 17,-19 4,-4 0,-23 16,-16 4,2 11,13 16,17 12,10 36,20 50,18l-3 -10c22,-5 38,129 82,77 15,-18 8,-50 -4,-68 -20,-30 -30,-21 -63,-25 -46,-6 -95,-20 -137,-41 -19,-10 -99,-54 -102,-74 18,8 41,29 60,42 70,45 156,72 240,68 107,-6 206,-62 256,-158 74,-142 36,-349 -110,-438 -62,-38 -93,-32 -159,-47z"/>
  <path class="fil1" d="M287 1091c11,14 54,18 70,19 15,1 30,-16 37,-29 7,-15 -1,-10 -4,-14 -64,4 -105,-86 -118,-137 -19,-71 -31,-150 -37,-223 -7,-79 -8,-167 3,-246 7,-47 10,-117 37,-158 13,-19 21,-18 34,-31 -34,-12 -57,21 -64,19 -2,-8 15,-19 23,-23 17,-7 23,-4 40,-4 1,-11 1,-17 6,-26 1,-2 14,-19 14,-19 4,2 32,54 37,63 13,20 28,37 43,55 15,17 34,35 51,49 9,7 55,37 56,43l-1 2 1 -2 10 4 40 7c-17,-26 -23,-25 -47,-42 -17,-13 -34,-26 -51,-39 -15,-13 -81,-77 -87,-92 14,13 28,33 42,48 28,28 66,61 99,83 9,5 54,31 56,35l-12 -5 10 11c4,-8 11,-19 20,-27 11,-11 21,-15 29,-22 -29,-39 -60,-66 -93,-100 -15,-15 -36,-31 -53,-44 -10,-9 -50,-35 -55,-42 47,23 153,122 188,165 30,35 23,18 5,-9 -11,-18 -25,-34 -38,-50 -14,-17 -27,-30 -42,-46 -8,-7 -44,-39 -47,-44 16,8 68,61 81,76 12,14 24,28 34,43 9,12 23,35 32,46l27 -10c-15,-42 -57,-95 -88,-127 -16,-17 -39,-37 -58,-50 -9,-6 -69,-34 -70,-37 1,-14 68,28 75,34 23,16 46,34 64,55 39,45 74,91 95,146l81 -33 1 2c-1,-22 9,-19 -4,-42 -21,-41 -33,-60 -65,-97 -33,-38 -75,-70 -120,-94 -49,-26 -119,-49 -174,-32 -49,15 -107,39 -126,91 -88,0 -125,79 -149,152 -27,81 -42,180 -39,265 3,97 12,184 23,280 8,64 -21,233 72,230 -21,-40 -17,-69 -13,-114 2,-30 4,-30 -2,-59 -3,-9 -11,-55 -3,-59 7,1 6,35 7,44 8,41 22,72 50,104 23,27 60,50 94,59 7,2 39,6 37,13l0 3 -64 -18z"/>
  <path class="fil2" d="M394 765l0 0 4 -2c19,0 31,-6 58,-3 20,2 36,7 54,10 -12,-77 -11,-132 19,-205 14,-34 44,-82 71,-108 7,-6 28,-24 32,-28l-22 -6 -25 44c-16,-2 -13,2 -14,-15l-46 -19 -10 -4 -1 2c-34,-3 -125,-104 -151,-131 9,26 50,76 71,95 16,13 31,23 49,33 25,13 40,13 62,21 -2,10 -67,-21 -74,-25 -41,-25 -76,-64 -101,-105 -5,-8 -34,-61 -38,-64 -2,21 -3,16 4,25 -7,5 -25,-10 -48,19 -35,43 -36,125 -36,180 0,45 3,87 12,132 8,44 22,69 35,109 -16,-8 -40,-117 -43,-139 -10,-63 -5,-111 -3,-173l-9 62c-2,21 -4,44 -5,66 0,22 1,44 5,66 1,8 13,55 12,56l-7 -18c-5,8 14,76 19,89 3,11 35,72 36,73l-9 7 0 1 39 39c25,40 78,49 122,45l-2 -1 19 -39 2 1c-40,-1 -84,5 -121,-9 0,0 -16,-4 -19,-4 0,0 -11,-8 -12,-9 -19,-16 -19,-75 30,-82 19,-3 41,10 41,14zm3 -166c64,-8 112,100 41,117 -28,7 -59,-18 -71,-42 -12,-26 -3,-71 30,-75zm-5 -52c62,-8 62,22 46,26 -12,2 -29,-9 -78,4 -13,3 -20,8 -32,13 -12,5 -18,-8 -1,-19 21,-13 41,-20 65,-24z"/>
  <path class="fil3" d="M522 1262c10,-1 35,6 41,-3l4 12c-5,5 -20,7 -27,6 -15,-4 -11,-6 -18,-15zm153 -80l18 -3c9,8 14,24 18,35 7,19 4,24 0,44 0,0 -21,-1 -24,-1 -15,-4 -10,-6 -9,-19 2,-21 -2,-37 -3,-56zm-115 75l-42 -2 -9 -26c7,-5 16,-2 25,-15 9,-12 6,-18 9,-31l9 2 8 72zm-21 -100c20,-1 137,3 146,16l0 2 -143 4 0 -3 -3 -19zm187 -132c21,1 13,0 23,-12 4,-5 12,9 19,14 26,18 35,10 56,18 8,7 19,30 13,39 -10,13 -23,21 -39,21 -26,1 -63,-21 -78,-42l8 -3 -10 -14c4,-4 10,-1 13,-5l-5 -16zm-547 -38c3,2 27,59 80,89 10,6 5,8 10,18 3,5 13,11 11,12 -49,25 -118,-89 -101,-119zm282 -81l0 2 36 15 0 -3 -49 100 13 -114zm162 -99c4,6 18,1 1,19 -4,4 -15,16 -20,19 -13,10 -6,-4 -22,16 -5,7 -13,13 -19,20 -14,13 -29,25 -48,30 -17,4 -54,0 -50,-24 5,-32 58,-57 82,-76 7,-5 -2,-14 12,-23 17,-12 7,-19 15,-25 9,-7 2,18 18,18 12,-1 15,-15 25,-11l-5 22c5,3 4,2 16,-1l-5 16zm-336 284l64 18 0 -3c2,-7 -30,-11 -37,-13 -34,-9 -71,-32 -94,-59 -28,-32 -42,-63 -50,-104 -1,-9 0,-43 -7,-44 -8,4 0,50 3,59 6,29 4,29 2,59 -4,45 -8,74 13,114 -93,3 -64,-166 -72,-230 -11,-96 -20,-183 -23,-280 -3,-85 12,-184 39,-265 24,-73 61,-152 149,-152 19,-52 77,-76 126,-91 55,-17 125,6 174,32 45,24 87,56 120,94 32,37 44,56 65,97 13,23 3,20 4,42l-1 -2 -81 33c-21,-55 -56,-101 -95,-146 -18,-21 -41,-39 -64,-55 -7,-6 -74,-48 -75,-34 1,3 61,31 70,37 19,13 42,33 58,50 31,32 73,85 88,127l-27 10c-9,-11 -23,-34 -32,-46 -10,-15 -22,-29 -34,-43 -13,-15 -65,-68 -81,-76 3,5 39,37 47,44 15,16 28,29 42,46 13,16 27,32 38,50 18,27 25,44 -5,9 -35,-43 -141,-142 -188,-165 5,7 45,33 55,42 17,13 38,29 53,44 33,34 64,61 93,100 -8,7 -18,11 -29,22 -9,8 -16,19 -20,27l-10 -11 12 5c-2,-4 -47,-30 -56,-35 -33,-22 -71,-55 -99,-83 -14,-15 -28,-35 -42,-48 6,15 72,79 87,92 17,13 34,26 51,39 24,17 30,16 47,42l-40 -7 46 19c1,17 -2,13 14,15l25 -44 22 6c-4,4 -25,22 -32,28 -27,26 -57,74 -71,108 -30,73 -31,128 -19,205 -18,-3 -34,-8 -54,-10 -27,-3 -39,3 -58,3l-4 2 0 0 -13 5c-15,18 -40,18 -36,60l9 16c37,14 81,8 121,9l-2 -1 -19 39 2 1c-44,4 -97,-5 -122,-45l-11 -14 -4 3 12 19 1 2 1 1 0 1 1 1 1 1 1 1 1 1 1 2 1 1 1 1 1 1 1 0 1 1 1 1 1 1 2 1 1 1 7 6c-19,22 -53,28 -82,24l-9 -43 0 1 44 7c-1,-7 -23,-8 -30,-10 -16,-6 -16,-6 -18,-21 -4,-17 -4,-53 -5,-73l35 45 3 -2c4,-8 -22,-33 -27,-41 -18,-25 -13,-25 -17,-55 -4,-38 -13,-92 -12,-129l12 56 7 18c1,-1 -11,-48 -12,-56 -4,-22 -5,-44 -5,-66 1,-22 3,-45 5,-66l9 -62c-2,62 -7,110 3,173 3,22 27,131 43,139 -13,-40 -27,-65 -35,-109 -9,-45 -12,-87 -12,-132 0,-55 1,-137 36,-180 23,-29 41,-14 48,-19 -7,-9 -6,-4 -4,-25 4,3 33,56 38,64 25,41 60,80 101,105 7,4 72,35 74,25 -22,-8 -37,-8 -62,-21 -18,-10 -33,-20 -49,-33 -21,-19 -62,-69 -71,-95 26,27 117,128 151,131l1 -2c-1,-6 -47,-36 -56,-43 -17,-14 -36,-32 -51,-49 -15,-18 -30,-35 -43,-55 -5,-9 -33,-61 -37,-63 0,0 -13,17 -14,19 -5,9 -5,15 -6,26 -17,0 -23,-3 -40,4 -8,4 -25,15 -23,23 7,2 30,-31 64,-19 -13,13 -21,12 -34,31 -27,41 -30,111 -37,158 -11,79 -10,167 -3,246 6,73 18,152 37,223 13,51 54,141 118,137l-12 -8c-28,-6 -54,-33 -69,-56 -10,-15 -34,-74 -33,-90 8,4 41,-2 51,-5 21,-7 20,-12 35,-23 14,5 22,12 41,15 20,3 32,2 52,2l-11 89c-2,11 -1,28 1,39 1,12 -3,22 -6,33 -5,23 -8,47 -7,70 3,39 21,84 62,94 16,3 8,22 27,47 10,14 44,12 54,2l-12 -50 -3 -41 107 -2 4 44 -7 41 -3 0c1,11 36,15 45,11 16,-7 11,-29 16,-43 29,31 46,6 64,-13 5,-19 12,-22 14,-49 2,-23 -2,-41 -1,-61 21,-2 34,-10 45,-26 6,13 11,31 27,33 34,6 53,-32 39,-71 -7,-20 -16,-23 -23,-36 47,-7 71,-6 117,-26 34,-14 61,-31 88,-55 55,-48 87,-118 97,-189 45,-9 70,-43 81,-86 16,-66 -24,-136 -82,-160 -11,-4 -24,-7 -35,-7 -21,0 -14,7 -27,-11 -23,-32 -53,-58 -87,-78 15,-45 -3,-87 -37,-117 -38,-35 -68,-46 -120,-46 -29,-40 -42,-59 -84,-89 -15,-11 -37,-23 -54,-31 -6,-3 -60,-24 -60,-25 2,-3 49,8 70,-24 13,-18 3,-65 -11,-69 10,22 26,47 7,70 -33,41 -109,10 -152,4 -29,-5 -59,-6 -88,-5 -28,2 -55,6 -82,14 -12,4 -22,10 -34,14 -12,4 -24,6 -36,11 -91,39 -66,73 -111,78 -47,6 -73,43 -96,83 -27,52 -19,39 -34,79 1,2 -21,76 -23,87 -6,32 -11,67 -14,99 -4,72 0,143 7,215 8,89 16,107 -12,195 -15,47 -35,143 24,169 -3,-8 -25,-23 -32,-51 -14,-45 4,-92 17,-135 2,-8 13,-66 15,-67 9,57 7,119 7,177 2,75 58,105 87,86 0,-8 -14,-10 -19,-41 -1,-8 -3,-54 1,-59 12,35 11,41 39,69 19,18 63,34 80,15l-19 -17 2 -3 10 4zm906 -416l-1 -4 -22 -111 -30 -62c60,-5 106,42 122,96 15,50 -12,134 -71,141l2 -60zm-218 -302c-12,-5 -94,-24 -95,-11 66,15 97,9 159,47 146,89 184,296 110,438 -50,96 -149,152 -256,158 -84,4 -170,-23 -240,-68 -19,-13 -42,-34 -60,-42 3,20 83,64 102,74 42,21 91,35 137,41 33,4 43,-5 63,25 12,18 19,50 4,68 -44,52 -60,-82 -82,-77l3 10c-14,2 -38,-8 -50,-18 -5,-4 -12,-15 -16,-17 -16,-7 -12,12 -16,16 -6,3 -35,-9 -17,19 -5,3 -11,3 -10,11 1,5 3,6 3,8 0,4 -10,10 18,31 26,20 34,16 58,27 10,18 2,85 -10,105 -23,41 -49,27 -64,-11 -17,-43 -24,-45 -70,-52 -27,-3 -89,-9 -114,-5 0,22 14,70 -27,71 -27,0 -48,-25 -57,-48 -20,-54 -1,-122 19,-173 11,-27 23,-46 35,-71 6,-13 19,-11 34,-19 25,-13 39,-32 55,-49 5,-5 20,-12 31,-22 10,-10 22,-16 15,-32 -4,-12 4,-29 -17,-21l6 -18 -2 -1c-11,-17 -25,9 -35,6 -2,-4 -1,-29 -18,-18 -9,6 -5,18 -14,25 -14,12 -9,8 -15,23 -3,6 -16,14 -22,18 -18,12 -30,26 -52,26 -26,-1 -51,0 -77,-1 -70,-4 -36,-57 3,-73 22,-9 46,-8 69,-5 65,9 45,17 56,21 3,-3 -8,-67 -8,-77 -4,-71 19,-155 62,-211 41,-54 90,-94 154,-118 15,-5 67,-14 66,-24l-24 3 4 -11c-2,-28 29,-66 51,-82 30,-22 66,-30 103,-20 62,17 127,78 106,147l-58 -23zm-513 -291c89,-19 220,6 299,53 40,23 71,46 99,84 9,11 20,19 5,23 -12,3 -21,7 -32,13 -33,18 -40,37 -47,43l-8 -12c0,10 10,6 0,25l-11 24c-48,-111 -162,-214 -281,-238 -10,-2 -22,-4 -33,-4l-35 1c44,-13 71,-12 115,-2 35,8 67,21 98,38 27,15 56,36 77,58 14,15 54,73 58,76 -13,-43 -79,-102 -117,-127 -56,-37 -120,-55 -187,-55z"/>
  <path class="fil1" d="M462 82c67,0 131,18 187,55 38,25 104,84 117,127 -4,-3 -44,-61 -58,-76 -21,-22 -50,-43 -77,-58 -31,-17 -63,-30 -98,-38 -44,-10 -71,-11 -115,2l35 -1c11,0 23,2 33,4 119,24 233,127 281,238l11 -24c10,-19 0,-15 0,-25l8 12c7,-6 14,-25 47,-43 11,-6 20,-10 32,-13 15,-4 4,-12 -5,-23 -28,-38 -59,-61 -99,-84 -79,-47 -210,-72 -299,-53z"/>
  <path class="fil4" d="M978 547c-12,12 -20,44 -18,63 3,20 15,40 27,55 13,15 29,28 47,35 17,7 54,13 68,0 -12,-6 17,-10 28,-37 6,-15 6,-46 -2,-59 -14,13 -28,-1 -38,-4 -5,12 -36,54 -47,44 -1,-4 35,-25 40,-47 3,-13 -31,-31 -6,-63 -25,-24 -76,-13 -99,13z"/>
  <path class="fil1" d="M378 1059l-18 -23c1,-12 18,-29 30,-34 20,-10 34,-7 54,-11l11 -89c-20,0 -32,1 -52,-2 -19,-3 -27,-10 -41,-15 -15,11 -14,16 -35,23 -10,3 -43,9 -51,5 -1,16 23,75 33,90 15,23 41,50 69,56z"/>
  <path class="fil2" d="M623 807l5 -16c-12,3 -11,4 -16,1l5 -22c-10,-4 -13,10 -25,11 -16,0 -9,-25 -18,-18 -8,6 2,13 -15,25 -14,9 -5,18 -12,23 -24,19 -77,44 -82,76 -4,24 33,28 50,24 19,-5 34,-17 48,-30 6,-7 14,-13 19,-20 16,-20 9,-6 22,-16 5,-3 16,-15 20,-19 17,-18 3,-13 -1,-19z"/>
  <path class="fil0" d="M1170 560c4,-15 33,-3 43,5 10,10 18,24 22,38 9,30 -5,73 -42,72l-1 -4 1 4 -2 60c59,-7 86,-91 71,-141 -16,-54 -62,-101 -122,-96l30 62z"/>
  <path class="fil4" d="M880 362c1,-13 83,6 95,11 12,-17 3,-51 -8,-68 -15,-21 -44,-23 -67,-19 -56,8 -58,68 -54,74 5,10 32,4 34,2z"/>
  <path class="fil3" d="M385 638c25,-6 19,44 0,44 -25,-1 -21,-39 0,-44zm12 -39c-33,4 -42,49 -30,75 12,24 43,49 71,42 71,-17 23,-125 -41,-117z"/>
  <path class="fil5" d="M354 846l-9 -16c-7,-7 -1,2 -10,-9 -8,-8 -7,-4 -8,-16 -1,-11 5,-25 11,-35 0,0 19,-5 19,-5 10,3 13,3 24,5l13 -5c0,-4 -22,-17 -41,-14 -49,7 -49,66 -30,82 1,1 12,9 12,9 3,0 19,4 19,4zm-105 -206l-12 -56c-1,37 8,91 12,129 4,30 -1,30 17,55 5,8 31,33 27,41l-3 2 -35 -45c1,20 1,56 5,73 2,15 2,15 18,21 7,2 29,3 30,10l23 -13 1 2 1 1 0 1 1 1 1 1 1 1 1 1 1 2 1 1 1 1 1 1 1 0 1 1 1 1 1 1 2 1 1 1 -1 -1 -2 -1 -1 -1 -1 -1 -1 -1 -1 0 -1 -1 -1 -1 -1 -1 -1 -2 -1 -1 -1 -1 -1 -1 -1 -1 0 -1 -1 -1 -1 -2 -12 -19 4 -3 11 14 -39 -39 0 -1 9 -7c-1,-1 -33,-62 -36,-73 -5,-13 -24,-81 -19,-89zm149 123l-4 2 4 -2z"/>
  <path class="fil3" d="M978 547c23,-26 74,-37 99,-13 -25,32 9,50 6,63 -5,22 -41,43 -40,47 11,10 42,-32 47,-44 10,3 24,17 38,4 8,13 8,44 2,59 -11,27 -40,31 -28,37l35 -30 -1 -2c-8,35 19,52 37,25 6,-9 5,-29 -5,-35 -13,-8 -24,6 -32,10 3,-16 6,-21 5,-40 -1,-15 -8,-23 -6,-38 2,-17 -20,-52 -36,-58 -9,-3 -11,0 -19,-5 -17,-12 -38,-15 -58,-12 -46,6 -61,46 -44,32z"/>
  <path class="fil2" d="M726 1025l5 16c-3,4 -9,1 -13,5l10 14 -8 3c15,21 52,43 78,42 16,0 29,-8 39,-21 6,-9 -5,-32 -13,-39 -21,-8 -30,0 -56,-18 -7,-5 -15,-19 -19,-14 -10,12 -2,13 -23,12z"/>
  <path class="fil4" d="M1170 560l22 111 1 4c37,1 51,-42 42,-72 -4,-14 -12,-28 -22,-38 -10,-8 -39,-20 -43,-5z"/>
  <path class="fil1" d="M179 987c-17,30 52,144 101,119 2,-1 -8,-7 -11,-12 -5,-10 0,-12 -10,-18 -53,-30 -77,-87 -80,-89z"/>
  <path class="fil2" d="M308 870l-44 -7 0 -1 9 43c29,4 63,-2 82,-24l-7 -6 -1 -1 -2 -1 -1 -1 -1 -1 -1 -1 -1 0 -1 -1 -1 -1 -1 -1 -1 -2 -1 -1 -1 -1 -1 -1 -1 -1 0 -1 -1 -1 -1 -2 -23 13z"/>
  <path class="fil3" d="M392 547c-24,4 -44,11 -65,24 -17,11 -11,24 1,19 12,-5 19,-10 32,-13 49,-13 66,-2 78,-4 16,-4 16,-34 -46,-26z"/>
  <path class="fil2" d="M675 1182c1,19 5,35 3,56 -1,13 -6,15 9,19 3,0 24,1 24,1 4,-20 7,-25 0,-44 -4,-11 -9,-27 -18,-35l-18 3z"/>
  <path class="fil6" d="M685 1173c-9,-13 -126,-17 -146,-16l3 19 0 3 143 -4 0 -2z"/>
  <path class="fil3" d="M972 474c13,-5 18,14 7,16 -10,3 -23,-10 -7,-16zm1 -6c-43,10 -30,53 7,53 38,0 31,-61 -7,-53z"/>
  <path class="fil2" d="M552 1185l-9 -2c-3,13 0,19 -9,31 -9,13 -18,10 -25,15l9 26 42 2 -8 -72z"/>
  <polygon class="fil7" points="448,1020 497,920 497,923 461,908 461,906 "/>
  <path class="fil8" d="M345 830c-4,-42 21,-42 36,-60 -11,-2 -14,-2 -24,-5 0,0 -19,5 -19,5 -6,10 -12,24 -11,35 1,12 0,8 8,16 9,11 3,2 10,9z"/>
  <path class="fil4" d="M385 638c-21,5 -25,43 0,44 19,0 25,-50 0,-44z"/>
  <path class="fil4" d="M522 1262c7,9 3,11 18,15 7,1 22,-1 27,-6l-4 -12c-6,9 -31,2 -41,3z"/>
  <path class="fil4" d="M972 474c-16,6 -3,19 7,16 11,-2 6,-21 -7,-16z"/>
 </g>
</svg>
