<svg xmlns="http://www.w3.org/2000/svg" viewBox="0 0 291.52 308.21"><defs><style>.cls-1{fill:#d5852c;}.cls-2{fill:#b05a55;}.cls-3{fill:#fee2c9;}.cls-4{fill:#7b2a2c;}.cls-5{fill:#fff;}.cls-6{fill:#f9b6aa;}.cls-7{fill:#fc6abc;}.cls-8{fill:#fea6db;}.cls-9{fill:#f1778b;}</style></defs><title>Ресурс 1</title><g id="Слой_2" data-name="Слой 2"><g id="Слой_1-2" data-name="Слой 1"><g id="Layer_1"><path class="cls-1" d="M250.36,167.92c-3.34,3.18-12.24,1.79-16.24.15a29.65,29.65,0,0,1-11.31-8.34c-3.06-3.63-5.81-8.44-6.49-13.21s1.36-12.24,4.25-15.28c-3.94,3.43-.51-6.12,10.63-7.62,4.73-.62,9.86.11,13.86,2.81,2,1.36,2.52.48,4.56,1.21,3.89,1.42,9.13,10,8.68,13.89-.43,3.66,1.08,5.56,1.36,9.3.31,4.51-.43,5.61-1.19,9.61,1.87-1.1,4.48-4.36,7.62-2.49,2.47,1.47,2.84,6.2,1.36,8.42-4.39,6.54-10.91,2.49-9-5.93l.31.37Zm-31-55.47c9.24-2.07,10.83,12.56,1.67,12.61C212.18,125.15,209,114.75,219.38,112.45ZM197.07,86.83c-.6.59-6.95,2-8.28-.37C188,85,188.42,70.7,201.86,68.63c5.64-.88,12.47-.49,16,4.62,2.75,4,4.84,12.1,2,16.24l14,5.61c5-16.52-10.71-31.32-25.56-35.29-8.9-2.38-17.35-.45-24.75,4.85-5.27,3.77-12.59,12.84-12.05,19.61l-1,2.67,5.61-.74c.34,2.38-12.19,4.48-15.67,5.78-15.59,5.79-27.16,15.34-37.19,28.35-10.32,13.41-15.65,33.45-14.89,50.46.12,2.63,2.84,17.88,2.1,18.68-2.81-1,2-3-13.46-5.19-5.56-.77-11.29-.91-16.59,1.22C71,189.27,63,202.2,79.63,203c6.18.31,12.36.14,18.54.25,5.19.12,8.19-3.31,12.47-6.29,1.33-1,4.65-2.75,5.22-4.14,1.56-3.71.39-2.81,3.74-5.64,2.1-1.76,1.1-4.54,3.4-6,4-2.58,3.69,3.35,4.22,4.25,2.5.94,5.84-5.33,8.48-1.3l.51.2-1.62,4.22c5.22-1.76,3.09,2.33,4.23,5.24,1.47,3.77-1.25,5.28-3.77,7.66s-6.13,4-7.29,5.21c-3.94,4.17-7.23,8.68-13.32,11.88-3.46,1.82-6.66,1.22-8.22,4.48C103.33,229,100.49,233.66,98,240c-4.85,12.28-9.5,28.74-4.62,41.53,2.13,5.64,7.17,11.62,13.72,11.56,9.78-.11,6.43-11.67,6.38-16.95,6-1.1,21,.37,27.47,1.25,11,1.47,12.72,2.07,16.83,12.42,3.57,8.95,9.73,12.33,15.42,2.6,2.84-4.84,4.71-20.83,2.38-25.2-5.89-2.63-7.79-1.78-14.11-6.52-6.64-5-4.17-6.4-4.28-7.39-.06-.6-.51-.83-.6-1.85-.2-2.07,1.19-2.12,2.3-2.83-4.4-6.75,2.69-3.66,4.17-4.51.82-1,.05-5.47,3.65-3.8,1,.46,2.84,3.09,4.06,4.11,2.66,2.24,8.47,4.85,12,4.28l-.71-2.43c5.24-1.28,9,31,19.64,18.48,3.63-4.25,2-12-.91-16.24-4.93-7.35-7.37-5.11-15.25-6.07a101.8,101.8,0,0,1-32.74-9.78c-4.73-2.41-23.89-13-24.71-17.8,4.5,1.81,9.92,7,14.51,10,16.92,11,37.5,17.46,57.71,16.35,25.71-1.42,49.33-14.77,61.37-37.9,17.75-34,8.71-83.68-26.36-105C220.23,89.12,212.8,90.45,197.07,86.83Z"/><path class="cls-2" d="M54.71,261.92c2.67,3.26,12.84,4.2,16.73,4.42s7.37-3.65,9-6.94c1.76-3.52-.22-2.38-.9-3.26-15.54.93-25.29-20.55-28.46-32.88a331.28,331.28,0,0,1-8.93-53.52c-1.62-19-1.73-40.17.93-59.05,1.59-11.36,2.3-28.2,8.82-38,3-4.59,4.87-4.2,8.08-7.43-8.08-3-13.69,5-15.31,4.51-.45-1.9,3.63-4.59,5.44-5.36,4.26-1.84,5.47-1,9.61-1.13.2-2.5.26-4,1.53-6.18.23-.4,3.35-4.45,3.35-4.45,1,.39,7.54,12.75,8.93,14.91A115,115,0,0,0,83.88,81,112.71,112.71,0,0,0,96,92.61c2.15,1.78,13.15,8.9,13.55,10.37l-.46.54.46-.54,2.18.88,9.75,1.7c-4.17-6.23-5.58-5.89-11.25-10.12C106,92.32,102,89.35,98,86.09c-3.68-3-19.62-18.46-20.92-22,3.37,3.15,6.66,7.94,10.09,11.42a168.82,168.82,0,0,0,23.78,19.9c2.07,1.36,12.82,7.54,13.44,8.39l-2.81-1,2.33,2.61a21.92,21.92,0,0,1,4.76-6.57c2.55-2.5,5.16-3.55,7.06-5.28-7.17-9.21-14.46-15.73-22.51-23.89A135.08,135.08,0,0,0,100.61,59c-2.53-2-11.94-8.39-13.3-10,11.34,5.47,36.8,29.37,45.24,39.46,7.06,8.45,5.53,4.34,1.19-2.13-2.8-4.19-6-8.07-9.18-11.93-3.37-4.08-6.46-7.23-10.15-11-1.78-1.81-10.54-9.52-11.14-10.52C107,54.68,119.43,67.38,122.6,71c2.87,3.31,5.7,6.71,8.25,10.23,2.18,3,5.47,8.56,7.63,11L145,90.06c-3.49-10-13.69-22.77-21.12-30.59a85.13,85.13,0,0,0-14.06-11.85c-2.15-1.42-16.38-8.3-16.7-9,.34-3.26,16.28,6.77,18.12,8.13,5.44,4,10.91,8.23,15.36,13.38,9.16,10.63,17.63,21.69,22.59,35l19.59-8,.17.46c-.25-5.08,2.1-4.45-.79-9.93-5.16-9.78-8-14.48-15.62-23.24a101.3,101.3,0,0,0-29-22.62C111.78,25.51,94.94,20,81.76,24,70,27.64,56.24,33.34,51.62,45.75c-21.17,0-30.07,19.11-35.91,36.68-6.44,19.33-10.09,43.12-9.36,63.44.83,23.24,3,44.22,5.65,67.24,1.78,15.48-5,55.95,17.26,55.36-5.13-9.78-4-16.78-3.12-27.55.6-7,1-7.18-.59-14-.52-2.3-2.56-13.3-.54-14.26,1.73.39,1.27,8.53,1.64,10.51a47.67,47.67,0,0,0,12,25,49.78,49.78,0,0,0,22.48,14.29c1.79.51,9.44,1.28,9.1,3.09l-.2.77Z"/><path class="cls-3" d="M80.45,183.63l0,0,.77-.43c4.7,0,7.56-1.53,14.06-.82,4.73.48,8.56,1.76,13,2.53-3-18.54-2.64-31.75,4.45-49.33,3.28-8.1,10.6-19.53,17.09-25.88,1.53-1.53,6.8-5.64,7.57-6.72l-5.25-1.41-6,10.49c-3.86-.32-3,.56-3.32-3.63l-11.14-4.54-2.18-.88-.46.54c-7.93-.79-30-25.11-36-31.55,2.15,6.35,11.93,18.17,17,22.74a60.33,60.33,0,0,0,11.79,8.1c5.81,3.12,9.44,3.06,14.86,5-.48,2.29-16.27-5.25-17.8-6.15-9.84-5.87-18.4-15.22-24.16-25.06-1.24-2.1-8.22-14.85-9.12-15.45-.6,5.07-.91,3.77.73,6.07-1.56,1.13-5.84-2.47-11.42,4.39-8.45,10.32-8.56,30.13-8.62,43.26a158.57,158.57,0,0,0,2.78,31.74c2.1,10.58,5.33,16.67,8.42,26.28-3.86-2.12-9.58-28.29-10.35-33.45-2.26-15.13-1.16-26.67-.73-41.58l-1.93,14.91c-.57,5.07-1.16,10.69-1.28,15.76a92.24,92.24,0,0,0,1.05,16c.26,1.75,3.21,13,3,13.43l-1.65-4.36c-1.3,2,3.32,18.31,4.42,21.34.91,2.55,8.59,17.15,8.68,17.43l-2.07,1.73-.06.32,9.44,9.24c6.07,9.69,18.71,11.93,29.23,10.77l-.51-.26,4.53-9.32.43.22c-9.41-.2-20,1.17-28.8-2.12-.09,0-4-.94-4.68-1-.06,0-2.55-1.9-2.89-2.19-4.51-3.74-4.54-17.94,7.28-19.56C75.21,179.66,80.4,182.75,80.45,183.63Zm.63-39.86c15.39-1.9,26.84,24.1,9.8,28.18-6.74,1.62-14.06-4.37-16.86-10.09C71,155.59,73.31,144.74,81.08,143.77ZM80,131.39c14.74-2,14.82,5.3,10.88,6.06-2.69.54-6.91-2-18.65,1-3.23.85-4.87,2-7.71,3.15s-4.34-1.79-.11-4.53A36,36,0,0,1,80,131.39Z"/><path class="cls-4" d="M111,303c2.49-.26,8.36,1.5,9.86-.83l1,3c-1.27,1.05-4.84,1.64-6.46,1.25C111.86,305.46,112.82,305.06,111,303Zm36.74-19.36,4.42-.54c2.18,1.9,3.26,5.61,4.36,8.42,1.7,4.36.8,5.67,0,10.48,0,0-5.16-.19-5.87-.34-3.54-.76-2.29-1.24-2.09-4.56C148.94,292.08,148,288.34,147.78,283.61Zm-27.44,18-10.29-.36L108,295c1.68-1.16,3.75-.43,6-3.52,2.09-2.94,1.56-4.36,2.12-7.48l2.18.34Zm-5.14-23.92c4.82-.28,32.89.77,35.1,3.86l0,.59-34.44.79v-.73ZM160.13,246c5,.26,3,0,5.56-2.86.91-1,2.86,2.18,4.48,3.34,6.12,4.43,8.45,2.53,13.52,4.28,1.81,1.76,4.48,7.43,2.95,9.53a11.66,11.66,0,0,1-9.3,5.07c-6.18.14-15-5.16-18.68-10.23l1.93-.54-2.5-3.49c1-1,2.58-.19,3.26-1.1Zm-131.41-9.1c.79.43,6.55,14.23,19.16,21.46,2.52,1.45,1.28,1.93,2.52,4.2.77,1.39,3.15,2.69,2.56,3C41.36,271.36,24.58,244.2,28.72,236.86Zm67.69-19.41.17.56,8.62,3.43-.2-.62L93.46,244.94Zm39.06-23.87c.91,1.56,4.2.48.17,4.68a65.57,65.57,0,0,1-4.79,4.56c-3.2,2.38-1.44-.91-5.24,3.85a54.39,54.39,0,0,1-4.68,4.68c-3.29,3.2-7,6.21-11.59,7.31-4,1-12.84.06-12-5.66,1.19-7.77,14-13.84,19.7-18.26,1.78-1.39-.43-3.34,2.94-5.67,4.14-2.86,1.7-4.45,3.55-5.92,2.29-1.79.42,4.36,4.33,4.22,2.9-.08,3.69-3.4,6.07-2.58L132.75,190c1.22.71.85.46,3.83-.17ZM54.71,261.92,70,266.29l.2-.77c.34-1.81-7.31-2.58-9.1-3.09a49.78,49.78,0,0,1-22.48-14.29,47.67,47.67,0,0,1-12-25c-.37-2,.09-10.12-1.64-10.51-2,1,0,12,.54,14.26,1.55,6.85,1.19,7,.59,14-.91,10.77-2,17.77,3.12,27.55C7,269.06,13.78,228.59,12,213.11c-2.67-23-4.82-44-5.65-67.24-.73-20.32,2.92-44.11,9.36-63.44,5.84-17.57,14.74-36.65,35.91-36.68C56.24,33.34,70,27.64,81.76,24c13.18-4,30,1.5,41.78,7.71a101.3,101.3,0,0,1,29,22.62c7.6,8.76,10.46,13.46,15.62,23.24,2.89,5.48.54,4.85.79,9.93l-.17-.46-19.59,8c-5-13.32-13.43-24.38-22.59-35-4.45-5.15-9.92-9.35-15.36-13.38-1.84-1.36-17.78-11.39-18.12-8.13.32.74,14.55,7.62,16.7,9a85.13,85.13,0,0,1,14.06,11.85c7.43,7.82,17.63,20.58,21.12,30.59l-6.49,2.24c-2.16-2.47-5.45-8-7.63-11-2.55-3.52-5.38-6.92-8.25-10.23-3.17-3.66-15.62-16.36-19.33-18.15.6,1,9.36,8.71,11.14,10.52,3.69,3.74,6.78,6.89,10.15,11,3.17,3.86,6.38,7.74,9.18,11.93,4.34,6.47,5.87,10.58-1.19,2.13-8.44-10.09-33.9-34-45.24-39.46,1.36,1.59,10.77,8,13.3,10a135.08,135.08,0,0,1,12.58,10.69c8,8.16,15.34,14.68,22.51,23.89-1.9,1.73-4.51,2.78-7.06,5.28a21.92,21.92,0,0,0-4.76,6.57l-2.33-2.61,2.81,1c-.62-.85-11.37-7-13.44-8.39a168.82,168.82,0,0,1-23.78-19.9c-3.43-3.48-6.72-8.27-10.09-11.42,1.3,3.51,17.24,19,20.92,22,4,3.26,8,6.23,12.25,9.35,5.67,4.23,7.08,3.89,11.25,10.12l-9.75-1.7,11.14,4.54c.34,4.19-.54,3.31,3.32,3.63l6-10.49,5.25,1.41c-.77,1.08-6,5.19-7.57,6.72-6.49,6.35-13.81,17.78-17.09,25.88-7.09,17.58-7.46,30.79-4.45,49.33-4.48-.77-8.31-2-13-2.53-6.5-.71-9.36.85-14.06.82l-.77.43,0,0-3.23,1.27c-3.49,4.34-9.52,4.31-8.62,14.26L70.93,203c8.79,3.29,19.39,1.92,28.8,2.12l-.43-.22-4.53,9.32.51.26c-10.52,1.16-23.16-1.08-29.23-10.77l-2.66-3.26-.94.59,2.92,4.71.17.31.2.25.11.4.26.26.2.25.25.26.23.22L67,208l.22.22.23.23.25.25.23.23.28.23.23.23.29.22.31.23.31.17,1.76,1.39c-4.77,5.36-12.93,6.89-19.82,5.78l-2.15-10.32,0,.34,10.6,1.59c-.17-1.7-5.47-2-7.14-2.47-3.8-1.22-3.77-1.3-4.42-4.9-.77-4.17-.91-12.81-1.19-17.55l8.53,10.83.59-.45c1-2.1-5.16-8-6.49-9.89-4.25-6-3.12-6-3.94-13.16-1.1-9.3-3.32-22.08-2.92-31.09l2.89,13.55L47.29,158c.2-.4-2.75-11.68-3-13.43a92.24,92.24,0,0,1-1.05-16c.12-5.07.71-10.69,1.28-15.76l1.93-14.91c-.43,14.91-1.53,26.45.73,41.58.77,5.16,6.49,31.33,10.35,33.45-3.09-9.61-6.32-15.7-8.42-26.28a158.57,158.57,0,0,1-2.78-31.74c.06-13.13.17-32.94,8.62-43.26,5.58-6.86,9.86-3.26,11.42-4.39-1.64-2.3-1.33-1-.73-6.07.9.6,7.88,13.35,9.12,15.45,5.76,9.84,14.32,19.19,24.16,25.06,1.53.9,17.32,8.44,17.8,6.15-5.42-2-9-1.93-14.86-5a60.33,60.33,0,0,1-11.79-8.1C85,90.14,75.18,78.32,73,72c6.06,6.44,28.12,30.76,36.05,31.55l.46-.54c-.4-1.47-11.4-8.59-13.55-10.37A112.71,112.71,0,0,1,83.88,81,115,115,0,0,1,73.51,67.58c-1.39-2.16-7.88-14.52-8.93-14.91,0,0-3.12,4-3.35,4.45C60,59.33,59.9,60.8,59.7,63.3c-4.14.14-5.35-.71-9.61,1.13-1.81.77-5.89,3.46-5.44,5.36,1.62.48,7.23-7.48,15.31-4.51-3.21,3.23-5.05,2.84-8.08,7.43-6.52,9.78-7.23,26.62-8.82,38-2.66,18.88-2.55,40.06-.93,59.05a331.28,331.28,0,0,0,8.93,53.52c3.17,12.33,12.92,33.81,28.46,32.88l-3-1.93c-6.66-1.53-13-7.85-16.64-13.44-2.38-3.62-8.16-17.66-7.91-21.51,2,.82,9.95-.65,12.27-1.42,5.08-1.67,4.91-2.89,8.48-5.35,3.4,1,5.27,2.72,9.75,3.51,4.79.85,7.83.54,12.45.4l-2.53,21.48a41.77,41.77,0,0,0,.12,9.41c.28,2.73-.66,5.19-1.25,7.88A57.88,57.88,0,0,0,89.61,272c.57,9.27,4.82,20.1,14.77,22.57,3.94.59,1.84,5.27,6.37,11.25,2.56,3.34,10.69,2.89,13.1.37l-2.83-12-.71-9.72,25.62-.43,1,10.4-1.84,10-.77-.17c.49,2.81,8.68,3.8,10.89,2.81,3.83-1.68,2.75-7.15,3.94-10.46,6.8,7.45,11,1.36,15.31-3,1.16-4.59,2.8-5.36,3.4-11.88.48-5.47-.43-9.78-.31-14.65,5-.45,8.07-2.41,10.94-6.21,1.39,3.06,2.63,7.34,6.46,8,8.16,1.39,12.61-7.82,9.35-17.06-1.7-4.88-3.91-5.58-5.61-8.7,11.34-1.67,17.07-1.48,28.18-6.15A75.93,75.93,0,0,0,248,223.74c13.18-11.54,20.89-28.26,23.24-45.47,10.83-2.18,16.84-10.2,19.39-20.64,3.85-15.64-5.84-32.59-19.73-38.35a23.57,23.57,0,0,0-8.36-1.73c-5,0-3.38,1.65-6.38-2.52a70.65,70.65,0,0,0-20.95-18.79c3.57-10.86-.68-20.84-8.9-28.15-9.21-8.22-16.44-11-28.83-10.94-6.91-9.67-10-14.26-20-21.32a96.54,96.54,0,0,0-13.07-7.57c-1.41-.65-14.48-5.78-14.42-5.89.62-.66,11.79,1.87,16.92-5.76,3-4.42.54-15.56-2.69-16.61,2.38,5.36,6.15,11.28,1.67,16.81-8,9.86-26.25,2.35-36.48.85a111,111,0,0,0-21.23-1.05,81.49,81.49,0,0,0-19.56,3.32c-2.92.88-5.39,2.32-8.22,3.31s-5.76,1.48-8.57,2.67c-21.91,9.27-15.9,17.55-26.61,18.82-11.48,1.33-17.75,10.35-23.16,19.9C15.57,77,17.61,73.9,14,83.51c.2.42-5.07,18.2-5.58,20.8a190.64,190.64,0,0,0-3.23,24c-1.14,17.26,0,34.24,1.55,51.44,2,21.38,3.86,25.77-2.91,46.95C.18,237.91-4.59,260.9,9.5,267.17c-.62-1.9-5.81-5.62-7.71-12.17-3.2-11,1.08-22.16,4.22-32.54.51-1.75,3-15.87,3.49-16.1,2.13,13.67,1.65,28.58,1.87,42.49.26,18,13.78,25.32,20.72,20.61.12-1.81-3.31-2.38-4.45-9.83-.25-1.73-.73-13,.09-14,3,8.25,2.78,9.81,9.44,16.41,4.5,4.45,15,8.17,19.22,3.72l-4.51-4.23.51-.59ZM272.13,162l-.23-1-5.3-26.51-7.25-15c14.48-1.22,25.65,10,29.45,23.19,3.49,12-2.92,32.11-17.07,33.7Zm-52.3-72.51c-2.78-1.11-22.48-5.75-22.76-2.66,15.73,3.62,23.16,2.29,38.21,11.45,35.07,21.31,44.11,71,26.36,105-12,23.13-35.66,36.48-61.37,37.9-20.21,1.11-40.79-5.38-57.71-16.35-4.59-3-10-8.17-14.51-10,.82,4.76,20,15.39,24.71,17.8a101.8,101.8,0,0,0,32.74,9.78c7.88,1,10.32-1.28,15.25,6.07,2.87,4.25,4.54,12,.91,16.24C191,277.23,187.26,245,182,246.25l.71,2.43c-3.52.57-9.33-2-12-4.28-1.22-1-3.09-3.65-4.06-4.11-3.6-1.67-2.83,2.81-3.65,3.8-1.48.85-8.57-2.24-4.17,4.51-1.11.71-2.5.76-2.3,2.83.09,1,.54,1.25.6,1.85.11,1-2.36,2.41,4.28,7.39,6.32,4.74,8.22,3.89,14.11,6.52,2.33,4.37.46,20.36-2.38,25.2-5.69,9.73-11.85,6.35-15.42-2.6-4.11-10.35-5.81-11-16.83-12.42-6.5-.88-21.49-2.35-27.47-1.25,0,5.28,3.4,16.84-6.38,16.95-6.55.06-11.59-5.92-13.72-11.56C88.47,268.72,93.12,252.26,98,240c2.52-6.32,5.36-11,8.25-16.95,1.56-3.26,4.76-2.66,8.22-4.48,6.09-3.2,9.38-7.71,13.32-11.88,1.16-1.21,4.82-2.92,7.29-5.21s5.24-3.89,3.77-7.66c-1.14-2.91,1-7-4.23-5.24l1.62-4.22-.51-.2c-2.64-4-6,2.24-8.48,1.3-.53-.9-.19-6.83-4.22-4.25-2.3,1.47-1.3,4.25-3.4,6-3.35,2.83-2.18,1.93-3.74,5.64-.57,1.39-3.89,3.18-5.22,4.14-4.28,3-7.28,6.41-12.47,6.29-6.18-.11-12.36.06-18.54-.25C63,202.2,71,189.27,80.42,185.5c5.3-2.13,11-2,16.59-1.22,15.45,2.15,10.65,4.17,13.46,5.19.74-.8-2-16.05-2.1-18.68-.76-17,4.57-37,14.89-50.46,10-13,21.6-22.56,37.19-28.35,3.48-1.3,16-3.4,15.67-5.78l-5.61.74,1-2.67c-.54-6.77,6.78-15.84,12.05-19.61,7.4-5.3,15.85-7.23,24.75-4.85,14.85,4,30.55,18.77,25.56,35.29ZM96.61,19.76c21.4-4.68,53,1.47,71.89,12.58,9.63,5.67,17.09,11,23.78,20.13,2,2.75,4.76,4.73,1.22,5.61a28.78,28.78,0,0,0-7.77,3c-7.94,4.48-9.58,9-11.37,10.32l-1.73-2.72c-.14,2.38,2.44,1.28-.11,5.87L170,80.42C158.4,53.8,131.16,29,102.51,23.19a44.24,44.24,0,0,0-7.91-.94l-8.37.29c10.44-3.15,16.87-2.78,27.61-.37a87.79,87.79,0,0,1,23.45,9,83.08,83.08,0,0,1,18.42,14c3.49,3.6,13,17.4,14.09,18.28C166.57,53.09,150.72,38.83,141.71,33A81.07,81.07,0,0,0,96.61,19.76Z"/><path class="cls-2" d="M96.61,19.76A81.07,81.07,0,0,1,141.71,33c9,5.86,24.86,20.12,28.09,30.44-1.13-.88-10.6-14.68-14.09-18.28a83.08,83.08,0,0,0-18.42-14,87.79,87.79,0,0,0-23.45-9c-10.74-2.41-17.17-2.78-27.61.37l8.37-.29a44.24,44.24,0,0,1,7.91.94C131.16,29,158.4,53.8,170,80.42l2.52-5.84c2.55-4.59,0-3.49.11-5.87l1.73,2.72c1.79-1.33,3.43-5.84,11.37-10.32a28.78,28.78,0,0,1,7.77-3c3.54-.88.79-2.86-1.22-5.61C185.59,43.34,178.13,38,168.5,32.34,149.56,21.23,118,15.08,96.61,19.76Z"/><path class="cls-5" d="M220.57,131.24c-2.89,3-4.88,10.66-4.25,15.28s3.43,9.58,6.49,13.21a29.65,29.65,0,0,0,11.31,8.34c4,1.64,12.9,3,16.24-.15-3-1.24,4-2.35,6.72-8.81,1.42-3.52,1.53-11-.4-14-3.48,3.06-6.83-.29-9.3-1.17-1.07,3.07-8.56,13.16-11.31,10.72-.11-1,8.39-5.92,9.78-11.37.77-3-7.56-7.34-1.39-15.13C238.34,122.51,226,125.06,220.57,131.24Z"/><path class="cls-2" d="M76.57,254.21l-4.31-5.61c.28-2.86,4.37-6.78,7.2-8.11,4.85-2.27,8.22-1.7,13-2.61L95,216.4c-4.62.14-7.66.45-12.45-.4-4.48-.79-6.35-2.49-9.75-3.51-3.57,2.46-3.4,3.68-8.48,5.35C62,218.61,54,220.08,52,219.26c-.25,3.85,5.53,17.89,7.91,21.51C63.56,246.36,69.91,252.68,76.57,254.21Z"/><path class="cls-3" d="M135.47,193.58l1.11-3.72c-3,.63-2.61.88-3.83.17l1.22-5.24c-2.38-.82-3.17,2.5-6.07,2.58-3.91.14-2-6-4.33-4.22-1.85,1.47.59,3.06-3.55,5.92-3.37,2.33-1.16,4.28-2.94,5.67-5.73,4.42-18.51,10.49-19.7,18.26-.88,5.72,8,6.63,12,5.66,4.56-1.1,8.3-4.11,11.59-7.31a54.39,54.39,0,0,0,4.68-4.68c3.8-4.76,2-1.47,5.24-3.85a65.57,65.57,0,0,0,4.79-4.56C139.67,194.06,136.38,195.14,135.47,193.58Z"/><path class="cls-1" d="M266.6,134.53c1.14-3.71,8-.93,10.29,1.11a19.92,19.92,0,0,1,5.39,9c2.18,7.4-1.25,17.52-10.15,17.35l-.23-1,.23,1-.4,14.37c14.15-1.59,20.56-21.74,17.07-33.7-3.8-13.16-15-24.41-29.45-23.19Z"/><path class="cls-5" d="M197.07,86.83c.28-3.09,20,1.55,22.76,2.66,2.86-4.14.77-12.25-2-16.24-3.52-5.11-10.35-5.5-16-4.62C188.42,70.7,188,85,188.79,86.46,190.12,88.84,196.47,87.42,197.07,86.83Z"/><path class="cls-4" d="M78.33,153c6-1.44,4.56,10.72,0,10.55C72.32,163.36,73.14,154.29,78.33,153Zm2.75-9.27c-7.77,1-10.12,11.82-7.06,18.09,2.8,5.72,10.12,11.71,16.86,10.09C107.92,167.87,96.47,141.87,81.08,143.77Z"/><path class="cls-6" d="M70.93,203l-2.33-3.86c-1.58-1.7-.11.51-2.46-2-1.82-1.93-1.56-1-1.87-3.88-.32-2.7,1.3-6,2.58-8.51,0,0,4.67-1.19,4.67-1.16a32.91,32.91,0,0,0,5.7,1.33l3.23-1.27c0-.88-5.24-4-9.81-3.35-11.82,1.62-11.79,15.82-7.28,19.56.34.29,2.83,2.19,2.89,2.19C67,202.08,70.84,203.05,70.93,203ZM45.64,153.67l-2.89-13.55c-.4,9,1.82,21.79,2.92,31.09.82,7.12-.31,7.2,3.94,13.16,1.33,1.89,7.48,7.79,6.49,9.89l-.59.45L47,183.88c.28,4.74.42,13.38,1.19,17.55.65,3.6.62,3.68,4.42,4.9,1.67.51,7,.77,7.14,2.47l5.64-3,.17.31.2.25.11.4.26.26.2.25.25.26.23.22L67,208l.22.22.23.23.25.25.23.23.28.23.23.23.29.22.31.23.31.17-.31-.17-.31-.23-.29-.22-.23-.23-.28-.23-.23-.23-.25-.25-.23-.23L67,208l-.23-.29-.23-.22-.25-.26-.2-.25-.26-.26-.11-.4-.2-.25-.17-.31-2.92-4.71.94-.59,2.66,3.26-9.44-9.24.06-.32,2.07-1.73c-.09-.28-7.77-14.88-8.68-17.43C49,172,44.34,155.62,45.64,153.67Zm35.61,29.5-.77.43Z"/><path class="cls-4" d="M220.57,131.24c5.41-6.18,17.77-8.73,23.89-3.11-6.17,7.79,2.16,12.16,1.39,15.13-1.39,5.45-9.89,10.32-9.78,11.37,2.75,2.44,10.24-7.65,11.31-10.72,2.47.88,5.82,4.23,9.3,1.17,1.93,3,1.82,10.51.4,14-2.67,6.46-9.7,7.57-6.72,8.81l8.42-7.11-.31-.37c-1.93,8.42,4.59,12.47,9,5.93,1.48-2.22,1.11-7-1.36-8.42-3.14-1.87-5.75,1.39-7.62,2.49.76-4,1.5-5.1,1.19-9.61-.28-3.74-1.79-5.64-1.36-9.3.45-3.94-4.79-12.47-8.68-13.89-2-.73-2.55.15-4.56-1.21-4-2.7-9.13-3.43-13.86-2.81C220.06,125.12,216.63,134.67,220.57,131.24Z"/><path class="cls-3" d="M160.13,246l1.22,4c-.68.91-2.29.11-3.26,1.1l2.5,3.49-1.93.54c3.69,5.07,12.5,10.37,18.68,10.23a11.66,11.66,0,0,0,9.3-5.07c1.53-2.1-1.14-7.77-2.95-9.53-5.07-1.75-7.4.15-13.52-4.28-1.62-1.16-3.57-4.39-4.48-3.34C163.17,245.93,165.12,246.22,160.13,246Z"/><path class="cls-5" d="M266.6,134.53,271.9,161l.23,1c8.9.17,12.33-9.95,10.15-17.35a19.92,19.92,0,0,0-5.39-9C274.63,133.6,267.74,130.82,266.6,134.53Z"/><polygon class="cls-5" points="121.02 294.21 146.98 294.46 145.93 284.06 120.31 284.49 121.02 294.21"/><path class="cls-2" d="M28.72,236.86c-4.14,7.34,12.64,34.5,24.24,28.63.59-.28-1.79-1.58-2.56-3-1.24-2.27,0-2.75-2.52-4.2C35.27,251.09,29.51,237.29,28.72,236.86Z"/><path class="cls-3" d="M59.73,208.8l-10.6-1.59,0-.34,2.15,10.32c6.89,1.11,15-.42,19.82-5.78L69.37,210l-.31-.17-.31-.23-.29-.22-.23-.23-.28-.23-.23-.23-.25-.25-.23-.23L67,208l-.23-.29-.23-.22-.25-.26-.2-.25-.26-.26-.11-.4-.2-.25-.17-.31Z"/><path class="cls-4" d="M80,131.39a36,36,0,0,0-15.59,5.67c-4.23,2.74-2.75,5.72.11,4.53s4.48-2.3,7.71-3.15c11.74-3,16-.45,18.65-1C94.82,136.69,94.74,129.34,80,131.39Z"/><path class="cls-3" d="M147.78,283.61c.25,4.73,1.16,8.47.85,13.46-.2,3.32-1.45,3.8,2.09,4.56.71.15,5.87.34,5.87.34.77-4.81,1.67-6.12,0-10.48-1.1-2.81-2.18-6.52-4.36-8.42Z"/><path class="cls-7" d="M150.3,281.57c-2.21-3.09-30.28-4.14-35.1-3.86l.69,4.51V283l34.44-.79Z"/><path class="cls-4" d="M219.07,113.87c3.26-1.19,4.42,3.17,1.64,3.85C218.5,118.26,215.27,115.23,219.07,113.87Zm.31-1.42c-10.35,2.3-7.2,12.7,1.67,12.61C230.21,125,228.62,110.38,219.38,112.45Z"/><path class="cls-3" d="M118.29,284.37l-2.18-.34c-.56,3.12,0,4.54-2.12,7.48-2.24,3.09-4.31,2.36-6,3.52l2,6.24,10.29.36Z"/><polygon class="cls-8" points="93.46 244.94 105 220.82 105.2 221.44 96.58 218.01 96.41 217.45 93.46 244.94"/><path class="cls-9" d="M68.6,199.16c-.9-9.95,5.13-9.92,8.62-14.26a32.91,32.91,0,0,1-5.7-1.33s-4.65,1.16-4.67,1.16c-1.28,2.5-2.9,5.81-2.58,8.51.31,2.92,0,1.95,1.87,3.88C68.49,199.67,67,197.46,68.6,199.16Z"/><path class="cls-5" d="M78.33,153c-5.19,1.25-6,10.32,0,10.55C82.89,163.76,84.36,151.6,78.33,153Z"/><path class="cls-5" d="M111,303c1.78,2.09.82,2.49,4.39,3.46,1.62.39,5.19-.2,6.46-1.25l-1-3C119.4,304.47,113.53,302.71,111,303Z"/><path class="cls-5" d="M219.07,113.87c-3.8,1.36-.57,4.39,1.64,3.85C223.49,117,222.33,112.68,219.07,113.87Z"/></g></g></g></svg>