<?xml version="1.0" encoding="UTF-8"?>
<!DOCTYPE svg PUBLIC "-//W3C//DTD SVG 1.1//EN" "http://www.w3.org/Graphics/SVG/1.1/DTD/svg11.dtd">
<!-- Creator: CorelDRAW X6 -->
<svg xmlns="http://www.w3.org/2000/svg" xml:space="preserve" width="210mm" height="297mm" version="1.1" shape-rendering="geometricPrecision" text-rendering="geometricPrecision" image-rendering="optimizeQuality" fill-rule="evenodd" clip-rule="evenodd"
viewBox="0 0 21000 29700"
 xmlns:xlink="http://www.w3.org/1999/xlink">
 <g id="Layer_x0020_1">
  <metadata id="CorelCorpID_0Corel-Layer"/>
  <path fill="#D5852C" d="M15344 15213c-118,112 -432,63 -573,5 -154,-63 -292,-167 -399,-294 -108,-128 -205,-298 -229,-466 -22,-163 48,-432 150,-539 -139,121 -18,-216 375,-269 167,-22 348,4 489,99 71,48 89,17 161,43 137,50 322,351 306,490 -15,129 38,196 48,328 11,159 -15,198 -42,339 66,-39 158,-154 269,-88 87,52 100,219 48,297 -155,231 -385,88 -317,-209l11 13 -297 251zm-1093 -1957c326,-73 382,443 59,445 -313,3 -424,-364 -59,-445zm-787 -904c-21,21 -245,71 -292,-13 -29,-52 -13,-556 461,-629 199,-31 440,-17 564,163 97,141 171,427 70,573l494 198c176,-583 -378,-1105 -902,-1245 -314,-84 -612,-16 -873,171 -186,133 -444,453 -425,692l-34 94 198 -26c12,84 -430,158 -553,204 -550,204 -958,541 -1312,1000 -364,473 -552,1180 -525,1780 4,93 100,631 74,659 -99,-36 70,-107 -475,-183 -196,-27 -398,-32 -585,43 -331,133 -616,589 -28,618 218,11 436,5 654,9 183,4 289,-117 440,-222 47,-34 164,-97 184,-146 55,-131 14,-99 132,-199 74,-62 39,-160 120,-212 142,-91 130,118 149,150 88,33 206,-188 299,-46l18 7 -57 149c184,-62 109,82 149,185 52,133 -44,186 -133,270 -87,81 -216,141 -257,184 -139,147 -255,306 -470,419 -122,64 -235,43 -290,158 -102,209 -202,375 -291,598 -171,433 -335,1014 -163,1465 75,199 253,410 484,408 345,-4 227,-412 225,-598 211,-39 740,13 969,44 389,52 449,73 594,438 126,316 343,435 544,92 100,-171 166,-735 84,-889 -208,-93 -275,-63 -498,-230 -234,-176 -147,-226 -151,-261 -2,-21 -18,-29 -21,-65 -7,-73 42,-75 81,-100 -155,-238 95,-129 147,-159 29,-35 2,-193 129,-134 34,16 100,109 143,145 94,79 299,171 423,151l-25 -86c185,-45 316,1093 693,652 128,-150 69,-423 -32,-573 -174,-259 -260,-180 -538,-214 -387,-47 -807,-168 -1155,-345 -167,-85 -843,-460 -872,-628 159,64 350,247 512,352 597,387 1323,616 2036,577 907,-50 1740,-521 2165,-1337 626,-1199 307,-2952 -930,-3704 -531,-323 -793,-276 -1348,-404z"/>
  <path fill="#B05A55" d="M8442 18529c94,115 453,148 590,156 133,8 260,-129 317,-245 62,-124 -8,-84 -32,-115 -548,33 -892,-725 -1004,-1160 -156,-603 -262,-1268 -315,-1888 -57,-670 -61,-1417 33,-2083 56,-401 81,-995 311,-1340 107,-162 172,-148 285,-262 -285,-105 -483,176 -540,159 -16,-67 128,-162 192,-189 150,-65 193,-35 339,-40 7,-88 9,-140 54,-218 8,-14 118,-157 118,-157 37,14 266,450 315,526 111,170 232,321 366,473 124,142 282,289 427,410 76,63 464,314 478,366l-16 19 16 -19 77 31 344 60c-147,-220 -197,-208 -397,-357 -148,-110 -289,-215 -432,-330 -130,-104 -692,-651 -738,-775 119,111 235,280 356,403 237,238 561,517 839,702 73,48 452,266 474,296l-99 -37 82 92c30,-72 95,-161 168,-232 90,-88 182,-125 249,-186 -253,-325 -510,-555 -794,-843 -123,-126 -303,-267 -444,-377 -89,-71 -421,-296 -469,-352 400,193 1298,1036 1596,1392 249,298 195,153 42,-75 -99,-148 -212,-285 -324,-421 -119,-144 -228,-255 -358,-387 -63,-64 -372,-336 -393,-371 131,63 570,511 682,640 101,117 201,237 291,361 77,107 193,302 269,389l229 -79c-123,-353 -483,-803 -745,-1079 -139,-146 -327,-308 -496,-418 -76,-50 -578,-293 -589,-319 12,-115 574,239 639,287 192,142 385,290 542,472 323,375 622,765 797,1235l691 -284 6 16c-9,-179 74,-157 -28,-350 -182,-345 -283,-511 -551,-820 -282,-324 -643,-599 -1022,-798 -415,-219 -1009,-414 -1474,-272 -416,128 -900,329 -1063,767 -747,1 -1061,674 -1267,1294 -227,682 -356,1521 -330,2238 29,820 105,1560 199,2372 63,546 -175,1974 609,1953 -181,-345 -142,-592 -110,-972 21,-248 34,-253 -21,-495 -18,-81 -90,-469 -19,-503 61,14 45,301 58,371 63,354 183,609 422,882 198,226 505,423 793,504 63,18 333,45 321,109l-7 27 -539 -154z"/>
  <path fill="#FEE2C9" d="M9350 15767l1 -1 27 -15c166,1 267,-54 496,-29 167,17 302,62 460,89 -106,-654 -93,-1120 157,-1740 116,-286 374,-689 603,-913 54,-54 240,-199 267,-237l-185 -50 -213 370c-136,-11 -105,20 -117,-128l-393 -160 -77 -31 -16 19c-280,-28 -1058,-886 -1272,-1113 76,224 421,641 601,802 132,117 261,202 416,286 205,110 333,108 524,178 -17,81 -574,-185 -628,-217 -347,-207 -649,-537 -852,-884 -44,-74 -290,-524 -322,-545 -21,179 -32,133 26,214 -55,40 -206,-87 -403,155 -298,364 -302,1063 -304,1526 -1,385 24,742 98,1120 74,373 188,588 297,927 -136,-75 -338,-998 -365,-1180 -80,-534 -41,-941 -26,-1467l-68 526c-20,179 -41,377 -45,556 -5,189 9,379 37,565 9,62 113,460 106,474l-58 -154c-46,69 117,646 156,753 32,90 303,605 306,615l-73 61 -2 11 333 326c214,342 660,421 1031,380l-18 -9 160 -329 15 8c-332,-7 -706,41 -1016,-75 -3,1 -140,-33 -165,-35 -2,0 -90,-67 -102,-77 -159,-132 -160,-633 257,-690 161,-22 344,87 346,118zm22 -1406c543,-67 947,850 346,994 -238,57 -496,-154 -595,-356 -108,-221 -25,-604 249,-638zm-38 -437c520,-72 523,187 384,214 -95,19 -244,-72 -658,35 -114,30 -172,71 -272,111 -101,42 -153,-63 -4,-160 175,-113 343,-172 550,-200z"/>
  <path fill="#7B2A2C" d="M10429 19977c88,-9 295,53 348,-29l35 107c-45,37 -171,58 -228,44 -126,-34 -92,-48 -155,-122zm1296 -683l156 -19c77,67 115,198 154,297 60,154 28,200 1,370 0,0 -182,-7 -207,-12 -125,-27 -81,-44 -74,-161 11,-176 -21,-308 -30,-475zm-968 636l-363 -13 -72 -220c59,-41 132,-15 211,-124 74,-104 55,-154 75,-264l77 12 72 609zm-181 -844c170,-10 1160,27 1238,136l1 21 -1215 28 0 -26 -24 -159zm1585 -1120c176,9 107,-1 196,-101 32,-37 101,77 158,118 216,156 298,89 477,151 64,62 158,262 104,336 -79,108 -192,176 -328,179 -218,5 -529,-182 -659,-361l68 -19 -88 -123c34,-35 91,-7 115,-39l-43 -141zm-4636 -321c28,15 231,502 676,757 89,51 45,68 89,148 27,49 111,95 90,105 -409,207 -1001,-751 -855,-1010zm2388 -685l6 20 304 121 -7 -22 -407 851 104 -970zm1378 -842c32,55 148,17 6,165 -35,36 -132,134 -169,161 -113,84 -51,-32 -185,136 -48,59 -110,112 -165,165 -116,113 -248,219 -409,258 -141,34 -453,2 -422,-200 42,-274 493,-488 695,-644 63,-49 -15,-118 104,-200 146,-101 60,-157 125,-209 81,-63 15,154 153,149 102,-3 130,-120 214,-91l-43 185c43,25 30,16 135,-6l-39 131zm-2849 2411l539 154 7 -27c12,-64 -258,-91 -321,-109 -288,-81 -595,-278 -793,-504 -239,-273 -359,-528 -422,-882 -13,-70 3,-357 -58,-371 -71,34 1,422 19,503 55,242 42,247 21,495 -32,380 -71,627 110,972 -784,21 -546,-1407 -609,-1953 -94,-812 -170,-1552 -199,-2372 -26,-717 103,-1556 330,-2238 206,-620 520,-1293 1267,-1294 163,-438 647,-639 1063,-767 465,-142 1059,53 1474,272 379,199 740,474 1022,798 268,309 369,475 551,820 102,193 19,171 28,350l-6 -16 -691 284c-175,-470 -474,-860 -797,-1235 -157,-182 -350,-330 -542,-472 -65,-48 -627,-402 -639,-287 11,26 513,269 589,319 169,110 357,272 496,418 262,276 622,726 745,1079l-229 79c-76,-87 -192,-282 -269,-389 -90,-124 -190,-244 -291,-361 -112,-129 -551,-577 -682,-640 21,35 330,307 393,371 130,132 239,243 358,387 112,136 225,273 324,421 153,228 207,373 -42,75 -298,-356 -1196,-1199 -1596,-1392 48,56 380,281 469,352 141,110 321,251 444,377 284,288 541,518 794,843 -67,61 -159,98 -249,186 -73,71 -138,160 -168,232l-82 -92 99 37c-22,-30 -401,-248 -474,-296 -278,-185 -602,-464 -839,-702 -121,-123 -237,-292 -356,-403 46,124 608,671 738,775 143,115 284,220 432,330 200,149 250,137 397,357l-344 -60 393 160c12,148 -19,117 117,128l213 -370 185 50c-27,38 -213,183 -267,237 -229,224 -487,627 -603,913 -250,620 -263,1086 -157,1740 -158,-27 -293,-72 -460,-89 -229,-25 -330,30 -496,29l-27 15 -1 1 -114 45c-123,153 -336,152 -304,503l82 136c310,116 684,68 1016,75l-15 -8 -160 329 18 9c-371,41 -817,-38 -1031,-380l-94 -115 -33 21 103 166 6 11 7 9 4 14 9 9 7 9 9 9 8 8 8 10 8 8 8 8 9 9 8 8 10 8 8 8 10 8 11 8 11 6 62 49c-168,189 -456,243 -699,204l-76 -364 -1 12 374 56c-6,-60 -193,-69 -252,-87 -134,-43 -133,-46 -156,-173 -27,-147 -32,-452 -42,-619l301 382 21 -16c35,-74 -182,-282 -229,-349 -150,-210 -110,-213 -139,-464 -39,-328 -117,-779 -103,-1097l102 478 58 154c7,-14 -97,-412 -106,-474 -28,-186 -42,-376 -37,-565 4,-179 25,-377 45,-556l68 -526c-15,526 -54,933 26,1467 27,182 229,1105 365,1180 -109,-339 -223,-554 -297,-927 -74,-378 -99,-735 -98,-1120 2,-463 6,-1162 304,-1526 197,-242 348,-115 403,-155 -58,-81 -47,-35 -26,-214 32,21 278,471 322,545 203,347 505,677 852,884 54,32 611,298 628,217 -191,-70 -319,-68 -524,-178 -155,-84 -284,-169 -416,-286 -180,-161 -525,-578 -601,-802 214,227 992,1085 1272,1113l16 -19c-14,-52 -402,-303 -478,-366 -145,-121 -303,-268 -427,-410 -134,-152 -255,-303 -366,-473 -49,-76 -278,-512 -315,-526 0,0 -110,143 -118,157 -45,78 -47,130 -54,218 -146,5 -189,-25 -339,40 -64,27 -208,122 -192,189 57,17 255,-264 540,-159 -113,114 -178,100 -285,262 -230,345 -255,939 -311,1340 -94,666 -90,1413 -33,2083 53,620 159,1285 315,1888 112,435 456,1193 1004,1160l-104 -68c-235,-54 -459,-277 -587,-474 -84,-128 -288,-623 -279,-759 70,29 351,-23 433,-50 179,-59 173,-102 299,-189 120,36 186,96 344,124 169,30 276,19 439,14l-89 758c-15,89 -6,240 4,332 10,96 -23,183 -44,278 -45,194 -73,394 -60,594 20,327 170,709 521,796 139,21 65,186 225,397 90,118 377,102 462,13l-100 -423 -25 -343 904 -15 37 367 -65 353 -27 -6c17,99 306,134 384,99 135,-59 97,-252 139,-369 240,263 389,48 540,-106 41,-162 99,-189 120,-419 17,-193 -15,-345 -11,-517 178,-16 285,-85 386,-219 49,108 93,259 228,282 288,49 445,-276 330,-602 -60,-172 -138,-197 -198,-307 400,-59 602,-52 994,-217 282,-119 515,-266 745,-467 465,-407 737,-997 820,-1604 382,-77 594,-360 684,-728 136,-552 -206,-1150 -696,-1353 -89,-37 -199,-60 -295,-61 -176,0 -119,58 -225,-89 -196,-270 -454,-492 -739,-663 126,-383 -24,-735 -314,-993 -325,-290 -580,-387 -1017,-386 -244,-341 -352,-503 -707,-752 -132,-92 -315,-199 -461,-267 -50,-23 -511,-204 -509,-208 22,-23 416,66 597,-203 105,-156 19,-549 -95,-586 84,189 217,398 59,593 -283,348 -926,83 -1287,30 -247,-35 -500,-50 -749,-37 -234,12 -466,49 -690,117 -103,31 -190,82 -290,117 -101,36 -203,52 -302,94 -773,327 -561,619 -939,664 -405,47 -626,365 -817,702 -229,437 -157,327 -286,666 7,15 -179,642 -197,734 -54,271 -96,571 -114,846 -40,609 -1,1208 55,1815 70,754 136,909 -103,1656 -127,396 -295,1207 202,1428 -22,-67 -205,-198 -272,-429 -113,-387 38,-782 149,-1148 18,-62 105,-560 123,-568 75,482 58,1008 66,1499 9,634 486,893 731,727 4,-64 -117,-84 -157,-347 -9,-61 -26,-458 3,-493 106,291 98,346 333,579 159,157 530,288 678,131l-159 -149 18 -21 82 34zm7670 -3525l-8 -34 -187 -935 -256 -531c511,-43 905,354 1039,818 123,422 -103,1133 -602,1189l14 -507zm-1845 -2558c-98,-39 -793,-203 -803,-94 555,128 817,81 1348,404 1237,752 1556,2505 930,3704 -425,816 -1258,1287 -2165,1337 -713,39 -1439,-190 -2036,-577 -162,-105 -353,-288 -512,-352 29,168 705,543 872,628 348,177 768,298 1155,345 278,34 364,-45 538,214 101,150 160,423 32,573 -377,441 -508,-697 -693,-652l25 86c-124,20 -329,-72 -423,-151 -43,-36 -109,-129 -143,-145 -127,-59 -100,99 -129,134 -52,30 -302,-79 -147,159 -39,25 -88,27 -81,100 3,36 19,44 21,65 4,35 -83,85 151,261 223,167 290,137 498,230 82,154 16,718 -84,889 -201,343 -418,224 -544,-92 -145,-365 -205,-386 -594,-438 -229,-31 -758,-83 -969,-44 2,186 120,594 -225,598 -231,2 -409,-209 -484,-408 -172,-451 -8,-1032 163,-1465 89,-223 189,-389 291,-598 55,-115 168,-94 290,-158 215,-113 331,-272 470,-419 41,-43 170,-103 257,-184 89,-84 185,-137 133,-270 -40,-103 35,-247 -149,-185l57 -149 -18 -7c-93,-142 -211,79 -299,46 -19,-32 -7,-241 -149,-150 -81,52 -46,150 -120,212 -118,100 -77,68 -132,199 -20,49 -137,112 -184,146 -151,105 -257,226 -440,222 -218,-4 -436,2 -654,-9 -588,-29 -303,-485 28,-618 187,-75 389,-70 585,-43 545,76 376,147 475,183 26,-28 -70,-566 -74,-659 -27,-600 161,-1307 525,-1780 354,-459 762,-796 1312,-1000 123,-46 565,-120 553,-204l-198 26 34 -94c-19,-239 239,-559 425,-692 261,-187 559,-255 873,-171 524,140 1078,662 902,1245l-494 -198zm-4347 -2460c755,-165 1868,52 2536,444 340,200 603,388 839,710 71,97 168,167 43,198 -102,25 -182,55 -274,107 -280,158 -338,317 -401,364l-61 -96c-5,84 86,45 -4,207l-89 206c-409,-939 -1370,-1815 -2381,-2019 -90,-18 -188,-32 -279,-33l-295 10c368,-111 595,-98 974,-13 290,66 568,172 827,317 225,125 471,307 650,493 123,127 457,614 497,645 -114,-364 -673,-867 -991,-1074 -481,-315 -1017,-465 -1591,-466z"/>
  <path fill="#B05A55" d="M9920 9986c574,1 1110,151 1591,466 318,207 877,710 991,1074 -40,-31 -374,-518 -497,-645 -179,-186 -425,-368 -650,-493 -259,-145 -537,-251 -827,-317 -379,-85 -606,-98 -974,13l295 -10c91,1 189,15 279,33 1011,204 1972,1080 2381,2019l89 -206c90,-162 -1,-123 4,-207l61 96c63,-47 121,-206 401,-364 92,-52 172,-82 274,-107 125,-31 28,-101 -43,-198 -236,-322 -499,-510 -839,-710 -668,-392 -1781,-609 -2536,-444z"/>
  <path fill="white" d="M14293 13919c-102,107 -172,376 -150,539 24,168 121,338 229,466 107,127 245,231 399,294 141,58 455,107 573,-5 -105,-44 143,-83 237,-311 50,-124 54,-388 -14,-495 -123,108 -241,-10 -328,-41 -38,108 -302,464 -399,378 -4,-37 296,-209 345,-401 27,-105 -267,-259 -49,-534 -216,-198 -652,-108 -843,110z"/>
  <path fill="#B05A55" d="M9213 18257l-152 -198c10,-101 154,-239 254,-286 171,-80 290,-60 458,-92l89 -758c-163,5 -270,16 -439,-14 -158,-28 -224,-88 -344,-124 -126,87 -120,130 -299,189 -82,27 -363,79 -433,50 -9,136 195,631 279,759 128,197 352,420 587,474z"/>
  <path fill="#FEE2C9" d="M11291 16118l39 -131c-105,22 -92,31 -135,6l43 -185c-84,-29 -112,88 -214,91 -138,5 -72,-212 -153,-149 -65,52 21,108 -125,209 -119,82 -41,151 -104,200 -202,156 -653,370 -695,644 -31,202 281,234 422,200 161,-39 293,-145 409,-258 55,-53 117,-106 165,-165 134,-168 72,-52 185,-136 37,-27 134,-125 169,-161 142,-148 26,-110 -6,-165z"/>
  <path fill="#D5852C" d="M15917 14035c40,-131 283,-33 363,39 91,81 155,202 190,318 77,261 -44,618 -358,612l-8 -34 8 34 -14 507c499,-56 725,-767 602,-1189 -134,-464 -528,-861 -1039,-818l256 531z"/>
  <path fill="white" d="M13464 12352c10,-109 705,55 803,94 101,-146 27,-432 -70,-573 -124,-180 -365,-194 -564,-163 -474,73 -490,577 -461,629 47,84 271,34 292,13z"/>
  <path fill="#7B2A2C" d="M9275 14688c213,-51 161,378 -1,372 -211,-8 -182,-328 1,-372zm97 -327c-274,34 -357,417 -249,638 99,202 357,413 595,356 601,-144 197,-1061 -346,-994z"/>
  <path fill="#F9B6AA" d="M9014 16451l-82 -136c-56,-60 -4,18 -87,-72 -64,-68 -55,-34 -66,-137 -11,-95 46,-212 91,-300 1,0 165,-42 165,-41 86,28 114,31 201,47l114 -45c-2,-31 -185,-140 -346,-118 -417,57 -416,558 -257,690 12,10 100,77 102,77 25,2 162,36 165,35zm-892 -1741l-102 -478c-14,318 64,769 103,1097 29,251 -11,254 139,464 47,67 264,275 229,349l-21 16 -301 -382c10,167 15,472 42,619 23,127 22,130 156,173 59,18 246,27 252,87l199 -107 6 11 7 9 4 14 9 9 7 9 9 9 8 8 8 10 8 8 8 8 9 9 8 8 10 8 8 8 10 8 11 8 11 6 -11 -6 -11 -8 -10 -8 -8 -8 -10 -8 -8 -8 -9 -9 -8 -8 -8 -8 -8 -10 -8 -8 -9 -9 -7 -9 -9 -9 -4 -14 -7 -9 -6 -11 -103 -166 33 -21 94 115 -333 -326 2 -11 73 -61c-3,-10 -274,-525 -306,-615 -39,-107 -202,-684 -156,-753zm1256 1041l-27 15 27 -15z"/>
  <path fill="#7B2A2C" d="M14293 13919c191,-218 627,-308 843,-110 -218,275 76,429 49,534 -49,192 -349,364 -345,401 97,86 361,-270 399,-378 87,31 205,149 328,41 68,107 64,371 14,495 -94,228 -342,267 -237,311l297 -251 -11 -13c-68,297 162,440 317,209 52,-78 39,-245 -48,-297 -111,-66 -203,49 -269,88 27,-141 53,-180 42,-339 -10,-132 -63,-199 -48,-328 16,-139 -169,-440 -306,-490 -72,-26 -90,5 -161,-43 -141,-95 -322,-121 -489,-99 -393,53 -514,390 -375,269z"/>
  <path fill="#FEE2C9" d="M12161 17966l43 141c-24,32 -81,4 -115,39l88 123 -68 19c130,179 441,366 659,361 136,-3 249,-71 328,-179 54,-74 -40,-274 -104,-336 -179,-62 -261,5 -477,-151 -57,-41 -126,-155 -158,-118 -89,100 -20,110 -196,101z"/>
  <path fill="white" d="M15917 14035l187 935 8 34c314,6 435,-351 358,-612 -35,-116 -99,-237 -190,-318 -80,-72 -323,-170 -363,-39z"/>
  <polygon fill="white" points="10781,19668 11697,19677 11660,19310 10756,19325 "/>
  <path fill="#B05A55" d="M7525 17645c-146,259 446,1217 855,1010 21,-10 -63,-56 -90,-105 -44,-80 0,-97 -89,-148 -445,-255 -648,-742 -676,-757z"/>
  <path fill="#FEE2C9" d="M8619 16655l-374 -56 1 -12 76 364c243,39 531,-15 699,-204l-62 -49 -11 -6 -11 -8 -10 -8 -8 -8 -10 -8 -8 -8 -9 -9 -8 -8 -8 -8 -8 -10 -8 -8 -9 -9 -7 -9 -9 -9 -4 -14 -7 -9 -6 -11 -199 107z"/>
  <path fill="#7B2A2C" d="M9334 13924c-207,28 -375,87 -550,200 -149,97 -97,202 4,160 100,-40 158,-81 272,-111 414,-107 563,-16 658,-35 139,-27 136,-286 -384,-214z"/>
  <path fill="#FEE2C9" d="M11725 19294c9,167 41,299 30,475 -7,117 -51,134 74,161 25,5 207,12 207,12 27,-170 59,-216 -1,-370 -39,-99 -77,-230 -154,-297l-156 19z"/>
  <path fill="#FC6ABC" d="M11814 19222c-78,-109 -1068,-146 -1238,-136l24 159 0 26 1215 -28 -1 -21z"/>
  <path fill="#7B2A2C" d="M14240 13306c115,-42 156,112 58,136 -78,19 -192,-88 -58,-136zm11 -50c-365,81 -254,448 59,445 323,-2 267,-518 -59,-445z"/>
  <path fill="#FEE2C9" d="M10685 19321l-77 -12c-20,110 -1,160 -75,264 -79,109 -152,83 -211,124l72 220 363 13 -72 -609z"/>
  <polygon fill="#FEA6DB" points="9809,17930 10216,17079 10223,17101 9919,16980 9913,16960 "/>
  <path fill="#F1778B" d="M8932 16315c-32,-351 181,-350 304,-503 -87,-16 -115,-19 -201,-47 0,-1 -164,41 -165,41 -45,88 -102,205 -91,300 11,103 2,69 66,137 83,90 31,12 87,72z"/>
  <path fill="white" d="M9275 14688c-183,44 -212,364 -1,372 162,6 214,-423 1,-372z"/>
  <path fill="white" d="M10429 19977c63,74 29,88 155,122 57,14 183,-7 228,-44l-35 -107c-53,82 -260,20 -348,29z"/>
  <path fill="white" d="M14240 13306c-134,48 -20,155 58,136 98,-24 57,-178 -58,-136z"/>
 </g>
</svg>
