<svg xmlns="http://www.w3.org/2000/svg" viewBox="0 0 273.19 31.24"><defs><style>.cls-1{fill:#006837;}</style></defs><title>Ресурс 8</title><g id="Слой_2" data-name="Слой 2"><g id="Vector_Graphics" data-name="Vector Graphics"><path class="cls-1" d="M25.71,30.24s3.14-12.8,15.58-14.69c0,0-10.52,1.09-13.57,14.56Z"/><path class="cls-1" d="M17.81,30.5s3-11.25,9.74-13.75c0,0-5.5,2.57-8.61,13.68Z"/><path class="cls-1" d="M38.21,30.31s3-11.25,9.74-13.75c0,0-5.5,2.56-8.61,13.68Z"/><path class="cls-1" d="M46.51,30s3.34-15.35,9.74-19.38c0,0-5.8,4.22-8.61,19.28Z"/><path class="cls-1" d="M15.24,30.39s4.42-20.33,12.9-25.67c0,0-7.69,5.6-11.4,25.54Z"/><path class="cls-1" d="M32.31,30.45S37,7.94,52.67,8.15c0,0-14.26-.65-18.33,22.16Z"/><path class="cls-1" d="M54.22,29.54S50.38,7.28,70.71,6.38c0,0-19.39.22-14.58,23.24Z"/><path class="cls-1" d="M56.69,29.62S57.26,9.56,72.64,0c0,0-14,8.11-14.48,29.62Z"/><path class="cls-1" d="M59.18,29.62S61.44,16.87,73.89,15c0,0-10.52,1.09-13.58,14.55Z"/><path class="cls-1" d="M46.38,29.81s3-11.26,9.74-13.75c0,0-5.5,2.56-8.61,13.68Z"/><path class="cls-1" d="M66.78,29.62s3-11.26,9.74-13.76c0,0-5.5,2.57-8.61,13.68Z"/><path class="cls-1" d="M74.8,30.06s3.35-15.36,9.75-19.39c0,0-5.8,4.22-8.61,19.28Z"/><path class="cls-1" d="M43.38,30.13s3.34-15.35,9.74-19.39c0,0-5.8,4.23-8.61,19.29Z"/><path class="cls-1" d="M61.78,29.62S65.52,7.24,81.24,7.46c0,0-14.25-.65-18.33,22.16Z"/><path class="cls-1" d="M0,29.75S4.2,13.51,19.48,11.5c0,0-13.25,1.59-17.3,18.4Z"/><path class="cls-1" d="M10.07,29.75s4-14,12.89-17.16c0,0-7.67,3.4-10.22,17Z"/><path class="cls-1" d="M70.77,30.45s3.42-12.12,15.87-13.9c0,0-10.53,1-13.58,13.72Z"/><path class="cls-1" d="M19.89,30s3.34-14.47,9.74-18.27c0,0-5.51,4.17-8.32,18.36Z"/><path class="cls-1" d="M3.45,29.75S9.8,2.4,29.21,2.1c0,0-18-.81-23.38,27.66Z"/><path class="cls-1" d="M121.81,30.31s3.54-34.08,30.72-16.43c0,0-25.81-17.89-28.64,16.5Z"/><path class="cls-1" d="M6.86,31.17S10.41-2.9,37.58,14.75c0,0-25.81-17.89-28.64,16.49Z"/><path class="cls-1" d="M124.5,30.38s.62-17.58,17.37-25.95a29.86,29.86,0,0,0-15.76,26Z"/><path class="cls-1" d="M127.21,30.38s2.47-11.17,16-12.82c0,0-11.46,1-14.79,12.75Z"/><path class="cls-1" d="M113.28,30.54s3.3-9.85,10.6-12c0,0-6,2.24-9.37,12Z"/><path class="cls-1" d="M135.49,30.38s3.31-9.87,10.61-12c0,0-6,2.24-9.38,12Z"/><path class="cls-1" d="M144.53,30.09s3.64-13.44,10.61-17c0,0-6.32,3.7-9.38,16.9Z"/><path class="cls-1" d="M108.73,30.77s4.91-13.39,11.88-16.93c0,0-6.31,3.7-9.37,16.89Z"/><path class="cls-1" d="M130.05,30.38S134.11,10.77,151.24,11c0,0-15.52-.57-20,19.42Z"/><path class="cls-1" d="M152.93,29.7s-4.19-19.5,17.95-20.29c0,0-21.11.19-15.87,20.36Z"/><path class="cls-1" d="M155.62,29.77S156.23,12.2,173,3.82a29.84,29.84,0,0,0-15.77,26Z"/><path class="cls-1" d="M158.33,29.77s2.46-11.17,16-12.82c0,0-11.45.95-14.78,12.75Z"/><path class="cls-1" d="M144.39,29.94s3.31-9.86,10.61-12c0,0-6,2.24-9.38,12Z"/><path class="cls-1" d="M168.6,29.77s3.31-9.87,10.6-12c0,0-6,2.24-9.37,12Z"/><path class="cls-1" d="M177.63,29.49s3.64-13.45,10.61-17c0,0-6.32,3.7-9.38,16.9Z"/><path class="cls-1" d="M141.12,30.21s3.64-13.45,10.61-17c0,0-6.32,3.7-9.37,16.9Z"/><path class="cls-1" d="M161.16,29.77s4.07-19.6,21.19-19.41c0,0-15.52-.58-20,19.41Z"/><path class="cls-1" d="M92.07,30.34S87.89,12,110,11.21c0,0-21.11.19-15.88,19.19Z"/><path class="cls-1" d="M94.77,30.4A29.93,29.93,0,0,1,112.14,6S96.86,12.65,96.37,30.4Z"/><path class="cls-1" d="M97.48,30.4s2.46-10.52,16-12.08c0,0-11.46.9-14.78,12Z"/><path class="cls-1" d="M83.54,30.56s3.31-9.29,10.61-11.35c0,0-6,2.11-9.38,11.29Z"/><path class="cls-1" d="M105.75,30.4s3.32-9.29,10.61-11.35c0,0-6,2.11-9.37,11.29Z"/><path class="cls-1" d="M174.2,30.4s2.46-10.52,16-12.08c0,0-11.46.9-14.78,12Z"/><path class="cls-1" d="M234,30.4s3.31-9.29,10.6-11.35c0,0-6,2.11-9.37,11.29Z"/><path class="cls-1" d="M265.9,30.4s1.77-5.15,5.66-6.3c0,0-3.2,1.18-5,6.26Z"/><path class="cls-1" d="M268.94,30.54s1.33-3.86,4.25-4.72c0,0-2.4.88-3.76,4.7Z"/><path class="cls-1" d="M263.22,30.54s1.32-6.1,4.24-7.46c0,0-2.4,1.39-3.75,7.43Z"/><path class="cls-1" d="M267.69,30.59s1.08-3.21,3.45-3.93c0,0-1.95.74-3.05,3.91Z"/><path class="cls-1" d="M254.05,30.15a16.65,16.65,0,0,1,10.88-7.84,16.31,16.31,0,0,0-9.61,7.8Z"/><path class="cls-1" d="M259.9,30.34a12.5,12.5,0,0,1,8.17-5.89,12.23,12.23,0,0,0-7.22,5.85Z"/><path class="cls-1" d="M248.88,30.34s2.55-7.61,8.17-9.3c0,0-4.61,1.73-7.22,9.25Z"/><path class="cls-1" d="M257.5,30.4a10.2,10.2,0,0,1,6.63-4.9,10,10,0,0,0-5.86,4.87Z"/><path class="cls-1" d="M244.33,30.08a16.65,16.65,0,0,1,10.88-7.84,16.31,16.31,0,0,0-9.62,7.8Z"/><path class="cls-1" d="M250.17,30.27a12.5,12.5,0,0,1,8.17-5.89,12.27,12.27,0,0,0-7.22,5.86Z"/><path class="cls-1" d="M239.16,30.27s2.55-7.61,8.17-9.3c0,0-4.61,1.73-7.22,9.25Z"/><path class="cls-1" d="M247.77,30.33a10.2,10.2,0,0,1,6.64-4.9,10,10,0,0,0-5.87,4.87Z"/><path class="cls-1" d="M205.41,30.4S209.64,18.54,219,15.91c0,0-7.65,2.7-12,14.42Z"/><path class="cls-1" d="M228.37,30.15a16.65,16.65,0,0,1,10.88-7.84,16.31,16.31,0,0,0-9.61,7.8Z"/><path class="cls-1" d="M223.2,30.34s2.55-7.61,8.18-9.3c0,0-4.62,1.73-7.23,9.25Z"/><path class="cls-1" d="M218.65,30.08a16.68,16.68,0,0,1,10.88-7.84,16.31,16.31,0,0,0-9.62,7.8Z"/><path class="cls-1" d="M224.49,30.27a12.5,12.5,0,0,1,8.18-5.89,12.28,12.28,0,0,0-7.23,5.86Z"/><path class="cls-1" d="M213.48,30.27s2.55-7.61,8.18-9.3c0,0-4.62,1.73-7.23,9.25Z"/><path class="cls-1" d="M222.09,30.33a10.2,10.2,0,0,1,6.64-4.9,10,10,0,0,0-5.87,4.87Z"/><path class="cls-1" d="M179.5,30.67s5.28-14.17,16.91-17.32c0,0-9.54,3.23-14.94,17.23Z"/><path class="cls-1" d="M201.44,30.08s4.33-8.19,13.88-10a20.8,20.8,0,0,0-12.27,10Z"/><path class="cls-1" d="M196.26,30.34s2.55-7.61,8.17-9.3c0,0-4.61,1.73-7.22,9.25Z"/><path class="cls-1" d="M191.7,30.08a16.68,16.68,0,0,1,10.89-7.84A16.31,16.31,0,0,0,193,30Z"/><path class="cls-1" d="M197.55,30.27a12.5,12.5,0,0,1,8.17-5.89,12.27,12.27,0,0,0-7.22,5.86Z"/><path class="cls-1" d="M187.7,30.47s4.06-11.6,13-14.18c0,0-7.35,2.64-11.51,14.11Z"/><path class="cls-1" d="M195.15,30.33a10.2,10.2,0,0,1,6.63-4.9,10,10,0,0,0-5.86,4.87Z"/><path class="cls-1" d="M114.79,30.13s3.64-12.67,10.61-16c0,0-6.32,3.49-9.38,15.92Z"/><path class="cls-1" d="M79.34,30.76s4.57-12.61,11.54-15.94c0,0-6.32,3.49-9.38,15.92Z"/><path class="cls-1" d="M82.47,31.11s3.64-12.67,10.61-16c0,0-6.32,3.49-9.38,15.92Z"/><path class="cls-1" d="M100.31,30.4s4.07-18.47,21.19-18.29c0,0-15.52-.54-20,18.29Z"/></g></g></svg>