<svg xmlns="http://www.w3.org/2000/svg" viewBox="0 0 273.19 48.6"><defs><style>.cls-1{fill:#006837;}</style></defs><title>Ресурс 5</title><g id="Слой_2" data-name="Слой 2"><g id="Vector_Graphics" data-name="Vector Graphics"><path class="cls-1" d="M69.69,33.06s.82-16,10-25.42c-8.13,11.59-8,25.93-8,25.93Z"/><path class="cls-1" d="M69.51,36.22s.68-13.55,8.43-21.57c-6.87,9.83-6.76,22-6.76,22Z"/><path class="cls-1" d="M69,34.85S66.46,16.52,75,5.3c-6.88,13.63-3.63,30.06-3.63,30.06Z"/><path class="cls-1" d="M67.65,34.55s-4.34-11.1-.74-18.21c-2.2,8.52,2.29,18.44,2.29,18.44Z"/><path class="cls-1" d="M68.49,36.75s-3.69-9.42-.66-15.44C66,28.53,69.81,37,69.81,37Z"/><path class="cls-1" d="M67.7,35.83S60.26,23.3,62.87,15c-.68,9.84,6.69,21,6.69,21Z"/><path class="cls-1" d="M75,36.82s.82-16,10-25.43c-8.14,11.59-8,25.94-8,25.94Z"/><path class="cls-1" d="M74.79,40s.68-13.55,8.43-21.57c-6.87,9.83-6.76,22-6.76,22Z"/><path class="cls-1" d="M74.27,38.61s-2.52-18.33,6-29.55c-6.87,13.62-3.63,30.05-3.63,30.05Z"/><path class="cls-1" d="M72.93,38.31S68.59,27.2,72.19,20.1c-2.2,8.52,2.3,18.44,2.3,18.44Z"/><path class="cls-1" d="M73.77,40.5s-3.69-9.41-.66-15.44c-1.84,7.23,2,15.64,2,15.64Z"/><path class="cls-1" d="M73,39.59s-7.44-12.53-4.83-20.82c-.68,9.85,6.68,21,6.68,21Z"/><path class="cls-1" d="M77.8,36.55S82.53,25.68,91.13,19.7A48.8,48.8,0,0,0,79,37Z"/><path class="cls-1" d="M76.85,38.7s4-9.22,11.28-14.3A41.41,41.41,0,0,0,77.86,39.08Z"/><path class="cls-1" d="M76.87,37.74S80,25.08,88.61,17.86A46.42,46.42,0,0,0,78.33,38.2Z"/><path class="cls-1" d="M76.05,37.46s0-7.81,4.27-12.48C76.62,30.69,77,37.7,77,37.7Z"/><path class="cls-1" d="M76,39s0-6.62,3.6-10.58a20,20,0,0,0-2.77,10.79Z"/><path class="cls-1" d="M75.75,38.34s-1.69-9,2.22-14.48c-3,6.7-1,14.71-1,14.71Z"/><path class="cls-1" d="M80.35,39.39s4.72-10.87,13.32-16.85a48.8,48.8,0,0,0-12.14,17.3Z"/><path class="cls-1" d="M79.4,41.54s4-9.22,11.27-14.3A41.41,41.41,0,0,0,80.4,41.92Z"/><path class="cls-1" d="M79.41,40.58S82.52,27.92,91.16,20.7A46.51,46.51,0,0,0,80.87,41Z"/><path class="cls-1" d="M78.59,40.3s0-7.81,4.27-12.48c-3.7,5.71-3.29,12.72-3.29,12.72Z"/><path class="cls-1" d="M78.58,41.84s0-6.62,3.6-10.58a20.11,20.11,0,0,0-2.77,10.79Z"/><path class="cls-1" d="M78.29,41.18s-1.69-9,2.22-14.47c-3,6.69-1,14.7-1,14.7Z"/><path class="cls-1" d="M59,33S54.38,17.29,60.34,7.42c-4.2,11.89.76,25.93.76,25.93Z"/><path class="cls-1" d="M59.84,36.09S55.94,22.78,61,14.41c-3.53,10.08.69,22,.69,22Z"/><path class="cls-1" d="M58.87,34.78S50.15,17,54.89,5.45c-2.26,13.8,6.53,29.66,6.53,29.66Z"/><path class="cls-1" d="M57.42,34.58S49.34,24,50.53,16.8c.68,8.49,8.53,17.9,8.53,17.9Z"/><path class="cls-1" d="M59,36.67s-6.88-9-5.88-15.07c.6,7.19,7.26,15.17,7.26,15.17Z"/><path class="cls-1" d="M57.91,35.83s-11.66-11.77-11.86-20C48.7,25.46,59.83,35.9,59.83,35.9Z"/><path class="cls-1" d="M65.5,36.3s-4.58-15.69,1.39-25.55c-4.21,11.89.75,25.92.75,25.92Z"/><path class="cls-1" d="M66.39,39.41S62.48,26.1,67.52,17.73c-3.54,10.09.68,22,.68,22Z"/><path class="cls-1" d="M65.41,38.11s-8.72-17.78-4-29.33C59.17,22.57,68,38.44,68,38.44Z"/><path class="cls-1" d="M64,37.9s-8.08-10.58-6.89-17.77C57.75,28.61,65.6,38,65.6,38Z"/><path class="cls-1" d="M65.55,40s-6.87-9-5.88-15.07c.6,7.2,7.26,15.18,7.26,15.18Z"/><path class="cls-1" d="M64.45,39.15s-11.66-11.77-11.86-20c2.65,9.68,13.78,20.12,13.78,20.12Z"/><path class="cls-1" d="M68.23,35.85s1-11,7.62-17.39c-5.92,7.9-6.28,17.75-6.28,17.75Z"/><path class="cls-1" d="M68,38s.87-9.29,6.42-14.74a29.83,29.83,0,0,0-5.29,15.05Z"/><path class="cls-1" d="M67.7,37.07s-1.17-12.59,5-20.24c-5.12,9.31-3.4,20.6-3.4,20.6Z"/><path class="cls-1" d="M66.79,36.86s-2.63-7.65,0-12.5c-1.77,5.83,1,12.67,1,12.67Z"/><path class="cls-1" d="M67.3,38.37s-2.24-6.49,0-10.6c-1.48,4.95.88,10.75.88,10.75Z"/><path class="cls-1" d="M66.79,37.74s-4.71-8.64-2.68-14.32c-.76,6.76,3.94,14.47,3.94,14.47Z"/><path class="cls-1" d="M71.74,38.46s1-11,7.61-17.39C73.43,29,73.07,38.82,73.07,38.82Z"/><path class="cls-1" d="M71.52,40.63s.87-9.3,6.42-14.75a29.9,29.9,0,0,0-5.3,15.05Z"/><path class="cls-1" d="M71.2,39.68s-1.17-12.59,5-20.24C71.1,28.75,72.82,40,72.82,40Z"/><path class="cls-1" d="M70.29,39.47s-2.63-7.65,0-12.5c-1.77,5.83,1,12.67,1,12.67Z"/><path class="cls-1" d="M70.8,41s-2.24-6.48,0-10.6c-1.48,4.95.88,10.74.88,10.74Z"/><path class="cls-1" d="M70.29,40.35S65.58,31.71,67.61,26c-.76,6.76,3.94,14.47,3.94,14.47Z"/><path class="cls-1" d="M37.8,30s.11-17,8.76-28C39,15.14,39.77,30.34,39.77,30.34Z"/><path class="cls-1" d="M37.76,33.38s.08-14.44,7.38-23.77c-6.35,11.15-5.71,24-5.71,24Z"/><path class="cls-1" d="M37.19,32S33.9,12.81,41.84,0c-6.19,15.18-2.27,32.26-2.27,32.26Z"/><path class="cls-1" d="M35.85,31.8s-4.77-11.31-1.52-19.23c-1.8,9.27,3.07,19.31,3.07,19.31Z"/><path class="cls-1" d="M36.79,34.05s-4.06-9.6-1.33-16.31C34,25.6,38.1,34.12,38.1,34.12Z"/><path class="cls-1" d="M36,33.16s-7.89-12.5-5.68-21.57C30,22.11,37.8,33.17,37.8,33.17Z"/><path class="cls-1" d="M43.18,33.43s.11-17,8.75-28c-7.51,13.16-6.78,28.36-6.78,28.36Z"/><path class="cls-1" d="M43.14,36.8S43.21,22.36,50.52,13c-6.35,11.15-5.71,24-5.71,24Z"/><path class="cls-1" d="M42.57,35.41s-3.3-19.18,4.64-32C41,18.6,45,35.68,45,35.68Z"/><path class="cls-1" d="M41.23,35.23S36.46,23.91,39.7,16c-1.79,9.27,3.08,19.32,3.08,19.32Z"/><path class="cls-1" d="M42.16,37.47s-4.06-9.6-1.33-16.31c-1.5,7.86,2.64,16.38,2.64,16.38Z"/><path class="cls-1" d="M41.34,36.58S33.45,24.08,35.66,15c-.24,10.51,7.52,21.58,7.52,21.58Z"/><path class="cls-1" d="M46,32.84s4.19-12,12.42-19.29A57.13,57.13,0,0,0,47.15,33.19Z"/><path class="cls-1" d="M45.12,35.22S48.66,25,55.62,18.86a48.4,48.4,0,0,0-9.49,16.66Z"/><path class="cls-1" d="M45.09,34.2s2.52-13.75,10.73-22.33a54.57,54.57,0,0,0-9.26,22.67Z"/><path class="cls-1" d="M44.27,34s-.33-8.28,3.67-13.68a27.59,27.59,0,0,0-2.69,13.83Z"/><path class="cls-1" d="M44.33,35.63s-.29-7,3.09-11.6a23.42,23.42,0,0,0-2.26,11.73Z"/><path class="cls-1" d="M44,35S42,25.65,45.57,19.37c-2.7,7.42-.37,15.71-.37,15.71Z"/><path class="cls-1" d="M48.6,35.58s4.19-12,12.42-19.29A56.93,56.93,0,0,0,49.79,35.94Z"/><path class="cls-1" d="M47.76,38s3.54-10.2,10.5-16.36a48.42,48.42,0,0,0-9.5,16.66Z"/><path class="cls-1" d="M47.73,36.94s2.51-13.75,10.72-22.33a54.73,54.73,0,0,0-9.26,22.67Z"/><path class="cls-1" d="M46.91,36.74s-.34-8.29,3.67-13.69a27.62,27.62,0,0,0-2.69,13.84Z"/><path class="cls-1" d="M47,38.38s-.3-7,3.08-11.61A23.42,23.42,0,0,0,47.79,38.5Z"/><path class="cls-1" d="M46.65,37.7s-2.06-9.31,1.56-15.59c-2.7,7.42-.38,15.71-.38,15.71Z"/><path class="cls-1" d="M27.21,31.06S22,14.91,27.46,3.81c-3.63,13.06,1.88,27.42,1.88,27.42Z"/><path class="cls-1" d="M28.22,34.26s-4.43-13.69.17-23.1C25.34,22.22,30,34.4,30,34.4Z"/><path class="cls-1" d="M27.2,33S17.81,15.06,22,2.3c-1.62,14.88,7.75,30.76,7.75,30.76Z"/><path class="cls-1" d="M25.76,32.92s-8.44-10.36-7.58-18.11c1.05,8.92,9.2,18.07,9.2,18.07Z"/><path class="cls-1" d="M27.42,35S20.24,26.19,21,19.62c.9,7.56,7.83,15.32,7.83,15.32Z"/><path class="cls-1" d="M26.3,34.2s-12-11.24-12.59-20c3,10,14.48,19.88,14.48,19.88Z"/><path class="cls-1" d="M33.81,33.89s-5.21-16.15.25-27.25c-3.63,13.06,1.88,27.41,1.88,27.41Z"/><path class="cls-1" d="M34.82,37.09S30.39,23.39,35,14c-3.05,11.07,1.64,23.25,1.64,23.25Z"/><path class="cls-1" d="M33.8,35.81S24.41,17.89,28.59,5.13C27,20,36.34,35.89,36.34,35.89Z"/><path class="cls-1" d="M32.36,35.75s-8.44-10.36-7.58-18.12c1,8.93,9.2,18.08,9.2,18.08Z"/><path class="cls-1" d="M34,37.8S26.85,29,27.56,22.44c.91,7.57,7.83,15.32,7.83,15.32Z"/><path class="cls-1" d="M32.9,37s-12-11.23-12.58-20c3,10,14.48,19.87,14.48,19.87Z"/><path class="cls-1" d="M36.49,33.12S37,21.39,43.24,13.87c-5.49,9-5.42,19.49-5.42,19.49Z"/><path class="cls-1" d="M36.37,35.44s.46-9.95,5.69-16.33A35.13,35.13,0,0,0,37.5,35.65Z"/><path class="cls-1" d="M36,34.47s-1.71-13.23,4.06-22c-4.64,10.42-2.45,22.21-2.45,22.21Z"/><path class="cls-1" d="M35.11,34.34s-2.93-7.83-.5-13.26c-1.49,6.38,1.55,13.33,1.55,13.33Z"/><path class="cls-1" d="M35.68,35.89s-2.5-6.64-.45-11.24C34,30.05,36.57,36,36.57,36Z"/><path class="cls-1" d="M35.15,35.28s-5-8.67-3.27-14.9C31.42,27.62,36.4,35.3,36.4,35.3Z"/><path class="cls-1" d="M40.06,35.51s.55-11.73,6.75-19.25c-5.49,9-5.42,19.49-5.42,19.49Z"/><path class="cls-1" d="M39.94,37.84s.45-10,5.69-16.33A35.08,35.08,0,0,0,41.07,38Z"/><path class="cls-1" d="M39.59,36.87s-1.71-13.23,4.06-22C39,25.28,41.2,37.08,41.2,37.08Z"/><path class="cls-1" d="M38.68,36.74s-2.93-7.83-.5-13.26c-1.49,6.37,1.55,13.32,1.55,13.32Z"/><path class="cls-1" d="M39.25,38.29S36.75,31.65,38.8,27c-1.24,5.41,1.34,11.31,1.34,11.31Z"/><path class="cls-1" d="M38.72,37.67s-5-8.66-3.27-14.9C35,30,40,37.7,40,37.7Z"/><path class="cls-1" d="M115,33.55s-.14-17-11.41-28c9.8,13.16,8.84,28.36,8.84,28.36Z"/><path class="cls-1" d="M115.07,36.92s-.09-14.44-9.62-23.77a40.06,40.06,0,0,1,7.45,24.06Z"/><path class="cls-1" d="M115.82,35.53s4.29-19.18-6.06-32c8.07,15.18,2.95,32.25,2.95,32.25Z"/><path class="cls-1" d="M117.56,35.35s6.22-11.31,2-19.23c2.35,9.27-4,19.31-4,19.31Z"/><path class="cls-1" d="M116.35,37.59s5.29-9.59,1.73-16.31c2,7.86-3.44,16.38-3.44,16.38Z"/><path class="cls-1" d="M117.42,36.7s10.29-12.49,7.41-21.56c.31,10.52-9.8,21.58-9.8,21.58Z"/><path class="cls-1" d="M108,37s-.14-17-11.41-28c9.8,13.16,8.84,28.36,8.84,28.36Z"/><path class="cls-1" d="M108.06,40.35S108,25.9,98.45,16.57a40.09,40.09,0,0,1,7.44,24.06Z"/><path class="cls-1" d="M108.81,39s4.29-19.17-6.06-32c8.07,15.18,3,32.26,3,32.26Z"/><path class="cls-1" d="M110.55,38.77s6.22-11.31,2-19.23c2.34,9.27-4,19.31-4,19.31Z"/><path class="cls-1" d="M109.34,41s5.29-9.59,1.73-16.3c2,7.85-3.44,16.37-3.44,16.37Z"/><path class="cls-1" d="M110.41,40.13s10.29-12.5,7.41-21.57c.31,10.52-9.8,21.58-9.8,21.58Z"/><path class="cls-1" d="M104.38,36.39s-5.46-12-16.18-19.3a54.58,54.58,0,0,1,14.63,19.65Z"/><path class="cls-1" d="M105.48,38.77S100.86,28.56,91.79,22.4a46.27,46.27,0,0,1,12.38,16.67Z"/><path class="cls-1" d="M105.52,37.75s-3.28-13.76-14-22.34a47.76,47.76,0,0,1,12.07,22.67Z"/><path class="cls-1" d="M106.59,37.54s.44-8.29-4.78-13.69a22,22,0,0,1,3.5,13.84Z"/><path class="cls-1" d="M106.51,39.18s.39-7-4-11.61a18.71,18.71,0,0,1,3,11.74Z"/><path class="cls-1" d="M106.92,38.5s2.69-9.31-2-15.58c3.51,7.42.48,15.7.48,15.7Z"/><path class="cls-1" d="M101,39.13s-5.46-12-16.19-19.29A54.61,54.61,0,0,1,99.4,39.48Z"/><path class="cls-1" d="M102,41.51S97.43,31.3,88.36,25.14a46.31,46.31,0,0,1,12.37,16.67Z"/><path class="cls-1" d="M102.08,40.49s-3.27-13.76-14-22.33a47.71,47.71,0,0,1,12.07,22.67Z"/><path class="cls-1" d="M103.15,40.28s.44-8.28-4.78-13.69a22,22,0,0,1,3.51,13.84Z"/><path class="cls-1" d="M103.08,41.92s.38-7-4-11.61a18.71,18.71,0,0,1,3,11.74Z"/><path class="cls-1" d="M103.49,41.25s2.69-9.31-2-15.59c3.52,7.42.49,15.71.49,15.71Z"/><path class="cls-1" d="M128.83,34.61s6.79-16.15-.32-27.25c4.73,13.05-2.45,27.41-2.45,27.41Z"/><path class="cls-1" d="M127.52,37.81s5.78-13.7-.22-23.11c4,11.07-2.14,23.25-2.14,23.25Z"/><path class="cls-1" d="M128.85,36.53s12.23-17.92,6.79-30.68c2.12,14.87-10.1,30.76-10.1,30.76Z"/><path class="cls-1" d="M130.72,36.47s11-10.36,9.88-18.12c-1.36,8.93-12,18.07-12,18.07Z"/><path class="cls-1" d="M128.56,38.52s9.35-8.78,8.42-15.36c-1.18,7.57-10.21,15.32-10.21,15.32Z"/><path class="cls-1" d="M130,37.74s15.68-11.23,16.41-20c-4,10-18.88,19.87-18.88,19.87Z"/><path class="cls-1" d="M120.23,37.44s6.78-16.15-.33-27.26c4.73,13.06-2.45,27.42-2.45,27.42Z"/><path class="cls-1" d="M118.91,40.64s5.78-13.7-.22-23.11c4,11.07-2.13,23.24-2.13,23.24Z"/><path class="cls-1" d="M120.24,39.36S132.47,21.44,127,8.68c2.11,14.87-10.1,30.76-10.1,30.76Z"/><path class="cls-1" d="M122.11,39.29s11-10.35,9.88-18.11c-1.36,8.93-12,18.07-12,18.07Z"/><path class="cls-1" d="M120,41.35s9.35-8.79,8.42-15.36c-1.18,7.56-10.21,15.32-10.21,15.32Z"/><path class="cls-1" d="M121.41,40.57s15.68-11.24,16.41-20c-4,10-18.88,19.88-18.88,19.88Z"/><path class="cls-1" d="M116.73,36.66s-.72-11.73-8.8-19.25A34,34,0,0,1,115,36.91Z"/><path class="cls-1" d="M116.89,39s-.59-10-7.42-16.33a28.77,28.77,0,0,1,6,16.53Z"/><path class="cls-1" d="M117.35,38s2.23-13.23-5.3-22c6.06,10.41,3.19,22.21,3.19,22.21Z"/><path class="cls-1" d="M118.53,37.89s3.83-7.83.66-13.26c1.93,6.37-2,13.32-2,13.32Z"/><path class="cls-1" d="M117.79,39.44s3.25-6.64.58-11.24c1.63,5.4-1.75,11.3-1.75,11.3Z"/><path class="cls-1" d="M118.48,38.82s6.56-8.66,4.27-14.89c.59,7.24-5.9,14.92-5.9,14.92Z"/><path class="cls-1" d="M112.08,39.06s-.72-11.73-8.8-19.26a34,34,0,0,1,7.06,19.5Z"/><path class="cls-1" d="M112.24,41.38s-.6-10-7.43-16.33a28.87,28.87,0,0,1,6,16.54Z"/><path class="cls-1" d="M112.7,40.42s2.22-13.24-5.3-22c6,10.42,3.19,22.21,3.19,22.21Z"/><path class="cls-1" d="M113.88,40.28s3.82-7.83.65-13.26c1.94,6.38-2,13.33-2,13.33Z"/><path class="cls-1" d="M113.13,41.83s3.26-6.64.59-11.24c1.62,5.4-1.75,11.3-1.75,11.3Z"/><path class="cls-1" d="M113.83,41.22s6.56-8.67,4.26-14.9c.6,7.25-5.89,14.92-5.89,14.92Z"/><path class="cls-1" d="M138,33.55s-.15-17-11.41-28c9.8,13.16,8.84,28.36,8.84,28.36Z"/><path class="cls-1" d="M138.09,36.92s-.1-14.44-9.62-23.77a40,40,0,0,1,7.44,24.06Z"/><path class="cls-1" d="M138.83,35.53s4.3-19.18-6.05-32c8.06,15.18,2.95,32.25,2.95,32.25Z"/><path class="cls-1" d="M140.58,35.35s6.22-11.31,2-19.23c2.34,9.27-4,19.31-4,19.31Z"/><path class="cls-1" d="M139.37,37.59s5.29-9.59,1.73-16.31c2,7.86-3.44,16.38-3.44,16.38Z"/><path class="cls-1" d="M140.43,36.7s10.29-12.49,7.41-21.56c.31,10.52-9.8,21.58-9.8,21.58Z"/><path class="cls-1" d="M131,37s-.15-17-11.41-28c9.8,13.16,8.84,28.37,8.84,28.37Z"/><path class="cls-1" d="M131.08,40.35s-.1-14.45-9.62-23.78a40.06,40.06,0,0,1,7.45,24.06Z"/><path class="cls-1" d="M131.82,39s4.3-19.17-6-32c8.06,15.18,3,32.26,3,32.26Z"/><path class="cls-1" d="M133.57,38.77s6.22-11.31,2-19.23c2.34,9.27-4,19.31-4,19.31Z"/><path class="cls-1" d="M132.36,41s5.29-9.59,1.73-16.3c2,7.85-3.44,16.37-3.44,16.37Z"/><path class="cls-1" d="M133.42,40.13s10.29-12.5,7.41-21.57c.32,10.52-9.8,21.58-9.8,21.58Z"/><path class="cls-1" d="M127.4,36.39s-5.46-12-16.19-19.3a54.68,54.68,0,0,1,14.64,19.65Z"/><path class="cls-1" d="M128.5,38.77s-4.62-10.21-13.69-16.37a46.16,46.16,0,0,1,12.37,16.67Z"/><path class="cls-1" d="M128.54,37.75s-3.28-13.76-14-22.34a47.76,47.76,0,0,1,12.07,22.67Z"/><path class="cls-1" d="M129.6,37.54s.44-8.29-4.78-13.69a22,22,0,0,1,3.51,13.84Z"/><path class="cls-1" d="M129.53,39.18s.38-7-4-11.61a18.71,18.71,0,0,1,2.95,11.74Z"/><path class="cls-1" d="M129.94,38.5s2.68-9.31-2-15.58c3.52,7.42.49,15.7.49,15.7Z"/><path class="cls-1" d="M124,39.13s-5.46-12-16.18-19.29a54.5,54.5,0,0,1,14.63,19.64Z"/><path class="cls-1" d="M125.06,41.51s-4.62-10.21-13.69-16.37a46.27,46.27,0,0,1,12.38,16.67Z"/><path class="cls-1" d="M125.1,40.49s-3.28-13.76-14-22.33a47.71,47.71,0,0,1,12.07,22.67Z"/><path class="cls-1" d="M126.17,40.28s.44-8.28-4.78-13.69a22,22,0,0,1,3.5,13.84Z"/><path class="cls-1" d="M126.09,41.92s.39-7-4-11.61A18.66,18.66,0,0,1,125,42.05Z"/><path class="cls-1" d="M126.5,41.25s2.69-9.31-2-15.59c3.52,7.42.49,15.71.49,15.71Z"/><path class="cls-1" d="M154.34,24.41c0-1.8-.44-11.64.28-4.82a47.34,47.34,0,0,1-.26-4.73,20.33,20.33,0,0,0-2.84-7.5c4.73,13.05-2.45,27.41-2.45,27.41l2.78-.16a43.76,43.76,0,0,0,2.5-9.44C154.35,24.92,154.34,24.66,154.34,24.41Z"/><path class="cls-1" d="M150.53,37.81s5.78-13.7-.22-23.11c4,11.07-2.13,23.25-2.13,23.25Z"/><path class="cls-1" d="M154.39,26.84a61.09,61.09,0,0,1-5.83,9.77l3.3-.08a51.27,51.27,0,0,0,2.87-4.92C154.55,30,154.44,28.43,154.39,26.84Z"/><path class="cls-1" d="M154.94,33.18a45.92,45.92,0,0,1-3.32,3.24l2.11,0s.61-.58,1.52-1.55C155.13,34.35,155,33.77,154.94,33.18Z"/><path class="cls-1" d="M154.93,33.07a46.28,46.28,0,0,1-5.14,5.41l1.78,0a42.7,42.7,0,0,0,3.61-4C155.09,34.05,155,33.56,154.93,33.07Z"/><path class="cls-1" d="M155.12,34.25c-2.64,2.09-4.56,3.36-4.56,3.36l2.48.13s1-.69,2.42-1.86C155.34,35.34,155.22,34.8,155.12,34.25Z"/><path class="cls-1" d="M143.24,37.44s6.79-16.15-.32-27.26c4.72,13.06-2.46,27.42-2.46,27.42Z"/><path class="cls-1" d="M141.92,40.64s5.78-13.7-.21-23.11c4,11.07-2.14,23.24-2.14,23.24Z"/><path class="cls-1" d="M143.26,39.36s12.23-17.92,6.79-30.68C152.17,23.55,140,39.44,140,39.44Z"/><path class="cls-1" d="M154.34,24.41c0-.14,0-.33,0-.54-2.72,8-11.31,15.38-11.31,15.38l2.11,0s7-6.54,9.24-13.13C154.35,25.57,154.34,25,154.34,24.41Z"/><path class="cls-1" d="M143,41.35s9.35-8.79,8.42-15.36c-1.18,7.56-10.21,15.32-10.21,15.32Z"/><path class="cls-1" d="M154.55,29.76A80.2,80.2,0,0,1,142,40.44l2.46.13a75.62,75.62,0,0,0,10.29-9.14C154.65,30.87,154.59,30.32,154.55,29.76Z"/><path class="cls-1" d="M139.75,36.66S139,24.93,131,17.41A34,34,0,0,1,138,36.91Z"/><path class="cls-1" d="M139.91,39s-.6-10-7.43-16.33a28.83,28.83,0,0,1,6,16.53Z"/><path class="cls-1" d="M140.36,38s2.23-13.23-5.29-22c6.05,10.41,3.19,22.21,3.19,22.21Z"/><path class="cls-1" d="M141.55,37.89s3.82-7.83.65-13.26c1.94,6.37-2,13.32-2,13.32Z"/><path class="cls-1" d="M140.8,39.44s3.26-6.64.58-11.24c1.63,5.4-1.74,11.3-1.74,11.3Z"/><path class="cls-1" d="M141.5,38.82s6.56-8.66,4.26-14.89c.6,7.24-5.89,14.92-5.89,14.92Z"/><path class="cls-1" d="M135.1,39.06s-.73-11.73-8.81-19.26a34,34,0,0,1,7.07,19.5Z"/><path class="cls-1" d="M135.25,41.38s-.59-10-7.42-16.33a28.81,28.81,0,0,1,6,16.54Z"/><path class="cls-1" d="M135.71,40.42s2.23-13.24-5.3-22c6.06,10.42,3.2,22.21,3.2,22.21Z"/><path class="cls-1" d="M136.9,40.28s3.82-7.82.65-13.26c1.94,6.38-2,13.33-2,13.33Z"/><path class="cls-1" d="M136.15,41.83s3.26-6.64.58-11.24c1.63,5.4-1.74,11.3-1.74,11.3Z"/><path class="cls-1" d="M136.85,41.22s6.55-8.67,4.26-14.9c.6,7.25-5.9,14.92-5.9,14.92Z"/><path class="cls-1" d="M115,33.55s-.14-17-11.41-28c9.8,13.16,8.84,28.36,8.84,28.36Z"/><path class="cls-1" d="M115.07,36.92s-.09-14.44-9.62-23.77a40.06,40.06,0,0,1,7.45,24.06Z"/><path class="cls-1" d="M115.82,35.53s4.29-19.18-6.06-32c8.07,15.18,2.95,32.25,2.95,32.25Z"/><path class="cls-1" d="M117.56,35.35s6.22-11.31,2-19.23c2.35,9.27-4,19.31-4,19.31Z"/><path class="cls-1" d="M116.35,37.59s5.29-9.59,1.73-16.31c2,7.86-3.44,16.38-3.44,16.38Z"/><path class="cls-1" d="M117.42,36.7s10.29-12.49,7.41-21.56c.31,10.52-9.8,21.58-9.8,21.58Z"/><path class="cls-1" d="M108,37s-.14-17-11.41-28c9.8,13.16,8.84,28.36,8.84,28.36Z"/><path class="cls-1" d="M108.06,40.35S108,25.9,98.45,16.57a40.09,40.09,0,0,1,7.44,24.06Z"/><path class="cls-1" d="M108.81,39s4.29-19.17-6.06-32c8.07,15.18,3,32.26,3,32.26Z"/><path class="cls-1" d="M110.55,38.77s6.22-11.31,2-19.23c2.34,9.27-4,19.31-4,19.31Z"/><path class="cls-1" d="M109.34,41s5.29-9.59,1.73-16.3c2,7.85-3.44,16.37-3.44,16.37Z"/><path class="cls-1" d="M110.41,40.13s10.29-12.5,7.41-21.57c.31,10.52-9.8,21.58-9.8,21.58Z"/><path class="cls-1" d="M104.38,36.39s-5.46-12-16.18-19.3a54.58,54.58,0,0,1,14.63,19.65Z"/><path class="cls-1" d="M105.48,38.77S100.86,28.56,91.79,22.4a46.27,46.27,0,0,1,12.38,16.67Z"/><path class="cls-1" d="M105.52,37.75s-3.28-13.76-14-22.34a47.76,47.76,0,0,1,12.07,22.67Z"/><path class="cls-1" d="M106.59,37.54s.44-8.29-4.78-13.69a22,22,0,0,1,3.5,13.84Z"/><path class="cls-1" d="M106.51,39.18s.39-7-4-11.61a18.71,18.71,0,0,1,3,11.74Z"/><path class="cls-1" d="M106.92,38.5s2.69-9.31-2-15.58c3.51,7.42.48,15.7.48,15.7Z"/><path class="cls-1" d="M101,39.13s-5.46-12-16.19-19.29A54.61,54.61,0,0,1,99.4,39.48Z"/><path class="cls-1" d="M102,41.51S97.43,31.3,88.36,25.14a46.31,46.31,0,0,1,12.37,16.67Z"/><path class="cls-1" d="M102.08,40.49s-3.27-13.76-14-22.33a47.71,47.71,0,0,1,12.07,22.67Z"/><path class="cls-1" d="M103.15,40.28s.44-8.28-4.78-13.69a22,22,0,0,1,3.51,13.84Z"/><path class="cls-1" d="M103.08,41.92s.38-7-4-11.61a18.71,18.71,0,0,1,3,11.74Z"/><path class="cls-1" d="M103.49,41.25s2.69-9.31-2-15.59c3.52,7.42.49,15.71.49,15.71Z"/><path class="cls-1" d="M128.83,34.61s6.79-16.15-.32-27.25c4.73,13.05-2.45,27.41-2.45,27.41Z"/><path class="cls-1" d="M127.52,37.81s5.78-13.7-.22-23.11c4,11.07-2.14,23.25-2.14,23.25Z"/><path class="cls-1" d="M128.85,36.53s12.23-17.92,6.79-30.68c2.12,14.87-10.1,30.76-10.1,30.76Z"/><path class="cls-1" d="M130.72,36.47s11-10.36,9.88-18.12c-1.36,8.93-12,18.07-12,18.07Z"/><path class="cls-1" d="M128.56,38.52s9.35-8.78,8.42-15.36c-1.18,7.57-10.21,15.32-10.21,15.32Z"/><path class="cls-1" d="M130,37.74s15.68-11.23,16.41-20c-4,10-18.88,19.87-18.88,19.87Z"/><path class="cls-1" d="M120.23,37.44s6.78-16.15-.33-27.26c4.73,13.06-2.45,27.42-2.45,27.42Z"/><path class="cls-1" d="M118.91,40.64s5.78-13.7-.22-23.11c4,11.07-2.13,23.24-2.13,23.24Z"/><path class="cls-1" d="M120.24,39.36S132.47,21.44,127,8.68c2.11,14.87-10.1,30.76-10.1,30.76Z"/><path class="cls-1" d="M122.11,39.29s11-10.35,9.88-18.11c-1.36,8.93-12,18.07-12,18.07Z"/><path class="cls-1" d="M120,41.35s9.35-8.79,8.42-15.36c-1.18,7.56-10.21,15.32-10.21,15.32Z"/><path class="cls-1" d="M121.41,40.57s15.68-11.24,16.41-20c-4,10-18.88,19.88-18.88,19.88Z"/><path class="cls-1" d="M116.73,36.66s-.72-11.73-8.8-19.25A34,34,0,0,1,115,36.91Z"/><path class="cls-1" d="M116.89,39s-.59-10-7.42-16.33a28.77,28.77,0,0,1,6,16.53Z"/><path class="cls-1" d="M117.35,38s2.23-13.23-5.3-22c6.06,10.41,3.19,22.21,3.19,22.21Z"/><path class="cls-1" d="M118.53,37.89s3.83-7.83.66-13.26c1.93,6.37-2,13.32-2,13.32Z"/><path class="cls-1" d="M117.79,39.44s3.25-6.64.58-11.24c1.63,5.4-1.75,11.3-1.75,11.3Z"/><path class="cls-1" d="M118.48,38.82s6.56-8.66,4.27-14.89c.59,7.24-5.9,14.92-5.9,14.92Z"/><path class="cls-1" d="M112.08,39.06s-.72-11.73-8.8-19.26a34,34,0,0,1,7.06,19.5Z"/><path class="cls-1" d="M112.24,41.38s-.6-10-7.43-16.33a28.87,28.87,0,0,1,6,16.54Z"/><path class="cls-1" d="M112.7,40.42s2.22-13.24-5.3-22c6,10.42,3.19,22.21,3.19,22.21Z"/><path class="cls-1" d="M113.88,40.28s3.82-7.83.65-13.26c1.94,6.38-2,13.33-2,13.33Z"/><path class="cls-1" d="M113.13,41.83s3.26-6.64.59-11.24c1.62,5.4-1.75,11.3-1.75,11.3Z"/><path class="cls-1" d="M113.83,41.22s6.56-8.67,4.26-14.9c.6,7.25-5.89,14.92-5.89,14.92Z"/><path class="cls-1" d="M96,33.55s-.15-17-11.41-28c9.8,13.16,8.84,28.36,8.84,28.36Z"/><path class="cls-1" d="M96.09,36.92S96,22.48,86.47,13.15a40.06,40.06,0,0,1,7.45,24.06Z"/><path class="cls-1" d="M96.84,35.53s4.29-19.18-6.06-32c8.07,15.18,3,32.25,3,32.25Z"/><path class="cls-1" d="M98.58,35.35s6.22-11.31,2-19.23c2.35,9.27-4,19.31-4,19.31Z"/><path class="cls-1" d="M97.37,37.59S102.66,28,99.1,21.28c2,7.86-3.44,16.38-3.44,16.38Z"/><path class="cls-1" d="M98.44,36.7s10.29-12.49,7.4-21.56c.32,10.52-9.8,21.58-9.8,21.58Z"/><path class="cls-1" d="M89,37s-.14-17-11.41-28c9.8,13.16,8.84,28.36,8.84,28.36Z"/><path class="cls-1" d="M89.08,40.35S89,25.9,79.47,16.57a40.09,40.09,0,0,1,7.44,24.06Z"/><path class="cls-1" d="M89.83,39s4.29-19.17-6.06-32c8.07,15.18,3,32.26,3,32.26Z"/><path class="cls-1" d="M91.57,38.77s6.22-11.31,2-19.23c2.35,9.27-4,19.31-4,19.31Z"/><path class="cls-1" d="M90.36,41s5.29-9.59,1.73-16.3c2,7.85-3.44,16.37-3.44,16.37Z"/><path class="cls-1" d="M91.43,40.13s10.29-12.5,7.41-21.57C99.15,29.08,89,40.14,89,40.14Z"/><path class="cls-1" d="M85.4,36.39s-5.46-12-16.18-19.3A54.58,54.58,0,0,1,83.85,36.74Z"/><path class="cls-1" d="M86.5,38.77S81.88,28.56,72.81,22.4A46.27,46.27,0,0,1,85.19,39.07Z"/><path class="cls-1" d="M86.54,37.75S83.26,24,72.55,15.41A47.72,47.72,0,0,1,84.63,38.08Z"/><path class="cls-1" d="M87.61,37.54s.43-8.29-4.78-13.69a22,22,0,0,1,3.5,13.84Z"/><path class="cls-1" d="M87.53,39.18s.38-7-4-11.61a18.66,18.66,0,0,1,2.94,11.74Z"/><path class="cls-1" d="M87.94,38.5s2.69-9.31-2-15.58c3.52,7.42.49,15.7.49,15.7Z"/><path class="cls-1" d="M82,39.13s-5.47-12-16.19-19.29A54.61,54.61,0,0,1,80.42,39.48Z"/><path class="cls-1" d="M83.06,41.51S78.45,31.3,69.37,25.14A46.27,46.27,0,0,1,81.75,41.81Z"/><path class="cls-1" d="M83.1,40.49s-3.27-13.76-14-22.33A47.71,47.71,0,0,1,81.19,40.83Z"/><path class="cls-1" d="M84.17,40.28s.44-8.28-4.78-13.69A22,22,0,0,1,82.9,40.43Z"/><path class="cls-1" d="M84.1,41.92s.38-7-4-11.61a18.71,18.71,0,0,1,3,11.74Z"/><path class="cls-1" d="M84.5,41.25s2.69-9.31-2-15.59C86,33.08,83,41.37,83,41.37Z"/><path class="cls-1" d="M109.85,34.61s6.79-16.15-.32-27.25c4.72,13.05-2.45,27.41-2.45,27.41Z"/><path class="cls-1" d="M108.53,37.81s5.78-13.7-.21-23.11c4,11.07-2.14,23.25-2.14,23.25Z"/><path class="cls-1" d="M109.87,36.53s12.23-17.92,6.79-30.68c2.12,14.87-10.1,30.76-10.1,30.76Z"/><path class="cls-1" d="M111.74,36.47s11-10.36,9.88-18.12c-1.36,8.93-12,18.07-12,18.07Z"/><path class="cls-1" d="M109.58,38.52s9.35-8.78,8.42-15.36c-1.18,7.57-10.21,15.32-10.21,15.32Z"/><path class="cls-1" d="M111,37.74s15.68-11.23,16.4-20c-4,10-18.87,19.87-18.87,19.87Z"/><path class="cls-1" d="M101.25,37.44s6.78-16.15-.33-27.26c4.73,13.06-2.45,27.42-2.45,27.42Z"/><path class="cls-1" d="M99.93,40.64s5.78-13.7-.22-23.11c4,11.07-2.13,23.24-2.13,23.24Z"/><path class="cls-1" d="M101.26,39.36s12.23-17.92,6.79-30.68C110.17,23.55,98,39.44,98,39.44Z"/><path class="cls-1" d="M103.13,39.29s11-10.35,9.88-18.11c-1.36,8.93-12,18.07-12,18.07Z"/><path class="cls-1" d="M101,41.35s9.35-8.79,8.42-15.36c-1.18,7.56-10.21,15.32-10.21,15.32Z"/><path class="cls-1" d="M102.43,40.57s15.68-11.24,16.41-20c-4,10-18.88,19.88-18.88,19.88Z"/><path class="cls-1" d="M97.75,36.66S97,24.93,89,17.41A34,34,0,0,1,96,36.91Z"/><path class="cls-1" d="M97.91,39s-.59-10-7.43-16.33a28.83,28.83,0,0,1,6,16.53Z"/><path class="cls-1" d="M98.37,38s2.23-13.23-5.3-22c6.05,10.41,3.19,22.21,3.19,22.21Z"/><path class="cls-1" d="M99.55,37.89s3.83-7.83.65-13.26c1.94,6.37-2,13.32-2,13.32Z"/><path class="cls-1" d="M98.81,39.44s3.25-6.64.58-11.24c1.63,5.4-1.75,11.3-1.75,11.3Z"/><path class="cls-1" d="M99.5,38.82s6.56-8.66,4.26-14.89c.6,7.24-5.89,14.92-5.89,14.92Z"/><path class="cls-1" d="M93.1,39.06s-.72-11.73-8.8-19.26a34,34,0,0,1,7.06,19.5Z"/><path class="cls-1" d="M93.26,41.38s-.6-10-7.43-16.33a28.87,28.87,0,0,1,6,16.54Z"/><path class="cls-1" d="M93.71,40.42s2.23-13.24-5.29-22c6,10.42,3.19,22.21,3.19,22.21Z"/><path class="cls-1" d="M94.9,40.28s3.82-7.83.65-13.26c1.94,6.38-2,13.33-2,13.33Z"/><path class="cls-1" d="M94.15,41.83s3.26-6.64.59-11.24C96.36,36,93,41.89,93,41.89Z"/><path class="cls-1" d="M94.85,41.22s6.56-8.67,4.26-14.9c.6,7.25-5.89,14.92-5.89,14.92Z"/><path class="cls-1" d="M127.82,37.19s.82-16,10-25.43c-8.13,11.6-8,25.94-8,25.94Z"/><path class="cls-1" d="M127.64,40.35s.67-13.55,8.43-21.57c-6.87,9.83-6.76,22-6.76,22Z"/><path class="cls-1" d="M127.12,39s-2.53-18.33,6-29.55c-6.88,13.63-3.63,30.05-3.63,30.05Z"/><path class="cls-1" d="M125.78,38.68s-4.34-11.1-.74-18.21c-2.2,8.52,2.29,18.44,2.29,18.44Z"/><path class="cls-1" d="M126.62,40.88s-3.69-9.42-.66-15.44c-1.84,7.22,2,15.64,2,15.64Z"/><path class="cls-1" d="M125.83,40S118.39,27.43,121,19.14c-.68,9.85,6.68,21,6.68,21Z"/><path class="cls-1" d="M133.1,41s.82-16,10-25.43c-8.13,11.59-8,25.94-8,25.94Z"/><path class="cls-1" d="M132.92,44.11s.68-13.55,8.43-21.57c-6.87,9.83-6.76,22-6.76,22Z"/><path class="cls-1" d="M132.4,42.74s-2.53-18.33,6-29.55c-6.88,13.62-3.63,30.05-3.63,30.05Z"/><path class="cls-1" d="M131.06,42.44s-4.34-11.11-.74-18.21c-2.2,8.52,2.3,18.44,2.3,18.44Z"/><path class="cls-1" d="M131.9,44.63s-3.69-9.41-.66-15.44c-1.85,7.23,2,15.64,2,15.64Z"/><path class="cls-1" d="M131.11,43.72s-7.44-12.53-4.83-20.82c-.68,9.85,6.68,21,6.68,21Z"/><path class="cls-1" d="M135.93,40.68s4.73-10.87,13.33-16.85a48.91,48.91,0,0,0-12.15,17.3Z"/><path class="cls-1" d="M135,42.83s4-9.23,11.28-14.3A41.41,41.41,0,0,0,136,43.21Z"/><path class="cls-1" d="M135,41.87S138.1,29.21,146.74,22a46.42,46.42,0,0,0-10.28,20.34Z"/><path class="cls-1" d="M134.18,41.59s0-7.81,4.27-12.48c-3.7,5.71-3.29,12.72-3.29,12.72Z"/><path class="cls-1" d="M134.17,43.13s0-6.62,3.6-10.58A20,20,0,0,0,135,43.34Z"/><path class="cls-1" d="M133.88,42.47S132.19,33.52,136.1,28c-3,6.7-1,14.71-1,14.71Z"/><path class="cls-1" d="M138.48,43.52s4.72-10.87,13.32-16.85A48.8,48.8,0,0,0,139.66,44Z"/><path class="cls-1" d="M137.53,45.67s4-9.22,11.27-14.3a41.41,41.41,0,0,0-10.27,14.68Z"/><path class="cls-1" d="M137.54,44.71s3.11-12.66,11.75-19.88A46.38,46.38,0,0,0,139,45.17Z"/><path class="cls-1" d="M136.72,44.43s0-7.81,4.27-12.48c-3.7,5.71-3.29,12.72-3.29,12.72Z"/><path class="cls-1" d="M136.71,46s0-6.62,3.6-10.58a20.11,20.11,0,0,0-2.77,10.79Z"/><path class="cls-1" d="M136.42,45.31s-1.69-9,2.22-14.47c-3,6.69-1,14.7-1,14.7Z"/><path class="cls-1" d="M117.09,37.11s-4.58-15.69,1.38-25.56c-4.2,11.89.76,25.93.76,25.93Z"/><path class="cls-1" d="M118,40.22s-3.9-13.31,1.13-21.68c-3.53,10.08.69,22,.69,22Z"/><path class="cls-1" d="M117,38.91s-8.71-17.77-4-29.32c-2.26,13.79,6.53,29.65,6.53,29.65Z"/><path class="cls-1" d="M115.55,38.71s-8.09-10.58-6.89-17.78c.68,8.49,8.52,17.9,8.52,17.9Z"/><path class="cls-1" d="M117.14,40.8s-6.87-9-5.88-15.07c.6,7.2,7.26,15.17,7.26,15.17Z"/><path class="cls-1" d="M116,40s-11.67-11.77-11.86-20C106.83,29.59,118,40,118,40Z"/><path class="cls-1" d="M123.63,40.43S119.05,24.74,125,14.88c-4.2,11.89.76,25.92.76,25.92Z"/><path class="cls-1" d="M124.51,43.54s-3.9-13.31,1.14-21.68c-3.54,10.09.68,22,.68,22Z"/><path class="cls-1" d="M123.54,42.24s-8.72-17.78-4-29.33c-2.26,13.79,6.53,29.65,6.53,29.65Z"/><path class="cls-1" d="M122.09,42S114,31.45,115.2,24.26c.68,8.48,8.53,17.89,8.53,17.89Z"/><path class="cls-1" d="M123.68,44.12s-6.87-9-5.88-15.07c.6,7.2,7.26,15.18,7.26,15.18Z"/><path class="cls-1" d="M122.58,43.28s-11.66-11.77-11.86-20c2.65,9.68,13.78,20.12,13.78,20.12Z"/><path class="cls-1" d="M126.37,40s1-11,7.61-17.39c-5.92,7.9-6.28,17.75-6.28,17.75Z"/><path class="cls-1" d="M126.14,42.15s.88-9.3,6.43-14.75a29.9,29.9,0,0,0-5.3,15.05Z"/><path class="cls-1" d="M125.83,41.2s-1.17-12.59,5-20.24c-5.12,9.31-3.4,20.6-3.4,20.6Z"/><path class="cls-1" d="M124.92,41s-2.63-7.65,0-12.5c-1.77,5.83,1,12.67,1,12.67Z"/><path class="cls-1" d="M125.43,42.5s-2.24-6.49,0-10.6c-1.48,5,.88,10.75.88,10.75Z"/><path class="cls-1" d="M124.92,41.87s-4.71-8.65-2.68-14.32c-.76,6.76,3.94,14.47,3.94,14.47Z"/><path class="cls-1" d="M129.86,42.59s1-11,7.62-17.39C131.56,33.1,131.2,43,131.2,43Z"/><path class="cls-1" d="M129.65,44.76s.87-9.3,6.42-14.76a30,30,0,0,0-5.3,15.06Z"/><path class="cls-1" d="M129.33,43.81s-1.17-12.59,5-20.24c-5.12,9.31-3.4,20.6-3.4,20.6Z"/><path class="cls-1" d="M128.42,43.6s-2.63-7.65.05-12.5c-1.77,5.83,1,12.66,1,12.66Z"/><path class="cls-1" d="M128.93,45.11s-2.24-6.48,0-10.6c-1.48,5,.88,10.74.88,10.74Z"/><path class="cls-1" d="M128.42,44.48s-4.71-8.65-2.68-14.32c-.76,6.76,3.94,14.47,3.94,14.47Z"/><path class="cls-1" d="M156.94,40.63a37.47,37.47,0,0,1-1.32-4.08,45.08,45.08,0,0,1-1.23-9.74,36.7,36.7,0,0,0-8.75-14.23c9.8,13.16,8.84,28.36,8.84,28.36Z"/><path class="cls-1" d="M155.62,36.55a36.44,36.44,0,0,1-.84-4.54,31,31,0,0,0-7.29-11.8,40.07,40.07,0,0,1,7.44,24L157.1,44a32.22,32.22,0,0,0-.34-3.85A37.47,37.47,0,0,1,155.62,36.55Z"/><path class="cls-1" d="M154.37,14.41a27.46,27.46,0,0,0-2.58-3.81A36.47,36.47,0,0,1,154.42,17C154.38,16.1,154.36,15.25,154.37,14.41Z"/><path class="cls-1" d="M155.85,37.32a40.37,40.37,0,0,1-1.11,5.54l3-.27A35.92,35.92,0,0,1,155.85,37.32Z"/><path class="cls-1" d="M153.42,40S148,28,137.24,20.73a54.49,54.49,0,0,1,14.63,19.65Z"/><path class="cls-1" d="M154.52,42.4S149.9,32.2,140.83,26A46.28,46.28,0,0,1,153.21,42.7Z"/><path class="cls-1" d="M154.56,41.38s-3.28-13.75-14-22.33a47.71,47.71,0,0,1,12.07,22.67Z"/><path class="cls-1" d="M155.63,41.18s.43-8.29-4.78-13.69a22,22,0,0,1,3.5,13.84Z"/><path class="cls-1" d="M155.55,42.82s.39-7-4-11.61a18.63,18.63,0,0,1,2.94,11.73Z"/><path class="cls-1" d="M155.62,36.55c0-.07,0-.15-.05-.22a24.3,24.3,0,0,1-1.15,5.93l1.54-.12a21,21,0,0,0,.53-2.73C156.17,38.48,155.88,37.54,155.62,36.55Z"/><path class="cls-1" d="M150,42.76s-5.46-12-16.19-19.29a54.59,54.59,0,0,1,14.64,19.65Z"/><path class="cls-1" d="M151.08,45.15s-4.61-10.21-13.68-16.37a46.32,46.32,0,0,1,12.37,16.66Z"/><path class="cls-1" d="M151.12,44.12s-3.27-13.75-14-22.33a47.71,47.71,0,0,1,12.07,22.67Z"/><path class="cls-1" d="M152.19,43.92s.44-8.29-4.78-13.69a22,22,0,0,1,3.51,13.84Z"/><path class="cls-1" d="M152.12,45.56s.38-7-4-11.61A18.71,18.71,0,0,1,151,45.69Z"/><path class="cls-1" d="M152.53,44.88s2.68-9.31-2-15.58C154,36.72,151,45,151,45Z"/><path class="cls-1" d="M53.51,37.79s-.15-17-11.41-28c9.8,13.17,8.84,28.37,8.84,28.37Z"/><path class="cls-1" d="M53.56,41.16s-.1-14.45-9.62-23.78a40,40,0,0,1,7.44,24.06Z"/><path class="cls-1" d="M54.3,39.76s4.3-19.17-6-32C56.31,23,51.2,40,51.2,40Z"/><path class="cls-1" d="M56.05,39.58s6.22-11.31,2-19.23c2.35,9.27-4,19.32-4,19.32Z"/><path class="cls-1" d="M54.83,41.83s5.3-9.6,1.74-16.31c2,7.86-3.44,16.38-3.44,16.38Z"/><path class="cls-1" d="M55.9,40.94s10.29-12.5,7.41-21.56C63.63,29.89,53.51,41,53.51,41Z"/><path class="cls-1" d="M46.5,41.21s-.15-17-11.41-28c9.8,13.16,8.84,28.36,8.84,28.36Z"/><path class="cls-1" d="M46.55,44.58s-.1-14.44-9.62-23.77a40,40,0,0,1,7.45,24.05Z"/><path class="cls-1" d="M47.3,43.19s4.29-19.18-6.06-32c8.06,15.18,2.95,32.26,2.95,32.26Z"/><path class="cls-1" d="M49,43s6.22-11.32,2-19.24c2.34,9.27-4,19.32-4,19.32Z"/><path class="cls-1" d="M47.83,45.25s5.29-9.6,1.73-16.31c2,7.86-3.44,16.38-3.44,16.38Z"/><path class="cls-1" d="M48.89,44.36s10.3-12.5,7.41-21.56c.32,10.51-9.8,21.58-9.8,21.58Z"/><path class="cls-1" d="M42.87,40.62s-5.46-12-16.19-19.29A54.61,54.61,0,0,1,41.32,41Z"/><path class="cls-1" d="M44,43S39.35,32.8,30.28,26.64A46.08,46.08,0,0,1,42.65,43.3Z"/><path class="cls-1" d="M44,42S40.73,28.23,30,19.65A47.71,47.71,0,0,1,42.09,42.32Z"/><path class="cls-1" d="M45.08,41.77s.43-8.28-4.79-13.68A21.93,21.93,0,0,1,43.8,41.92Z"/><path class="cls-1" d="M45,43.41s.38-7-4-11.6a18.6,18.6,0,0,1,3,11.73Z"/><path class="cls-1" d="M45.41,42.74s2.69-9.31-2-15.59c3.52,7.42.49,15.71.49,15.71Z"/><path class="cls-1" d="M39.43,43.36S34,31.33,23.25,24.07A54.61,54.61,0,0,1,37.89,43.71Z"/><path class="cls-1" d="M40.53,45.74s-4.62-10.2-13.69-16.36A46.28,46.28,0,0,1,39.22,46Z"/><path class="cls-1" d="M40.57,44.72S37.29,31,26.59,22.39A47.71,47.71,0,0,1,38.66,45.06Z"/><path class="cls-1" d="M41.64,44.52s.44-8.29-4.78-13.69a22,22,0,0,1,3.51,13.84Z"/><path class="cls-1" d="M41.57,46.16s.38-7-4-11.61a18.67,18.67,0,0,1,3,11.73Z"/><path class="cls-1" d="M42,45.48s2.69-9.31-2-15.59c3.51,7.42.49,15.71.49,15.71Z"/><path class="cls-1" d="M67.32,38.85S74.11,22.69,67,11.59C71.72,24.65,64.54,39,64.54,39Z"/><path class="cls-1" d="M66,42s5.78-13.7-.21-23.11c4,11.07-2.14,23.25-2.14,23.25Z"/><path class="cls-1" d="M67.34,40.76s12.23-17.92,6.79-30.68C76.25,25,64,40.84,64,40.84Z"/><path class="cls-1" d="M69.2,40.7s11-10.36,9.89-18.11c-1.36,8.92-12,18.07-12,18.07Z"/><path class="cls-1" d="M67,42.75S76.4,34,75.47,27.4C74.29,35,65.26,42.72,65.26,42.72Z"/><path class="cls-1" d="M68.5,42S84.19,30.74,84.91,22C81,32,66,41.85,66,41.85Z"/><path class="cls-1" d="M58.71,41.67s6.79-16.15-.32-27.25c4.72,13.06-2.45,27.41-2.45,27.41Z"/><path class="cls-1" d="M57.39,44.87s5.79-13.7-.21-23.11C61.15,32.83,55,45,55,45Z"/><path class="cls-1" d="M58.73,43.59S71,25.67,65.52,12.91c2.12,14.87-10.1,30.76-10.1,30.76Z"/><path class="cls-1" d="M60.6,43.53s11-10.36,9.88-18.12c-1.36,8.93-12,18.07-12,18.07Z"/><path class="cls-1" d="M58.44,45.58s9.35-8.78,8.42-15.36c-1.18,7.57-10.21,15.32-10.21,15.32Z"/><path class="cls-1" d="M59.9,44.8s15.68-11.23,16.4-20c-4,10-18.87,19.88-18.87,19.88Z"/><path class="cls-1" d="M55.22,40.9s-.72-11.73-8.8-19.26a34,34,0,0,1,7.06,19.5Z"/><path class="cls-1" d="M55.38,43.22s-.6-9.95-7.43-16.33a28.87,28.87,0,0,1,6,16.54Z"/><path class="cls-1" d="M55.83,42.25s2.23-13.23-5.29-22c6.05,10.42,3.19,22.21,3.19,22.21Z"/><path class="cls-1" d="M57,42.12s3.82-7.82.65-13.26c1.94,6.38-2,13.33-2,13.33Z"/><path class="cls-1" d="M56.27,43.67s3.26-6.64.59-11.24c1.62,5.4-1.75,11.3-1.75,11.3Z"/><path class="cls-1" d="M57,43.06s6.56-8.67,4.26-14.9c.6,7.25-5.89,14.92-5.89,14.92Z"/><path class="cls-1" d="M50.57,43.29S49.84,31.56,41.76,24a33.93,33.93,0,0,1,7.07,19.5Z"/><path class="cls-1" d="M50.73,45.62s-.6-10-7.43-16.33a28.77,28.77,0,0,1,6,16.53Z"/><path class="cls-1" d="M51.18,44.65s2.23-13.23-5.3-22c6.06,10.41,3.2,22.21,3.2,22.21Z"/><path class="cls-1" d="M52.37,44.52s3.82-7.83.65-13.26c1.94,6.37-2,13.32-2,13.32Z"/><path class="cls-1" d="M51.62,46.07s3.26-6.64.58-11.25c1.63,5.41-1.74,11.31-1.74,11.31Z"/><path class="cls-1" d="M52.32,45.45s6.56-8.66,4.26-14.89c.6,7.24-5.89,14.92-5.89,14.92Z"/><path class="cls-1" d="M83.85,39.18s-.15-17-11.41-28c9.8,13.16,8.84,28.36,8.84,28.36Z"/><path class="cls-1" d="M83.9,42.55s-.1-14.44-9.62-23.77a40.06,40.06,0,0,1,7.45,24.06Z"/><path class="cls-1" d="M84.65,41.16s4.29-19.18-6.06-32c8.07,15.19,3,32.26,3,32.26Z"/><path class="cls-1" d="M86.39,41s6.22-11.32,2-19.23c2.35,9.27-4,19.31-4,19.31Z"/><path class="cls-1" d="M85.18,43.22s5.29-9.6,1.73-16.31c2,7.86-3.44,16.38-3.44,16.38Z"/><path class="cls-1" d="M86.25,42.33s10.29-12.49,7.41-21.56c.31,10.52-9.81,21.58-9.81,21.58Z"/><path class="cls-1" d="M76.84,42.6s-.14-17-11.41-28c9.8,13.16,8.84,28.36,8.84,28.36Z"/><path class="cls-1" d="M76.89,46S76.8,31.53,67.28,22.2a40.09,40.09,0,0,1,7.44,24.06Z"/><path class="cls-1" d="M77.64,44.58s4.29-19.18-6.06-32c8.07,15.18,3,32.26,3,32.26Z"/><path class="cls-1" d="M79.38,44.4s6.22-11.31,2-19.23c2.35,9.27-4,19.31-4,19.31Z"/><path class="cls-1" d="M78.17,46.64S83.46,37,79.9,30.33c2,7.86-3.44,16.38-3.44,16.38Z"/><path class="cls-1" d="M79.24,45.75s10.29-12.49,7.41-21.56c.31,10.52-9.81,21.58-9.81,21.58Z"/><path class="cls-1" d="M73.21,42S67.75,30,57,22.72A54.49,54.49,0,0,1,71.66,42.37Z"/><path class="cls-1" d="M74.31,44.39S69.69,34.19,60.62,28A46.28,46.28,0,0,1,73,44.69Z"/><path class="cls-1" d="M74.35,43.38S71.07,29.62,60.37,21A47.71,47.71,0,0,1,72.44,43.71Z"/><path class="cls-1" d="M75.42,43.17s.43-8.29-4.78-13.69a22,22,0,0,1,3.5,13.84Z"/><path class="cls-1" d="M75.34,44.81s.38-7-4-11.61a18.65,18.65,0,0,1,2.94,11.74Z"/><path class="cls-1" d="M75.75,44.13s2.69-9.31-2-15.59c3.52,7.43.49,15.71.49,15.71Z"/><path class="cls-1" d="M69.78,44.76s-5.46-12-16.19-19.3A54.68,54.68,0,0,1,68.23,45.11Z"/><path class="cls-1" d="M70.87,47.14S66.26,36.93,57.18,30.77A46.27,46.27,0,0,1,69.56,47.44Z"/><path class="cls-1" d="M70.91,46.12s-3.27-13.76-14-22.33A47.71,47.71,0,0,1,69,46.46Z"/><path class="cls-1" d="M72,45.91s.44-8.29-4.78-13.69a22,22,0,0,1,3.51,13.84Z"/><path class="cls-1" d="M71.91,47.55s.38-7-4-11.61a18.71,18.71,0,0,1,3,11.74Z"/><path class="cls-1" d="M72.32,46.87s2.68-9.31-2-15.58c3.52,7.42.49,15.71.49,15.71Z"/><path class="cls-1" d="M97.66,40.24s6.79-16.15-.32-27.26C102.06,26,94.89,40.4,94.89,40.4Z"/><path class="cls-1" d="M96.34,43.44s5.79-13.7-.21-23.11C100.1,31.4,94,43.58,94,43.58Z"/><path class="cls-1" d="M97.68,42.16s12.23-17.92,6.79-30.68c2.12,14.87-10.1,30.76-10.1,30.76Z"/><path class="cls-1" d="M99.55,42.09s11-10.35,9.88-18.11c-1.36,8.93-12,18.07-12,18.07Z"/><path class="cls-1" d="M97.39,44.15s9.35-8.78,8.42-15.36C104.63,36.36,95.6,44.11,95.6,44.11Z"/><path class="cls-1" d="M98.85,43.37s15.68-11.24,16.4-20c-4,10-18.87,19.87-18.87,19.87Z"/><path class="cls-1" d="M89.05,43.07s6.79-16.15-.32-27.26c4.73,13.06-2.45,27.42-2.45,27.42Z"/><path class="cls-1" d="M87.74,46.27s5.78-13.7-.22-23.12c4,11.08-2.13,23.25-2.13,23.25Z"/><path class="cls-1" d="M89.07,45s12.23-17.92,6.8-30.68C98,29.18,85.77,45.06,85.77,45.06Z"/><path class="cls-1" d="M90.94,44.92s11-10.35,9.88-18.11c-1.36,8.92-12,18.07-12,18.07Z"/><path class="cls-1" d="M88.78,47s9.35-8.78,8.42-15.35C96,39.18,87,46.94,87,46.94Z"/><path class="cls-1" d="M90.24,46.2s15.68-11.24,16.41-20c-4,10-18.88,19.88-18.88,19.88Z"/><path class="cls-1" d="M85.56,42.29S84.84,30.56,76.76,23a34,34,0,0,1,7.06,19.5Z"/><path class="cls-1" d="M85.72,44.62s-.59-10-7.42-16.33a28.77,28.77,0,0,1,6,16.53Z"/><path class="cls-1" d="M86.18,43.65s2.23-13.23-5.3-22c6.05,10.41,3.19,22.21,3.19,22.21Z"/><path class="cls-1" d="M87.36,43.52s3.83-7.83.65-13.27c1.94,6.38-2,13.33-2,13.33Z"/><path class="cls-1" d="M86.62,45.07s3.25-6.64.58-11.25c1.63,5.41-1.75,11.31-1.75,11.31Z"/><path class="cls-1" d="M87.31,44.45s6.56-8.66,4.26-14.9c.6,7.25-5.89,14.92-5.89,14.92Z"/><path class="cls-1" d="M80.91,44.69S80.19,33,72.11,25.43a34,34,0,0,1,7.06,19.5Z"/><path class="cls-1" d="M81.07,47s-.6-9.95-7.43-16.33a28.85,28.85,0,0,1,6,16.53Z"/><path class="cls-1" d="M81.52,46s2.23-13.23-5.29-22c6,10.42,3.19,22.21,3.19,22.21Z"/><path class="cls-1" d="M82.71,45.91s3.82-7.83.65-13.26C85.3,39,81.34,46,81.34,46Z"/><path class="cls-1" d="M82,47.46s3.26-6.64.59-11.24c1.62,5.4-1.75,11.3-1.75,11.3Z"/><path class="cls-1" d="M82.66,46.85s6.56-8.67,4.26-14.9C87.52,39.19,81,46.87,81,46.87Z"/><path class="cls-1" d="M154.34,24.41c0-.36,0-1,0-1.81a19.23,19.23,0,0,1-.75-5.67c-1,3.18-.41,6.78.84,10.12C154.36,26.16,154.34,25.28,154.34,24.41Z"/><path class="cls-1" d="M149.42,36.4s-7-16.15.34-27.25c-4.87,13.06,2.52,27.41,2.52,27.41Z"/><path class="cls-1" d="M150.78,39.6s-5.95-13.7.22-23.11c-4.09,11.07,2.2,23.25,2.2,23.25Z"/><path class="cls-1" d="M149.41,38.32s-12.6-17.92-7-30.68c-2.18,14.87,10.4,30.76,10.4,30.76Z"/><path class="cls-1" d="M147.48,38.26S136.15,27.9,137.31,20.14c1.4,8.93,12.34,18.07,12.34,18.07Z"/><path class="cls-1" d="M149.71,40.31S140.07,31.53,141,25c1.22,7.57,10.52,15.33,10.52,15.33Z"/><path class="cls-1" d="M148.2,39.53s-16.15-11.23-16.89-20c4.07,10,19.44,19.88,19.44,19.88Z"/><path class="cls-1" d="M155.62,36.55a41.33,41.33,0,0,1-1.14-7.67c-2.35-5.43-4.14-12-3.2-18.41-3.95,9,1.14,20.55,4.49,26.59Z"/><path class="cls-1" d="M156.37,39.07c-3.26-3.16-9.19-9.69-10.2-16.1-1.16,7.76,10.17,18.12,10.17,18.12l.77,0C156.85,40.42,156.6,39.76,156.37,39.07Z"/><path class="cls-1" d="M156.41,39.18c-2.68-3-5.84-7.2-6.51-11.4-.77,5.27,5.26,12,7.69,14.4C157.16,41.22,156.76,40.23,156.41,39.18Z"/><path class="cls-1" d="M156.82,40.29c-4.62-3.36-13.66-10.61-16.65-17.93.75,8.77,16.9,20,16.9,20l.58,0C157.36,41.67,157.08,41,156.82,40.29Z"/><path class="cls-1" d="M136.55,39.23s.14-17,11.74-28a46.2,46.2,0,0,0-9.1,28.37Z"/><path class="cls-1" d="M136.49,42.6s.1-14.45,9.9-23.78a39.18,39.18,0,0,0-7.66,24.06Z"/><path class="cls-1" d="M135.72,41.2S131.3,22,142,9.22c-8.31,15.18-3,32.26-3,32.26Z"/><path class="cls-1" d="M133.92,41s-6.4-11.31-2-19.23C129.46,31.06,136,41.1,136,41.1Z"/><path class="cls-1" d="M135.17,43.26s-5.45-9.59-1.78-16.3c-2,7.86,3.55,16.37,3.55,16.37Z"/><path class="cls-1" d="M134.08,42.38s-10.6-12.5-7.63-21.57c-.33,10.52,10.09,21.58,10.09,21.58Z"/><path class="cls-1" d="M154.39,16.15c0-.14,0-.27,0-.41-10.48,11-10.62,26.91-10.62,26.91l2.64.33A46.44,46.44,0,0,1,154.39,16.15Z"/><path class="cls-1" d="M143.71,46s.1-14.45,9.9-23.77a39.15,39.15,0,0,0-7.66,24Z"/><path class="cls-1" d="M142.94,44.62s-4.42-19.17,6.24-32c-8.31,15.18-3,32.26-3,32.26Z"/><path class="cls-1" d="M141.14,44.44s-6.4-11.31-2-19.23c-2.41,9.27,4.13,19.31,4.13,19.31Z"/><path class="cls-1" d="M142.39,46.69s-5.45-9.6-1.78-16.31c-2,7.86,3.54,16.37,3.54,16.37Z"/><path class="cls-1" d="M141.29,45.8s-10.6-12.5-7.63-21.57c-.32,10.52,10.1,21.59,10.1,21.59Z"/><path class="cls-1" d="M154.7,31.29a54.07,54.07,0,0,0-7.2,10.77l1.59.35a49.08,49.08,0,0,1,5.77-9.8C154.8,32.17,154.74,31.73,154.7,31.29Z"/><path class="cls-1" d="M154.87,32.69a46.51,46.51,0,0,0-8.5,11.75l1.35.3A44.45,44.45,0,0,1,155,33.45C154.94,33.2,154.91,32.94,154.87,32.69Z"/><path class="cls-1" d="M154.4,27.47a47.36,47.36,0,0,0-8.07,16l2,.34a45.26,45.26,0,0,1,6.19-14.82C154.45,28.45,154.43,28,154.4,27.47Z"/><path class="cls-1" d="M145.23,43.21s-.45-8.28,4.92-13.69a21.51,21.51,0,0,0-3.61,13.84Z"/><path class="cls-1" d="M145.3,44.85s-.39-7,4.15-11.6a18.25,18.25,0,0,0-3,11.73Z"/><path class="cls-1" d="M144.88,44.18s-2.76-9.31,2.09-15.59c-3.62,7.42-.5,15.71-.5,15.71Z"/><path class="cls-1" d="M155.79,37.12A50.79,50.79,0,0,0,151,44.8l1.59.35a44.37,44.37,0,0,1,3.57-6.62C156.06,38.07,155.92,37.59,155.79,37.12Z"/><path class="cls-1" d="M156,38a45.94,45.94,0,0,0-6.13,9.19l1.35.3a42.12,42.12,0,0,1,5.06-8.56C156.22,38.62,156.14,38.3,156,38Z"/><path class="cls-1" d="M155.12,34.25a46.78,46.78,0,0,0-5.26,11.91l2,.34a42.58,42.58,0,0,1,3.7-10.35C155.37,35.53,155.24,34.89,155.12,34.25Z"/><path class="cls-1" d="M148.76,46s-.45-8.28,4.93-13.68a21.41,21.41,0,0,0-3.61,13.83Z"/><path class="cls-1" d="M148.84,47.59s-.39-7,4.15-11.6a18.18,18.18,0,0,0-3,11.73Z"/><path class="cls-1" d="M148.42,46.92s-2.77-9.31,2.09-15.59C146.88,38.75,150,47,150,47Z"/><path class="cls-1" d="M122.32,40.28s-7-16.15.33-27.25c-4.86,13.06,2.53,27.42,2.53,27.42Z"/><path class="cls-1" d="M123.68,43.48s-6-13.7.22-23.11c-4.09,11.07,2.2,23.25,2.2,23.25Z"/><path class="cls-1" d="M122.3,42.2s-12.59-17.92-7-30.68c-2.19,14.88,10.4,30.76,10.4,30.76Z"/><path class="cls-1" d="M120.38,42.14S109,31.78,110.2,24c1.41,8.93,12.35,18.07,12.35,18.07Z"/><path class="cls-1" d="M122.6,44.19s-9.63-8.78-8.67-15.35c1.21,7.56,10.51,15.32,10.51,15.32Z"/><path class="cls-1" d="M121.1,43.42s-16.15-11.24-16.9-20c4.08,10,19.44,19.88,19.44,19.88Z"/><path class="cls-1" d="M131.18,43.11s-7-16.15.34-27.25C126.65,28.92,134,43.27,134,43.27Z"/><path class="cls-1" d="M132.54,46.31s-5.95-13.7.22-23.11c-4.09,11.07,2.2,23.25,2.2,23.25Z"/><path class="cls-1" d="M131.17,45s-12.6-17.92-7-30.68c-2.18,14.87,10.4,30.76,10.4,30.76Z"/><path class="cls-1" d="M129.24,45s-11.33-10.35-10.17-18.11c1.4,8.93,12.34,18.07,12.34,18.07Z"/><path class="cls-1" d="M131.47,47s-9.64-8.78-8.68-15.36C124,39.23,133.31,47,133.31,47Z"/><path class="cls-1" d="M130,46.24s-16.14-11.24-16.89-20c4.07,10,19.44,19.87,19.44,19.87Z"/><path class="cls-1" d="M134.78,42.34s.74-11.73,9.07-19.26a33.31,33.31,0,0,0-7.28,19.5Z"/><path class="cls-1" d="M134.62,44.66s.61-9.95,7.64-16.33a28.24,28.24,0,0,0-6.13,16.54Z"/><path class="cls-1" d="M134.15,43.69s-2.3-13.23,5.45-22c-6.23,10.42-3.29,22.21-3.29,22.21Z"/><path class="cls-1" d="M132.93,43.56s-3.94-7.83-.68-13.26c-2,6.37,2.09,13.33,2.09,13.33Z"/><path class="cls-1" d="M133.69,45.11s-3.35-6.64-.6-11.24c-1.67,5.4,1.8,11.3,1.8,11.3Z"/><path class="cls-1" d="M133,44.5s-6.76-8.67-4.39-14.9c-.62,7.24,6.07,14.92,6.07,14.92Z"/><path class="cls-1" d="M139.57,44.73s.75-11.73,9.07-19.25A33.27,33.27,0,0,0,141.36,45Z"/><path class="cls-1" d="M139.41,47.05s.61-9.95,7.64-16.33a28.34,28.34,0,0,0-6.13,16.54Z"/><path class="cls-1" d="M138.94,46.09s-2.3-13.24,5.45-22c-6.23,10.41-3.28,22.21-3.28,22.21Z"/><path class="cls-1" d="M137.72,46s-3.94-7.83-.67-13.27c-2,6.38,2.08,13.33,2.08,13.33Z"/><path class="cls-1" d="M138.48,47.51s-3.35-6.64-.6-11.25c-1.67,5.41,1.8,11.3,1.8,11.3Z"/><path class="cls-1" d="M137.77,46.89S131,38.22,133.38,32c-.62,7.25,6.07,14.92,6.07,14.92Z"/><path class="cls-1" d="M30.26,40.1s-.14-17-11.41-28c9.8,13.16,8.84,28.36,8.84,28.36Z"/><path class="cls-1" d="M30.31,43.47S30.21,29,20.69,19.7a40,40,0,0,1,7.45,24.05Z"/><path class="cls-1" d="M31.05,42.08s4.3-19.18-6.05-32C33.07,25.28,28,42.35,28,42.35Z"/><path class="cls-1" d="M32.8,41.9s6.22-11.32,2-19.23c2.35,9.27-4,19.31-4,19.31Z"/><path class="cls-1" d="M31.59,44.14s5.29-9.6,1.73-16.31c2,7.86-3.44,16.38-3.44,16.38Z"/><path class="cls-1" d="M32.66,43.25S43,30.76,40.06,21.69c.32,10.52-9.8,21.58-9.8,21.58Z"/><path class="cls-1" d="M23.25,43.52s-.14-17-11.41-28c9.8,13.16,8.84,28.37,8.84,28.37Z"/><path class="cls-1" d="M23.3,46.89s-.1-14.44-9.61-23.77a40.09,40.09,0,0,1,7.44,24.06Z"/><path class="cls-1" d="M24.05,45.5s4.29-19.17-6.06-32c8.07,15.18,3,32.26,3,32.26Z"/><path class="cls-1" d="M25.79,45.32S32,34,27.78,26.09c2.35,9.27-4,19.31-4,19.31Z"/><path class="cls-1" d="M24.58,47.56S29.87,38,26.31,31.25c2,7.86-3.44,16.38-3.44,16.38Z"/><path class="cls-1" d="M25.65,46.68s10.29-12.5,7.41-21.57c.31,10.52-9.8,21.58-9.8,21.58Z"/><path class="cls-1" d="M19.62,42.93s-5.46-12-16.18-19.29A54.58,54.58,0,0,1,18.07,43.29Z"/><path class="cls-1" d="M20.72,45.32S16.1,35.11,7,29A46.27,46.27,0,0,1,19.41,45.62Z"/><path class="cls-1" d="M20.76,44.29S17.48,30.54,6.78,22A47.71,47.71,0,0,1,18.85,44.63Z"/><path class="cls-1" d="M21.83,44.09s.43-8.29-4.78-13.69a22,22,0,0,1,3.5,13.84Z"/><path class="cls-1" d="M21.75,45.73s.38-7-4-11.61a18.66,18.66,0,0,1,2.94,11.74Z"/><path class="cls-1" d="M22.16,45.05s2.69-9.31-2-15.58c3.52,7.42.49,15.7.49,15.7Z"/><path class="cls-1" d="M16.19,45.68S10.73,33.65,0,26.38A54.68,54.68,0,0,1,14.64,46Z"/><path class="cls-1" d="M17.28,48.06S12.67,37.85,3.6,31.69A46.31,46.31,0,0,1,16,48.36Z"/><path class="cls-1" d="M17.32,47s-3.27-13.76-14-22.33A47.71,47.71,0,0,1,15.41,47.38Z"/><path class="cls-1" d="M18.39,46.83s.44-8.29-4.78-13.69A22,22,0,0,1,17.12,47Z"/><path class="cls-1" d="M18.32,48.47s.38-7-4-11.61A18.71,18.71,0,0,1,17.24,48.6Z"/><path class="cls-1" d="M18.73,47.79s2.68-9.31-2-15.58c3.52,7.42.49,15.71.49,15.71Z"/><path class="cls-1" d="M44.07,41.16S50.86,25,43.75,13.91C48.47,27,41.3,41.32,41.3,41.32Z"/><path class="cls-1" d="M42.75,44.36s5.79-13.7-.21-23.11c4,11.07-2.14,23.25-2.14,23.25Z"/><path class="cls-1" d="M44.09,43.08S56.32,25.16,50.88,12.4C53,27.27,40.78,43.16,40.78,43.16Z"/><path class="cls-1" d="M46,43S57,32.66,55.84,24.9c-1.36,8.93-12,18.07-12,18.07Z"/><path class="cls-1" d="M43.8,45.07s9.35-8.78,8.42-15.36C51,37.28,42,45,42,45Z"/><path class="cls-1" d="M45.26,44.29s15.68-11.23,16.4-20c-4,10-18.87,19.87-18.87,19.87Z"/><path class="cls-1" d="M35.46,44s6.79-16.16-.32-27.26c4.73,13.06-2.45,27.42-2.45,27.42Z"/><path class="cls-1" d="M34.15,47.19s5.78-13.7-.22-23.12c4,11.08-2.13,23.25-2.13,23.25Z"/><path class="cls-1" d="M35.48,45.91S47.71,28,42.27,15.23C44.39,30.1,32.17,46,32.17,46Z"/><path class="cls-1" d="M37.35,45.84s11-10.36,9.88-18.11c-1.36,8.93-12,18.07-12,18.07Z"/><path class="cls-1" d="M35.19,47.89s9.35-8.78,8.42-15.35C42.43,40.1,33.4,47.86,33.4,47.86Z"/><path class="cls-1" d="M36.65,47.12s15.68-11.24,16.41-20C49.1,37.1,34.18,47,34.18,47Z"/><path class="cls-1" d="M32,43.21S31.25,31.48,23.17,24a34,34,0,0,1,7.06,19.5Z"/><path class="cls-1" d="M32.13,45.54s-.59-9.95-7.43-16.33a28.83,28.83,0,0,1,6,16.53Z"/><path class="cls-1" d="M32.59,44.57s2.23-13.23-5.3-22C33.34,33,30.48,44.78,30.48,44.78Z"/><path class="cls-1" d="M33.77,44.44s3.82-7.83.66-13.26c1.93,6.37-2,13.32-2,13.32Z"/><path class="cls-1" d="M33,46s3.25-6.64.58-11.25C35.24,40.15,31.86,46,31.86,46Z"/><path class="cls-1" d="M33.72,45.37S40.28,36.71,38,30.48c.6,7.24-5.89,14.92-5.89,14.92Z"/><path class="cls-1" d="M27.32,45.61s-.72-11.73-8.8-19.26a34,34,0,0,1,7.06,19.5Z"/><path class="cls-1" d="M27.48,47.93s-.6-10-7.43-16.33a28.87,28.87,0,0,1,6,16.54Z"/><path class="cls-1" d="M27.93,47s2.23-13.23-5.29-22c6.05,10.42,3.19,22.21,3.19,22.21Z"/><path class="cls-1" d="M29.12,46.83s3.82-7.83.65-13.26c1.94,6.38-2,13.33-2,13.33Z"/><path class="cls-1" d="M28.37,48.38s3.26-6.64.59-11.24c1.62,5.4-1.75,11.3-1.75,11.3Z"/><path class="cls-1" d="M29.07,47.77s6.56-8.67,4.26-14.9c.6,7.25-5.89,14.92-5.89,14.92Z"/><path class="cls-1" d="M147.58,34.64c2.49-4.41,4.9-10.45,3.31-15.45a24.27,24.27,0,0,1-2.76,11A35,35,0,0,1,147.58,34.64Z"/><path class="cls-1" d="M154.9,38.66s6.79-16.15-.32-27.25c4.72,13.05-2.46,27.41-2.46,27.41Z"/><path class="cls-1" d="M153.58,41.86s5.78-13.7-.21-23.11c4,11.07-2.14,23.25-2.14,23.25Z"/><path class="cls-1" d="M154.92,40.58s12.23-17.92,6.79-30.68c2.12,14.87-10.1,30.76-10.1,30.76Z"/><path class="cls-1" d="M156.79,40.51s11-10.35,9.88-18.11c-1.36,8.93-12,18.07-12,18.07Z"/><path class="cls-1" d="M154.63,42.57s9.35-8.78,8.42-15.36c-1.18,7.57-10.21,15.32-10.21,15.32Z"/><path class="cls-1" d="M156.09,41.79s15.68-11.23,16.4-20c-4,10-18.87,19.87-18.87,19.87Z"/><path class="cls-1" d="M146,14.23a27.61,27.61,0,0,1,1.54,7.61A33.53,33.53,0,0,1,146,40.26l-.48,1.27.74,0S153.08,25.33,146,14.23Z"/><path class="cls-1" d="M146,40.26l-1.69,4.46.63,0a36.81,36.81,0,0,0,2.1-7.82A33.35,33.35,0,0,1,146,40.26Z"/><path class="cls-1" d="M153.1,12.73c1.3,9.1-2.77,18.58-6.13,24.56-.27,1-.57,2-.93,3s-.8,2.13-1.2,3.18l1.47,0S158.54,25.49,153.1,12.73Z"/><path class="cls-1" d="M148.18,43.34s11-10.36,9.88-18.11c-1.36,8.93-12,18.07-12,18.07Z"/><path class="cls-1" d="M146,45.39s9.35-8.78,8.42-15.35c-1.18,7.57-10.21,15.32-10.21,15.32Z"/><path class="cls-1" d="M147.48,44.62s15.68-11.24,16.4-20c-4,10-18.87,19.88-18.87,19.88Z"/><path class="cls-1" d="M147.46,35.27a35,35,0,0,1-1.42,5c-.12.3-.23.61-.35.91,1.77-2.83,4.8-8.65,3.12-13.2A16.15,16.15,0,0,1,147.46,35.27Z"/><path class="cls-1" d="M165.66,36.48S165.55,16.63,157,3.81c7.43,15.34,6.71,33.06,6.71,33.06Z"/><path class="cls-1" d="M165.7,40.41s-.07-16.84-7.29-27.71c6.28,13,5.64,28,5.64,28Z"/><path class="cls-1" d="M166.27,38.78s3.26-22.35-4.6-37.27c6.12,17.69,2.24,37.6,2.24,37.6Z"/><path class="cls-1" d="M167.59,38.58s4.72-13.19,1.51-22.42c1.78,10.8-3,22.51-3,22.51Z"/><path class="cls-1" d="M166.67,41.19s4-11.19,1.32-19c1.49,9.16-2.61,19.09-2.61,19.09Z"/><path class="cls-1" d="M167.48,40.16S175.29,25.59,173.1,15c.24,12.26-7.43,25.15-7.43,25.15Z"/><path class="cls-1" d="M160.35,40.47s-.11-19.85-8.66-32.68c7.43,15.34,6.71,33.06,6.71,33.06Z"/><path class="cls-1" d="M160.38,44.4s-.07-16.84-7.29-27.71c6.28,13,5.65,28,5.65,28Z"/><path class="cls-1" d="M161,42.77s3.26-22.35-4.59-37.28c6.11,17.7,2.24,37.6,2.24,37.6Z"/><path class="cls-1" d="M162.27,42.56s4.72-13.18,1.51-22.41c1.78,10.8-3,22.51-3,22.51Z"/><path class="cls-1" d="M161.36,45.18s4-11.19,1.31-19c1.49,9.16-2.61,19.09-2.61,19.09Z"/><path class="cls-1" d="M162.17,44.14S170,29.58,167.79,19c.23,12.26-7.44,25.15-7.44,25.15Z"/><path class="cls-1" d="M146.69,18.83c.07.2.13.42.19.63a72.22,72.22,0,0,1,9.54,20.73l1.17-.41S153.92,27.35,146.69,18.83Z"/><path class="cls-1" d="M158.43,42.56S154.92,30.66,148,23.48a60.25,60.25,0,0,1,9.39,19.43Z"/><path class="cls-1" d="M158.46,41.37s-2.49-16-10.61-26C155.42,27.42,157,41.76,157,41.76Z"/><path class="cls-1" d="M159.27,41.13s.33-9.66-3.63-16C159,32.69,158.3,41.3,158.3,41.3Z"/><path class="cls-1" d="M159.21,43s.29-8.19-3.06-13.53a31.74,31.74,0,0,1,2.24,13.68Z"/><path class="cls-1" d="M159.52,42.25s2-10.85-1.54-18.17c2.67,8.65.37,18.31.37,18.31Z"/><path class="cls-1" d="M148.18,27.78c0,.47,0,.94,0,1.41a73.41,73.41,0,0,1,5.62,14.2L155,43A73.24,73.24,0,0,0,148.18,27.78Z"/><path class="cls-1" d="M148.15,30c0,.2,0,.41-.05.62a62,62,0,0,1,6.72,15.51l1-.35A59.67,59.67,0,0,0,148.15,30Z"/><path class="cls-1" d="M147.46,21.62c.11.47.21.94.29,1.42A73.05,73.05,0,0,1,154.4,45l1.45-.4S153.83,31.52,147.46,21.62Z"/><path class="cls-1" d="M156.66,44.32S157,34.67,153,28.37c3.36,7.51,2.66,16.13,2.66,16.13Z"/><path class="cls-1" d="M156.6,46.23s.29-8.19-3-13.53a31.74,31.74,0,0,1,2.24,13.68Z"/><path class="cls-1" d="M156.91,45.45s2-10.85-1.54-18.17c2.67,8.65.38,18.31.38,18.31Z"/><path class="cls-1" d="M176.14,37.71S181.29,18.89,175.9,6c3.58,15.22-1.86,32-1.86,32Z"/><path class="cls-1" d="M175.14,41.44s4.39-16-.16-26.93c3,12.9-1.62,27.09-1.62,27.09Z"/><path class="cls-1" d="M176.16,40s9.28-20.89,5.15-35.76C182.92,21.53,173.65,40,173.65,40Z"/><path class="cls-1" d="M177.58,39.88s8.35-12.07,7.49-21.12c-1,10.41-9.1,21.07-9.1,21.07Z"/><path class="cls-1" d="M175.93,42.27s7.1-10.24,6.4-17.9c-.9,8.82-7.75,17.86-7.75,17.86Z"/><path class="cls-1" d="M177,41.36s11.9-13.09,12.45-23.31c-3,11.64-14.32,23.16-14.32,23.16Z"/><path class="cls-1" d="M169.61,41s5.15-18.83-.24-31.77c3.58,15.22-1.86,32-1.86,32Z"/><path class="cls-1" d="M168.61,44.74s4.39-16-.16-26.94c3,12.91-1.62,27.1-1.62,27.1Z"/><path class="cls-1" d="M169.62,43.25s9.28-20.89,5.16-35.76c1.61,17.33-7.66,35.85-7.66,35.85Z"/><path class="cls-1" d="M171,43.17s8.36-12.07,7.5-21.11c-1,10.4-9.1,21.06-9.1,21.06Z"/><path class="cls-1" d="M169.4,45.56s7.1-10.23,6.39-17.9c-.89,8.82-7.74,17.86-7.74,17.86Z"/><path class="cls-1" d="M170.51,44.66s11.9-13.1,12.45-23.32C180,33,168.64,44.51,168.64,44.51Z"/><path class="cls-1" d="M167,40.11s-.55-13.68-6.68-22.44c5.44,10.5,5.36,22.72,5.36,22.72Z"/><path class="cls-1" d="M167.08,42.81s-.45-11.6-5.63-19C166,32.69,166,43.05,166,43.05Z"/><path class="cls-1" d="M167.43,41.69s1.69-15.43-4-25.65c4.59,12.14,2.42,25.89,2.42,25.89Z"/><path class="cls-1" d="M168.33,41.54s2.9-9.13.49-15.46c1.47,7.43-1.53,15.53-1.53,15.53Z"/><path class="cls-1" d="M167.76,43.34s2.47-7.74.45-13.1c1.23,6.3-1.33,13.17-1.33,13.17Z"/><path class="cls-1" d="M168.29,42.62s5-10.1,3.23-17.36c.46,8.44-4.47,17.39-4.47,17.39Z"/><path class="cls-1" d="M163.43,42.9s-.55-13.68-6.67-22.44c5.43,10.5,5.36,22.72,5.36,22.72Z"/><path class="cls-1" d="M163.55,45.6s-.45-11.59-5.63-19c4.59,8.91,4.52,19.27,4.52,19.27Z"/><path class="cls-1" d="M163.9,44.48s1.69-15.42-4-25.65c4.59,12.14,2.42,25.89,2.42,25.89Z"/><path class="cls-1" d="M164.8,44.33s2.9-9.13.49-15.46c1.47,7.43-1.53,15.53-1.53,15.53Z"/><path class="cls-1" d="M164.23,46.13s2.47-7.74.45-13.1c1.23,6.29-1.33,13.17-1.33,13.17Z"/><path class="cls-1" d="M164.76,45.42s5-10.11,3.23-17.37c.46,8.45-4.47,17.39-4.47,17.39Z"/><path class="cls-1" d="M148.29,41.91s5.15-16.15-.25-27.26c3.59,13.06-1.86,27.42-1.86,27.42Z"/><path class="cls-1" d="M147.86,23.78a32.37,32.37,0,0,1,.28,6.32,47.5,47.5,0,0,1-2.64,15.15l1.79-.14S151.15,33,147.86,23.78Z"/><path class="cls-1" d="M148.3,43.83s9.28-17.92,5.15-30.68c1.61,14.87-7.66,30.76-7.66,30.76Z"/><path class="cls-1" d="M149.72,43.76s8.35-10.35,7.49-18.11c-1,8.93-9.09,18.07-9.09,18.07Z"/><path class="cls-1" d="M148.08,45.82s7.09-8.78,6.39-15.36c-.9,7.57-7.75,15.32-7.75,15.32Z"/><path class="cls-1" d="M149.18,45s11.9-11.23,12.45-20c-3,10-14.32,19.87-14.32,19.87Z"/><path class="cls-1" d="M147.11,20.2a28.15,28.15,0,0,1,.84,4.24,24.41,24.41,0,0,0-1-8.47A33.27,33.27,0,0,1,147.11,20.2Z"/><path class="cls-1" d="M144.1,45.37c2.14-2.94,7.26-10.73,6.58-16.89-.5,4.35-2.67,8.74-4.77,12.11C145.31,42.21,144.71,43.81,144.1,45.37Z"/><path class="cls-1" d="M147,37.16c-.28,1-.6,2.08-1,3.1-.5,1.35-1,2.67-1.5,4,1.84-3.12,3.78-7.36,3.4-11A19,19,0,0,1,147,37.16Z"/><path class="cls-1" d="M144.65,44c-.41,1.07-.82,2.12-1.23,3.17,2.63-2.66,11.22-11.84,11.68-19.26C153.25,34,148.22,40.16,144.65,44Z"/><path class="cls-1" d="M190.26,40.1s-.11-17-8.65-28c7.43,13.16,6.71,28.36,6.71,28.36Z"/><path class="cls-1" d="M190.3,43.47S190.23,29,183,19.7c6.28,11.16,5.65,24.05,5.65,24.05Z"/><path class="cls-1" d="M190.87,42.08s3.26-19.18-4.59-32c6.11,15.18,2.23,32.25,2.23,32.25Z"/><path class="cls-1" d="M192.19,41.9s4.72-11.32,1.51-19.23c1.78,9.27-3,19.31-3,19.31Z"/><path class="cls-1" d="M191.27,44.14s4-9.6,1.32-16.31c1.49,7.86-2.61,16.38-2.61,16.38Z"/><path class="cls-1" d="M192.08,43.25s7.81-12.49,5.62-21.56c.24,10.52-7.43,21.58-7.43,21.58Z"/><path class="cls-1" d="M185,43.52s-.11-17-8.66-28C183.73,28.65,183,43.86,183,43.86Z"/><path class="cls-1" d="M185,46.9s-.08-14.45-7.3-23.78c6.28,11.16,5.65,24.06,5.65,24.06Z"/><path class="cls-1" d="M185.55,45.5s3.26-19.17-4.59-32c6.12,15.18,2.24,32.26,2.24,32.26Z"/><path class="cls-1" d="M186.87,45.32s4.72-11.31,1.52-19.23c1.77,9.27-3,19.31-3,19.31Z"/><path class="cls-1" d="M186,47.56s4-9.59,1.31-16.31c1.49,7.86-2.61,16.38-2.61,16.38Z"/><path class="cls-1" d="M186.77,46.68s7.8-12.5,5.62-21.57c.24,10.52-7.44,21.58-7.44,21.58Z"/><path class="cls-1" d="M182.2,42.94s-4.15-12-12.29-19.3A57.3,57.3,0,0,1,181,43.29Z"/><path class="cls-1" d="M183,45.32S179.53,35.11,172.64,29A48.43,48.43,0,0,1,182,45.62Z"/><path class="cls-1" d="M183.06,44.29S180.57,30.54,172.45,22a55.1,55.1,0,0,1,9.16,22.67Z"/><path class="cls-1" d="M183.87,44.09s.33-8.29-3.63-13.69a27.92,27.92,0,0,1,2.66,13.84Z"/><path class="cls-1" d="M183.81,45.73s.29-7-3.05-11.61A23.64,23.64,0,0,1,183,45.86Z"/><path class="cls-1" d="M184.12,45.05s2-9.31-1.54-15.58c2.67,7.42.37,15.7.37,15.7Z"/><path class="cls-1" d="M179.59,45.68s-4.14-12-12.28-19.3A57.17,57.17,0,0,1,178.41,46Z"/><path class="cls-1" d="M180.42,48.06S176.92,37.85,170,31.69a48.63,48.63,0,0,1,9.39,16.67Z"/><path class="cls-1" d="M180.45,47S178,33.28,169.84,24.71C177.41,35.06,179,47.38,179,47.38Z"/><path class="cls-1" d="M181.26,46.83s.33-8.28-3.63-13.69A27.81,27.81,0,0,1,180.29,47Z"/><path class="cls-1" d="M181.2,48.47s.29-7-3-11.61a23.71,23.71,0,0,1,2.24,11.74Z"/><path class="cls-1" d="M181.51,47.8s2-9.31-1.53-15.59c2.67,7.42.37,15.71.37,15.71Z"/><path class="cls-1" d="M200.75,41.16s5.14-16.15-.25-27.25c3.58,13.05-1.86,27.41-1.86,27.41Z"/><path class="cls-1" d="M199.75,44.36s4.38-13.7-.17-23.11C202.6,32.32,198,44.5,198,44.5Z"/><path class="cls-1" d="M200.76,43.08S210,25.16,205.91,12.4c1.61,14.87-7.66,30.76-7.66,30.76Z"/><path class="cls-1" d="M202.18,43s8.35-10.35,7.49-18.11c-1,8.93-9.1,18.07-9.1,18.07Z"/><path class="cls-1" d="M200.53,45.07s7.1-8.78,6.4-15.36C206,37.28,199.18,45,199.18,45Z"/><path class="cls-1" d="M201.64,44.29s11.9-11.24,12.45-20c-3,10-14.32,19.87-14.32,19.87Z"/><path class="cls-1" d="M194.21,44s5.15-16.16-.24-27.26c3.58,13.06-1.86,27.42-1.86,27.42Z"/><path class="cls-1" d="M193.21,47.19s4.39-13.7-.16-23.12c3,11.08-1.62,23.26-1.62,23.26Z"/><path class="cls-1" d="M194.23,45.91s9.28-17.92,5.15-30.68C201,30.1,191.72,46,191.72,46Z"/><path class="cls-1" d="M195.65,45.84s8.35-10.35,7.49-18.11c-1,8.93-9.1,18.07-9.1,18.07Z"/><path class="cls-1" d="M194,47.89s7.09-8.78,6.39-15.35c-.9,7.56-7.75,15.32-7.75,15.32Z"/><path class="cls-1" d="M195.11,47.12s11.9-11.24,12.45-20c-3,10-14.32,19.88-14.32,19.88Z"/><path class="cls-1" d="M191.57,43.21S191,31.48,184.89,24c5.43,9,5.36,19.5,5.36,19.5Z"/><path class="cls-1" d="M191.69,45.54s-.46-9.95-5.64-16.33a35.46,35.46,0,0,1,4.52,16.53Z"/><path class="cls-1" d="M192,44.57s1.69-13.23-4-22c4.6,10.41,2.42,22.21,2.42,22.21Z"/><path class="cls-1" d="M192.93,44.44s2.9-7.83.5-13.26c1.47,6.37-1.54,13.32-1.54,13.32Z"/><path class="cls-1" d="M192.37,46s2.46-6.64.44-11.25C194,40.15,191.48,46,191.48,46Z"/><path class="cls-1" d="M192.89,45.37s5-8.66,3.23-14.9c.46,7.25-4.46,14.93-4.46,14.93Z"/><path class="cls-1" d="M188,45.61s-.55-11.73-6.68-19.26c5.43,9,5.36,19.5,5.36,19.5Z"/><path class="cls-1" d="M188.16,47.93s-.46-10-5.64-16.33A35.51,35.51,0,0,1,187,48.14Z"/><path class="cls-1" d="M188.5,47s1.69-13.23-4-22c4.6,10.42,2.43,22.21,2.43,22.21Z"/><path class="cls-1" d="M189.4,46.83s2.9-7.83.49-13.26c1.48,6.38-1.53,13.33-1.53,13.33Z"/><path class="cls-1" d="M188.83,48.38s2.47-6.64.45-11.24c1.23,5.4-1.33,11.3-1.33,11.3Z"/><path class="cls-1" d="M189.36,47.77s5-8.67,3.24-14.9c.45,7.25-4.48,14.92-4.48,14.92Z"/><path class="cls-1" d="M202.05,34.64c2.49-4.41,4.9-10.45,3.31-15.45a24.27,24.27,0,0,1-2.76,11A35,35,0,0,1,202.05,34.64Z"/><path class="cls-1" d="M209.37,38.66s6.79-16.15-.32-27.25c4.72,13.05-2.45,27.41-2.45,27.41Z"/><path class="cls-1" d="M208.05,41.86s5.78-13.7-.21-23.11c4,11.07-2.14,23.25-2.14,23.25Z"/><path class="cls-1" d="M209.39,40.58s12.23-17.92,6.79-30.68c2.12,14.87-10.1,30.76-10.1,30.76Z"/><path class="cls-1" d="M211.26,40.51s11-10.35,9.88-18.11c-1.36,8.93-12,18.07-12,18.07Z"/><path class="cls-1" d="M209.1,42.57s9.35-8.78,8.42-15.36c-1.18,7.57-10.21,15.32-10.21,15.32Z"/><path class="cls-1" d="M210.56,41.79s15.68-11.23,16.4-20c-4,10-18.87,19.87-18.87,19.87Z"/><path class="cls-1" d="M200.44,14.23A27.61,27.61,0,0,1,202,21.84a33.44,33.44,0,0,1-1.47,18.42L200,41.53l.74,0S207.55,25.33,200.44,14.23Z"/><path class="cls-1" d="M200.51,40.26l-1.69,4.46.63,0a36.81,36.81,0,0,0,2.1-7.82A33.35,33.35,0,0,1,200.51,40.26Z"/><path class="cls-1" d="M207.57,12.73c1.3,9.1-2.77,18.58-6.13,24.56-.27,1-.57,2-.93,3l-1.19,3.18,1.46,0S213,25.49,207.57,12.73Z"/><path class="cls-1" d="M202.65,43.34s11-10.36,9.88-18.11c-1.36,8.93-12,18.07-12,18.07Z"/><path class="cls-1" d="M200.49,45.39s9.35-8.78,8.42-15.35c-1.18,7.57-10.21,15.32-10.21,15.32Z"/><path class="cls-1" d="M202,44.62s15.68-11.24,16.41-20c-4,10-18.88,19.88-18.88,19.88Z"/><path class="cls-1" d="M201.93,35.27a35,35,0,0,1-1.42,5c-.12.3-.23.61-.35.91,1.77-2.83,4.8-8.65,3.12-13.2A16.15,16.15,0,0,1,201.93,35.27Z"/><path class="cls-1" d="M220.13,36.48S220,16.63,211.48,3.81c7.43,15.34,6.71,33.06,6.71,33.06Z"/><path class="cls-1" d="M220.17,40.41s-.07-16.84-7.29-27.71c6.28,13,5.65,28,5.65,28Z"/><path class="cls-1" d="M220.74,38.78s3.26-22.35-4.6-37.27c6.12,17.69,2.24,37.6,2.24,37.6Z"/><path class="cls-1" d="M222.06,38.58s4.72-13.19,1.51-22.42c1.78,10.8-3,22.51-3,22.51Z"/><path class="cls-1" d="M221.14,41.19s4-11.19,1.32-19c1.49,9.16-2.61,19.09-2.61,19.09Z"/><path class="cls-1" d="M222,40.16s7.81-14.57,5.62-25.14c.24,12.26-7.43,25.15-7.43,25.15Z"/><path class="cls-1" d="M214.82,40.47s-.11-19.85-8.66-32.68c7.43,15.34,6.71,33.06,6.71,33.06Z"/><path class="cls-1" d="M214.85,44.4s-.07-16.84-7.29-27.71c6.28,13,5.65,28,5.65,28Z"/><path class="cls-1" d="M215.42,42.77s3.26-22.35-4.59-37.28c6.12,17.7,2.24,37.6,2.24,37.6Z"/><path class="cls-1" d="M216.75,42.56s4.71-13.18,1.51-22.41c1.78,10.8-3,22.51-3,22.51Z"/><path class="cls-1" d="M215.83,45.18s4-11.19,1.31-19c1.49,9.16-2.61,19.09-2.61,19.09Z"/><path class="cls-1" d="M216.64,44.14s7.8-14.56,5.62-25.13c.24,12.26-7.44,25.15-7.44,25.15Z"/><path class="cls-1" d="M201.16,18.83c.07.2.13.42.19.63a72.22,72.22,0,0,1,9.54,20.73l1.17-.41S208.39,27.35,201.16,18.83Z"/><path class="cls-1" d="M212.9,42.56s-3.51-11.9-10.39-19.08a60.25,60.25,0,0,1,9.39,19.43Z"/><path class="cls-1" d="M212.93,41.37s-2.49-16-10.61-26c7.57,12.08,9.16,26.42,9.16,26.42Z"/><path class="cls-1" d="M213.74,41.13s.33-9.66-3.63-16c3.36,7.52,2.66,16.13,2.66,16.13Z"/><path class="cls-1" d="M213.68,43s.29-8.19-3.05-13.53a31.65,31.65,0,0,1,2.23,13.68Z"/><path class="cls-1" d="M214,42.25s2-10.85-1.54-18.17c2.67,8.65.37,18.31.37,18.31Z"/><path class="cls-1" d="M202.65,27.78c0,.47,0,.94,0,1.41a73.41,73.41,0,0,1,5.62,14.2l1.18-.41A73.24,73.24,0,0,0,202.65,27.78Z"/><path class="cls-1" d="M202.62,30c0,.2,0,.41,0,.62a62.23,62.23,0,0,1,6.71,15.51l1-.35A59.67,59.67,0,0,0,202.62,30Z"/><path class="cls-1" d="M201.93,21.62c.11.47.21.94.3,1.42A73.2,73.2,0,0,1,208.87,45l1.45-.4S208.3,31.52,201.93,21.62Z"/><path class="cls-1" d="M211.13,44.32s.33-9.65-3.63-15.95c3.37,7.51,2.66,16.13,2.66,16.13Z"/><path class="cls-1" d="M211.08,46.23S211.36,38,208,32.7a31.74,31.74,0,0,1,2.24,13.68Z"/><path class="cls-1" d="M211.38,45.45s2-10.85-1.53-18.17c2.66,8.65.37,18.31.37,18.31Z"/><path class="cls-1" d="M230.61,37.71s5.15-18.82-.24-31.76c3.58,15.22-1.86,32-1.86,32Z"/><path class="cls-1" d="M229.61,41.44s4.39-16-.16-26.93c3,12.9-1.62,27.09-1.62,27.09Z"/><path class="cls-1" d="M230.63,40s9.28-20.89,5.15-35.76C237.39,21.53,228.12,40,228.12,40Z"/><path class="cls-1" d="M232,39.88s8.36-12.07,7.5-21.12c-1,10.41-9.1,21.07-9.1,21.07Z"/><path class="cls-1" d="M230.4,42.27s7.1-10.24,6.4-17.9c-.9,8.82-7.75,17.86-7.75,17.86Z"/><path class="cls-1" d="M231.51,41.36S243.41,28.27,244,18.05c-3,11.64-14.32,23.16-14.32,23.16Z"/><path class="cls-1" d="M224.08,41s5.15-18.83-.24-31.77c3.58,15.22-1.86,32-1.86,32Z"/><path class="cls-1" d="M223.08,44.74s4.39-16-.16-26.94c3,12.91-1.62,27.1-1.62,27.1Z"/><path class="cls-1" d="M224.1,43.25s9.27-20.89,5.15-35.76c1.61,17.33-7.66,35.85-7.66,35.85Z"/><path class="cls-1" d="M225.51,43.17s8.36-12.07,7.5-21.11c-1,10.4-9.1,21.06-9.1,21.06Z"/><path class="cls-1" d="M223.88,45.56s7.09-10.23,6.39-17.9c-.9,8.82-7.75,17.86-7.75,17.86Z"/><path class="cls-1" d="M225,44.66s11.9-13.1,12.45-23.32c-3,11.65-14.32,23.17-14.32,23.17Z"/><path class="cls-1" d="M221.43,40.11s-.54-13.68-6.68-22.44c5.44,10.5,5.36,22.72,5.36,22.72Z"/><path class="cls-1" d="M221.55,42.81s-.45-11.6-5.63-19c4.59,8.91,4.52,19.27,4.52,19.27Z"/><path class="cls-1" d="M221.9,41.69s1.69-15.43-4-25.65c4.59,12.14,2.42,25.89,2.42,25.89Z"/><path class="cls-1" d="M222.8,41.54s2.9-9.13.49-15.46c1.47,7.43-1.53,15.53-1.53,15.53Z"/><path class="cls-1" d="M222.23,43.34s2.47-7.74.45-13.1c1.23,6.3-1.33,13.17-1.33,13.17Z"/><path class="cls-1" d="M222.76,42.62s5-10.1,3.23-17.36c.46,8.44-4.47,17.39-4.47,17.39Z"/><path class="cls-1" d="M217.9,42.9s-.54-13.68-6.67-22.44c5.43,10.5,5.36,22.72,5.36,22.72Z"/><path class="cls-1" d="M218,45.6s-.46-11.59-5.64-19c4.59,8.91,4.52,19.27,4.52,19.27Z"/><path class="cls-1" d="M218.37,44.48s1.69-15.42-4-25.65c4.59,12.14,2.42,25.89,2.42,25.89Z"/><path class="cls-1" d="M219.27,44.33s2.9-9.13.49-15.46c1.48,7.43-1.53,15.53-1.53,15.53Z"/><path class="cls-1" d="M218.7,46.13s2.47-7.74.45-13.1c1.23,6.29-1.33,13.17-1.33,13.17Z"/><path class="cls-1" d="M219.23,45.42s5-10.11,3.23-17.37c.46,8.45-4.47,17.39-4.47,17.39Z"/><path class="cls-1" d="M202.76,41.91s5.15-16.15-.25-27.26c3.59,13.06-1.86,27.42-1.86,27.42Z"/><path class="cls-1" d="M202.33,23.78a31.61,31.61,0,0,1,.28,6.32A47.5,47.5,0,0,1,200,45.25l1.79-.14S205.62,33,202.33,23.78Z"/><path class="cls-1" d="M202.77,43.83s9.28-17.92,5.15-30.68c1.61,14.87-7.66,30.76-7.66,30.76Z"/><path class="cls-1" d="M204.19,43.76s8.35-10.35,7.49-18.11c-1,8.93-9.09,18.07-9.09,18.07Z"/><path class="cls-1" d="M202.55,45.82s7.09-8.78,6.39-15.36c-.9,7.57-7.75,15.32-7.75,15.32Z"/><path class="cls-1" d="M203.66,45s11.89-11.23,12.44-20c-3,10-14.32,19.87-14.32,19.87Z"/><path class="cls-1" d="M201.58,20.2a29.47,29.47,0,0,1,.85,4.24,24.89,24.89,0,0,0-1-8.47A35.21,35.21,0,0,1,201.58,20.2Z"/><path class="cls-1" d="M198.57,45.37c2.14-2.94,7.26-10.73,6.58-16.89-.5,4.35-2.67,8.74-4.77,12.11C199.78,42.21,199.18,43.81,198.57,45.37Z"/><path class="cls-1" d="M201.48,37.16c-.28,1-.59,2.08-1,3.1-.5,1.35-1,2.67-1.5,4,1.84-3.12,3.78-7.36,3.4-11A19,19,0,0,1,201.48,37.16Z"/><path class="cls-1" d="M199.12,44c-.41,1.07-.82,2.12-1.23,3.17,2.63-2.66,11.22-11.84,11.68-19.26C207.72,34,202.69,40.16,199.12,44Z"/><path class="cls-1" d="M244.73,40.1s-.11-17-8.65-28c7.43,13.16,6.71,28.36,6.71,28.36Z"/><path class="cls-1" d="M244.78,43.47S244.7,29,237.48,19.7c6.28,11.16,5.65,24.05,5.65,24.05Z"/><path class="cls-1" d="M245.34,42.08s3.26-19.18-4.59-32C246.87,25.28,243,42.35,243,42.35Z"/><path class="cls-1" d="M246.66,41.9s4.72-11.32,1.51-19.23c1.78,9.27-3,19.31-3,19.31Z"/><path class="cls-1" d="M245.75,44.14s4-9.6,1.31-16.31c1.49,7.86-2.61,16.38-2.61,16.38Z"/><path class="cls-1" d="M246.55,43.25s7.81-12.49,5.62-21.56c.24,10.52-7.43,21.58-7.43,21.58Z"/><path class="cls-1" d="M239.42,43.52s-.11-17-8.66-28c7.44,13.16,6.71,28.37,6.71,28.37Z"/><path class="cls-1" d="M239.46,46.9s-.08-14.45-7.3-23.78c6.28,11.16,5.65,24.06,5.65,24.06Z"/><path class="cls-1" d="M240,45.5s3.26-19.17-4.59-32c6.12,15.18,2.24,32.26,2.24,32.26Z"/><path class="cls-1" d="M241.35,45.32s4.71-11.31,1.51-19.23c1.78,9.27-3,19.31-3,19.31Z"/><path class="cls-1" d="M240.43,47.56s4-9.59,1.31-16.31c1.49,7.86-2.61,16.38-2.61,16.38Z"/><path class="cls-1" d="M241.24,46.68s7.8-12.5,5.62-21.57c.24,10.52-7.44,21.58-7.44,21.58Z"/><path class="cls-1" d="M236.67,42.94s-4.15-12-12.28-19.3a57.37,57.37,0,0,1,11.1,19.65Z"/><path class="cls-1" d="M237.5,45.32S234,35.11,227.11,29a48.43,48.43,0,0,1,9.39,16.67Z"/><path class="cls-1" d="M237.53,44.29S235,30.54,226.92,22a55.1,55.1,0,0,1,9.16,22.67Z"/><path class="cls-1" d="M238.34,44.09s.33-8.29-3.63-13.69a27.8,27.8,0,0,1,2.66,13.84Z"/><path class="cls-1" d="M238.28,45.73s.29-7-3.05-11.61a23.64,23.64,0,0,1,2.23,11.74Z"/><path class="cls-1" d="M238.59,45.05s2-9.31-1.54-15.58c2.67,7.42.37,15.7.37,15.7Z"/><path class="cls-1" d="M234.06,45.68s-4.14-12-12.28-19.3A57.17,57.17,0,0,1,232.88,46Z"/><path class="cls-1" d="M234.89,48.06s-3.5-10.21-10.38-16.37a48.63,48.63,0,0,1,9.39,16.67Z"/><path class="cls-1" d="M234.92,47s-2.48-13.76-10.61-22.33c7.57,10.35,9.16,22.67,9.16,22.67Z"/><path class="cls-1" d="M235.73,46.83s.33-8.28-3.63-13.69A27.88,27.88,0,0,1,234.77,47Z"/><path class="cls-1" d="M235.67,48.47s.29-7-3-11.61a23.71,23.71,0,0,1,2.24,11.74Z"/><path class="cls-1" d="M236,47.8s2-9.31-1.54-15.59c2.67,7.42.37,15.71.37,15.71Z"/><path class="cls-1" d="M255.22,41.16S260.36,25,255,13.91c3.59,13.05-1.86,27.41-1.86,27.41Z"/><path class="cls-1" d="M254.22,44.36s4.38-13.7-.17-23.11c3,11.07-1.62,23.25-1.62,23.25Z"/><path class="cls-1" d="M255.23,43.08s9.28-17.92,5.15-30.68c1.61,14.87-7.66,30.76-7.66,30.76Z"/><path class="cls-1" d="M256.65,43s8.35-10.35,7.5-18.11c-1,8.93-9.1,18.07-9.1,18.07Z"/><path class="cls-1" d="M255,45.07s7.1-8.78,6.4-15.36c-.9,7.57-7.75,15.32-7.75,15.32Z"/><path class="cls-1" d="M256.11,44.29s11.9-11.24,12.45-20c-3,10-14.32,19.87-14.32,19.87Z"/><path class="cls-1" d="M248.69,44s5.14-16.16-.25-27.26c3.58,13.06-1.86,27.42-1.86,27.42Z"/><path class="cls-1" d="M247.68,47.19s4.39-13.7-.16-23.12c3,11.08-1.62,23.26-1.62,23.26Z"/><path class="cls-1" d="M248.7,45.91S258,28,253.85,15.23C255.46,30.1,246.19,46,246.19,46Z"/><path class="cls-1" d="M250.12,45.84s8.35-10.35,7.49-18.11c-1,8.93-9.09,18.07-9.09,18.07Z"/><path class="cls-1" d="M248.48,47.89s7.09-8.78,6.39-15.35c-.9,7.56-7.75,15.32-7.75,15.32Z"/><path class="cls-1" d="M249.58,47.12s11.9-11.24,12.45-20C259,37.1,247.71,47,247.71,47Z"/><path class="cls-1" d="M246,43.21s-.55-11.73-6.68-19.25c5.43,9,5.36,19.5,5.36,19.5Z"/><path class="cls-1" d="M246.16,45.54s-.46-9.95-5.64-16.33A35.46,35.46,0,0,1,245,45.74Z"/><path class="cls-1" d="M246.5,44.57s1.69-13.23-4-22c4.6,10.41,2.43,22.21,2.43,22.21Z"/><path class="cls-1" d="M247.4,44.44s2.9-7.83.5-13.26c1.47,6.37-1.54,13.32-1.54,13.32Z"/><path class="cls-1" d="M246.83,46s2.47-6.64.45-11.25C248.51,40.15,246,46,246,46Z"/><path class="cls-1" d="M247.36,45.37s5-8.66,3.23-14.9c.46,7.25-4.46,14.93-4.46,14.93Z"/><path class="cls-1" d="M242.51,45.61s-.55-11.73-6.68-19.26c5.43,9,5.36,19.5,5.36,19.5Z"/><path class="cls-1" d="M242.63,47.93S242.17,38,237,31.6a35.51,35.51,0,0,1,4.52,16.54Z"/><path class="cls-1" d="M243,47s1.69-13.23-4-22c4.6,10.42,2.43,22.21,2.43,22.21Z"/><path class="cls-1" d="M243.87,46.83s2.9-7.83.49-13.26c1.48,6.38-1.53,13.33-1.53,13.33Z"/><path class="cls-1" d="M243.31,48.38s2.47-6.64.44-11.24c1.23,5.4-1.33,11.3-1.33,11.3Z"/><path class="cls-1" d="M243.83,47.77s5-8.67,3.24-14.9c.45,7.25-4.47,14.92-4.47,14.92Z"/><path class="cls-1" d="M251.39,46.07s-.76-24.93-9.21-39.69c7.49,18.1,7.39,40.49,7.39,40.49Z"/><path class="cls-1" d="M251.43,48.6c-.4-5.9-2-21.31-7.64-31.26,4.78,11.59,5.89,25.26,6.15,31.26Z"/><path class="cls-1" d="M249.94,48.6h2.12c.21-2.94,1.86-29.34-5.57-45.86C252.07,21.46,250.42,43.57,249.94,48.6Z"/><path class="cls-1" d="M251.88,48.6h.61l.78-.2s4-17.34.69-28.43C255.87,32.49,252.31,46.93,251.88,48.6Z"/><path class="cls-1" d="M252.08,48.6h1c.83-4.86,2-14.2,0-20.88C254.26,35.4,253,43.93,252.08,48.6Z"/><path class="cls-1" d="M252.28,48.6h1.53c1.61-5.13,5.84-20.12,3.87-30.7C258.18,30.06,254,43.51,252.28,48.6Z"/><path class="cls-1" d="M246.33,48.6c-.53-7.29-2.45-24.89-9-36.35,5.53,13.35,6.92,29,7.28,36.35Z"/><path class="cls-1" d="M246,48.6c-.87-7.29-2.81-17.9-7.09-25.4,3.57,8.66,5.1,18.48,5.75,25.4Z"/><path class="cls-1" d="M245.48,48.6h2c.21-9.38-.21-27.51-5.83-40C245.93,23.05,245.93,39.52,245.48,48.6Z"/><path class="cls-1" d="M248.25,48.6h1.19c.9-6,1.77-15.67-.35-22.76C250.33,34,249.27,42.87,248.25,48.6Z"/><path class="cls-1" d="M248.15,48.6H249c.45-4.75.54-10.49-.8-15A56.94,56.94,0,0,1,248.15,48.6Z"/><path class="cls-1" d="M249.25,48.6h1.35c1.75-6.88,3.66-17,2.21-24.83C253.17,32.6,251.09,42.1,249.25,48.6Z"/><path class="cls-1" d="M241.88,48.6h1.19c-1.62-5.26-5.54-16.44-11.45-23.39C237.09,33.41,240.39,43.36,241.88,48.6Z"/><path class="cls-1" d="M241.9,48.6h.91c-1.73-4.86-4.58-11.51-8.42-16.05A69.33,69.33,0,0,1,241.9,48.6Z"/><path class="cls-1" d="M243.9,48.6c-1.37-6.56-4.44-18.44-10-26.26,4.92,9.14,7.46,19.9,8.63,26.26Z"/><path class="cls-1" d="M245.31,48.6C245,44.38,244,38,241.6,33.46a53.25,53.25,0,0,1,2.93,15.14Z"/><path class="cls-1" d="M245,48.6a30.3,30.3,0,0,0-2.8-9.77,40.55,40.55,0,0,1,2.21,9.77Z"/><path class="cls-1" d="M245.23,48.6h.9c.09-4.84-.24-11.79-2.37-16.88A58.27,58.27,0,0,1,245.23,48.6Z"/><path class="cls-1" d="M239.25,48.6c-2.05-5.74-5.42-13.6-10-19a81.26,81.26,0,0,1,8.88,19Z"/><path class="cls-1" d="M237.94,48.6h.81A46.43,46.43,0,0,0,232.05,37,62.84,62.84,0,0,1,237.94,48.6Z"/><path class="cls-1" d="M240.54,48.6c-1.66-6.66-4.51-15.55-8.94-21.82a88.19,88.19,0,0,1,7.72,21.82Z"/><path class="cls-1" d="M242.44,48.6a34.45,34.45,0,0,0-3.19-10.7,47,47,0,0,1,2.52,10.7Z"/><path class="cls-1" d="M241.83,48.6a23.5,23.5,0,0,0-2-5.34,34.32,34.32,0,0,1,1.51,5.34Z"/><path class="cls-1" d="M243.73,48.6a38.23,38.23,0,0,0-2.31-12.45A52.07,52.07,0,0,1,243,48.6Z"/><path class="cls-1" d="M261.29,46s4.22-24.49-1.28-39.9c3.87,18.56-.7,40.47-.7,40.47Z"/><path class="cls-1" d="M259.28,48.6h1.52c.77-5.68,2.36-21.15-1.37-31.64C261.94,29.09,260.21,42.9,259.28,48.6Z"/><path class="cls-1" d="M259.23,48.6h2.19c.64-2.27,7.8-28.38,3.62-45.62C266.92,22.42,260.49,44.5,259.23,48.6Z"/><path class="cls-1" d="M261.44,48.6l1.26-.16s7.46-16.52,6.36-27.75c-.62,13-7.53,27.27-7.85,27.91Z"/><path class="cls-1" d="M262.52,48.6c1.8-4.67,4.79-13.67,4.14-20.42-.38,7.7-3.38,16-5.24,20.42Z"/><path class="cls-1" d="M261.62,48.6h1.63c2.68-4.93,9.79-19,9.94-29.51C271.25,31.12,264.36,43.88,261.62,48.6Z"/><path class="cls-1" d="M253.84,48.6h1.79c.9-6.65,2.78-25-1.65-37.36C257,25.58,254.92,41.91,253.84,48.6Z"/><path class="cls-1" d="M254,48.6h1.38c.64-7.24.94-18.34-1.94-26.46C255.32,31.44,254.75,41.73,254,48.6Z"/><path class="cls-1" d="M254.66,48.6h2c2.08-9,5.5-27.28,2.31-40.44C260.47,23.28,256.91,40,254.66,48.6Z"/><path class="cls-1" d="M258.68,48.6c2.13-5.77,5.07-15.37,4.35-22.72-.4,8.35-3.41,17.26-5.59,22.72Z"/><path class="cls-1" d="M258.29,48.6c1.46-4.68,2.79-10.51,2.34-15.23a57.71,57.71,0,0,1-3.27,15.23Z"/><path class="cls-1" d="M259.87,48.6c3.13-6.53,7.18-16.44,7.29-24.32-1.44,8.88-5.57,18.17-8.74,24.32Z"/><path class="cls-1" d="M252.59,48.6c-.44-4.67-2-17.26-6.88-25.32,4.16,9.39,5.34,20.53,5.67,25.32Z"/><path class="cls-1" d="M252.39,48.6c-.7-5-2.21-12.55-5.38-17.82a64.18,64.18,0,0,1,4.45,17.82Z"/><path class="cls-1" d="M252,48.6h1.36c0-6.28-.54-19.13-4.71-27.86C251.89,30.86,252.11,42.48,252,48.6Z"/><path class="cls-1" d="M253.78,48.6h.82c.54-4.1,1.06-11.07-.58-16.11C255.06,38.27,254.4,44.69,253.78,48.6Z"/><path class="cls-1" d="M253.74,48.6h.62c.26-3.35.27-7.54-.78-10.79A39.65,39.65,0,0,1,253.74,48.6Z"/><path class="cls-1" d="M254.41,48.6h.94c1.11-4.73,2.35-12.05,1.18-17.57C257,37.31,255.58,44.12,254.41,48.6Z"/><path class="cls-1" d="M248.89,48.6c-.81-5.89-2.61-15-6.4-21.25,3.22,7.29,4.66,15.64,5.29,21.25Z"/><path class="cls-1" d="M248.49,48.6c-.87-4.5-2.32-9.77-4.7-13.74a58.69,58.69,0,0,1,3.87,13.74Z"/><path class="cls-1" d="M250,48.6c-.25-6.81-1.23-16.67-4.64-23.79C248,33,248.69,42.15,248.76,48.6Z"/><path class="cls-1" d="M251.07,48.6h.71c.26-3.83.19-8.43-1-12A45.82,45.82,0,0,1,251.07,48.6Z"/><path class="cls-1" d="M250.79,48.6h.49a23.4,23.4,0,0,0-.93-6.71A34.51,34.51,0,0,1,250.79,48.6Z"/><path class="cls-1" d="M252.14,48.6H253c.75-4.29,1.22-9.39.35-13.5A52.36,52.36,0,0,1,252.14,48.6Z"/><path class="cls-1" d="M151.79,34.64c2.49-4.41,4.9-10.45,3.31-15.45a24.27,24.27,0,0,1-2.76,11A35,35,0,0,1,151.79,34.64Z"/><path class="cls-1" d="M159.11,38.66s6.79-16.15-.32-27.25c4.72,13.05-2.45,27.41-2.45,27.41Z"/><path class="cls-1" d="M157.79,41.86s5.79-13.7-.21-23.11c4,11.07-2.14,23.25-2.14,23.25Z"/><path class="cls-1" d="M159.13,40.58s12.23-17.92,6.79-30.68c2.12,14.87-10.1,30.76-10.1,30.76Z"/><path class="cls-1" d="M161,40.51s11-10.35,9.88-18.11c-1.36,8.93-12,18.07-12,18.07Z"/><path class="cls-1" d="M158.84,42.57s9.35-8.78,8.42-15.36c-1.18,7.57-10.21,15.32-10.21,15.32Z"/><path class="cls-1" d="M160.3,41.79s15.68-11.23,16.4-20c-4,10-18.87,19.87-18.87,19.87Z"/><path class="cls-1" d="M150.18,14.23a27.61,27.61,0,0,1,1.54,7.61,33.44,33.44,0,0,1-1.47,18.42l-.48,1.27.74,0S157.29,25.33,150.18,14.23Z"/><path class="cls-1" d="M150.25,40.26c-.56,1.51-1.13,3-1.69,4.46l.63,0a36.81,36.81,0,0,0,2.1-7.82A33.35,33.35,0,0,1,150.25,40.26Z"/><path class="cls-1" d="M157.31,12.73c1.3,9.1-2.77,18.58-6.13,24.56-.27,1-.57,2-.93,3l-1.19,3.18,1.46,0S162.75,25.49,157.31,12.73Z"/><path class="cls-1" d="M152.39,43.34s11-10.36,9.88-18.11c-1.36,8.93-12,18.07-12,18.07Z"/><path class="cls-1" d="M150.23,45.39s9.35-8.78,8.42-15.35c-1.18,7.57-10.21,15.32-10.21,15.32Z"/><path class="cls-1" d="M151.69,44.62s15.68-11.24,16.41-20c-4,10-18.88,19.88-18.88,19.88Z"/><path class="cls-1" d="M151.67,35.27a35,35,0,0,1-1.42,5c-.12.3-.23.61-.35.91,1.77-2.83,4.8-8.65,3.12-13.2A16.15,16.15,0,0,1,151.67,35.27Z"/><path class="cls-1" d="M169.87,36.48s-.11-19.85-8.65-32.67c7.43,15.34,6.71,33.06,6.71,33.06Z"/><path class="cls-1" d="M169.91,40.41s-.07-16.84-7.29-27.71c6.28,13,5.65,28,5.65,28Z"/><path class="cls-1" d="M170.48,38.78s3.26-22.35-4.6-37.27c6.12,17.69,2.24,37.6,2.24,37.6Z"/><path class="cls-1" d="M171.8,38.58s4.72-13.19,1.51-22.42c1.78,10.8-3,22.51-3,22.51Z"/><path class="cls-1" d="M170.88,41.19s4-11.19,1.32-19c1.49,9.16-2.61,19.09-2.61,19.09Z"/><path class="cls-1" d="M171.69,40.16S179.5,25.59,177.31,15c.24,12.26-7.43,25.15-7.43,25.15Z"/><path class="cls-1" d="M164.56,40.47s-.11-19.85-8.66-32.68c7.44,15.34,6.71,33.06,6.71,33.06Z"/><path class="cls-1" d="M164.6,44.4s-.08-16.84-7.3-27.71c6.28,13,5.65,28,5.65,28Z"/><path class="cls-1" d="M165.16,42.77s3.26-22.35-4.59-37.28c6.12,17.7,2.24,37.6,2.24,37.6Z"/><path class="cls-1" d="M166.49,42.56S171.2,29.38,168,20.15C169.78,31,165,42.66,165,42.66Z"/><path class="cls-1" d="M165.57,45.18s4-11.19,1.31-19c1.49,9.16-2.61,19.09-2.61,19.09Z"/><path class="cls-1" d="M166.38,44.14S174.18,29.58,172,19c.23,12.26-7.44,25.15-7.44,25.15Z"/><path class="cls-1" d="M150.9,18.83c.07.2.13.42.19.63a72.22,72.22,0,0,1,9.54,20.73l1.17-.41S158.13,27.35,150.9,18.83Z"/><path class="cls-1" d="M162.64,42.56s-3.51-11.9-10.39-19.08a60.25,60.25,0,0,1,9.39,19.43Z"/><path class="cls-1" d="M162.67,41.37s-2.49-16-10.61-26c7.57,12.08,9.16,26.42,9.16,26.42Z"/><path class="cls-1" d="M163.48,41.13s.33-9.66-3.63-16c3.36,7.52,2.66,16.13,2.66,16.13Z"/><path class="cls-1" d="M163.42,43s.29-8.19-3-13.53a31.65,31.65,0,0,1,2.23,13.68Z"/><path class="cls-1" d="M163.73,42.25s2-10.85-1.54-18.17c2.67,8.65.37,18.31.37,18.31Z"/><path class="cls-1" d="M152.39,27.78c0,.47,0,.94,0,1.41A73.41,73.41,0,0,1,158,43.39L159.2,43A73.24,73.24,0,0,0,152.39,27.78Z"/><path class="cls-1" d="M152.36,30c0,.2,0,.41,0,.62A62.23,62.23,0,0,1,159,46.1l1-.35A59.67,59.67,0,0,0,152.36,30Z"/><path class="cls-1" d="M151.67,21.62c.11.47.21.94.3,1.42A73.2,73.2,0,0,1,158.61,45l1.45-.4S158,31.52,151.67,21.62Z"/><path class="cls-1" d="M160.87,44.32s.33-9.65-3.62-15.95c3.36,7.51,2.65,16.13,2.65,16.13Z"/><path class="cls-1" d="M160.82,46.23s.28-8.19-3.06-13.53A31.74,31.74,0,0,1,160,46.38Z"/><path class="cls-1" d="M161.12,45.45s2-10.85-1.53-18.17c2.66,8.65.37,18.31.37,18.31Z"/><path class="cls-1" d="M180.36,37.71S185.5,18.89,180.11,6c3.59,15.22-1.86,32-1.86,32Z"/><path class="cls-1" d="M179.36,41.44s4.38-16-.17-26.93c3,12.9-1.62,27.09-1.62,27.09Z"/><path class="cls-1" d="M180.37,40s9.28-20.89,5.15-35.76C187.13,21.53,177.86,40,177.86,40Z"/><path class="cls-1" d="M181.79,39.88s8.35-12.07,7.49-21.12c-1,10.41-9.1,21.07-9.1,21.07Z"/><path class="cls-1" d="M180.14,42.27s7.1-10.24,6.4-17.9c-.9,8.82-7.75,17.86-7.75,17.86Z"/><path class="cls-1" d="M181.25,41.36s11.9-13.09,12.45-23.31c-3,11.64-14.32,23.16-14.32,23.16Z"/><path class="cls-1" d="M173.83,41s5.14-18.83-.25-31.77c3.58,15.22-1.86,32-1.86,32Z"/><path class="cls-1" d="M172.82,44.74s4.39-16-.16-26.94c3,12.91-1.62,27.1-1.62,27.1Z"/><path class="cls-1" d="M173.84,43.25S183.12,22.36,179,7.49c1.61,17.33-7.66,35.85-7.66,35.85Z"/><path class="cls-1" d="M175.25,43.17s8.36-12.07,7.5-21.11c-1,10.4-9.1,21.06-9.1,21.06Z"/><path class="cls-1" d="M173.62,45.56s7.09-10.23,6.39-17.9c-.9,8.82-7.75,17.86-7.75,17.86Z"/><path class="cls-1" d="M174.72,44.66s11.9-13.1,12.45-23.32c-3,11.65-14.32,23.17-14.32,23.17Z"/><path class="cls-1" d="M171.17,40.11s-.54-13.68-6.67-22.44c5.43,10.5,5.35,22.72,5.35,22.72Z"/><path class="cls-1" d="M171.29,42.81s-.45-11.6-5.63-19c4.59,8.91,4.52,19.27,4.52,19.27Z"/><path class="cls-1" d="M171.64,41.69s1.69-15.43-4-25.65C172.21,28.18,170,41.93,170,41.93Z"/><path class="cls-1" d="M172.54,41.54s2.9-9.13.5-15.46c1.46,7.43-1.54,15.53-1.54,15.53Z"/><path class="cls-1" d="M172,43.34s2.47-7.74.45-13.1c1.23,6.3-1.33,13.17-1.33,13.17Z"/><path class="cls-1" d="M172.5,42.62s5-10.1,3.23-17.36c.46,8.44-4.47,17.39-4.47,17.39Z"/><path class="cls-1" d="M167.64,42.9S167.1,29.22,161,20.46c5.43,10.5,5.36,22.72,5.36,22.72Z"/><path class="cls-1" d="M167.77,45.6s-.46-11.59-5.64-19c4.59,8.91,4.52,19.27,4.52,19.27Z"/><path class="cls-1" d="M168.11,44.48s1.69-15.42-4-25.65c4.59,12.14,2.42,25.89,2.42,25.89Z"/><path class="cls-1" d="M169,44.33s2.9-9.13.49-15.46C171,36.3,168,44.4,168,44.4Z"/><path class="cls-1" d="M168.44,46.13s2.47-7.74.45-13.1c1.23,6.29-1.33,13.17-1.33,13.17Z"/><path class="cls-1" d="M169,45.42s5-10.11,3.23-17.37c.46,8.45-4.47,17.39-4.47,17.39Z"/><path class="cls-1" d="M152.5,41.91s5.15-16.15-.25-27.26c3.59,13.06-1.86,27.42-1.86,27.42Z"/><path class="cls-1" d="M152.07,23.78a31.61,31.61,0,0,1,.28,6.32,47.5,47.5,0,0,1-2.64,15.15l1.79-.14S155.36,33,152.07,23.78Z"/><path class="cls-1" d="M152.51,43.83s9.28-17.92,5.15-30.68C159.27,28,150,43.91,150,43.91Z"/><path class="cls-1" d="M153.93,43.76s8.35-10.35,7.5-18.11c-1,8.93-9.1,18.07-9.1,18.07Z"/><path class="cls-1" d="M152.29,45.82s7.1-8.78,6.39-15.36c-.9,7.57-7.75,15.32-7.75,15.32Z"/><path class="cls-1" d="M153.4,45s11.9-11.23,12.44-20c-3,10-14.32,19.87-14.32,19.87Z"/><path class="cls-1" d="M151.32,20.2a29.47,29.47,0,0,1,.85,4.24,24.89,24.89,0,0,0-1-8.47A35.21,35.21,0,0,1,151.32,20.2Z"/><path class="cls-1" d="M148.31,45.37c2.14-2.94,7.26-10.73,6.58-16.89-.5,4.35-2.67,8.74-4.77,12.11C149.52,42.21,148.92,43.81,148.31,45.37Z"/><path class="cls-1" d="M151.22,37.16c-.28,1-.59,2.08-1,3.1-.5,1.35-1,2.67-1.5,4,1.84-3.12,3.78-7.36,3.4-11A19,19,0,0,1,151.22,37.16Z"/><path class="cls-1" d="M148.86,44c-.41,1.07-.82,2.12-1.23,3.17,2.63-2.66,11.22-11.84,11.68-19.26C157.46,34,152.43,40.16,148.86,44Z"/><path class="cls-1" d="M194.47,40.1s-.11-17-8.65-28c7.43,13.16,6.71,28.36,6.71,28.36Z"/><path class="cls-1" d="M194.52,43.47s-.08-14.44-7.3-23.77c6.28,11.16,5.65,24.05,5.65,24.05Z"/><path class="cls-1" d="M195.08,42.08s3.26-19.18-4.59-32c6.12,15.18,2.24,32.25,2.24,32.25Z"/><path class="cls-1" d="M196.41,41.9s4.71-11.32,1.51-19.23c1.77,9.27-3,19.31-3,19.31Z"/><path class="cls-1" d="M195.49,44.14s4-9.6,1.31-16.31c1.49,7.86-2.61,16.38-2.61,16.38Z"/><path class="cls-1" d="M196.29,43.25s7.81-12.49,5.62-21.56c.25,10.52-7.43,21.58-7.43,21.58Z"/><path class="cls-1" d="M189.16,43.52s-.11-17-8.66-28c7.44,13.16,6.71,28.37,6.71,28.37Z"/><path class="cls-1" d="M189.2,46.9s-.08-14.45-7.3-23.78c6.28,11.16,5.65,24.06,5.65,24.06Z"/><path class="cls-1" d="M189.76,45.5s3.26-19.17-4.59-32c6.12,15.18,2.24,32.26,2.24,32.26Z"/><path class="cls-1" d="M191.09,45.32S195.8,34,192.6,26.09c1.78,9.27-3,19.31-3,19.31Z"/><path class="cls-1" d="M190.17,47.56s4-9.59,1.31-16.31c1.49,7.86-2.61,16.38-2.61,16.38Z"/><path class="cls-1" d="M191,46.68s7.81-12.5,5.62-21.57c.24,10.52-7.44,21.58-7.44,21.58Z"/><path class="cls-1" d="M186.41,42.94s-4.15-12-12.28-19.3a57.37,57.37,0,0,1,11.1,19.65Z"/><path class="cls-1" d="M187.24,45.32S183.74,35.11,176.85,29a48.43,48.43,0,0,1,9.39,16.67Z"/><path class="cls-1" d="M187.27,44.29S184.78,30.54,176.66,22a55.1,55.1,0,0,1,9.16,22.67Z"/><path class="cls-1" d="M188.08,44.09s.33-8.29-3.63-13.69a27.8,27.8,0,0,1,2.66,13.84Z"/><path class="cls-1" d="M188,45.73s.29-7-3.05-11.61a23.64,23.64,0,0,1,2.23,11.74Z"/><path class="cls-1" d="M188.33,45.05s2-9.31-1.54-15.58c2.67,7.42.37,15.7.37,15.7Z"/><path class="cls-1" d="M183.8,45.68s-4.14-12-12.28-19.3A57.17,57.17,0,0,1,182.62,46Z"/><path class="cls-1" d="M184.63,48.06s-3.5-10.21-10.38-16.37a48.63,48.63,0,0,1,9.39,16.67Z"/><path class="cls-1" d="M184.66,47s-2.48-13.76-10.61-22.33c7.57,10.35,9.16,22.67,9.16,22.67Z"/><path class="cls-1" d="M185.47,46.83s.33-8.28-3.63-13.69A27.88,27.88,0,0,1,184.51,47Z"/><path class="cls-1" d="M185.42,48.47s.28-7-3.06-11.61A23.71,23.71,0,0,1,184.6,48.6Z"/><path class="cls-1" d="M185.73,47.8s2-9.31-1.54-15.59c2.67,7.42.37,15.71.37,15.71Z"/><path class="cls-1" d="M205,41.16s5.14-16.15-.25-27.25c3.59,13.05-1.86,27.41-1.86,27.41Z"/><path class="cls-1" d="M204,44.36s4.38-13.7-.17-23.11c3,11.07-1.62,23.25-1.62,23.25Z"/><path class="cls-1" d="M205,43.08s9.28-17.92,5.15-30.68c1.61,14.87-7.66,30.76-7.66,30.76Z"/><path class="cls-1" d="M206.39,43s8.35-10.35,7.49-18.11c-1,8.93-9.09,18.07-9.09,18.07Z"/><path class="cls-1" d="M204.75,45.07s7.09-8.78,6.39-15.36c-.9,7.57-7.75,15.32-7.75,15.32Z"/><path class="cls-1" d="M205.85,44.29s11.9-11.24,12.45-20c-3,10-14.32,19.87-14.32,19.87Z"/><path class="cls-1" d="M198.43,44s5.14-16.16-.25-27.26c3.58,13.06-1.86,27.42-1.86,27.42Z"/><path class="cls-1" d="M197.42,47.19s4.39-13.7-.16-23.12c3,11.08-1.62,23.26-1.62,23.26Z"/><path class="cls-1" d="M198.44,45.91s9.28-17.92,5.15-30.68C205.2,30.1,195.93,46,195.93,46Z"/><path class="cls-1" d="M199.86,45.84s8.35-10.35,7.49-18.11c-1,8.93-9.09,18.07-9.09,18.07Z"/><path class="cls-1" d="M198.22,47.89s7.09-8.78,6.39-15.35c-.9,7.56-7.75,15.32-7.75,15.32Z"/><path class="cls-1" d="M199.32,47.12s11.9-11.24,12.45-20c-3,10-14.32,19.88-14.32,19.88Z"/><path class="cls-1" d="M195.78,43.21S195.23,31.48,189.1,24c5.43,9,5.36,19.5,5.36,19.5Z"/><path class="cls-1" d="M195.9,45.54s-.45-9.95-5.64-16.33a35.46,35.46,0,0,1,4.52,16.53Z"/><path class="cls-1" d="M196.24,44.57s1.69-13.23-4-22c4.6,10.41,2.43,22.21,2.43,22.21Z"/><path class="cls-1" d="M197.14,44.44s2.9-7.83.5-13.26c1.47,6.37-1.54,13.32-1.54,13.32Z"/><path class="cls-1" d="M196.58,46s2.47-6.64.44-11.25c1.23,5.41-1.33,11.3-1.33,11.3Z"/><path class="cls-1" d="M197.1,45.37s5-8.66,3.24-14.9c.45,7.25-4.47,14.93-4.47,14.93Z"/><path class="cls-1" d="M192.25,45.61s-.55-11.73-6.68-19.26c5.43,9,5.36,19.5,5.36,19.5Z"/><path class="cls-1" d="M192.37,47.93s-.46-10-5.64-16.33a35.51,35.51,0,0,1,4.52,16.54Z"/><path class="cls-1" d="M192.71,47s1.69-13.23-4-22c4.6,10.42,2.43,22.21,2.43,22.21Z"/><path class="cls-1" d="M193.61,46.83s2.9-7.83.5-13.26c1.47,6.38-1.54,13.33-1.54,13.33Z"/><path class="cls-1" d="M193.05,48.38s2.47-6.64.44-11.24c1.23,5.4-1.33,11.3-1.33,11.3Z"/><path class="cls-1" d="M193.58,47.77s5-8.67,3.23-14.9c.45,7.25-4.47,14.92-4.47,14.92Z"/><path class="cls-1" d="M201.13,46.6s-.75-19.75-9.21-31.43c7.49,14.33,7.39,32.06,7.39,32.06Z"/><path class="cls-1" d="M201.17,48.6c-.4-4.67-2-16.88-7.64-24.76,4.78,9.18,5.89,20,6.15,24.76Z"/><path class="cls-1" d="M199.68,48.6h2.12c.21-2.33,1.86-23.23-5.57-36.31C201.81,27.11,200.16,44.62,199.68,48.6Z"/><path class="cls-1" d="M201.62,48.6h.61l.79-.16s4-13.73.68-22.51C205.61,35.84,202.05,47.28,201.62,48.6Z"/><path class="cls-1" d="M201.82,48.6h1c.83-3.85,2-11.25,0-16.53C204,38.15,202.74,44.9,201.82,48.6Z"/><path class="cls-1" d="M202,48.6h1.53c1.61-4.06,5.84-15.93,3.87-24.31C207.92,33.92,203.78,44.57,202,48.6Z"/><path class="cls-1" d="M196.07,48.6c-.53-5.77-2.45-19.71-9-28.79,5.53,10.57,6.93,23,7.28,28.79Z"/><path class="cls-1" d="M195.75,48.6c-.87-5.78-2.81-14.17-7.09-20.11,3.57,6.85,5.1,14.63,5.75,20.11Z"/><path class="cls-1" d="M195.22,48.6h2c.22-7.43-.21-21.78-5.83-31.67C195.67,28.37,195.67,41.41,195.22,48.6Z"/><path class="cls-1" d="M198,48.6h1.19c.9-4.78,1.77-12.41-.35-18C200.07,37,199,44.06,198,48.6Z"/><path class="cls-1" d="M197.89,48.6h.89c.45-3.76.54-8.31-.8-11.89A35.55,35.55,0,0,1,197.89,48.6Z"/><path class="cls-1" d="M199,48.6h1.36c1.75-5.45,3.66-13.5,2.21-19.67C202.91,35.93,200.83,43.45,199,48.6Z"/><path class="cls-1" d="M191.62,48.6h1.19c-1.62-4.17-5.54-13-11.44-18.52A63,63,0,0,1,191.62,48.6Z"/><path class="cls-1" d="M191.64,48.6h.92c-1.74-3.85-4.59-9.12-8.43-12.71A50.66,50.66,0,0,1,191.64,48.6Z"/><path class="cls-1" d="M193.64,48.6c-1.37-5.2-4.44-14.6-10-20.79,4.92,7.23,7.46,15.75,8.63,20.79Z"/><path class="cls-1" d="M195.05,48.6c-.35-3.34-1.28-8.41-3.71-12a34.54,34.54,0,0,1,2.93,12Z"/><path class="cls-1" d="M194.76,48.6a20.43,20.43,0,0,0-2.8-7.74,26.58,26.58,0,0,1,2.21,7.74Z"/><path class="cls-1" d="M195,48.6h.9c.09-3.84-.24-9.34-2.37-13.37A36.68,36.68,0,0,1,195,48.6Z"/><path class="cls-1" d="M189,48.6c-2.05-4.54-5.42-10.77-10-15a59.68,59.68,0,0,1,8.89,15Z"/><path class="cls-1" d="M187.68,48.6h.81a36,36,0,0,0-6.7-9.19A46.68,46.68,0,0,1,187.68,48.6Z"/><path class="cls-1" d="M190.28,48.6c-1.66-5.27-4.51-12.32-8.94-17.28a60.9,60.9,0,0,1,7.72,17.28Z"/><path class="cls-1" d="M192.18,48.6A23.32,23.32,0,0,0,189,40.12a31,31,0,0,1,2.52,8.48Z"/><path class="cls-1" d="M191.57,48.6a16.31,16.31,0,0,0-1.95-4.23,23,23,0,0,1,1.51,4.23Z"/><path class="cls-1" d="M193.47,48.6a24.78,24.78,0,0,0-2.31-9.86,33.47,33.47,0,0,1,1.54,9.86Z"/><path class="cls-1" d="M211,46.5s4.22-19.4-1.28-31.6c3.87,14.7-.7,32.05-.7,32.05Z"/><path class="cls-1" d="M209,48.6h1.52c.77-4.5,2.36-16.75-1.37-25.06C211.68,33.15,210,44.08,209,48.6Z"/><path class="cls-1" d="M209,48.6h2.19c.64-1.79,7.8-22.47,3.62-36.13C216.66,27.87,210.24,45.35,209,48.6Z"/><path class="cls-1" d="M211.18,48.6l1.26-.13s7.46-13.07,6.36-22c-.62,10.26-7.53,21.59-7.85,22.1Z"/><path class="cls-1" d="M212.26,48.6c1.8-3.7,4.79-10.82,4.14-16.17-.38,6.1-3.38,12.65-5.24,16.17Z"/><path class="cls-1" d="M211.37,48.6H213c2.68-3.9,9.79-15.05,9.94-23.37C221,34.75,214.1,44.86,211.37,48.6Z"/><path class="cls-1" d="M203.58,48.6h1.79c.9-5.27,2.78-19.76-1.65-29.59C206.71,30.37,204.66,43.3,203.58,48.6Z"/><path class="cls-1" d="M203.7,48.6h1.38c.64-5.73.94-14.52-1.94-21C205.06,35,204.49,43.16,203.7,48.6Z"/><path class="cls-1" d="M204.4,48.6h2c2.08-7.09,5.5-21.6,2.31-32C210.21,28.55,206.65,41.77,204.4,48.6Z"/><path class="cls-1" d="M208.42,48.6c2.13-4.57,5.07-12.17,4.35-18-.4,6.61-3.41,13.67-5.59,18Z"/><path class="cls-1" d="M208,48.6c1.45-3.7,2.78-8.32,2.33-12.06A37.7,37.7,0,0,1,207.1,48.6Z"/><path class="cls-1" d="M209.61,48.6c3.14-5.17,7.18-13,7.29-19.26-1.44,7-5.57,14.39-8.74,19.26Z"/><path class="cls-1" d="M202.33,48.6c-.44-3.7-2-13.67-6.87-20,4.15,7.44,5.33,16.25,5.66,20.05Z"/><path class="cls-1" d="M202.13,48.6c-.7-4-2.21-9.94-5.38-14.11A42.4,42.4,0,0,1,201.2,48.6Z"/><path class="cls-1" d="M201.69,48.6h1.36c0-5-.54-15.15-4.71-22.06C201.63,34.55,201.85,43.75,201.69,48.6Z"/><path class="cls-1" d="M203.52,48.6h.82c.54-3.25,1.07-8.76-.58-12.76C204.8,40.42,204.14,45.5,203.52,48.6Z"/><path class="cls-1" d="M203.48,48.6h.62c.26-2.66.27-6-.78-8.54A24.91,24.91,0,0,1,203.48,48.6Z"/><path class="cls-1" d="M204.15,48.6h.94c1.11-3.75,2.35-9.55,1.18-13.91C206.69,39.66,205.32,45.05,204.15,48.6Z"/><path class="cls-1" d="M198.63,48.6c-.81-4.67-2.61-11.84-6.4-16.82a50,50,0,0,1,5.29,16.82Z"/><path class="cls-1" d="M198.23,48.6a30.44,30.44,0,0,0-4.7-10.88A39.19,39.19,0,0,1,197.4,48.6Z"/><path class="cls-1" d="M199.75,48.6c-.25-5.39-1.23-13.2-4.64-18.84,2.66,6.48,3.32,13.73,3.39,18.84Z"/><path class="cls-1" d="M200.81,48.6h.71c.26-3,.19-6.67-1-9.53A29,29,0,0,1,200.81,48.6Z"/><path class="cls-1" d="M200.53,48.6H201a14.72,14.72,0,0,0-.93-5.31A21.7,21.7,0,0,1,200.53,48.6Z"/><path class="cls-1" d="M201.88,48.6h.82c.75-3.4,1.22-7.44.35-10.69A33.43,33.43,0,0,1,201.88,48.6Z"/></g></g></svg>