<?xml version="1.0" encoding="utf-8"?>
<!-- Generator: Adobe Illustrator 22.1.0, SVG Export Plug-In . SVG Version: 6.00 Build 0)  -->
<svg version="1.1" id="Слой_1" xmlns="http://www.w3.org/2000/svg" xmlns:xlink="http://www.w3.org/1999/xlink" x="0px" y="0px"
	 viewBox="0 0 573.7 52.8" style="enable-background:new 0 0 573.7 52.8;" xml:space="preserve">
<style type="text/css">
	.st0{fill:#39B54A;}
</style>
<g id="Слой_2_1_">
	<g id="Vector_Graphics">
		<path class="st0" d="M258.2,14l0.3-0.1L258.2,14z M221.2,3.7l-0.4-0.1L221.2,3.7z M66,8.9l-0.4-0.1L66,8.9z M103,19.2l0.3-0.1
			C103.2,19.1,103.1,19.2,103,19.2z M398.2,18.5l0.3-0.1L398.2,18.5z M361.2,8.1L360.8,8L361.2,8.1z M18.4,26.2l0.3-0.4
			C18.6,25.9,18.5,26,18.4,26.2z M381.7,28.1l0.3-0.4C381.9,27.8,381.8,28,381.7,28.1z M443.8,27.5l0.3-0.4
			C444,27.2,443.9,27.3,443.8,27.5L443.8,27.5z M577.4,51.7c0.2-0.4,0.4-0.7,0.5-1.1c0.2-0.3,0.3-1.1,0.6-1.5l0.2-0.1
			c0.8-0.6,1.5-1.3,2.2-2.1c0.9-1.1,1.8-2.1,2.8-3.2c0.6-0.8,1.2-1.6,1.8-2.5c0.3-0.5,0.6-1.1,0.8-1.7c0.3-0.6,0.6-1,0.9-1.6
			c0.5-1.2,1-2.4,1.4-3.6c0.1-0.5,0.4-0.8,0.5-1.3c1.3-2.7,1.5-5.8,2.4-9.2c0,0-0.4,1.2-1.3,3.2c-0.1,0.3-0.2,0.6-0.3,0.9
			c-1,2.2-2.2,4.3-3.8,6.3l-4.5,3.4c0.7-1.3,1.4-2.7,1.9-4.2c0.2-0.6,0.4-1.1,0.8-1.6c0.2-0.5,0.4-1,0.4-1.6
			c0.2-0.4,0.4-0.9,0.5-1.4c0.1-0.6,0.2-1.2,0.4-1.8c-0.4,0.9-0.9,1.7-1.3,2.6c-0.3,0.8-0.7,1.6-1.3,2.4c-1.1,1.3-2.1,2.8-3.2,4.1
			c-0.4,0.4-0.8,0.8-1.3,1.1v-7c0-0.2,0.1-0.4,0.1-0.6c0.1-0.7,0.4-1.2,0.5-1.9c0.3-1.3,0.5-2.6,0.6-3.9c0-0.5,0.1-1,0.2-1.5
			c0.2-0.6,0-1.3,0.1-2c0.1-1.4,0.1-2.9-0.1-4.3c-0.2,0.8-0.3,1.6-0.5,2.5c-0.1,0.6-0.4,1.2-0.5,1.8c-0.2,0.7-0.5,1.4-0.8,2.1
			c-0.3,0.6-0.4,1.3-0.7,1.8c-0.8,1.4-1.5,2.8-2.2,4.3c0.2-0.9,0.5-1.9,0.7-2.9c0.5-2.2,0.8-4.4,1.1-6.6c0.2-1.3,0.2-2.7,0.1-4
			c-0.2-1.3-0.1-2.7-0.1-4c-0.2-2.7-0.6-5.4-1.2-8l0,0c0,1.6,0,3.1-0.2,4.7s-0.2,3.5-0.5,5.1s-0.7,3.2-1,4.8
			c-0.2,0.9-0.4,1.7-0.5,2.6c-0.2,0.9-0.5,1.4-0.7,2.1c-0.2,0.7-0.4,1.7-0.7,2.5c-0.2,0.5-0.5,0.9-0.7,1.5c-0.2,0.8-0.5,1.5-0.9,2.3
			l-0.6-0.8l0,0c0.3-1.3,0.5-2.6,0.6-3.9c0-0.5,0.1-1,0.2-1.5c0.1-0.7,0.1-1.3,0.1-2c0.1-1.1,0.1-2.2,0-3.3c0.8-1.2,1.6-2.3,2.5-3.5
			c-0.9,1.1-1.7,2.1-2.5,3.1c0-0.2,0-0.4,0-0.7l-0.2,1c-1.5,1.9-2.8,4-3.8,6.3c-0.1-1.4-0.2-2.7-0.3-4.1c-0.2,1.2-0.5,2.4-0.7,3.6
			c-0.1,0.9-0.2,1.9-0.4,2.8l-0.1,0.1v-3.7c-0.1,0.3-0.2,0.6-0.3,0.9c-0.4,0.7-0.6,1.5-1,2.3c0-0.4-0.1-0.9-0.2-1.3
			c-0.6-2.7-1.1-5.4-1.7-8c-0.3,0.2-0.3,0.7-0.3,1c-0.1,0.3-0.3,0.6-0.3,1c-0.2,0.8-0.1,1.7-0.2,2.5c-0.1,1-0.1,2.1,0,3.1
			c0.1,0.9,0,1.8,0,2.7c0.1,0.9,0.1,1.9,0,2.8c-0.1-0.1-0.1-0.2-0.2-0.4c-0.6-1-1.3-1.9-2.1-2.7c0.3-1.6,0.6-3.2,0.7-4.9
			c0-0.5,0.1-1,0.1-1.5c-0.3,1-0.7,2-1.2,2.9l-0.1-1.4c-0.1,0.6-0.2,1.3-0.3,1.9c-0.3-3.3-1.4-6.5-3.2-9.3c-3-4.4-8.1-8.3-12.8-12.4
			c4.4,4.1,9.1,8.1,11.7,12.6c1.6,2.9,2.5,6.2,2.4,9.5l-1.2-1.1c-0.3-1.4-0.6-2.9-1-4.3c-0.3,0.2-0.5,1.3-0.6,1.7
			c-0.1,0.3-0.1,0.7-0.2,1l-0.9-0.9l0.9,1c0,0.6-0.1,1.1-0.1,1.7c-0.1,0.7-0.1,1.3,0,2c-0.5-0.8-0.9-1.8-1.4-2.7
			c-0.7-1.4-0.6-2.5-1.2-3.9c0.5,1.2-0.4,2.8-0.2,4.1c0.3,1.3,0.3,2.9,0.6,4.3c0.3,1.5,0.4,3.1,0.4,4.6c0,1.1,0.1,2.1,0.2,3.2
			c-0.1,0.2-0.2,0.4-0.3,0.6c-0.2,0.4-0.4,0.8-0.6,1.2c-0.3-1-0.5-1.9-0.6-2.9c-0.1-0.5-0.2-1-0.3-1.4c0-0.2,0-0.3,0.1-0.5
			c0.1-0.7,0.1-1.4,0-2.1c0-0.8,0.2-1.6,0.1-2.4c-0.1-1.8-0.3-3.6-0.4-5.4c-0.4,2-0.7,3.9-1,5.9c-0.1,0.3-0.1,0.7-0.2,1
			c0-0.1-0.1-0.3-0.1-0.4c-0.1-0.6-0.3-1.2-0.6-1.7c-0.3-0.7-0.4-1.4-0.6-2.1c-0.3-0.7,0.7,3.1,0.3,2.7c-0.3-0.5-0.5-1-0.7-1.6
			c-0.5-2.3-0.9-4.7-1.5-7c-0.3,0.2-0.5,1.3-0.6,1.7c-0.1,0.3-0.2,0.7-0.2,1.1c-0.8-1-1.5-2.1-2.1-3.2c0.7,1.7,1.1,3.4,1.2,5.2
			c0.2,1.9-0.5-0.3-0.4,1.6c0.2,2.3,0.3,4.6,0.2,6.9c0,0.5-0.1,1.1-0.1,1.5s-0.9-6.6-1.1-6.2c-0.2,0.4,0,0.8-0.1,1.1
			c-0.1,0.5-0.2,1.1-0.2,1.6c0,0.1,0.1,0.5,0.1,0.9c0-0.7,0.1-1.4,0.2-2.1c0,0.7-0.1,1.4-0.2,2.1c0,0.3,0.1,0.7,0.1,1.1
			c0.2,0.7,0.3,1.5,0.3,2.3c-0.2-0.7-0.3-1.5-0.3-2.3c0-0.3-0.1-0.7-0.1-1.1c-0.2,1.1-0.6,0.9-1.1,0.5c0-0.2,0-0.3,0-0.5
			c0-1.4,0-2.8,0.2-4.2c0.1-0.3,0.1-0.7,0.1-1c0-0.3-0.2-0.5-0.1-0.8c0.1-0.5,0.2-1,0.2-1.5c-0.5,1.2-0.9,2.4-1.3,3.6
			c0.2-1.2,0.5-2.5,0.8-3.8c0,0-0.4,1.2-1.3,3.2c-0.2,0.4-0.3,0.9-0.5,1.4c-0.1-0.4-0.3-0.8-0.4-1.1c-0.3-0.7-0.4-1.4-0.6-2.1
			c-0.1-0.2,0,0,0,0.3c-0.4-1-0.7-2-1.1-2.9c0.1,0.5,0.2,1.1,0.2,1.6c-0.1,0.3-0.1,0.6-0.1,0.9c-0.5-0.7-0.9-1.5-1.3-2.3
			c-0.6-1.6-1.9-2.6-2.6-4.1c0.7,1.7,1.1,3.4,1.2,5.2c0.2,1.9-0.5-0.3-0.4,1.6c0,0.9,0.1,1.9,0.2,2.9c-0.2-0.7-0.4-1.4-0.5-2.1
			c-0.1,0.9-0.3,1.7-0.4,2.5c-0.1-0.7-0.2-1.2-0.2-1.1c-0.1,0.3,0,0.8-0.1,1.1c-0.1,0.4-0.2,1-0.2,1.4c0-1.3,0-2.6,0.2-3.9
			c0.1-0.5,0.1-1.1,0-1.6c0-0.6,0.1-1.1,0.2-1.6c-0.9,2.2-1.7,4.5-2.5,6.8c-0.6-1.8-1.2-3.6-1.9-5.4c0.1,0.5,0.2,1,0.2,1.5
			c0,0.3-0.1,0.5-0.1,0.8c0,0.3,0.1,0.7,0.1,1c0,0.4,0.1,0.9,0.1,1.3c-0.2,0.8-0.4,1.6-0.6,2.4c-0.2-0.1-0.3-0.3-0.4-0.7
			c0,0.1,0,0.3-0.1,0.4l0,0c0-0.1,0-0.3,0-0.4c-0.1-0.7-0.2-1.4-0.2-2.1c0.1,0.7,0.2,1.4,0.2,2.1c0-0.5,0.1-0.8,0.1-0.9
			c0-0.6-0.1-1.1-0.2-1.6c0-0.2,0-0.3,0-0.5l0.3-0.4l-0.3,0.2c0-0.1,0-0.3-0.1-0.4c0-0.1-0.1,0.2-0.2,0.6c-0.1,0.1-0.2,0.2-0.3,0.3
			c-0.1-0.4-0.1-0.7-0.2-1.1c-0.1,0.5-0.2,1-0.3,1.5l-0.2,0.1c0-1.2,0.1-2.5,0.2-3.7c0.1-1.9-0.5,0.3-0.4-1.6
			c0.1-1.9,0.6-3.7,1.2-5.4c-0.7,1.5-1.9,2.5-2.6,4.1c-0.4,0.8-0.8,1.6-1.3,2.4c0-0.5,0.1-1,0.2-1.5c-0.5,1.3-1.1,2.7-1.5,4.1
			c0-0.5,0.6-3.1,0.4-2.6c-0.3,0.7-0.4,1.4-0.6,2.1c-0.3,0.5-0.5,1.1-0.5,1.7c-0.1,0.4-0.2,0.7-0.3,1.1c-0.1-0.3-0.2-0.6-0.3-1
			c0.1-0.8,0.2-1.3,0.1-1.1s-0.1,0.5-0.2,0.8c-0.4-1.2-0.8-2.4-1.3-3.6c0.1,0.5,0.2,1,0.2,1.5c0,0.3-0.1,0.5-0.1,0.8s0.1,0.7,0.1,1
			c0,0.3,0,0.4,0,0.5c-0.3-0.4-0.5-0.7-0.8-1.1c0.4,0.6,0.6,1.2,0.8,1.8c0.1,1,0.1,1.9,0.1,2.9c0,0.3,0,0.5,0,0.8
			c-0.1,0.3-0.1,0.5-0.2,0.8c-0.1,0.3-0.1,0.7-0.2,1c-0.2,0.2-0.3,0.4-0.5,0.7c-0.2,0.2-0.6,0.7-0.9,1c0-1.2,0.1-2.4,0.2-3.6
			s0.1-2.1,0.2-3.2c0.1-0.5,0.2-1,0.3-1.5c0,0.1-0.1,0.2-0.2,0.3c0-0.1,0-0.2,0-0.3c0.1-0.3,0.1-0.6,0.1-0.8l0.1,0.1l-0.1-0.1
			c0.1-1.1,0.2-2.3,0.4-3.4c0.3-1.3-0.7-2.9-0.1-4.1c-0.7,1.4-0.5,2.6-1.2,3.9c-0.5,0.9-0.9,1.9-1.5,2.8c0-0.2,0-0.4,0-0.6
			c0-0.2,0-0.4,0-0.6c0.8-4,3.3-7.8,6.2-11.6c-2.4,2.8-4.5,5.8-6.1,9.2c0-0.8-0.1-1.6-0.3-2.4c-0.1-0.4-0.3-1.5-0.6-1.7
			c-0.7,2.8-1.3,5.6-1.8,8.4c-0.2,1.4-0.3,2.8-0.2,4.2c0,0.5,0,1,0.1,1.5c-0.1,0.2-0.2,0.4-0.2,0.6c-0.1-0.3-0.1-0.6-0.2-0.9
			c0,0.1-0.2-0.7-0.3-0.8c-0.1-0.4-0.1-0.8-0.2-1.3c-0.1-0.9-0.5-1.7-0.6-2.6c-0.3-2-0.6-4-1-5.9c-0.1,0.8-0.1,1.7-0.2,2.5
			c0.1,0.7,0.1,1.4,0.2,2.1c0.1,1,0,1.9-0.3,2.9c0,0.1,0,0.2,0,0.3s0,0.1,0,0.2c-0.2-0.3-0.3-0.6-0.5-0.9c-0.2-0.4-0.5-0.7-0.7-1.1
			c0.2-1.3,0.2-2.7,0.5-4c0.1-0.8,0-1.6-0.2-2.4c0.1-0.4,0.1-0.8,0.1-1.3c0-0.2,0-0.3,0-0.5c-0.2-0.1-0.4-0.3-0.5-0.5
			c-0.7-1-1.3-2.1-1.8-3.2c-0.1,0.6-0.2,1.2-0.4,1.8l0,0c-0.2,0.8-0.4,1.6-0.5,2.4c-0.5-2.2-1.4-4.3-2.7-6.1
			c-3-4.5-8.1-8.4-12.8-12.4c4.4,4.1,9.1,8.1,11.7,12.6c1.6,2.9,2.5,6.2,2.4,9.5c-0.8-0.7-1.5-1.4-2.3-2.1c0-0.2-0.1-0.4-0.1-0.7
			c0,0.2,0,0.3,0,0.5c-0.4-0.4-0.9-0.8-1.3-1.3c0,0,0.5,0.5,1.3,1.5c-0.1,1.6-0.2,3.1-0.3,4.6c0,0.8,0.1,1.6,0.1,2.4
			c-0.1,0.8-0.1,1.6,0,2.4c0,0.1,0.1,0.3,0.1,0.4l0,0c-0.4,0.7-0.8,1.3-1.1,2.1c-0.2,0.3-0.3,0.7-0.5,1.1c-0.1-0.2-0.1-0.3-0.2-0.5
			c-0.3-0.7-0.7-1.4-1.1-2.1l0,0c0-0.5,0-1.1,0.1-1.6c0.1-0.8,0.1-1.6,0-2.4c0-0.8,0.2-1.6,0.1-2.4c-0.1-1.8-0.2-3.6-0.4-5.4
			c-0.2,0.9-0.4,1.8-0.5,2.6c0-0.2,0-0.5-0.1-0.7c-0.1-0.8,0-1.7-0.2-2.5c-0.1-0.3-0.3-0.6-0.3-1c-0.1-0.3-0.1-0.8-0.3-1
			c-0.5,2.1-0.9,4.3-1.4,6.4c-0.5-2.3-0.9-4.7-1.5-7c-0.1,0.1-0.2,0.2-0.2,0.3c-0.1-0.3-0.1-0.6-0.2-0.9c-0.5,1.1-1.1,2.2-1.8,3.2
			c-0.2,0.2-0.4,0.3-0.6,0.4c0,0.2,0,0.3,0,0.5c0.2,1.8,0.4,3.6,0.8,5.4c0,0,0,0.1,0,0.1c0,0.8,0.1,1.6,0.1,2.4
			c-0.1,0.8-0.1,1.6,0,2.4c0.1,0.6,0.1,1.3,0.1,1.9c0,0.2-0.1,0.4-0.2,0.6c-0.1,0.2-0.3,0.3-0.4,0.6c0,0.3-0.2,0.6-0.5,0.8
			c-0.1,0.1-0.2,0.3-0.3,0.4c0-0.1-0.1-0.1-0.1-0.2c0-0.2-0.1-0.3-0.1-0.5c-0.1-0.4-0.2-1.2-0.4-2c0-0.1,0-0.3,0.1-0.4
			c0.1-0.7,0.1-1.4,0-2.1c0-0.1,0-0.2,0-0.3c-0.3-0.9-0.4-1.9-0.3-2.9c0.1-0.7,0.1-1.4,0.2-2.1s-0.1-1.7-0.2-2.5
			c-0.4,2-0.6,3.9-0.9,5.9c-0.1,0.8-0.4,1.5-0.5,2.3c-0.4-0.8-0.7-1.7-1-2.5c0-0.1,0-0.3-0.1-0.4c-0.5-2.8-1.1-5.6-1.8-8.4
			c-0.3,0.4-0.4,0.8-0.5,1.3c-0.1-0.4-0.2-0.9-0.3-1.3c-0.3-1.6-0.7-3.2-1-4.8s-0.3-3.4-0.5-5.1s-0.1-3.1-0.1-4.7l0,0
			c-0.6,2.6-1,5.3-1.2,8c-0.1,1.4,0,2.7-0.1,4c-0.1,1.3,0,2.7,0.1,4c0,0.2,0,0.4,0.1,0.5c-0.2,0.6-0.2,1.3-0.1,2
			c0.3,1.4,0.3,2.9,0.6,4.3c0.1,0.6,0.2,1.3,0.2,1.9c-0.1-0.2-0.2-0.5-0.4-0.7c0.2,0.6,0.3,1.2,0.4,1.8c0,0.1,0,0.2,0.1,0.2
			c0,0.5,0,1,0.1,1.5c0,1.1,0.1,2.1,0.2,3.2c-0.1,0.2-0.2,0.4-0.3,0.6l-0.2,0.3l-0.4-0.4l-0.5-0.6l-0.1-0.6c-0.1-0.4-0.2-1.2-0.4-2
			c0-0.1,0-0.3,0.1-0.4c0.1-0.7,0.1-1.4,0-2.1c0-0.1,0-0.2,0-0.3c-0.3-0.9-0.4-1.9-0.3-2.9c0.1-0.7,0.1-1.4,0.2-2.1l-0.2-2.5
			c-0.4,2-0.7,3.9-1,5.9c-0.1,0.3-0.1,0.7-0.2,1c0-0.1-0.1-0.3-0.1-0.4c-0.1-0.6-0.3-1.2-0.5-1.7c-0.3-0.7-0.4-1.4-0.6-2.1
			c-0.3-0.7,0.7,3.1,0.3,2.7c-0.3-0.5-0.5-1-0.7-1.6c-0.5-2.3-0.9-4.7-1.5-7c-0.3,0.2-0.5,1.3-0.6,1.7c-0.1,0.3-0.2,0.7-0.2,1.1
			c-0.8-1-1.5-2.1-2.1-3.2c0.7,1.7,1.1,3.4,1.2,5.2c0.2,1.9-0.5-0.3-0.4,1.6c0.1,1.9,0.2,3.9,0.2,5.8l-0.1-0.1
			c-0.2-0.5-0.5-1-0.8-1.5c0-0.7-0.2-1.4-0.4-2c-0.1,0.3,0,0.7-0.1,1.1l-0.1-0.2c0,0.1,0,0.3,0.1,0.4c-0.1,0.5-0.2,1-0.2,1.5
			c0,0.1,0.1,0.5,0.1,0.9c0-0.6,0.1-1.3,0.2-1.9c0,0,0,0,0,0.1c0,0.6-0.1,1.3-0.2,1.9c0,0.3,0.1,0.7,0.1,1.1
			c0.2,0.7,0.3,1.5,0.3,2.3c-0.2-0.7-0.3-1.5-0.3-2.3c-0.1-0.4-0.1-0.7-0.1-1.1c-0.2,1.1-0.6,0.9-1.1,0.5c0-0.2,0-0.3,0-0.5
			c0-1.4,0-2.8,0.2-4.2c0.1-0.3,0.1-0.7,0.1-1c-0.1-0.3-0.1-0.5-0.1-0.8c0.1-0.5,0.2-1,0.2-1.5c-0.6,1.3-1.1,2.7-1.5,4
			c0,0,0-0.1,0-0.1c0-0.1,0-0.1,0,0.2c-0.1,0.4-0.3,0.8-0.4,1.2c-0.1-0.2-0.1-0.3-0.2-0.5c-0.1-0.6-0.3-1.2-0.5-1.7
			c-0.3-0.7-0.4-1.4-0.6-2.1c-0.1-0.2,0,0,0,0.3c-0.4-1-0.7-2-1.1-2.9c0.2,0.5,0.2,1.1,0.2,1.6c-0.1,0.3-0.1,0.6-0.1,0.9
			c-0.5-0.7-0.9-1.5-1.2-2.3c-0.7-1.6-1.9-2.6-2.6-4.1c0.6,1.7,1.1,3.4,1.2,5.2c0.2,1.9-0.5-0.3-0.4,1.6c0,0.9,0.1,1.9,0.2,2.9
			c-0.2-0.7-0.4-1.4-0.5-2.1c-0.1,0.9-0.3,1.7-0.4,2.5c-0.1-0.7-0.2-1.2-0.2-1.1c-0.1,0.3,0,0.8-0.1,1.1c-0.1,0.4-0.2,1-0.2,1.4
			c0-1.3,0-2.6,0.2-3.9c0.1-0.5,0.1-1.1,0-1.6c0-0.6,0.1-1.1,0.2-1.6c-0.9,2.2-1.7,4.5-2.5,6.8c-0.6-1.8-1.2-3.6-1.9-5.4
			c0.1,0.5,0.2,1,0.2,1.5c0,0.3-0.1,0.5-0.1,0.8c0,0.3,0.1,0.7,0.1,1c0,0.4,0.1,0.9,0.1,1.3l-0.6,2.4c-0.1-0.1-0.3-0.3-0.4-0.7
			c0,0.1,0,0.3-0.1,0.4l0,0c0-0.1,0-0.3,0-0.4c-0.1-0.7-0.2-1.4-0.2-2.1c0.1,0.7,0.2,1.4,0.2,2.1c0.1-0.5,0.1-0.8,0.1-0.9
			c0-0.6-0.1-1.1-0.2-1.6c-0.1-0.4,0-0.8-0.1-1.1c-0.2,0.5-0.3,1.1-0.3,1.7c-0.1-0.6-0.2-1.3-0.3-1.9c-0.1,0.8-0.4,1.5-0.5,2.3
			c0-1.5,0.2-2.9,0.2-4.3c0.1-1.9-0.5,0.3-0.4-1.6c0.1-0.7,0.2-1.4,0.3-2.1l0.2-0.2l-0.2,0.2c0.2-1.1,0.5-2.1,0.9-3.1
			c-0.7,1.5-1.9,2.5-2.6,4.1c-0.2,0.4-0.4,0.7-0.6,1.1l-0.7,0.6c0.1-0.3,0.1-0.6,0.2-0.8c-0.2,0.4-0.3,0.7-0.4,1.1
			c-0.1,0.1-0.3,0.3-0.4,0.4c0-3.3,0.8-6.6,2.4-9.5c2.6-4.4,7.3-8.4,11.7-12.6c-4.7,4-9.7,8-12.7,12.4c-2.2,3.4-3.4,7.4-3.3,11.5
			l-0.6,0.6c-0.3-0.8-0.6-1.6-0.9-2.4c0.1,0.5,0.2,1,0.2,1.5c0,0.3-0.1,0.5-0.1,0.8c0,0.3,0.1,0.6,0.1,0.9c-0.4,0.4-0.8,0.9-1.1,1.4
			c0-0.4,0.1-0.8,0.2-1.1c0.3-1.4,0.3-2.9,0.6-4.3c0.3-1.4-0.6-2.9-0.2-4.1c-0.7,1.4-0.5,2.6-1.2,3.9c-0.5,0.9-0.9,1.9-1.5,2.8
			c0-0.2,0-0.4,0-0.6c0.1-0.9,0.1-1.8,0-2.7c0-0.9-0.1-1.9-0.3-2.8c-0.1-0.4-0.3-1.5-0.6-1.7c-0.7,2.8-1.3,5.6-1.8,8.4
			c-0.1,0.6-0.2,1.2-0.2,1.8c-0.1-0.6-0.2-1.2-0.3-1.9c-0.4-1.7-1.1-3.4-2-4.9c0-0.1,0-0.2-0.1-0.3s0,0.1,0,0.2
			c-0.4-0.7-0.8-1.3-1.2-1.9c0-0.1,0-0.2,0.1-0.3c0,0.1-0.1,0.2-0.1,0.2c-1.3-1.9-2.6-3.7-4.1-5.4c1.5,1.9,2.8,3.8,3.9,5.8
			c-0.2,1.1-0.5,2.2-0.9,3.2c-0.2,0.3-0.3,0.6-0.5,0.9c0.1-0.8,0.1-1.6,0-2.4c-0.1-0.8,0-1.7-0.2-2.5c-0.1-0.3-0.3-0.6-0.3-1
			c-0.1-0.3-0.1-0.8-0.3-1c-0.7,2.7-1.1,5.4-1.7,8.1c-0.1,0.5-0.2,0.9-0.2,1.4c-0.3-0.1-0.7-0.4-0.9-0.6c-0.2-0.2-0.4-0.5-0.7-0.7
			c0-0.5-0.1-0.9-0.2-1.4c-0.2-1.2-0.4-2.4-0.7-3.6c-0.1,1.2-0.2,2.4-0.3,3.6c-0.9-1.3-1.5-2.8-2-4.3c0,0.5,0,1,0.1,1.5
			c0.2,2.4,0.6,4.7,1.1,7c0.1,0.4,0.2,0.8,0.3,1.2c-1.1-1-1.8-1.5-1.8-1.5c0.8,1.1,1.5,2.1,2.2,3.2c0,0.2,0.1,0.4,0.1,0.6
			c0,0.3,0,0.6,0,0.9c0.1,0.6,0.1,1.3,0.3,1.9c0.1,0.3,0.1,0.7,0.2,1c-0.3-0.2-0.6-0.5-0.8-0.8c0.1-1,0.1-1.9,0-2.9
			c-0.1,0.7-0.2,1.4-0.4,2.1c0,0.1,0,0.1-0.1,0.2c-0.5-0.6-1-1.2-1.6-1.8c-0.1-0.1-0.2-0.2-0.2-0.3c-0.1-0.2-0.2-0.3-0.3-0.5
			c-0.3-0.5-0.6-1.1-0.8-1.7c0-0.8,0-1.6,0-2.4c0-0.9-0.1-1.8,0-2.7c0.1-1,0.2-2,0.1-3.1c-0.1-0.8,0-1.7-0.2-2.5
			c-0.1-0.3-0.3-0.6-0.3-1c-0.1-0.3-0.1-0.8-0.3-1c-0.5,2.1-0.9,4.3-1.4,6.4c0-0.1,0-0.1-0.1-0.2c-0.2-0.7-0.6-1.4-0.7-2.1
			s-0.4-1.7-0.5-2.6c-0.3-1.6-0.7-3.2-1-4.8c-0.3-1.6-0.3-3.4-0.5-5.1s-0.1-3.1-0.2-4.7l0,0c-0.6,2.6-1,5.3-1.2,8c-0.1,1,0,2-0.1,3
			c-0.9,1.1-1.7,2.1-2.5,3.2c-0.2-0.8-0.3-1.5-0.5-2.3c-0.1,1-0.2,2.1-0.1,3.1c-0.2,0.3-0.5,0.7-0.7,1.1c0-1.2,0-2.4-0.1-3.5
			c-0.2,0.8-0.3,1.6-0.5,2.5c-0.1,0.6-0.4,1.2-0.5,1.8c-0.1,0.4-0.2,0.8-0.4,1.2c-0.1-0.2-0.2-0.5-0.2-0.8c-0.2-0.9-0.4-1.7-0.5-2.6
			c-0.3-1.6-0.7-3.2-1-4.8c-0.2-1.7-0.4-3.4-0.5-5.1c-0.2-1.5-0.1-3.1-0.2-4.7l0,0c-0.6,2.6-1,5.3-1.2,8c-0.1,1.4,0,2.7-0.1,4
			c-0.1,1.3,0,2.7,0.1,4c0.2,2.2,0.6,4.4,1.1,6.6c0,0.2,0.1,0.3,0.1,0.5c-0.2,0.4-0.4,0.8-0.6,1.2c-0.1-0.1-0.1-0.2-0.2-0.4
			c0,0.2,0.1,0.3,0.1,0.5s-0.2,0.3-0.2,0.5l-0.6,1l-0.2,0.2h-0.2c-0.2,0-0.4-0.1-0.6-0.1c0.3-1.2,0.7-2.4,0.9-3.7v-4
			c-0.1,0.3-0.2,0.6-0.3,0.9c-0.4,0.8-0.7,1.7-1.1,2.6c-0.4,0.8-0.8,1.9-1.3,2.8c-0.1,0.1-0.1,0.2-0.2,0.3c-0.8-1-1.6-2-2.5-2.9
			c0-1.4-0.1-2.9-0.4-4.3v-0.4c0-0.5,0.1-1,0.1-1.5c-0.1,0.3-0.2,0.7-0.3,1c-0.5-2.3-1.4-4.4-2.7-6.3c-1.7-2.4-3.7-4.5-5.9-6.4
			c1.9-1.9,4.1-3.9,6.1-5.8c-2.1,1.9-4.4,3.7-6.4,5.5c-2.1-1.9-4.4-3.8-6.6-5.7c2.1,2,4.3,4,6.3,6c-2.2,1.9-4.1,4-5.8,6.3
			c-0.4-0.2-0.8-0.4-1.3-0.6c0.4,0.2,0.8,0.4,1.2,0.7l-0.2,0.2c-1.1,1.6-1.9,3.4-2.5,5.4c-1.9,0.8-3.7,1.8-5.4,3.1
			c-0.2-0.4-0.4-0.8-0.6-1.2c-0.6-1.6-1.9-2.6-2.6-4.1c0.6,1.7,1.1,3.4,1.2,5.2c0.2,1.8-0.4-0.1-0.4,1.3l-1.5,0.4
			c-1.3-3.6-3.9-6.9-6.8-10.3c2.6,3.4,4.9,6.9,5.9,10.5c-1.4,0.4-2.9,0.9-4.4,1.4c0-0.1,0-0.2,0-0.3c0,0.1-0.1,0.2-0.1,0.4
			c-0.6,0.2-1.3,0.5-1.9,0.7c0.6-3.4,0.7-6.8-0.2-8.9c-2.4-5.4-12.7-9.1-16-10.1c2.1,0.7,12.1,4,14.8,10.1c1.1,2.5,0.8,6,0,9.5
			l-0.2,0.1c0-0.8,0.1-1.5,0.2-2.3c0.1-0.5,0.1-1.1,0-1.6c0-0.6,0.1-1.1,0.2-1.6c-0.9,2.1-1.6,4.3-2.4,6.6l-0.2,0.1
			c-0.6-1.7-1.2-3.4-1.9-5.1c0.1,0.5,0.2,1,0.2,1.5c0,0.3-0.1,0.5-0.1,0.8c0,0.3,0.1,0.7,0.1,1c0.1,0.9,0.1,1.8,0.2,2.7
			c-1.2,0.7-2.3,1.6-3.3,2.6l-0.4-0.2c0.1-0.6,0.1-1.2,0.1-1.9c0-0.2,0-0.5,0-0.8c0.1-0.6,0.4-1.1,0.5-1.6c0.3-1.3,0.5-2.6,0.6-3.9
			c0-0.5,0.1-1,0.2-1.5c0.2-0.6,0-1.3,0.1-2c0.1-1.4,0.1-2.9-0.1-4.3c-0.2,0.8-0.3,1.6-0.5,2.5c-0.1,0.6-0.4,1.2-0.5,1.8
			c-0.2,0.7-0.5,1.4-0.8,2.1c-0.3,0.6-0.4,1.3-0.7,1.8c-0.8,1.4-1.5,2.9-2.2,4.3c-0.2,0.3-0.4,0.7-0.6,1c-0.1,0.1-0.2,0.3-0.3,0.5
			l-0.6-0.3c0.3-1.2,0.7-2.5,0.9-3.7v-4c-0.1,0.3-0.2,0.6-0.3,0.9c-0.4,0.8-0.7,1.7-1.1,2.6c-0.4,0.8-0.8,1.8-1.2,2.7
			c0-0.4,0.1-0.9,0.2-1.3c0.3-1.4,0.3-2.9,0.6-4.3c0.3-1.4-0.7-2.9-0.2-4.1c-0.7,1.4-0.5,2.6-1.2,3.9c-0.3,0.7-0.7,1.4-1.1,2.1
			c-0.1-0.2-0.1-0.3-0.1-0.3c0,0.1,0,0.2,0.1,0.3c-0.2,0.4-0.4,0.7-0.6,1.1c-0.3,0.5-0.5,1.1-0.7,1.6l-0.1,0.1l-0.9-0.4
			c0.4-2,0.7-3.9,0.9-5.9c0.2-2.5,0.2-5.1,0-7.7c-0.2-2.9-0.6-5.7-1.2-8.5c-0.1,1.4,0.1,3-0.1,4.5s-0.3,3.1-0.4,4.6
			c-0.2,1.5-0.5,3-0.9,4.5c-0.2,1.6-0.6,3.2-1.1,4.8c-0.2,0.7-0.5,1.4-0.7,2.1c-1-0.5-1.8-1.2-2.6-1.9c0.1-0.8,0.1-1.6,0-2.3
			c-0.1-0.8,0-1.7-0.2-2.5c-0.1-0.3-0.3-0.6-0.4-1c0-0.3-0.1-0.6-0.2-0.8c0.2-0.5,0.5-1.1,0.8-1.6c-1,1.1-1.6,2.4-1.9,3.8
			c-0.1,0.7-0.1,1.4,0,2.1c-0.2,1.2-0.5,2.4-0.7,3.5c-0.1,0.6-0.2,1.2-0.2,1.8c-0.1-1.7-0.3-3.5-0.4-5.2c-0.4,1.8-0.6,3.5-0.9,5.3
			c-0.2-1-0.4-2.1-0.5-3.1c-0.2-1.2-0.5-2.4-0.7-3.6c-0.1,1.8-0.3,3.6-0.4,5.4c-0.1,0.8,0.1,1.6,0.1,2.4c0,0.4,0,0.7-0.1,1.1
			c0-0.7-0.1-1.4-0.2-2.1c-0.5-2.8-1.1-5.6-1.8-8.4c-0.3,0.2-0.5,1.3-0.6,1.7c-0.2,0.9-0.3,1.9-0.3,2.8c-0.1,0.9-0.1,1.8,0,2.7
			c0.1,1.1,0,2,0,3.1c0,0.5,0.1,0.9,0.1,1.4l-0.4,0.1c-0.5-1-0.9-2-1.2-3.1c-0.2-0.5-0.4-1-0.6-1.5c-0.3-0.7-0.4-1.7-0.7-2.5l0,0
			c0.1-0.2,0.1-0.5,0.2-0.7c0,0-0.1,0.2-0.2,0.6c-0.3-0.6-0.5-1.3-0.7-2c-0.2-0.9-0.4-1.7-0.5-2.6c-0.3-1.6-0.7-3.2-1-4.8
			c-0.2-1.7-0.4-3.4-0.5-5.1c-0.1-1.5-0.1-3.1-0.1-4.7l0,0c-0.6,2.6-1,5.3-1.2,8c-0.1,1.4,0,2.7-0.1,4c-0.1,1.3,0,2.7,0.1,4
			c0.2,2.2,0.6,4.4,1.1,6.6c0,0.1,0.1,0.3,0.1,0.4s0,0.2-0.1,0.1c-0.3-0.6-0.6-1.2-0.8-1.9c-0.4-0.7-0.8-1.4-1.2-2.1
			c0-0.5-0.1-1-0.1-1.4c-0.1,0.3-0.1,0.6-0.2,0.9c-0.1-0.1-0.1-0.3-0.2-0.4c-0.7-1.6-1.9-2.6-2.6-4.1c0.6,1.7,1.1,3.4,1.2,5.2
			c0.2,1.9-0.5-0.3-0.4,1.6c0.1,2.2,0.3,4.6,0.2,6.9c0,0.1,0,0.3,0,0.4c0,0.1-0.1,0.1-0.1,0.1c0,0.2-0.1,0.5-0.1,0.7
			c0-0.4-0.2-1-0.3-1.7c0,0,0-0.1,0-0.1c0.1-1.4,0-2.8-0.2-4.2c-0.5-2.8-1.1-5.6-1.8-8.4c-0.3,0.2-0.5,1.3-0.6,1.7
			c-0.2,0.9-0.3,1.9-0.3,2.8c-0.1,0.9-0.1,1.8,0,2.7c0.1,1.1,0,2,0,3.1c0,0.5,0.1,1.1,0.1,1.6c0,0,0,0.1,0,0.1
			c-0.4-0.3-0.7-0.3-0.8,0.6l-0.3-0.5c-0.3-0.6-0.6-1.1-0.9-1.7c0.1-0.5,0.2-1,0.3-1.5c-0.1,0.5-0.2,1-0.4,1.5
			c-0.2-0.3-0.3-0.6-0.5-0.9c0.1,0.5,0.2,1,0.3,1.5c-0.2,0.8-0.4,1.5-0.6,2.3c-0.3-1.2-0.5-2.4-0.7-3.6l1.4-2c0,0-0.6,0.4-1.5,1.3
			c-0.1-0.4-0.1-0.8-0.2-1.1c-0.1,0.5-0.2,1.1-0.4,1.6l-0.3,0.3l-0.2-0.8c-0.1-0.3,0,0.2,0.1,0.9l-0.5,0.5c-0.1-0.2-0.1-0.3-0.1-0.5
			c-0.1-0.6-0.3-1.2-0.6-1.7c-0.3-0.7-0.4-1.4-0.6-2.1s0.7,3.1,0.3,2.7c-0.3-0.6-0.6-1.2-0.8-1.9c-0.1-0.1-0.1-0.2-0.2-0.3
			c0-0.3,0-0.6-0.1-0.8c0-0.6,0.1-1.1,0.2-1.6c-0.2,0.5-0.4,1.1-0.6,1.6c-0.4-0.6-0.8-1.3-1.1-1.9c-0.6-1.6-1.9-2.6-2.6-4.1
			c1.1-2,2.4-3.9,3.8-5.7c-3.4,4-6.4,8-7.4,12.3c-0.3,1.1-0.4,2.3-0.4,3.5c-0.3,1.1-0.5,2.1-0.8,3.2c-0.2-0.8-0.4-1.6-0.6-2.4
			c0.2,0.9,0.4,1.8,0.6,2.7v0.1c-0.4-1.8-0.8-3.6-1-5.5c-0.1,0.9-0.5,1.7-0.6,2.6c-0.1,0.9-0.3,1.8-0.5,2.7c-0.2-1.4-0.6-2.8-1.4-4
			c-0.3-0.5-0.6-0.9-0.9-1.3c0-0.2,0-0.4,0-0.5c0.1-0.5,0.1-1.1,0-1.6c0-0.6,0.1-1.1,0.2-1.6c-0.1,0.3-0.2,0.5-0.3,0.8
			c0,0,0-0.1,0-0.1c0.3-1.3-0.7-2.9-0.2-4.1c-0.7,1.4-0.5,2.6-1.2,3.9l-0.6,1.1c0.1-4-1.1-8-3.3-11.4c-3-4.4-8.1-8.3-12.8-12.4
			c4.4,4.1,9.1,8.1,11.7,12.6c1.6,2.9,2.5,6.2,2.4,9.5c-1.2-1.1-2.5-2.3-3.8-3.5c0,0,0.9,1.1,2.5,2.9c0.4,0.4,0.8,0.9,1.3,1.4
			c0,0.4,0,0.8-0.1,1.2l-0.1-0.4c0,0.2,0.1,0.5,0.1,0.7c-0.1,0.7-0.1,1.3-0.2,2c-0.1,0.7-0.2,1.5-0.3,2.1c-0.1,0.2-0.2,0.3-0.2,0.5
			c-0.2,0.7-0.4,1.4-0.6,2c-0.3,0.6-0.5,1.3-0.7,2c-0.1,0.7-0.6,1.1-0.6,1.8c-0.1,0.7-0.3,1.3-0.5,1.9c-0.2,0.7,0.4-2.6,0.2-1.9
			c-0.1,0.5-0.2,1-0.3,1.5c-0.2-0.9-0.3-1.8-0.2-2.7c0-1.2,0.2-2.4,0.2-3.6c0-0.4-0.1-1-0.1-1.4c0-0.5-0.1-1.1-0.2-1.6
			c-0.3,1.5-0.7,2.9-1,4.4c-0.2-1-0.5-2-0.8-3c0.3,1,0.4,1.9,0.6,2.9c0.1,0.4,0.1,0.8,0,1.2c-0.1,0.5-0.3,0.9-0.4,1.4
			c0,0.1,0,0.2-0.1,0.3c-0.2-0.2-0.3-0.4-0.4-0.7c-0.1-0.3-0.2-0.3-0.3-0.6c-0.1-0.2-0.2-0.9-0.3-1c-0.4-0.3-0.5-1.7-0.5-2.1
			c-0.1-1-0.2-2-0.1-3.1c0-0.9-0.1-1.8,0-2.7c0.1-1,0.2-2,0.1-3.1c-0.1-0.8,0-1.7-0.2-2.5c-0.1-0.3-0.3-0.6-0.4-1
			c-0.1-0.3-0.1-0.8-0.3-1c-0.7,2.7-1.1,5.4-1.7,8.1c-0.3,1.4-0.4,2.7-0.3,4.1c0,1.3,0.1,2.5,0.3,3.8c-0.3-0.8-0.5-1.6-0.7-2.5
			c0-1,0.2-2.1,0.3-3.1c0.3-1.4,0.3-2.9,0.6-4.3c0.3-1.4-0.6-2.9-0.1-4.1c-0.6,1.3-0.5,2.4-1.1,3.7c0.1-0.6,0.1-1.3,0.1-1.9
			c0.1-1.4,0.1-2.9-0.1-4.3c-0.2,0.8-0.3,1.6-0.5,2.5c-0.1,0.6-0.4,1.2-0.5,1.8c-0.1,0.3-0.2,0.6-0.3,0.9c-0.1-0.5-0.2-1-0.3-1.5
			l-0.2,2.5l-0.1,0.1c-0.3,0.6-0.4,1.3-0.7,1.8c-0.8,1.4-1.5,2.9-2.2,4.3c-0.2,0.3-0.4,0.6-0.6,1c-0.2-0.4-0.4-0.9-0.6-1.3
			c0.2-0.7,0.4-1.4,0.5-2.1v-3.9c-0.1,0.3-0.2,0.6-0.3,0.9c-0.4,0.8-0.7,1.7-1.1,2.6V26c-0.1-0.1-0.1-0.3-0.2-0.4
			c-0.3-0.7-0.4-1.7-0.7-2.5c-0.3-0.7-0.5-1.4-0.7-2.1c-0.2-0.9-0.4-1.7-0.5-2.6c-0.3-1.6-0.7-3.2-1-4.8s-0.3-3.4-0.5-5.1
			c-0.2-1.6-0.1-3.1-0.1-4.7l0,0c-0.6,2.6-1,5.3-1.2,8c-0.1,1.4,0,2.7-0.1,4c-0.1,1.3,0,2.7,0.1,4c0.1,0.6,0.1,1.1,0.2,1.7
			c-0.6,1.4-1.4,2.7-2.4,3.9c-0.1-0.6-0.1-1.2-0.2-1.8c-0.2-1.2-0.4-2.3-0.7-3.5c0.1-1.3,0-2.6-0.1-3.9c-0.2,0.8-0.3,1.6-0.5,2.5
			c-0.1,0.6-0.4,1.2-0.5,1.8c-0.2,0.7-0.5,1.4-0.8,2.1c-0.3,0.6-0.4,1.3-0.7,1.8c-0.2,0.3-0.3,0.7-0.5,1c-0.8-0.1-1.5-0.2-2.3-0.3
			v-2.8c-0.1,0.3-0.2,0.6-0.3,0.9c-0.1,0.1-0.1,0.3-0.2,0.4c0-0.2-0.1-0.4-0.2-0.6c-0.1-0.2-0.2-0.5-0.3-0.8l-0.1-0.8
			c0,0.1,0,0.3-0.1,0.4c-0.1-0.3-0.2-0.6-0.3-1c-0.2-0.9-0.4-1.7-0.5-2.6c-0.3-1.6-0.7-3.2-1-4.8s-0.3-3.4-0.5-5.1s-0.1-3.1-0.2-4.7
			l0,0c-0.7,2.6-1.1,5.3-1.3,8c-0.1,1.4,0,2.7-0.1,4c-0.1,1.3,0,2.7,0.1,4c0.1,0.7,0.2,1.4,0.3,2.1c-0.3-1.2-0.5-2.4-0.8-3.6
			c-0.3,0.2-0.5,1.3-0.6,1.7c-0.1,0.4-0.2,0.9-0.2,1.3c-0.6,1.5-1.4,2.8-2.4,4c-1.1,0.1-2.3,0.3-3.5,0.6c-0.2-0.5-0.3-1-0.4-1.5
			c2.4-5.5,1-11.8-6.9-15.1c0,0,11.7,5.5,6.2,15.4c-0.6-0.9-1.1-1.8-1.5-2.8c-0.6-1.5-1.9-2.6-2.6-4.1c0.6,1.5,1,3,1.1,4.6
			c-0.1,0.5-0.2,0.9-0.2,1.4c-0.1,0.1-0.1,0.3-0.1,0.4c-0.2,0.9-0.3,1.9-0.4,2.9l-0.4,0.1c0-0.3-0.1-0.4-0.1-0.4
			c0,0.1-0.1,0.3-0.1,0.4l-0.9,0.3c0-0.3-0.1-0.6-0.1-0.8c-0.5-2.8-1.1-5.6-1.8-8.4c-0.3,0.2-0.5,1.3-0.6,1.7
			c-0.2,0.9-0.3,1.9-0.3,2.8c-0.1,0.9-0.1,1.8,0,2.7c0,0.5,0,1,0,1.5c-0.4,0.7-0.9,1.3-1.5,1.9c-0.2-1-0.4-1.9-0.5-2.9
			c-0.1,0.9-0.4,1.7-0.6,2.6c-0.1,0.4-0.1,0.7-0.2,1.1l-1.1,0.5c0-0.4-0.1-0.7-0.1-1.1c-0.1-0.7-0.3-1.3-0.5-2
			c-0.1-0.5,0.2,1.6,0.4,3.2c-0.1,0-0.2,0.1-0.3,0.1c0-0.1-0.1-0.2-0.1-0.4c-0.1-0.7-0.6-1.3-0.6-2c-0.1-0.5-0.2-0.9-0.4-1.3
			c0-0.4,0-0.8,0.1-1.2c0.1-0.5,0.1-1.1,0-1.6c0-0.6,0.1-1.1,0.2-1.6c-0.3,0.8-0.6,1.6-1,2.5c0-0.2-0.1-0.3-0.2-0.5
			c-0.1-0.2,0,0.1,0.1,0.7l-0.3,0.8c-0.1-0.2-0.2-0.5-0.3-0.7c-0.1-0.1-0.2-0.3-0.3-0.5c0-1,0.2-2,0.5-2.9c0.3-0.7,0.7-1.3,1.2-1.9
			c1.9-0.5,3.9-1,6.1-1.5c0,0-2.4,0.3-5.7,1.1c3-3.2,8.3-5,9.7-5.4c-2.1,0.6-7.7,2.6-10.6,5.6c-1.1,0.2-2.2,0.5-3.4,0.9
			c-0.7-0.8-1.2-1.7-1.7-2.6c0.4,0.9,0.7,1.9,0.9,2.9c-2,0.6-3.9,1.2-5.8,2c0.6-3.4,0.7-6.8-0.2-8.9c-2.4-5.4-12.7-9.1-16-10.1
			c2.1,0.7,12.1,4,14.8,10.1c1.1,2.5,0.8,6,0,9.5c-0.5,0.2-1.1,0.5-1.6,0.8c0.1-0.4,0.1-0.8,0.2-1.1c0.3-1.3-0.7-2.9-0.2-4.1
			c-0.7,1.4-0.5,2.6-1.2,3.9c0,0.1-0.1,0.2-0.2,0.3c0.1-0.3,0.1-0.5,0.2-0.8c-0.3,0.7-0.5,1.4-0.8,2.1c-0.2,0.4-0.5,0.9-0.7,1.3
			c-0.6,0.4-1.2,0.8-1.7,1.2c-0.4-1.1-0.8-2.1-1.2-3.1c0.1,0.5,0.2,1,0.2,1.5c0,0.3-0.1,0.5-0.1,0.8c0,0.3,0.1,0.7,0.1,1
			c0,0.3,0,0.4,0,0.6l-0.1,0.2l-5.3-2.4c0-0.4,0-0.8,0-1.1c0.1-1,0.1-2,0-3.1c-0.1-0.8,0-1.7-0.2-2.5c-0.1-0.3-0.3-0.6-0.3-1
			l-0.1-0.3c0.8-1.2,1.6-2.4,2.5-3.6c-0.9,1.1-1.8,2.1-2.6,3.2c0-0.1-0.1-0.2-0.2-0.3c-0.1,0.3-0.1,0.6-0.2,0.9
			c-1.1,1.5-2.1,3-2.9,4.7c0-1.2-0.6-2.5-0.2-3.5c-0.3,0.8-0.6,1.7-0.7,2.5l-0.3-1.4c-0.1,1-0.1,1.9-0.2,2.8l-0.1,0.2
			c-1.2-0.5-2.2-1.1-3.1-1.5c-0.5-0.2-1-0.5-1.5-0.8c0-0.1,0-0.1,0-0.2c0.1-1.4,0.1-2.9,0-4.3c-0.2,0.8-0.3,1.6-0.5,2.5
			c-0.1,0.5-0.3,0.9-0.4,1.4c-0.6-0.4-1.1-1-1.5-1.6v-0.1c-0.3-1.3-0.5-2.5-0.8-3.8c0.3-1.2,0.8-2.4,1.4-3.5
			c-0.7,0.8-1.2,1.7-1.6,2.6c0,0,0-0.1,0-0.1c-0.3-1.6-0.3-3.4-0.5-5.1c-0.2-1.6-0.1-3.1-0.2-4.7l0,0c-0.6,2.6-1,5.3-1.2,8
			c-0.1,1.3,0,2.6-0.1,4c-0.3-0.5-0.6-1.1-0.9-1.5c-3-4.4-8.1-8.3-12.8-12.4c4.4,4.1,9.1,8.1,11.7,12.6c0.6,1.1,1.1,2.2,1.5,3.4
			c-0.3,1.5-0.6,2.9-0.9,4.4c-0.7-0.6-1.3-1.2-2-1.9l1.8,2.2l-0.5,2.3c0,0.1,0,0.3-0.1,0.4c-0.5,0-1.1,0.1-1.6,0.1
			c-0.1-0.6-0.1-1.3-0.2-1.9c-0.2-1.2-0.4-2.4-0.7-3.6c0,0.3-0.1,0.7-0.1,1c-0.2-0.9-0.4-1.7-0.6-2.6c-0.3,0.2-0.5,1.3-0.6,1.7
			c-0.1,0.4-0.2,0.8-0.2,1.3c-0.7,1.8-1.8,3.5-3.2,4.9c-0.1,0.1-0.2,0.2-0.3,0.3c-0.2-0.3-0.3-0.6-0.5-1c-0.3-0.7-0.4-1.7-0.7-2.5
			c-0.2-0.8-0.6-1.4-0.7-2.1s-0.4-1.7-0.5-2.6c-0.2-0.9-0.4-1.8-0.6-2.7c-0.5,1.1-1.1,2.2-1.8,3.2c-0.1,0.2-0.3,0.3-0.5,0.5
			c0,0.2,0,0.3,0,0.5c0.1,0.8,0.2,1.6,0.3,2.3c0-0.1-0.1-0.1-0.1-0.2c-0.6-1.6-1.9-2.6-2.6-4.1c0.6,1.5,1,3,1.1,4.6
			c-0.1,0.5-0.2,0.9-0.2,1.4c-0.1,0.1-0.1,0.3-0.1,0.4c-0.2,1.1-0.3,2.1-0.5,3.1c-0.1,0.3-0.1,0.6-0.2,0.9c0-0.5-0.1-1-0.3-1.4
			c-0.1,0.4-0.1,0.7-0.1,1.1c-0.1,0.5-0.2,1.1-0.2,1.6c0,0.1,0.1,0.5,0.1,0.9c0-0.7,0.1-1.4,0.2-2.1c0,0.5,0,0.9-0.1,1.3
			c0,0.1,0,0.1,0,0.2c0,0.1,0,0.2,0,0.4c0,0.1,0,0.2-0.1,0.3c0,0,0,0,0,0.1l0,0v-0.1c-0.2,0.8-0.5,0.9-0.8,0.7c0-0.1,0-0.3,0-0.4
			c0.1-1.4,0-2.8-0.2-4.2c-0.5-2.8-1.1-5.6-1.8-8.4c-0.3,0.2-0.5,1.3-0.6,1.7c-0.2,0.9-0.3,1.9-0.3,2.8c-0.1,0.9-0.1,1.8,0,2.7
			c0.1,0.7,0,1.3,0,2c-0.3,1.1-0.6,2.1-0.8,3.2c-0.1-0.1-0.1-0.3-0.2-0.4c-0.1-0.1-0.2-0.5-0.4-0.7c-0.2-1.2-0.5-2.4-0.6-3.6
			c-0.1,0.9-0.4,1.7-0.6,2.6c-0.1,1-0.3,1.9-0.5,2.8c-0.1,0.4-0.2,0.7-0.3,1.1c-0.1-0.4-0.2-0.9-0.3-1.3c-0.2-0.7-0.2-1.5-0.3-2.2
			c-0.2-0.7-0.3-1.3-0.5-2c-0.2-0.8,0.8,5.8,0.6,5c-0.1-0.7-0.5-1.3-0.6-2s-0.6-1.3-0.6-2c-0.1-0.5-0.2-0.9-0.4-1.3
			c0-0.4,0-0.8,0.1-1.2c0.1-0.5,0.1-1.1,0-1.6c0-0.6,0.1-1.1,0.2-1.6c-0.3,0.8-0.7,1.6-1,2.5c0-0.2-0.1-0.3-0.2-0.5
			c-0.1-0.2,0,0.1,0.1,0.7l-0.3,0.8c-0.1-0.2-0.2-0.5-0.3-0.7c-0.5-1.1-1.2-2-1.7-3.1c-0.7-1.6-1.9-2.6-2.6-4.1
			c0.7,1.7,1.1,3.4,1.2,5.2c0.2,1.9-0.5-0.3-0.4,1.6c0.1,2.2,0.3,4.6,0.2,6.9c0,0.5-0.1,1.1-0.1,1.5c0,0.5-0.9-6.6-1.1-6.2
			c-0.2,0.4,0,0.8-0.1,1.1c-0.1,0.5-0.2,1.1-0.2,1.6c0,0.1,0.1,0.5,0.1,0.9c0-0.7,0.1-1.4,0.2-2.1c0,0.7-0.1,1.4-0.2,2.1
			c0,0.3,0.1,0.7,0.1,1.1c0.2,0.7,0.3,1.5,0.3,2.3c0,0.6-0.2-0.9-0.3-2.3c-0.1-0.4-0.1-0.7-0.1-1.1c-0.3,1.3-0.9,0.7-1.4,0.1
			c0-0.1,0-0.3,0-0.4c0-0.4-0.1-1-0.1-1.4c0-0.5-0.1-1.1-0.2-1.6c-0.2,1-0.4,1.9-0.7,2.9c-0.1,0.1-0.3,0.3-0.3,0.8
			c0,0.2,0,0.4-0.1,0.5c-0.2-0.9-0.5-1.8-0.7-2.8c0.3,1,0.5,1.9,0.6,2.9c0.1,0.4,0.1,0.8,0,1.2c-0.1,0.5-0.3,0.9-0.4,1.4
			c-0.1,0.5-0.2,1-0.3,1.6c0-0.1-0.1-0.2-0.1-0.3c-0.3-0.8-0.5-1.7-0.6-2.5c-0.1-1,0-1.9,0.2-2.9c0.1-1,0.3-2,0.6-3
			c-0.4,1.4-0.7,2.9-1.1,4.3c-0.4-1.8-0.7-3.6-1-5.5c-0.1,0.9-0.4,1.7-0.6,2.6c-0.1,1-0.3,1.9-0.5,2.8c-0.3,0.9-0.4,2-0.7,2.9
			s-0.4,1.9-0.7,2.8c-0.1-0.2-0.2-0.5-0.3-0.7c-0.1-1.6,0.1-3.2,0.1-4.7c0-1.5,0.1-3.1,0.4-4.6c0.3-1.4,0.3-2.9,0.6-4.3
			c0.3-1.4-0.7-2.9-0.2-4.1c-0.7,1.4-0.5,2.6-1.2,3.9c0,0.1-0.1,0.2-0.2,0.3c0.1-0.3,0.1-0.5,0.2-0.8c-0.3,0.7-0.5,1.4-0.8,2.1
			c-0.3,0.6-0.6,1.1-0.9,1.6c-0.3,0.5-0.5,1.1-0.7,1.6c-0.1,0.2-0.2,0.4-0.3,0.6c-0.5-1.5-1-2.9-1.6-4.4c0.1,0.5,0.2,1,0.2,1.5
			c0,0.3-0.1,0.5-0.1,0.8c0,0.3,0.1,0.7,0.1,1c0.1,1.4,0.2,2.8,0.2,4.2c0,0,0,0,0,0.1c-0.3,0.6-0.6,1.3-0.7,2
			c-0.1,0.7-0.6,1.1-0.6,1.8c-0.1,0.7-0.3,1.3-0.5,1.9c-0.2,0.7,0.4-2.6,0.2-1.9s-0.4,1.6-0.6,2.4c0,0.1,0,0.3-0.1,0.4
			c-0.1,0.1-0.1,0.2-0.2,0.2c0.1-2.4,0.3-7.2,0.2-6.7c-0.1,0.7-0.2,1.4-0.4,2.1c-0.1,0.3,0,0.6-0.2,0.9c-0.2,0.3-0.3,0.8-0.5,1.1
			c-0.1-0.4-0.3-0.7-0.5-1l0,0c0-0.2,0-0.5,0-0.7c0-1.2,0.2-2.4,0.2-3.6c0-0.4-0.1-1-0.1-1.4c0-0.5-0.1-1.1-0.2-1.6
			c-0.3,1.5-0.7,2.9-1,4.4l-0.7-2.8c0-0.6,0-1.2,0-1.8c0-0.9-0.1-1.8,0-2.7c0.1-1,0.1-2,0-3.1c-0.1-0.8,0-1.7-0.2-2.5
			c-0.1-0.3-0.3-0.6-0.3-1c-0.1-0.3-0.1-0.8-0.3-1c-0.7,2.7-1.1,5.4-1.7,8.1c-0.3,1.4-0.4,2.7-0.3,4.1c0,1.3,0.1,2.5,0.3,3.8
			c-0.3-0.9-0.5-1.8-0.8-2.8c-0.3-0.9-0.3-2.1-0.6-3.1c-0.2-0.6-0.3-1.2-0.3-1.8c0.1-0.7,0.2-1.4,0.3-2.1c0.3-1.3-0.7-2.9-0.2-4.1
			c-0.3,0.8-0.6,1.7-0.7,2.5l-0.3-1.4c-0.1,1-0.1,1.9-0.2,2.8c-0.5,1.1-1.1,2.2-1.7,3.2c-0.3,0.5-0.5,1.1-0.7,1.6
			c-0.3,0.6-0.7,1-0.9,1.6c-0.1,0.2-0.1,0.3-0.2,0.5c-0.4-0.9-0.8-1.8-1.1-2.7c-0.2-0.5-0.4-1-0.7-1.5c-0.3-0.7-0.4-1.7-0.7-2.5
			c-0.1-0.4-0.3-0.8-0.5-1.2c0-0.4,0-0.9,0-1.3c0.1-1.4,0.1-2.9,0-4.3c-0.2,0.8-0.3,1.6-0.5,2.5c0,0.1-0.1,0.3-0.1,0.4l-0.2-0.8
			c-0.3-1.6-0.7-3.2-1-4.8c-0.2-1-0.3-2-0.3-3c2.9-3.2,6-6.3,9.3-9.1c-3.2,2.8-6.6,5.4-9.3,8.3c0-0.4,0-0.8-0.1-1.1
			c-0.1-1-0.1-2-0.1-3.1c0.9-0.9,1.9-1.7,2.8-2.6l-2.8,2.4c0-0.5,0-0.9,0-1.4l0,0c-0.1,0.6-0.3,1.2-0.4,1.8
			c-3.7,3.1-7.3,6.3-9.6,9.6c-1.3,1.9-2.3,4.1-2.8,6.3c-0.1-0.2-0.1-0.3-0.1-0.5c-0.2-0.9-0.4-1.7-0.5-2.6c-0.3-1.6-0.7-3.2-1-4.8
			c-0.2-1.7-0.4-3.4-0.5-5.1c-0.2-1.5-0.1-3.1-0.2-4.7l0,0c-0.6,2.6-1,5.3-1.2,8c-0.1,1.4,0,2.7-0.1,4c-0.1,1.3,0,2.7,0.1,4
			c0,0.5,0.1,1,0.2,1.4c-1.6-2.8-3.5-5.4-5.6-7.8c3.1,4,5.7,8.1,6.4,12.4c0.1,0.9,0.2,1.9,0.2,2.9c-0.4,0.4-0.7,0.9-1.1,1.4
			c-0.3,0.5-0.5,1-0.7,1.5h-0.1c0-0.1,0-0.1,0-0.2c0.1-0.7,0.1-1.4,0-2.1c0-0.1,0-0.2,0-0.3c-0.3-0.9-0.4-1.9-0.3-2.9
			c0-0.7,0.1-1.4,0.2-2.1l-0.1-2.6c-0.4,2-0.7,3.9-1,5.9c0,0.1,0,0.2-0.1,0.3l-0.4,0.5c0-0.4,0-0.9,0-1.3c-0.1-1.8-0.3-3.6-0.4-5.4
			c-0.3,1.7-0.6,3.5-0.8,5.2c-0.5-2.8-1.1-5.6-1.8-8.3c-0.3,0.2-0.5,1.3-0.6,1.7c-0.2,0.7-0.2,1.4-0.2,2.1c-0.3-1.3-0.5-2.6-0.9-3.8
			c-0.3,0.2-0.5,1.3-0.6,1.7c-0.1,0.2-0.1,0.4-0.1,0.5c-1.3-2-2.7-3.9-4.3-5.7c1.6,2,3,4.2,4.3,6.4c0,0.5,0,1-0.1,1.5
			c-0.1,0.9-0.1,1.8,0,2.7c0.1,1.1,0,2,0,3.1c0,0.2,0,0.3,0,0.5c-0.1-0.2-0.2-0.4-0.3-0.6l0.2-0.3c-0.1,0.1-0.2,0.2-0.2,0.3
			c-0.1-0.2-0.2-0.5-0.4-0.7c0.1,0.3,0.1,0.6,0.2,0.9l-0.2,0.3c-1.3-1.1-2.1-1.8-2.1-1.8l1.7,2.4l-0.5,0.7h-0.6
			c0-0.4-0.1-0.7-0.1-1.1c-0.2-0.7-0.3-1.3-0.5-2c0.1,1,0.2,1.9,0.3,2.9c0,0.1,0,0.1,0,0.2c0,0.1,0-0.1,0-0.2v0.2l0,0v-0.1
			c0,0,0,0,0,0.1h-0.2c0,0,0-0.1,0-0.1c-0.1-0.7-0.6-1.3-0.6-2c-0.1-0.6-0.3-1.2-0.5-1.7c-0.3-0.7-0.4-1.4-0.6-2.1s0.7,3.1,0.3,2.7
			c-0.3-0.6-0.6-1.2-0.8-1.9c-0.5-1.1-1.2-2-1.7-3.1c-0.6-1.6-1.9-2.6-2.6-4.1c0.6,1.5,1,3.1,1.1,4.7c-0.1-0.2-0.2-0.4-0.3-0.6
			c-0.7-1.5-1.9-2.6-2.6-4.1c0.7,1.7,1.1,3.4,1.2,5.2c0.2,1.9-0.5-0.3-0.4,1.6s0.3,4.1,0.2,6.2l-0.5,0.1c-0.2-1.3-0.4-2.9-0.6-3.6
			c1.1-4.9-0.9-9.9-7.7-12.8c0,0,12,5.7,6,15.7c-0.3-0.6-0.5-1.3-0.6-1.8l0.3-1.2c-0.1,0.4-0.2,0.8-0.3,1.2
			c-0.2-0.6-0.4-1.2-0.6-1.6c-0.8-2-1.2-3.2-1.2-3.2c0.6,2.3,0.9,4.4,1.4,6.4c0,0.1-0.1,0.3-0.1,0.5c-0.1,0.2-0.1,0.3-0.1,0.5
			c0,0,0,0,0,0.1c0,0.2-0.1,0.4-0.1,0.5c-0.3-1.3-0.5-2.5-0.8-3.8c0-0.2,0.1-0.4,0.1-0.6c0,0.2-0.1,0.4-0.1,0.5
			c-0.1-0.5-0.2-1.1-0.3-1.7c-0.1,0.9-0.4,1.7-0.6,2.6c-0.1,0.7-0.2,1.3-0.3,1.9c-0.3-1.5-0.6-3-0.8-4.5c-0.1,0.9-0.4,1.7-0.6,2.6
			c-0.1,1-0.3,1.9-0.5,2.8c-0.1,0.5-0.3,1-0.3,1.5l-0.4,0.1l-0.2-0.4c0.1-1,0.2-2,0.3-3.1c0-1.4,0-2.8,0.2-4.2
			c0.1-0.5,0.1-1.1,0-1.6c0-0.6,0.1-1.1,0.2-1.6c-0.8,1.9-1.4,3.8-2.1,5.8c0-0.8,0.1-1.7,0.2-2.5c0.1-0.5,0.1-1.1,0-1.6
			c0-0.1,0-0.2,0-0.3l0.6-0.1l-0.6,0.1c0-0.4,0.2-1,0.2-1.3c-0.2,0.5-0.4,0.9-0.5,1.4c-0.5,0.1-1.2,0.2-2.1,0.4c0-0.1,0-0.1-0.1-0.2
			V24l-1.6,0.3c-0.1-0.2-0.1-0.3-0.2-0.5c0,0.2,0,0.4,0.1,0.5l-1.1,0.2c3-3.2,8.3-5,9.7-5.4c-2.1,0.6-7.7,2.6-10.6,5.6
			c-1.8,0.4-3.9,1-6,1.6c0.1-1.2,0.2-2.4,0.4-3.5c0.3-1.3-0.7-2.9-0.2-4.1c-0.7,1.4-0.5,2.6-1.2,3.9c-0.2,0.3-0.3,0.6-0.5,1
			c0-0.3,0.1-0.5,0.1-0.8c0.3-1.3-0.7-2.9-0.2-4.1c-0.7,1.4-0.5,2.6-1.2,3.9c-0.4,0.7-0.7,1.5-1.1,2.1c0.3-2,0.1-4.1-0.6-6
			c-2.4-5.4-12.7-9.1-16-10.1c2.1,0.7,12.1,4,14.9,10.1c1.1,2.5,0.8,5.8,0,9.3l-0.2,0.3c-1.6,0.7-3.1,1.6-4.6,2.6
			c-0.1-0.4-0.1-0.8-0.1-1c-0.1-1-0.2-2-0.1-3.1c0-0.9-0.1-1.8,0-2.7c0.1-1,0.1-2,0-3.1c-0.1-0.8,0-1.7-0.2-2.5
			c-0.1-0.3-0.3-0.6-0.3-1s-0.1-0.8-0.3-1c-0.3,1.3-0.6,2.6-0.9,3.9c0-0.7-0.1-1.3-0.2-2c-0.1-0.3-0.3-0.6-0.3-1s-0.1-0.8-0.3-1
			c-0.7,2.7-1.1,5.4-1.7,8.1c0,0.1,0,0.2-0.1,0.3c0-0.5-0.1-1.1-0.2-1.6c-0.2-1.2-0.5-2.4-0.7-3.6c-0.1,1.8-0.3,3.6-0.4,5.4
			c0,0.8,0.1,1.6,0.1,2.4c0,0.1,0,0.1,0,0.2c0-0.3-0.1-0.7-0.2-1c-0.3-1.1-0.4-2.1-0.5-3.2c-0.2-1.2-0.4-2.4-0.7-3.6
			c-0.1,1.8-0.3,3.6-0.4,5.4c0,0.8,0.1,1.6,0.1,2.4c-0.1,0.8-0.1,1.6,0,2.4c0.1,0.2,0.1,0.5,0.1,0.7L67.1,30c-0.5-1-0.9-2-1.2-3
			c-0.2-0.5-0.4-1-0.7-1.5c-0.3-0.7-0.4-1.7-0.7-2.5c-0.3-0.7-0.5-1.4-0.7-2.1c-0.2-0.9-0.4-1.7-0.5-2.6c-0.3-1.6-0.7-3.2-1-4.8
			c-0.2-1.7-0.4-3.4-0.5-5.1c-0.2-1.5-0.1-3.1-0.2-4.7l0,0c-0.6,2.6-1,5.3-1.2,8c-0.1,1.4,0,2.7-0.1,4c-0.1,0.5-0.1,1-0.1,1.4
			c-0.3,0.6-0.7,1.1-1.1,1.7c-0.1,0.2-0.3,0.3-0.5,0.5c0,0.2,0,0.3,0,0.5c0.2,2.2,0.6,4.4,1.1,6.6c0,0.1,0,0.1,0,0.2
			c-0.8-0.4-1.5-0.8-2.1-1.3c0-0.4,0.1-0.9,0.1-1.4l-0.1-2.6c-0.2,1.1-0.4,2.3-0.6,3.4c-1.5-1.1-2.3-3-2-4.8
			c0.3-1.4,0.8-2.7,1.5-3.8c-1,1.1-1.6,2.4-2,3.8c-0.4,2.2,0.5,4.3,2.3,5.6c-0.1,0.6-0.2,1.3-0.3,1.9c-0.1,0.9-0.5,1.7-0.6,2.6
			l-0.1,0.6l-0.8-0.1c0.1-1.3,0-2.5-0.2-3.8c-0.5-2.8-1.1-5.6-1.8-8.4c-0.3,0.2-0.5,1.3-0.6,1.7c-0.2,0.9-0.3,1.9-0.3,2.8
			c-0.1,0.9-0.1,1.8,0,2.7c0.1,1.1,0,2,0,3.1c0,0.2,0,0.3,0,0.5c-0.2-0.4-0.5-0.9-0.7-1.3c0.2,0.6,0.3,1.2,0.4,1.8
			c0.1,0.3,0.2,0.6,0.3,0.9v0.1c-0.3,0-0.7,0-1.1,0c0,0,0-0.1-0.1-0.1c-0.4-0.9-0.9-1.7-1.3-2.6c0.2,0.6,0.3,1.2,0.4,1.8
			c0.1,0.4,0.2,0.7,0.4,1c-0.7,0.1-1.4,0.1-2.1,0.2l-0.2-0.3c0-0.4-0.1-0.8-0.2-1.3c-0.2-0.7-0.3-1.3-0.5-2c0.1,0.9,0.2,1.8,0.3,2.7
			c-0.2-0.6-0.5-1.2-0.7-1.9c0,0.1,0,0.2,0,0.3c0,0,0-0.1,0-0.1c-0.1-0.6-0.3-1.2-0.5-1.7c-0.3-0.7-0.4-1.4-0.6-2.1
			c-0.3-0.7,0.7,3.1,0.3,2.7c-0.3-0.6-0.6-1.2-0.8-1.9c-0.5-1.1-1.2-2-1.7-3.1c-0.7-1.6-1.9-2.6-2.6-4.2c0.7,1.7,1.1,3.4,1.2,5.2
			c0.2,1.9-0.5-0.3-0.4,1.6c0.1,2.2,0.3,4.6,0.2,6.9c0,0.2,0,0.4,0,0.6l-0.3,0.1c-0.3-1.8-0.8-5.6-0.9-5.4c-0.1,0.4-0.1,0.7-0.1,1.1
			c-0.1,0.6-0.2,1.1-0.2,1.7c0,0.1,0.1,0.5,0.1,0.9c0-0.7,0.1-1.4,0.2-2.1c0,0.7-0.1,1.4-0.2,2.1c0,0.3,0.1,0.7,0.1,1.1l0.1,0.7l0,0
			c0-0.2-0.1-0.5-0.1-0.8c-0.1-0.4-0.1-0.7-0.1-1.1c-0.6,2.6-2.3-2.4-2.7,0.3c-0.1,0.6,0,1.2-0.1,1.7c-0.1,0.5-0.2,1.3-0.3,1.9
			c0,0.1,0,0.2,0,0.3c-0.1,0.3-0.3,0.6-0.4,1c0-0.1-0.1-0.2-0.1-0.3c-0.3-0.8-0.5-1.7-0.6-2.5c-0.1-1,0-1.9,0.2-2.9
			c0.1-1,0.3-2,0.6-3c-0.4,1.4-0.7,2.9-1.1,4.3c-0.4-1.8-0.7-3.6-1.1-5.5c-0.1,0.9-0.4,1.7-0.6,2.6c-0.1,1-0.3,1.9-0.5,2.8
			c-0.3,0.9-0.4,2-0.7,2.9c-0.3,0.8-0.4,1.6-0.6,2.4c-0.1-3.4-0.5-6.7-1.1-10c0,0,0-0.1,0-0.1c0-0.4,0-0.8,0.1-1.2
			c0.1-0.5,0.1-1.1,0-1.6c0-0.4,0-0.8,0.1-1.3c0.3-0.3,0.6-0.6,0.8-0.9c1.5-1.7,2.5-2.8,2.5-2.8c-1.3,1.3-2.6,2.4-3.8,3.5
			c-0.1-3.3,0.8-6.6,2.4-9.5c2.6-4.5,7.3-8.5,11.7-12.6c-4.7,4.1-9.8,8-12.8,12.4c-2.2,3.4-3.4,7.4-3.3,11.5
			c-0.4,0.4-0.8,0.8-1.2,1.2c-0.2-0.5-0.4-1.1-0.6-1.6c0.1,0.5,0.2,1,0.2,1.5c0,0.3-0.1,0.5-0.1,0.8c-0.4,0.5-0.8,1-1.2,1.6
			c-1.4,2.5-1.8,5.3-1.3,8.1c0.1,0.8,0.3,1.6,0.4,2.4c-0.1,0.2-0.2,0.3-0.3,0.3c-0.1,0-0.6-0.8-0.7-0.9c-0.4-1.1-0.6-2.3-0.5-3.5
			c0-1.2,0.2-2.4,0.2-3.6c0-0.4-0.1-1-0.1-1.4c0-0.5-0.1-1.1-0.2-1.6c-0.3,1.5-0.7,2.9-1,4.4c-0.3-1-0.5-2-0.8-3
			c0.3,1,0.5,1.9,0.6,2.9c0.1,0.4,0.1,0.8,0,1.2c-0.1,0.5-0.3,0.9-0.4,1.4c-0.2,1-0.4,1.9-0.4,2.9c0.1,1.2-0.2,2.2-0.1,3.4
			c-0.3-0.6-0.5-1.2-0.7-1.8c-0.1-0.4-0.1-0.7-0.2-1c0,0,0-0.1,0-0.1c0.8-4.4,1.6-8.8,0.6-13c-1-4.2-4-8.3-7.4-12.3
			c3.1,4,5.7,8.1,6.4,12.4c0.7,4-0.4,8.2-1.5,12.4c-0.6-0.9-1.2-1.8-1.9-2.7c0-0.9,0.1-1.8,0.1-2.7c0-1.5,0.1-3.1,0.4-4.6
			c0.1-0.3,0.1-0.6,0.1-0.9c0-0.1,0.1-0.1,0.1-0.2l-0.1,0.2c0.1-1.1,0.2-2.3,0.4-3.4c0.3-1.3-0.7-2.9-0.2-4.1
			c-0.7,1.4-0.5,2.6-1.2,3.9c-0.6,1.1-1.1,2.2-1.7,3.2c-0.3,0.5-0.5,1.1-0.7,1.6c-0.3,0.6-0.7,1-0.9,1.6c-0.1,0.3-0.2,0.6-0.3,0.8
			c-1.4-1.4-2.8-2.7-4.4-3.9c1.4,2,2.7,3.8,3.8,5.5c-0.2,0.5-0.4,1-0.5,1.5c-0.1,0.7-0.6,1.1-0.6,1.8c-0.1,0.7-0.3,1.3-0.5,1.9
			c-0.2,0.7,0.4-2.6,0.2-1.9s-0.4,1.6-0.6,2.4c-0.1,0.6-0.2,1.3-0.3,2l0,0l0,0c0-0.2,0.4-8.7,0.2-8c-0.1,0.7-0.2,1.4-0.4,2.1
			c-0.1,0.3,0,0.6-0.2,0.9s-0.3,0.8-0.5,1.1c-0.1-0.4-0.3-0.7-0.5-1c-0.3-0.2-0.4-0.5-0.5-0.8c-0.1-0.3-0.2-0.3-0.3-0.6
			c-0.1-0.2-0.2-0.9-0.3-1C8,32,7.9,30.6,7.8,30.1c-0.1-1-0.2-2-0.1-3.1c0-0.9-0.1-1.8,0-2.7c0.1-1,0.1-2,0-3.1
			c-0.1-0.8,0-1.7-0.2-2.5c-0.1-0.3-0.3-0.6-0.3-1c-0.1-0.3-0.1-0.8-0.3-1c-0.7,2.7-1.1,5.4-1.7,8.1C4.9,26.2,4.8,27.6,5,29
			c0,1.3,0.1,2.5,0.3,3.8c-0.3-0.9-0.5-1.8-0.8-2.8c-0.3-0.9-0.3-2.1-0.6-3.1c-0.3-1.1-0.4-2.2-0.5-3.3c-0.2-1.2-0.5-2.4-0.7-3.6
			c-0.1,1.8-0.3,3.6-0.4,5.4c0,0.8,0.1,1.6,0.1,2.4c-0.1,0.8-0.1,1.6,0,2.4c0.2,0.7,0,1.3,0.1,2c0.1,0.7,0.1,1.3,0.3,1.9
			c0,0.1,0,0.2,0.1,0.3c-0.2-0.2-0.5-0.4-0.7-0.7c-2.8-2.9-3.2-6-4-8s-1.3-3.2-1.3-3.2c0.5,1.7,0.7,3.3,1.1,4.8
			c0-0.1-0.1-0.2-0.1-0.3c-0.2-0.5-0.4-1-0.7-1.5c-0.3-0.7-0.4-1.7-0.7-2.5c-0.3-0.7-0.5-1.4-0.7-2.1c-0.2-0.9-0.4-1.7-0.5-2.6
			c-0.3-1.6-0.7-3.2-1-4.8c-0.2-1.7-0.4-3.4-0.5-5.1c-0.2-1.5-0.1-3.1-0.2-4.7l0,0c-0.6,2.6-1,5.3-1.2,8c-0.1,1.4,0,2.7-0.1,4
			c-0.1,1.3,0,2.7,0.1,4c0.2,2.2,0.6,4.4,1.1,6.6c0.6,2.8,1.4,5.4,2,8.2c0.1,5.1-0.6,9.5-1,8.9c-0.4-0.6-2.1-8-2.4-9.7
			c-0.2-1.5-0.6-3-1.1-4.5v8.6c-0.5-0.3-0.9-0.7-1.3-1.1c-1.1-1.3-2.1-2.8-3.2-4.1c-0.5-0.7-1-1.5-1.3-2.3c-0.4-0.9-0.9-1.7-1.3-2.6
			c0.2,0.6,0.3,1.2,0.4,1.8c0.1,0.5,0.3,0.9,0.5,1.4c0.1,0.6,0.2,1.1,0.4,1.7c0.3,0.5,0.6,1,0.7,1.6c1,2.3,2.1,4.6,3.5,6.8
			c-0.8-1-1.8-1.7-2.7-2.5c-1.1-1.1-2.1-2.1-3.1-3.3c-1.8-2.2-3.2-4.6-4.3-7.2c0.1,1.3,0.4,2.6,0.7,3.9c0.2,0.5,0.3,1.1,0.4,1.6
			c0.1,0.6,0.5,1,0.6,1.6c0.4,1.2,0.8,2.4,1.4,3.6c0.2,0.6,0.6,1,0.9,1.6c0.2,0.6,0.5,1.2,0.9,1.7c0.5,0.9,1.1,1.7,1.8,2.5
			c0.9,1.1,1.8,2.1,2.8,3.2c0.7,0.7,1.4,1.4,2.2,2.1l0.1,0.1c0.2,0.5,0.3,1.1,0.6,1.5c0.2,0.4,0.4,0.7,0.5,1.1l-15.6-5.2
			c0.6,0.6,1.3,1.2,1.8,1.8c0.2,0.2,0.5,0.4,0.8,0.6c0.4,0.2,0.6,0.7,0.9,0.9l1,0.7l0.5,0.3c0.1,0.1,0.3,0.2,0.3,0.4
			c2.2,1.4,4.5,2.6,7,3.6l1.4,0.5c0.4,0.1,0.8,0,1.2,0.1c0.1,0.1,0.3,0.1,0.5,0l3.2-0.1h6.4c-0.2-0.1,42.1,0,55.4,0
			c0.3,0,0.7,0,1,0.1c0.1,0.1,0.3,0.1,0.5,0h1.1h0.1c0.1,0.1,0.3,0.1,0.5,0l3.2-0.1h10.5l0,0h11h34.1c0.1,0.2,0.3,0.4,0.4,0.6
			c0,0,4.4,0,4.4,0l0.6-0.6h0.7c0.2,0,0.3,0,0.5,0h0.2l0,0c0.1,0,0.2,0,0.2,0c0.1,0.1,0.3,0.1,0.5,0l3.2-0.1h10.3
			c0.3,0,0.6,0,0.9,0.1c0.1,0.1,0.3,0.1,0.5,0l3.2-0.1h6.4c0,0,3.4,0,8.7,0h31.7c0.3,0,0.7,0,1,0.1c0.1,0.1,0.3,0.1,0.5,0l3.2-0.1
			h10.5c0.3,0,0.6,0,0.9,0.1c0.1,0.1,0.3,0.1,0.5,0l3.2-0.1h12.2l0,0h2.9h35.7l0,0h0.3l0,0h6c0.3,0,0.6,0,1,0.1
			c0.1,0.1,0.3,0.1,0.5,0l3.2-0.1h8.7c0.3,0,0.6,0,0.9,0.1c0.1,0.1,0.3,0.1,0.5,0l3.2-0.1h6.4c-0.1,0,3.7,0,9.3,0h32.7
			c0.3,0,0.7,0,1,0.1c0.1,0.1,0.3,0.1,0.5,0l3.2-0.1h12.6l0,0h0.3l0,0h12.7l0,0h17.7l0.1,0.1c0,0,4.4,0,4.4,0c0,0,0.1-0.1,0.1-0.1
			h17.7v-0.3c0.2,0,0.3-0.1,0.5-0.2c0,0.2-0.1,0.4-0.3,0.5H416c0.3,0,0.6,0,1,0.1c0.1,0.1,0.3,0.1,0.5,0l3.2-0.1h4.4
			c0.3,0,0.6,0,0.9,0.1c0.1,0.1,0.3,0.1,0.5,0l3.2-0.1h6.4c-0.1,0,4.5,0,11.1,0h35.2c0.3,0,0.7,0,1,0.1c0.1,0.1,0.3,0.1,0.5,0
			l3.2-0.1h4.5c0.3,0,0.6,0,0.9,0.1c0.1,0.1,0.3,0.1,0.5,0l3.2-0.1h12.3l0,0h5.3h39.2h22v-0.6l2.9,0.1c0.1,0,0.3,0,0.5,0
			c0.4-0.2,0.8,0,1.2-0.1l1.4-0.5c2.4-1,4.8-2.2,6.9-3.6c0.1-0.2,0.2-0.3,0.3-0.4l0.5-0.3l1-0.7c0.3-0.2,0.5-0.7,0.9-0.9
			c0.3-0.1,0.5-0.3,0.8-0.6c0.6-0.6,1.2-1.2,1.8-1.8L577.4,51.7z M1.4,34.9c-0.1-0.2-0.2-0.3-0.3-0.5c0.6,0.6,1.2,1.2,1.9,1.8
			c0,0.1,0,0.2,0,0.2c0.2,0.7,0.4,1.4,0.6,2.2C3,37.3,2.3,36.1,1.4,34.9z M18.4,42.5c-0.1-0.5-0.2-1-0.3-1.5c-0.1-0.5-0.1-1-0.2-1.4
			l0.7,1.4C18.6,41.4,18.5,42,18.4,42.5z M27.6,35c0,0.1-0.1,0.1-0.1,0.2c-0.5-1.9-0.6-3.9-0.1-5.9c0.2-0.6,0.5-1.2,0.8-1.8
			c0.1,1.2,0.2,2.4,0.1,3.6c0,0.7,0,1.3,0.1,1.9C28.2,33.8,27.9,34.4,27.6,35L27.6,35z M29.9,29.1c-0.3-0.9-0.6-1.8-0.9-2.7
			c0.3-0.4,0.5-0.7,0.8-1.1c0,0.4,0,0.7,0,1.1c0,0.8,0.1,1.6,0.2,2.4L29.9,29.1z M31.7,23.2l0.4-0.4c-0.1,0.3-0.2,0.6-0.4,0.9
			C31.8,23.5,31.7,23.4,31.7,23.2L31.7,23.2z M37.9,39.9c0-0.2,0-0.4,0-0.7c0,0,0-0.1,0-0.1C37.9,39.4,37.9,39.6,37.9,39.9z
			 M41.3,32.8L41.3,32.8c0.1,0.4,0.2,0.8,0.2,1.2C41.6,34.4,41.5,33.7,41.3,32.8z M42.3,33.1c0,0.1-0.1-0.1-0.1-0.6h0.2L42.3,33.1z
			 M51.9,33.8c-0.2,0.1-0.1,0.6-0.2,0.8c0,0.1-0.1,0.2-0.2,0.3c-1-1.2-1.8-2.4-2.6-3.8C49.7,31,50.3,31,51,31c0.1,0.5,0.2,1,0.4,1.5
			c0.2,0.3,0.4,0.7,0.6,1.1C52,33.7,52,33.8,51.9,33.8z M52.4,32.2c-0.2-0.4-0.5-0.8-0.6-1.2h0.7c0,0.1,0,0.3,0,0.4
			C52.5,31.7,52.4,31.9,52.4,32.2z M55.9,31.2c0,0.1-0.3,1-0.3,0.8c-0.1,0.6-0.2,1.1-0.4,1.7l-0.1-0.1c0.1-0.8,0.1-1.7,0.1-2.6
			l0.7,0.1L55.9,31.2z M58.9,36.2l-0.1,0.1c-0.2-1.1-0.4-2-0.5-2.5c-0.1-0.5-0.2-1.2-0.4-2c0-0.1,0-0.3,0.1-0.4s0-0.1,0-0.1
			c0.3,0,0.6,0.1,0.9,0.1L58.9,36.2z M59.5,30.9c-0.1-0.5-0.3-1.1-0.5-1.6v1.5l-0.9-0.1c0-0.5-0.1-1.1-0.1-1.5c0-0.1,0-0.2,0-0.3
			c-0.3-0.9-0.4-1.9-0.3-2.9V26c0.6,0.4,1.1,0.7,1.7,1l0.6,0.3c0.3,1.3,0.6,2.5,0.9,3.8C60.5,31.1,60,31,59.5,30.9L59.5,30.9z
			 M60.4,33.2l-0.3,0.6c0,0,0-0.1,0-0.1c-0.1-0.4-0.3-1.4-0.5-2.3l1.5,0.3c0.2,0.9,0.5,1.8,0.6,2.8C61.3,34.1,60.9,33.7,60.4,33.2z
			 M68.8,33.2c-0.3-0.7-0.7-1.3-1.1-2l-0.2-0.3l1.3,0.6c0,0.2,0,0.4,0.1,0.7c0.1,0.4,0.1,0.8,0.2,1.1L68.8,33.2z M69.1,34L69.1,34
			c0,0,0,0.1,0,0.1l0,0C69.1,34.1,69.1,34.1,69.1,34L69.1,34z M79.8,31.3c-0.2,0.4-0.3,0.8-0.5,1.2c0-0.7,0-1.1,0-1
			c-0.1,0.7-0.2,1.4-0.4,2.1c-0.1,0.2-0.1,0.4-0.1,0.6c-0.1,0.2-0.2,0.5-0.3,0.8c0,0.1-0.1,0.2-0.1,0.3l-0.2-0.1c0-0.2,0-0.2,0-0.1
			l0,0l-0.2-0.1c-0.1-0.2-0.2-0.3-0.3-0.4c-0.1,0-0.1-0.1-0.2-0.1c0.1-1,0.1-2,0-3c-0.1,0.7-0.2,1.4-0.4,2.1c0,0,0,0,0,0.1
			c-0.1-0.1-0.2-0.2-0.3-0.4c-0.1-0.2-0.2-0.9-0.3-1c-0.1,0-0.1-0.1-0.2-0.1c1.2-1,2.5-1.8,3.8-2.5C80.1,30.2,80,30.7,79.8,31.3
			L79.8,31.3z M90.9,34.7v-0.1C91,34.6,91,34.6,90.9,34.7z M90.4,29c-0.2,0.9-0.4,1.8-0.6,2.7c-0.3-1-0.5-2-0.8-3
			c0.3,1,0.5,1.9,0.6,2.9c0.1,0.4,0.1,0.8,0,1.2c-0.1,0.5-0.3,0.9-0.4,1.4c-0.2,1-0.4,1.9-0.4,2.9v0.1c-0.2,0.3-0.3,0.7-0.4,1
			L88,38.6c-0.1-0.5-0.2-1-0.5-1.5c-0.3-0.5-0.7,0.8-1.2,2.5l-0.3-0.2c0-0.4-0.1-0.7-0.1-1.1c-0.1-0.8-0.1-0.6-0.1-0.5
			c0,0.1,0-0.2,0-0.6c-0.1-1.8,0-3.6,0.1-5.4c0-1.5,0.1-3.1,0.4-4.6V27c1.7-0.6,3.6-1.2,5.6-1.8c-0.4,0.5-0.8,1-1.1,1.6
			C90.6,27.5,90.4,28.2,90.4,29z M91.3,31c0,0.2,0.1,0.4,0.1,0.6s0,0.2,0,0.3C91.4,31.6,91.3,31.3,91.3,31L91.3,31z M93,37.1
			c0-0.1,0-0.2-0.1-0.3l0.3-0.1C93.1,36.8,93.1,37,93,37.1L93,37.1z M94.1,35c-0.1,0.2-0.2,0.4-0.2,0.6l-1.1,0.5
			c-0.1-0.7-0.2-1.5-0.2-2.2c0-1.2,0.2-2.4,0.2-3.6c0-0.4-0.1-1-0.1-1.4c0-0.5-0.1-1.1-0.2-1.6c-0.3,1.5-0.7,2.9-1,4.4l-0.3-1.1
			c-0.1-1.3,0.1-2.5,0.5-3.7c0.3-0.7,0.7-1.3,1.2-1.9l1.5-0.4c0,0.2,0.1,0.4,0.1,0.7s-0.1,0.5-0.1,0.8c0,0.3,0.1,0.7,0.1,1
			c0.1,1.4,0.2,2.8,0.2,4.2c0,0.7,0,1.3,0.1,1.9L94.1,35z M96.3,29.1c-0.5-1.6-1.1-3.1-1.6-4.6l1.5-0.4c0,0.4,0.1,0.7,0.2,1.1
			c0,0.3-0.1,0.5-0.1,0.8c0,0.3,0.1,0.7,0.1,1c0,0.6,0.1,1.1,0.1,1.7L96.3,29.1z M97.3,26.1C97,25.4,96.9,25,96.9,25
			c0.1,0.4,0.2,0.9,0.3,1.3c0,0.1,0,0.2-0.1,0.2c-0.3-0.8-0.6-1.6-0.9-2.4l2-0.4C97.9,24.5,97.6,25.3,97.3,26.1L97.3,26.1z
			 M106.5,30.9c0,0.1,0,0.2,0,0.2V30.9l0.1-0.4C106.6,30.7,106.5,30.8,106.5,30.9z M106.8,30.2c0.3-0.6,0.6-1.3,0.8-2
			c-0.1,0.5-0.2,0.9-0.2,1.4c0,0.1,0,0.4,0.1,0.8C107.2,30.2,107,30,106.8,30.2z M107.5,30.5L107.5,30.5c0-0.7,0.1-1.3,0.2-2
			C107.7,29.2,107.6,29.8,107.5,30.5z M116.5,31.6c-0.1-0.2-0.2-0.5-0.2-0.7c0,0,0-0.1,0-0.1h0.2c0,0.2,0.1,0.5,0.1,0.7
			C116.6,31.6,116.6,31.5,116.5,31.6L116.5,31.6z M118.4,28.7c0,0.2,0.1,0.3,0.1,0.5l-0.2-0.3C118.4,28.9,118.4,28.8,118.4,28.7
			L118.4,28.7z M117.9,29.7l0.4,0.6h-0.7C117.8,30,117.8,29.9,117.9,29.7L117.9,29.7z M116.8,31.1c0-0.1,0-0.2,0-0.4h0.3L116.8,31.1
			z M118.3,33.9c-0.2,0.1-0.1,0.6-0.2,0.8c0,0.1-0.1,0.2-0.2,0.3c-0.1-0.2-0.3-0.3-0.4-0.5c-0.1-0.3-0.1-0.6-0.2-1
			c-0.1-0.4-0.1-0.7-0.2-1.1c0.1-0.6,0.3-1.1,0.4-1.6c0.4,0,0.8,0,1.1,0l0.2,0.3c0,0.1,0,0.2,0,0.4
			C118.9,32.3,118.7,33.1,118.3,33.9L118.3,33.9z M124.4,29.4L124.4,29.4c0-0.2,0-0.4,0-0.5c0.1-0.3,0.2-0.6,0.4-0.9
			C124.7,28.4,124.5,28.9,124.4,29.4L124.4,29.4z M127.8,31.6l-0.2,0.5l0,0c0-0.1,0-0.1,0-0.2c0.1-0.2,0.2-0.5,0.3-0.7
			C127.8,31.3,127.7,31.5,127.8,31.6L127.8,31.6z M133.3,29.5l-0.2-0.4c0-0.2,0.1-0.4,0.1-0.6s0-0.2,0.1-0.4c0.1,0.3,0.1,0.6,0.2,1
			C133.4,29.1,133.3,29.3,133.3,29.5L133.3,29.5z M134.2,31.3l-0.1-0.1l0.1-0.2c0,0,0,0,0,0.1c0.1,0.2,0.1,0.4,0.1,0.6L134.2,31.3z
			 M136.2,30.5c-0.3,0.5-0.6,1-0.9,1.5c-0.2-0.5-0.5-1-0.7-1.5c-0.1-0.1-0.1-0.2-0.2-0.4c0.5-1.3,1.2-2.6,2.1-3.6c0,0.4,0,0.7,0,1.1
			c0,0.7,0.1,1.4,0.1,2.1C136.5,29.9,136.3,30.1,136.2,30.5L136.2,30.5z M139.3,31.1c-0.1-0.3-0.1-0.7-0.2-1l0.4-1.3
			c0,0.1,0,0.2,0,0.3c0,0.5,0,1.1,0.1,1.6C139.5,30.7,139.4,30.9,139.3,31.1L139.3,31.1z M139.8,23.3c-0.4,0.8-0.7,1.7-1.1,2.6
			l-0.1,0.1c0-0.6-0.1-1.2-0.1-1.8c0.5-0.5,0.9-1,1.3-1.4l0.2-0.2C140,22.8,139.9,23.1,139.8,23.3L139.8,23.3z M140.1,23.3v-0.8
			l0.2-0.3L140.1,23.3z M141.8,15.8c0,0.5,0,0.9,0,1.4c0-0.1-0.1-0.3-0.2-0.4c-0.4,1.6-0.7,3.2-1.1,4.8l-1.9,1.7
			c-0.1-3.3,0.8-6.6,2.4-9.5c0.3-0.5,0.6-0.9,0.9-1.4C141.8,13.6,141.9,14.7,141.8,15.8L141.8,15.8z M142.4,25.7c0-0.4,0-0.8,0-1.3
			c0-0.2,0-0.5,0.1-0.7c0.1,0.4,0.2,0.9,0.2,1.3L142.4,25.7z M142,11.1c-0.8,0.8-1.5,1.7-2.1,2.6c-1.3,1.9-2.2,4.1-2.7,6.3
			c0,0,0,0,0-0.1c0-0.1,0,0.1,0,0.2c-0.4,1.7-0.6,3.4-0.6,5.1c-1.1,1-2.1,2.2-2.9,3.4l0,0c-0.1-0.2-0.2-0.5-0.4-0.7
			c0.3-1.6,0.6-3.2,0.9-4.9c0.9-1.1,1.5-1.7,1.5-1.7c-0.5,0.5-0.9,0.9-1.4,1.4c0.1-0.4,0.1-0.9,0.2-1.3s0-1,0.1-1.5
			c-0.4,1.7-1.2,3.2-2.2,4.6l-0.4,0.4c0-3.3,0.8-6.6,2.4-9.5c1.9-3.3,5.1-6.4,8.4-9.5C142.3,7.6,142.1,9.3,142,11.1z M144.7,35.7
			c-0.1-0.4-0.3-0.7-0.5-1c-0.3-0.2-0.4-0.5-0.5-0.8c-0.1-0.3-0.2-0.3-0.3-0.6c-0.1-0.1-0.1-0.2-0.1-0.4l0.6-1.5
			c0.1-0.3,0.2-0.5,0.2-0.8c0.3,1.3,0.7,2.7,1,4c0,0.1,0,0.3,0,0.4L144.7,35.7z M152.2,36.8c0-1,0-1.9,0-2.9v0.2
			c0.2,0.8,0.2,1.6,0.3,2.3c0.2,0.8,0.4,1.4,0.6,2.2C152.9,38,152.5,37.4,152.2,36.8L152.2,36.8z M157.4,30.2
			c-0.1-0.4-0.1-0.8-0.1-1.2c0.2,0.9,0.4,1.8,0.5,2.7c0,0.2,0,0.4,0,0.6C157.6,31.6,157.4,30.9,157.4,30.2L157.4,30.2z M186.5,33.8
			L186.5,33.8L186.5,33.8c0-0.2-0.1-0.5-0.1-0.7c0.1,0.2,0.2,0.4,0.2,0.6L186.5,33.8z M187,31.6L187,31.6c0,0.1,0,0.1,0,0.2l0,0
			c0,0.1,0,0.3,0,0.5l0,0c-0.2-0.3-0.4-0.6-0.5-1c0-0.4,0.1-0.7,0.2-1.1c0.1-0.9,0.3-1.7,0.5-2.5c0,0.3,0,0.7,0,1.1
			c0,0.5,0.1,1.1,0.1,1.6s-0.1,0.8-0.1,1.2L187,31.6z M202,25.1v0.4c0,0.1,0,0.1,0,0.2h-0.2C201.9,25.6,201.9,25.4,202,25.1
			L202,25.1z M200.6,31.4C200.6,31.4,200.6,31.3,200.6,31.4c0,0,0,0,0,0.1V31.4z M201.9,32.2c-0.3-0.6-0.7-1.2-0.9-1.8l-0.1-0.1
			c0.2-0.6,0.3-1.2,0.4-1.9c0.1-0.6,0.3-1.3,0.4-2.1h0.3c0,0.8,0,1.6,0,2.4c0,0.5,0.1,1.1,0.1,1.6c0,0.5-0.1,0.8-0.1,1.2
			C202,31.7,201.9,31.9,201.9,32.2L201.9,32.2z M205.9,27.9l-0.3,0.8c-0.1,0.2-0.2,0.4-0.4,0.6c-0.1-0.8-0.2-1.6-0.4-2.3
			c-0.1-0.3-0.2-0.7-0.2-1c0.5,0,1-0.1,1.5-0.1C206,26.5,205.9,27.2,205.9,27.9L205.9,27.9z M210.8,34.1c0.1-0.2,0.2-0.4,0.2-0.6
			c0.1,0.3,0.2,0.7,0.2,1C211.1,34.4,211,34.3,210.8,34.1L210.8,34.1z M212.1,22.1c-0.1-0.3-0.3-0.7-0.4-1.1
			c-0.1-0.4-0.2-0.9-0.3-1.3c0.4,0.4,0.7,0.7,1.2,1C212.5,21.2,212.3,21.7,212.1,22.1L212.1,22.1z M215.9,27.6
			c-0.3,0.6-0.7,1-0.9,1.6c-0.1,0.2-0.1,0.3-0.2,0.5c-0.4-0.9-0.8-1.8-1.1-2.7c-0.1-0.3-0.2-0.6-0.4-0.9c1,0.1,1.9,0.3,2.9,0.4
			C216.1,26.9,216,27.3,215.9,27.6L215.9,27.6z M216.6,26L216.6,26c-1.1-0.1-2.3-0.3-3.4-0.4c0.1-0.5,0.2-1,0.2-1.6
			c0-0.5,0.1-1,0.2-1.5c0.1-0.4,0.1-0.7,0.1-1.1c0.3,0.2,0.6,0.3,0.9,0.5c0.9,0.5,2.1,1,3.4,1.6C217.6,24.4,217.1,25.2,216.6,26
			L216.6,26z M219.5,25.7c0.1-0.4,0.2-0.9,0.3-1.3l1.4,0.6c-0.1,0.7-0.2,1.4-0.2,2.1l-1.2-0.3C219.6,26.4,219.5,26.1,219.5,25.7
			L219.5,25.7z M220.4,30.1c-0.2-0.8-0.3-1.7-0.5-2.6l1,0.3c0,0.4,0,0.9,0,1.3c0,0.4,0,1.2,0.1,1.7h-0.4
			C220.5,30.5,220.4,30.3,220.4,30.1L220.4,30.1z M220.7,31.4h0.3c0,0.5,0.1,1,0.2,1.4C221,32.3,220.8,31.9,220.7,31.4L220.7,31.4z
			 M221.3,24.4l-1.2-0.5H220c0.6-1.9,1.5-3.6,2.5-5.3C222,20.5,221.7,22.5,221.3,24.4L221.3,24.4z M229.3,30v0.1h-0.1L229.3,30z
			 M224,30.9c-0.1-0.1-0.1-0.3-0.2-0.4c-0.1-0.1,0-0.3-0.1-0.3c-0.1-0.4-0.1-0.8-0.2-1.2C223.8,29.6,224,30.3,224,30.9L224,30.9z
			 M224.5,31l-0.3-0.1l-0.6-2v-0.3l1.3,0.5C224.8,29.7,224.7,30.3,224.5,31L224.5,31z M226,35.7l-0.2-0.4l0.6-1v0.3
			C226.3,34.9,226.2,35.3,226,35.7L226,35.7z M225.5,32.7l0.1-0.8l0.6,0.1L225.5,32.7z M227.1,37.5c0,0.1,0,0.3-0.1,0.4
			c-0.1,0.1-0.1,0.2-0.2,0.2c0-0.5,0-1.1,0.1-1.8c0.1,0.2,0.2,0.4,0.3,0.6C227.2,37.2,227.2,37.4,227.1,37.5z M226.8,31.4
			L226.8,31.4l-1.1-0.3c0-0.3,0-0.6,0-0.9s0-0.7-0.1-1l1.2,0.5l0.5,0.2C227.1,30.4,226.9,30.9,226.8,31.4L226.8,31.4z M227.4,29.4
			c-0.6-0.3-1.2-0.5-1.8-0.7c0-0.4-0.1-0.9-0.2-1.3c-0.1,0.4-0.2,0.8-0.3,1.1l-1.4-0.5v-0.9c0-0.3,0-0.6,0-0.9
			c1.5,0.7,3.1,1.5,4.7,2.3c-0.3,0.3-0.5,0.7-0.8,1.1L227.4,29.4z M228.6,33.2c-0.1,0.7-0.6,1.1-0.6,1.8c0,0.1,0,0.2,0,0.3
			c-0.2-0.9-0.2-1.9-0.1-2.8l0.8,0.3C228.7,33,228.6,33.1,228.6,33.2z M229.3,31.3c-0.1,0.3-0.3,0.6-0.4,0.9
			c-0.3-0.1-0.6-0.2-0.8-0.3l0,0l0.8-1.1l0.5,0.2C229.3,31,229.3,31.1,229.3,31.3C229.3,31.2,229.3,31.3,229.3,31.3L229.3,31.3z
			 M230.7,27.9l-0.2,0.1l0,0l0.3-0.3L230.7,27.9z M233.7,31.9v-0.1v-0.7l0.2,0.1C233.8,31.5,233.7,31.7,233.7,31.9L233.7,31.9z
			 M234.1,30.4c-0.1-0.1-0.2-0.1-0.4-0.2c0-1,0.2-2,0.3-3c0.1-0.7,0.2-1.4,0.3-2.1c0.5-0.3,0.9-0.5,1.4-0.8
			C235.3,26.4,234.7,28.5,234.1,30.4L234.1,30.4z M238.7,34.3c0,0.1-0.1,0.3-0.1,0.5l-0.2,0.2l-0.4-0.3c-0.1-0.4-0.2-0.7-0.2-1.1
			l0.9,0.6C238.8,34.2,238.8,34.3,238.7,34.3L238.7,34.3z M242.4,33.8c-0.1-0.4-0.2-1.3-0.3-2.1c-0.1-0.4-0.1-0.7-0.1-1.1
			c0,0.2-0.1,0.4-0.2,0.6c0.1-0.2,0.1-0.4,0.2-0.7l0,0l0,0l0.1-0.3c0,0.1,0,0.2-0.1,0.4c0,0.3,0.1,0.7,0.1,1.1
			C242.3,32.4,242.4,33.1,242.4,33.8L242.4,33.8z M243.4,31.5c0,0.5-0.1,1.1-0.1,1.5c0,0.3-0.4-2.8-0.7-4.7c0.2-1.1,0.4-2.1,0.7-3.3
			C243.4,27.2,243.5,29.4,243.4,31.5L243.4,31.5z M243.2,24.7v0.1c-0.2,0.5-0.5,1.3-0.9,2.3c0-0.1-0.1-0.2-0.1-0.2
			c0,0.2-0.1,0.3-0.1,0.5c-0.4,1-0.7,2.3-1.3,3.7c-0.1-0.1-0.2-0.2-0.3-0.3c0-0.1,0-0.3,0-0.4c0-0.4-0.1-1-0.1-1.4
			c0-0.5-0.1-1.1-0.2-1.6c-0.2,1-0.4,1.9-0.7,2.9c-0.1,0.1-0.2,0.3-0.3,0.8c0,0.2,0,0.4-0.1,0.5c-0.2-0.9-0.5-1.8-0.7-2.8
			c0.3,1,0.5,1.9,0.6,2.9c0.1,0.4,0.1,0.8,0,1.2c0,0.1,0,0.1,0,0.2c-0.5-0.3-0.9-0.5-1.4-0.8c0-0.7,0.2-1.4,0.3-2.1
			c0.1-1,0.3-2,0.6-3c-0.4,1.4-0.7,2.9-1.1,4.3c-0.3-1.6-0.6-3.1-0.9-4.7c0.2-1.1,0.5-2.2,0.7-3.3c2-0.9,4-1.7,6-2.3
			c0.1,0.6,0.2,1.3,0.3,1.9C243.8,25,243.1,22.7,243.2,24.7z M245.6,23.3c-0.3-0.4-0.5-0.9-0.7-1.3c-0.2-0.4-0.3-0.7-0.6-1.1
			c0.9-0.3,1.8-0.5,2.7-0.8c-0.4,0.5-0.8,1-1.1,1.6C245.8,22.2,245.7,22.7,245.6,23.3L245.6,23.3z M249.3,31.3c0,0,0-0.1,0-0.1
			l0.2-0.1c0,0,0,0.1,0,0.1L249.3,31.3z M249.5,32.1c0-0.1,0-0.1,0-0.2l0,0C249.6,32.2,249.6,32.3,249.5,32.1L249.5,32.1z
			 M249.6,30.9l0.3-0.1C249.8,30.9,249.7,30.9,249.6,30.9C249.6,31,249.6,31,249.6,30.9L249.6,30.9z M250.3,31.5
			c-0.1,0.4-0.2,0.7-0.3,1.1c-0.1-0.3-0.2-0.6-0.2-1c0.2-0.2,0.4-0.3,0.6-0.5L250.3,31.5z M253.5,27.7c0,0.3,0,0.6,0,0.9l-0.3,0.1
			L253.5,27.7L253.5,27.7z M253.4,27.8c-0.1,0.3-0.2,0.6-0.2,1l-0.5,0.2C252.9,28.6,253.2,28.2,253.4,27.8L253.4,27.8z M252.1,29.9
			l0.7-0.3l0.2-0.1l-0.5,2.1C252.3,31,252.2,30.4,252.1,29.9L252.1,29.9z M252.9,33.8C252.9,33.8,252.9,33.8,252.9,33.8l0.1-0.2
			C253,33.7,252.9,33.8,252.9,33.8L252.9,33.8z M253.3,32.2l-0.6,0.3c0-0.8,0.1-1.6,0.2-2.4c0-0.2,0-0.5,0.1-0.7l0.4-0.2
			c0,0.3,0,0.6,0,0.9c0,0.3-0.1,0.8-0.1,1.2C253.4,31.7,253.4,31.9,253.3,32.2L253.3,32.2z M256.6,31.5l0.2-0.1
			C256.7,31.4,256.7,31.4,256.6,31.5L256.6,31.5z M256.3,30.5c0-0.7,0-1.5,0-2.2l0.5-0.2l0.2,1.2c0,0.1,0,0.2,0,0.4
			c0,0.1,0,0.2,0,0.3C256.7,30.1,256.5,30.3,256.3,30.5L256.3,30.5z M257.1,28c0,0.2,0,0.3-0.1,0.5c-0.1-0.2-0.1-0.3-0.2-0.5
			L257.1,28L257.1,28z M257.2,28.9L257.2,28.9c0-0.2,0-0.3,0.1-0.4C257.2,28.6,257.2,28.8,257.2,28.9L257.2,28.9z M257.5,28.3
			c0-0.2-0.1-0.3-0.1-0.5l0.2-0.1C257.6,28,257.5,28.2,257.5,28.3L257.5,28.3z M261.8,25.4c0.1-0.3,0.2-0.5,0.4-0.8
			c0.1,0.4,0.2,0.9,0.3,1.4l-0.4,0.1C261.9,25.8,261.8,25.6,261.8,25.4L261.8,25.4z M262.5,27c-0.1-0.1-0.2-0.2-0.2-0.4l0.3-0.1
			C262.5,26.8,262.5,27.1,262.5,27L262.5,27z M265.3,26.3c-0.3,0.3-0.7,0.5-1.1,0.7c0,0.2-0.1,0.3-0.2,0.5l-0.1-0.3c0-0.2,0,0,0,0.4
			l0,0c-0.2,0.3-0.3,0.7-0.5,1c-0.1-0.2-0.1-0.3-0.1-0.5c-0.1-0.5-0.2-1.1-0.5-1.6c0.9-0.2,1.8-0.3,2.7-0.5L265.3,26.3z M268.3,32.2
			c0,0.6-0.2,1.1-0.5,1.6c-0.1,0.1-0.1,0.4-0.2,0.6l0,0c-0.4,0.5-0.8,1-1.4,1.4l-0.2-0.3c0.3-1.3,0.6-2.6,0.9-3.9
			c0.5-0.4,0.9-0.8,1.4-1.2V32.2z M268.4,29.6c0-0.1-0.1-0.2-0.1-0.3v0.4c-0.3,0.3-0.7,0.6-1.1,0.9c0.2-0.8,0.4-1.5,0.5-2.3
			c0.2-0.8,0.4-1.8,0.5-2.7h0.1c0.1,1,0,1.9,0,2.9C268.4,28.9,268.4,29.3,268.4,29.6L268.4,29.6z M271.3,29.6c0-0.7,0-1.4-0.1-2.1
			c0.1,0.6,0.3,1.1,0.4,1.7L271.3,29.6z M275.6,28c-0.1-0.3-0.2-0.7-0.3-1c-0.2-0.5-0.4-0.9-0.6-1.4c0.7,0.1,1.4,0.1,2.1,0.2
			L275.6,28z M279.4,26.8c0-0.1,0.1-0.3,0.1-0.4l0.3,0.1c0,0.1,0,0.1,0,0.2C279.6,26.7,279.5,26.8,279.4,26.8z M279.7,25.3
			c0,0.2,0,0.5,0,0.7h-0.2c0.1-0.5,0.1-0.9,0.2-1.4C279.7,24.8,279.7,25.1,279.7,25.3L279.7,25.3z M282.1,30.9
			c0.1-0.5,0.2-1,0.3-1.4c0,1.1,0.1,2.3,0.2,3.4C282.5,32.2,282.3,31.5,282.1,30.9L282.1,30.9z M309.7,35.7
			c-0.3-0.6-0.5-1.3-0.5-1.9c0-1.3,0.3-2.7,0.3-4.1c0-0.6,0-1.2,0-1.8c0.2,0.4,0.4,0.8,0.5,1.2C310.6,31.1,310.2,33.3,309.7,35.7
			L309.7,35.7z M315,28.6c-0.2,0.7-0.3,1.3-0.4,2l0.1-0.5c0.1-0.7,0.2-1.4,0.4-2.1V28.6z M315.5,34.6c-0.1,0.4,0,0.9,0,1.3
			c-0.1-0.7-0.1-1.3-0.1-2c0-0.1,0-0.2,0-0.3C315.4,33.9,315.5,34.2,315.5,34.6C315.5,34.5,315.5,34.6,315.5,34.6L315.5,34.6z
			 M319.8,24.7c0,0.6,0.1,1.3,0.1,1.9c-0.3-1-0.7-1.9-1.1-2.8c0.1,0.5,0.2,1,0.2,1.5c0,0.2,0,0.4-0.1,0.6c-0.1-0.1-0.2-0.2-0.3-0.3
			l0.3,0.3c0,0.1,0,0.2,0,0.2c0,0.3,0.1,0.7,0.1,1c0.1,0.5,0.1,1.1,0.1,1.6c0-0.6-0.2-1.2-0.4-1.8c-0.1,0.3,0,0.8-0.1,1.1
			c-0.1,0.5-0.2,1.1-0.2,1.6c0,0.1,0.1,0.5,0.1,0.9c0-0.7,0.1-1.4,0.2-2.1c0,0.7-0.1,1.4-0.2,2.1c0,0.3,0.1,0.7,0.1,1.1
			c0.1,0.7,0.2,1.3,0.3,2v0.1c-0.1-0.4-0.2-1.3-0.3-2.1c-0.1-0.3-0.1-0.7-0.1-1.1c-0.4,1.9-1.5-0.3-2.1-0.5c-0.3-1.8-0.3-3.7,0-5.6
			c0.4-2.4,1.3-4.7,2.5-6.7c0.6,1.7,1.1,3.4,1.2,5.2C320.3,25,319.7,22.7,319.8,24.7L319.8,24.7z M325.6,30.1L325.6,30.1
			c0-0.1,0-0.3-0.1-0.4l0.2-0.3L325.6,30.1z M328.8,34.6c0,0.2,0,0.5,0,0.7c-0.1,0.3-0.1,0.6-0.4,0.8c0-0.2-0.1-0.4-0.2-0.6
			c-0.3-0.8-0.5-1.7-0.6-2.5c-0.1-1,0-1.9,0.2-2.9c0-0.3,0.1-0.5,0.1-0.8c0,0,0,0.1,0,0.1c0.2,0.5,0.3,0.9,0.5,1.4
			c0.1,0.5,0.2,1.1,0.5,1.6l0.1,0.2C329,33.3,328.9,34,328.8,34.6L328.8,34.6z M343.3,30.9l-0.2-0.4h0.2
			C343.3,30.6,343.3,30.7,343.3,30.9L343.3,30.9z M346.1,29.6v0.1l0,0V29.6z M345.9,34.3c0.2-1.1,0.2-2.3,0.2-3.4c0-0.2,0-0.5,0-0.7
			h0.1c0.2,0.6,0,1.3,0.1,1.9c0,0.1,0,0.2,0.1,0.3C346.3,33.1,346.1,33.7,345.9,34.3L345.9,34.3z M348.8,28.2c0,0.3,0,0.5,0,0.8v0.7
			h-0.1c0-0.2,0-0.3,0-0.5C348.8,28.9,348.8,28.5,348.8,28.2L348.8,28.2z M348.8,31.7c0-0.1,0-0.2,0-0.3c0.1-0.4,0.1-0.8,0-1.2l0,0
			c0,0.9,0.1,1.7,0.2,2.6C349,32.5,348.9,32.1,348.8,31.7L348.8,31.7z M352.1,31.5l-0.1,0.3c-0.1-0.4-0.2-0.9-0.2-1.3l0.8,0.1
			C352.5,30.9,352.3,31.2,352.1,31.5L352.1,31.5z M353.7,27.6c-0.4,0.8-0.7,1.6-1,2.4c-0.4,0-0.7-0.1-1.1-0.1
			c-0.1-0.9-0.1-1.8,0-2.8c0-0.9-0.1-1.8,0-2.7c0.7,0.7,1.6,1.3,2.5,1.7C354.1,26.6,354,27.1,353.7,27.6L353.7,27.6z M355.8,36
			L355.8,36c0.1-0.3,0.1-0.6,0.2-0.9C356,35.4,355.9,35.7,355.8,36z M356.6,33.3c-0.1,0.5-0.3,0.9-0.5,1.3c0.3-1.1,0.6-2.2,0.8-3.4
			l0.3,0.1C357,31.9,356.7,32.6,356.6,33.3L356.6,33.3z M358,29.2c-0.2,0.5-0.3,1-0.4,1.5l-0.4-0.1c0.2-0.7,0.4-1.5,0.5-2.2
			c0-0.2,0.1-0.4,0.1-0.5l0.8,0.4C358.3,28.5,358.1,28.9,358,29.2z M362.7,43.5c0-0.3-0.1-0.5-0.2-0.8c-0.1-0.6,0.5-1.2,0.8-1.6
			l0.2-0.3C363.4,41.8,363.1,42.7,362.7,43.5L362.7,43.5z M363.1,32.2L363.1,32.2L363.1,32.2c0.2-0.5,0.3-1.1,0.5-1.7l0.5,0.2
			C363.6,31.2,363.3,31.7,363.1,32.2L363.1,32.2z M366.3,40.6c-0.3-0.6-0.5-1.2-0.6-1.8c-0.1-0.4-0.2-0.7-0.3-1.1
			c0-0.1,0.1-0.2,0.2-0.3c0.3,0.3,0.6,0.5,0.9,0.7C366.3,39,366.2,39.8,366.3,40.6L366.3,40.6z M366.4,36.7l-0.2-0.2h0.2
			C366.4,36.5,366.4,36.6,366.4,36.7L366.4,36.7z M366.5,35.8h-0.2c0.1-0.2,0.2-0.4,0.3-0.6C366.5,35.4,366.5,35.6,366.5,35.8
			L366.5,35.8z M368.6,32.9L368.6,32.9L368.6,32.9z M369.6,38.4c-0.2,0-0.6-0.8-0.7-0.9c0,0,0-0.1-0.1-0.1c0.4,0.1,0.8,0.3,1.2,0.5
			C369.9,38.1,369.8,38.4,369.6,38.4L369.6,38.4z M371,36.5c-0.2,0.2-0.4,0.5-0.4,0.8c-0.6-0.3-1.2-0.5-1.8-0.8
			c-0.1-0.4-0.1-0.8-0.2-1.2c0.1-0.1,0.1-0.2,0.2-0.3c0.9,0.4,1.7,0.8,2.5,1.2C371.1,36.3,371,36.4,371,36.5L371,36.5z M371.6,35
			c-0.1,0.1-0.1,0.3-0.2,0.5c-0.8-0.4-1.6-0.7-2.5-1.1c0.2-0.3,0.4-0.7,0.7-1l2.1,1.1C371.7,34.7,371.6,34.9,371.6,35L371.6,35z
			 M372.1,33.8l-2-0.9c0.7-0.7,1.4-1.4,2.1-2v0.3c0,0.7,0,1.3,0.1,1.9L372.1,33.8z M377.2,36.4l-0.9-0.5c-0.2-0.3-0.3-0.7-0.4-1
			l0.6-1.1l-0.5,0.4l0.2-1c0.4,0.6,0.9,1.3,1.3,1.9C377.3,35.5,377.2,36,377.2,36.4L377.2,36.4z M378.9,28.7c-0.1,1-0.3,1.9-0.5,2.8
			c-0.2,0.5-0.3,1-0.4,1.5c-0.5-0.5-0.9-1-1.4-1.4c0.3-1.2,0.5-2.4,0.7-3.6c0.6-0.3,1.2-0.6,1.9-0.8C379,27.7,378.9,28.2,378.9,28.7
			L378.9,28.7z M380.5,31.4c0.1-0.6,0.3-1.1,0.5-1.6c-0.1,0.6-0.3,1.1-0.4,1.7C380.5,31.5,380.4,31.4,380.5,31.4L380.5,31.4z
			 M384.4,31.4c-0.7-0.3-1.7-2.4-2.1-0.5c-0.1,0.6,0,1.2-0.1,1.7c-0.1,0.5-0.2,1.3-0.3,1.9c-0.1,0.6,0,1.1,0,1.5
			c-0.1,0.5-0.1,1-0.1,1.6c0,0-0.1-0.1-0.1-0.1c0-0.7-0.1-1.4-0.3-2c-0.3-0.8-0.5-1.7-0.6-2.5c-0.1-1,0-1.9,0.2-2.9
			c0-0.3,0.1-0.6,0.1-0.8c0.2-0.4,0.4-0.8,0.6-1.2c-0.2,0.2-0.4,0.5-0.5,0.7c0.1-0.6,0.3-1.1,0.4-1.7c-0.1,0.6-0.3,1.2-0.4,1.8
			c-0.3,0.5-0.6,0.9-0.9,1.4c-0.2-1.1-0.4-2.1-0.6-3.3c1.3-0.5,2.8-1.1,4.4-1.6c0.1,0.5,0.2,0.9,0.3,1.4
			C384.6,28.3,384.6,29.9,384.4,31.4L384.4,31.4z M386.1,26c-0.3,0.6-0.4,1.3-0.5,2c-0.1-0.5-0.1-0.9-0.2-1.4s-0.3-1.1-0.5-1.6
			l1.3-0.4c0,0.3,0,0.7,0.1,1C386.2,25.9,386.1,26,386.1,26L386.1,26z M390.8,26.3c-0.3-0.7-0.4-1.4-0.6-2.1s0.7,3.1,0.3,2.7
			c-0.3-0.6-0.6-1.2-0.8-1.9c-0.2-0.4-0.4-0.7-0.6-1.1c1.3-0.4,2.8-0.7,4.3-1.1c-0.1,1.1-0.2,2.1-0.2,3.2c-0.4,0.4-0.8,0.8-1.1,1.2
			c0-0.1,0-0.1-0.1-0.2c-0.1-0.1,0,0,0,0.3l-0.6,0.6l0,0C391.3,27.4,391.1,26.8,390.8,26.3L390.8,26.3z M392.6,32.1
			c-0.1-0.7-0.5-1.3-0.6-2c0-0.3-0.1-0.6-0.2-0.8c0.1-0.2,0.2-0.4,0.4-0.5C392.3,30.4,392.6,32.6,392.6,32.1L392.6,32.1z
			 M392.7,31.3c-0.2-0.7-0.2-1.5-0.3-2.2c0-0.2-0.1-0.4-0.2-0.6c0.3-0.4,0.6-0.8,0.9-1.1c0,0.4,0,0.7,0,1.1c0.1,1.1,0.1,2.2,0.2,3.3
			c-0.1,0.2-0.3,0.4-0.4,0.5C392.8,32,392.7,31.7,392.7,31.3L392.7,31.3z M393.1,32.8c0.1-0.2,0.2-0.4,0.3-0.5c0,0.3,0,0.5,0,0.8
			l-0.3,0.1C393.1,33.1,393.1,32.9,393.1,32.8L393.1,32.8z M393.3,33.8l0.2-0.1c0,0.5,0,0.9,0,1.4C393.4,34.7,393.3,34.3,393.3,33.8
			L393.3,33.8z M393.3,22.9c-0.9,0.1-2.5,0.4-4.4,0.8l-0.1-0.2c1.5-1.4,3.2-2.5,5.1-3.4C393.6,21,393.4,22,393.3,22.9L393.3,22.9z
			 M412.2,28.3c0-0.4,0-0.7,0-1.1c0.6,0.7,1.1,1.5,1.6,2.4c-0.6,0-1.1-0.1-1.7-0.1C412.1,29.1,412.1,28.7,412.2,28.3L412.2,28.3z
			 M396,33.6c0-0.2-0.1-0.5-0.1-0.7l0.3-0.1C396.2,33,396.1,33.3,396,33.6z M396.3,32l-0.5,0.2c-0.2-1.1-0.3-2.3-0.5-3.4
			c-0.2-1.2-0.3-2.4-0.3-3.6c0.5-0.5,0.9-1,1.3-1.4c0,0.6,0,1.2,0.1,1.8c0.1,1.1,0,2,0,3.1c0,0.5,0.1,1.1,0.1,1.6
			c-0.1,0.4-0.1,0.8-0.1,1.2C396.4,31.6,396.3,31.8,396.3,32z M396.7,20.1c-0.2,0.9-0.3,1.9-0.3,2.8c0,0.1,0,0.2,0,0.3l-1.3,1.2
			c0-1.7,0.2-3.4,0.6-5c0.5-0.2,1-0.4,1.4-0.5C396.9,19.2,396.8,19.8,396.7,20.1z M399,34.3c0.1-0.2,0.1-0.5,0.1-0.7l0.2-0.3
			C399.2,33.7,399.1,34,399,34.3z M399.8,31.6c-0.2,0.2-0.4,0.5-0.6,0.7c0-0.2,0-0.4,0-0.5L399.8,31.6L399.8,31.6z M400.1,30
			c0,0.3-0.1,0.7-0.1,1l-0.7,0.2c0-0.1,0-0.1,0-0.2c0.1-1.4,0-2.8-0.2-4.2c-0.3-1.7-0.6-3.4-1-5l0.8-0.9c-0.3,0.3-0.5,0.5-0.8,0.8
			c-0.2-1-0.4-1.9-0.7-2.9l0.8-0.3l-0.8,0.3c0-0.1-0.1-0.2-0.1-0.3c-0.1,0.1-0.2,0.3-0.3,0.5c-0.4,0.1-0.9,0.3-1.4,0.5
			c0.4-1.5,1-2.9,1.7-4.3c2.9,2,7.7,6.6,4.6,13.2c0.1-0.5,0.1-0.9,0.1-1.4c-0.1-1.8-0.3-3.6-0.4-5.4c-0.4,2-0.7,3.9-1,5.9
			C400.5,28.3,400.2,29.1,400.1,30L400.1,30z M405.2,31.5c-0.6,1.2-1.2,2.3-1.8,3.5c-0.1-0.3-0.1-0.4-0.1-0.4c0,0.3-0.1,0.5-0.1,0.8
			c-0.4,0.7-0.8,1.5-1.2,2.1c0-0.9,0-1.9-0.2-2.8c-0.1,0.7-0.3,1.3-0.6,1.9c0.1-0.5,0.2-1.1,0.3-1.5c0.2-1.2,0.1-2.6,0.4-3.7
			c0-0.1,0-0.2,0-0.3c1.1-0.2,2.1-0.4,3.2-0.6c0.1,0.3,0.1,0.5,0.2,0.8C405.4,31.5,405.3,31.4,405.2,31.5z M408.5,52.6L408.5,52.6
			L408.5,52.6z M410,24c-1.2-1.1-2.4-2.1-3.6-3.4c0,0,1,1.1,2.5,2.9c0.2,0.3,0.5,0.6,0.8,0.9c-0.5,0.6-1,1.2-1.5,1.8
			c-0.3,0.3-0.7,0.5-1.1,0.7c-0.1,0.2-0.1,0.4-0.2,0.6c-0.4,0.7-0.7,1.5-0.9,2.3h-0.2c-0.3-0.6-0.6-1.3-0.9-2
			c0.1,0.7,0.2,1.4,0.3,2.1c-1.1,0.1-2.1,0.3-3.1,0.6c0-0.3-0.1-0.6-0.1-1c2.5-5.1,1.7-11-4.5-14.7l0,0c1.5-2.4,3.2-4.5,5.3-6.4
			c2,1.9,3.7,4,5.1,6.3c1.6,2.8,2.4,5.9,2.4,9.1C410.2,23.9,410.1,24,410,24L410,24z M410.7,50c0-0.2-0.1-0.4-0.2-0.6l0.2-0.1
			l0.3-0.1c0.8,0.5,1.5,1.1,2.1,1.5L410.7,50z M413.6,30.4c-0.4,0.8-0.9,1.5-1.5,2.1l-0.2,0.2l-0.1-0.1v-0.1
			c0.1-0.9,0.1-1.8,0.2-2.7c0.6,0,1.3,0,1.9,0C413.8,30.1,413.8,30.2,413.6,30.4L413.6,30.4z M416.4,31.6c-0.1,0.1-0.2,0.3-0.2,0.4
			l-0.1-0.2c0.1-0.3,0.2-0.6,0.3-1V31.6z M416.9,30.8c0-0.2-0.1-0.4-0.1-0.5h0.3h0.1C417.1,30.5,417,30.7,416.9,30.8L416.9,30.8z
			 M419.1,36.2L419.1,36.2c0.1,0.1,0.3,0.3,0.4,0.5c0.1,0.1,0.1,0.1,0.1,0.2L419.1,36.2z M419.7,35C419.7,35,419.7,34.9,419.7,35
			C419.7,34.9,419.7,35,419.7,35L419.7,35z M424,28.8L424,28.8c0.1,0.2,0.2,0.5,0.3,0.8C424.2,29.3,424.1,29,424,28.8L424,28.8z
			 M425.5,30.8c-0.5-0.8-1-1.6-1.5-2.3c-0.1-0.5-0.3-0.9-0.5-1.3l-0.8-1.9c0-0.4,0.1-0.7,0.1-1.1c0-0.5,0.1-1,0.2-1.5
			c0.1-0.6,0.1-1.1,0.1-1.7c0.3-0.5,0.5-1,0.8-1.5c0,0.2,0,0.4,0.1,0.6c0.1,0.7-0.1,1.3,0.1,1.9c0.1,0.5,0.2,1,0.2,1.5
			c0.1,1.3,0.4,2.6,0.6,3.9c0.1,0.7,0.4,1.2,0.5,1.9c0,0.2,0.1,0.4,0.1,0.6L425.5,30.8z M426.7,33.5c-0.1-0.3-0.3-0.7-0.4-1
			c0,0,0-0.1,0-0.1C426.5,32.8,426.6,33.1,426.7,33.5L426.7,33.5z M426.5,23.9c-0.3-0.6-0.4-1.3-0.7-1.9c-0.4-0.6-0.7-1.3-0.8-2.1
			c-0.1-0.6-0.3-1.1-0.5-1.6c0.8-1.2,1.6-2.3,2.4-3.5c0,0.3,0,0.7-0.1,1.1c-0.1,1.3,0,2.7,0.1,4c0.2,1.8,0.4,3.6,0.8,5.4
			c0,0,0,0.1,0,0.1c0,0.4,0,0.7,0,1.1C427.4,25.6,427,24.7,426.5,23.9L426.5,23.9z M428.9,37.9L428.9,37.9c0.2,0.2,0.2,0.3,0.3,0.5
			c0,0.1,0,0.2,0.1,0.2L428.9,37.9z M443.7,27.6L443.7,27.6L443.7,27.6c0-0.1,0-0.2,0-0.3c0.3-1.4,0.3-2.9,0.6-4.3
			c0.2-1-0.3-2.1-0.3-3.1c0.4,0.8,0.9,1.7,1.2,2.5c-0.1,0.8-0.1,1.6-0.2,2.3c-0.2,0.4-0.6,1.5-1.2,2.9c-0.1,0.3-0.2,0.6-0.3,0.9
			C443.6,28.2,443.7,27.9,443.7,27.6L443.7,27.6z M445.2,34.5c-0.2,0.4-0.3,0.8-0.5,1.1c-0.1-0.4-0.3-0.7-0.5-1
			c-0.3-0.2-0.4-0.5-0.5-0.8c-0.1-0.3-0.2-0.3-0.3-0.6l-0.1-0.1c0-0.4,0-0.8,0.1-1.1c0.7-2.1,1-4.6,1.7-7.2c0,0.5-0.1,1-0.1,1.5
			c0,0.8,0.1,1.6,0.1,2.4c-0.1,0.7-0.1,1.4,0,2.1c0.2,1.1,0.3,2.1,0.3,3.2C445.3,34.2,445.3,34.4,445.2,34.5L445.2,34.5z
			 M446.3,26.8l-0.4-2.6c0.2,0.6,0.3,1.3,0.5,1.9c0.1,0.5,0.1,1.1,0.2,1.6C446.4,27.5,446.3,27.1,446.3,26.8L446.3,26.8z
			 M453.8,32.8c-0.1,0.6-0.2,1.1-0.3,1.7l-0.2,0.6c-0.1,0.3-0.3,0.8-0.4,1.1c-0.5-1.8-0.5-3.6-0.1-5.4c0.3-0.8,0.6-1.6,1.1-2.3
			c0.1,0.9,0.1,1.9,0.1,2.8c0,0.3,0,0.5,0,0.8C453.9,32.3,453.8,32.5,453.8,32.8L453.8,32.8z M454.8,27.1c0.1-0.1,0.1-0.2,0.2-0.2
			c0,0.2-0.1,0.3-0.1,0.5L454.8,27.1z M454.9,27.6c0-0.3,0.1-0.6,0.1-0.8v-0.1c0,0.4,0,0.7,0,1.1c0,0.1,0,0.3,0,0.4
			C455.1,28,455.1,27.8,454.9,27.6L454.9,27.6z M462.5,30.8c0-0.2,0.1-0.5,0.1-0.7c0.1-0.6,0.2-1.1,0.3-1.7c0,0.7,0.1,1.4,0.1,2.1
			C462.8,30.7,462.7,30.8,462.5,30.8L462.5,30.8z M466.4,30.9c0-0.4,0.1-0.8,0.1-1.2c0,0.1,0,0.3,0.1,0.5
			C466.6,30.5,466.6,30.7,466.4,30.9L466.4,30.9z M466.8,29.2l-0.2,0.8c0-0.5,0.2-1.1,0.2-1.6C466.9,28.8,466.9,29,466.8,29.2
			L466.8,29.2z M476.9,33c-0.2-0.8-0.3-1.5-0.4-2.3l0.1,0.2c0.1,0.5,0.2,1,0.4,1.5C477,32.6,477,32.8,476.9,33L476.9,33z M506,24.5
			c0,0.2-0.1,0.3-0.2,0.5c-0.2,0.5-0.5,0.9-0.6,1.5c-0.1,0.3-0.2,0.6-0.3,0.9c0-0.1-0.1-0.3-0.1-0.4c-0.3-1.1-0.4-2.2-0.5-3.3
			c-0.1-0.9-0.3-1.7-0.5-2.6l0.9,1.1c0.4,0.4,0.8,0.9,1.3,1.4C506.1,23.9,506.1,24.2,506,24.5L506,24.5z M510.4,34.5
			c-0.2-0.2-0.3-0.4-0.4-0.7c-0.1-0.3-0.2-0.3-0.3-0.6c0,0,0-0.1-0.1-0.1c0-0.4,0.1-0.9,0.1-1.3c0-1.1,0.1-2.1,0.2-3.2
			c0.2,0.3,0.3,0.7,0.4,1.1c0.5,1.6,0.5,3.3,0.2,4.9L510.4,34.5z M527.8,28c0-0.1-0.1-0.3-0.1-0.4c0-0.1,0.1-0.2,0.2-0.3
			C527.9,27.5,527.9,27.8,527.8,28L527.8,28z M528.8,30.8c0-0.2,0.1-0.5,0.1-0.7c0.1-0.6,0.2-1.1,0.3-1.7c0,0.7,0.1,1.4,0.1,2.1
			c-0.1,0.1-0.2,0.2-0.3,0.3L528.8,30.8z M532.8,30.9c0-0.4,0.1-0.8,0.1-1.2c0,0.1,0,0.3,0.1,0.5L532.8,30.9z M533.1,29.3
			c0,0.3-0.1,0.5-0.2,0.8c0-0.5,0.2-1.1,0.2-1.6c0.1,0.3,0.1,0.6,0.1,0.8L533.1,29.3z M556.3,26l-0.2,0.2l-0.2,0.2
			c-0.2-1-0.4-2-0.6-3l1,1.1c0.1,0.6,0.1,1.1,0,1.6L556.3,26z M560.2,32.5c-0.5,0.5-0.9,1-1.4,1.6c0-0.1-0.1-0.1-0.1-0.2
			c0,0,0,0,0-0.1c0-0.8,0.1-1.6,0.2-2.4c0.1-0.7,0.1-1.4,0-2.1c0-0.6,0.1-1.2,0.1-1.8c0.8,1,1.3,2.1,1.7,3.2
			c0.1,0.3,0.2,0.6,0.2,0.9c-0.2,0.4-0.4,0.7-0.7,1L560.2,32.5z M568.9,21.3c0-0.1,0-0.2,0-0.4c0.5-1.1,1.1-2.1,1.7-3.1l-0.2,0.8
			c-0.1,0.6-0.4,1.2-0.5,1.8c-0.2,0.7-0.5,1.4-0.8,2.1c-0.3,0.5-0.4,1.1-0.6,1.7c0.3-0.9,0.4-1.9,0.5-2.9L568.9,21.3z M569.8,30.6
			c-0.3,0.5-0.6,1.1-0.8,1.6c0.1-0.3,0.2-0.5,0.3-0.8c0.2-0.5,0.3-1.1,0.4-1.6c0.1-0.6,0.4-1.1,0.5-1.7c0.2,0.3,0.3,0.6,0.4,1
			c-0.1,0.6-0.4,1.1-0.6,1.6L569.8,30.6z M575.3,41.9l-0.8,0.5c-0.2-0.7-0.3-1.5-0.4-2.2V40c0.2-0.2,0.3-0.5,0.4-0.7
			c0.1-0.2,0.4-0.7,0.5-1c0.5-1.1,1.1-2.1,1.5-3.1c0.2-0.3,0.3-0.5,0.5-0.8c-0.3,2.1-1.1,5.7-1.7,7.6L575.3,41.9z"/>
	</g>
</g>
</svg>
