<svg xmlns="http://www.w3.org/2000/svg" viewBox="0 0 188.5 149.09"><defs><style>.cls-1{fill:#39b54a;}</style></defs><title>Ресурс 3</title><g id="Слой_2" data-name="Слой 2"><g id="Vector_Graphics" data-name="Vector Graphics"><path class="cls-1" d="M93.58,112.63S96.83,47.82,133.14,9.46C101,56.49,101.38,114.7,101.38,114.7Z"/><path class="cls-1" d="M92.86,125.45s2.68-55,33.36-87.51C99,77.83,99.47,127.21,99.47,127.21Z"/><path class="cls-1" d="M90.8,119.9S80.81,45.52,114.62,0c-27.2,55.28-14.35,121.93-14.35,121.93Z"/><path class="cls-1" d="M85.49,118.67s-17.18-45-2.93-73.87c-8.7,34.56,9.1,74.82,9.1,74.82Z"/><path class="cls-1" d="M88.84,127.59S74.21,89.37,86.22,64.94c-7.31,29.31,7.84,63.46,7.84,63.46Z"/><path class="cls-1" d="M85.71,123.88S56.25,73,66.58,39.41C63.88,79.37,93,124.69,93,124.69Z"/><path class="cls-1" d="M114.47,127.87S117.73,63.06,154,24.7c-32.19,47-31.76,105.24-31.76,105.24Z"/><path class="cls-1" d="M113.76,140.69s2.68-55,33.37-87.51c-27.19,39.89-26.76,89.27-26.76,89.27Z"/><path class="cls-1" d="M111.71,135.15s-10-74.39,23.82-119.9c-27.21,55.26-14.36,121.92-14.36,121.92Z"/><path class="cls-1" d="M106.39,133.91s-17.17-45-2.92-73.87c-8.72,34.56,9.09,74.82,9.09,74.82Z"/><path class="cls-1" d="M109.74,142.83s-14.62-38.21-2.62-62.66c-7.31,29.32,7.84,63.47,7.84,63.47Z"/><path class="cls-1" d="M106.62,139.12S77.16,88.27,87.48,54.65c-2.7,40,26.46,85.28,26.46,85.28Z"/><path class="cls-1" d="M125.68,126.77s18.71-44.1,52.76-68.37c-33.51,30.42-48.07,70.2-48.07,70.2Z"/><path class="cls-1" d="M121.93,135.49s15.82-37.41,44.63-58c-28.34,25.8-40.66,59.56-40.66,59.56Z"/><path class="cls-1" d="M122,131.59s12.3-51.34,46.5-80.64c-32.27,36.31-40.7,82.54-40.7,82.54Z"/><path class="cls-1" d="M118.74,130.47s0-31.69,16.9-50.63c-14.64,23.16-13,51.6-13,51.6Z"/><path class="cls-1" d="M118.7,136.74s0-26.89,14.25-42.94c-12.37,19.64-11,43.76-11,43.76Z"/><path class="cls-1" d="M117.56,134s-6.7-36.31,8.78-58.73c-12,27.16-4.09,59.67-4.09,59.67Z"/><path class="cls-1" d="M135.75,138.3s18.71-44.1,52.75-68.38c-33.5,30.42-48.06,70.21-48.06,70.21Z"/><path class="cls-1" d="M132,147s15.83-37.42,44.62-58C148.29,114.81,136,148.58,136,148.58Z"/><path class="cls-1" d="M132,143.12s12.31-51.35,46.52-80.64C146.28,98.79,137.84,145,137.84,145Z"/><path class="cls-1" d="M128.81,142s0-31.7,16.9-50.63c-14.64,23.15-13,51.6-13,51.6Z"/><path class="cls-1" d="M128.77,148.27s0-26.89,14.24-43c-12.36,19.64-11,43.77-11,43.77Z"/><path class="cls-1" d="M127.63,145.56s-6.7-36.3,8.78-58.72c-12,27.15-4.09,59.67-4.09,59.67Z"/><path class="cls-1" d="M51.09,112.3S33,48.64,56.58,8.6c-16.62,48.24,3,105.19,3,105.19Z"/><path class="cls-1" d="M54.61,124.9S39.16,70.9,59.08,37c-14,40.91,2.7,89.22,2.7,89.22Z"/><path class="cls-1" d="M50.73,119.61S16.22,47.49,35,.61C26,56.59,60.85,121,60.85,121Z"/><path class="cls-1" d="M45,118.77S13,75.85,17.74,46.66c2.69,34.44,33.74,72.61,33.74,72.61Z"/><path class="cls-1" d="M51.3,127.27S24.1,90.87,28,66.12c2.36,29.19,28.75,61.57,28.75,61.57Z"/><path class="cls-1" d="M47,123.85S.78,76.12,0,42.49c10.48,39.3,54.54,81.65,54.54,81.65Z"/><path class="cls-1" d="M77,125.78S58.86,62.12,82.48,22.08c-16.63,48.25,3,105.19,3,105.19Z"/><path class="cls-1" d="M80.5,138.38S65.06,84.38,85,50.43c-14,40.91,2.71,89.21,2.71,89.21Z"/><path class="cls-1" d="M76.62,133.09S42.12,61,60.87,14.09c-8.93,56,25.87,120.34,25.87,120.34Z"/><path class="cls-1" d="M70.91,132.25s-32-42.92-27.28-72.11c2.7,34.44,33.75,72.61,33.75,72.61Z"/><path class="cls-1" d="M77.19,140.75S50,104.35,53.92,79.61c2.37,29.19,28.75,61.56,28.75,61.56Z"/><path class="cls-1" d="M72.85,137.33S26.67,89.59,25.89,56c10.48,39.29,54.55,81.64,54.55,81.64Z"/><path class="cls-1" d="M87.81,123.93S92,79.48,118,53.39c-23.42,32.07-24.85,72-24.85,72Z"/><path class="cls-1" d="M86.94,132.73S90.41,95,112.38,72.88c-19.79,27.21-21,61.1-21,61.1Z"/><path class="cls-1" d="M85.71,128.91s-4.65-51.1,19.84-82.13C85.3,84.54,92.12,130.36,92.12,130.36Z"/><path class="cls-1" d="M82.1,128s-10.41-31,.19-50.71c-7,23.67,4,51.4,4,51.4Z"/><path class="cls-1" d="M84.13,134.17s-8.88-26.31.06-43c-5.87,20.07,3.49,43.6,3.49,43.6Z"/><path class="cls-1" d="M82.1,131.61S63.45,96.53,71.5,73.52c-3,27.41,15.59,58.69,15.59,58.69Z"/><path class="cls-1" d="M101.67,134.53S105.82,90.07,131.8,64C108.38,96.05,107,136,107,136Z"/><path class="cls-1" d="M100.8,143.31s3.46-37.7,25.43-59.84c-19.79,27.21-21,61.1-21,61.1Z"/><path class="cls-1" d="M99.56,139.5s-4.64-51.11,19.85-82.13C99.16,95.13,106,141,106,141Z"/><path class="cls-1" d="M96,138.62s-10.42-31,.19-50.71c-7,23.66,4,51.4,4,51.4Z"/><path class="cls-1" d="M98,144.76s-8.87-26.31.07-43c-5.87,20.07,3.49,43.59,3.49,43.59Z"/><path class="cls-1" d="M96,142.19S77.3,107.12,85.36,84.11c-3,27.4,15.59,58.69,15.59,58.69Z"/></g></g></svg>