<svg xmlns="http://www.w3.org/2000/svg" viewBox="0 0 273.19 43.54"><defs><style>.cls-1{fill:#39b54a;}</style></defs><title>Ресурс 6</title><g id="Слой_2" data-name="Слой 2"><g id="Vector_Graphics" data-name="Vector Graphics"><path class="cls-1" d="M220.62,33.69s-.09-18.23,6.61-30.12c-5.79,14.18-5,30.45-5,30.45Z"/><path class="cls-1" d="M220.63,37.3s-.1-15.46,5.57-25.55c-4.9,12-4.25,25.83-4.25,25.83Z"/><path class="cls-1" d="M220.16,35.81s-2.81-20.49,3.33-34.3C218.76,17.84,222,36.08,222,36.08Z"/><path class="cls-1" d="M219.1,35.64s-3.89-12-1.41-20.57c-1.32,9.94,2.63,20.64,2.63,20.64Z"/><path class="cls-1" d="M219.86,38s-3.31-10.23-1.22-17.45c-1.11,8.44,2.26,17.51,2.26,17.51Z"/><path class="cls-1" d="M219.2,37.09s-6.37-13.29-4.72-23c-.08,11.26,6.17,23,6.17,23Z"/><path class="cls-1" d="M224.9,37.29s-.09-18.23,6.62-30.13c-5.8,14.19-5.05,30.46-5.05,30.46Z"/><path class="cls-1" d="M224.91,40.9s-.1-15.47,5.57-25.55c-4.89,12-4.25,25.83-4.25,25.83Z"/><path class="cls-1" d="M224.45,39.41s-2.82-20.49,3.32-34.3c-4.73,16.33-1.44,34.57-1.44,34.57Z"/><path class="cls-1" d="M223.38,39.24S219.5,27.18,222,18.66c-1.32,10,2.64,20.65,2.64,20.65Z"/><path class="cls-1" d="M224.14,41.63s-3.31-10.23-1.22-17.45c-1.11,8.43,2.26,17.5,2.26,17.5Z"/><path class="cls-1" d="M223.49,40.69s-6.37-13.29-4.73-23c-.07,11.26,6.18,23,6.18,23Z"/><path class="cls-1" d="M227.1,36.63s3.18-12.94,9.6-20.82C230.45,25.39,228,37,228,37Z"/><path class="cls-1" d="M226.46,39.18s2.69-11,8.12-17.65a60,60,0,0,0-7.32,18Z"/><path class="cls-1" d="M226.42,38.09s1.84-14.76,8.24-24c-5.94,11.19-7.07,24.39-7.07,24.39Z"/><path class="cls-1" d="M225.77,37.88s-.35-8.87,2.76-14.7a39.12,39.12,0,0,0-2,14.85Z"/><path class="cls-1" d="M225.84,39.63s-.31-7.51,2.31-12.46a33.22,33.22,0,0,0-1.66,12.59Z"/><path class="cls-1" d="M225.58,38.92s-1.73-10,1.06-16.71c-2,8-.13,16.82-.13,16.82Z"/><path class="cls-1" d="M229.21,39.53s3.18-12.94,9.6-20.81c-6.24,9.58-8.66,21.17-8.66,21.17Z"/><path class="cls-1" d="M228.57,42.09s2.69-11,8.12-17.65a59.86,59.86,0,0,0-7.32,18Z"/><path class="cls-1" d="M228.54,41s1.83-14.76,8.23-24c-5.94,11.19-7.07,24.39-7.07,24.39Z"/><path class="cls-1" d="M227.89,40.78s-.36-8.86,2.74-14.7a39.23,39.23,0,0,0-2,14.85Z"/><path class="cls-1" d="M228,42.54s-.31-7.52,2.31-12.47a33.45,33.45,0,0,0-1.66,12.59Z"/><path class="cls-1" d="M227.7,41.82s-1.74-9.94,1.05-16.71c-2.05,8-.12,16.83-.12,16.83Z"/><path class="cls-1" d="M212.26,35S208,17.72,212.17,5.77C209.44,19.8,214,35.1,214,35.1Z"/><path class="cls-1" d="M213.09,38.37s-3.64-14.62-.11-24.75c-2.29,11.89,1.54,24.87,1.54,24.87Z"/><path class="cls-1" d="M212.27,37s-7.6-19.07-4.44-32.79c-1.13,16,6.45,32.84,6.45,32.84Z"/><path class="cls-1" d="M211.14,37S204.36,26,205,17.65c.92,9.55,7.46,19.24,7.46,19.24Z"/><path class="cls-1" d="M212.47,39.14s-5.76-9.32-5.27-16.37c.8,8.09,6.36,16.31,6.36,16.31Z"/><path class="cls-1" d="M211.58,38.32S202,26.44,201.42,17.05c2.51,10.66,11.65,21.11,11.65,21.11Z"/><path class="cls-1" d="M217.51,37.9s-4.29-17.23-.1-29.19c-2.72,14,1.78,29.34,1.78,29.34Z"/><path class="cls-1" d="M218.34,41.31s-3.65-14.61-.12-24.74c-2.28,11.89,1.55,24.87,1.55,24.87Z"/><path class="cls-1" d="M217.52,40s-7.61-19.08-4.45-32.79C212,23.11,219.52,40,219.52,40Z"/><path class="cls-1" d="M216.39,39.9s-6.79-11-6.19-19.3c.92,9.55,7.46,19.24,7.46,19.24Z"/><path class="cls-1" d="M217.72,42.08s-5.77-9.31-5.27-16.36c.79,8.09,6.35,16.3,6.35,16.3Z"/><path class="cls-1" d="M216.83,41.26S207.2,29.38,206.67,20c2.5,10.66,11.65,21.1,11.65,21.1Z"/><path class="cls-1" d="M219.62,37s.31-12.57,5.12-20.7c-4.24,9.72-4.07,20.94-4.07,20.94Z"/><path class="cls-1" d="M219.55,39.53s.25-10.66,4.32-17.56c-3.58,8.25-3.43,17.76-3.43,17.76Z"/><path class="cls-1" d="M219.26,38.5s-1.5-14.15,3-23.61c-3.55,11.21-1.69,23.81-1.69,23.81Z"/><path class="cls-1" d="M218.54,38.37s-2.4-8.35-.54-14.2c-1.1,6.85,1.37,14.26,1.37,14.26Z"/><path class="cls-1" d="M219,40s-2-7.08-.48-12c-.92,5.8,1.19,12.08,1.19,12.08Z"/><path class="cls-1" d="M218.58,39.37s-4.07-9.22-2.74-15.91c-.29,7.76,3.73,15.92,3.73,15.92Z"/><path class="cls-1" d="M222.46,39.56s.32-12.57,5.13-20.7c-4.24,9.72-4.07,20.94-4.07,20.94Z"/><path class="cls-1" d="M222.39,42.05s.25-10.66,4.32-17.56c-3.58,8.25-3.43,17.76-3.43,17.76Z"/><path class="cls-1" d="M222.1,41s-1.49-14.15,3-23.61c-3.56,11.21-1.7,23.81-1.7,23.81Z"/><path class="cls-1" d="M221.38,40.89s-2.4-8.35-.53-14.2C219.74,33.54,222.22,41,222.22,41Z"/><path class="cls-1" d="M221.85,42.54s-2-7.08-.47-12c-.93,5.8,1.18,12.08,1.18,12.08Z"/><path class="cls-1" d="M221.43,41.89s-4.07-9.22-2.75-15.91c-.28,7.76,3.73,15.92,3.73,15.92Z"/><path class="cls-1" d="M221.21,31.53s.51-17.12,8.13-27.36c-6.71,12.52-6.47,27.88-6.47,27.88Z"/><path class="cls-1" d="M221.09,34.91s.42-14.51,6.86-23.2c-5.67,10.62-5.45,23.65-5.45,23.65Z"/><path class="cls-1" d="M220.64,33.46s-2.32-19.6,4.74-31.72C219.75,16.41,222.66,34,222.66,34Z"/><path class="cls-1" d="M219.51,33.15s-3.77-11.83-.82-19.49c-1.76,9.16,2.13,19.72,2.13,19.72Z"/><path class="cls-1" d="M220.24,35.49s-3.21-10-.72-16.52c-1.48,7.76,1.83,16.72,1.83,16.72Z"/><path class="cls-1" d="M219.57,34.52s-6.4-13.32-4.29-22.23c-.47,10.56,5.85,22.42,5.85,22.42Z"/><path class="cls-1" d="M225.69,35.48s.51-17.11,8.13-27.35C227.11,20.64,227.36,36,227.36,36Z"/><path class="cls-1" d="M225.57,38.87s.42-14.52,6.86-23.21C226.76,26.28,227,39.31,227,39.31Z"/><path class="cls-1" d="M225.12,37.41s-2.32-19.6,4.74-31.72c-5.63,14.68-2.73,32.22-2.73,32.22Z"/><path class="cls-1" d="M224,37.1s-3.77-11.83-.82-19.48c-1.76,9.15,2.13,19.71,2.13,19.71Z"/><path class="cls-1" d="M224.72,39.45s-3.21-10-.72-16.53c-1.47,7.76,1.83,16.72,1.83,16.72Z"/><path class="cls-1" d="M224.05,38.48s-6.39-13.33-4.29-22.23c-.47,10.55,5.85,22.41,5.85,22.41Z"/><path class="cls-1" d="M228.07,35.16s3.85-11.7,11-18.22c-7,8.13-10,18.68-10,18.68Z"/><path class="cls-1" d="M227.29,37.47s3.26-9.93,9.33-15.46a46.93,46.93,0,0,0-8.48,15.86Z"/><path class="cls-1" d="M227.29,36.44S229.77,22.85,237,15c-6.76,9.69-8.43,21.91-8.43,21.91Z"/><path class="cls-1" d="M226.6,36.15s-.08-8.36,3.46-13.41C227,28.9,227.43,36.4,227.43,36.4Z"/><path class="cls-1" d="M226.61,37.81s-.07-7.1,2.91-11.38A26.53,26.53,0,0,0,227.31,38Z"/><path class="cls-1" d="M226.36,37.1s-1.52-9.56,1.71-15.53c-2.48,7.21-.71,15.77-.71,15.77Z"/><path class="cls-1" d="M230.24,38.16s3.85-11.7,11-18.22c-7,8.14-10,18.69-10,18.69Z"/><path class="cls-1" d="M229.46,40.48s3.26-9.93,9.33-15.46a47.23,47.23,0,0,0-8.48,15.86Z"/><path class="cls-1" d="M229.46,39.45s2.48-13.59,9.67-21.44c-6.76,9.69-8.43,21.92-8.43,21.92Z"/><path class="cls-1" d="M228.77,39.16s-.08-8.36,3.46-13.41c-3,6.15-2.63,13.66-2.63,13.66Z"/><path class="cls-1" d="M228.78,40.82s-.08-7.1,2.91-11.38A26.53,26.53,0,0,0,229.48,41Z"/><path class="cls-1" d="M228.53,40.11s-1.52-9.56,1.71-15.53c-2.48,7.21-.71,15.76-.71,15.76Z"/><path class="cls-1" d="M212.18,31.58s-4-16.74.89-27.38C209.67,17,214,32,214,32Z"/><path class="cls-1" d="M213,34.89s-3.42-14.19.72-23.22c-2.87,10.85.81,23.53.81,23.53Z"/><path class="cls-1" d="M212.12,33.51s-7.52-18.92-3.66-31.35c-1.75,14.8,5.82,31.67,5.82,31.67Z"/><path class="cls-1" d="M210.91,33.31s-6.91-11.22-6-18.94c.67,9.08,7.36,19.05,7.36,19.05Z"/><path class="cls-1" d="M212.27,35.53s-5.88-9.52-5.11-16.06c.58,7.7,6.27,16.15,6.27,16.15Z"/><path class="cls-1" d="M211.33,34.65S201.4,22.2,201.14,13.33C203.47,23.66,213,34.7,213,34.7Z"/><path class="cls-1" d="M217.72,35.05s-4-16.74.89-27.38c-3.4,12.79.91,27.75.91,27.75Z"/><path class="cls-1" d="M218.5,38.37s-3.43-14.2.72-23.23C216.35,26,220,38.68,220,38.68Z"/><path class="cls-1" d="M217.66,37S210.14,18.07,214,5.63c-1.75,14.8,5.81,31.67,5.81,31.67Z"/><path class="cls-1" d="M216.45,36.78s-6.92-11.22-6-18.94c.66,9.08,7.36,19.05,7.36,19.05Z"/><path class="cls-1" d="M217.8,39s-5.87-9.51-5.1-16.06c.58,7.7,6.27,16.16,6.27,16.16Z"/><path class="cls-1" d="M216.87,38.12s-9.93-12.45-10.19-21.32c2.33,10.33,11.8,21.37,11.8,21.37Z"/><path class="cls-1" d="M220,34.53s.76-11.74,6.22-18.72c-4.89,8.55-5.09,19.09-5.09,19.09Z"/><path class="cls-1" d="M219.85,36.85s.64-10,5.25-15.87c-4.14,7.24-4.3,16.19-4.3,16.19Z"/><path class="cls-1" d="M219.58,35.85s-1.12-13.47,4-21.74c-4.2,10-2.64,22.1-2.64,22.1Z"/><path class="cls-1" d="M218.81,35.63s-2.29-8.15-.09-13.38c-1.42,6.27,1,13.55,1,13.55Z"/><path class="cls-1" d="M219.26,37.25s-2-6.92-.1-11.36c-1.2,5.32.85,11.5.85,11.5Z"/><path class="cls-1" d="M218.82,36.57s-4.06-9.19-2.4-15.29c-.57,7.24,3.46,15.44,3.46,15.44Z"/><path class="cls-1" d="M223,37.28s.76-11.75,6.21-18.72c-4.89,8.55-5.09,19.09-5.09,19.09Z"/><path class="cls-1" d="M222.82,39.6s.64-10,5.25-15.87c-4.13,7.24-4.29,16.19-4.29,16.19Z"/><path class="cls-1" d="M222.55,38.6s-1.12-13.47,4-21.74c-4.2,10-2.63,22.1-2.63,22.1Z"/><path class="cls-1" d="M221.78,38.38s-2.29-8.15-.09-13.38c-1.42,6.26,1,13.55,1,13.55Z"/><path class="cls-1" d="M222.23,40s-2-6.91-.1-11.35c-1.19,5.32.86,11.49.86,11.49Z"/><path class="cls-1" d="M221.79,39.32s-4-9.19-2.4-15.29c-.57,7.24,3.46,15.43,3.46,15.43Z"/><path class="cls-1" d="M18,32.08s-.27-18.23-7-29.91c5.91,14,5.51,30.29,5.51,30.29Z"/><path class="cls-1" d="M18,35.69s-.21-15.46-5.91-25.37C17.09,22.2,16.74,36,16.74,36Z"/><path class="cls-1" d="M18.44,34.19S20.77,13.62,14.54,0c4.9,16.18,2.08,34.52,2.08,34.52Z"/><path class="cls-1" d="M19.47,34s3.53-12.17,1-20.61c1.48,9.91-2.15,20.72-2.15,20.72Z"/><path class="cls-1" d="M18.78,36.4s3-10.33.84-17.48c1.24,8.39-1.85,17.57-1.85,17.57Z"/><path class="cls-1" d="M19.4,35.44S25.32,22,23.53,12.28C23.82,23.54,18,35.47,18,35.47Z"/><path class="cls-1" d="M13.87,35.81s-.27-18.23-7-29.91c5.91,14,5.51,30.29,5.51,30.29Z"/><path class="cls-1" d="M13.93,39.42S13.72,24,8,14.05c5,11.87,4.64,25.69,4.64,25.69Z"/><path class="cls-1" d="M14.36,37.92s2.32-20.57-3.91-34.19c4.91,16.18,2.08,34.51,2.08,34.51Z"/><path class="cls-1" d="M15.38,37.71s3.54-12.17,1-20.61C17.83,27,14.2,37.82,14.2,37.82Z"/><path class="cls-1" d="M14.69,40.12s3-10.32.84-17.47c1.25,8.39-1.84,17.56-1.84,17.56Z"/><path class="cls-1" d="M15.31,39.17S21.23,25.69,19.44,16c.3,11.26-5.54,23.21-5.54,23.21Z"/><path class="cls-1" d="M11.73,35.21S8.38,22.38,2,14.71c6.25,9.38,8.83,20.89,8.83,20.89Z"/><path class="cls-1" d="M12.4,37.75S9.57,26.87,4.16,20.36a60.21,60.21,0,0,1,7.47,17.73Z"/><path class="cls-1" d="M12.41,36.66S10.33,22,3.94,12.88c6,11,7.35,24.16,7.35,24.16Z"/><path class="cls-1" d="M13,36.43s.16-8.88-3-14.61A40.11,40.11,0,0,1,12.29,36.6Z"/><path class="cls-1" d="M13,38.19s.15-7.54-2.5-12.4a34.08,34.08,0,0,1,1.86,12.54Z"/><path class="cls-1" d="M13.24,37.46s1.48-10-1.36-16.67c2.15,7.91.46,16.81.46,16.81Z"/><path class="cls-1" d="M9.73,38.18S6.39,25.35,0,17.67c6.25,9.39,8.83,20.9,8.83,20.9Z"/><path class="cls-1" d="M10.4,40.72S7.58,29.84,2.17,23.32A60.32,60.32,0,0,1,9.64,41.05Z"/><path class="cls-1" d="M10.41,39.63S8.34,24.93,2,15.84C7.93,26.85,9.29,40,9.29,40Z"/><path class="cls-1" d="M11,39.39s.17-8.87-3-14.61a40,40,0,0,1,2.21,14.79Z"/><path class="cls-1" d="M11,41.15s.15-7.53-2.5-12.39A34.08,34.08,0,0,1,10.38,41.3Z"/><path class="cls-1" d="M11.25,40.43s1.48-10-1.36-16.68c2.15,7.92.46,16.82.46,16.82Z"/><path class="cls-1" d="M26.09,33.09s3.82-17.36-.48-29.18c2.92,13.94-1.15,29.38-1.15,29.38Z"/><path class="cls-1" d="M25.35,36.53S28.61,21.8,25,11.78c2.46,11.82-1,24.91-1,24.91Z"/><path class="cls-1" d="M26.12,35.14s7-19.3,3.67-32.91c1.41,15.91-5.61,33-5.61,33Z"/><path class="cls-1" d="M27.22,35.06s6.37-11.19,5.62-19.49C32.14,25.14,26,35,26,35Z"/><path class="cls-1" d="M26,37.28s5.41-9.49,4.79-16.53c-.61,8.12-5.84,16.5-5.84,16.5Z"/><path class="cls-1" d="M26.82,36.43s9.11-12.17,9.44-21.57C34,25.6,25.37,36.32,25.37,36.32Z"/><path class="cls-1" d="M21.06,36.19S24.88,18.84,20.57,7C23.5,21,19.43,36.39,19.43,36.39Z"/><path class="cls-1" d="M20.32,39.63s3.25-14.72-.38-24.74c2.46,11.82-1,24.91-1,24.91Z"/><path class="cls-1" d="M21.09,38.25s7-19.3,3.67-32.91c1.4,15.9-5.62,33-5.62,33Z"/><path class="cls-1" d="M22.19,38.17S28.55,27,27.81,18.68C27.1,28.25,21,38.13,21,38.13Z"/><path class="cls-1" d="M20.94,40.38s5.41-9.49,4.79-16.52c-.61,8.11-5.85,16.5-5.85,16.5Z"/><path class="cls-1" d="M21.79,39.54S30.9,27.36,31.23,18C29,28.7,20.33,39.42,20.33,39.42Z"/><path class="cls-1" d="M19,35.4s-.55-12.56-5.38-20.54C17.92,24.45,18,35.67,18,35.67Z"/><path class="cls-1" d="M19.11,37.88s-.45-10.65-4.54-17.41c3.64,8.13,3.68,17.65,3.68,17.65Z"/><path class="cls-1" d="M19.37,36.85S20.54,22.65,16,13.33c3.67,11.1,2.12,23.76,2.12,23.76Z"/><path class="cls-1" d="M20.07,36.69s2.16-8.41.24-14.2c1.21,6.81-1,14.29-1,14.29Z"/><path class="cls-1" d="M19.65,38.36s1.84-7.14.22-12c1,5.77-.91,12.11-.91,12.11Z"/><path class="cls-1" d="M20.05,37.7s3.76-9.35,2.34-16c.44,7.76-3.3,16-3.3,16Z"/><path class="cls-1" d="M16.28,38s-.55-12.55-5.39-20.53c4.32,9.59,4.37,20.81,4.37,20.81Z"/><path class="cls-1" d="M16.4,40.49s-.46-10.65-4.54-17.41c3.64,8.12,3.68,17.64,3.68,17.64Z"/><path class="cls-1" d="M16.66,39.45s1.17-14.19-3.36-23.51C17,27,15.42,39.69,15.42,39.69Z"/><path class="cls-1" d="M17.36,39.3s2.16-8.42.23-14.21c1.22,6.81-1,14.29-1,14.29Z"/><path class="cls-1" d="M16.93,41s1.85-7.14.22-12c1,5.77-.9,12.12-.9,12.12Z"/><path class="cls-1" d="M17.34,40.3s3.76-9.34,2.34-16c.43,7.75-3.3,16-3.3,16Z"/><path class="cls-1" d="M91.79,32.71s-.27-18.23-7-29.92c5.91,14,5.51,30.29,5.51,30.29Z"/><path class="cls-1" d="M91.85,36.32S91.64,20.85,85.94,11c5,11.87,4.64,25.69,4.64,25.69Z"/><path class="cls-1" d="M92.28,34.81S94.6,14.25,88.37.63c4.91,16.18,2.08,34.51,2.08,34.51Z"/><path class="cls-1" d="M93.3,34.61s3.54-12.17,1-20.61c1.48,9.9-2.16,20.71-2.16,20.71Z"/><path class="cls-1" d="M92.61,37s3-10.33.84-17.48c1.25,8.4-1.84,17.57-1.84,17.57Z"/><path class="cls-1" d="M93.23,36.06s5.92-13.47,4.13-23.16c.3,11.26-5.54,23.2-5.54,23.2Z"/><path class="cls-1" d="M87.7,36.43s-.27-18.22-7-29.91c5.91,14,5.51,30.29,5.51,30.29Z"/><path class="cls-1" d="M87.77,40s-.22-15.46-5.92-25.36c5,11.87,4.64,25.69,4.64,25.69Z"/><path class="cls-1" d="M88.19,38.54S90.51,18,84.28,4.35c4.91,16.18,2.09,34.52,2.09,34.52Z"/><path class="cls-1" d="M89.21,38.33s3.54-12.17,1-20.61C91.66,27.63,88,38.44,88,38.44Z"/><path class="cls-1" d="M88.53,40.75s3-10.33.84-17.48c1.24,8.4-1.85,17.57-1.85,17.57Z"/><path class="cls-1" d="M89.14,39.79s5.92-13.48,4.13-23.16c.3,11.26-5.53,23.2-5.53,23.2Z"/><path class="cls-1" d="M85.56,35.83S82.21,23,75.83,15.33c6.25,9.38,8.82,20.9,8.82,20.9Z"/><path class="cls-1" d="M86.23,38.38S83.4,27.49,78,21a60.14,60.14,0,0,1,7.46,17.73Z"/><path class="cls-1" d="M86.24,37.28S84.16,22.59,77.77,13.5c6,11,7.35,24.16,7.35,24.16Z"/><path class="cls-1" d="M86.87,37.05s.16-8.87-3-14.61a40.23,40.23,0,0,1,2.21,14.78Z"/><path class="cls-1" d="M86.84,38.81s.15-7.53-2.49-12.39A34.06,34.06,0,0,1,86.21,39Z"/><path class="cls-1" d="M87.08,38.08s1.47-10-1.37-16.67c2.15,7.92.46,16.81.46,16.81Z"/><path class="cls-1" d="M83.56,38.8S80.22,26,73.83,18.29c6.25,9.39,8.83,20.91,8.83,20.91Z"/><path class="cls-1" d="M84.24,41.34S81.41,30.46,76,24a60.21,60.21,0,0,1,7.47,17.73Z"/><path class="cls-1" d="M84.25,40.25s-2.08-14.7-8.47-23.78c6,11,7.35,24.16,7.35,24.16Z"/><path class="cls-1" d="M84.87,40s.17-8.87-3-14.61a40.11,40.11,0,0,1,2.22,14.78Z"/><path class="cls-1" d="M84.85,41.78s.15-7.53-2.5-12.4a33.84,33.84,0,0,1,1.86,12.54Z"/><path class="cls-1" d="M85.08,41.05s1.48-10-1.36-16.67c2.15,7.91.46,16.81.46,16.81Z"/><path class="cls-1" d="M99.92,33.71s3.83-17.36-.48-29.18c2.92,13.94-1.15,29.38-1.15,29.38Z"/><path class="cls-1" d="M99.18,37.15s3.26-14.72-.37-24.74c2.46,11.82-1,24.91-1,24.91Z"/><path class="cls-1" d="M100,35.77s7-19.3,3.66-32.92c1.41,15.91-5.61,33-5.61,33Z"/><path class="cls-1" d="M101.06,35.69s6.36-11.2,5.62-19.49c-.71,9.57-6.87,19.45-6.87,19.45Z"/><path class="cls-1" d="M99.81,37.9s5.4-9.49,4.79-16.52c-.61,8.11-5.85,16.5-5.85,16.5Z"/><path class="cls-1" d="M100.66,37.06s9.1-12.18,9.44-21.57c-2.23,10.73-10.9,21.45-10.9,21.45Z"/><path class="cls-1" d="M94.89,36.82s3.82-17.36-.48-29.18C97.33,21.58,93.26,37,93.26,37Z"/><path class="cls-1" d="M94.15,40.26s3.25-14.73-.38-24.75c2.46,11.82-1,24.91-1,24.91Z"/><path class="cls-1" d="M94.92,38.88s7-19.31,3.67-32.92C100,21.86,93,39,93,39Z"/><path class="cls-1" d="M96,38.79s6.37-11.19,5.62-19.49c-.71,9.57-6.86,19.46-6.86,19.46Z"/><path class="cls-1" d="M94.77,41s5.41-9.49,4.79-16.52C99,32.6,93.72,41,93.72,41Z"/><path class="cls-1" d="M95.62,40.16s9.11-12.17,9.44-21.57c-2.22,10.73-10.89,21.46-10.89,21.46Z"/><path class="cls-1" d="M92.83,36s-.55-12.55-5.39-20.53c4.31,9.58,4.37,20.81,4.37,20.81Z"/><path class="cls-1" d="M93,38.51s-.46-10.65-4.55-17.42c3.64,8.13,3.68,17.65,3.68,17.65Z"/><path class="cls-1" d="M93.2,37.47S94.37,23.28,89.85,14C93.52,25.05,92,37.71,92,37.71Z"/><path class="cls-1" d="M93.9,37.32s2.17-8.42.24-14.21c1.21,6.81-1,14.29-1,14.29Z"/><path class="cls-1" d="M93.48,39s1.84-7.14.22-12c1,5.77-.91,12.11-.91,12.11Z"/><path class="cls-1" d="M93.88,38.32s3.77-9.34,2.35-16c.43,7.75-3.31,16-3.31,16Z"/><path class="cls-1" d="M90.12,38.63s-.56-12.56-5.39-20.54C89,27.68,89.09,38.9,89.09,38.9Z"/><path class="cls-1" d="M90.24,41.11s-.46-10.65-4.55-17.41c3.64,8.13,3.68,17.65,3.68,17.65Z"/><path class="cls-1" d="M90.49,40.07s1.17-14.18-3.35-23.51c3.67,11.1,2.12,23.76,2.12,23.76Z"/><path class="cls-1" d="M91.19,39.92s2.16-8.41.24-14.2C92.64,32.53,90.38,40,90.38,40Z"/><path class="cls-1" d="M90.77,41.59s1.84-7.14.22-12.05c1,5.77-.91,12.12-.91,12.12Z"/><path class="cls-1" d="M91.17,40.92s3.76-9.34,2.35-16c.43,7.75-3.31,16-3.31,16Z"/><path class="cls-1" d="M21.47,33.35s-.09-18.23,6.61-30.12c-5.79,14.18-5,30.46-5,30.46Z"/><path class="cls-1" d="M21.48,37s-.1-15.47,5.57-25.54c-4.9,12-4.25,25.82-4.25,25.82Z"/><path class="cls-1" d="M21,35.48S18.2,15,24.33,1.17c-4.72,16.33-1.44,34.57-1.44,34.57Z"/><path class="cls-1" d="M20,35.3s-3.89-12-1.41-20.57c-1.33,9.94,2.63,20.64,2.63,20.64Z"/><path class="cls-1" d="M20.71,37.69S17.4,27.46,19.48,20.24c-1.1,8.44,2.27,17.51,2.27,17.51Z"/><path class="cls-1" d="M20.05,36.75s-6.37-13.28-4.72-23c-.08,11.27,6.17,23,6.17,23Z"/><path class="cls-1" d="M25.76,37s-.1-18.23,6.61-30.12C26.57,21,27.31,37.28,27.31,37.28Z"/><path class="cls-1" d="M25.76,40.56S25.66,25.09,31.33,15c-4.89,12-4.25,25.82-4.25,25.82Z"/><path class="cls-1" d="M25.3,39.07s-2.82-20.48,3.32-34.3C23.9,21.1,27.18,39.34,27.18,39.34Z"/><path class="cls-1" d="M24.23,38.9s-3.88-12.06-1.41-20.58C21.5,28.27,25.46,39,25.46,39Z"/><path class="cls-1" d="M25,41.29s-3.31-10.23-1.22-17.45C22.66,32.28,26,41.35,26,41.35Z"/><path class="cls-1" d="M24.34,40.35s-6.37-13.28-4.72-23c-.08,11.26,6.17,23,6.17,23Z"/><path class="cls-1" d="M28,36.29s3.18-12.94,9.6-20.81c-6.24,9.57-8.66,21.17-8.66,21.17Z"/><path class="cls-1" d="M27.31,38.85s2.69-11,8.12-17.66a60,60,0,0,0-7.32,18Z"/><path class="cls-1" d="M27.27,37.75s1.84-14.75,8.24-24C29.57,24.9,28.44,38.1,28.44,38.1Z"/><path class="cls-1" d="M26.62,37.54s-.35-8.86,2.75-14.7a39.23,39.23,0,0,0-2,14.85Z"/><path class="cls-1" d="M26.69,39.3S26.38,31.78,29,26.83a33.22,33.22,0,0,0-1.66,12.59Z"/><path class="cls-1" d="M26.43,38.58s-1.73-9.94,1.06-16.71c-2,8-.12,16.82-.12,16.82Z"/><path class="cls-1" d="M30.06,39.19s3.18-12.94,9.6-20.81C33.41,28,31,39.55,31,39.55Z"/><path class="cls-1" d="M29.42,41.75s2.69-11,8.12-17.65a59.86,59.86,0,0,0-7.32,18Z"/><path class="cls-1" d="M29.39,40.66s1.83-14.76,8.23-24C31.68,27.8,30.55,41,30.55,41Z"/><path class="cls-1" d="M28.74,40.45s-.36-8.87,2.75-14.71a39.12,39.12,0,0,0-2,14.85Z"/><path class="cls-1" d="M28.8,42.2s-.31-7.52,2.31-12.47a33.26,33.26,0,0,0-1.66,12.6Z"/><path class="cls-1" d="M28.54,41.48s-1.73-9.94,1.07-16.71c-2.06,8-.13,16.83-.13,16.83Z"/><path class="cls-1" d="M13.11,34.61S8.83,17.38,13,5.43c-2.72,14,1.79,29.33,1.79,29.33Z"/><path class="cls-1" d="M14,38s-3.66-14.62-.12-24.75c-2.29,11.89,1.54,24.87,1.54,24.87Z"/><path class="cls-1" d="M13.12,36.67S5.52,17.6,8.68,3.88c-1.13,16,6.45,32.84,6.45,32.84Z"/><path class="cls-1" d="M12,36.62s-6.78-11-6.18-19.3c.92,9.55,7.46,19.23,7.46,19.23Z"/><path class="cls-1" d="M13.32,38.79S7.56,29.48,8.05,22.43c.8,8.1,6.35,16.31,6.35,16.31Z"/><path class="cls-1" d="M12.43,38S2.8,26.1,2.27,16.71C4.78,27.38,13.92,37.82,13.92,37.82Z"/><path class="cls-1" d="M18.36,37.56s-4.29-17.23-.1-29.19C15.54,22.4,20,37.71,20,37.71Z"/><path class="cls-1" d="M19.19,41s-3.65-14.61-.12-24.74C16.79,28.12,20.62,41.1,20.62,41.1Z"/><path class="cls-1" d="M18.37,39.62S10.76,20.54,13.92,6.83c-1.12,15.94,6.45,32.84,6.45,32.84Z"/><path class="cls-1" d="M17.24,39.57s-6.79-11-6.19-19.31C12,29.81,18.51,39.5,18.51,39.5Z"/><path class="cls-1" d="M18.57,41.74S12.8,32.43,13.3,25.38c.79,8.09,6.35,16.31,6.35,16.31Z"/><path class="cls-1" d="M17.67,40.92S8.05,29,7.52,19.66c2.5,10.66,11.65,21.1,11.65,21.1Z"/><path class="cls-1" d="M20.47,36.7s.31-12.57,5.12-20.7c-4.24,9.72-4.07,20.94-4.07,20.94Z"/><path class="cls-1" d="M20.4,39.19s.25-10.66,4.32-17.55c-3.58,8.24-3.43,17.75-3.43,17.75Z"/><path class="cls-1" d="M20.11,38.16s-1.49-14.15,3-23.61c-3.55,11.21-1.69,23.81-1.69,23.81Z"/><path class="cls-1" d="M19.39,38s-2.4-8.35-.54-14.2c-1.1,6.85,1.37,14.26,1.37,14.26Z"/><path class="cls-1" d="M19.86,39.68s-2.05-7.08-.48-12c-.93,5.81,1.19,12.09,1.19,12.09Z"/><path class="cls-1" d="M19.43,39s-4.07-9.22-2.74-15.91C16.4,30.88,20.42,39,20.42,39Z"/><path class="cls-1" d="M23.31,39.22s.31-12.57,5.13-20.7c-4.24,9.72-4.07,20.94-4.07,20.94Z"/><path class="cls-1" d="M23.24,41.71s.26-10.66,4.33-17.55C24,32.4,24.14,41.92,24.14,41.92Z"/><path class="cls-1" d="M23,40.68s-1.49-14.15,3-23.61c-3.56,11.21-1.7,23.81-1.7,23.81Z"/><path class="cls-1" d="M22.24,40.55s-2.41-8.35-.54-14.2c-1.11,6.85,1.37,14.26,1.37,14.26Z"/><path class="cls-1" d="M22.7,42.2s-2-7.08-.47-12c-.93,5.8,1.18,12.08,1.18,12.08Z"/><path class="cls-1" d="M22.28,41.55s-4.07-9.22-2.75-15.91c-.28,7.76,3.73,15.92,3.73,15.92Z"/><path class="cls-1" d="M39.43,33.43S39.33,15.19,46,3.3c-5.79,14.19-5,30.46-5,30.46Z"/><path class="cls-1" d="M39.43,37S39.34,21.57,45,11.49c-4.9,12-4.26,25.83-4.26,25.83Z"/><path class="cls-1" d="M39,35.55s-2.81-20.49,3.32-34.3c-4.72,16.33-1.44,34.57-1.44,34.57Z"/><path class="cls-1" d="M37.91,35.38S34,23.32,36.49,14.8c-1.32,10,2.64,20.64,2.64,20.64Z"/><path class="cls-1" d="M38.67,37.77s-3.31-10.23-1.23-17.45c-1.1,8.43,2.26,17.5,2.26,17.5Z"/><path class="cls-1" d="M38,36.83s-6.37-13.29-4.72-23c-.08,11.27,6.17,23,6.17,23Z"/><path class="cls-1" d="M43.71,37S43.62,18.79,50.33,6.9c-5.8,14.19-5.06,30.46-5.06,30.46Z"/><path class="cls-1" d="M43.72,40.64s-.1-15.47,5.57-25.55C44.4,27.11,45,40.92,45,40.92Z"/><path class="cls-1" d="M43.25,39.15S40.44,18.66,46.58,4.84c-4.73,16.34-1.44,34.58-1.44,34.58Z"/><path class="cls-1" d="M42.19,39s-3.89-12-1.41-20.57C39.46,28.35,43.42,39,43.42,39Z"/><path class="cls-1" d="M43,41.36s-3.31-10.22-1.22-17.44C40.62,32.35,44,41.42,44,41.42Z"/><path class="cls-1" d="M42.29,40.42s-6.37-13.28-4.72-23c-.07,11.27,6.18,23,6.18,23Z"/><path class="cls-1" d="M45.91,36.36s3.18-12.93,9.6-20.81c-6.25,9.58-8.66,21.17-8.66,21.17Z"/><path class="cls-1" d="M45.27,38.92S48,28,53.39,21.27a59.86,59.86,0,0,0-7.32,18Z"/><path class="cls-1" d="M45.23,37.83s1.84-14.76,8.23-24C47.53,25,46.39,38.17,46.39,38.17Z"/><path class="cls-1" d="M44.58,37.62s-.35-8.87,2.75-14.7a39.23,39.23,0,0,0-2,14.85Z"/><path class="cls-1" d="M44.65,39.37S44.34,31.85,47,26.9A33.26,33.26,0,0,0,45.3,39.5Z"/><path class="cls-1" d="M44.39,38.65s-1.73-9.94,1.06-16.71c-2.05,8-.13,16.83-.13,16.83Z"/><path class="cls-1" d="M48,39.26s3.18-12.93,9.6-20.8C51.37,28,49,39.63,49,39.63Z"/><path class="cls-1" d="M47.38,41.82s2.69-11,8.12-17.65a60,60,0,0,0-7.32,18Z"/><path class="cls-1" d="M47.34,40.73s1.84-14.76,8.24-24c-5.94,11.19-7.07,24.38-7.07,24.38Z"/><path class="cls-1" d="M46.69,40.52s-.35-8.87,2.75-14.7a39.23,39.23,0,0,0-2,14.85Z"/><path class="cls-1" d="M46.76,42.27s-.31-7.52,2.31-12.46A33.2,33.2,0,0,0,47.41,42.4Z"/><path class="cls-1" d="M46.5,41.56s-1.73-9.94,1.06-16.71c-2.05,8-.13,16.82-.13,16.82Z"/><path class="cls-1" d="M31.07,34.69S26.78,17.46,31,5.5c-2.72,14,1.78,29.34,1.78,29.34Z"/><path class="cls-1" d="M31.91,38.1s-3.66-14.61-.12-24.74c-2.29,11.89,1.54,24.87,1.54,24.87Z"/><path class="cls-1" d="M31.08,36.75S23.48,17.67,26.63,4C25.51,19.9,33.09,36.8,33.09,36.8Z"/><path class="cls-1" d="M30,36.69s-6.78-11-6.18-19.3c.92,9.55,7.46,19.24,7.46,19.24Z"/><path class="cls-1" d="M31.28,38.87S25.52,29.56,26,22.51c.8,8.09,6.35,16.31,6.35,16.31Z"/><path class="cls-1" d="M30.39,38.05S20.76,26.17,20.23,16.79c2.51,10.66,11.65,21.1,11.65,21.1Z"/><path class="cls-1" d="M36.32,37.64S32,20.41,36.22,8.45C33.5,22.48,38,37.78,38,37.78Z"/><path class="cls-1" d="M37.15,41.05S33.5,26.44,37,16.3c-2.29,11.9,1.55,24.87,1.55,24.87Z"/><path class="cls-1" d="M36.33,39.69S28.72,20.62,31.88,6.91c-1.12,15.94,6.45,32.83,6.45,32.83Z"/><path class="cls-1" d="M35.19,39.64s-6.78-11-6.18-19.3c.92,9.54,7.46,19.24,7.46,19.24Z"/><path class="cls-1" d="M36.53,41.82s-5.77-9.32-5.27-16.37c.79,8.1,6.35,16.31,6.35,16.31Z"/><path class="cls-1" d="M35.63,41S26,29.12,25.48,19.74C28,30.4,37.13,40.84,37.13,40.84Z"/><path class="cls-1" d="M38.43,36.77s.31-12.56,5.12-20.69C39.31,25.79,39.48,37,39.48,37Z"/><path class="cls-1" d="M38.35,39.26s.26-10.66,4.33-17.55C39.09,30,39.25,39.47,39.25,39.47Z"/><path class="cls-1" d="M38.07,38.23s-1.5-14.14,3-23.6c-3.56,11.2-1.69,23.81-1.69,23.81Z"/><path class="cls-1" d="M37.35,38.1s-2.4-8.34-.54-14.19c-1.11,6.84,1.37,14.25,1.37,14.25Z"/><path class="cls-1" d="M37.82,39.76s-2-7.08-.48-12c-.93,5.8,1.18,12.09,1.18,12.09Z"/><path class="cls-1" d="M37.39,39.1s-4.07-9.21-2.74-15.91c-.29,7.77,3.73,15.92,3.73,15.92Z"/><path class="cls-1" d="M41.27,39.29s.31-12.56,5.13-20.69c-4.24,9.72-4.07,20.94-4.07,20.94Z"/><path class="cls-1" d="M41.2,41.78s.25-10.66,4.32-17.55C41.94,32.47,42.09,42,42.09,42Z"/><path class="cls-1" d="M40.91,40.75s-1.49-14.14,3-23.61C40.33,28.35,42.19,41,42.19,41Z"/><path class="cls-1" d="M40.19,40.62s-2.4-8.34-.53-14.19C38.55,33.27,41,40.68,41,40.68Z"/><path class="cls-1" d="M40.66,42.28s-2-7.08-.47-12c-.93,5.8,1.18,12.09,1.18,12.09Z"/><path class="cls-1" d="M40.23,41.62s-4.06-9.21-2.74-15.91c-.28,7.77,3.73,15.92,3.73,15.92Z"/><path class="cls-1" d="M69.24,32.76s-.1-18.24,6.61-30.13c-5.8,14.19-5,30.46-5,30.46Z"/><path class="cls-1" d="M69.24,36.37s-.1-15.47,5.57-25.55c-4.89,12-4.25,25.83-4.25,25.83Z"/><path class="cls-1" d="M68.78,34.88S66,14.39,72.1.58c-4.72,16.33-1.44,34.56-1.44,34.56Z"/><path class="cls-1" d="M67.72,34.71S63.83,22.65,66.3,14.13C65,24.08,68.94,34.77,68.94,34.77Z"/><path class="cls-1" d="M68.48,37.09s-3.32-10.22-1.23-17.44c-1.1,8.43,2.26,17.5,2.26,17.5Z"/><path class="cls-1" d="M67.82,36.15s-6.37-13.28-4.72-23c-.08,11.27,6.17,23,6.17,23Z"/><path class="cls-1" d="M73.52,36.35s-.09-18.23,6.61-30.12c-5.8,14.18-5,30.45-5,30.45Z"/><path class="cls-1" d="M73.53,40s-.1-15.46,5.57-25.54c-4.9,12-4.25,25.82-4.25,25.82Z"/><path class="cls-1" d="M73.06,38.47S70.25,18,76.38,4.17c-4.72,16.33-1.44,34.58-1.44,34.58Z"/><path class="cls-1" d="M72,38.3s-3.89-12-1.41-20.57c-1.32,9.94,2.63,20.64,2.63,20.64Z"/><path class="cls-1" d="M72.76,40.69s-3.31-10.23-1.22-17.44c-1.11,8.43,2.25,17.5,2.25,17.5Z"/><path class="cls-1" d="M72.1,39.75s-6.37-13.29-4.72-23c-.08,11.26,6.17,23,6.17,23Z"/><path class="cls-1" d="M75.71,35.69s3.18-12.94,9.6-20.81c-6.24,9.58-8.65,21.17-8.65,21.17Z"/><path class="cls-1" d="M75.08,38.25s2.68-11,8.11-17.65a59.86,59.86,0,0,0-7.32,18Z"/><path class="cls-1" d="M75,37.16s1.84-14.76,8.23-24C77.34,24.3,76.2,37.5,76.2,37.5Z"/><path class="cls-1" d="M74.39,36.94s-.35-8.86,2.75-14.7a39.13,39.13,0,0,0-2,14.85Z"/><path class="cls-1" d="M74.45,38.7s-.3-7.52,2.32-12.47a33.26,33.26,0,0,0-1.66,12.6Z"/><path class="cls-1" d="M74.2,38S72.47,28,75.26,21.27c-2.05,8-.13,16.83-.13,16.83Z"/><path class="cls-1" d="M77.83,38.59S81,25.66,87.43,17.78C81.18,27.36,78.77,39,78.77,39Z"/><path class="cls-1" d="M77.19,41.15s2.68-11,8.12-17.65a59.73,59.73,0,0,0-7.33,18Z"/><path class="cls-1" d="M77.15,40.06S79,25.3,85.38,16C79.45,27.2,78.31,40.4,78.31,40.4Z"/><path class="cls-1" d="M76.5,39.85s-.35-8.87,2.75-14.7a39,39,0,0,0-2,14.85Z"/><path class="cls-1" d="M76.56,41.6s-.3-7.52,2.32-12.46a33.2,33.2,0,0,0-1.66,12.59Z"/><path class="cls-1" d="M76.31,40.88s-1.73-9.94,1.06-16.7c-2.05,8-.13,16.82-.13,16.82Z"/><path class="cls-1" d="M60.88,34s-4.29-17.23-.1-29.19c-2.72,14,1.78,29.34,1.78,29.34Z"/><path class="cls-1" d="M61.71,37.43s-3.65-14.61-.12-24.75c-2.28,11.9,1.55,24.88,1.55,24.88Z"/><path class="cls-1" d="M60.89,36.08S53.28,17,56.44,3.29c-1.12,15.94,6.45,32.83,6.45,32.83Z"/><path class="cls-1" d="M59.76,36S53,25,53.57,16.72C54.49,26.27,61,36,61,36Z"/><path class="cls-1" d="M61.09,38.2s-5.77-9.31-5.27-16.36c.79,8.09,6.35,16.3,6.35,16.3Z"/><path class="cls-1" d="M60.2,37.38S50.57,25.5,50,16.12c2.5,10.66,11.65,21.1,11.65,21.1Z"/><path class="cls-1" d="M66.12,37S61.84,19.73,66,7.78c-2.73,14,1.78,29.33,1.78,29.33Z"/><path class="cls-1" d="M67,40.38s-3.65-14.62-.12-24.75C64.55,27.52,68.39,40.5,68.39,40.5Z"/><path class="cls-1" d="M66.13,39s-7.6-19.08-4.44-32.79c-1.13,16,6.45,32.84,6.45,32.84Z"/><path class="cls-1" d="M65,39s-6.78-11-6.18-19.31c.92,9.55,7.46,19.24,7.46,19.24Z"/><path class="cls-1" d="M66.33,41.15s-5.76-9.32-5.27-16.37c.8,8.09,6.36,16.31,6.36,16.31Z"/><path class="cls-1" d="M65.44,40.33S55.82,28.44,55.28,19.06c2.51,10.66,11.65,21.11,11.65,21.11Z"/><path class="cls-1" d="M68.23,36.1s.31-12.56,5.13-20.7c-4.24,9.72-4.07,21-4.07,21Z"/><path class="cls-1" d="M68.16,38.59S68.42,27.93,72.49,21C68.9,29.28,69.06,38.8,69.06,38.8Z"/><path class="cls-1" d="M67.87,37.56s-1.49-14.15,3-23.61c-3.56,11.21-1.7,23.81-1.7,23.81Z"/><path class="cls-1" d="M67.16,37.43s-2.41-8.34-.54-14.19C65.51,30.08,68,37.49,68,37.49Z"/><path class="cls-1" d="M67.62,39.09s-2-7.09-.47-12c-.93,5.8,1.18,12.08,1.18,12.08Z"/><path class="cls-1" d="M67.2,38.43s-4.07-9.22-2.75-15.91c-.28,7.76,3.73,15.92,3.73,15.92Z"/><path class="cls-1" d="M71.08,38.62s.31-12.56,5.12-20.69C72,27.64,72.13,38.87,72.13,38.87Z"/><path class="cls-1" d="M71,41.11s.25-10.66,4.32-17.55C71.75,31.8,71.9,41.32,71.9,41.32Z"/><path class="cls-1" d="M70.72,40.08s-1.49-14.15,3-23.61C70.14,27.68,72,40.28,72,40.28Z"/><path class="cls-1" d="M70,40s-2.4-8.35-.54-14.19C68.36,32.6,70.83,40,70.83,40Z"/><path class="cls-1" d="M70.47,41.6s-2-7.07-.47-12c-.93,5.8,1.18,12.08,1.18,12.08Z"/><path class="cls-1" d="M70,41S66,31.73,67.3,25C67,32.8,71,41,71,41Z"/><path class="cls-1" d="M53.43,33.89S54,16.78,61.56,6.54C54.85,19.06,55.1,34.42,55.1,34.42Z"/><path class="cls-1" d="M53.32,37.28s.42-14.52,6.85-23.2c-5.67,10.61-5.45,23.64-5.45,23.64Z"/><path class="cls-1" d="M52.87,35.82S50.54,16.23,57.61,4.1C52,18.78,54.88,36.33,54.88,36.33Z"/><path class="cls-1" d="M51.73,35.52S48,23.68,50.92,16C49.16,25.18,53,35.74,53,35.74Z"/><path class="cls-1" d="M52.47,37.86s-3.21-10-.72-16.53c-1.48,7.76,1.83,16.72,1.83,16.72Z"/><path class="cls-1" d="M51.79,36.89S45.4,23.57,47.5,14.66C47,25.21,53.35,37.08,53.35,37.08Z"/><path class="cls-1" d="M57.91,37.85S58.43,20.73,66,10.49C59.33,23,59.58,38.37,59.58,38.37Z"/><path class="cls-1" d="M57.8,41.23s.42-14.52,6.85-23.2C59,28.65,59.2,41.67,59.2,41.67Z"/><path class="cls-1" d="M57.35,39.77S55,20.18,62.09,8.06c-5.64,14.67-2.73,32.22-2.73,32.22Z"/><path class="cls-1" d="M56.21,39.47S52.45,27.64,55.4,20c-1.76,9.15,2.13,19.72,2.13,19.72Z"/><path class="cls-1" d="M57,41.81s-3.21-10-.72-16.52C54.75,33,58.06,42,58.06,42Z"/><path class="cls-1" d="M56.28,40.84S49.88,27.52,52,18.61C51.52,29.17,57.83,41,57.83,41Z"/><path class="cls-1" d="M60.29,37.52s3.86-11.7,11-18.22c-7,8.14-10,18.69-10,18.69Z"/><path class="cls-1" d="M59.52,39.83s3.26-9.92,9.32-15.45a47.11,47.11,0,0,0-8.47,15.85Z"/><path class="cls-1" d="M59.52,38.8S62,25.21,69.18,17.37c-6.76,9.69-8.42,21.91-8.42,21.91Z"/><path class="cls-1" d="M58.83,38.52s-.08-8.37,3.45-13.42c-3.05,6.16-2.63,13.66-2.63,13.66Z"/><path class="cls-1" d="M58.83,40.17s-.07-7.09,2.92-11.37a26.36,26.36,0,0,0-2.21,11.58Z"/><path class="cls-1" d="M58.59,39.46s-1.52-9.55,1.71-15.52c-2.48,7.2-.71,15.76-.71,15.76Z"/><path class="cls-1" d="M62.46,40.53s3.86-11.7,11-18.22c-7,8.14-10,18.69-10,18.69Z"/><path class="cls-1" d="M61.69,42.84S65,32.92,71,27.39a47.14,47.14,0,0,0-8.48,15.85Z"/><path class="cls-1" d="M61.69,41.81s2.48-13.59,9.66-21.43c-6.76,9.69-8.42,21.91-8.42,21.91Z"/><path class="cls-1" d="M61,41.53s-.08-8.37,3.45-13.42c-3,6.16-2.62,13.66-2.62,13.66Z"/><path class="cls-1" d="M61,43.18s-.07-7.09,2.92-11.38A26.48,26.48,0,0,0,61.7,43.39Z"/><path class="cls-1" d="M60.76,42.47S59.24,32.91,62.46,27c-2.47,7.2-.71,15.76-.71,15.76Z"/><path class="cls-1" d="M44.41,34s-4-16.74.89-27.39c-3.4,12.79.91,27.75.91,27.75Z"/><path class="cls-1" d="M45.19,37.26s-3.43-14.2.72-23.22c-2.87,10.84.81,23.53.81,23.53Z"/><path class="cls-1" d="M44.35,35.88S36.83,17,40.69,4.53C38.94,19.33,46.5,36.2,46.5,36.2Z"/><path class="cls-1" d="M43.14,35.68s-6.92-11.22-6-18.94c.66,9.07,7.36,19.05,7.36,19.05Z"/><path class="cls-1" d="M44.49,37.9s-5.87-9.52-5.1-16.06C40,29.53,45.66,38,45.66,38Z"/><path class="cls-1" d="M43.56,37S33.62,24.56,33.37,15.69C35.7,26,45.17,37.06,45.17,37.06Z"/><path class="cls-1" d="M50,37.42s-4-16.74.89-27.39c-3.41,12.79.91,27.75.91,27.75Z"/><path class="cls-1" d="M50.72,40.73s-3.42-14.2.72-23.22C48.58,28.35,52.25,41,52.25,41Z"/><path class="cls-1" d="M49.89,39.35S42.37,20.43,46.23,8C44.48,22.8,52,39.67,52,39.67Z"/><path class="cls-1" d="M48.67,39.14s-6.91-11.21-6-18.93c.66,9.08,7.36,19,7.36,19Z"/><path class="cls-1" d="M50,41.37s-5.88-9.52-5.11-16.06c.58,7.7,6.27,16.15,6.27,16.15Z"/><path class="cls-1" d="M49.1,40.48S39.16,28,38.91,19.16c2.33,10.34,11.8,21.38,11.8,21.38Z"/><path class="cls-1" d="M52.24,36.9S53,25.15,58.45,18.18c-4.89,8.54-5.08,19.09-5.08,19.09Z"/><path class="cls-1" d="M52.08,39.22s.64-10,5.24-15.88C53.19,30.59,53,39.54,53,39.54Z"/><path class="cls-1" d="M51.81,38.22s-1.13-13.47,4-21.74c-4.2,10-2.63,22.1-2.63,22.1Z"/><path class="cls-1" d="M51,38s-2.3-8.15-.1-13.39c-1.42,6.27,1,13.55,1,13.55Z"/><path class="cls-1" d="M51.49,39.61s-2-6.92-.11-11.35c-1.19,5.31.86,11.49.86,11.49Z"/><path class="cls-1" d="M51.05,38.94S47,29.75,48.64,23.65c-.57,7.24,3.47,15.43,3.47,15.43Z"/><path class="cls-1" d="M55.21,39.64S56,27.9,61.43,20.93C56.53,29.47,56.34,40,56.34,40Z"/><path class="cls-1" d="M55.05,42s.64-10,5.24-15.88C56.16,33.34,56,42.28,56,42.28Z"/><path class="cls-1" d="M54.78,41s-1.12-13.47,4-21.73c-4.21,10-2.64,22.1-2.64,22.1Z"/><path class="cls-1" d="M54,40.74s-2.3-8.15-.1-13.38c-1.42,6.27,1,13.55,1,13.55Z"/><path class="cls-1" d="M54.46,42.36s-2-6.92-.1-11.35c-1.2,5.31.85,11.49.85,11.49Z"/><path class="cls-1" d="M54,41.69S50,32.49,51.61,26.4c-.57,7.24,3.47,15.43,3.47,15.43Z"/><path class="cls-1" d="M136.12,32.78s-.28-18.23-7-29.91c5.91,14,5.51,30.29,5.51,30.29Z"/><path class="cls-1" d="M136.18,36.39S136,20.92,130.26,11c5,11.87,4.65,25.69,4.65,25.69Z"/><path class="cls-1" d="M136.6,34.89S138.93,14.32,132.69.7c4.92,16.18,2.09,34.51,2.09,34.51Z"/><path class="cls-1" d="M137.63,34.68s3.53-12.17,1-20.61c1.48,9.91-2.15,20.72-2.15,20.72Z"/><path class="cls-1" d="M136.94,37.09s3-10.32.84-17.47c1.24,8.39-1.85,17.56-1.85,17.56Z"/><path class="cls-1" d="M137.56,36.13s5.92-13.47,4.13-23.15c.3,11.26-5.54,23.19-5.54,23.19Z"/><path class="cls-1" d="M132,36.51s-.27-18.23-7-29.91c5.91,14,5.51,30.29,5.51,30.29Z"/><path class="cls-1" d="M132.09,40.12s-.21-15.47-5.91-25.37c5,11.87,4.64,25.69,4.64,25.69Z"/><path class="cls-1" d="M132.51,38.62s2.33-20.57-3.9-34.19c4.91,16.18,2.08,34.51,2.08,34.51Z"/><path class="cls-1" d="M133.54,38.41s3.54-12.17,1-20.61c1.49,9.9-2.14,20.71-2.14,20.71Z"/><path class="cls-1" d="M132.85,40.82s3-10.32.84-17.48c1.24,8.4-1.84,17.57-1.84,17.57Z"/><path class="cls-1" d="M133.47,39.86s5.92-13.48,4.13-23.15c.3,11.25-5.54,23.19-5.54,23.19Z"/><path class="cls-1" d="M129.88,35.91s-3.34-12.83-9.73-20.51C126.4,24.79,129,36.3,129,36.3Z"/><path class="cls-1" d="M130.56,38.45s-2.83-10.89-8.24-17.39a60.21,60.21,0,0,1,7.47,17.72Z"/><path class="cls-1" d="M130.57,37.36s-2.08-14.7-8.47-23.79c6,11,7.35,24.17,7.35,24.17Z"/><path class="cls-1" d="M131.19,37.13s.17-8.88-3-14.61a40.11,40.11,0,0,1,2.22,14.78Z"/><path class="cls-1" d="M131.17,38.88s.15-7.52-2.5-12.39A33.84,33.84,0,0,1,130.53,39Z"/><path class="cls-1" d="M131.4,38.16s1.48-10-1.36-16.67c2.15,7.91.46,16.81.46,16.81Z"/><path class="cls-1" d="M127.89,38.88s-3.34-12.83-9.73-20.51c6.25,9.38,8.83,20.9,8.83,20.9Z"/><path class="cls-1" d="M128.56,41.42s-2.82-10.89-8.23-17.4a60.14,60.14,0,0,1,7.46,17.73Z"/><path class="cls-1" d="M128.58,40.33s-2.08-14.7-8.47-23.79c6,11,7.34,24.17,7.34,24.17Z"/><path class="cls-1" d="M129.2,40.09s.17-8.87-3-14.61a40,40,0,0,1,2.21,14.78Z"/><path class="cls-1" d="M129.18,41.85s.15-7.53-2.5-12.39A34.06,34.06,0,0,1,128.54,42Z"/><path class="cls-1" d="M129.41,41.12s1.48-10-1.36-16.67c2.15,7.92.46,16.82.46,16.82Z"/><path class="cls-1" d="M144.25,33.79s3.82-17.36-.48-29.18C146.69,18.55,142.62,34,142.62,34Z"/><path class="cls-1" d="M143.51,37.23s3.26-14.73-.37-24.75c2.45,11.82-1,24.91-1,24.91Z"/><path class="cls-1" d="M144.28,35.84s7-19.3,3.67-32.91c1.41,15.91-5.61,33-5.61,33Z"/><path class="cls-1" d="M145.38,35.76s6.37-11.19,5.62-19.49c-.7,9.58-6.86,19.46-6.86,19.46Z"/><path class="cls-1" d="M144.13,38s5.41-9.49,4.79-16.53c-.61,8.12-5.84,16.5-5.84,16.5Z"/><path class="cls-1" d="M145,37.13s9.11-12.17,9.44-21.57C152.2,26.29,143.53,37,143.53,37Z"/><path class="cls-1" d="M139.22,36.89s3.82-17.35-.49-29.18c2.93,13.94-1.14,29.38-1.14,29.38Z"/><path class="cls-1" d="M138.48,40.33s3.25-14.72-.38-24.74c2.46,11.82-1,24.91-1,24.91Z"/><path class="cls-1" d="M139.25,39s7-19.3,3.67-32.91c1.4,15.9-5.62,33-5.62,33Z"/><path class="cls-1" d="M140.35,38.86s6.36-11.19,5.62-19.48c-.71,9.57-6.86,19.46-6.86,19.46Z"/><path class="cls-1" d="M139.1,41.08s5.41-9.49,4.79-16.52c-.61,8.11-5.84,16.5-5.84,16.5Z"/><path class="cls-1" d="M140,40.23s9.11-12.17,9.44-21.56C147.17,29.4,138.5,40.12,138.5,40.12Z"/><path class="cls-1" d="M137.16,36.1s-.56-12.56-5.39-20.54c4.31,9.59,4.36,20.81,4.36,20.81Z"/><path class="cls-1" d="M137.27,38.58s-.45-10.65-4.54-17.41c3.64,8.13,3.68,17.65,3.68,17.65Z"/><path class="cls-1" d="M137.53,37.54S138.7,23.35,134.18,14c3.67,11.1,2.12,23.76,2.12,23.76Z"/><path class="cls-1" d="M138.23,37.39s2.16-8.42.24-14.2c1.21,6.8-1.05,14.29-1.05,14.29Z"/><path class="cls-1" d="M137.8,39.06s1.85-7.14.23-12c1,5.78-.91,12.12-.91,12.12Z"/><path class="cls-1" d="M138.21,38.39s3.76-9.34,2.35-16c.43,7.75-3.31,16-3.31,16Z"/><path class="cls-1" d="M134.44,38.71s-.55-12.56-5.38-20.54c4.31,9.59,4.36,20.81,4.36,20.81Z"/><path class="cls-1" d="M134.56,41.19S134.1,30.54,130,23.77c3.64,8.13,3.68,17.65,3.68,17.65Z"/><path class="cls-1" d="M134.82,40.15S136,26,131.46,16.64c3.68,11.1,2.12,23.75,2.12,23.75Z"/><path class="cls-1" d="M135.52,40s2.16-8.42.23-14.21c1.22,6.81-1,14.29-1,14.29Z"/><path class="cls-1" d="M135.09,41.66s1.85-7.13.23-12c1,5.77-.91,12.12-.91,12.12Z"/><path class="cls-1" d="M135.5,41s3.76-9.34,2.34-16c.43,7.75-3.3,16-3.3,16Z"/><path class="cls-1" d="M185.14,32.73s-.27-18.23-7-29.91c5.91,14,5.51,30.29,5.51,30.29Z"/><path class="cls-1" d="M185.21,36.34S185,20.87,179.29,11c5,11.87,4.64,25.69,4.64,25.69Z"/><path class="cls-1" d="M185.63,34.84S188,14.27,181.72.65c4.91,16.18,2.09,34.51,2.09,34.51Z"/><path class="cls-1" d="M186.66,34.63s3.53-12.17,1-20.61c1.48,9.9-2.15,20.71-2.15,20.71Z"/><path class="cls-1" d="M186,37s3-10.32.84-17.48C188.05,28,185,37.13,185,37.13Z"/><path class="cls-1" d="M186.59,36.08s5.92-13.48,4.12-23.16c.3,11.26-5.54,23.2-5.54,23.2Z"/><path class="cls-1" d="M181.05,36.46s-.27-18.24-7-29.92c5.91,14,5.51,30.29,5.51,30.29Z"/><path class="cls-1" d="M181.12,40.06s-.21-15.46-5.91-25.36c5,11.87,4.63,25.68,4.63,25.68Z"/><path class="cls-1" d="M181.54,38.56s2.32-20.57-3.9-34.19c4.91,16.18,2.08,34.52,2.08,34.52Z"/><path class="cls-1" d="M182.57,38.36s3.53-12.18,1-20.62c1.47,9.91-2.16,20.72-2.16,20.72Z"/><path class="cls-1" d="M181.88,40.77s3-10.33.84-17.48c1.24,8.4-1.85,17.57-1.85,17.57Z"/><path class="cls-1" d="M182.5,39.81s5.92-13.48,4.12-23.16c.3,11.26-5.53,23.2-5.53,23.2Z"/><path class="cls-1" d="M178.91,35.86S175.57,23,169.18,15.35c6.25,9.38,8.82,20.9,8.82,20.9Z"/><path class="cls-1" d="M179.58,38.4s-2.83-10.89-8.23-17.4a60.14,60.14,0,0,1,7.46,17.73Z"/><path class="cls-1" d="M179.6,37.31s-2.08-14.7-8.47-23.79c6,11,7.34,24.16,7.34,24.16Z"/><path class="cls-1" d="M180.22,37.07s.17-8.87-3-14.61a40,40,0,0,1,2.21,14.79Z"/><path class="cls-1" d="M180.2,38.83s.15-7.53-2.5-12.39A34.08,34.08,0,0,1,179.56,39Z"/><path class="cls-1" d="M180.43,38.1s1.48-10-1.36-16.67c2.15,7.92.45,16.82.45,16.82Z"/><path class="cls-1" d="M176.92,38.83S173.58,26,167.19,18.32c6.25,9.38,8.82,20.9,8.82,20.9Z"/><path class="cls-1" d="M177.59,41.36S174.77,30.48,169.36,24a60.14,60.14,0,0,1,7.46,17.73Z"/><path class="cls-1" d="M177.6,40.27s-2.07-14.69-8.47-23.78c6,11,7.35,24.16,7.35,24.16Z"/><path class="cls-1" d="M178.23,40s.17-8.88-3-14.61a40,40,0,0,1,2.21,14.78Z"/><path class="cls-1" d="M178.2,41.8s.15-7.53-2.49-12.4a34.08,34.08,0,0,1,1.86,12.54Z"/><path class="cls-1" d="M178.44,41.07s1.48-10-1.37-16.67c2.16,7.91.47,16.81.47,16.81Z"/><path class="cls-1" d="M193.28,33.74s3.82-17.36-.49-29.19c2.93,14-1.14,29.38-1.14,29.38Z"/><path class="cls-1" d="M192.54,37.17s3.25-14.72-.38-24.74c2.46,11.82-1,24.91-1,24.91Z"/><path class="cls-1" d="M193.31,35.79s7-19.3,3.67-32.91c1.41,15.9-5.61,33-5.61,33Z"/><path class="cls-1" d="M194.41,35.7s6.37-11.19,5.62-19.48c-.71,9.57-6.86,19.46-6.86,19.46Z"/><path class="cls-1" d="M193.16,37.92s5.41-9.49,4.79-16.52c-.61,8.11-5.84,16.5-5.84,16.5Z"/><path class="cls-1" d="M194,37.07s9.11-12.17,9.44-21.56C201.23,26.24,192.56,37,192.56,37Z"/><path class="cls-1" d="M188.25,36.84s3.82-17.36-.49-29.18C190.68,21.6,186.61,37,186.61,37Z"/><path class="cls-1" d="M187.51,40.28s3.25-14.72-.38-24.75c2.46,11.82-1,24.92-1,24.92Z"/><path class="cls-1" d="M188.28,38.89s7-19.3,3.66-32.91c1.41,15.91-5.61,33-5.61,33Z"/><path class="cls-1" d="M189.38,38.81s6.36-11.19,5.62-19.49c-.71,9.58-6.87,19.46-6.87,19.46Z"/><path class="cls-1" d="M188.12,41s5.42-9.49,4.8-16.52c-.61,8.11-5.85,16.49-5.85,16.49Z"/><path class="cls-1" d="M189,40.18s9.1-12.17,9.43-21.57c-2.22,10.74-10.89,21.46-10.89,21.46Z"/><path class="cls-1" d="M186.18,36s-.55-12.55-5.39-20.53c4.32,9.58,4.37,20.81,4.37,20.81Z"/><path class="cls-1" d="M186.3,38.53s-.46-10.65-4.54-17.42c3.64,8.13,3.68,17.65,3.68,17.65Z"/><path class="cls-1" d="M186.56,37.49S187.73,23.3,183.2,14c3.68,11.1,2.12,23.75,2.12,23.75Z"/><path class="cls-1" d="M187.25,37.34s2.17-8.42.25-14.21c1.21,6.81-1.05,14.29-1.05,14.29Z"/><path class="cls-1" d="M186.83,39s1.85-7.13.23-12c1,5.77-.91,12.12-.91,12.12Z"/><path class="cls-1" d="M187.24,38.34s3.76-9.34,2.34-16c.43,7.75-3.31,16-3.31,16Z"/><path class="cls-1" d="M183.47,38.65s-.55-12.56-5.39-20.53c4.32,9.58,4.37,20.8,4.37,20.8Z"/><path class="cls-1" d="M183.59,41.13s-.46-10.65-4.55-17.41c3.64,8.13,3.69,17.65,3.69,17.65Z"/><path class="cls-1" d="M183.85,40.09s1.16-14.19-3.36-23.5c3.68,11.09,2.12,23.75,2.12,23.75Z"/><path class="cls-1" d="M184.54,40s2.17-8.42.24-14.21c1.21,6.8-1,14.29-1,14.29Z"/><path class="cls-1" d="M184.12,41.61s1.84-7.14.22-12c1,5.77-.9,12.11-.9,12.11Z"/><path class="cls-1" d="M184.52,41s3.77-9.34,2.35-16c.43,7.75-3.31,16-3.31,16Z"/><path class="cls-1" d="M254.88,34.16s-.27-18.24-7-29.92c5.91,14,5.51,30.29,5.51,30.29Z"/><path class="cls-1" d="M255,37.76S254.73,22.3,249,12.4c5,11.87,4.64,25.69,4.64,25.69Z"/><path class="cls-1" d="M255.37,36.26s2.32-20.57-3.91-34.19c4.91,16.18,2.08,34.52,2.08,34.52Z"/><path class="cls-1" d="M256.39,36.06s3.54-12.18,1-20.62c1.48,9.91-2.15,20.72-2.15,20.72Z"/><path class="cls-1" d="M255.7,38.47s3-10.33.85-17.48c1.24,8.39-1.85,17.57-1.85,17.57Z"/><path class="cls-1" d="M256.32,37.51s5.92-13.48,4.13-23.16c.3,11.26-5.54,23.2-5.54,23.2Z"/><path class="cls-1" d="M250.79,37.88s-.27-18.23-7-29.91c5.91,14,5.51,30.29,5.51,30.29Z"/><path class="cls-1" d="M250.86,41.49s-.21-15.46-5.92-25.37c5,11.88,4.64,25.69,4.64,25.69Z"/><path class="cls-1" d="M251.28,40s2.32-20.57-3.91-34.19c4.91,16.18,2.09,34.52,2.09,34.52Z"/><path class="cls-1" d="M252.31,39.78s3.53-12.17,1-20.61c1.48,9.91-2.15,20.72-2.15,20.72Z"/><path class="cls-1" d="M251.62,42.2s3-10.33.84-17.48c1.24,8.39-1.85,17.56-1.85,17.56Z"/><path class="cls-1" d="M252.24,41.24s5.92-13.48,4.12-23.16c.3,11.26-5.53,23.19-5.53,23.19Z"/><path class="cls-1" d="M248.65,37.28s-3.34-12.83-9.73-20.5c6.25,9.38,8.82,20.9,8.82,20.9Z"/><path class="cls-1" d="M249.32,39.83s-2.83-10.89-8.23-17.4a60,60,0,0,1,7.46,17.73Z"/><path class="cls-1" d="M249.33,38.73S247.26,24,240.87,15c6,11,7.34,24.16,7.34,24.16Z"/><path class="cls-1" d="M250,38.5s.17-8.87-3-14.62a40.05,40.05,0,0,1,2.21,14.79Z"/><path class="cls-1" d="M249.93,40.26s.15-7.53-2.49-12.4A34.08,34.08,0,0,1,249.3,40.4Z"/><path class="cls-1" d="M250.17,39.53s1.48-10-1.36-16.67c2.15,7.91.45,16.81.45,16.81Z"/><path class="cls-1" d="M246.66,40.25s-3.34-12.83-9.73-20.51c6.25,9.39,8.82,20.91,8.82,20.91Z"/><path class="cls-1" d="M247.33,42.79S244.5,31.9,239.1,25.4a60,60,0,0,1,7.46,17.72Z"/><path class="cls-1" d="M247.34,41.7s-2.07-14.7-8.47-23.79c6,11,7.35,24.17,7.35,24.17Z"/><path class="cls-1" d="M248,41.47s.17-8.88-3-14.61a40.21,40.21,0,0,1,2.21,14.78Z"/><path class="cls-1" d="M247.94,43.22s.15-7.53-2.49-12.39a34.08,34.08,0,0,1,1.86,12.54Z"/><path class="cls-1" d="M248.17,42.5s1.49-10-1.35-16.67c2.14,7.91.45,16.81.45,16.81Z"/><path class="cls-1" d="M263,35.16S266.84,17.8,262.53,6c2.92,13.94-1.14,29.38-1.14,29.38Z"/><path class="cls-1" d="M262.28,38.6s3.25-14.72-.38-24.74c2.46,11.81-1,24.91-1,24.91Z"/><path class="cls-1" d="M263.05,37.22s7-19.31,3.67-32.92c1.4,15.91-5.62,33-5.62,33Z"/><path class="cls-1" d="M264.15,37.13s6.36-11.19,5.62-19.49c-.71,9.57-6.86,19.46-6.86,19.46Z"/><path class="cls-1" d="M262.9,39.35s5.41-9.49,4.79-16.52c-.61,8.11-5.84,16.5-5.84,16.5Z"/><path class="cls-1" d="M263.75,38.5s9.11-12.17,9.44-21.57c-2.22,10.74-10.9,21.46-10.9,21.46Z"/><path class="cls-1" d="M258,38.27s3.82-17.36-.49-29.19c2.92,13.94-1.15,29.39-1.15,29.39Z"/><path class="cls-1" d="M257.24,41.7S260.5,27,256.87,17c2.45,11.82-1,24.91-1,24.91Z"/><path class="cls-1" d="M258,40.33S265,21,261.68,7.41c1.41,15.9-5.61,33-5.61,33Z"/><path class="cls-1" d="M259.11,40.23s6.37-11.19,5.62-19.48c-.7,9.57-6.86,19.46-6.86,19.46Z"/><path class="cls-1" d="M257.87,42.45s5.4-9.49,4.78-16.52c-.61,8.12-5.84,16.5-5.84,16.5Z"/><path class="cls-1" d="M258.71,41.61s9.11-12.18,9.44-21.57c-2.22,10.73-10.89,21.45-10.89,21.45Z"/><path class="cls-1" d="M255.92,37.47s-.55-12.56-5.39-20.53c4.31,9.58,4.37,20.81,4.37,20.81Z"/><path class="cls-1" d="M256,40s-.46-10.65-4.55-17.41c3.65,8.13,3.69,17.65,3.69,17.65Z"/><path class="cls-1" d="M256.3,38.92s1.17-14.2-3.36-23.52c3.68,11.1,2.12,23.76,2.12,23.76Z"/><path class="cls-1" d="M257,38.76s2.17-8.41.24-14.2c1.21,6.81-1,14.29-1,14.29Z"/><path class="cls-1" d="M256.57,40.43s1.84-7.14.22-12c1,5.77-.9,12.11-.9,12.11Z"/><path class="cls-1" d="M257,39.77s3.77-9.34,2.35-16c.43,7.76-3.31,16-3.31,16Z"/><path class="cls-1" d="M253.21,40.08s-.55-12.56-5.39-20.54c4.31,9.59,4.37,20.81,4.37,20.81Z"/><path class="cls-1" d="M253.33,42.56s-.46-10.65-4.55-17.42c3.64,8.14,3.68,17.65,3.68,17.65Z"/><path class="cls-1" d="M253.58,41.52s1.18-14.19-3.35-23.51c3.67,11.1,2.12,23.75,2.12,23.75Z"/><path class="cls-1" d="M254.28,41.37s2.17-8.42.24-14.21c1.21,6.81-1.05,14.3-1.05,14.3Z"/><path class="cls-1" d="M253.86,43s1.84-7.14.22-12c1,5.77-.91,12.12-.91,12.12Z"/><path class="cls-1" d="M254.26,42.37s3.77-9.34,2.35-16c.43,7.75-3.31,16-3.31,16Z"/><path class="cls-1" d="M117.1,32.63S117,14.4,123.71,2.51c-5.8,14.18-5,30.45-5,30.45Z"/><path class="cls-1" d="M117.1,36.24s-.09-15.47,5.58-25.55c-4.9,12-4.26,25.83-4.26,25.83Z"/><path class="cls-1" d="M116.64,34.75S113.83,14.26,120,.45C115.24,16.78,118.52,35,118.52,35Z"/><path class="cls-1" d="M115.58,34.58S111.69,22.52,114.16,14c-1.32,10,2.64,20.65,2.64,20.65Z"/><path class="cls-1" d="M116.34,37S113,26.74,115.11,19.52C114,28,117.37,37,117.37,37Z"/><path class="cls-1" d="M115.68,36S109.31,22.74,111,13c-.08,11.26,6.17,23,6.17,23Z"/><path class="cls-1" d="M121.38,36.23S121.29,18,128,6.1c-5.79,14.19-5,30.46-5,30.46Z"/><path class="cls-1" d="M121.39,39.84s-.1-15.47,5.57-25.55c-4.9,12-4.25,25.83-4.25,25.83Z"/><path class="cls-1" d="M120.92,38.35s-2.81-20.49,3.33-34.3c-4.73,16.33-1.44,34.57-1.44,34.57Z"/><path class="cls-1" d="M119.86,38.18S116,26.12,118.45,17.6c-1.32,10,2.64,20.64,2.64,20.64Z"/><path class="cls-1" d="M120.62,40.56s-3.31-10.22-1.22-17.44c-1.11,8.43,2.26,17.5,2.26,17.5Z"/><path class="cls-1" d="M120,39.63s-6.38-13.29-4.73-23c-.07,11.27,6.18,23,6.18,23Z"/><path class="cls-1" d="M123.57,35.57s3.18-12.94,9.61-20.82c-6.25,9.58-8.66,21.18-8.66,21.18Z"/><path class="cls-1" d="M122.94,38.12s2.68-11,8.12-17.65a59.66,59.66,0,0,0-7.32,18Z"/><path class="cls-1" d="M122.9,37s1.84-14.76,8.24-24c-5.94,11.19-7.08,24.39-7.08,24.39Z"/><path class="cls-1" d="M122.25,36.82S121.9,28,125,22.12A39.23,39.23,0,0,0,123,37Z"/><path class="cls-1" d="M122.32,38.57s-.31-7.52,2.31-12.46A33.22,33.22,0,0,0,123,38.7Z"/><path class="cls-1" d="M122.06,37.86s-1.73-9.95,1.06-16.71C121.07,29.13,123,38,123,38Z"/><path class="cls-1" d="M125.69,38.47s3.18-12.94,9.6-20.81c-6.25,9.58-8.66,21.17-8.66,21.17Z"/><path class="cls-1" d="M125.05,41s2.69-11,8.12-17.65a59.86,59.86,0,0,0-7.32,18Z"/><path class="cls-1" d="M125,39.93s1.84-14.75,8.24-24c-5.94,11.19-7.07,24.39-7.07,24.39Z"/><path class="cls-1" d="M124.36,39.72S124,30.86,127.11,25a39.23,39.23,0,0,0-2,14.85Z"/><path class="cls-1" d="M124.43,41.48S124.12,34,126.74,29a33.22,33.22,0,0,0-1.66,12.59Z"/><path class="cls-1" d="M124.17,40.76s-1.73-9.94,1.06-16.71c-2,8-.13,16.82-.13,16.82Z"/><path class="cls-1" d="M108.74,33.89s-4.29-17.23-.1-29.18c-2.72,14,1.78,29.33,1.78,29.33Z"/><path class="cls-1" d="M109.57,37.31s-3.65-14.62-.12-24.75C107.17,24.45,111,37.43,111,37.43Z"/><path class="cls-1" d="M108.75,36s-7.6-19.07-4.45-32.79c-1.12,16,6.46,32.84,6.46,32.84Z"/><path class="cls-1" d="M107.62,35.9s-6.79-11-6.19-19.3c.92,9.54,7.47,19.23,7.47,19.23Z"/><path class="cls-1" d="M109,38.08s-5.76-9.32-5.27-16.37C104.48,29.8,110,38,110,38Z"/><path class="cls-1" d="M108.06,37.26S98.43,25.38,97.9,16c2.51,10.66,11.65,21.11,11.65,21.11Z"/><path class="cls-1" d="M114,36.84s-4.29-17.23-.1-29.19c-2.73,14,1.78,29.33,1.78,29.33Z"/><path class="cls-1" d="M114.82,40.25s-3.65-14.61-.12-24.75c-2.29,11.9,1.55,24.88,1.55,24.88Z"/><path class="cls-1" d="M114,38.89s-7.61-19.07-4.45-32.78C108.43,22.05,116,39,116,39Z"/><path class="cls-1" d="M112.86,38.84s-6.78-11-6.18-19.3c.92,9.55,7.46,19.24,7.46,19.24Z"/><path class="cls-1" d="M114.2,41s-5.77-9.31-5.27-16.36c.79,8.09,6.35,16.3,6.35,16.3Z"/><path class="cls-1" d="M113.3,40.2s-9.62-11.88-10.16-21.26C105.65,29.6,114.8,40,114.8,40Z"/><path class="cls-1" d="M116.1,36s.31-12.57,5.12-20.7C117,25,117.15,36.22,117.15,36.22Z"/><path class="cls-1" d="M116,38.47s.26-10.66,4.33-17.56c-3.59,8.25-3.43,17.76-3.43,17.76Z"/><path class="cls-1" d="M115.74,37.44s-1.5-14.15,3-23.61C115.15,25,117,37.64,117,37.64Z"/><path class="cls-1" d="M115,37.31s-2.4-8.35-.54-14.2c-1.11,6.85,1.37,14.25,1.37,14.25Z"/><path class="cls-1" d="M115.49,39s-2-7.08-.48-12c-.93,5.8,1.18,12.09,1.18,12.09Z"/><path class="cls-1" d="M115.06,38.31s-4.07-9.22-2.74-15.92c-.29,7.77,3.73,15.93,3.73,15.93Z"/><path class="cls-1" d="M118.94,38.5s.31-12.57,5.13-20.7C119.82,27.52,120,38.74,120,38.74Z"/><path class="cls-1" d="M118.87,41s.25-10.66,4.32-17.56c-3.58,8.25-3.43,17.76-3.43,17.76Z"/><path class="cls-1" d="M118.58,40s-1.49-14.15,3-23.61c-3.55,11.21-1.69,23.81-1.69,23.81Z"/><path class="cls-1" d="M117.86,39.83s-2.4-8.35-.53-14.2c-1.11,6.85,1.37,14.25,1.37,14.25Z"/><path class="cls-1" d="M118.33,41.48s-2-7.08-.47-12c-.93,5.8,1.18,12.08,1.18,12.08Z"/><path class="cls-1" d="M117.9,40.83s-4.06-9.22-2.74-15.92c-.28,7.77,3.73,15.93,3.73,15.93Z"/><path class="cls-1" d="M188.66,34s-.1-18.24,6.61-30.12c-5.79,14.18-5.05,30.45-5.05,30.45Z"/><path class="cls-1" d="M188.66,37.61s-.09-15.47,5.57-25.55c-4.89,12-4.24,25.83-4.24,25.83Z"/><path class="cls-1" d="M188.2,36.12s-2.81-20.49,3.32-34.3c-4.72,16.33-1.44,34.57-1.44,34.57Z"/><path class="cls-1" d="M187.14,36s-3.89-12.06-1.42-20.58c-1.32,10,2.64,20.64,2.64,20.64Z"/><path class="cls-1" d="M187.9,38.33s-3.31-10.22-1.23-17.44c-1.1,8.43,2.26,17.5,2.26,17.5Z"/><path class="cls-1" d="M187.24,37.39s-6.37-13.28-4.72-23c-.08,11.27,6.17,23,6.17,23Z"/><path class="cls-1" d="M192.94,37.59s-.09-18.23,6.61-30.12c-5.79,14.19-5.05,30.46-5.05,30.46Z"/><path class="cls-1" d="M193,41.2s-.1-15.46,5.57-25.54c-4.9,12-4.25,25.83-4.25,25.83Z"/><path class="cls-1" d="M192.48,39.72s-2.81-20.49,3.33-34.31C191.08,21.75,194.36,40,194.36,40Z"/><path class="cls-1" d="M191.42,39.54S187.53,27.49,190,19c-1.32,9.94,2.64,20.64,2.64,20.64Z"/><path class="cls-1" d="M192.18,41.93S188.87,31.71,191,24.49c-1.1,8.43,2.27,17.5,2.27,17.5Z"/><path class="cls-1" d="M191.53,41s-6.38-13.28-4.73-23C186.73,29.24,193,41,193,41Z"/><path class="cls-1" d="M195.14,36.93s3.18-12.93,9.6-20.81c-6.25,9.58-8.66,21.17-8.66,21.17Z"/><path class="cls-1" d="M194.5,39.49s2.68-11,8.12-17.65a59.73,59.73,0,0,0-7.33,18Z"/><path class="cls-1" d="M194.46,38.4s1.84-14.76,8.23-24c-5.93,11.18-7.07,24.38-7.07,24.38Z"/><path class="cls-1" d="M193.81,38.19s-.35-8.87,2.75-14.7a39.19,39.19,0,0,0-2,14.84Z"/><path class="cls-1" d="M193.87,39.94s-.3-7.52,2.32-12.47a33.26,33.26,0,0,0-1.66,12.6Z"/><path class="cls-1" d="M193.62,39.22s-1.73-9.94,1.06-16.7c-2.05,8-.13,16.82-.13,16.82Z"/><path class="cls-1" d="M197.25,39.84s3.18-12.94,9.6-20.82c-6.25,9.58-8.66,21.18-8.66,21.18Z"/><path class="cls-1" d="M196.61,42.39s2.69-11,8.12-17.65a60,60,0,0,0-7.33,18Z"/><path class="cls-1" d="M196.57,41.3s1.84-14.76,8.23-24c-5.93,11.19-7.06,24.39-7.06,24.39Z"/><path class="cls-1" d="M195.92,41.09s-.35-8.87,2.75-14.7a39.23,39.23,0,0,0-2,14.85Z"/><path class="cls-1" d="M196,42.85s-.31-7.53,2.31-12.47A33.22,33.22,0,0,0,196.64,43Z"/><path class="cls-1" d="M195.73,42.13s-1.73-10,1.06-16.71c-2,8-.13,16.82-.13,16.82Z"/><path class="cls-1" d="M180.3,35.26S176,18,180.2,6.08c-2.72,14,1.78,29.33,1.78,29.33Z"/><path class="cls-1" d="M181.13,38.67s-3.65-14.61-.11-24.74c-2.3,11.89,1.54,24.87,1.54,24.87Z"/><path class="cls-1" d="M180.31,37.32s-7.6-19.08-4.45-32.79c-1.12,15.94,6.46,32.84,6.46,32.84Z"/><path class="cls-1" d="M179.18,37.26S172.4,26.28,173,18c.92,9.55,7.47,19.24,7.47,19.24Z"/><path class="cls-1" d="M180.51,39.44s-5.76-9.31-5.27-16.36c.8,8.09,6.35,16.31,6.35,16.31Z"/><path class="cls-1" d="M179.62,38.62S170,26.74,169.46,17.36C172,28,181.11,38.47,181.11,38.47Z"/><path class="cls-1" d="M185.55,38.21S181.26,21,185.45,9c-2.72,14,1.78,29.33,1.78,29.33Z"/><path class="cls-1" d="M186.38,41.62s-3.65-14.62-.12-24.75c-2.28,11.89,1.55,24.87,1.55,24.87Z"/><path class="cls-1" d="M185.56,40.26S178,21.19,181.11,7.47c-1.12,16,6.45,32.85,6.45,32.85Z"/><path class="cls-1" d="M184.42,40.21s-6.78-11-6.18-19.31c.92,9.55,7.46,19.24,7.46,19.24Z"/><path class="cls-1" d="M185.76,42.39S180,33.07,180.49,26c.79,8.09,6.35,16.31,6.35,16.31Z"/><path class="cls-1" d="M184.86,41.57s-9.62-11.88-10.16-21.26c2.51,10.65,11.66,21.1,11.66,21.1Z"/><path class="cls-1" d="M187.66,37.34s.3-12.56,5.12-20.69c-4.24,9.72-4.07,20.94-4.07,20.94Z"/><path class="cls-1" d="M187.58,39.83s.26-10.66,4.33-17.55C188.32,30.52,188.48,40,188.48,40Z"/><path class="cls-1" d="M187.3,38.8s-1.5-14.15,3-23.61C186.71,26.4,188.58,39,188.58,39Z"/><path class="cls-1" d="M186.58,38.67s-2.4-8.34-.54-14.19c-1.11,6.84,1.37,14.25,1.37,14.25Z"/><path class="cls-1" d="M187.05,40.33s-2.05-7.08-.48-12c-.93,5.8,1.18,12.08,1.18,12.08Z"/><path class="cls-1" d="M186.62,39.67s-4.07-9.21-2.75-15.91c-.28,7.76,3.74,15.92,3.74,15.92Z"/><path class="cls-1" d="M190.5,39.86s.31-12.56,5.13-20.69c-4.25,9.72-4.07,20.94-4.07,20.94Z"/><path class="cls-1" d="M190.43,42.35s.25-10.66,4.32-17.55c-3.58,8.24-3.43,17.76-3.43,17.76Z"/><path class="cls-1" d="M190.14,41.33s-1.49-14.16,3-23.62c-3.56,11.21-1.7,23.82-1.7,23.82Z"/><path class="cls-1" d="M189.42,41.19S187,32.84,188.88,27c-1.1,6.84,1.38,14.25,1.38,14.25Z"/><path class="cls-1" d="M189.89,42.85s-2-7.08-.47-12c-.93,5.8,1.18,12.09,1.18,12.09Z"/><path class="cls-1" d="M189.46,42.19s-4.07-9.21-2.74-15.91c-.29,7.77,3.73,15.92,3.73,15.92Z"/><path class="cls-1" d="M163.09,34.57S163,16.34,169.7,4.45c-5.8,14.18-5.06,30.45-5.06,30.45Z"/><path class="cls-1" d="M163.09,38.18s-.1-15.47,5.57-25.55c-4.89,12-4.25,25.83-4.25,25.83Z"/><path class="cls-1" d="M162.62,36.69S159.81,16.2,166,2.39C161.22,18.72,164.51,37,164.51,37Z"/><path class="cls-1" d="M161.56,36.52s-3.88-12.06-1.41-20.58c-1.32,10,2.64,20.65,2.64,20.65Z"/><path class="cls-1" d="M162.32,38.91S159,28.68,161.1,21.46C160,29.89,163.36,39,163.36,39Z"/><path class="cls-1" d="M161.67,38S155.3,24.68,157,15c-.08,11.26,6.17,23,6.17,23Z"/><path class="cls-1" d="M167.37,38.17S167.28,19.93,174,8c-5.8,14.19-5,30.46-5,30.46Z"/><path class="cls-1" d="M167.37,41.78s-.09-15.47,5.57-25.55c-4.89,12-4.24,25.83-4.24,25.83Z"/><path class="cls-1" d="M166.91,40.29S164.1,19.8,170.23,6c-4.72,16.33-1.44,34.56-1.44,34.56Z"/><path class="cls-1" d="M165.85,40.12S162,28.06,164.44,19.54c-1.33,10,2.63,20.64,2.63,20.64Z"/><path class="cls-1" d="M166.61,42.5s-3.31-10.22-1.23-17.44c-1.1,8.43,2.26,17.5,2.26,17.5Z"/><path class="cls-1" d="M166,41.56s-6.37-13.28-4.72-23c-.08,11.27,6.17,23,6.17,23Z"/><path class="cls-1" d="M169.56,37.5s3.18-12.93,9.6-20.81c-6.24,9.58-8.66,21.18-8.66,21.18Z"/><path class="cls-1" d="M168.92,40.06s2.69-11,8.12-17.65a60,60,0,0,0-7.32,18Z"/><path class="cls-1" d="M168.89,39s1.84-14.76,8.23-24c-5.94,11.18-7.07,24.38-7.07,24.38Z"/><path class="cls-1" d="M168.24,38.76s-.35-8.87,2.75-14.7a39.12,39.12,0,0,0-2,14.85Z"/><path class="cls-1" d="M168.3,40.51S168,33,170.62,28.05A33.2,33.2,0,0,0,169,40.64Z"/><path class="cls-1" d="M168.05,39.79s-1.73-9.94,1.06-16.7c-2.06,8-.13,16.82-.13,16.82Z"/><path class="cls-1" d="M171.67,40.41s3.18-12.94,9.61-20.81c-6.25,9.57-8.66,21.17-8.66,21.17Z"/><path class="cls-1" d="M171,43s2.69-11,8.12-17.64a59.86,59.86,0,0,0-7.32,18Z"/><path class="cls-1" d="M171,41.87s1.84-14.76,8.23-24c-5.94,11.19-7.07,24.39-7.07,24.39Z"/><path class="cls-1" d="M170.35,41.66S170,32.79,173.1,27a39.12,39.12,0,0,0-2,14.85Z"/><path class="cls-1" d="M170.41,43.42s-.3-7.52,2.32-12.47a33.22,33.22,0,0,0-1.66,12.59Z"/><path class="cls-1" d="M170.16,42.7s-1.73-10,1.06-16.71c-2.05,8-.13,16.82-.13,16.82Z"/><path class="cls-1" d="M154.73,35.83s-4.29-17.23-.1-29.18c-2.72,14,1.78,29.33,1.78,29.33Z"/><path class="cls-1" d="M155.56,39.25s-3.65-14.62-.12-24.75C153.15,26.39,157,39.37,157,39.37Z"/><path class="cls-1" d="M154.74,37.89s-7.61-19.08-4.45-32.79c-1.12,15.94,6.45,32.84,6.45,32.84Z"/><path class="cls-1" d="M153.6,37.84s-6.78-11-6.18-19.31c.92,9.55,7.46,19.24,7.46,19.24Z"/><path class="cls-1" d="M154.93,40s-5.76-9.31-5.26-16.36C150.46,31.74,156,40,156,40Z"/><path class="cls-1" d="M154,39.2s-9.62-11.89-10.16-21.27C146.39,28.59,155.54,39,155.54,39Z"/><path class="cls-1" d="M160,38.78s-4.28-17.23-.09-29.19c-2.73,14,1.78,29.33,1.78,29.33Z"/><path class="cls-1" d="M160.81,42.19s-3.65-14.61-.12-24.75c-2.29,11.9,1.54,24.88,1.54,24.88Z"/><path class="cls-1" d="M160,40.83s-7.6-19.07-4.44-32.78C154.41,24,162,40.89,162,40.89Z"/><path class="cls-1" d="M158.85,40.78s-6.78-11-6.18-19.3c.92,9.54,7.46,19.23,7.46,19.23Z"/><path class="cls-1" d="M160.18,43s-5.76-9.32-5.27-16.36c.8,8.09,6.35,16.3,6.35,16.3Z"/><path class="cls-1" d="M159.29,42.14s-9.62-11.88-10.16-21.26C151.64,31.54,160.79,42,160.79,42Z"/><path class="cls-1" d="M162.08,37.92s.31-12.57,5.13-20.7c-4.24,9.72-4.07,20.94-4.07,20.94Z"/><path class="cls-1" d="M162,40.4s.25-10.66,4.32-17.55c-3.58,8.24-3.43,17.76-3.43,17.76Z"/><path class="cls-1" d="M161.72,39.38s-1.49-14.16,3-23.62C161.14,27,163,39.58,163,39.58Z"/><path class="cls-1" d="M161,39.24s-2.4-8.34-.54-14.19c-1.1,6.84,1.38,14.25,1.38,14.25Z"/><path class="cls-1" d="M161.47,40.9s-2-7.08-.47-12c-.93,5.8,1.18,12.09,1.18,12.09Z"/><path class="cls-1" d="M161,40.24S157,31,158.3,24.33C158,32.1,162,40.25,162,40.25Z"/><path class="cls-1" d="M164.93,40.44s.31-12.57,5.12-20.7C165.81,29.46,166,40.68,166,40.68Z"/><path class="cls-1" d="M164.85,42.93s.26-10.67,4.33-17.56c-3.58,8.24-3.43,17.76-3.43,17.76Z"/><path class="cls-1" d="M164.57,41.89s-1.49-14.14,3-23.6C164,29.5,165.85,42.1,165.85,42.1Z"/><path class="cls-1" d="M163.85,41.76s-2.4-8.34-.54-14.19c-1.1,6.84,1.37,14.25,1.37,14.25Z"/><path class="cls-1" d="M164.32,43.42s-2-7.08-.48-12c-.92,5.8,1.18,12.09,1.18,12.09Z"/><path class="cls-1" d="M163.89,42.76s-4.07-9.21-2.74-15.91c-.29,7.77,3.73,15.92,3.73,15.92Z"/><path class="cls-1" d="M171.52,34.25S171.43,16,178.14,4.13c-5.8,14.18-5.06,30.45-5.06,30.45Z"/><path class="cls-1" d="M171.53,37.86s-.1-15.47,5.57-25.55c-4.89,12-4.25,25.83-4.25,25.83Z"/><path class="cls-1" d="M171.06,36.37s-2.81-20.49,3.33-34.3c-4.73,16.33-1.45,34.57-1.45,34.57Z"/><path class="cls-1" d="M170,36.2s-3.89-12.06-1.41-20.58c-1.32,10,2.63,20.65,2.63,20.65Z"/><path class="cls-1" d="M170.76,38.58s-3.31-10.22-1.22-17.44c-1.11,8.43,2.26,17.5,2.26,17.5Z"/><path class="cls-1" d="M170.11,37.65s-6.38-13.29-4.73-23c-.07,11.26,6.17,23,6.17,23Z"/><path class="cls-1" d="M175.81,37.85s-.1-18.24,6.61-30.13c-5.8,14.19-5,30.46-5,30.46Z"/><path class="cls-1" d="M175.81,41.46s-.09-15.47,5.57-25.55c-4.89,12-4.25,25.83-4.25,25.83Z"/><path class="cls-1" d="M175.35,40s-2.81-20.49,3.32-34.3C174,22,177.23,40.24,177.23,40.24Z"/><path class="cls-1" d="M174.29,39.79s-3.89-12-1.42-20.57c-1.32,10,2.64,20.64,2.64,20.64Z"/><path class="cls-1" d="M175.05,42.18S171.74,32,173.82,24.74c-1.1,8.43,2.26,17.5,2.26,17.5Z"/><path class="cls-1" d="M174.39,41.24S168,28,169.67,18.22c-.08,11.27,6.17,23,6.17,23Z"/><path class="cls-1" d="M178,37.18s3.18-12.93,9.6-20.81c-6.24,9.58-8.66,21.17-8.66,21.17Z"/><path class="cls-1" d="M177.36,39.74s2.69-11,8.12-17.65a59.86,59.86,0,0,0-7.32,18Z"/><path class="cls-1" d="M177.33,38.65s1.83-14.76,8.23-24C179.62,25.79,178.49,39,178.49,39Z"/><path class="cls-1" d="M176.68,38.44s-.36-8.87,2.74-14.71a39.29,39.29,0,0,0-2,14.86Z"/><path class="cls-1" d="M176.74,40.19s-.31-7.52,2.31-12.46a33.43,33.43,0,0,0-1.66,12.59Z"/><path class="cls-1" d="M176.48,39.47s-1.73-9.94,1.06-16.71c-2,8-.12,16.83-.12,16.83Z"/><path class="cls-1" d="M180.11,40.09s3.18-12.94,9.6-20.82c-6.24,9.58-8.66,21.18-8.66,21.18Z"/><path class="cls-1" d="M179.47,42.64s2.69-11,8.12-17.64a59.86,59.86,0,0,0-7.32,18Z"/><path class="cls-1" d="M179.44,41.55s1.84-14.76,8.23-24C181.73,28.7,180.6,41.9,180.6,41.9Z"/><path class="cls-1" d="M178.79,41.34s-.35-8.87,2.75-14.7a39.12,39.12,0,0,0-2,14.85Z"/><path class="cls-1" d="M178.85,43.1s-.31-7.52,2.32-12.47a33.22,33.22,0,0,0-1.66,12.59Z"/><path class="cls-1" d="M178.6,42.38s-1.73-10,1.06-16.71c-2.06,8-.13,16.82-.13,16.82Z"/><path class="cls-1" d="M163.16,35.51s-4.28-17.23-.09-29.18c-2.73,14,1.78,29.33,1.78,29.33Z"/><path class="cls-1" d="M164,38.92s-3.65-14.61-.12-24.74c-2.29,11.89,1.55,24.87,1.55,24.87Z"/><path class="cls-1" d="M163.17,37.57s-7.6-19.08-4.44-32.79c-1.13,15.94,6.45,32.84,6.45,32.84Z"/><path class="cls-1" d="M162,37.51s-6.78-11-6.18-19.3c.92,9.55,7.46,19.24,7.46,19.24Z"/><path class="cls-1" d="M163.37,39.69s-5.76-9.31-5.27-16.36c.8,8.09,6.35,16.31,6.35,16.31Z"/><path class="cls-1" d="M162.48,38.88S152.86,27,152.32,17.61C154.83,28.27,164,38.72,164,38.72Z"/><path class="cls-1" d="M168.41,38.46s-4.29-17.23-.1-29.19c-2.72,14,1.79,29.33,1.79,29.33Z"/><path class="cls-1" d="M169.24,41.87s-3.65-14.62-.11-24.75C166.84,29,170.67,42,170.67,42Z"/><path class="cls-1" d="M168.42,40.51S160.82,21.44,164,7.73c-1.12,15.94,6.46,32.83,6.46,32.83Z"/><path class="cls-1" d="M167.29,40.46s-6.78-11-6.19-19.3c.93,9.55,7.47,19.24,7.47,19.24Z"/><path class="cls-1" d="M168.62,42.64s-5.76-9.32-5.27-16.36c.8,8.09,6.35,16.3,6.35,16.3Z"/><path class="cls-1" d="M167.73,41.82s-9.63-11.88-10.16-21.26c2.51,10.65,11.65,21.1,11.65,21.1Z"/><path class="cls-1" d="M170.52,37.59s.31-12.56,5.13-20.69c-4.25,9.72-4.07,20.94-4.07,20.94Z"/><path class="cls-1" d="M170.45,40.08s.25-10.66,4.32-17.55c-3.58,8.24-3.43,17.76-3.43,17.76Z"/><path class="cls-1" d="M170.16,39.05s-1.49-14.14,3-23.61c-3.55,11.22-1.69,23.81-1.69,23.81Z"/><path class="cls-1" d="M169.44,38.92s-2.4-8.34-.54-14.19C167.8,31.57,170.28,39,170.28,39Z"/><path class="cls-1" d="M169.91,40.58s-2-7.08-.48-12c-.92,5.8,1.19,12.09,1.19,12.09Z"/><path class="cls-1" d="M169.48,39.92s-4.07-9.21-2.74-15.91c-.29,7.77,3.73,15.92,3.73,15.92Z"/><path class="cls-1" d="M173.36,40.12s.32-12.57,5.13-20.7c-4.24,9.72-4.07,20.94-4.07,20.94Z"/><path class="cls-1" d="M173.29,42.61s.26-10.67,4.33-17.56c-3.58,8.24-3.43,17.76-3.43,17.76Z"/><path class="cls-1" d="M173,41.57s-1.5-14.15,3-23.6c-3.56,11.21-1.69,23.81-1.69,23.81Z"/><path class="cls-1" d="M172.29,41.44s-2.4-8.34-.54-14.19c-1.11,6.84,1.37,14.25,1.37,14.25Z"/><path class="cls-1" d="M172.75,43.1s-2-7.08-.47-12c-.93,5.8,1.18,12.09,1.18,12.09Z"/><path class="cls-1" d="M172.33,42.44s-4.07-9.21-2.75-15.91c-.28,7.77,3.73,15.92,3.73,15.92Z"/><path class="cls-1" d="M145.91,34.31s-.1-18.24,6.61-30.13c-5.8,14.19-5.06,30.46-5.06,30.46Z"/><path class="cls-1" d="M145.91,37.92s-.1-15.47,5.57-25.55c-4.89,12-4.25,25.83-4.25,25.83Z"/><path class="cls-1" d="M145.44,36.43s-2.81-20.49,3.33-34.3C144,18.46,147.33,36.7,147.33,36.7Z"/><path class="cls-1" d="M144.38,36.26S140.5,24.2,143,15.68c-1.32,10,2.64,20.64,2.64,20.64Z"/><path class="cls-1" d="M145.14,38.64s-3.31-10.22-1.22-17.44c-1.11,8.43,2.26,17.5,2.26,17.5Z"/><path class="cls-1" d="M144.49,37.71s-6.37-13.29-4.73-23c-.07,11.27,6.18,23,6.18,23Z"/><path class="cls-1" d="M150.19,37.91s-.1-18.24,6.61-30.13C151,22,151.75,38.24,151.75,38.24Z"/><path class="cls-1" d="M150.2,41.52s-.1-15.47,5.57-25.55c-4.9,12-4.26,25.83-4.26,25.83Z"/><path class="cls-1" d="M149.73,40s-2.81-20.49,3.32-34.3c-4.72,16.33-1.44,34.56-1.44,34.56Z"/><path class="cls-1" d="M148.67,39.85s-3.89-12-1.42-20.57c-1.32,10,2.64,20.64,2.64,20.64Z"/><path class="cls-1" d="M149.43,42.24S146.12,32,148.2,24.8c-1.1,8.43,2.26,17.5,2.26,17.5Z"/><path class="cls-1" d="M148.77,41.3s-6.37-13.28-4.72-23c-.08,11.27,6.17,23,6.17,23Z"/><path class="cls-1" d="M152.38,37.24s3.18-12.93,9.6-20.81c-6.24,9.58-8.66,21.17-8.66,21.17Z"/><path class="cls-1" d="M151.74,39.8s2.69-11,8.12-17.65a59.86,59.86,0,0,0-7.32,18Z"/><path class="cls-1" d="M151.71,38.71s1.84-14.76,8.23-24c-5.94,11.19-7.07,24.39-7.07,24.39Z"/><path class="cls-1" d="M151.06,38.5s-.36-8.87,2.75-14.7a39.07,39.07,0,0,0-2,14.84Z"/><path class="cls-1" d="M151.12,40.25s-.31-7.52,2.32-12.47a33.26,33.26,0,0,0-1.66,12.6Z"/><path class="cls-1" d="M150.87,39.53s-1.73-9.94,1.06-16.71c-2.05,8-.13,16.83-.13,16.83Z"/><path class="cls-1" d="M154.49,40.14s3.18-12.93,9.6-20.8c-6.24,9.57-8.65,21.17-8.65,21.17Z"/><path class="cls-1" d="M153.86,42.7s2.68-11,8.11-17.65a59.86,59.86,0,0,0-7.32,18Z"/><path class="cls-1" d="M153.82,41.61s1.84-14.75,8.23-24C156.12,28.76,155,42,155,42Z"/><path class="cls-1" d="M153.17,41.4s-.35-8.86,2.75-14.7a39.12,39.12,0,0,0-2,14.85Z"/><path class="cls-1" d="M153.23,43.15s-.3-7.52,2.32-12.46a33.2,33.2,0,0,0-1.66,12.59Z"/><path class="cls-1" d="M153,42.44s-1.73-9.95,1.06-16.71c-2,8-.13,16.82-.13,16.82Z"/><path class="cls-1" d="M137.55,35.57s-4.29-17.23-.1-29.18c-2.73,14,1.78,29.33,1.78,29.33Z"/><path class="cls-1" d="M138.38,39s-3.65-14.61-.12-24.74C136,26.13,139.8,39.11,139.8,39.11Z"/><path class="cls-1" d="M137.56,37.63S130,18.55,133.11,4.84c-1.12,15.94,6.45,32.84,6.45,32.84Z"/><path class="cls-1" d="M136.42,37.57s-6.78-11-6.18-19.3c.92,9.55,7.46,19.24,7.46,19.24Z"/><path class="cls-1" d="M137.76,39.75s-5.77-9.31-5.27-16.36c.79,8.09,6.35,16.31,6.35,16.31Z"/><path class="cls-1" d="M136.86,38.94s-9.62-11.89-10.16-21.27c2.51,10.66,11.66,21.1,11.66,21.1Z"/><path class="cls-1" d="M142.79,38.52s-4.29-17.24-.09-29.19c-2.73,14,1.78,29.33,1.78,29.33Z"/><path class="cls-1" d="M143.63,41.93s-3.66-14.61-.12-24.75c-2.29,11.9,1.54,24.88,1.54,24.88Z"/><path class="cls-1" d="M142.8,40.57s-7.6-19.07-4.44-32.79c-1.13,16,6.45,32.85,6.45,32.85Z"/><path class="cls-1" d="M141.67,40.52s-6.78-11-6.18-19.3c.92,9.54,7.46,19.23,7.46,19.23Z"/><path class="cls-1" d="M143,42.7s-5.76-9.32-5.27-16.37c.8,8.09,6.35,16.31,6.35,16.31Z"/><path class="cls-1" d="M142.11,41.88S132.49,30,132,20.62c2.51,10.65,11.65,21.1,11.65,21.1Z"/><path class="cls-1" d="M144.9,37.65S145.21,25.09,150,17C145.79,26.68,146,37.9,146,37.9Z"/><path class="cls-1" d="M144.83,40.14s.25-10.66,4.32-17.55c-3.58,8.24-3.43,17.76-3.43,17.76Z"/><path class="cls-1" d="M144.54,39.11s-1.49-14.15,3-23.61c-3.56,11.21-1.7,23.81-1.7,23.81Z"/><path class="cls-1" d="M143.83,39s-2.41-8.35-.54-14.19C142.18,31.63,144.66,39,144.66,39Z"/><path class="cls-1" d="M144.29,40.64s-2-7.08-.47-12c-.93,5.8,1.18,12.09,1.18,12.09Z"/><path class="cls-1" d="M143.86,40s-4.07-9.21-2.74-15.91c-.29,7.76,3.73,15.92,3.73,15.92Z"/><path class="cls-1" d="M147.75,40.18s.31-12.57,5.12-20.7c-4.24,9.72-4.07,20.94-4.07,20.94Z"/><path class="cls-1" d="M147.67,42.66S147.93,32,152,25.11c-3.59,8.24-3.43,17.76-3.43,17.76Z"/><path class="cls-1" d="M147.39,41.63s-1.49-14.14,3-23.61c-3.55,11.21-1.7,23.82-1.7,23.82Z"/><path class="cls-1" d="M146.67,41.5s-2.4-8.34-.54-14.19c-1.11,6.84,1.37,14.25,1.37,14.25Z"/><path class="cls-1" d="M147.14,43.15s-2-7.07-.48-12c-.92,5.8,1.18,12.09,1.18,12.09Z"/><path class="cls-1" d="M146.71,42.5s-4.07-9.21-2.74-15.91c-.29,7.76,3.73,15.92,3.73,15.92Z"/><path class="cls-1" d="M83.19,32.45s-.1-18.23,6.61-30.12c-5.8,14.18-5,30.45-5,30.45Z"/><path class="cls-1" d="M83.19,36.06s-.09-15.47,5.57-25.54c-4.89,12-4.25,25.82-4.25,25.82Z"/><path class="cls-1" d="M82.73,34.57S79.91,14.08,86.05.27c-4.72,16.33-1.44,34.57-1.44,34.57Z"/><path class="cls-1" d="M81.66,34.4s-3.88-12.06-1.41-20.58c-1.32,10,2.64,20.64,2.64,20.64Z"/><path class="cls-1" d="M82.42,36.79s-3.3-10.23-1.22-17.45c-1.11,8.44,2.26,17.51,2.26,17.51Z"/><path class="cls-1" d="M81.77,35.85s-6.37-13.29-4.72-23c-.08,11.26,6.17,23,6.17,23Z"/><path class="cls-1" d="M87.47,36.05s-.09-18.24,6.61-30.13c-5.79,14.19-5,30.46-5,30.46Z"/><path class="cls-1" d="M87.47,39.66s-.09-15.47,5.58-25.55c-4.9,12-4.25,25.83-4.25,25.83Z"/><path class="cls-1" d="M87,38.17S84.2,17.68,90.33,3.87c-4.72,16.33-1.44,34.57-1.44,34.57Z"/><path class="cls-1" d="M86,38s-3.89-12.06-1.41-20.58c-1.32,10,2.63,20.64,2.63,20.64Z"/><path class="cls-1" d="M86.71,40.38S83.4,30.16,85.48,22.94c-1.1,8.43,2.27,17.5,2.27,17.5Z"/><path class="cls-1" d="M86.05,39.45s-6.37-13.29-4.72-23c-.08,11.26,6.17,23,6.17,23Z"/><path class="cls-1" d="M89.66,35.39s3.18-12.94,9.6-20.82C93,24.15,90.61,35.75,90.61,35.75Z"/><path class="cls-1" d="M89,37.94s2.68-11,8.11-17.65a59.86,59.86,0,0,0-7.32,18Z"/><path class="cls-1" d="M89,36.85s1.84-14.76,8.23-24C91.29,24,90.15,37.19,90.15,37.19Z"/><path class="cls-1" d="M88.34,36.64s-.35-8.87,2.75-14.7a39.12,39.12,0,0,0-2,14.85Z"/><path class="cls-1" d="M88.4,38.39s-.31-7.52,2.32-12.46a33.22,33.22,0,0,0-1.66,12.59Z"/><path class="cls-1" d="M88.15,37.68S86.42,27.73,89.21,21c-2,8-.13,16.82-.13,16.82Z"/><path class="cls-1" d="M91.77,38.29s3.18-12.94,9.6-20.81c-6.24,9.58-8.65,21.17-8.65,21.17Z"/><path class="cls-1" d="M91.14,40.84s2.68-11,8.11-17.64a59.86,59.86,0,0,0-7.32,18Z"/><path class="cls-1" d="M91.1,39.75s1.84-14.75,8.23-24C93.4,26.9,92.26,40.1,92.26,40.1Z"/><path class="cls-1" d="M90.45,39.54s-.35-8.86,2.75-14.7a39,39,0,0,0-2,14.85Z"/><path class="cls-1" d="M90.51,41.3s-.3-7.52,2.32-12.47a33.22,33.22,0,0,0-1.66,12.59Z"/><path class="cls-1" d="M90.26,40.58s-1.73-9.95,1.06-16.71c-2,8-.13,16.82-.13,16.82Z"/><path class="cls-1" d="M74.83,33.71s-4.29-17.23-.1-29.18c-2.72,14,1.78,29.33,1.78,29.33Z"/><path class="cls-1" d="M75.66,37.13S72,22.51,75.54,12.38c-2.29,11.89,1.55,24.87,1.55,24.87Z"/><path class="cls-1" d="M74.84,35.77S67.23,16.7,70.39,3c-1.12,16,6.45,32.84,6.45,32.84Z"/><path class="cls-1" d="M73.7,35.72s-6.78-11-6.18-19.31C68.44,26,75,35.65,75,35.65Z"/><path class="cls-1" d="M75,37.9s-5.77-9.32-5.27-16.37c.79,8.09,6.35,16.31,6.35,16.31Z"/><path class="cls-1" d="M74.14,37.08S64.52,25.19,64,15.81c2.5,10.66,11.65,21.11,11.65,21.11Z"/><path class="cls-1" d="M80.07,36.66S75.79,19.43,80,7.47c-2.73,14,1.78,29.34,1.78,29.34Z"/><path class="cls-1" d="M80.91,40.07s-3.65-14.61-.12-24.75C78.5,27.22,82.33,40.2,82.33,40.2Z"/><path class="cls-1" d="M80.08,38.72s-7.6-19.08-4.44-32.79c-1.13,15.94,6.45,32.84,6.45,32.84Z"/><path class="cls-1" d="M79,38.66s-6.78-11-6.18-19.3c.92,9.55,7.46,19.24,7.46,19.24Z"/><path class="cls-1" d="M80.28,40.84S74.52,31.53,75,24.48c.8,8.09,6.36,16.31,6.36,16.31Z"/><path class="cls-1" d="M79.39,40S69.77,28.14,69.23,18.76c2.51,10.66,11.65,21.1,11.65,21.1Z"/><path class="cls-1" d="M82.18,35.8s.31-12.57,5.13-20.7C83.07,24.82,83.24,36,83.24,36Z"/><path class="cls-1" d="M82.11,38.29s.26-10.66,4.33-17.56C82.85,29,83,38.49,83,38.49Z"/><path class="cls-1" d="M81.82,37.25s-1.49-14.14,3-23.6c-3.56,11.21-1.7,23.81-1.7,23.81Z"/><path class="cls-1" d="M81.11,37.13s-2.41-8.35-.54-14.2c-1.11,6.85,1.37,14.25,1.37,14.25Z"/><path class="cls-1" d="M81.57,38.78s-2-7.08-.47-12c-.93,5.79,1.18,12.08,1.18,12.08Z"/><path class="cls-1" d="M81.15,38.13s-4.07-9.22-2.75-15.92c-.28,7.77,3.73,15.92,3.73,15.92Z"/><path class="cls-1" d="M85,38.32s.31-12.57,5.12-20.7c-4.24,9.72-4.07,20.94-4.07,20.94Z"/><path class="cls-1" d="M85,40.8s.25-10.66,4.32-17.55C85.7,31.49,85.85,41,85.85,41Z"/><path class="cls-1" d="M84.67,39.78s-1.49-14.15,3-23.61C84.08,27.38,86,40,86,40Z"/><path class="cls-1" d="M84,39.65s-2.4-8.35-.54-14.2C82.3,32.3,84.78,39.7,84.78,39.7Z"/><path class="cls-1" d="M84.42,41.3s-2-7.08-.48-12c-.92,5.8,1.18,12.08,1.18,12.08Z"/><path class="cls-1" d="M84,40.65s-4.07-9.22-2.74-15.92C81,32.5,85,40.66,85,40.66Z"/><path class="cls-1" d="M100.28,33.3s-.09-18.24,6.61-30.12c-5.79,14.18-5,30.45-5,30.45Z"/><path class="cls-1" d="M100.29,36.91s-.1-15.47,5.57-25.55c-4.9,12-4.25,25.83-4.25,25.83Z"/><path class="cls-1" d="M99.82,35.42S97,14.93,103.15,1.12c-4.73,16.33-1.45,34.57-1.45,34.57Z"/><path class="cls-1" d="M98.76,35.25s-3.89-12.06-1.41-20.58C96,24.62,100,35.31,100,35.31Z"/><path class="cls-1" d="M99.52,37.63S96.21,27.41,98.3,20.19c-1.11,8.43,2.26,17.5,2.26,17.5Z"/><path class="cls-1" d="M98.86,36.7s-6.37-13.29-4.72-23c-.07,11.26,6.18,23,6.18,23Z"/><path class="cls-1" d="M104.57,36.9s-.1-18.24,6.61-30.13c-5.8,14.19-5.05,30.46-5.05,30.46Z"/><path class="cls-1" d="M104.57,40.51S104.48,25,110.14,15c-4.89,12-4.25,25.83-4.25,25.83Z"/><path class="cls-1" d="M104.11,39s-2.82-20.49,3.32-34.3C102.71,21.05,106,39.29,106,39.29Z"/><path class="cls-1" d="M103.05,38.84s-3.89-12.05-1.42-20.57c-1.32,10,2.64,20.64,2.64,20.64Z"/><path class="cls-1" d="M103.81,41.23S100.5,31,102.58,23.79c-1.1,8.43,2.26,17.5,2.26,17.5Z"/><path class="cls-1" d="M103.15,40.29s-6.37-13.28-4.72-23c-.08,11.27,6.17,23,6.17,23Z"/><path class="cls-1" d="M106.76,36.23s3.18-12.93,9.6-20.81c-6.24,9.58-8.66,21.17-8.66,21.17Z"/><path class="cls-1" d="M106.12,38.79s2.69-11,8.12-17.65a59.86,59.86,0,0,0-7.32,18Z"/><path class="cls-1" d="M106.08,37.7s1.84-14.76,8.24-24.05C108.38,24.84,107.25,38,107.25,38Z"/><path class="cls-1" d="M105.44,37.49s-.36-8.87,2.74-14.7a39.23,39.23,0,0,0-2,14.85Z"/><path class="cls-1" d="M105.5,39.24s-.31-7.52,2.31-12.47a33.49,33.49,0,0,0-1.66,12.6Z"/><path class="cls-1" d="M105.24,38.52s-1.73-9.94,1.06-16.71c-2,8-.12,16.83-.12,16.83Z"/><path class="cls-1" d="M108.87,39.14s3.18-12.94,9.6-20.81c-6.24,9.57-8.66,21.17-8.66,21.17Z"/><path class="cls-1" d="M108.23,41.69s2.69-11,8.12-17.65A60,60,0,0,0,109,42Z"/><path class="cls-1" d="M108.2,40.6s1.84-14.75,8.23-24C110.49,27.75,109.36,41,109.36,41Z"/><path class="cls-1" d="M107.55,40.39s-.36-8.87,2.74-14.7a39.23,39.23,0,0,0-2,14.85Z"/><path class="cls-1" d="M107.61,42.15s-.31-7.52,2.31-12.47a33.45,33.45,0,0,0-1.66,12.59Z"/><path class="cls-1" d="M107.36,41.43s-1.73-9.95,1-16.71c-2,8-.12,16.82-.12,16.82Z"/><path class="cls-1" d="M91.92,34.56s-4.28-17.23-.09-29.18c-2.73,14,1.78,29.33,1.78,29.33Z"/><path class="cls-1" d="M92.76,38s-3.65-14.62-.12-24.75C90.35,25.12,94.18,38.1,94.18,38.1Z"/><path class="cls-1" d="M91.93,36.62s-7.6-19.08-4.44-32.79c-1.13,15.94,6.45,32.84,6.45,32.84Z"/><path class="cls-1" d="M90.8,36.57s-6.78-11-6.18-19.31c.92,9.55,7.46,19.24,7.46,19.24Z"/><path class="cls-1" d="M92.13,38.75s-5.76-9.32-5.27-16.37c.8,8.09,6.36,16.31,6.36,16.31Z"/><path class="cls-1" d="M91.24,37.92S81.62,26,81.08,16.66c2.51,10.66,11.66,21.11,11.66,21.11Z"/><path class="cls-1" d="M97.17,37.51s-4.29-17.23-.1-29.19c-2.72,14,1.78,29.33,1.78,29.33Z"/><path class="cls-1" d="M98,40.92s-3.65-14.61-.12-24.75C95.6,28.06,99.43,41,99.43,41Z"/><path class="cls-1" d="M97.18,39.56s-7.6-19.07-4.45-32.78c-1.12,15.94,6.46,32.84,6.46,32.84Z"/><path class="cls-1" d="M96.05,39.51s-6.78-11-6.19-19.3c.93,9.55,7.46,19.24,7.46,19.24Z"/><path class="cls-1" d="M97.38,41.69s-5.76-9.32-5.27-16.37c.8,8.09,6.35,16.31,6.35,16.31Z"/><path class="cls-1" d="M96.49,40.87S86.86,29,86.33,19.61C88.84,30.27,98,40.71,98,40.71Z"/><path class="cls-1" d="M99.28,36.64s.31-12.56,5.13-20.69c-4.25,9.72-4.07,20.94-4.07,20.94Z"/><path class="cls-1" d="M99.21,39.13s.25-10.66,4.32-17.55c-3.58,8.24-3.43,17.76-3.43,17.76Z"/><path class="cls-1" d="M98.92,38.1s-1.49-14.15,3-23.61C98.34,25.7,100.2,38.3,100.2,38.3Z"/><path class="cls-1" d="M98.2,38s-2.4-8.35-.54-14.2C96.56,30.63,99,38,99,38Z"/><path class="cls-1" d="M98.67,39.63s-2-7.08-.48-12c-.92,5.8,1.19,12.08,1.19,12.08Z"/><path class="cls-1" d="M98.24,39s-4.07-9.21-2.74-15.91C95.21,30.83,99.23,39,99.23,39Z"/><path class="cls-1" d="M102.12,39.17s.31-12.57,5.13-20.7c-4.24,9.72-4.07,20.94-4.07,20.94Z"/><path class="cls-1" d="M102.05,41.65s.26-10.66,4.33-17.55C102.79,32.34,103,41.86,103,41.86Z"/><path class="cls-1" d="M101.77,40.62s-1.5-14.14,3-23.61c-3.56,11.22-1.7,23.82-1.7,23.82Z"/><path class="cls-1" d="M101.05,40.5s-2.41-8.35-.54-14.2c-1.11,6.84,1.37,14.25,1.37,14.25Z"/><path class="cls-1" d="M101.52,42.15s-2-7.08-.48-12c-.93,5.8,1.18,12.09,1.18,12.09Z"/><path class="cls-1" d="M101.09,41.49S97,32.28,98.34,25.59c-.28,7.75,3.74,15.91,3.74,15.91Z"/><path class="cls-1" d="M236.23,33.82s-.09-18.24,6.61-30.13c-5.79,14.19-5.05,30.46-5.05,30.46Z"/><path class="cls-1" d="M236.24,37.42s-.1-15.46,5.57-25.54c-4.9,12-4.25,25.83-4.25,25.83Z"/><path class="cls-1" d="M235.77,35.94S233,15.45,239.1,1.64c-4.73,16.33-1.44,34.57-1.44,34.57Z"/><path class="cls-1" d="M234.71,35.76s-3.89-12-1.41-20.57c-1.32,10,2.64,20.64,2.64,20.64Z"/><path class="cls-1" d="M235.47,38.15s-3.31-10.22-1.22-17.44c-1.11,8.43,2.26,17.5,2.26,17.5Z"/><path class="cls-1" d="M234.82,37.21s-6.37-13.28-4.73-23c-.07,11.27,6.18,23,6.18,23Z"/><path class="cls-1" d="M240.52,37.41s-.1-18.23,6.61-30.12c-5.8,14.18-5,30.45-5,30.45Z"/><path class="cls-1" d="M240.52,41s-.09-15.46,5.57-25.54c-4.89,12-4.25,25.82-4.25,25.82Z"/><path class="cls-1" d="M240.06,39.54s-2.81-20.49,3.32-34.3c-4.72,16.32-1.44,34.56-1.44,34.56Z"/><path class="cls-1" d="M239,39.36s-3.89-12-1.42-20.57c-1.32,9.94,2.64,20.64,2.64,20.64Z"/><path class="cls-1" d="M239.76,41.75s-3.31-10.22-1.23-17.45c-1.1,8.44,2.26,17.51,2.26,17.51Z"/><path class="cls-1" d="M239.1,40.81s-6.37-13.28-4.72-23c-.08,11.26,6.17,23,6.17,23Z"/><path class="cls-1" d="M242.71,36.75s3.18-12.94,9.6-20.81c-6.24,9.58-8.66,21.17-8.66,21.17Z"/><path class="cls-1" d="M242.07,39.31s2.69-11,8.12-17.65a59.86,59.86,0,0,0-7.32,18Z"/><path class="cls-1" d="M242,38.22s1.83-14.76,8.23-24c-5.94,11.19-7.07,24.39-7.07,24.39Z"/><path class="cls-1" d="M241.39,38s-.36-8.86,2.75-14.7a39.13,39.13,0,0,0-2,14.85Z"/><path class="cls-1" d="M241.45,39.76s-.31-7.52,2.32-12.47a33.26,33.26,0,0,0-1.66,12.6Z"/><path class="cls-1" d="M241.19,39s-1.72-9.94,1.07-16.71c-2.06,8-.13,16.83-.13,16.83Z"/><path class="cls-1" d="M244.82,39.65s3.18-12.93,9.6-20.81C248.18,28.42,245.77,40,245.77,40Z"/><path class="cls-1" d="M244.18,42.21s2.69-11,8.12-17.65a59.86,59.86,0,0,0-7.32,18Z"/><path class="cls-1" d="M244.15,41.12s1.84-14.76,8.23-24c-5.94,11.18-7.07,24.38-7.07,24.38Z"/><path class="cls-1" d="M243.5,40.91s-.36-8.87,2.75-14.7a39.12,39.12,0,0,0-2,14.85Z"/><path class="cls-1" d="M243.56,42.66s-.31-7.52,2.31-12.46a33.32,33.32,0,0,0-1.65,12.59Z"/><path class="cls-1" d="M243.31,41.94s-1.73-9.94,1.06-16.7c-2.05,8-.13,16.82-.13,16.82Z"/><path class="cls-1" d="M227.87,35.08s-4.28-17.23-.09-29.19c-2.73,14,1.78,29.34,1.78,29.34Z"/><path class="cls-1" d="M228.71,38.49s-3.65-14.61-.12-24.75c-2.29,11.89,1.54,24.87,1.54,24.87Z"/><path class="cls-1" d="M227.89,37.13s-7.61-19.07-4.45-32.79c-1.13,16,6.45,32.85,6.45,32.85Z"/><path class="cls-1" d="M226.75,37.08s-6.78-11-6.18-19.3C221.49,27.33,228,37,228,37Z"/><path class="cls-1" d="M228.08,39.26S222.32,30,222.81,22.9c.8,8.09,6.36,16.31,6.36,16.31Z"/><path class="cls-1" d="M227.19,38.44S217.57,26.56,217,17.18c2.51,10.66,11.66,21.1,11.66,21.1Z"/><path class="cls-1" d="M233.12,38s-4.29-17.23-.1-29.18c-2.72,14,1.79,29.33,1.79,29.33Z"/><path class="cls-1" d="M234,41.44s-3.66-14.62-.12-24.75c-2.29,11.89,1.54,24.87,1.54,24.87Z"/><path class="cls-1" d="M233.13,40.08S225.53,21,228.68,7.29c-1.12,16,6.46,32.84,6.46,32.84Z"/><path class="cls-1" d="M232,40s-6.78-11-6.19-19.31c.93,9.55,7.47,19.24,7.47,19.24Z"/><path class="cls-1" d="M233.33,42.21s-5.76-9.32-5.27-16.37c.8,8.09,6.35,16.31,6.35,16.31Z"/><path class="cls-1" d="M232.44,41.39s-9.63-11.89-10.16-21.27c2.51,10.66,11.66,21.11,11.66,21.11Z"/><path class="cls-1" d="M235.23,37.16s.31-12.57,5.13-20.7c-4.25,9.72-4.07,20.94-4.07,20.94Z"/><path class="cls-1" d="M235.16,39.65s.25-10.66,4.32-17.55c-3.58,8.24-3.43,17.76-3.43,17.76Z"/><path class="cls-1" d="M234.87,38.62s-1.49-14.15,3-23.61c-3.55,11.21-1.69,23.81-1.69,23.81Z"/><path class="cls-1" d="M234.15,38.49s-2.4-8.35-.54-14.19c-1.1,6.84,1.38,14.25,1.38,14.25Z"/><path class="cls-1" d="M234.62,40.14s-2-7.07-.47-12c-.93,5.8,1.18,12.08,1.18,12.08Z"/><path class="cls-1" d="M234.19,39.49s-4.07-9.22-2.74-15.91c-.28,7.76,3.73,15.92,3.73,15.92Z"/><path class="cls-1" d="M238.08,39.68s.3-12.57,5.12-20.69c-4.24,9.72-4.07,20.94-4.07,20.94Z"/><path class="cls-1" d="M238,42.17s.26-10.66,4.33-17.55c-3.59,8.24-3.43,17.76-3.43,17.76Z"/><path class="cls-1" d="M237.72,41.14s-1.49-14.15,3-23.61C237.13,28.74,239,41.34,239,41.34Z"/><path class="cls-1" d="M237,41s-2.4-8.35-.54-14.19c-1.11,6.84,1.37,14.25,1.37,14.25Z"/><path class="cls-1" d="M237.47,42.66s-2.05-7.07-.48-12c-.92,5.8,1.18,12.08,1.18,12.08Z"/><path class="cls-1" d="M237,42S233,32.79,234.3,26.1C234,33.86,238,42,238,42Z"/><path class="cls-1" d="M201.54,33.54s-.09-18.23,6.61-30.12c-5.79,14.19-5.05,30.46-5.05,30.46Z"/><path class="cls-1" d="M201.55,37.15s-.1-15.46,5.57-25.54c-4.9,12-4.25,25.82-4.25,25.82Z"/><path class="cls-1" d="M201.08,35.67s-2.81-20.49,3.33-34.3C199.68,17.7,203,35.93,203,35.93Z"/><path class="cls-1" d="M200,35.49s-3.89-12-1.41-20.57c-1.32,10,2.63,20.64,2.63,20.64Z"/><path class="cls-1" d="M200.78,37.88s-3.31-10.22-1.22-17.45c-1.11,8.44,2.26,17.51,2.26,17.51Z"/><path class="cls-1" d="M200.12,36.94s-6.37-13.28-4.72-23c-.08,11.27,6.17,23,6.17,23Z"/><path class="cls-1" d="M205.83,37.14s-.1-18.23,6.61-30.12c-5.8,14.18-5.06,30.45-5.06,30.45Z"/><path class="cls-1" d="M205.83,40.75s-.1-15.47,5.57-25.54c-4.9,12-4.25,25.82-4.25,25.82Z"/><path class="cls-1" d="M205.37,39.26S202.55,18.78,208.69,5c-4.72,16.33-1.44,34.57-1.44,34.57Z"/><path class="cls-1" d="M204.31,39.09S200.42,27,202.89,18.52c-1.32,9.94,2.64,20.64,2.64,20.64Z"/><path class="cls-1" d="M205.06,41.48S201.75,31.25,203.84,24c-1.11,8.44,2.26,17.51,2.26,17.51Z"/><path class="cls-1" d="M204.41,40.54s-6.37-13.29-4.73-23c-.07,11.26,6.18,23,6.18,23Z"/><path class="cls-1" d="M208,36.47s3.18-12.93,9.6-20.8C211.37,25.24,209,36.84,209,36.84Z"/><path class="cls-1" d="M207.38,39s2.69-11,8.12-17.66a60,60,0,0,0-7.32,18Z"/><path class="cls-1" d="M207.35,37.94s1.83-14.75,8.23-24c-5.94,11.19-7.07,24.39-7.07,24.39Z"/><path class="cls-1" d="M206.69,37.73s-.35-8.86,2.75-14.7a39.23,39.23,0,0,0-2,14.85Z"/><path class="cls-1" d="M206.76,39.49S206.45,32,209.07,27a33.26,33.26,0,0,0-1.66,12.6Z"/><path class="cls-1" d="M206.5,38.77s-1.73-9.94,1.06-16.71c-2.05,8-.13,16.82-.13,16.82Z"/><path class="cls-1" d="M210.13,39.38s3.18-12.93,9.6-20.81c-6.25,9.58-8.66,21.17-8.66,21.17Z"/><path class="cls-1" d="M209.49,41.94s2.69-11,8.12-17.65a59.86,59.86,0,0,0-7.32,18Z"/><path class="cls-1" d="M209.46,40.84s1.83-14.75,8.23-24c-5.94,11.19-7.07,24.39-7.07,24.39Z"/><path class="cls-1" d="M208.81,40.64s-.36-8.87,2.75-14.71a39.18,39.18,0,0,0-2,14.86Z"/><path class="cls-1" d="M208.87,42.39s-.31-7.52,2.31-12.47a33.26,33.26,0,0,0-1.66,12.6Z"/><path class="cls-1" d="M208.62,41.67s-1.74-9.94,1-16.71c-2,8-.12,16.83-.12,16.83Z"/><path class="cls-1" d="M193.18,34.81s-4.28-17.23-.1-29.19c-2.72,14,1.79,29.33,1.79,29.33Z"/><path class="cls-1" d="M194,38.22s-3.65-14.62-.12-24.75c-2.29,11.89,1.54,24.87,1.54,24.87Z"/><path class="cls-1" d="M193.19,36.86s-7.6-19.07-4.44-32.78C187.62,20,195.2,36.91,195.2,36.91Z"/><path class="cls-1" d="M192.06,36.81s-6.78-11-6.18-19.3c.92,9.55,7.46,19.24,7.46,19.24Z"/><path class="cls-1" d="M193.39,39s-5.76-9.32-5.27-16.36c.8,8.09,6.36,16.3,6.36,16.3Z"/><path class="cls-1" d="M192.5,38.17s-9.63-11.88-10.16-21.26C184.85,27.57,194,38,194,38Z"/><path class="cls-1" d="M198.43,37.75s-4.29-17.23-.1-29.18c-2.72,14,1.78,29.33,1.78,29.33Z"/><path class="cls-1" d="M199.26,41.16s-3.65-14.61-.12-24.74c-2.28,11.89,1.55,24.87,1.55,24.87Z"/><path class="cls-1" d="M198.44,39.81S190.84,20.73,194,7c-1.12,16,6.45,32.84,6.45,32.84Z"/><path class="cls-1" d="M197.31,39.76s-6.79-11-6.19-19.31c.92,9.55,7.46,19.24,7.46,19.24Z"/><path class="cls-1" d="M198.64,41.93s-5.76-9.31-5.27-16.36c.79,8.09,6.35,16.31,6.35,16.31Z"/><path class="cls-1" d="M197.75,41.12s-9.63-11.89-10.16-21.27C190.09,30.51,199.24,41,199.24,41Z"/><path class="cls-1" d="M200.54,36.89s.31-12.57,5.12-20.7c-4.24,9.72-4.07,20.94-4.07,20.94Z"/><path class="cls-1" d="M200.47,39.38s.25-10.66,4.32-17.55c-3.58,8.24-3.43,17.76-3.43,17.76Z"/><path class="cls-1" d="M200.18,38.35s-1.49-14.15,3-23.61c-3.55,11.21-1.69,23.81-1.69,23.81Z"/><path class="cls-1" d="M199.46,38.22s-2.4-8.35-.54-14.2c-1.1,6.85,1.37,14.26,1.37,14.26Z"/><path class="cls-1" d="M199.93,39.87s-2.05-7.08-.48-12c-.92,5.8,1.18,12.08,1.18,12.08Z"/><path class="cls-1" d="M199.5,39.22s-4.07-9.22-2.74-15.91c-.29,7.76,3.73,15.92,3.73,15.92Z"/><path class="cls-1" d="M203.38,39.41s.32-12.57,5.13-20.7c-4.24,9.72-4.07,20.95-4.07,20.95Z"/><path class="cls-1" d="M203.31,41.9s.25-10.66,4.32-17.55c-3.58,8.24-3.43,17.76-3.43,17.76Z"/><path class="cls-1" d="M203,40.87s-1.5-14.15,3-23.61c-3.56,11.21-1.7,23.81-1.7,23.81Z"/><path class="cls-1" d="M202.3,40.74s-2.4-8.35-.53-14.2c-1.11,6.85,1.37,14.26,1.37,14.26Z"/><path class="cls-1" d="M202.77,42.39s-2-7.08-.47-12c-.93,5.8,1.18,12.08,1.18,12.08Z"/><path class="cls-1" d="M202.35,41.74s-4.07-9.22-2.75-15.91c-.28,7.76,3.73,15.92,3.73,15.92Z"/><rect class="cls-1" x="6.47" y="33.67" width="257.86" height="9.64"/></g></g></svg>