<svg xmlns="http://www.w3.org/2000/svg" viewBox="0 0 188.5 64.44"><defs><style>.cls-1{fill:#006837;}</style></defs><title>Ресурс 2</title><g id="Слой_2" data-name="Слой 2"><g id="Vector_Graphics" data-name="Vector Graphics"><path class="cls-1" d="M132.56,64.44s-6.83-27.85-33.9-31.94c0,0,22.89,2.36,29.53,31.66Z"/><path class="cls-1" d="M149.75,64.44S143.13,40,128.56,34.52c0,0,12,5.58,18.73,29.77Z"/><path class="cls-1" d="M105.37,64.44S98.75,40,84.18,34.52c0,0,11.95,5.58,18.72,29.77Z"/><path class="cls-1" d="M87.31,64.44S80,31,66.11,22.27c0,0,12.62,9.19,18.74,42Z"/><path class="cls-1" d="M155.34,64.44S145.72,20.22,127.28,8.6c0,0,16.71,12.17,24.81,55.55Z"/><path class="cls-1" d="M118.2,64.44s-10.08-49-44.29-48.52c0,0,31-1.42,39.87,48.21Z"/><path class="cls-1" d="M70.53,64.27s8.36-48.44-35.87-50.4c0,0,42.19.49,31.72,50.57Z"/><path class="cls-1" d="M65.15,64.44S63.92,20.8,30.44,0C30.44,0,61,17.64,62,64.44Z"/><path class="cls-1" d="M59.73,64.44s-4.91-27.73-32-31.82c0,0,22.89,2.36,29.54,31.66Z"/><path class="cls-1" d="M87.59,64.44S81,40,66.4,34.52c0,0,12,5.57,18.73,29.76Z"/><path class="cls-1" d="M43.21,64.44S36.58,40,22,34.51c0,0,12,5.58,18.74,29.77Z"/><path class="cls-1" d="M94.12,64.44S86.85,31,72.92,22.26c0,0,12.62,9.2,18.74,42Z"/><path class="cls-1" d="M54.08,64.44S46,15.75,11.74,16.23c0,0,31-1.42,39.88,48.21Z"/><path class="cls-1" d="M188.5,64.12s-9.15-35.35-42.37-39.71c0,0,28.82,3.47,37.62,40Z"/><path class="cls-1" d="M166.6,64.44s-8.76-30.55-28.07-37.33c0,0,16.7,7.4,22.24,37Z"/><path class="cls-1" d="M34.53,64.44S27.07,38.09,0,34.22c0,0,22.89,2.24,29.54,29.85Z"/><path class="cls-1" d="M145.22,64.25S138,32.76,124,24.5c0,0,12,9.07,18.11,39.94Z"/><path class="cls-1" d="M181,64.43S167.18,4.91,124.94,4.27c0,0,39.15-1.76,50.89,60.17Z"/><path class="cls-1" d="M173.57,64.29s-7.72-74.13-66.84-35.74c0,0,56.15-38.92,62.32,35.89Z"/></g></g></svg>