<svg xmlns="http://www.w3.org/2000/svg" viewBox="0 0 273.19 52.99"><defs><style>.cls-1{fill:#39b54a;}</style></defs><title>Ресурс 7</title><g id="Слой_2" data-name="Слой 2"><g id="Vector_Graphics" data-name="Vector Graphics"><path class="cls-1" d="M120.56,36.89a39.25,39.25,0,0,1,3.07-4.24,20.92,20.92,0,0,0-3.15,3.22,45.35,45.35,0,0,0-4.32,7.1c-.6,1.23-1.31,2.76-2,4.2-.18-.28-.36-.55-.53-.78-.83-1.15-1.87-2.4-2.94-3.69.16-.21.55-.75,1.19-1.7a34.22,34.22,0,0,1,4.41-4.87c1.67-1.54,4.08-3.28,4.08-3.28-2.74,1.8-5.88,3.47-7.62,5.14-.58.56-1.11,1.07-1.6,1.57l-.74-.16c0-.2.06-.39.08-.57.33-2.38,1-7,1.56-9.53s1.65-5.83,1.65-5.83a30.82,30.82,0,0,0-2.55,7.4c-.44,2.47-1.26,5.51-1.84,8.22l-.25-.07c-1.2-.42-1.8-.56-2.39-.81a10,10,0,0,0-.89-.64l.2.3-.27-.16A5.15,5.15,0,0,1,104.06,36c-.37-.07-.81-.13-.81-.13-.14,1.37-.35,2.72-.5,4-.24-.49-.46-.91-.63-1.22-.42-.76-.92-1.59-1.43-2.46.12-.44.24-.89.37-1.35,1.07-4,2.52-10.76,2.52-10.76s-1.07,4.17-1.84,6.4c-.37,1.06-.93,2.75-1.62,4.73a34.27,34.27,0,0,1-2.65-5.67,75.92,75.92,0,0,0-3.87-8.63c.63,2,1.48,4.64,2.3,7.1a57.77,57.77,0,0,0-1.63,6c-.58,3-.77,4.75-1.45,9.69s-1.65,9.21-1.65,9.21L92.82,52s.58-6.4,1-9.6.77-7.46,1.06-8.53c.2-.72.79-3.68,1.16-5.54.63,1.89,1.26,3.64,1.75,4.8s1.12,2.54,1.75,3.88c-.6,1.73-1.26,3.59-1.94,5.39-1.74,4.65-3.3,9.59-3.3,9.59l2.43.49s1-1.75,1.65-6.3a59.18,59.18,0,0,1,1.76-7.91c.51,1.08,1.08,2.25,1.72,3.58.25.51.49,1.06.72,1.63a25.92,25.92,0,0,1-.42,3.73c-.24,1.31-.93,4.1-.93,4.1l2.3.5s.27-2.35.39-4.41c.65,2.14,1,3.85,1,3.85l2.42-.68s-1.88-4.6-3.48-8.21c0-.27,0-.57-.07-.93a19.23,19.23,0,0,1,0-3.61,6.78,6.78,0,0,0,3,1.24c.47.72,1.07,1.67,1.74,2.76l.25.4c0,.19,0,.37-.07.55s0,.5-.08.76c-.83,1.89-2,4.08-2,4.08l1.32,0c-.25,1.34-.47,2.27-.47,2.27l1.73.58c.13-1.78.33-3.68.53-5.46.08-.23.16-.44.24-.65.38.75.64,1.35,1.16,2.29s1.23,2,1.93,3l-.94,2.11,1.68-.29q.09-.24.18-.51c.33.46.55.75.55.75h2.23s-.88-1.7-1.83-3.33c.61-1.62,1.32-3.39,2-4.75A66.16,66.16,0,0,1,120.56,36.89ZM109,40.58a16.26,16.26,0,0,0-1.11-1.27l.36.08c.3.06.63.1,1,.14C109.17,39.88,109.11,40.24,109,40.58Zm1.37-.95.67,0c-.28.29-.54.59-.8.89C110.33,40.23,110.37,39.92,110.41,39.63ZM87.14,34.56c0-.12,0-.24-.07-.37.45-.78.92-1.57,1.42-2.38a51.08,51.08,0,0,1,4.07-5.62,27.74,27.74,0,0,0-4.17,4.26c-.5.7-1.06,1.47-1.65,2.35-.55-2.21-1.39-5.19-1.83-7-.58-2.32-2.13-6.68-2.13-6.68.48,2.81,1.94,8.63,2.61,11.34.22.85.45,2,.67,3.35a55.89,55.89,0,0,0-3.39,6c-1.64,3.35-3.92,8.44-4.88,10.6C77,46.93,76,41.18,75.27,37.73c-.48-2.25-.82-3.77-1.3-5.5,1.06-4,2.41-10.34,2.41-10.34s-1.06,4.16-1.84,6.39c-.23.68-.55,1.61-.92,2.72-.24-.79-.51-1.65-.84-2.66-.72-2.21-1.38-4.05-2-5.83,1-1.17,1.94-2.3,2.86-3.3,3-3.18,5.64-6.09,5.64-6.09A26.45,26.45,0,0,0,75,16.71c-1.69,1.67-3,2.84-4.56,4.61-.34-1-.67-2-1-3.1a67.13,67.13,0,0,0-2.83-7.43s1.5,4.82,2.64,8.93c.23.81.42,1.54.6,2.24-.67.78-1.4,1.67-2.24,2.75-.31.39-.63.82-1,1.25-1-2.86-1.84-5.2-2.62-7.9a67.48,67.48,0,0,0-2.83-7.42s1.49,4.81,2.64,8.93c.86,3.09,1.32,5.22,1.84,7.66-2.26,2.95-4.79,6.36-6.92,9.35l-.11-.17a37,37,0,0,1,.54-3.79c.06-.23.17-.7.29-1.3l1,0s-.36,0-1-.1c.45-2.13,1.14-5.69,1.14-5.69s-1,2.9-1.68,5.6a22.16,22.16,0,0,1-3.41-.87c-.46-.17-.87-.3-1.23-.41-1-1.44-2-2.86-3.12-4.25A69.81,69.81,0,0,1,47,19.55c1.81-2.13,3.33-3.85,3.33-3.85s-1.76,1.56-3.59,3.43c-2.43-4-4.33-7.56-4.33-7.56s1.71,3.91,3.87,8c-.54.57-1.08,1.15-1.56,1.72-1.89,2.23-3.71,4.09-5.89,6.45.11-1.4.23-2.85.3-4.2s.21-3.23.4-5.1l1.32-.55s-.47.18-1.3.41c.29-2.84.71-5.89,1.23-8.43.87-4.26,1.64-8.14,1.64-8.14A26,26,0,0,0,40.62,7.1a64.19,64.19,0,0,0-2.13,10.66c0,.28-.07.58-.1.87a27.27,27.27,0,0,1-4.07.61c-3.93.3-4.75.65-7.44.27a10.73,10.73,0,0,1-4.55-1.8c-.76.18-1.64.42-1.64.42.59,1.91,1.12,3.83,1.65,5.69-.66-1.33-1.14-2.23-1.14-2.23l1.47,4.54c-.11.35-.22.68-.32,1-.47,1.34-1.24,3.69-2.17,6.36q-1.65-2.57-3.45-5.12a46.48,46.48,0,0,1,2.84-4.45,20.59,20.59,0,0,0-3.33,3.78l-.82-1.15c.12-1.56.25-3.19.34-4.71A104.44,104.44,0,0,1,17.4,8.14C18.28,3.88,19.05,0,19.05,0a26,26,0,0,0-1.84,5.33A63.38,63.38,0,0,0,15.08,16c-.3,2.61-.62,5.76-.9,8.9a1.58,1.58,0,0,0-.12-.15,118.71,118.71,0,0,1-8.72-14S8.06,16.89,11,21.93c1,1.7,2,3.29,3,4.88-.12,1.54-.24,3.05-.34,4.47a31.83,31.83,0,0,0-2.05,3.18c-.8,1.45-1.73,3-2.61,4.47-.18-.37-.35-.69-.48-.94a52.48,52.48,0,0,1-4.65-9.11A74.7,74.7,0,0,0,0,20.26c1.16,3.59,3,9.5,4.17,12.21S6.38,37.37,8,40.68c-.33.56-.64,1.11-.92,1.63-1.27,2.33-4.46,8.34-4.46,8.34L5.22,51s1-2.42,1.85-4.46c.45-1,1-2.55,1.7-4.18a62.37,62.37,0,0,1,2.57,8.21l2.42-.68s-.17-.44-.46-1.13l1.39.06s.13-12.8.29-16.67c0-.22,0-.46,0-.7.37-.59.7-1.14,1-1.67,1.16,1.79,2.32,3.66,3.45,5.76-.41,1.14-.83,2.31-1.26,3.46-1.74,4.65-3.29,9.6-3.29,9.6l2.42.48s1-1.74,1.65-6.3a54.82,54.82,0,0,1,1.2-5.87s0,0,0,0c1.65,3.24,3.33,6.86,4.5,9.47-.43.59-.84,1.13-1.2,1.59l2.45,2.2.24-.45a2.19,2.19,0,0,1,.11.27l5.05,1.16s-.54-.88-1.4-2.24l1.74-.35c.55,1.88.88,3.31.88,3.31L35,51.24s-.52-1.28-1.25-3l.5-.1s-1.2-4-2.53-7.73a.62.62,0,0,1,.08-.12c1-1.42,1.95-2.78,2.84-4.13.6,1.3,1.25,2.66,2,4.24-.33,4.87-.74,10.15-.74,10.15l2.23.1s0-3.15.09-6.79a67,67,0,0,1,2.25,7.43l2.42-.68s-3-7.26-4.61-10.7c0-2.43.09-4.66.14-5.93,0-1,.15-2.28.27-3.73,1.86-2.57,3.23-4.5,5.66-7.44.73-.89,1.51-1.81,2.26-2.69.47.92,1,1.84,1.49,2.72,1.28,2.22,2.63,4.24,4,6.32a10.14,10.14,0,0,1-1.78-.89,8.09,8.09,0,0,1-2.62-2.62l-1.26-.19C46,29,45.34,32.6,45.34,35.51a42,42,0,0,1-.67,7.56c-.39,2-1.46,6.4-1.46,6.4l3.58.77a95.77,95.77,0,0,0,.69-9.89c-.1-3.19.05-3.49-.2-6.29a29.09,29.09,0,0,1,0-5.63c1.06,1.07,3.51,1.71,5.76,2.19a75.34,75.34,0,0,1,4.24,7.22c.07.15.16.31.23.47-.12.19-.26.38-.39.57-2.92,4.23-8.83,12.43-8.83,12.43l1.85,1.25s4.31-6.9,7.15-11.33c-.06.38-.11.76-.17,1.18-.68,4.94-1.65,9.21-1.65,9.21l1.65-.87s.59-6.4,1-9.6c0-.44.11-.9.16-1.36,2.67,5.42,5.13,11.13,5.13,11.13l5,1.16s-3.49-5.62-6.59-10.56l-2.31-3.7c1.4-2,3.75-5.07,5.61-7.8L66,28.81c.07.33.14.67.22,1,.8,3.72,1.13,7,2,10.82.25,1.1.45,2.52.63,4-1,2.91-1.71,5.17-1.71,5.17l2.23.44c.09,1.14.13,1.88.13,1.88l3.14-1c-.46-1.77-1-4.37-1.45-7a.88.88,0,0,1,0-.16,58.44,58.44,0,0,1,1.63-7.43c.23,1.37.48,2.77.8,4.25a100.94,100.94,0,0,1,1.28,11.47l2.49-.8h0l2.23-.38c.87-2.52,2.62-7.27,4.07-10.37.84-1.8,1.72-3.5,2.66-5.2a55.48,55.48,0,0,1,.55,8.14c-.1,4.65-.58,9.21-.58,9.21L88.88,52s-.38-6.49-.68-9.11S87.53,36.59,87.14,34.56ZM12.58,47.08c-.84-2-2-4.72-2.91-6.75.4-.88.82-1.76,1.27-2.57.76-1.37,1.68-2.74,2.57-4C13.29,37.59,12.82,44,12.58,47.08Zm2.61-17.89c0-.18,0-.35,0-.53l.16.24ZM24,21.52l-.26,1c-.27-.74-.39-1.17-.39-1.17A3.28,3.28,0,0,0,24,21.52Zm2.65,22.16-1.9-3c-1.23-2-2.53-4-3.89-6.16.27-1,.54-1.94.83-3,.37-1.39.79-3.12,1.18-4.78.89,2.73,1.82,5.49,2.52,7.11.56,1.3,1.12,2.54,1.74,3.87.29,1,.54,2,.74,2.84.07.32.15.69.23,1.09C27.6,42.3,27.11,43,26.63,43.68Zm1.52,2.43.59-1c.19,1,.36,2,.49,2.78Zm3.31-9.34-.74,1c-.31-.77-.6-1.48-.88-2.07-1.8-3.84-1.79-4.27-3.55-7.56a45.08,45.08,0,0,1-2.52-5.54c.1-.43.18-.8.24-1.1a15.41,15.41,0,0,0,5.23-.16c1.17,3.61,2.91,9.16,4,11.77.12.25.23.5.34.76C33,34.74,32.28,35.64,31.46,36.77Zm5.48-1.47c0,.6-.08,1.26-.12,2-.44-.76-.91-1.55-1.39-2.4.55-.84,1.11-1.67,1.7-2.53C37.06,33.38,37,34.38,36.94,35.3Zm.42-5.87c-1.25,1.39-2.15,2.43-3,3.46A28.86,28.86,0,0,1,33,29.55a70.78,70.78,0,0,0-3.66-8.19c1.29-.21,2.59-.49,3.77-.75A40.37,40.37,0,0,0,38.35,19C38,22.11,37.65,25.88,37.36,29.43Zm20.72,6.12c-1-1.5-2-3-3-4.56a34.68,34.68,0,0,0,3.83.31c-.12.49-.23,1-.31,1.42C58.37,33.75,58.22,34.64,58.08,35.55Zm12.3,4.63c-.18-1-.35-1.83-.52-2.6a74.84,74.84,0,0,0-2.5-9.4c-.1-.3-.19-.59-.29-.88.94-1.29,2-2.66,3.08-4,.54,2.25.92,4.16,1.46,6.68.33,1.55.59,3,.82,4.47C71.8,36.28,71.1,38.26,70.38,40.18Zm68.36,2A17.53,17.53,0,0,0,135,46.52l0-.28c.25-2.05.5-4.8.68-5.49.1-.33.32-1.41.53-2.44,1.15-1.31,2.15-2.49,2.15-2.49s-.93.64-2,1.53c.13-.66.22-1.16.22-1.16s-.19.57-.44,1.36a13.17,13.17,0,0,0-1.47,1.52c-1.21,1.51-2.48,2.27-4,3.92.17-.74.31-1.36.4-1.78.41-1.9.82-3.58,1-4.41.47-2,.13-1.9.13-1.9A11.3,11.3,0,0,0,129.19,36a49,49,0,0,1-4.68,1.77,12.24,12.24,0,0,1-3.73.61c1.42.47,2.64.27,5.49-.41l2.23-.53a13.83,13.83,0,0,0-3.08,3c-1.55,2-3.3,4-4.55,5.72a53.83,53.83,0,0,0-3.11,5.33H120s2.43-3.3,3.39-5,1.07-2.33,2.62-4.85c1.33-2.16,2.37-3.74,2.64-4.15l2.17-.52s-.27,1.65-.67,3.05c-.62,2.15-1,3.95-1.44,5.46-.64.74-1.07,1.26-1.87,2.35a20.06,20.06,0,0,0-2,3.25l1.82.48.35-.65c-.22.84-.36,1.45-.36,1.45l2.23-.61c.24-1.42.79-4,1.3-6.25a31.17,31.17,0,0,1,3.18-4c.6-.59,1.55-1.65,2.47-2.7-.19.69-.38,1.42-.51,2.07-.38,1.94-.5,3.06-.93,6.25q-.09.6-.18,1.17c-.88,2-2.09,4.28-2.09,4.28l1.3,0c-.06.28-.1.44-.1.44l.8-.42h.51a27.53,27.53,0,0,1,1.79-5.23s.43-.58,1.36-1.94a37.21,37.21,0,0,1,4.73-5.23c1.79-1.64,4.37-3.51,4.37-3.51C144,38.6,140.61,40.4,138.74,42.19Z"/><path class="cls-1" d="M246.83,36.89a38.56,38.56,0,0,1,3.08-4.24,21.27,21.27,0,0,0-3.16,3.22,45.44,45.44,0,0,0-4.31,7.1c-.61,1.23-1.32,2.76-2,4.2-.18-.28-.36-.55-.53-.78-.83-1.15-1.88-2.4-2.94-3.69.16-.21.55-.75,1.19-1.7a34.22,34.22,0,0,1,4.41-4.87c1.67-1.54,4.08-3.28,4.08-3.28-2.74,1.8-5.88,3.47-7.62,5.14-.58.56-1.11,1.07-1.6,1.57-.22,0-.47-.09-.74-.16,0-.2.05-.39.08-.57.33-2.38,1-7,1.56-9.53S240,23.47,240,23.47a30.82,30.82,0,0,0-2.55,7.4c-.44,2.47-1.25,5.51-1.83,8.22l-.25-.07c-1.2-.42-1.8-.56-2.4-.81a9.21,9.21,0,0,0-.88-.64l.2.3-.27-.16A5.15,5.15,0,0,1,230.34,36l-.81-.13c-.15,1.37-.36,2.72-.51,4-.24-.49-.45-.91-.62-1.22-.42-.76-.92-1.59-1.44-2.46.13-.44.25-.89.38-1.35,1.06-4,2.52-10.76,2.52-10.76s-1.07,4.17-1.85,6.4c-.36,1.06-.93,2.75-1.61,4.73a33.48,33.48,0,0,1-2.65-5.67,75.21,75.21,0,0,0-3.88-8.63c.64,2,1.48,4.64,2.31,7.1a53.12,53.12,0,0,0-1.63,6c-.58,3-.78,4.75-1.46,9.69s-1.64,9.21-1.64,9.21l1.64-.87s.58-6.4,1-9.6.78-7.46,1.07-8.53c.2-.72.79-3.68,1.15-5.54.64,1.89,1.26,3.64,1.76,4.8s1.12,2.54,1.74,3.88c-.6,1.73-1.26,3.59-1.94,5.39-1.74,4.65-3.29,9.59-3.29,9.59l2.43.49s1-1.75,1.64-6.3a60.79,60.79,0,0,1,1.76-7.91c.52,1.08,1.08,2.25,1.73,3.58.25.51.48,1.06.71,1.63a24.68,24.68,0,0,1-.41,3.73c-.25,1.31-.93,4.1-.93,4.1l2.3.5s.27-2.35.39-4.41c.64,2.14,1,3.85,1,3.85l2.43-.68s-1.88-4.6-3.48-8.21c0-.27,0-.57-.07-.93a18.23,18.23,0,0,1,0-3.61,6.72,6.72,0,0,0,3,1.24c.47.72,1.07,1.67,1.73,2.76l.26.4c0,.19-.05.37-.07.55s-.05.5-.08.76c-.83,1.89-2,4.08-2,4.08l1.32,0c-.25,1.34-.47,2.27-.47,2.27l1.72.58c.14-1.78.33-3.68.53-5.46.09-.23.16-.44.24-.65.38.75.65,1.35,1.17,2.29s1.23,2,1.92,3l-.93,2.11,1.68-.29q.09-.24.18-.51c.33.46.55.75.55.75H243s-.87-1.7-1.83-3.33c.61-1.62,1.32-3.39,2-4.75A68.07,68.07,0,0,1,246.83,36.89Zm-11.51,3.69a16.26,16.26,0,0,0-1.11-1.27l.36.08c.3.06.62.1,1,.14C235.45,39.88,235.38,40.24,235.32,40.58Zm1.37-.95.67,0c-.28.29-.55.59-.8.89C236.61,40.23,236.65,39.92,236.69,39.63Zm-23.27-5.07c0-.12,0-.24-.08-.37.46-.78.93-1.57,1.42-2.38a51.08,51.08,0,0,1,4.07-5.62,27.4,27.4,0,0,0-4.16,4.26c-.51.7-1.06,1.47-1.65,2.35-.55-2.21-1.39-5.19-1.84-7-.57-2.32-2.13-6.68-2.13-6.68.49,2.81,1.94,8.63,2.62,11.34.21.85.45,2,.66,3.35a56,56,0,0,0-3.38,6c-1.65,3.35-3.92,8.44-4.88,10.6-.84-3.53-1.78-9.28-2.52-12.73-.49-2.25-.82-3.77-1.3-5.5,1.05-4,2.41-10.34,2.41-10.34s-1.07,4.16-1.84,6.39c-.24.68-.55,1.61-.93,2.72-.23-.79-.51-1.65-.83-2.66-.73-2.21-1.39-4.05-2-5.83,1-1.17,1.93-2.3,2.86-3.3,3-3.18,5.64-6.09,5.64-6.09a26.45,26.45,0,0,0-4.34,3.59c-1.69,1.67-3,2.84-4.57,4.61-.33-1-.66-2-1-3.1a65.85,65.85,0,0,0-2.82-7.43s1.5,4.82,2.64,8.93c.22.81.42,1.54.6,2.24-.67.78-1.4,1.67-2.25,2.75l-1,1.25c-1-2.86-1.83-5.2-2.62-7.9a67.48,67.48,0,0,0-2.83-7.42s1.5,4.81,2.65,8.93c.86,3.09,1.32,5.22,1.83,7.66-2.25,2.95-4.78,6.36-6.91,9.35,0,0-.07-.11-.11-.17a37,37,0,0,1,.54-3.79c.06-.23.16-.7.29-1.3l1,0s-.37,0-1-.1c.45-2.13,1.14-5.69,1.14-5.69s-1,2.9-1.69,5.6a22.37,22.37,0,0,1-3.4-.87c-.47-.17-.87-.3-1.23-.41-1-1.44-2-2.86-3.12-4.25a72.15,72.15,0,0,1-4.14-6.07c1.82-2.13,3.34-3.85,3.34-3.85s-1.77,1.56-3.6,3.43c-2.43-4-4.32-7.56-4.32-7.56s1.71,3.91,3.87,8c-.54.57-1.08,1.15-1.56,1.72-1.9,2.23-3.71,4.09-5.89,6.45.11-1.4.22-2.85.29-4.2s.22-3.23.4-5.1l1.33-.55s-.47.18-1.31.41c.3-2.84.71-5.89,1.23-8.43.88-4.26,1.65-8.14,1.65-8.14A26,26,0,0,0,166.9,7.1a64.19,64.19,0,0,0-2.13,10.66c0,.28-.07.58-.1.87a27.27,27.27,0,0,1-4.07.61c-3.93.3-4.76.65-7.44.27a10.81,10.81,0,0,1-4.56-1.8c-.75.18-1.64.42-1.64.42.6,1.91,1.12,3.83,1.65,5.69-.65-1.33-1.13-2.23-1.13-2.23.42,1.29.93,2.9,1.47,4.54-.11.35-.22.68-.32,1-.47,1.34-1.24,3.69-2.17,6.36q-1.65-2.57-3.46-5.12a47.8,47.8,0,0,1,2.85-4.45,20.59,20.59,0,0,0-3.33,3.78l-.83-1.15c.13-1.56.26-3.19.34-4.71a104.54,104.54,0,0,1,1.65-13.67c.87-4.26,1.65-8.14,1.65-8.14a26,26,0,0,0-1.84,5.33A64.28,64.28,0,0,0,141.35,16c-.29,2.61-.61,5.76-.89,8.9l-.12-.15a118.71,118.71,0,0,1-8.72-14s2.72,6.2,5.62,11.24c1,1.7,2,3.29,3,4.88-.13,1.54-.25,3.05-.34,4.47a30.15,30.15,0,0,0-2,3.18c-.81,1.45-1.73,3-2.61,4.47-.18-.37-.35-.69-.48-.94a53.16,53.16,0,0,1-4.66-9.11,75.4,75.4,0,0,0-3.87-8.62c1.16,3.59,3,9.5,4.17,12.21s2.21,4.9,3.81,8.21c-.32.56-.64,1.11-.92,1.63-1.26,2.33-4.46,8.34-4.46,8.34l2.62.38s1-2.42,1.84-4.46c.45-1,1-2.55,1.71-4.18a62.37,62.37,0,0,1,2.57,8.21l2.42-.68-.46-1.13,1.39.06s.13-12.8.29-16.67c0-.22,0-.46,0-.7a16.87,16.87,0,0,0,1-1.67c1.16,1.79,2.33,3.66,3.46,5.76-.41,1.14-.83,2.31-1.26,3.46-1.74,4.65-3.3,9.6-3.3,9.6l2.43.48s1-1.74,1.64-6.3a54.66,54.66,0,0,1,1.21-5.87v0c1.65,3.24,3.32,6.86,4.5,9.47-.43.59-.84,1.13-1.2,1.59l2.45,2.2.24-.45.11.27,5,1.16L156.2,49l1.74-.35c.54,1.88.88,3.31.88,3.31l2.42-.68s-.52-1.28-1.25-3l.5-.1s-1.2-4-2.53-7.73a.36.36,0,0,1,.08-.12c1-1.42,2-2.78,2.84-4.13.59,1.3,1.25,2.66,2,4.24-.34,4.87-.74,10.15-.74,10.15l2.23.1s0-3.15.08-6.79a65.82,65.82,0,0,1,2.26,7.43l2.42-.68s-3-7.26-4.62-10.7c0-2.43.1-4.66.15-5.93,0-1,.14-2.28.27-3.73,1.86-2.57,3.23-4.5,5.65-7.44l2.26-2.69c.48.92,1,1.84,1.49,2.72,1.29,2.22,2.63,4.24,4,6.32a10.55,10.55,0,0,1-1.79-.89A8.12,8.12,0,0,1,174,25.62l-1.26-.19c-.39,3.58-1.07,7.17-1.07,10.08a42,42,0,0,1-.67,7.56c-.39,2-1.46,6.4-1.46,6.4l3.58.77a98.82,98.82,0,0,0,.69-9.89c-.1-3.19,0-3.49-.2-6.29a29.09,29.09,0,0,1,0-5.63c1.06,1.07,3.51,1.71,5.76,2.19a77.49,77.49,0,0,1,4.24,7.22l.23.47-.39.57c-2.93,4.23-8.83,12.43-8.83,12.43l1.85,1.25s4.3-6.9,7.14-11.33c-.05.38-.11.76-.16,1.18-.68,4.94-1.65,9.21-1.65,9.21l1.65-.87s.58-6.4,1-9.6c0-.44.1-.9.15-1.36,2.67,5.42,5.14,11.13,5.14,11.13l5,1.16s-3.49-5.62-6.59-10.56l-2.31-3.7c1.39-2,3.74-5.07,5.61-7.8.26-.38.54-.79.85-1.21q.11.5.21,1c.81,3.72,1.14,7,2,10.82.24,1.1.45,2.52.62,4-1,2.91-1.7,5.17-1.7,5.17l2.23.44c.09,1.14.13,1.88.13,1.88l3.14-1c-.46-1.77-1-4.37-1.46-7l0-.16a58.44,58.44,0,0,1,1.63-7.43c.23,1.37.47,2.77.8,4.25a102.56,102.56,0,0,1,1.27,11.47l2.49-.8h0l2.23-.38c.87-2.52,2.61-7.27,4.07-10.37.84-1.8,1.72-3.5,2.66-5.2a54.13,54.13,0,0,1,.54,8.14c-.09,4.65-.58,9.21-.58,9.21l2.62-.88s-.39-6.49-.68-9.11S213.8,36.59,213.42,34.56ZM138.86,47.08c-.84-2-2-4.72-2.92-6.75.41-.88.83-1.76,1.28-2.57.75-1.37,1.68-2.74,2.57-4C139.57,37.59,139.09,44,138.86,47.08Zm2.6-17.89a4.73,4.73,0,0,0,0-.53l.17.24Zm8.8-7.67c-.08.27-.16.6-.26,1-.27-.74-.39-1.17-.39-1.17A3.28,3.28,0,0,0,150.26,21.52Zm2.65,22.16c-.63-1-1.27-2-1.91-3-1.23-2-2.52-4-3.88-6.16.27-1,.54-1.94.83-3,.37-1.39.79-3.12,1.18-4.78.89,2.73,1.82,5.49,2.52,7.11.56,1.3,1.12,2.54,1.74,3.87.29,1,.54,2,.73,2.84.08.32.16.69.24,1.09Zm1.52,2.43c.19-.34.38-.69.59-1,.19,1,.36,2,.49,2.78Zm3.31-9.34c-.24.32-.48.67-.74,1-.31-.77-.61-1.48-.88-2.07-1.81-3.84-1.79-4.27-3.55-7.56a42.19,42.19,0,0,1-2.52-5.54c.09-.43.17-.8.24-1.1a15.41,15.41,0,0,0,5.23-.16c1.17,3.61,2.91,9.16,4,11.77.11.25.23.5.33.76C159.22,34.74,158.56,35.64,157.74,36.77Zm5.47-1.47c0,.6-.07,1.26-.11,2-.44-.76-.92-1.55-1.39-2.4.55-.84,1.1-1.67,1.7-2.53C163.34,33.38,163.27,34.38,163.21,35.3Zm.42-5.87c-1.24,1.39-2.14,2.43-3,3.46a30.72,30.72,0,0,1-1.41-3.34,71.05,71.05,0,0,0-3.65-8.19c1.29-.21,2.59-.49,3.77-.75A40.86,40.86,0,0,0,164.63,19C164.29,22.11,163.92,25.88,163.63,29.43Zm20.73,6.12c-1-1.5-2-3-3-4.56a34.68,34.68,0,0,0,3.83.31c-.12.49-.23,1-.32,1.42C184.65,33.75,184.5,34.64,184.36,35.55Zm12.3,4.63c-.18-1-.36-1.83-.53-2.6a74.74,74.74,0,0,0-2.49-9.4c-.1-.3-.2-.59-.29-.88.94-1.29,2-2.66,3.08-4,.54,2.25.92,4.16,1.46,6.68.33,1.55.58,3,.82,4.47C198.08,36.28,197.38,38.26,196.66,40.18Zm68.36,2a17.8,17.8,0,0,0-3.74,4.33,2.7,2.7,0,0,1,0-.28c.24-2.05.49-4.8.68-5.49.09-.33.32-1.41.52-2.44,1.16-1.31,2.16-2.49,2.16-2.49a24.31,24.31,0,0,0-2,1.53l.23-1.16s-.2.57-.44,1.36A12.39,12.39,0,0,0,261,39.07c-1.22,1.51-2.48,2.27-4,3.92.17-.74.31-1.36.4-1.78.4-1.9.82-3.58,1-4.41.47-2,.13-1.9.13-1.9A11.32,11.32,0,0,0,255.46,36a48,48,0,0,1-4.68,1.77,12.19,12.19,0,0,1-3.72.61c1.42.47,2.64.27,5.49-.41l2.23-.53a13.61,13.61,0,0,0-3.08,3c-1.55,2-3.3,4-4.56,5.72a55.17,55.17,0,0,0-3.1,5.33h2.23s2.42-3.3,3.39-5,1.07-2.33,2.62-4.85c1.33-2.16,2.37-3.74,2.64-4.15l2.17-.52s-.28,1.65-.68,3.05c-.61,2.15-1,3.95-1.44,5.46-.63.74-1.07,1.26-1.86,2.35a20.64,20.64,0,0,0-2,3.25l1.83.48.34-.65L253,52.26l2.24-.61c.23-1.42.78-4,1.3-6.25a31.17,31.17,0,0,1,3.18-4c.59-.59,1.55-1.65,2.47-2.7-.2.69-.39,1.42-.51,2.07-.38,1.94-.5,3.06-.94,6.25-.06.4-.11.79-.17,1.17-.88,2-2.09,4.28-2.09,4.28l1.29,0c-.05.28-.09.44-.09.44l.8-.42h.5a27.53,27.53,0,0,1,1.79-5.23s.44-.58,1.37-1.94a37.07,37.07,0,0,1,4.72-5.23c1.8-1.64,4.38-3.51,4.38-3.51C270.25,38.6,266.88,40.4,265,42.19Z"/></g></g></svg>