<svg xmlns="http://www.w3.org/2000/svg" viewBox="0 0 573.7 52.76"><defs><style>.cls-1{fill:#39b54a;}</style></defs><title>Ресурс 10</title><g id="Слой_2" data-name="Слой 2"><g id="Vector_Graphics" data-name="Vector Graphics"><path class="cls-1" d="M262.14,13l.29-.09ZM227.72,3.39l-.39-.12ZM83.33,8.24l-.39-.12Zm34.43,9.63.29-.08A2.35,2.35,0,0,0,117.76,17.87Zm274.69-.69.28-.09ZM358,7.54l-.39-.11ZM39,24.37l.32-.38A2.18,2.18,0,0,0,39,24.37Zm338.1,1.85.31-.39A2.34,2.34,0,0,0,377.1,26.22Zm57.76-.61.31-.39A3.24,3.24,0,0,0,434.86,25.61ZM559.27,48.26c.17-.34.33-.68.5-1s.3-1,.53-1.43l.14-.11a18.63,18.63,0,0,0,2.06-1.93c.87-1,1.72-2,2.58-3a23,23,0,0,0,1.66-2.36,9.83,9.83,0,0,0,.76-1.6c.25-.53.6-.9.83-1.46A22.69,22.69,0,0,0,569.59,32c.1-.43.35-.79.48-1.19,1.23-2.48,1.38-5.39,2.26-8.56,0,0-.41,1.1-1.17,3q-.15.39-.3.84a25.61,25.61,0,0,1-3.52,5.84l-4.15,3.19A29.21,29.21,0,0,0,565,31.24a6.81,6.81,0,0,1,.7-1.49,6.19,6.19,0,0,0,.41-1.48,8.55,8.55,0,0,0,.51-1.3c.09-.56.21-1.1.35-1.64-.38.85-.86,1.59-1.25,2.43a9.42,9.42,0,0,1-1.18,2.2c-1,1.25-2,2.58-3,3.84a5.63,5.63,0,0,1-1.23,1V28.3c0-.18.07-.36.11-.53.11-.63.4-1.14.51-1.76a36.52,36.52,0,0,0,.59-3.65,7.25,7.25,0,0,1,.18-1.4c.14-.6,0-1.22.06-1.83a20.89,20.89,0,0,0-.05-4c-.14.78-.32,1.54-.46,2.31-.12.59-.36,1.09-.48,1.71a7.78,7.78,0,0,1-.77,1.95c-.27.54-.37,1.18-.66,1.72-.7,1.32-1.37,2.66-2.08,4,.22-.88.44-1.77.63-2.67a57.24,57.24,0,0,0,1-6.18,20.48,20.48,0,0,0,.11-3.75c-.14-1.26-.06-2.51-.13-3.78a44.1,44.1,0,0,0-1.12-7.48h0c0,1.46,0,2.94-.14,4.38s-.14,3.25-.43,4.74-.63,3-.94,4.52c-.16.81-.33,1.63-.49,2.44s-.47,1.32-.67,2-.34,1.61-.61,2.29c-.2.49-.45.88-.61,1.4a16.45,16.45,0,0,1-.8,2.12l-.52-.71s0,0,0,0a36.51,36.51,0,0,0,.58-3.65,9.24,9.24,0,0,1,.18-1.4,15.91,15.91,0,0,0,.07-1.83,15.63,15.63,0,0,0,0-3.06c.72-1.09,1.5-2.18,2.33-3.26-.82,1-1.61,1.92-2.35,2.9,0-.21,0-.41,0-.61l-.18.91a27.47,27.47,0,0,0-3.49,5.85c-.09-1.28-.19-2.55-.29-3.83-.22,1.13-.47,2.25-.63,3.4-.12.87-.17,1.77-.36,2.61l-.07.08V20.81a4,4,0,0,1-.31.88c-.34.67-.59,1.44-.89,2.15a11,11,0,0,0-.18-1.21c-.54-2.5-1-5-1.58-7.51-.24.18-.26.61-.32.93s-.24.58-.32.91c-.17.74-.09,1.59-.21,2.34a12.53,12.53,0,0,0,0,2.87c.08.87,0,1.67,0,2.54a16.25,16.25,0,0,1,0,2.61c-.07-.11-.11-.22-.18-.33a14.29,14.29,0,0,0-2-2.54,45.94,45.94,0,0,0,.67-4.56c0-.46.06-.91.08-1.37a13.38,13.38,0,0,1-1.1,2.75L541.89,20c-.12.59-.22,1.18-.32,1.76a18.15,18.15,0,0,0-3-8.71c-2.77-4.1-7.5-7.77-11.91-11.59,4.06,3.87,8.47,7.61,10.87,11.74a17.6,17.6,0,0,1,2.28,8.88l-1.09-1c-.28-1.35-.57-2.68-.91-4-.28.22-.43,1.17-.56,1.57a4.63,4.63,0,0,0-.16.93l-.83-.8.82.94a15.28,15.28,0,0,1-.11,1.55,8.14,8.14,0,0,0,0,1.85c-.46-.79-.86-1.65-1.29-2.48-.66-1.28-.52-2.34-1.13-3.67.46,1.12-.41,2.59-.14,3.82s.28,2.71.52,4a26.83,26.83,0,0,1,.36,4.3c0,1,.11,2,.14,3-.09.2-.19.39-.28.59-.17.38-.36.74-.56,1.1a15.94,15.94,0,0,1-.59-2.72,12.21,12.21,0,0,0-.31-1.33,4,4,0,0,1,.08-.48,8.13,8.13,0,0,0,0-2c0-.75.14-1.47.1-2.23-.09-1.68-.24-3.35-.35-5-.38,1.85-.61,3.67-.9,5.54a7.3,7.3,0,0,1-.22.95,1.44,1.44,0,0,1-.07-.36,5.6,5.6,0,0,0-.52-1.59c-.26-.63-.33-1.3-.6-1.93s.65,2.91.31,2.49a6.1,6.1,0,0,1-.64-1.5c-.42-2.18-.87-4.36-1.4-6.51-.28.22-.43,1.17-.56,1.57a3.78,3.78,0,0,0-.16,1,31.89,31.89,0,0,1-2-3,17.6,17.6,0,0,1,1.13,4.9c.17,1.78-.42-.32-.34,1.49a62.57,62.57,0,0,1,.19,6.42c0,.48-.09,1-.13,1.43s-.86-6.13-1-5.77,0,.72-.08,1.05a12.92,12.92,0,0,0-.21,1.52c0,.09.07.43.12.88a12.89,12.89,0,0,1,.2-2,12.34,12.34,0,0,1-.19,2c0,.31.08.65.12,1a14.82,14.82,0,0,1,.3,2.12,10.92,10.92,0,0,1-.3-2.12c0-.32-.1-.64-.13-1-.21,1-.58.82-1,.44,0-.16,0-.32,0-.49a31.31,31.31,0,0,1,.17-3.88,7.32,7.32,0,0,0,.12-.94c0-.26-.15-.49-.12-.74.06-.46.14-.92.21-1.37-.45,1.09-.86,2.2-1.24,3.32.22-1.15.45-2.34.79-3.58,0,0-.41,1.11-1.17,3-.15.39-.29.82-.44,1.29a9,9,0,0,0-.4-1.05c-.26-.63-.34-1.3-.6-1.93-.06-.16,0,0,0,.31-.33-.93-.67-1.85-1-2.75a6.18,6.18,0,0,1,.2,1.53,3,3,0,0,0-.06.87,18.42,18.42,0,0,1-1.17-2.15c-.6-1.46-1.75-2.42-2.4-3.84a17.6,17.6,0,0,1,1.13,4.9c.17,1.78-.43-.32-.34,1.49,0,.87.09,1.77.14,2.68a18.77,18.77,0,0,1-.44-1.93c-.12.8-.25,1.57-.39,2.34-.11-.67-.2-1.11-.23-1-.09.3,0,.72-.08,1.05s-.14.89-.19,1.34a34.54,34.54,0,0,1,.16-3.67,4.26,4.26,0,0,0,0-1.51,5.89,5.89,0,0,1,.21-1.54c-.86,2.07-1.56,4.23-2.29,6.39-.56-1.69-1.13-3.34-1.8-5,.07.46.15.92.21,1.37,0,.26-.12.49-.12.74a5.91,5.91,0,0,0,.13.94c0,.42.06.83.08,1.25-.19.75-.38,1.51-.56,2.26-.14-.08-.26-.28-.34-.68,0,.12,0,.24-.05.36v0c0-.13,0-.25,0-.37a12.44,12.44,0,0,1-.19-2,14.29,14.29,0,0,1,.2,2c0-.45.1-.79.12-.88,0-.52-.12-1-.21-1.53a2.42,2.42,0,0,1,0-.48l.25-.35-.25.19a2.43,2.43,0,0,0-.05-.4c0-.08-.08.15-.15.57a2.86,2.86,0,0,0-.3.24c-.06-.34-.12-.69-.17-1a12.63,12.63,0,0,1-.32,1.44l-.16.13c0-1.16.13-2.32.18-3.43.08-1.81-.51.28-.35-1.49A17.89,17.89,0,0,1,513.3,16c-.66,1.42-1.8,2.37-2.41,3.84a19.77,19.77,0,0,1-1.23,2.27,8.1,8.1,0,0,1,.21-1.42c-.51,1.24-1,2.51-1.41,3.8,0-.43.58-2.93.39-2.47-.27.63-.34,1.3-.6,1.94a5.2,5.2,0,0,0-.51,1.59,3.57,3.57,0,0,1-.32,1c-.1-.3-.21-.59-.31-.89.1-.76.16-1.25.1-1s-.12.5-.18.75c-.39-1.12-.79-2.23-1.24-3.32.07.46.14.92.2,1.37,0,.26-.11.49-.12.74s.1.63.13.94,0,.33,0,.5c-.24-.34-.48-.68-.75-1a7.39,7.39,0,0,1,.79,1.66c.06.91.1,1.82.09,2.74,0,.25,0,.5,0,.74a6.36,6.36,0,0,0-.16.73q-.07.48-.15.93c-.16.21-.32.41-.49.61s-.53.61-.8.9c0-1.11.11-2.24.15-3.33s.06-2,.17-3c.08-.46.17-.91.29-1.36,0,.1-.09.19-.14.29,0-.08,0-.17,0-.25.05-.26.08-.52.11-.79l.09.11-.08-.12c.13-1.07.17-2.18.4-3.21.27-1.23-.61-2.7-.13-3.82-.61,1.33-.48,2.39-1.14,3.68-.44.86-.87,1.77-1.37,2.59,0-.17,0-.35,0-.53s0-.36,0-.55c.79-3.75,3.07-7.32,5.76-10.85A38.29,38.29,0,0,0,503,20.36a10.09,10.09,0,0,0-.24-2.23c-.13-.42-.28-1.36-.56-1.58-.65,2.58-1.17,5.2-1.65,7.84a16.84,16.84,0,0,0-.16,3.89c0,.48,0,.93.05,1.38-.08.2-.16.39-.23.59a4.53,4.53,0,0,1-.16-.88c0,.11-.23-.63-.27-.77a9.21,9.21,0,0,1-.17-1.19c-.09-.86-.43-1.57-.56-2.42-.28-1.86-.52-3.69-.89-5.53-.05.79-.11,1.58-.18,2.38.06.65.11,1.31.17,2a7.5,7.5,0,0,1-.25,2.67c0,.08,0,.16,0,.25s0,.14,0,.21c-.14-.29-.29-.58-.46-.86a10.51,10.51,0,0,0-.69-1c.19-1.22.22-2.52.48-3.71a6.3,6.3,0,0,0-.2-2.26c.05-.4.1-.79.13-1.19,0-.16,0-.31,0-.48a2,2,0,0,1-.47-.44A16.46,16.46,0,0,1,495,14.05c-.11.55-.23,1.09-.34,1.65l0,0c-.18.73-.34,1.47-.5,2.21a17.14,17.14,0,0,0-2.48-5.74C488.88,8,484.16,4.36,479.74.55c4.06,3.86,8.47,7.6,10.87,11.74a17.58,17.58,0,0,1,2.28,8.88c-.7-.63-1.43-1.29-2.16-2,0-.2-.09-.41-.12-.62,0,.16,0,.32,0,.47-.41-.38-.82-.77-1.23-1.18,0,0,.45.51,1.21,1.4-.11,1.45-.23,2.89-.31,4.34,0,.76.12,1.48.11,2.23a7.57,7.57,0,0,0,0,2.28,2.57,2.57,0,0,1,.06.4l0,0c-.33.65-.7,1.25-1,1.93-.14.31-.27.68-.42,1-.07-.16-.13-.32-.2-.46-.3-.67-.67-1.28-1-1.92a.05.05,0,0,0,0,0,6.14,6.14,0,0,1,.07-1.49,7.57,7.57,0,0,0,0-2.28c0-.75.15-1.47.1-2.23-.08-1.68-.23-3.35-.35-5-.17.82-.33,1.64-.48,2.47a6.33,6.33,0,0,0-.06-.64c-.12-.75,0-1.61-.21-2.35-.08-.32-.26-.58-.32-.9s-.08-.75-.32-.94c-.49,2-.86,4-1.26,6-.45-2.17-.85-4.37-1.38-6.52a.55.55,0,0,0-.19.31c-.06-.28-.12-.55-.17-.83a16.88,16.88,0,0,1-1.71,3A2.45,2.45,0,0,1,481,18c0,.16,0,.32,0,.47a44.89,44.89,0,0,0,.76,5.05.34.34,0,0,0,0,.1c0,.76.12,1.48.11,2.23a7.26,7.26,0,0,0,0,2.28,13.24,13.24,0,0,1,.1,1.79,3.71,3.71,0,0,1-.15.6c-.12.22-.26.26-.33.54a1.07,1.07,0,0,1-.44.72,1.16,1.16,0,0,0-.27.4,2,2,0,0,1-.1-.21c0-.17-.07-.32-.09-.44-.06-.36-.2-1.09-.37-1.85,0-.12,0-.25.06-.37a8.13,8.13,0,0,0,0-2c0-.08,0-.16,0-.24a7.55,7.55,0,0,1-.25-2.68c.06-.65.11-1.31.16-2s-.12-1.59-.18-2.38c-.36,1.85-.6,3.67-.88,5.54-.11.75-.39,1.4-.51,2.14a17.51,17.51,0,0,1-.93-2.36c0-.13,0-.26-.05-.39-.5-2.64-1-5.25-1.65-7.84a2.92,2.92,0,0,0-.48,1.22c-.08-.41-.16-.82-.25-1.23-.3-1.5-.64-3-.93-4.52s-.29-3.2-.44-4.74-.08-2.91-.13-4.38h0a46.22,46.22,0,0,0-1.13,7.48c-.07,1.27,0,2.52-.13,3.78a20.49,20.49,0,0,0,.13,3.75c0,.17,0,.34.05.51a4.63,4.63,0,0,0-.12,1.84c.28,1.29.27,2.71.52,4,.11.59.18,1.17.23,1.75-.12-.22-.23-.45-.33-.68.14.54.26,1.08.35,1.64a2,2,0,0,0,.06.23c0,.45,0,.9.05,1.36,0,1,.11,2,.14,3-.09.19-.19.38-.28.58l-.15.32-.36-.4-.44-.54-.12-.59c-.07-.36-.21-1.09-.37-1.85,0-.12,0-.25.06-.37a8.63,8.63,0,0,0,0-2,1.93,1.93,0,0,1,0-.24,7.33,7.33,0,0,1-.25-2.68c.06-.65.11-1.31.16-2L471.66,20c-.37,1.85-.61,3.67-.89,5.54a7.3,7.3,0,0,1-.22.95,2.09,2.09,0,0,1-.08-.36,5.29,5.29,0,0,0-.51-1.59c-.26-.63-.33-1.3-.6-1.93s.65,2.91.31,2.49a6.1,6.1,0,0,1-.64-1.5c-.42-2.18-.87-4.36-1.4-6.51-.28.22-.43,1.17-.56,1.57a3.78,3.78,0,0,0-.16,1,31.89,31.89,0,0,1-2-3,17.6,17.6,0,0,1,1.13,4.9c.17,1.78-.42-.32-.34,1.49s.23,3.65.21,5.45l-.06-.11c-.21-.47-.46-.92-.7-1.36a7.46,7.46,0,0,0-.37-1.9c-.09.3,0,.7-.08,1l-.1-.2c0,.12,0,.24.08.36-.08.46-.15.92-.19,1.39,0,.09.07.43.12.88a9.86,9.86,0,0,1,.18-1.78s0,0,0,.06a11.67,11.67,0,0,1-.18,1.77c0,.31.08.65.12,1a16.39,16.39,0,0,1,.3,2.12,9.75,9.75,0,0,1-.3-2.12,7.71,7.71,0,0,1-.13-1c-.21,1-.58.82-1,.44,0-.16,0-.32,0-.49a33.38,33.38,0,0,1,.16-3.88,5.91,5.91,0,0,0,.13-.94,5,5,0,0,1-.12-.74c.06-.46.14-.92.21-1.37-.52,1.23-1,2.49-1.4,3.76a.29.29,0,0,0,0-.09c0-.14,0-.06,0,.18-.13.36-.26.73-.38,1.1-.06-.15-.1-.29-.16-.44a5.35,5.35,0,0,0-.5-1.57c-.26-.63-.33-1.3-.6-1.93-.06-.16,0,0,0,.31-.33-.93-.67-1.85-1.05-2.75a5.36,5.36,0,0,1,.2,1.53,3.36,3.36,0,0,0-.05.87,17,17,0,0,1-1.16-2.15c-.62-1.46-1.75-2.42-2.41-3.84a18,18,0,0,1,1.13,4.9c.17,1.78-.43-.32-.34,1.49,0,.87.09,1.77.14,2.68a18.77,18.77,0,0,1-.44-1.93c-.12.8-.25,1.57-.4,2.34-.1-.67-.19-1.11-.22-1-.09.3,0,.72-.08,1.05s-.14.89-.19,1.34a32.09,32.09,0,0,1,.17-3.67,4.26,4.26,0,0,0,0-1.51,5.89,5.89,0,0,1,.21-1.54c-.86,2.07-1.56,4.23-2.29,6.39-.56-1.69-1.13-3.34-1.8-5,.07.46.15.92.21,1.37,0,.26-.12.49-.12.74a7.32,7.32,0,0,0,.12.94c0,.42.07.83.09,1.25l-.57,2.26c-.13-.08-.25-.28-.33-.68,0,.12,0,.24-.05.36v0c0-.13,0-.25,0-.37a12.44,12.44,0,0,1-.19-2,14.29,14.29,0,0,1,.2,2c.06-.45.1-.79.12-.88,0-.52-.12-1-.21-1.53-.06-.33,0-.74-.08-1a5.71,5.71,0,0,0-.32,1.59c-.11-.6-.21-1.2-.3-1.81-.11.76-.34,1.43-.5,2.17,0-1.36.14-2.73.2-4,.08-1.81-.51.28-.35-1.49.06-.63.16-1.29.28-2l.18-.19-.17.16a14.46,14.46,0,0,1,.85-2.92c-.66,1.42-1.8,2.37-2.41,3.84a10.09,10.09,0,0,1-.52,1l-.66.59c.06-.28.13-.57.16-.78-.14.33-.26.66-.39,1-.13.13-.27.25-.41.37a17.6,17.6,0,0,1,2.28-8.88c2.4-4.13,6.81-7.87,10.87-11.74C456,5.29,451.27,9,448.5,13.06a19,19,0,0,0-3.07,10.74l-.59.59c-.27-.75-.55-1.49-.86-2.23.06.46.14.92.2,1.37,0,.26-.11.49-.12.74a5.85,5.85,0,0,0,.11.84,15.15,15.15,0,0,0-1.05,1.32c0-.35.09-.71.16-1.06.25-1.3.24-2.72.52-4s-.6-2.7-.14-3.82c-.61,1.33-.47,2.39-1.13,3.68-.45.86-.87,1.77-1.36,2.59a4.78,4.78,0,0,1,0-.53,11.45,11.45,0,0,0,0-2.55,17.09,17.09,0,0,0-.28-2.6c-.13-.42-.28-1.36-.56-1.58-.64,2.58-1.17,5.2-1.66,7.84a14.21,14.21,0,0,0-.17,1.64,14.87,14.87,0,0,0-.29-1.73,18.33,18.33,0,0,0-1.87-4.59c0-.08,0-.17-.05-.25s0,.1,0,.15c-.34-.61-.72-1.22-1.13-1.82a2.33,2.33,0,0,1,.07-.25,1.45,1.45,0,0,1-.09.22,51.2,51.2,0,0,0-3.81-5A46.7,46.7,0,0,1,435,18.23a15.29,15.29,0,0,1-.88,3c-.14.27-.28.56-.42.85a9.58,9.58,0,0,0,0-2.21c-.13-.75,0-1.61-.21-2.35-.08-.32-.26-.58-.32-.9s-.08-.75-.32-.94c-.61,2.48-1,5-1.58,7.52a12.1,12.1,0,0,0-.19,1.29,2.79,2.79,0,0,1-.87-.57c-.21-.21-.41-.43-.61-.65,0-.43-.08-.85-.14-1.28-.16-1.14-.41-2.27-.64-3.4-.08,1.12-.16,2.24-.25,3.35a13.18,13.18,0,0,1-1.82-4c0,.45,0,.91.08,1.37a57.46,57.46,0,0,0,1.06,6.56c.09.39.18.77.26,1.15-1-.91-1.7-1.41-1.7-1.41.74,1,1.42,2,2.08,3,0,.18.09.36.13.54a3.55,3.55,0,0,0,0,.86c.13.6.12,1.2.24,1.82.07.31.11.62.15.94a6.33,6.33,0,0,1-.76-.71,16,16,0,0,0,0-2.69,16.07,16.07,0,0,1-.38,2,.48.48,0,0,0-.05.17,16.18,16.18,0,0,0-1.45-1.7,3,3,0,0,1-.23-.27c-.08-.16-.17-.31-.25-.46-.25-.5-.52-1-.76-1.57a19.08,19.08,0,0,1,0-2.27c0-.87-.09-1.66,0-2.54a11.9,11.9,0,0,0,.05-2.86c-.13-.75,0-1.61-.22-2.35-.07-.32-.25-.58-.32-.9s-.07-.75-.31-.94c-.49,2-.87,4-1.27,6,0-.05,0-.12-.05-.17-.2-.66-.53-1.29-.67-2s-.33-1.62-.5-2.44c-.3-1.5-.63-3-.93-4.52s-.29-3.2-.43-4.74-.09-2.91-.14-4.38h0a45.13,45.13,0,0,0-1.12,7.48c-.06.93,0,1.85-.06,2.77-.83,1-1.62,2-2.36,3-.14-.71-.3-1.41-.43-2.12-.06.93-.14,1.92-.13,2.88-.23.32-.44.65-.66,1a30.34,30.34,0,0,0-.1-3.31c-.15.78-.32,1.54-.47,2.31-.12.59-.35,1.09-.47,1.71a5.09,5.09,0,0,1-.38,1.12,4.44,4.44,0,0,1-.21-.71c-.17-.81-.33-1.62-.5-2.44-.3-1.5-.64-3-.93-4.52a46.11,46.11,0,0,1-.43-4.74c-.14-1.44-.1-2.91-.14-4.38h0a45.14,45.14,0,0,0-1.13,7.48c-.07,1.27,0,2.52-.13,3.78a20.48,20.48,0,0,0,.12,3.75,52.85,52.85,0,0,0,1,6.19c0,.16.07.31.11.47-.19.37-.38.74-.58,1.1-.05-.11-.11-.22-.16-.34,0,.15.06.31.1.46s-.16.3-.23.45l-.56.94-.15.23-.17,0a5,5,0,0,0-.54-.08c.31-1.13.61-2.26.86-3.41V20.81a4.6,4.6,0,0,1-.31.88c-.38.76-.65,1.63-1,2.42s-.78,1.73-1.17,2.6a2.26,2.26,0,0,1-.16.26,18.45,18.45,0,0,0-2.37-2.71,23.81,23.81,0,0,0-.37-4l0-.33c0-.46.06-.91.08-1.37-.08.3-.18.61-.29.91a17.34,17.34,0,0,0-2.52-5.91,35.79,35.79,0,0,0-5.48-6c1.81-1.81,3.79-3.6,5.7-5.41-2,1.73-4.07,3.43-6,5.15-2-1.77-4.08-3.52-6.14-5.29,2,1.86,4,3.69,5.86,5.56a36.07,36.07,0,0,0-5.44,5.88c-.38-.19-.76-.39-1.18-.57a11.6,11.6,0,0,1,1.13.65l-.15.21a17.45,17.45,0,0,0-2.31,5,23.78,23.78,0,0,0-5,2.89c-.2-.37-.41-.75-.58-1.15-.6-1.46-1.75-2.42-2.4-3.84a18,18,0,0,1,1.13,4.9c.15,1.67-.36-.08-.36,1.22l-1.36.35c-1.25-3.32-3.62-6.49-6.3-9.64,2.45,3.22,4.57,6.47,5.53,9.85-1.34.38-2.72.82-4.1,1.31,0-.1,0-.19,0-.29,0,.11-.05.22-.06.33-.6.22-1.2.44-1.79.68.53-3.22.69-6.31-.21-8.33-2.24-5-11.8-8.48-14.9-9.43,2,.63,11.29,3.76,13.82,9.46,1.05,2.34.72,5.56,0,8.87l-.14.07c0-.72.07-1.44.14-2.16a4.26,4.26,0,0,0,0-1.51,5.48,5.48,0,0,1,.2-1.54c-.82,2-1.5,4.05-2.19,6.12l-.16.08c-.54-1.62-1.09-3.22-1.74-4.77.07.46.15.92.21,1.37,0,.26-.11.49-.11.74a7.32,7.32,0,0,0,.12.94c.08.84.13,1.68.14,2.53a16.87,16.87,0,0,0-3.06,2.43l-.4-.18a16.69,16.69,0,0,0,.08-1.73c0-.22,0-.46,0-.71.13-.53.36-1,.46-1.54a36.51,36.51,0,0,0,.58-3.65,8.12,8.12,0,0,1,.18-1.4c.15-.6,0-1.22.07-1.83a21.73,21.73,0,0,0-.05-4c-.15.78-.32,1.54-.47,2.31-.11.59-.35,1.09-.48,1.71a7.42,7.42,0,0,1-.77,1.95c-.27.54-.37,1.18-.66,1.72-.7,1.33-1.37,2.68-2.08,4-.18.32-.37.63-.56.94-.09.14-.18.29-.28.43l-.59-.27c.31-1.14.62-2.29.87-3.45V20.81a4.6,4.6,0,0,1-.31.88c-.38.76-.65,1.63-1,2.42s-.75,1.67-1.13,2.5c0-.41.11-.83.18-1.24.25-1.3.24-2.72.53-4s-.61-2.7-.14-3.82c-.61,1.33-.48,2.39-1.14,3.68-.32.63-.64,1.29-1,1.92-.06-.16-.09-.26-.09-.26a2.64,2.64,0,0,0,.07.3c-.19.35-.38.7-.59,1a8.79,8.79,0,0,0-.69,1.52l-.06.11-.85-.4a50.68,50.68,0,0,0,.85-5.54,60.91,60.91,0,0,0,0-7.15,43.47,43.47,0,0,0-1.16-7.92c-.05,1.35.06,2.83-.11,4.16s-.27,2.89-.39,4.32a36.53,36.53,0,0,1-.8,4.17,27.87,27.87,0,0,1-1,4.44c-.23.63-.42,1.28-.63,1.92A10.56,10.56,0,0,1,349.26,22a9.31,9.31,0,0,0,0-2.18c-.12-.75,0-1.61-.2-2.35-.08-.32-.27-.58-.33-.9a3,3,0,0,0-.17-.76,13.47,13.47,0,0,1,.74-1.49,8,8,0,0,0-1.81,3.52,4.83,4.83,0,0,0,0,2c-.22,1.1-.44,2.21-.68,3.31a12.35,12.35,0,0,0-.22,1.69c-.09-1.62-.24-3.24-.35-4.87-.33,1.64-.55,3.27-.8,4.92A21.83,21.83,0,0,1,345,22c-.16-1.14-.42-2.27-.64-3.4-.12,1.68-.27,3.35-.36,5-.05.76.11,1.48.1,2.23,0,.35,0,.69-.06,1a12,12,0,0,0-.19-1.93c-.49-2.64-1-5.25-1.65-7.84-.28.22-.43,1.17-.57,1.57a18.75,18.75,0,0,0-.28,2.62,10.88,10.88,0,0,0,0,2.55c.07,1,0,1.87,0,2.85,0,.44.05.88.05,1.32l-.41.06a18.62,18.62,0,0,1-1.16-2.86,14.93,14.93,0,0,0-.6-1.41c-.27-.67-.39-1.57-.61-2.29l0,0c.06-.22.11-.45.17-.68,0,0-.07.2-.21.56a14.54,14.54,0,0,1-.61-1.83c-.17-.81-.33-1.62-.5-2.44-.31-1.5-.64-3-.93-4.52a46.11,46.11,0,0,1-.44-4.74C336,6.39,336,4.92,336,3.45h0a45.14,45.14,0,0,0-1.13,7.48c-.07,1.27,0,2.52-.13,3.78a20.48,20.48,0,0,0,.12,3.75,52.85,52.85,0,0,0,1,6.19c0,.12.06.24.08.37s0,.16-.08.09a12.06,12.06,0,0,1-.76-1.78c-.35-.66-.76-1.3-1.13-2,0-.45-.07-.9-.1-1.35-.06.28-.1.56-.16.84-.06-.14-.13-.27-.2-.42-.61-1.46-1.75-2.42-2.4-3.84a18,18,0,0,1,1.13,4.9c.17,1.78-.43-.32-.34,1.49.09,2.08.3,4.34.18,6.42,0,.14,0,.28,0,.42s-.06.14-.07.1a3.55,3.55,0,0,1-.1.64c0-.33-.14-.91-.24-1.59a.57.57,0,0,1,0-.13,16.93,16.93,0,0,0-.16-3.9c-.49-2.64-1-5.25-1.65-7.84-.28.22-.44,1.17-.57,1.57a18.75,18.75,0,0,0-.28,2.62,11.45,11.45,0,0,0,0,2.55c.07,1,0,1.87,0,2.85,0,.48.06,1,.06,1.47a.41.41,0,0,0,0,.11c-.35-.29-.63-.31-.78.56l-.24-.51c-.25-.54-.53-1-.8-1.55.1-.48.22-.95.32-1.43-.11.46-.23.93-.34,1.39-.15-.27-.3-.56-.43-.85.12.45.21.91.29,1.37-.17.71-.36,1.43-.54,2.15-.24-1.13-.47-2.24-.67-3.37l1.32-1.86s-.56.42-1.43,1.18c-.06-.36-.12-.71-.17-1.06a11.72,11.72,0,0,1-.34,1.5l-.29.26-.18-.77c-.06-.24,0,.18.07.86l-.5.47a1.88,1.88,0,0,1-.1-.47,5.6,5.6,0,0,0-.52-1.59c-.26-.63-.33-1.3-.59-1.93s.65,2.91.3,2.49a12.06,12.06,0,0,1-.76-1.78c-.06-.1-.11-.2-.17-.29a2.69,2.69,0,0,0-.07-.77,5.89,5.89,0,0,1,.21-1.54c-.21.5-.4,1-.6,1.51a15.57,15.57,0,0,1-1-1.81c-.6-1.46-1.73-2.41-2.39-3.81a46.8,46.8,0,0,1,3.57-5.29c-3.19,3.73-5.94,7.5-6.89,11.5a16.25,16.25,0,0,0-.41,3.26c-.25,1-.49,2-.74,2.95-.19-.76-.38-1.52-.58-2.28.19.84.41,1.66.52,2.53l0,.11c-.37-1.7-.7-3.37-.95-5.11-.12.86-.42,1.6-.56,2.44a19.13,19.13,0,0,1-.46,2.55,9.48,9.48,0,0,0-1.29-3.76,11.72,11.72,0,0,0-.88-1.23c0-.16,0-.33,0-.51a4.26,4.26,0,0,0,0-1.51,5.48,5.48,0,0,1,.2-1.54c-.1.25-.19.5-.29.74,0,0,0-.07,0-.11.27-1.23-.61-2.7-.14-3.82-.61,1.33-.47,2.39-1.14,3.68l-.52,1a19,19,0,0,0-3.06-10.66c-2.77-4.1-7.5-7.78-11.92-11.59,4.07,3.86,8.47,7.6,10.88,11.74a17.47,17.47,0,0,1,2.27,8.88c-1.15-1-2.37-2.13-3.54-3.3,0,0,.88,1,2.31,2.72.35.4.77.85,1.23,1.34,0,.36,0,.74-.06,1.11l-.12-.33c0,.23.06.47.1.7-.05.63-.11,1.26-.19,1.89s-.19,1.36-.29,2a2.92,2.92,0,0,0-.22.47c-.22.62-.33,1.31-.58,1.89a6.47,6.47,0,0,0-.62,1.86c-.06.62-.54,1.06-.57,1.69a11.56,11.56,0,0,1-.48,1.79c-.15.67.33-2.41.16-1.74-.11.47-.22.94-.32,1.4a10.26,10.26,0,0,1-.23-2.5c0-1.13.22-2.27.21-3.39,0-.41-.07-.9-.1-1.31a12,12,0,0,0-.19-1.5c-.31,1.36-.65,2.71-.9,4.1-.23-.93-.47-1.86-.7-2.79a24.89,24.89,0,0,1,.55,2.73,4.34,4.34,0,0,1,0,1.14c-.07.5-.3.86-.38,1.34,0,.08,0,.18-.05.27a1.14,1.14,0,0,1-.35-.63c-.06-.28-.2-.32-.32-.55s-.15-.82-.3-.93c-.33-.25-.42-1.56-.5-2a13.73,13.73,0,0,1-.06-2.87c0-.87-.09-1.66,0-2.54a11.41,11.41,0,0,0,.05-2.86c-.12-.75,0-1.61-.21-2.35-.08-.32-.26-.58-.33-.9s-.07-.75-.31-.94c-.61,2.48-1,5-1.58,7.52a15,15,0,0,0-.25,3.85,24.66,24.66,0,0,0,.25,3.56c-.28-.75-.46-1.54-.68-2.32a21.93,21.93,0,0,1,.31-2.91c.25-1.3.24-2.72.52-4s-.6-2.7-.13-3.82c-.57,1.24-.5,2.25-1,3.41a15.65,15.65,0,0,0,.07-1.82,20.89,20.89,0,0,0-.05-4c-.15.78-.32,1.54-.47,2.31-.11.59-.35,1.09-.47,1.71a5.22,5.22,0,0,1-.25.82c-.1-.45-.19-.9-.28-1.36l-.18,2.35-.07.14c-.27.54-.37,1.18-.66,1.72-.7,1.33-1.37,2.68-2.08,4-.17.3-.35.59-.53.89-.18-.4-.36-.8-.52-1.21.17-.67.34-1.35.49-2V20.81a4,4,0,0,1-.31.88c-.38.76-.65,1.63-1,2.42l0,.1c-.06-.13-.12-.26-.18-.41-.27-.67-.39-1.57-.61-2.29a19.2,19.2,0,0,1-.67-2c-.17-.81-.33-1.62-.5-2.44-.31-1.5-.64-3-.93-4.52s-.29-3.2-.44-4.74-.09-2.91-.13-4.38h0a45.14,45.14,0,0,0-1.13,7.48c-.07,1.27,0,2.52-.13,3.78a21.41,21.41,0,0,0,.12,3.75c.05.54.11,1.07.18,1.61a13.06,13.06,0,0,1-2.22,3.62c-.07-.57-.11-1.14-.19-1.71-.16-1.1-.4-2.19-.62-3.28a25.46,25.46,0,0,0-.08-3.6c-.15.78-.32,1.54-.47,2.31-.11.59-.35,1.09-.47,1.71a7.8,7.8,0,0,1-.78,1.95c-.27.54-.37,1.18-.66,1.72-.16.31-.32.63-.49.94-.7-.11-1.42-.2-2.15-.26V20.81a4,4,0,0,1-.31.88c-.06.11-.11.24-.17.37,0-.19-.09-.37-.14-.55s-.18-.49-.27-.73l-.06-.77c0,.14,0,.28-.07.41a5.69,5.69,0,0,1-.27-.89c-.17-.81-.33-1.62-.5-2.44-.31-1.5-.64-3-.93-4.52s-.29-3.2-.44-4.74-.09-2.91-.14-4.38h0A45.14,45.14,0,0,0,273,10.93c-.07,1.27,0,2.52-.13,3.78a20.48,20.48,0,0,0,.12,3.75c.06.68.15,1.35.24,2-.24-1.14-.49-2.27-.77-3.39-.28.22-.43,1.17-.57,1.57a5.11,5.11,0,0,0-.17,1.2,13.07,13.07,0,0,1-2.25,3.75c-1.06.13-2.14.3-3.23.52-.14-.45-.24-.91-.4-1.36,2.21-5.16.91-11-6.41-14.12,0,0,10.88,5.17,5.73,14.38a26.18,26.18,0,0,1-1.42-2.61C263.16,19,262,18,261.36,16.59a16.88,16.88,0,0,1,1.07,4.32c-.08.43-.15.87-.22,1.3a.71.71,0,0,0-.07.41c-.14.88-.26,1.77-.39,2.67l-.41.12c0-.27-.09-.41-.11-.35a1.29,1.29,0,0,0-.05.4l-.86.27c0-.27-.06-.53-.11-.79-.49-2.64-1-5.25-1.65-7.84-.28.22-.43,1.17-.56,1.57a17.36,17.36,0,0,0-.28,2.62,10.88,10.88,0,0,0,0,2.55,13.34,13.34,0,0,1,0,1.41A11.47,11.47,0,0,1,256.33,27c-.18-.9-.33-1.81-.47-2.73-.12.86-.41,1.6-.56,2.44-.06.34-.1.67-.14,1l-1.07.46a8.62,8.62,0,0,0-.13-1c-.13-.63-.29-1.26-.44-1.89-.11-.46.16,1.47.37,3a1.75,1.75,0,0,0-.24.11,2.17,2.17,0,0,1-.07-.35c-.08-.7-.52-1.22-.59-1.91a4.06,4.06,0,0,0-.36-1.24c0-.37,0-.74.08-1.12a4.26,4.26,0,0,0,0-1.51,6.32,6.32,0,0,1,.2-1.54c-.31.76-.6,1.54-.89,2.32a3.66,3.66,0,0,0-.15-.43c-.08-.2,0,.14.08.63l-.27.76a4.82,4.82,0,0,0-.27-.68c-.07-.14-.16-.29-.24-.43a6.68,6.68,0,0,1,.49-2.71,7.18,7.18,0,0,1,1.14-1.78c1.74-.46,3.62-.92,5.67-1.36,0,0-2.21.3-5.33,1,2.81-3,7.77-4.64,9-5-1.91.58-7.13,2.46-9.89,5.21-1,.23-2.08.5-3.2.81a16.09,16.09,0,0,1-1.62-2.46,14.73,14.73,0,0,1,.8,2.7,55.71,55.71,0,0,0-5.4,1.86c.53-3.22.69-6.32-.21-8.34-2.24-5-11.8-8.47-14.9-9.42,2,.62,11.29,3.75,13.82,9.46,1,2.34.72,5.56,0,8.86-.5.23-1,.47-1.46.71.05-.36.1-.71.18-1.06.27-1.23-.61-2.7-.14-3.82-.61,1.33-.47,2.39-1.13,3.68,0,.08-.09.18-.14.26a7.61,7.61,0,0,0,.15-.75c-.27.65-.51,1.3-.75,2-.21.41-.43.81-.67,1.19A17.3,17.3,0,0,0,236,25.05c-.34-1-.7-1.94-1.09-2.89.07.46.15.92.21,1.37,0,.26-.12.49-.13.74s.1.63.13.94,0,.4,0,.6L235,26l-4.89-2.23a7.7,7.7,0,0,1,0-1.07,12.44,12.44,0,0,0,0-2.86c-.12-.75,0-1.61-.21-2.35-.08-.32-.26-.58-.32-.9l-.06-.32c.73-1.12,1.53-2.23,2.37-3.33-.86,1-1.68,2-2.44,3a.65.65,0,0,0-.19-.31c-.07.27-.12.54-.19.81a30.12,30.12,0,0,0-2.71,4.37c0-1.11-.59-2.34-.19-3.31a12.13,12.13,0,0,0-.67,2.38l-.27-1.34c-.06.89-.13,1.77-.2,2.65l-.1.21c-1.09-.51-2.06-1-2.87-1.38a15.45,15.45,0,0,1-1.35-.76,1,1,0,0,1,0-.17,21.73,21.73,0,0,0,0-4c-.15.78-.32,1.54-.47,2.31-.09.44-.24.84-.37,1.27a7.88,7.88,0,0,1-1.44-1.45l0-.14c-.24-1.19-.5-2.38-.74-3.57A12.16,12.16,0,0,1,219,10.21a8.35,8.35,0,0,0-1.51,2.47s0-.07,0-.11c-.29-1.49-.29-3.2-.43-4.74s-.09-2.91-.14-4.38h0a45.14,45.14,0,0,0-1.13,7.48c-.07,1.24,0,2.47-.12,3.7-.26-.48-.54-1-.85-1.42-2.77-4.1-7.5-7.78-11.91-11.59,4.07,3.86,8.47,7.6,10.88,11.74a16.47,16.47,0,0,1,1.42,3.2c-.32,1.37-.6,2.74-.87,4.12-.61-.56-1.23-1.14-1.83-1.74L214.21,21l-.45,2.19c0,.13,0,.28-.08.42-.51,0-1,.08-1.53.13-.07-.58-.12-1.18-.2-1.76-.16-1.14-.41-2.27-.64-3.4,0,.31-.05.62-.07.93-.18-.81-.36-1.61-.56-2.41-.28.22-.43,1.17-.56,1.57a4.63,4.63,0,0,0-.18,1.2,13.25,13.25,0,0,1-3,4.6,1.61,1.61,0,0,1-.28.24c-.14-.31-.29-.58-.42-.91-.27-.67-.39-1.57-.61-2.29s-.53-1.29-.67-2-.33-1.62-.5-2.44-.34-1.66-.52-2.49a15.71,15.71,0,0,1-1.71,3,2.19,2.19,0,0,1-.47.44c0,.16,0,.32,0,.47.06.73.15,1.45.26,2.16,0-.06-.07-.12-.1-.19-.6-1.46-1.75-2.42-2.4-3.84a17.31,17.31,0,0,1,1.07,4.32c-.08.43-.15.87-.22,1.3a.71.71,0,0,0-.07.41c-.15,1-.29,1.94-.43,2.93a7.53,7.53,0,0,1-.2.85,4.62,4.62,0,0,0-.28-1.34,8.77,8.77,0,0,0-.08,1.05,12.92,12.92,0,0,0-.21,1.52c0,.09.06.43.12.88a12.89,12.89,0,0,1,.2-2c0,.43,0,.84-.08,1.25a1,1,0,0,0,0,.17c0,.11,0,.22,0,.33a2.56,2.56,0,0,1-.05.27.43.43,0,0,0,0,.05s0,0,0,0v-.06c-.16.74-.42.83-.71.66,0-.14,0-.27,0-.41a16.93,16.93,0,0,0-.16-3.9c-.49-2.64-1-5.25-1.65-7.84-.28.22-.43,1.17-.57,1.57a18.75,18.75,0,0,0-.27,2.62,10.88,10.88,0,0,0,0,2.55c.05.64,0,1.24,0,1.86-.26,1-.52,2-.77,3-.06-.14-.13-.28-.2-.42s-.22-.46-.33-.68c-.22-1.1-.42-2.21-.59-3.35-.12.86-.41,1.6-.56,2.44a17.71,17.71,0,0,1-.49,2.65,9.26,9.26,0,0,0-.25,1c-.1-.4-.21-.8-.31-1.19-.18-.66-.15-1.39-.29-2.06s-.29-1.26-.44-1.89c-.18-.79.72,5.46.58,4.66-.11-.64-.45-1.26-.52-1.89s-.52-1.22-.59-1.91a4.06,4.06,0,0,0-.36-1.24c0-.37,0-.74.08-1.12a4.26,4.26,0,0,0,0-1.51,5.87,5.87,0,0,1,.2-1.54c-.31.76-.61,1.54-.89,2.32a3.66,3.66,0,0,0-.15-.43c-.08-.2,0,.14.08.63l-.27.76a4.82,4.82,0,0,0-.27-.68c-.51-1-1.15-1.86-1.58-2.9-.61-1.46-1.76-2.42-2.41-3.84a17.6,17.6,0,0,1,1.13,4.9c.17,1.78-.42-.32-.34,1.49.09,2.08.3,4.34.18,6.42,0,.48-.09,1-.13,1.43s-.86-6.13-1-5.77,0,.72-.08,1.05a12.92,12.92,0,0,0-.21,1.52c0,.09.06.43.12.88a12.89,12.89,0,0,1,.2-2,11.34,11.34,0,0,1-.2,2c0,.31.08.65.13,1a16.39,16.39,0,0,1,.3,2.12c0,.55-.15-.82-.3-2.12a7.71,7.71,0,0,1-.13-1c-.27,1.24-.81.65-1.32.09,0-.14,0-.28,0-.42,0-.41-.08-.9-.11-1.31a10.42,10.42,0,0,0-.18-1.5c-.21.89-.41,1.78-.61,2.68-.13.07-.24.28-.3.71a4.23,4.23,0,0,0-.05.5c-.21-.86-.43-1.72-.65-2.58a22.75,22.75,0,0,1,.55,2.73,4.34,4.34,0,0,1,0,1.14c-.07.5-.3.86-.38,1.34s-.18.94-.26,1.46a2.11,2.11,0,0,0-.1-.3,12,12,0,0,1-.53-2.35,9.7,9.7,0,0,1,.19-2.67,21.21,21.21,0,0,1,.55-2.77c-.34,1.35-.69,2.7-1,4.06-.37-1.7-.69-3.37-.95-5.11-.12.86-.41,1.6-.56,2.44a17.71,17.71,0,0,1-.49,2.65c-.29.88-.33,1.85-.65,2.75s-.34,1.8-.68,2.62c-.09-.21-.2-.44-.32-.68-.06-1.46.09-3,.13-4.4a26.64,26.64,0,0,1,.37-4.3c.24-1.3.24-2.72.52-4s-.61-2.7-.14-3.82c-.61,1.33-.47,2.39-1.13,3.68,0,.08-.09.18-.14.26a7.61,7.61,0,0,0,.15-.75c-.26.65-.51,1.3-.76,2a15.85,15.85,0,0,1-.85,1.51,8.79,8.79,0,0,0-.69,1.52,3.66,3.66,0,0,1-.28.52c-.47-1.38-.95-2.75-1.5-4.08.07.46.14.92.2,1.37,0,.26-.11.49-.11.74a7.32,7.32,0,0,0,.12.94,33.48,33.48,0,0,1,.17,3.88.14.14,0,0,0,0,.06,6.19,6.19,0,0,0-.63,1.86c-.06.62-.54,1.06-.57,1.69a11.56,11.56,0,0,1-.48,1.79c-.15.67.33-2.41.16-1.74s-.33,1.5-.52,2.24c0,.13,0,.27-.07.41s-.09.16-.14.23c.09-2.25.29-6.76.17-6.27a13.1,13.1,0,0,1-.39,2c-.11.27,0,.58-.14.84s-.29.71-.44,1.06a3.81,3.81,0,0,0-.51-.94l0,0c0-.23,0-.44,0-.65,0-1.13.22-2.27.21-3.39,0-.41-.08-.9-.11-1.31a10.42,10.42,0,0,0-.18-1.5c-.32,1.36-.65,2.71-.9,4.1l-.66-2.6c0-.57,0-1.15,0-1.69,0-.87-.09-1.66,0-2.54a12.44,12.44,0,0,0,0-2.86c-.13-.75,0-1.61-.21-2.35-.08-.32-.26-.58-.32-.9s-.08-.75-.32-.94c-.61,2.48-1,5-1.58,7.52a15.44,15.44,0,0,0-.25,3.85,24.66,24.66,0,0,0,.25,3.56c-.31-.83-.49-1.72-.75-2.59s-.28-2-.58-2.92a8.56,8.56,0,0,1-.32-1.69,15.17,15.17,0,0,1,.28-2c.27-1.23-.61-2.7-.14-3.82a12.13,12.13,0,0,0-.67,2.38l-.27-1.34c-.06.89-.13,1.77-.2,2.65a31.07,31.07,0,0,1-1.59,3,8.79,8.79,0,0,0-.69,1.52c-.24.58-.63.93-.85,1.54-.06.16-.11.32-.16.49a18.29,18.29,0,0,1-1-2.54,15,15,0,0,0-.61-1.41c-.27-.67-.39-1.57-.61-2.29-.12-.38-.28-.76-.42-1.14a8.55,8.55,0,0,1,0-1.24,21.73,21.73,0,0,0,0-4c-.15.78-.32,1.54-.47,2.31,0,.13-.06.26-.09.39l-.15-.71c-.31-1.5-.64-3-.93-4.52a19.76,19.76,0,0,1-.3-2.84A105.8,105.8,0,0,1,164,1.16c-3,2.58-6.11,5.09-8.68,7.72,0-.36,0-.71-.07-1.05-.09-.94-.1-1.89-.12-2.85.87-.81,1.75-1.62,2.61-2.44l-2.61,2.23c0-.44,0-.88,0-1.32h0c-.12.54-.24,1.09-.35,1.65-3.44,2.93-6.77,5.86-8.91,9A17.17,17.17,0,0,0,143.26,20a3.92,3.92,0,0,1-.13-.49c-.17-.81-.33-1.62-.5-2.44-.31-1.5-.63-3-.93-4.52a46.11,46.11,0,0,1-.43-4.74c-.14-1.44-.09-2.91-.15-4.38h0A45.14,45.14,0,0,0,140,10.93c-.07,1.27,0,2.52-.13,3.78a19.64,19.64,0,0,0,.13,3.75c0,.45.08.89.14,1.33a43.18,43.18,0,0,0-5.23-7.3c2.86,3.77,5.29,7.57,5.91,11.58a14.91,14.91,0,0,1,.16,2.67,12.08,12.08,0,0,0-1,1.32,8.58,8.58,0,0,0-.69,1.44l-.08,0a1,1,0,0,1,0-.17,8.63,8.63,0,0,0,0-2,1.93,1.93,0,0,1,0-.24,7.55,7.55,0,0,1-.25-2.68c0-.65.11-1.31.16-2L139,20c-.37,1.85-.61,3.67-.89,5.54a2,2,0,0,1-.05.24l-.35.48a8.32,8.32,0,0,0,0-1.23c-.09-1.68-.24-3.35-.36-5-.32,1.63-.55,3.24-.79,4.88-.49-2.62-1-5.22-1.64-7.79-.28.22-.43,1.17-.57,1.57a9.38,9.38,0,0,0-.22,2c-.25-1.2-.51-2.39-.81-3.58-.28.22-.43,1.17-.56,1.57a2.71,2.71,0,0,0-.11.51,51.67,51.67,0,0,0-4-5.3,45,45,0,0,1,4,6c0,.47,0,.95-.1,1.38a10.88,10.88,0,0,0,0,2.55c.07,1,0,1.87,0,2.85,0,.15,0,.3,0,.44-.1-.19-.21-.38-.31-.58l.21-.25a1.2,1.2,0,0,0-.21.24c-.12-.21-.22-.43-.33-.66.08.28.13.57.19.85l-.18.24c-1.18-1-2-1.64-2-1.64l1.55,2.2-.46.67-.58,0a8.45,8.45,0,0,0-.13-1c-.14-.63-.29-1.26-.44-1.89a23.89,23.89,0,0,0,.32,2.69c0,.06,0,.11,0,.16s0-.1,0-.15l0,.2h0v-.05a.09.09,0,0,1,0,.05H130a.51.51,0,0,1,0-.13c-.09-.7-.52-1.22-.59-1.91a5.29,5.29,0,0,0-.51-1.59c-.26-.63-.34-1.3-.6-1.93s.65,2.91.3,2.49a12.06,12.06,0,0,1-.76-1.78c-.51-1-1.15-1.86-1.59-2.9-.6-1.46-1.75-2.42-2.4-3.84A17.26,17.26,0,0,1,124.89,21a5,5,0,0,1-.27-.57C124,19,122.87,18,122.21,16.59a17.6,17.6,0,0,1,1.13,4.9c.17,1.78-.43-.32-.34,1.49s.25,3.87.2,5.76l-.48.09c-.18-1.24-.39-2.71-.52-3.39,1-4.55-.83-9.23-7.13-11.93,0,0,11.13,5.29,5.54,14.7-.24-.6-.42-1.17-.59-1.71l.27-1.16c-.1.37-.19.74-.29,1.12-.17-.56-.34-1.08-.52-1.53-.76-1.86-1.16-3-1.16-3,.58,2.13.84,4.13,1.31,6,0,.14-.07.29-.11.43a2.08,2.08,0,0,0-.12.48.09.09,0,0,0,0,.05c0,.16-.09.34-.13.51-.26-1.19-.49-2.35-.7-3.53,0-.18.09-.36.13-.53,0,.16-.09.33-.13.5-.09-.51-.17-1-.25-1.55-.12.86-.41,1.6-.56,2.44-.11.62-.16,1.2-.27,1.79-.3-1.4-.56-2.79-.77-4.23-.12.86-.41,1.6-.56,2.44a17.71,17.71,0,0,1-.49,2.65,10.93,10.93,0,0,0-.32,1.4l-.4.14-.19-.38a27.53,27.53,0,0,0,.24-2.87,33.65,33.65,0,0,1,.17-3.89,4.26,4.26,0,0,0,0-1.51,5.48,5.48,0,0,1,.2-1.54c-.73,1.76-1.34,3.58-2,5.41,0-.78.06-1.57.14-2.36a4.26,4.26,0,0,0,0-1.51,1,1,0,0,1,0-.25l.54-.12-.53.07c0-.4.17-.92.21-1.24-.17.43-.34.86-.5,1.29-.47.08-1.12.18-1.91.33a1.46,1.46,0,0,0-.07-.19l0,.2-1.45.28c-.06-.15-.11-.32-.18-.48,0,.17,0,.34.08.51l-1,.21c2.81-3,7.77-4.63,9-5-1.92.59-7.14,2.47-9.9,5.21-1.7.4-3.62.91-5.57,1.53.13-1.08.18-2.21.41-3.25.27-1.23-.61-2.7-.14-3.82-.61,1.33-.48,2.39-1.13,3.68-.16.29-.31.6-.46.9a6.71,6.71,0,0,1,.13-.76c.27-1.23-.61-2.7-.14-3.82-.61,1.33-.47,2.39-1.13,3.68-.35.67-.68,1.36-1,2a11.86,11.86,0,0,0-.56-5.58c-2.23-5-11.8-8.47-14.9-9.42,2,.62,11.3,3.75,13.83,9.45,1,2.3.73,5.43,0,8.67l-.16.26A26.09,26.09,0,0,0,92.72,29c-.06-.36-.09-.72-.13-.91a13.73,13.73,0,0,1-.06-2.87c0-.87-.09-1.66,0-2.54a11.9,11.9,0,0,0,0-2.86c-.12-.75,0-1.61-.21-2.35-.08-.32-.26-.58-.32-.9s-.08-.75-.32-.94c-.3,1.22-.56,2.45-.81,3.68a12.35,12.35,0,0,0-.15-1.84c-.08-.32-.26-.58-.32-.9s-.08-.75-.32-.94c-.61,2.48-1,5-1.58,7.52,0,.08,0,.17-.05.26,0-.49-.09-1-.16-1.47-.16-1.14-.42-2.27-.64-3.4-.12,1.68-.27,3.35-.36,5,0,.76.11,1.48.1,2.23a1.34,1.34,0,0,1,0,.2,6.2,6.2,0,0,0-.21-.95A17.83,17.83,0,0,1,86.73,22c-.16-1.14-.41-2.27-.64-3.4-.12,1.68-.27,3.35-.36,5,0,.76.11,1.48.11,2.23a7.26,7.26,0,0,0,0,2.28,2.29,2.29,0,0,1,.07.64L84.34,28a18,18,0,0,1-1.13-2.82,15,15,0,0,0-.61-1.41c-.27-.67-.39-1.57-.61-2.29a19.2,19.2,0,0,1-.67-2c-.17-.81-.33-1.62-.5-2.44-.31-1.5-.64-3-.93-4.52a46.11,46.11,0,0,1-.43-4.74c-.14-1.44-.09-2.91-.14-4.38h0a45.14,45.14,0,0,0-1.13,7.48c-.07,1.27,0,2.52-.13,3.78A8.94,8.94,0,0,0,78,16a17.15,17.15,0,0,1-1,1.56,2.19,2.19,0,0,1-.47.44c0,.16,0,.32,0,.47a52.84,52.84,0,0,0,1,6.19,1.6,1.6,0,0,1,0,.21,12.14,12.14,0,0,1-2-1.2c0-.42.07-.85.1-1.27L75.56,20c-.21,1.06-.37,2.11-.53,3.16a4.7,4.7,0,0,1-1.84-4.53,12,12,0,0,1,1.4-3.59,7.93,7.93,0,0,0-1.82,3.52,5.24,5.24,0,0,0,2.16,5.22c-.08.59-.17,1.17-.26,1.76-.12.84-.46,1.56-.55,2.41l-.06.54-.71-.05a15.78,15.78,0,0,0-.17-3.51c-.49-2.64-1-5.25-1.65-7.84-.28.22-.43,1.17-.57,1.57a20.39,20.39,0,0,0-.28,2.62,11.45,11.45,0,0,0,0,2.55c.07,1,0,1.87,0,2.85,0,.15,0,.3,0,.44-.22-.4-.44-.81-.64-1.25.15.54.26,1.08.36,1.64a2.88,2.88,0,0,0,.3.82v.07c-.32,0-.63,0-1,0a1.34,1.34,0,0,0-.06-.12c-.39-.84-.86-1.59-1.24-2.44.14.54.25,1.08.35,1.64a3.33,3.33,0,0,0,.36.94c-.67.05-1.33.1-2,.18l-.15-.29a11.53,11.53,0,0,0-.15-1.18c-.14-.63-.29-1.26-.44-1.89a21,21,0,0,0,.3,2.51Q66.34,26.91,66,26c0,.11,0,.21,0,.32a.7.7,0,0,1,0-.14,5.29,5.29,0,0,0-.51-1.59c-.26-.63-.34-1.3-.6-1.93s.65,2.91.3,2.49a12.06,12.06,0,0,1-.76-1.78c-.51-1-1.15-1.86-1.58-2.9C62.2,19,61.05,18,60.4,16.59a17.6,17.6,0,0,1,1.13,4.9c.17,1.78-.43-.32-.34,1.49.09,2.08.3,4.34.18,6.42,0,.17,0,.35,0,.52l-.25.09c-.25-1.67-.73-5.22-.81-5a8.77,8.77,0,0,0-.08,1.05A12.92,12.92,0,0,0,60,27.63c0,.09.06.43.12.88a12.89,12.89,0,0,1,.2-2,13.55,13.55,0,0,1-.2,2c0,.31.08.65.13,1l.12.7h0c0-.23-.06-.47-.08-.71a7.71,7.71,0,0,1-.13-1c-.53,2.44-2.11-2.23-2.52.25-.08.55,0,1.11-.09,1.62s-.22,1.2-.31,1.79a1.27,1.27,0,0,0,0,.27c-.11.28-.25.57-.4.89a1.15,1.15,0,0,0-.09-.28,12,12,0,0,1-.53-2.35,10.11,10.11,0,0,1,.19-2.67,21.21,21.21,0,0,1,.55-2.77c-.34,1.35-.68,2.7-1,4.06-.37-1.7-.69-3.37-1-5.11-.12.86-.41,1.6-.56,2.44a17.71,17.71,0,0,1-.49,2.65c-.3.88-.33,1.85-.65,2.75-.25.71-.33,1.49-.55,2.21a67.1,67.1,0,0,0-1-9.36.19.19,0,0,1,0-.08c0-.37,0-.74.08-1.12a4.26,4.26,0,0,0,0-1.51,3.58,3.58,0,0,1,.13-1.17c.27-.29.53-.57.74-.83C54.06,18.56,55,17.56,55,17.56c-1.17,1.17-2.4,2.25-3.55,3.3A17.62,17.62,0,0,1,53.68,12C56.08,7.84,60.49,4.1,64.55.24c-4.41,3.81-9.14,7.49-11.91,11.59a19,19,0,0,0-3.07,10.74c-.39.38-.75.75-1.1,1.13-.19-.51-.38-1-.59-1.54.07.46.15.92.2,1.37,0,.26-.11.49-.11.74a11,11,0,0,0-1.09,1.48,10.76,10.76,0,0,0-1.17,7.56c.12.77.24,1.51.35,2.21-.1.15-.19.28-.32.32s-.55-.73-.61-.88a8.4,8.4,0,0,1-.48-3.31c0-1.13.22-2.27.21-3.39,0-.41-.08-.9-.11-1.31a10.42,10.42,0,0,0-.18-1.5c-.32,1.36-.65,2.71-.9,4.1-.24-.93-.47-1.86-.71-2.79a22.75,22.75,0,0,1,.55,2.73,4.34,4.34,0,0,1,0,1.14c-.07.5-.3.86-.38,1.34a14.92,14.92,0,0,0-.37,2.74c.06,1.08-.18,2.1-.13,3.18A6.23,6.23,0,0,1,42,36.22c-.07-.34-.13-.65-.22-.95,0,0,0-.06,0-.1.7-4.07,1.5-8.19.57-12.1s-3.7-7.77-6.89-11.5c2.87,3.76,5.3,7.57,5.92,11.58C42,26.91,41,30.83,40,34.74c-.55-.88-1.14-1.72-1.74-2.51,0-.86.11-1.72.13-2.56a27.82,27.82,0,0,1,.36-4.3,7.54,7.54,0,0,0,.12-.81,1.45,1.45,0,0,0,.12-.19l-.11.16c.13-1.05.17-2.15.4-3.17.27-1.23-.61-2.7-.14-3.82-.61,1.33-.47,2.39-1.13,3.68-.52,1-1,2.06-1.6,3a8.79,8.79,0,0,0-.69,1.52c-.24.58-.63.93-.85,1.54-.09.26-.17.53-.24.79a39.38,39.38,0,0,0-4.08-3.64c1.33,1.84,2.51,3.55,3.57,5.16A4.33,4.33,0,0,0,33.68,31c-.06.62-.54,1.06-.57,1.69a11.56,11.56,0,0,1-.48,1.79c-.15.67.33-2.41.16-1.74s-.33,1.5-.52,2.24A13.3,13.3,0,0,0,32,36.81v0h0c0-.21.36-8.12.21-7.48a13.1,13.1,0,0,1-.39,2c-.11.27,0,.58-.14.84s-.29.71-.44,1.06a3.81,3.81,0,0,0-.51-.94,1.09,1.09,0,0,1-.45-.71c-.06-.28-.2-.32-.32-.55s-.15-.82-.29-.93c-.34-.25-.43-1.56-.51-2a13.73,13.73,0,0,1-.06-2.87c0-.87-.09-1.66,0-2.54a12.44,12.44,0,0,0,0-2.86c-.13-.75,0-1.61-.21-2.35-.08-.32-.26-.58-.32-.9s-.08-.75-.32-.94c-.61,2.48-1,5-1.58,7.52A15,15,0,0,0,26.48,27a24.66,24.66,0,0,0,.25,3.56c-.31-.83-.49-1.72-.75-2.59s-.28-2-.58-2.92A17.83,17.83,0,0,1,24.92,22c-.16-1.14-.42-2.27-.64-3.4-.12,1.68-.27,3.35-.36,5,0,.76.11,1.48.11,2.23a7.57,7.57,0,0,0,0,2.28c.18.61,0,1.25.11,1.88s.11,1.2.24,1.82c0,.09,0,.18.05.27-.23-.2-.45-.41-.65-.62-2.58-2.74-3-5.62-3.71-7.47s-1.17-3-1.17-3c.43,1.56.69,3.05,1,4.47,0-.1-.07-.2-.1-.3a15,15,0,0,0-.61-1.41c-.27-.67-.39-1.57-.61-2.29a19.2,19.2,0,0,1-.67-2c-.17-.81-.33-1.62-.5-2.44-.31-1.5-.64-3-.93-4.52a46.11,46.11,0,0,1-.43-4.74c-.14-1.44-.1-2.91-.14-4.38h0a45.14,45.14,0,0,0-1.13,7.48c-.07,1.27,0,2.52-.13,3.78a20.48,20.48,0,0,0,.12,3.75,55,55,0,0,0,1,6.19c.54,2.59,1.29,5.06,1.82,7.65.12,4.75-.53,8.91-.93,8.32s-2-7.49-2.27-9.1a23.78,23.78,0,0,0-1-4.17v8a6.28,6.28,0,0,1-1.23-1c-1-1.26-2-2.6-2.95-3.85a10,10,0,0,1-1.19-2.19c-.39-.84-.86-1.59-1.25-2.44.15.54.26,1.08.36,1.64a9.7,9.7,0,0,0,.5,1.3A6.2,6.2,0,0,0,8,30.3a6.36,6.36,0,0,1,.69,1.49,51,51,0,0,0,3.22,6.35c-.78-.89-1.69-1.55-2.51-2.38-1-1-1.94-2-2.86-3.11a25.58,25.58,0,0,1-4-6.69A20.52,20.52,0,0,0,3.2,29.6a8.53,8.53,0,0,1,.36,1.53c.08.53.42.93.54,1.45a22.84,22.84,0,0,0,1.27,3.36c.22.56.58.92.82,1.46A10.24,10.24,0,0,0,7,39a25.55,25.55,0,0,0,1.67,2.36c.86,1,1.71,2,2.58,3a19.64,19.64,0,0,0,2.06,1.93l.13.11c.23.44.31,1,.53,1.42s.34.67.51,1L0,44a22.26,22.26,0,0,1,1.7,1.67,2.74,2.74,0,0,0,.71.53c.34.21.53.61.85.84l.91.64.46.31a.65.65,0,0,1,.28.36,38.55,38.55,0,0,0,6.47,3.36l1.33.44c.39.13.75,0,1.13.14a.63.63,0,0,0,.43,0l3-.1h5.92c-.15-.07,39.18,0,51.55,0a3.64,3.64,0,0,1,.92.09.63.63,0,0,0,.43,0l1.07,0,.1,0a.61.61,0,0,0,.42,0l3-.1h9.77v0h10.24l31.73,0a6.32,6.32,0,0,0,.41.54s4.06,0,4.09,0l.58-.55h.67a3.53,3.53,0,0,0,.46,0l.18,0h0a.8.8,0,0,1,.21,0,.63.63,0,0,0,.43,0l3-.1h9.63a2.93,2.93,0,0,1,.88.09.63.63,0,0,0,.43,0l3-.1h5.92s3.19,0,8.11,0l29.51,0a3.59,3.59,0,0,1,.92.09.61.61,0,0,0,.42,0l3-.1H214a2.74,2.74,0,0,1,.85.09.63.63,0,0,0,.43,0l3-.1h11.37v0h2.67l33.18,0v0h.24a0,0,0,0,1,0,0h5.55a3,3,0,0,1,.89.09.61.61,0,0,0,.42,0l3-.1h8.1a2.93,2.93,0,0,1,.88.09.63.63,0,0,0,.43,0l3-.1h5.92c-.05,0,3.44,0,8.68,0l30.47,0a3.64,3.64,0,0,1,.92.09.61.61,0,0,0,.42,0l3-.1h11.75v0h.25l0,0h11.8v0H377.7l.08.1s4.06,0,4.09,0a1.14,1.14,0,0,1,.11-.11l16.51,0,0-.28a.74.74,0,0,0,.44-.22,1.05,1.05,0,0,1-.24.5h10.33a3,3,0,0,1,.89.09.63.63,0,0,0,.43,0l3-.1h4.11a2.93,2.93,0,0,1,.88.09.64.64,0,0,0,.43,0l3-.1h5.92c-.05,0,4.2,0,10.35,0l32.79,0a3.59,3.59,0,0,1,.92.09.64.64,0,0,0,.43,0l3-.1h4.15a2.71,2.71,0,0,1,.84.09.64.64,0,0,0,.43,0l3-.1H495v0h4.89l36.48,0h20.44v-.54l2.67.09a.67.67,0,0,0,.42,0c.39-.16.74,0,1.14-.14l1.33-.45a37.35,37.35,0,0,0,6.46-3.35.67.67,0,0,1,.29-.36l.46-.31.91-.64c.32-.23.5-.63.85-.84a2.73,2.73,0,0,0,.71-.54,22.11,22.11,0,0,1,1.7-1.66ZM23.19,32.56a2.51,2.51,0,0,1-.26-.46,16.15,16.15,0,0,0,1.75,1.65,1.85,1.85,0,0,0,0,.23c.14.7.4,1.34.55,2.06A22.09,22.09,0,0,0,23.19,32.56ZM39,39.62c-.1-.47-.2-.94-.29-1.41a11.85,11.85,0,0,1-.17-1.35l.69,1.28C39.16,38.63,39.08,39.13,39,39.62Zm8.57-6.95c0,.06-.05.14-.07.22a11,11,0,0,1-.13-5.47,9.43,9.43,0,0,1,.74-1.65c.09,1.1.14,2.21.13,3.32a15.74,15.74,0,0,0,.07,1.82C48.08,31.49,47.84,32.09,47.59,32.67Zm2.09-5.55c-.28-.84-.56-1.66-.85-2.48.24-.34.49-.67.75-1,0,.34,0,.69,0,1,0,.73.09,1.47.14,2.2Zm1.73-5.51.36-.38c-.12.28-.23.56-.34.85C51.43,21.92,51.41,21.77,51.41,21.61ZM57.1,37.18a3.1,3.1,0,0,1,0-.61.59.59,0,0,1,0-.08A3.22,3.22,0,0,1,57.1,37.18Zm3.24-6.63h.06a10.64,10.64,0,0,1,.13,1.15C60.54,32.1,60.45,31.45,60.34,30.55Zm.9.28c0,.08-.05-.13-.11-.52l.17,0Zm8.92.73c-.14.1-.13.55-.19.71a1.5,1.5,0,0,1-.15.26A22.29,22.29,0,0,1,67.44,29c.64-.06,1.28-.11,1.94-.13a5.51,5.51,0,0,0,.4,1.41,4.82,4.82,0,0,1,.52,1A.7.7,0,0,1,70.16,31.56ZM70.61,30a9.73,9.73,0,0,1-.6-1.16h.68a1.88,1.88,0,0,0,0,.42A4,4,0,0,1,70.61,30Zm3.33-.89c0,.14-.24.89-.27.77a5.7,5.7,0,0,1-.37,1.57l-.09-.12c.09-.79.08-1.58.12-2.41L74,29Zm2.78,4.6-.06.11c-.22-1-.4-1.89-.49-2.34s-.21-1.09-.37-1.85c0-.12,0-.25.06-.37s0-.07,0-.1c.28,0,.57.07.85.12Zm.48-4.91a7.2,7.2,0,0,0-.48-1.49v1.42l-.8-.1c0-.47-.1-1-.1-1.4a1.93,1.93,0,0,1,0-.24,7.55,7.55,0,0,1-.25-2.68v-.06a12.61,12.61,0,0,0,1.62.95l.55.27c.27,1.2.57,2.38.86,3.56C78.14,29,77.67,28.91,77.2,28.84ZM78.11,31l-.32.6s0-.07,0-.09c-.08-.4-.24-1.27-.43-2.12l1.42.25c.21.85.42,1.71.59,2.58A15.93,15.93,0,0,1,78.11,31Zm7.75,0c-.31-.65-.66-1.24-1-1.87l-.16-.32,1.22.57A2.81,2.81,0,0,0,86,30c.07.36.1.71.14,1.06Zm.3.73h0s0,.08,0,.11h0S86.18,31.75,86.16,31.7Zm10-2.55a11.72,11.72,0,0,0-.45,1.11c0-.67,0-1.06,0-.9a13.1,13.1,0,0,1-.39,2,1.64,1.64,0,0,0-.08.54,2.24,2.24,0,0,0-.24.73c0,.09-.08.18-.11.27l-.19-.09c0-.16,0-.21,0-.06a.08.08,0,0,0,0,0l-.19-.09a1.14,1.14,0,0,0-.25-.38,1,1,0,0,1-.15-.13,17.78,17.78,0,0,0,0-2.83,13.1,13.1,0,0,1-.39,2s0,0,0,.06c-.07-.13-.16-.2-.25-.36s-.15-.82-.29-.93A.45.45,0,0,1,93,30a21.71,21.71,0,0,1,3.54-2.34A14.71,14.71,0,0,1,96.12,29.15Zm10.34,3.13v-.12a.18.18,0,0,1,0,.12ZM106,27c-.19.84-.38,1.69-.53,2.54-.24-.93-.47-1.86-.71-2.79a22.75,22.75,0,0,1,.55,2.73,4.34,4.34,0,0,1,0,1.14c-.07.5-.3.86-.38,1.34a14.92,14.92,0,0,0-.37,2.74v.14a8.17,8.17,0,0,0-.36.95l-.4.22a4.88,4.88,0,0,0-.42-1.39c-.26-.51-.69.78-1.11,2.29l-.28-.17c0-.34-.06-.68-.11-1-.12-.77-.11-.58-.11-.51s0-.2,0-.58a43.28,43.28,0,0,1,.11-5,27.82,27.82,0,0,1,.36-4.3l0-.16c1.57-.58,3.31-1.13,5.24-1.68a5.9,5.9,0,0,0-1,1.48A6.25,6.25,0,0,0,106,27Zm.83,1.92c0,.18.06.37.08.56s0,.18,0,.26C106.9,29.47,106.86,29.2,106.84,28.93Zm1.58,5.72c0-.09,0-.19-.08-.28l.3-.14A2.78,2.78,0,0,0,108.42,34.65Zm1-2c-.07.15-.14.38-.22.6l-1,.47a10.06,10.06,0,0,1-.14-2.09c0-1.13.21-2.27.21-3.39,0-.41-.08-.9-.11-1.31a10.42,10.42,0,0,0-.18-1.5c-.32,1.36-.65,2.71-.9,4.1l-.27-1a7.69,7.69,0,0,1,.47-3.47,7.48,7.48,0,0,1,1.14-1.78l1.38-.36c0,.21.07.42.1.63s-.12.49-.12.74a7.32,7.32,0,0,0,.12.94,35.86,35.86,0,0,1,.17,3.88,15.74,15.74,0,0,0,.07,1.82Zm2.08-5.55c-.48-1.45-1-2.87-1.53-4.26l1.38-.34c0,.34.11.68.15,1s-.11.49-.12.74.1.63.13.94c0,.52.08,1,.11,1.55Zm.94-2.79c-.24-.63-.38-1-.38-1,.12.41.21.81.3,1.2a1.42,1.42,0,0,1-.07.22c-.27-.77-.56-1.52-.86-2.27l1.82-.41C113,22.83,112.69,23.58,112.43,24.33ZM121,28.84a2.08,2.08,0,0,0,0,.23l-.09-.2.19-.36A2.36,2.36,0,0,0,121,28.84Zm.25-.68a12.4,12.4,0,0,0,.72-1.85,12,12,0,0,0-.18,1.32c0,.08,0,.36.1.74C121.65,28.14,121.43,28,121.25,28.16Zm.69.26,0,0a16.1,16.1,0,0,1,.2-1.85A14.43,14.43,0,0,1,121.94,28.42Zm8.39,1c-.07-.23-.14-.45-.22-.67,0,0,0-.05,0-.07h.18c0,.23.06.43.09.61S130.36,29.33,130.33,29.38Zm1.77-2.64c0,.16.07.32.1.48L132,27A1.83,1.83,0,0,1,132.1,26.74Zm-.49.93.39.57-.61,0C131.46,28,131.54,27.83,131.61,27.67Zm-1,1.3c0-.11,0-.22,0-.33h.26Zm1.4,2.59c-.14.1-.13.55-.19.71a1.5,1.5,0,0,1-.15.26,6,6,0,0,1-.39-.49q-.09-.43-.15-.93a8.68,8.68,0,0,0-.23-1c.12-.56.25-1,.38-1.45.36,0,.71,0,1.06,0l.19.27a1.9,1.9,0,0,0,0,.34A5,5,0,0,1,132,31.56Zm5.66-4.22v-.07c0-.14,0-.28,0-.42.12-.32.23-.59.34-.82C137.88,26.47,137.74,26.9,137.63,27.34Zm3.11,2.11-.23.43h0a1.24,1.24,0,0,1,0-.16,5.87,5.87,0,0,1,.26-.65C140.77,29.2,140.75,29.33,140.74,29.45Zm5.13-2-.17-.39c0-.2.09-.4.13-.59s0-.22.07-.33c.07.3.13.6.19.9C146,27.16,145.94,27.3,145.87,27.44Zm.81,1.66-.06-.12.06-.22a.14.14,0,0,1,0,.06c.05.16.09.35.13.54Zm1.92-.76c-.27.45-.54.94-.84,1.38-.23-.43-.43-.89-.67-1.4-.05-.12-.11-.22-.16-.34a12,12,0,0,1,2-3.4c0,.35,0,.69,0,1,0,.67.08,1.34.13,2A4.37,4.37,0,0,0,148.6,28.34Zm2.9.57c-.05-.32-.1-.63-.14-.95l.33-1.24c0,.1,0,.21,0,.32,0,.49,0,1,.05,1.47C151.67,28.64,151.58,28.77,151.5,28.91Zm.44-7.22c-.38.76-.65,1.63-1,2.42l-.05.11c0-.57-.08-1.12-.09-1.68.46-.49.88-.94,1.23-1.34l.16-.21A3.43,3.43,0,0,1,151.94,21.69Zm.31,0v-.79l.21-.25Zm1.53-7a9.46,9.46,0,0,0,0,1.32.65.65,0,0,0-.21-.36c-.37,1.49-.67,3-1,4.51l-1.76,1.6a17.47,17.47,0,0,1,2.27-8.88c.25-.44.53-.86.82-1.28C153.87,12.65,153.9,13.68,153.78,14.71Zm.54,9.19a7.81,7.81,0,0,1,0-1.18q0-.31.06-.66c.07.42.14.84.22,1.25ZM154,10.28A25.32,25.32,0,0,0,152,12.75a17.43,17.43,0,0,0-2.53,5.9s0,0,0-.07,0,.13,0,.19a22.68,22.68,0,0,0-.53,4.72,16.58,16.58,0,0,0-2.69,3.19v0c-.12-.22-.23-.45-.34-.68.3-1.51.6-3,.81-4.59.85-1,1.35-1.57,1.35-1.57-.43.43-.88.85-1.32,1.27.05-.42.1-.83.14-1.25s0-.91.07-1.37a13,13,0,0,1-2.06,4.31l-.37.33a17.49,17.49,0,0,1,2.27-8.88c1.81-3.11,4.75-6,7.82-8.87A43.87,43.87,0,0,0,154,10.28Zm2.52,23a3.81,3.81,0,0,0-.51-.94,1.09,1.09,0,0,1-.45-.71c-.06-.28-.2-.32-.32-.55a1.41,1.41,0,0,1-.1-.34l.52-1.44a4.36,4.36,0,0,0,.2-.73c.32,1.24.63,2.49.89,3.75,0,.13,0,.26,0,.39Zm7,1.06a26.47,26.47,0,0,1,0-2.67l0,.17c.15.72.17,1.45.32,2.16s.41,1.34.55,2.06C164.13,35.46,163.82,34.88,163.5,34.32Zm4.83-6.19a7.26,7.26,0,0,1-.1-1.16,20.8,20.8,0,0,1,.5,2.52,5.15,5.15,0,0,1,0,.54A7.21,7.21,0,0,1,168.33,28.13Zm27.13,3.33v0l0,0c0-.23-.08-.46-.13-.7a5,5,0,0,1,.23.53Zm.43-2.05v0a.92.92,0,0,1,0,.16h0c0,.12,0,.27,0,.43h0a8.93,8.93,0,0,1-.49-.92c0-.34.11-.68.14-1a17,17,0,0,1,.46-2.38q0,.46,0,1c0,.48.06,1,.06,1.47s-.13.72-.11,1.13Zm13.93-6,0,.39a1.48,1.48,0,0,1,0,.21l-.15,0C209.74,23.87,209.78,23.66,209.82,23.45Zm-1.24,5.81s0-.05,0-.08a1.16,1.16,0,0,0,0,.18Zm1.18.78a13.78,13.78,0,0,1-.85-1.72l-.06-.12q.21-.87.39-1.74t.39-2l.24,0c0,.76,0,1.48,0,2.25,0,.48.07,1,.06,1.47s-.13.72-.11,1.13A4,4,0,0,1,209.76,30Zm3.73-4-.32.71a3.24,3.24,0,0,1-.33.54,17.5,17.5,0,0,0-.41-2.16,7.7,7.7,0,0,1-.22-.95c.46,0,.93-.08,1.4-.09A15.71,15.71,0,0,0,213.49,26Zm4.57,5.82c.08-.18.16-.36.23-.54.07.32.15.63.22.95A5.92,5.92,0,0,1,218.06,31.82Zm1.14-11.24a6.4,6.4,0,0,1-.33-1c-.08-.41-.17-.82-.25-1.22a9.46,9.46,0,0,0,1.08.94A5.71,5.71,0,0,1,219.2,20.58Zm3.56,5.14c-.24.58-.63.93-.85,1.54a4,4,0,0,0-.15.49,17.17,17.17,0,0,1-1-2.54,5.74,5.74,0,0,0-.34-.83c.89.11,1.8.25,2.71.42C223,25.1,222.89,25.42,222.76,25.72Zm.69-1.52-.06.09c-1-.2-2.07-.35-3.09-.47a13.86,13.86,0,0,0,.18-1.46,9.24,9.24,0,0,1,.18-1.4,3.3,3.3,0,0,0,.05-1c.28.16.56.32.88.48.87.44,1.93.94,3.12,1.49A22.09,22.09,0,0,1,223.45,24.2Zm2.66-.27c.09-.42.18-.83.3-1.24l1.26.58a12.48,12.48,0,0,0-.23,2l-1.11-.3A6.85,6.85,0,0,1,226.11,23.93Zm.83,4.08c-.23-.79-.28-1.63-.46-2.44l.94.27c0,.41,0,.81,0,1.2s0,1.08.06,1.62l-.37,0C227.07,28.45,227,28.23,226.94,28Zm.34,1.25h.25a10.2,10.2,0,0,0,.16,1.34C227.53,30.16,227.4,29.71,227.28,29.26Zm.5-6.51-1.11-.51-.1,0a23,23,0,0,1,2.33-4.93C228.5,19.09,228.16,20.93,227.78,22.75ZM235.27,28v.12l-.06,0Zm-4.9.81c-.06-.12-.11-.24-.18-.36s0-.24-.05-.32A7.26,7.26,0,0,1,230,27c.14.61.3,1.23.41,1.85Zm.47.07-.32-.05L230,27v-.28l1.18.43C231.08,27.69,231,28.28,230.84,28.88Zm1.38,4.38-.19-.41.59-.91,0,.28C232.51,32.57,232.36,32.91,232.22,33.26Zm-.46-2.79.06-.74.52.12ZM233.23,35c0,.13,0,.27-.07.41s-.09.16-.14.23c0-.48,0-1.05.07-1.66q.1.3.24.6C233.3,34.71,233.27,34.85,233.23,35Zm-.32-5.72,0,0-1-.25c0-.26,0-.53,0-.8s0-.62-.07-.93l1.14.45.51.22A6.82,6.82,0,0,0,232.91,29.27Zm.57-1.92c-.58-.24-1.15-.47-1.72-.68a8.8,8.8,0,0,0-.16-1.22c-.08.36-.17.71-.25,1.07l-1.3-.46,0-.8c0-.3,0-.58,0-.87,1.42.67,2.91,1.38,4.42,2.13a10.92,10.92,0,0,0-.72,1ZM234.64,31c-.06.62-.54,1.06-.57,1.69,0,.09,0,.18,0,.27a6.51,6.51,0,0,1-.06-2.64l.74.28C234.68,30.74,234.66,30.87,234.64,31Zm.63-1.86c-.12.28-.25.56-.36.84-.26-.1-.52-.21-.79-.3v0l.73-1.06.42.19c0,.1,0,.2,0,.3A.14.14,0,0,0,235.27,29.15ZM236.54,26l-.16.12a0,0,0,0,1,0,0l.25-.24Zm2.82,3.77v-.12l0-.62.14.08C239.47,29.36,239.41,29.58,239.36,29.79Zm.4-1.46a3.59,3.59,0,0,0-.34-.17,20.18,20.18,0,0,1,.31-2.79c.12-.64.18-1.31.24-2,.43-.25.87-.5,1.34-.75C240.84,24.58,240.27,26.53,239.76,28.33Zm4.3,3.64c0,.14-.05.29-.08.45l-.14.16-.38-.24c-.08-.34-.14-.68-.2-1l.83.52A.7.7,0,0,1,244.06,32Zm3.44-.41c-.05-.4-.15-1.2-.24-2a7.71,7.71,0,0,1-.13-1,1.73,1.73,0,0,1-.19.54c.06-.21.13-.42.19-.63h0v0l.06-.27c0,.11,0,.23-.06.34,0,.31.08.65.13,1a18.31,18.31,0,0,1,.28,2Zm.9-2.16c0,.48-.08,1-.13,1.43,0,.27-.4-2.6-.68-4.39.2-1,.39-2,.65-3.08A55.44,55.44,0,0,1,248.4,29.4ZM248.22,23v.1c-.18.48-.47,1.21-.85,2.14,0-.14-.06-.2-.07-.16a1.82,1.82,0,0,0-.05.48c-.37.94-.66,2.13-1.18,3.41a3.31,3.31,0,0,1-.26-.27c0-.14,0-.28,0-.42,0-.41-.08-.9-.11-1.31a10.42,10.42,0,0,0-.18-1.5c-.21.89-.41,1.78-.61,2.68-.13.07-.23.28-.3.71a4.23,4.23,0,0,0-.05.5c-.21-.86-.43-1.72-.65-2.58a22.75,22.75,0,0,1,.55,2.73,4.34,4.34,0,0,1,0,1.14.8.8,0,0,1,0,.15c-.43-.24-.85-.48-1.29-.71,0-.65.18-1.31.24-2a21.21,21.21,0,0,1,.55-2.77c-.34,1.35-.69,2.7-1,4.06-.31-1.45-.59-2.88-.83-4.35.23-1,.46-2.06.64-3.1a52,52,0,0,1,5.63-2.19c.11.59.19,1.17.24,1.73C248.73,23.27,248.13,21.17,248.22,23Zm2.24-1.33a10,10,0,0,1-.62-1.22,6.22,6.22,0,0,0-.53-1q1.2-.37,2.52-.75a5.75,5.75,0,0,0-1,1.47A5.17,5.17,0,0,0,250.46,21.65Zm3.42,7.48a.58.58,0,0,1,0-.14l.14-.06a.5.5,0,0,1,0,.12Zm.22.81a1.6,1.6,0,0,0,0-.21l0,0C254.12,30,254.13,30.09,254.1,29.94Zm.07-1.11.29-.13c-.09.07-.19.13-.27.2A.14.14,0,0,1,254.17,28.83Zm.64.55a9.26,9.26,0,0,0-.25,1c-.08-.3-.15-.6-.23-.9.2-.15.39-.31.57-.46Zm2.94-3.59q0,.42,0,.87l-.24.09.21-.92Zm-.05.07c-.07.3-.15.6-.22.91L257,27A8.84,8.84,0,0,0,257.7,25.86Zm-1.22,1.95.61-.26.21-.08-.48,1.93C256.7,28.87,256.59,28.34,256.48,27.81Zm.75,3.7s0-.06,0-.09l.11-.06A.49.49,0,0,1,257.23,31.51Zm.42-1.5-.59.3a18.45,18.45,0,0,1,.23-2.2c0-.23,0-.45.09-.67l.4-.16c0,.29,0,.59,0,.88s-.13.72-.11,1.13A4.42,4.42,0,0,1,257.65,30Zm3-.7.18-.14A.37.37,0,0,1,260.66,29.31Zm-.27-.94c0-.67,0-1.37,0-2.06l.46-.15L261,27.3c0,.12,0,.22,0,.33s0,.15,0,.3C260.78,28.09,260.58,28.23,260.39,28.37Zm.76-2.26c0,.16,0,.32-.07.48-.07-.15-.13-.3-.2-.44l.27-.09Zm.09.83,0-.06c0-.11,0-.23.05-.34C261.25,26.67,261.25,26.81,261.24,26.94Zm.27-.54c0-.15-.05-.3-.07-.43l.19-.06C261.59,26.07,261.56,26.24,261.51,26.4Zm4-2.78c.12-.24.23-.48.34-.73.07.33.17.83.26,1.29l-.37.08C265.63,24,265.56,23.82,265.48,23.62Zm.64,1.49a1.52,1.52,0,0,1-.2-.33l.25-.06C266.21,25,266.21,25.22,266.12,25.11Zm2.62-.64a2.77,2.77,0,0,1-1.06.63,2.75,2.75,0,0,1-.17.45l-.06-.27c0-.18,0,0,0,.37l0,0a6.09,6.09,0,0,0-.42.93,2.47,2.47,0,0,1-.11-.47,4.68,4.68,0,0,0-.46-1.47c.84-.17,1.67-.32,2.49-.43ZM271.58,30a3.33,3.33,0,0,1-.46,1.54c-.12.09-.13.4-.17.6h0a5.31,5.31,0,0,1-1.29,1.3l-.22-.29c.26-1.23.57-2.43.88-3.64.47-.37.88-.72,1.26-1.08Zm.12-2.39a2,2,0,0,0-.12-.28v.4c-.32.29-.67.58-1,.87.17-.72.34-1.43.5-2.16s.33-1.67.48-2.51h.12c.07.94,0,1.81,0,2.75,0,.3,0,.61,0,.92Zm2.63,0a15.82,15.82,0,0,0-.08-1.95c.12.53.24,1.06.37,1.59Zm4-1.51c-.11-.31-.21-.62-.3-.92-.15-.5-.39-.87-.57-1.33.66.05,1.3.12,1.94.21ZM281.9,25c0-.14.05-.28.08-.42l.24.06a1.1,1.1,0,0,0,0,.18A2.21,2.21,0,0,1,281.9,25Zm.29-1.38q0,.32,0,.63l-.14,0c.07-.43.13-.86.19-1.29C282.22,23.15,282.2,23.38,282.19,23.61Zm2.26,5.14c.11-.44.21-.89.32-1.33A17.71,17.71,0,0,0,285,30.6C284.77,30,284.62,29.37,284.45,28.75Zm25.64,4.52a4.86,4.86,0,0,1-.51-1.8c0-1.26.29-2.53.27-3.8,0-.55,0-1.1,0-1.64a9.51,9.51,0,0,1,.46,1.15C310.93,29,310.56,31.08,310.09,33.27ZM315,26.69c-.15.63-.28,1.26-.41,1.89l.06-.47a13.56,13.56,0,0,1,.35-1.94Zm.5,5.56c-.07.42,0,.84,0,1.26a9.93,9.93,0,0,1-.1-1.86c0-.1,0-.2,0-.31,0,.28.07.55.12.82A.31.31,0,0,0,315.45,32.25Zm4-9.27c0,.59.07,1.2.1,1.82-.31-.89-.64-1.77-1-2.64.06.46.14.92.21,1.37a1.54,1.54,0,0,1-.09.52,2,2,0,0,0-.25-.3l.25.3a.93.93,0,0,0,0,.22,7.33,7.33,0,0,0,.13.94c.05.51.08,1,.11,1.53a6,6,0,0,0-.34-1.68c-.09.3,0,.72-.08,1.05-.09.5-.16,1-.2,1.52,0,.09.06.43.11.88a12.9,12.9,0,0,1,.21-2,13.55,13.55,0,0,1-.2,2c0,.31.08.65.12,1a17,17,0,0,1,.28,1.88l0,.09c-.06-.41-.15-1.2-.25-2-.05-.32-.1-.64-.13-1-.38,1.8-1.35-.27-2-.48a18.5,18.5,0,0,1,0-5.2,18.72,18.72,0,0,1,2.35-6.29,17.74,17.74,0,0,1,1.12,4.87C320,23.27,319.37,21.17,319.45,23Zm5.37,5.09s0,0,0,0a1.62,1.62,0,0,0-.09-.38l.19-.27Zm3,4.18a3.86,3.86,0,0,0,0,.68c-.1.26-.11.55-.34.72a2.45,2.45,0,0,0-.15-.52,11.31,11.31,0,0,1-.53-2.35,10.11,10.11,0,0,1,.19-2.67c0-.24.06-.48.1-.72a.51.51,0,0,0,0,.13,11.31,11.31,0,0,0,.51,1.3,6.2,6.2,0,0,0,.42,1.48l.1.18C328.05,31.08,327.94,31.66,327.84,32.25Zm13.54-3.48-.18-.33.23,0C341.41,28.53,341.39,28.65,341.38,28.77ZM344,27.62l0,.14h0Zm-.25,4.4a23.81,23.81,0,0,0,.22-3.18c0-.21,0-.43,0-.64h.11c.14.59,0,1.2.1,1.81,0,.11,0,.22.05.32A9.88,9.88,0,0,1,343.79,32Zm2.75-5.74c0,.26,0,.51,0,.76l0,.67h-.07a3.37,3.37,0,0,1,0-.44A8.21,8.21,0,0,1,346.54,26.28Zm-.06,3.29a2.56,2.56,0,0,1,0-.27,3.37,3.37,0,0,0,0-1.1h0a12.9,12.9,0,0,0,.21,2.4C346.68,30.26,346.58,29.92,346.48,29.57Zm3.15-.19-.12.24a10.72,10.72,0,0,1-.21-1.24l.72.07A7.61,7.61,0,0,1,349.63,29.38Zm1.46-3.7a12.27,12.27,0,0,0-.89,2.25c-.33,0-.65-.07-1-.09a15.88,15.88,0,0,1,0-2.58c0-.87-.09-1.66,0-2.54a10.65,10.65,0,0,0,2.32,1.63A4.9,4.9,0,0,1,351.09,25.68ZM353,33.53h0c.06-.28.12-.56.19-.83A3.64,3.64,0,0,1,353,33.53Zm.75-2.52a5.14,5.14,0,0,1-.47,1.22c.25-1,.52-2.1.79-3.15l.3.07A6.47,6.47,0,0,0,353.76,31ZM355,27.26c-.15.44-.26.92-.39,1.37l-.35-.08c.17-.69.34-1.39.48-2.09,0-.17.07-.34.1-.51l.71.33A4.81,4.81,0,0,0,355,27.26Zm4.46,13.35c0-.26-.08-.51-.14-.76-.12-.53.51-1.11.78-1.52l.16-.26A13.09,13.09,0,0,1,359.41,40.61Zm.3-10.6,0,0v0c.14-.51.29-1,.43-1.55l.45.21C360.25,29.07,360,29.53,359.71,30Zm3,7.88a5.9,5.9,0,0,1-.59-1.67,9.54,9.54,0,0,0-.24-1c0-.09.09-.19.14-.28.26.24.53.47.8.7A21.43,21.43,0,0,0,362.68,37.89Zm.14-3.71-.21-.18.22,0A.53.53,0,0,1,362.82,34.18Zm.1-.79-.16,0c.09-.18.18-.35.26-.53C363,33,363,33.21,362.92,33.39Zm1.87-2.73h0s0,0,0,0Zm1,5.18c-.14,0-.55-.73-.61-.88a1.47,1.47,0,0,1-.06-.14c.38.14.75.31,1.12.49C366.13,35.52,366,35.78,365.82,35.84Zm1.24-1.79a1.58,1.58,0,0,0-.41.71c-.56-.26-1.14-.51-1.72-.72a8.12,8.12,0,0,1-.17-1.1c.05-.1.09-.2.14-.31.83.37,1.62.74,2.37,1.1A.89.89,0,0,1,367.06,34.05Zm.61-1.38c-.05.12-.1.3-.16.48-.74-.35-1.51-.69-2.31-1a8.5,8.5,0,0,1,.64-.92l2,1C367.8,32.38,367.74,32.52,367.67,32.67Zm.47-1.13-1.85-.88a14.41,14.41,0,0,1,2-1.83v.26c0,.62,0,1.21.08,1.82Zm4.71,2.37-.86-.44c-.14-.31-.28-.63-.39-.95l.57-1-.45.35.21-.9c.41.6.8,1.2,1.17,1.77C373,33.14,372.93,33.53,372.85,33.91Zm1.57-7.18a17.71,17.71,0,0,1-.49,2.65,9.76,9.76,0,0,0-.33,1.42c-.45-.48-.88-.93-1.3-1.34.24-1.1.49-2.23.69-3.35.56-.26,1.15-.52,1.76-.77C374.63,25.8,374.5,26.25,374.42,26.73Zm1.49,2.54c.13-.57.28-1.06.42-1.48-.13.54-.26,1.07-.4,1.61A.51.51,0,0,1,375.91,29.27Zm3.66,0c-.68-.25-1.61-2.28-1.91-.46-.09.55,0,1.11-.09,1.62s-.22,1.2-.31,1.79,0,1,0,1.42a7.8,7.8,0,0,0-.09,1.45,1,1,0,0,0-.08-.11,7.47,7.47,0,0,0-.3-1.88,12,12,0,0,1-.53-2.35,9.7,9.7,0,0,1,.19-2.67c0-.27.07-.53.11-.79a6.17,6.17,0,0,1,.58-1.1c-.18.23-.33.45-.5.68.11-.53.24-1,.35-1.56-.13.54-.27,1.09-.41,1.64-.31.43-.59.85-.85,1.28-.21-1-.4-2-.57-3.07,1.24-.5,2.61-1,4.11-1.48.11.43.2.85.27,1.28A16.79,16.79,0,0,1,379.57,29.3Zm1.59-5a6.17,6.17,0,0,0-.45,1.89c-.06-.43-.13-.86-.23-1.29s-.27-1-.44-1.45l1.23-.37c0,.31,0,.62.05.93C381.27,24.12,381.2,24.21,381.16,24.31Zm4.37.24c-.27-.63-.34-1.3-.6-1.93s.65,2.91.3,2.49a12.06,12.06,0,0,1-.76-1.78c-.17-.33-.36-.65-.56-1,1.25-.33,2.57-.65,4-1a25.24,25.24,0,0,0-.22,3c-.37.36-.71.72-1,1.08,0-.07,0-.14-.05-.21s0,0,0,.26l-.53.6h0A5.92,5.92,0,0,0,385.53,24.55Zm1.62,5.39c-.11-.64-.45-1.26-.53-1.89a3,3,0,0,0-.22-.77c.1-.17.22-.33.33-.49C386.94,28.34,387.23,30.42,387.15,29.94Zm.15-.71c-.18-.66-.15-1.39-.29-2.06,0-.2-.1-.4-.14-.6.25-.37.52-.72.8-1.07,0,.35,0,.69,0,1,.06,1,.13,2.05.2,3.08-.11.17-.24.34-.37.51C387.46,29.82,387.37,29.53,387.3,29.23Zm.34,1.37c.12-.17.21-.33.3-.48,0,.24,0,.48,0,.72l-.26.1C387.7,30.83,387.67,30.71,387.64,30.6Zm.18.93.2-.07c0,.44,0,.88,0,1.32C388,32.38,387.89,32,387.82,31.53Zm.07-10.19c-.87.14-2.33.39-4.12.78l-.09-.16a18,18,0,0,1,4.73-3.18A20.37,20.37,0,0,0,387.89,21.34Zm17.57,5.05c0-.35,0-.69,0-1a14.3,14.3,0,0,1,1.5,2.21c-.54,0-1.07-.06-1.61-.07C405.41,27.13,405.44,26.76,405.46,26.39ZM390.4,31.3c0-.23-.06-.47-.1-.7l.32-.12A4.36,4.36,0,0,1,390.4,31.3Zm.32-1.45-.49.17c-.16-1.06-.32-2.13-.46-3.19a31.87,31.87,0,0,1-.27-3.37c.45-.47.86-.91,1.2-1.31,0,.57,0,1.15.08,1.69.07,1,0,1.87,0,2.85,0,.48.06,1,.06,1.47a10.54,10.54,0,0,0-.11,1.13A4.42,4.42,0,0,1,390.72,29.85Zm.33-11.18a18.75,18.75,0,0,0-.29,2.62c0,.09,0,.2,0,.3l-1.23,1.12a19.82,19.82,0,0,1,.56-4.67c.48-.2.92-.36,1.3-.5C391.22,17.92,391.13,18.41,391.05,18.67ZM393.19,32a5.46,5.46,0,0,0,.1-.69l.22-.24C393.41,31.41,393.3,31.73,393.19,32Zm.73-2.53c-.18.22-.36.44-.55.65,0-.17,0-.34,0-.51l.54-.16Zm.27-1.53c0,.32-.07.62-.12.91l-.66.18a1.48,1.48,0,0,1,0-.21,16.93,16.93,0,0,0-.16-3.9c-.29-1.57-.6-3.15-.93-4.71l.71-.83c-.24.25-.49.49-.74.73-.19-.91-.39-1.81-.62-2.7l.77-.25-.77.24c0-.1-.05-.21-.07-.32a1,1,0,0,0-.25.44c-.39.13-.82.29-1.29.47a16.64,16.64,0,0,1,1.61-4c2.74,1.91,7.12,6.14,4.27,12.31A10.29,10.29,0,0,0,396,25c-.09-1.68-.24-3.35-.36-5-.37,1.85-.61,3.67-.89,5.54C394.62,26.39,394.29,27.11,394.19,28ZM399,29.38c-.54,1.09-1.15,2.12-1.67,3.24-.06-.24-.08-.37-.08-.37,0,.25-.06.48-.09.73a20.94,20.94,0,0,1-1.15,2,10.89,10.89,0,0,0-.18-2.61,9.52,9.52,0,0,1-.55,1.8c.08-.48.2-1,.29-1.41.23-1.14.05-2.39.33-3.49,0-.1,0-.21,0-.31,1-.23,2-.42,3-.57.05.24.1.48.16.71S399.08,29.29,399,29.38Zm3.08,19.7v0h0Zm1.37-26.69c-1.1-1-2.25-2-3.37-3.13,0,0,.89,1,2.32,2.71.22.26.47.54.75.83a14.2,14.2,0,0,1-1.41,1.67,2.66,2.66,0,0,1-1,.63,2.6,2.6,0,0,1-.23.58,11.77,11.77,0,0,0-.85,2.11l-.16,0c-.3-.6-.58-1.21-.85-1.85.08.61.16,1.28.26,1.93-1,.14-1.94.32-2.92.53,0-.3-.05-.6-.07-.89,2.33-4.8,1.62-10.27-4.15-13.69v0a31.17,31.17,0,0,1,4.89-6,30.86,30.86,0,0,1,4.74,5.89,17.44,17.44,0,0,1,2.26,8.46A2.33,2.33,0,0,0,403.49,22.39Zm.6,24.28a2.28,2.28,0,0,0-.18-.52l.16-.06.25-.11c.74.49,1.41,1,2,1.43Zm2.78-18.33a11.83,11.83,0,0,1-1.35,2l-.21.23-.08-.1,0-.05c.05-.83.11-1.67.17-2.51.59,0,1.17,0,1.74,0A3,3,0,0,0,406.87,28.34Zm2.54,1.15c-.07.12-.14.24-.2.36l-.06-.21c.09-.3.18-.6.26-.91Zm.46-.75c0-.17-.09-.33-.13-.49l.31,0,.1,0C410.05,28.45,410,28.6,409.87,28.74Zm2.11,5,0-.05c.13.17.27.33.41.49a.54.54,0,0,1,.11.18Zm.55-1.11a.59.59,0,0,0,0-.08s0,.09,0,.13Zm4-5.8s0,0,0,0c.09.2.2.44.3.71C416.68,27.28,416.58,27.06,416.49,26.83Zm1.33,1.85a20,20,0,0,0-1.44-2.18,13.11,13.11,0,0,0-.44-1.26l-.72-1.82c0-.34.1-.7.12-1.06a8.12,8.12,0,0,1,.18-1.4,7.58,7.58,0,0,0,.05-1.58c.24-.46.49-.91.76-1.37,0,.19,0,.38.05.57.08.61-.08,1.23.06,1.82a7.35,7.35,0,0,1,.18,1.41c.09,1.26.38,2.42.59,3.65.11.62.39,1.13.51,1.75,0,.18.07.36.1.53Zm1.2,2.56c-.11-.3-.25-.61-.38-.91a.5.5,0,0,1,0-.12c.12.34.26.68.41,1Zm-.22-9c-.28-.54-.39-1.18-.65-1.73a7.37,7.37,0,0,1-.78-1.94c-.11-.56-.31-1-.43-1.54.7-1.1,1.47-2.19,2.28-3.27,0,.31,0,.63-.07,1a19.63,19.63,0,0,0,.12,3.75,44.89,44.89,0,0,0,.76,5.05s0,.07,0,.1a8.8,8.8,0,0,0,0,1C419.64,23.84,419.23,23,418.8,22.24ZM421,35.38l.08.06c.07.13.13.25.21.38a2.25,2.25,0,0,0,.05.22Zm13.79-9.7,0-.07,0,.06c0-.1,0-.2,0-.3.25-1.3.24-2.72.53-4,.2-.92-.24-2-.28-2.92a22.86,22.86,0,0,1,1.12,2.35c-.06.72-.11,1.45-.16,2.17-.16.41-.52,1.37-1.08,2.74a7.83,7.83,0,0,0-.29.82Q434.75,26.1,434.82,25.68Zm1.39,6.52c-.14.35-.29.71-.44,1.06a3.25,3.25,0,0,0-.51-.94,1.09,1.09,0,0,1-.45-.71c-.06-.28-.19-.32-.32-.55l-.05-.14c0-.36,0-.71.05-1.07.69-2,.93-4.3,1.57-6.73,0,.45-.07.91-.1,1.36,0,.77.12,1.48.11,2.24a8.13,8.13,0,0,0,0,2,22.16,22.16,0,0,1,.26,3A1.27,1.27,0,0,1,436.21,32.2Zm1-7.21-.36-2.41a14.63,14.63,0,0,1,.42,1.8c.07.5.12,1,.14,1.5A8.25,8.25,0,0,1,437.21,25Zm7,5.57c-.08.55-.17,1.06-.28,1.55l-.23.56c-.11.26-.24.73-.4,1.06a10.3,10.3,0,0,1-.05-5.08,10.2,10.2,0,0,1,1-2.16c.06.87.09,1.73.08,2.6,0,.25,0,.5,0,.74A4.77,4.77,0,0,0,444.21,30.56Zm.94-5.29c.06-.08.11-.16.17-.23,0,.15-.07.29-.1.44Zm.15.45c0-.32.08-.59.1-.78l0-.05c0,.35,0,.69,0,1,0,.12,0,.24,0,.36C445.43,26.1,445.37,25.91,445.3,25.72Zm7,3c0-.22.07-.43.09-.65a11.43,11.43,0,0,1,.27-1.57c0,.65.06,1.29.06,1.95A1,1,0,0,1,452.34,28.76Zm3.69.07a9.81,9.81,0,0,0,.07-1.09c0,.11,0,.28.06.49S456.08,28.63,456,28.83Zm.33-1.53-.15.73c0-.5.14-1,.19-1.49C456.39,26.8,456.37,27.05,456.36,27.3Zm9.39,3.53a20.4,20.4,0,0,1-.35-2.18l.06.17a10.61,10.61,0,0,0,.36,1.37C465.8,30.4,465.77,30.62,465.75,30.83Zm27.09-8c0,.15-.09.29-.15.43-.19.49-.44.88-.6,1.4-.08.28-.18.55-.27.82,0-.13-.06-.26-.1-.38a19.94,19.94,0,0,1-.48-3.11c-.11-.81-.28-1.61-.44-2.41l.86,1c.34.41.77.86,1.22,1.35C492.88,22.22,492.85,22.52,492.84,22.82Zm4.12,9.4a1.13,1.13,0,0,1-.34-.61c-.06-.28-.2-.32-.31-.55a.64.64,0,0,1-.06-.14c0-.42.05-.84.06-1.25,0-1,.07-2,.18-3a10.2,10.2,0,0,1,.41,1A9.43,9.43,0,0,1,497,32.22Zm16.15-6.12c0-.14-.05-.27-.07-.4s.11-.16.17-.25C513.18,25.65,513.15,25.87,513.11,26.1Zm1,2.66c0-.22.06-.43.08-.65a11.43,11.43,0,0,1,.27-1.57c0,.65.06,1.29.06,1.95A1,1,0,0,1,514.16,28.76Zm3.69.07c0-.36.06-.72.06-1.09,0,.11,0,.28.06.49Zm.32-1.53c0,.24-.11.49-.15.73,0-.5.14-1,.19-1.49C518.2,26.8,518.18,27.05,518.17,27.3Zm21.59-3-.14.16-.18.15q-.26-1.39-.54-2.79l.94,1C539.83,23.33,539.8,23.82,539.76,24.31Zm3.59,6.07c-.44.49-.87.93-1.27,1.45a1.42,1.42,0,0,1-.08-.18s0,0,0-.07a11.32,11.32,0,0,1,.2-2.28,8.13,8.13,0,0,0,0-2c0-.56.07-1.09.1-1.64a10.49,10.49,0,0,1,1.62,3,7.16,7.16,0,0,1,.19.8A6.84,6.84,0,0,1,543.35,30.38Zm8.06-10.49c0-.11,0-.22,0-.33a29.86,29.86,0,0,1,1.62-2.9l-.15.75c-.11.59-.35,1.09-.47,1.71a7.8,7.8,0,0,1-.78,1.95c-.24.5-.36,1.07-.59,1.58C551.2,21.74,551.33,20.82,551.41,19.89Zm.83,8.65c-.26.5-.54,1-.79,1.5.08-.25.18-.51.27-.76a9.49,9.49,0,0,0,.36-1.51c.1-.58.36-1.07.48-1.63a6.43,6.43,0,0,1,.4.92C552.73,27.57,552.48,28.08,552.24,28.54Zm5.18,10.56-.73.43a16.69,16.69,0,0,1-.34-2.1V37.3c.14-.23.28-.45.41-.68s.35-.62.5-.93c.49-1,1-1.94,1.44-2.91.14-.25.27-.49.42-.74C558.7,34,557.93,37.4,557.42,39.1Z"/></g></g></svg>