<svg xmlns="http://www.w3.org/2000/svg" viewBox="0 0 78.68 357.56"><defs><style>.cls-1{fill:#006837;}</style></defs><title>Ресурс 9</title><g id="Слой_2" data-name="Слой 2"><g id="Vector_Graphics" data-name="Vector Graphics"><path class="cls-1" d="M38.39,58c.06-.47-11-9.38-13.44-10.8C28.31,48.46,38.79,53.52,38.39,58Z"/><path class="cls-1" d="M37.56,74.06c3.09.12,15.81.85,13.19,5.88C48.58,83.24,39.73,75.26,37.56,74.06Z"/><path class="cls-1" d="M41.35,64.45c-1.44,1.81-11-7.69-12.8-9.1C30.78,56.55,43.11,61.46,41.35,64.45Z"/><path class="cls-1" d="M52.7,66.49c-3.7,1-4.33-13.25-5.08-16.11C49.22,52.65,57.82,65,52.7,66.49Z"/><path class="cls-1" d="M45.45,72.22C42.89,75.05,34.06,65.7,32,64.48,34.54,65,48.74,67.71,45.45,72.22Z"/><path class="cls-1" d="M52.79,76.64c-4.57,1-2.91-7.68-2.15-9.84C51.41,68.84,56.73,75.1,52.79,76.64Z"/><path class="cls-1" d="M47.74,61.5c-3.35,1.48-5-10.44-5.23-12.08C43.46,51.29,50.3,59.85,47.74,61.5Z"/><path class="cls-1" d="M24,15.14c.63,2.31,10,26.55,10.77,26.46C33.39,43.24,24.37,17.27,24,15.14Z"/><path class="cls-1" d="M41.69,49c-3.14-.8-7-15.9-8.95-19.3C34.17,31.47,43.93,49.19,41.69,49Z"/><path class="cls-1" d="M45,67.7a65.43,65.43,0,0,1-6.59-12.08c2.76,3.1,7.6,5.85,9.69,9.36C49.38,67.15,46.41,70.07,45,67.7Z"/><path class="cls-1" d="M38.83,53c-1.68-2.89-2.78-6.44-4.83-9.07,2.83,2.44,7.08,7.91,8,11.55C42.51,57.68,39,53.29,38.83,53Z"/><path class="cls-1" d="M31.77,43.68c.49.75,4.93,8.71,4.29,8.67-.66-.64-1.3-1.25-2-1.86A48.83,48.83,0,0,0,20.5,34,30.79,30.79,0,0,1,31.77,43.68Z"/><path class="cls-1" d="M55,59.85c-2.33,1.32-1.24-9.45-1.35-10.24C53.92,50.4,58.33,59.33,55,59.85Z"/><path class="cls-1" d="M58.4,356.12a94.56,94.56,0,0,0,.54-23.73c-3.4-30.75-26.11-54.59-35.29-83.47-8-25.11-2.95-56.51-23.65-76.22C18,186,18.9,210.22,23.68,230,21.88,178.23,51.09,131.53,53,80.13c.42,26.58-5.61,52.51-12,78.15,10.58-17.64,28.58-46.83,17.64-68.23,9.43,14,2.33,36.43-4,50.33-10.15,22.21-21.41,43.68-24.34,68.27-2.9,24.27,1,46.64,12.58,68.16,10.6,19.73,23.1,39.17,25.4,62,5.61-25,7.33-50.16,2.61-75.49-2.31-12.36-5.08-24.64-7.62-37-1.88-9.12-4.13-20.58,1.48-28.89-5.93,10.26,0,26.46,2.51,37C72.62,256,77.94,277.73,78.62,300c.59,19.72-3.29,38.69-8.27,57.58A90.64,90.64,0,0,0,58.4,356.12Z"/><path class="cls-1" d="M54.87,76.52A17,17,0,0,1,65,72.17a33.14,33.14,0,0,0-7,7.48C56.64,81.51,53.4,78.09,54.87,76.52Z"/><path class="cls-1" d="M50.34,32.65c-.11,2.71,2.33,21.3,1.31,21.54C47.39,53.85,49.75,35.16,50.34,32.65Z"/><path class="cls-1" d="M55.16,68.51c.38-4.54,3.05-9.29,5.41-13.12-1,4.7-.68,9.52-1,14.28C59.33,73.17,55.64,70.4,55.16,68.51Z"/><path class="cls-1" d="M26.3,0c.5,2.75,7.52,26.63,7.19,26.71C28.29,26.51,26.59,3.53,26.3,0Z"/><path class="cls-1" d="M32.25,13.07c4,6.1,12.22,18.15,10.24,25.71C40.23,38.55,33.59,16.18,32.25,13.07Z"/><path class="cls-1" d="M46.66,54.32c-3.07-.1-3.11-13-3.21-14.4C44.12,44,48,50.69,46.66,54.32Z"/><path class="cls-1" d="M47.49,47.22c-3.55-.29-1.73-16.95-1-19.57C46.51,33,49.73,42.87,47.49,47.22Z"/></g></g></svg>