<svg xmlns="http://www.w3.org/2000/svg" viewBox="0 0 273.19 54.82"><defs><style>.cls-1{fill:#39b54a;}</style></defs><title>Ресурс 1</title><g id="Слой_2" data-name="Слой 2"><g id="Vector_Graphics" data-name="Vector Graphics"><path class="cls-1" d="M3.24,39.22a20.6,20.6,0,0,1,.28,2.11C7.67,31.89,13,29.5,13,29.5,8.59,31.06,5.39,35.29,3.24,39.22Z"/><path class="cls-1" d="M39.14,47.11s2.17-8,7-9.76c0,0-3.93,1.82-6.15,9.71Z"/><path class="cls-1" d="M42.88,47.34s1.63-6,5.22-7.34c0,0-3,1.37-4.61,7.3Z"/><path class="cls-1" d="M35.84,47.34s1.63-9.47,5.22-11.58c0,0-3,2.16-4.61,11.52Z"/><path class="cls-1" d="M41.34,47.42s1.33-5,4.24-6.11c0,0-2.39,1.14-3.74,6.07Z"/><path class="cls-1" d="M24.57,46.73s4.17-10,13.38-12.16c0,0-7.56,2.26-11.83,12.09Z"/><path class="cls-1" d="M31.75,47s3.15-7.48,10.06-9.14c0,0-5.68,1.7-8.88,9.08Z"/><path class="cls-1" d="M18.21,47s3.14-11.81,10.05-14.43c0,0-5.67,2.69-8.88,14.35Z"/><path class="cls-1" d="M28.8,47.11s2.55-6.22,8.16-7.6c0,0-4.6,1.42-7.21,7.56Z"/><path class="cls-1" d="M12.61,46.62S16.79,36.67,26,34.47c0,0-7.56,2.25-11.83,12.09Z"/><path class="cls-1" d="M19.8,46.91s3.14-7.47,10-9.13c0,0-5.67,1.7-8.88,9.08Z"/><path class="cls-1" d="M6.25,46.91S9.39,35.11,16.3,32.49c0,0-5.67,2.68-8.88,14.34Z"/><path class="cls-1" d="M16.85,47s2.54-6.22,8.15-7.6c0,0-4.61,1.41-7.21,7.55Z"/><path class="cls-1" d="M6.88,29c-.14.46-.28.91-.44,1.35a16.19,16.19,0,0,1,6.61-4.85A16.79,16.79,0,0,0,6.88,29Z"/><path class="cls-1" d="M11,48.05s3.36-17.46,10.79-21.34c0,0-6.09,4-9.53,21.23Z"/><path class="cls-1" d="M20.18,47.55S23.88,23.73,31,17.48c0,0-6.42,6.55-9.54,29.92Z"/><path class="cls-1" d="M4.46,48.27S9.59,13.33,27,13.67c0,0-15.79-1-20.31,34.38Z"/><path class="cls-1" d="M28.72,46.86S24.47,12.31,47,10.92c0,0-21.48.34-16.15,36.06Z"/><path class="cls-1" d="M31.46,47s.63-31.13,17.67-46c0,0-15.54,12.58-16,46Z"/><path class="cls-1" d="M34.22,47s2.5-19.78,16.29-22.7c0,0-11.65,1.69-15,22.58Z"/><path class="cls-1" d="M20,47.27s3.37-17.46,10.79-21.34c0,0-6.09,4-9.54,21.23Z"/><path class="cls-1" d="M42.64,47S46,29.51,53.43,25.63c0,0-6.09,4-9.54,21.23Z"/><path class="cls-1" d="M51.53,47.65s3.7-23.82,10.79-30.08c0,0-6.43,6.56-9.54,29.92Z"/><path class="cls-1" d="M16.72,47.77S20.42,24,27.51,17.69c0,0-6.43,6.56-9.54,29.92Z"/><path class="cls-1" d="M37.1,47s4.14-34.73,21.55-34.39c0,0-15.79-1-20.3,34.39Z"/><path class="cls-1" d="M47.06,48.26s3.79-18.8,17.57-21.55c0,0-11.65,1.59-15,21.28Z"/><path class="cls-1" d="M103.59,48.05s3.93-52.88,34-25.5c0,0-28.59-27.75-31.72,25.6Z"/><path class="cls-1" d="M106.58,48.15s.68-27.27,19.24-40.26c0,0-16.92,11-17.46,40.26Z"/><path class="cls-1" d="M109.58,48.15s2.73-17.33,17.74-19.88c0,0-12.69,1.47-16.37,19.78Z"/><path class="cls-1" d="M94.14,48.41s3.67-15.3,11.75-18.7c0,0-6.64,3.48-10.39,18.6Z"/><path class="cls-1" d="M118.75,48.15s3.67-15.3,11.75-18.7c0,0-6.64,3.48-10.39,18.6Z"/><path class="cls-1" d="M128.76,47.71s4-20.86,11.75-26.35c0,0-7,5.75-10.39,26.22Z"/><path class="cls-1" d="M89.1,48.77S94.55,28,102.27,22.5c0,0-7,5.74-10.39,26.21Z"/><path class="cls-1" d="M112.72,48.15s4.5-30.41,23.47-30.12c0,0-17.19-.89-22.11,30.12Z"/><path class="cls-1" d="M138.06,47.1S133.43,16.84,158,15.61c0,0-23.39.31-17.59,31.6Z"/><path class="cls-1" d="M141.05,47.21S141.72,19.94,160.28,7c0,0-16.92,11-17.46,40.26Z"/><path class="cls-1" d="M144,47.21s2.73-17.33,17.74-19.89c0,0-12.68,1.48-16.37,19.78Z"/><path class="cls-1" d="M128.61,47.47s3.67-15.3,11.75-18.7c0,0-6.64,3.49-10.39,18.6Z"/><path class="cls-1" d="M155.41,47.21s3.68-15.3,11.76-18.7c0,0-6.64,3.48-10.39,18.59Z"/><path class="cls-1" d="M165.43,46.77s4-20.87,11.75-26.35c0,0-7,5.75-10.39,26.21Z"/><path class="cls-1" d="M125,47.9S129,27,136.74,21.55c0,0-7,5.74-10.39,26.21Z"/><path class="cls-1" d="M147.19,47.21s4.5-30.42,23.47-30.12c0,0-17.2-.89-22.11,30.12Z"/><path class="cls-1" d="M70.66,48.09S66,19.57,90.54,18.42c0,0-23.38.28-17.58,29.77Z"/><path class="cls-1" d="M73.64,48.19s.68-25.69,19.24-37.94c0,0-16.92,10.39-17.47,37.94Z"/><path class="cls-1" d="M76.64,48.19s2.73-16.33,17.74-18.74c0,0-12.69,1.39-16.38,18.65Z"/><path class="cls-1" d="M61.2,48.43S64.87,34,73,30.82c0,0-6.63,3.28-10.39,17.52Z"/><path class="cls-1" d="M85.81,48.19s3.67-14.42,11.75-17.62c0,0-6.64,3.29-10.39,17.53Z"/><path class="cls-1" d="M161.63,48.19s2.73-16.33,17.74-18.74c0,0-12.7,1.39-16.38,18.65Z"/><path class="cls-1" d="M227.88,48.19s3.67-14.42,11.75-17.62c0,0-6.63,3.29-10.38,17.53Z"/><path class="cls-1" d="M263.2,48.18s2-8,6.27-9.76c0,0-3.54,1.82-5.54,9.71Z"/><path class="cls-1" d="M266.57,48.41s1.46-6,4.7-7.33c0,0-2.65,1.36-4.16,7.29Z"/><path class="cls-1" d="M260.23,48.41s1.46-9.47,4.7-11.57c0,0-2.65,2.15-4.16,11.51Z"/><path class="cls-1" d="M265.18,48.49s1.2-5,3.82-6.1c0,0-2.15,1.13-3.37,6.07Z"/><path class="cls-1" d="M250.08,47.8s3.76-10,12-12.16c0,0-6.81,2.26-10.65,12.09Z"/><path class="cls-1" d="M256.55,48.08s2.83-7.47,9.05-9.13c0,0-5.11,1.7-8,9.09Z"/><path class="cls-1" d="M244.35,48.08s2.82-11.8,9.05-14.42c0,0-5.11,2.69-8,14.35Z"/><path class="cls-1" d="M253.89,48.18s2.3-6.22,7.35-7.6c0,0-4.14,1.42-6.49,7.56Z"/><path class="cls-1" d="M239.3,47.7s3.77-10,12-12.16c0,0-6.8,2.26-10.65,12.09Z"/><path class="cls-1" d="M245.78,48s2.83-7.47,9.05-9.13c0,0-5.11,1.7-8,9.08Z"/><path class="cls-1" d="M233.57,48s2.83-11.8,9.06-14.42c0,0-5.11,2.69-8,14.34Z"/><path class="cls-1" d="M243.12,48.08s2.3-6.22,7.35-7.6c0,0-4.15,1.41-6.5,7.56Z"/><path class="cls-1" d="M196.19,48.19s4.69-18.4,15-22.48c0,0-8.47,4.18-13.26,22.36Z"/><path class="cls-1" d="M221.63,47.8s3.77-10,12.06-12.16c0,0-6.81,2.26-10.66,12.09Z"/><path class="cls-1" d="M215.91,48.08s2.82-11.8,9.05-14.42c0,0-5.11,2.69-8,14.35Z"/><path class="cls-1" d="M210.86,47.7s3.76-10,12.06-12.16c0,0-6.81,2.26-10.66,12.09Z"/><path class="cls-1" d="M217.33,48s2.83-7.47,9.06-9.13c0,0-5.12,1.7-8,9.08Z"/><path class="cls-1" d="M205.13,48s2.83-11.8,9.06-14.42c0,0-5.11,2.69-8,14.34Z"/><path class="cls-1" d="M214.68,48.08s2.29-6.22,7.34-7.6c0,0-4.15,1.41-6.49,7.56Z"/><path class="cls-1" d="M167.5,48.62s5.85-22,18.73-26.88c0,0-10.58,5-16.56,26.73Z"/><path class="cls-1" d="M191.79,47.69S196.6,35,207.18,32.17c0,0-8.69,2.89-13.59,15.44Z"/><path class="cls-1" d="M186.06,48.08s2.83-11.8,9.05-14.42c0,0-5.11,2.69-8,14.35Z"/><path class="cls-1" d="M181,47.7s3.76-10,12.06-12.16c0,0-6.81,2.26-10.66,12.09Z"/><path class="cls-1" d="M187.49,48s2.82-7.47,9-9.13c0,0-5.11,1.7-8,9.08Z"/><path class="cls-1" d="M176.57,48.3s4.51-18,14.43-22c0,0-8.14,4.09-12.75,21.88Z"/><path class="cls-1" d="M184.83,48.08s2.29-6.22,7.35-7.6c0,0-4.15,1.41-6.5,7.56Z"/><path class="cls-1" d="M95.82,47.78s4-19.67,11.76-24.84c0,0-7,5.42-10.4,24.71Z"/><path class="cls-1" d="M56.55,48.75S61.61,29.18,69.33,24c0,0-7,5.41-10.38,24.7Z"/><path class="cls-1" d="M60,49.3s4-19.67,11.75-24.84c0,0-7,5.41-10.39,24.7Z"/><path class="cls-1" d="M79.78,48.19s4.5-28.66,23.47-28.39c0,0-17.19-.83-22.1,28.39Z"/><path class="cls-1" d="M3.55,41.91c0,.35.05.7.05,1.06a20.56,20.56,0,0,1-.31,3.44h.07C7.52,32.17,14.89,28.88,14.89,28.88,9.22,30.9,5.51,37.4,3.55,41.91Z"/><path class="cls-1" d="M41.06,46.5s2.17-8,7-9.77c0,0-3.93,1.82-6.15,9.71Z"/><path class="cls-1" d="M44.79,46.72s1.63-6,5.23-7.33c0,0-3,1.37-4.62,7.29Z"/><path class="cls-1" d="M37.75,46.72S39.38,37.25,43,35.15c0,0-2.95,2.15-4.62,11.51Z"/><path class="cls-1" d="M43.26,46.8s1.32-5,4.24-6.1c0,0-2.39,1.14-3.75,6.07Z"/><path class="cls-1" d="M26.48,46.11s4.18-10,13.39-12.16c0,0-7.56,2.27-11.83,12.1Z"/><path class="cls-1" d="M33.67,46.4s3.14-7.48,10-9.14c0,0-5.67,1.7-8.88,9.09Z"/><path class="cls-1" d="M20.13,46.4S23.26,34.6,30.18,32c0,0-5.68,2.68-8.89,14.34Z"/><path class="cls-1" d="M30.72,46.5s2.55-6.22,8.16-7.6c0,0-4.61,1.41-7.21,7.55Z"/><path class="cls-1" d="M14.52,46s4.18-10,13.39-12.15c0,0-7.56,2.26-11.83,12.09Z"/><path class="cls-1" d="M21.71,46.3s3.14-7.48,10.05-9.14c0,0-5.67,1.7-8.88,9.09Z"/><path class="cls-1" d="M8.16,46.3S11.3,34.49,18.22,31.87c0,0-5.68,2.69-8.89,14.35Z"/><path class="cls-1" d="M18.76,46.39s2.55-6.21,8.16-7.6c0,0-4.61,1.42-7.21,7.56Z"/><path class="cls-1" d="M3.35,36.1c-.21.28-.41.57-.64.84l.09.33A17,17,0,0,1,8.29,34,15.89,15.89,0,0,0,3.35,36.1Z"/><path class="cls-1" d="M6.12,31.24a22.23,22.23,0,0,1-3.41,5.7,21,21,0,0,1,.52,2.22C6.92,28.42,13.11,25.5,15.42,24.77A18,18,0,0,0,6.12,31.24Z"/><path class="cls-1" d="M12.9,47.44S16.27,30,23.69,26.1c0,0-6.09,4-9.53,21.23Z"/><path class="cls-1" d="M22.1,46.94s3.7-23.82,10.79-30.08c0,0-6.43,6.56-9.54,29.92Z"/><path class="cls-1" d="M6.37,47.66S11.5,12.72,28.92,13.05c0,0-15.79-1-20.3,34.39Z"/><path class="cls-1" d="M30.64,46.24S26.39,11.7,48.9,10.3c0,0-21.48.34-16.15,36.06Z"/><path class="cls-1" d="M33.38,46.36S34,15.23,51,.4c0,0-15.53,12.58-16,46Z"/><path class="cls-1" d="M36.13,46.36s2.51-19.78,16.29-22.7c0,0-11.65,1.69-15,22.58Z"/><path class="cls-1" d="M22,46.66s3.37-17.47,10.8-21.34c0,0-6.1,4-9.54,21.23Z"/><path class="cls-1" d="M44.56,46.36S47.92,28.89,55.35,25c0,0-6.1,4-9.54,21.22Z"/><path class="cls-1" d="M53.44,47S57.15,23.22,64.23,17c0,0-6.42,6.55-9.54,29.92Z"/><path class="cls-1" d="M18.63,47.15s3.7-23.82,10.79-30.07c0,0-6.42,6.55-9.53,29.92Z"/><path class="cls-1" d="M39,46.36S43.15,11.64,60.57,12c0,0-15.79-1-20.3,34.38Z"/><path class="cls-1" d="M49,47.64s3.78-18.8,17.57-21.55c0,0-11.66,1.59-15,21.29Z"/><path class="cls-1" d="M105.51,47.43s3.92-52.87,34-25.49c0,0-28.58-27.75-31.72,25.59Z"/><path class="cls-1" d="M108.49,47.53s.69-27.26,19.24-40.26c0,0-16.92,11-17.46,40.26Z"/><path class="cls-1" d="M111.49,47.53s2.73-17.32,17.75-19.88c0,0-12.7,1.48-16.38,19.79Z"/><path class="cls-1" d="M96.06,47.79S99.73,32.5,107.81,29.1c0,0-6.64,3.48-10.39,18.6Z"/><path class="cls-1" d="M120.66,47.53s3.67-15.29,11.75-18.69c0,0-6.63,3.48-10.38,18.6Z"/><path class="cls-1" d="M130.68,47.1s4-20.87,11.75-26.35c0,0-7,5.74-10.39,26.21Z"/><path class="cls-1" d="M91,48.15s5.45-20.79,13.16-26.27c0,0-7,5.74-10.38,26.21Z"/><path class="cls-1" d="M114.63,47.53s4.51-30.41,23.48-30.12c0,0-17.2-.88-22.11,30.12Z"/><path class="cls-1" d="M140,46.49S135.34,16.22,159.86,15c0,0-23.38.31-17.58,31.6Z"/><path class="cls-1" d="M143,46.59s.68-27.27,19.24-40.26c0,0-16.92,11-17.47,40.26Z"/><path class="cls-1" d="M146,46.59s2.73-17.32,17.74-19.88c0,0-12.69,1.47-16.37,19.78Z"/><path class="cls-1" d="M130.52,46.85s3.67-15.3,11.75-18.69c0,0-6.63,3.48-10.38,18.59Z"/><path class="cls-1" d="M157.33,46.59S161,31.29,169.08,27.9c0,0-6.63,3.48-10.38,18.59Z"/><path class="cls-1" d="M167.34,46.15s4-20.86,11.76-26.34c0,0-7,5.74-10.39,26.2Z"/><path class="cls-1" d="M126.9,47.29s4-20.87,11.75-26.35c0,0-7,5.74-10.38,26.21Z"/><path class="cls-1" d="M149.1,46.59s4.51-30.41,23.47-30.12c0,0-17.19-.89-22.11,30.12Z"/><path class="cls-1" d="M72.57,47.48S67.94,19,92.46,17.8c0,0-23.39.29-17.58,29.77Z"/><path class="cls-1" d="M75.55,47.57s.69-25.69,19.24-37.94c0,0-16.92,10.39-17.46,37.94Z"/><path class="cls-1" d="M78.56,47.57S81.29,31.25,96.3,28.84c0,0-12.7,1.39-16.38,18.64Z"/><path class="cls-1" d="M63.12,47.82S66.79,33.41,74.87,30.2c0,0-6.64,3.28-10.39,17.53Z"/><path class="cls-1" d="M87.72,47.57S91.39,33.15,99.48,30c0,0-6.64,3.28-10.39,17.52Z"/><path class="cls-1" d="M163.54,47.57s2.73-16.32,17.75-18.73c0,0-12.7,1.39-16.38,18.64Z"/><path class="cls-1" d="M229.8,47.57S233.47,33.15,241.55,30c0,0-6.64,3.28-10.39,17.52Z"/><path class="cls-1" d="M265.12,47.57s1.95-8,6.26-9.77c0,0-3.53,1.82-5.53,9.71Z"/><path class="cls-1" d="M268.48,47.79s1.47-6,4.71-7.32c0,0-2.66,1.36-4.16,7.29Z"/><path class="cls-1" d="M262.14,47.79s1.47-9.47,4.71-11.57c0,0-2.66,2.16-4.16,11.51Z"/><path class="cls-1" d="M267.1,47.87s1.19-5,3.82-6.1c0,0-2.15,1.14-3.37,6.07Z"/><path class="cls-1" d="M252,47.18S255.75,37.23,264,35c0,0-6.8,2.26-10.65,12.1Z"/><path class="cls-1" d="M258.47,47.47s2.82-7.48,9-9.14c0,0-5.11,1.71-8,9.09Z"/><path class="cls-1" d="M246.26,47.47s2.83-11.8,9.06-14.42c0,0-5.12,2.68-8,14.34Z"/><path class="cls-1" d="M255.81,47.57s2.29-6.22,7.35-7.6c0,0-4.15,1.41-6.5,7.56Z"/><path class="cls-1" d="M241.21,47.08s3.77-9.95,12.06-12.16c0,0-6.8,2.26-10.65,12.09Z"/><path class="cls-1" d="M247.69,47.37s2.84-7.48,9.06-9.14c0,0-5.12,1.71-8,9.09Z"/><path class="cls-1" d="M235.49,47.37s2.83-11.8,9.06-14.43c0,0-5.12,2.69-8,14.35Z"/><path class="cls-1" d="M245,47.46s2.29-6.21,7.34-7.59c0,0-4.15,1.41-6.49,7.55Z"/><path class="cls-1" d="M198.11,47.57s4.68-18.4,15-22.47c0,0-8.47,4.18-13.26,22.36Z"/><path class="cls-1" d="M223.54,47.18s3.77-10,12.06-12.16c0,0-6.81,2.26-10.65,12.1Z"/><path class="cls-1" d="M217.82,47.47s2.83-11.8,9.06-14.42c0,0-5.11,2.68-8,14.34Z"/><path class="cls-1" d="M212.78,47.08s3.76-9.95,12.05-12.16c0,0-6.81,2.26-10.65,12.09Z"/><path class="cls-1" d="M219.25,47.37s2.82-7.48,9.05-9.14c0,0-5.11,1.71-8,9.09Z"/><path class="cls-1" d="M207.05,47.37s2.82-11.8,9.06-14.43c0,0-5.12,2.69-8,14.35Z"/><path class="cls-1" d="M216.59,47.46s2.3-6.21,7.35-7.59c0,0-4.15,1.41-6.5,7.55Z"/><path class="cls-1" d="M169.42,48s5.84-22,18.72-26.87c0,0-10.57,5-16.55,26.73Z"/><path class="cls-1" d="M193.71,47.07s4.8-12.7,15.39-15.51c0,0-8.69,2.88-13.6,15.43Z"/><path class="cls-1" d="M188,47.47s2.82-11.8,9.05-14.42c0,0-5.11,2.68-8,14.34Z"/><path class="cls-1" d="M182.93,47.08s3.76-9.95,12.06-12.16c0,0-6.81,2.26-10.66,12.09Z"/><path class="cls-1" d="M189.4,47.37s2.83-7.48,9-9.14c0,0-5.11,1.71-8,9.09Z"/><path class="cls-1" d="M178.49,47.69s4.51-18,14.43-22c0,0-8.15,4.1-12.76,21.89Z"/><path class="cls-1" d="M186.75,47.46s2.29-6.21,7.35-7.59c0,0-4.16,1.41-6.5,7.55Z"/><path class="cls-1" d="M97.73,47.17s4-19.67,11.76-24.84c0,0-7,5.42-10.39,24.7Z"/><path class="cls-1" d="M58.47,48.14s5.06-19.58,12.78-24.75c0,0-7,5.42-10.38,24.71Z"/><path class="cls-1" d="M61.93,48.68S66,29,73.68,23.84c0,0-7,5.42-10.38,24.71Z"/><path class="cls-1" d="M81.69,47.57s4.51-28.66,23.48-28.38c0,0-17.2-.83-22.11,28.38Z"/><path class="cls-1" d="M237.53,46.91s-3.86-19.86-19.16-22.78c0,0,12.94,1.69,16.7,22.58Z"/><path class="cls-1" d="M247.25,47.33s-3.74-17.47-12-21.34c0,0,6.76,4,10.58,21.23Z"/><path class="cls-1" d="M222.17,47s-3.74-17.46-12-21.34c0,0,6.76,4,10.58,21.23Z"/><path class="cls-1" d="M212,46.53s-4.11-23.82-12-30.07c0,0,7.14,6.55,10.6,29.92Z"/><path class="cls-1" d="M250.42,47.15S245,15.61,234.55,7.33c0,0,9.45,8.68,14,39.61Z"/><path class="cls-1" d="M229.42,47.25s-5.7-34.94-25-34.6c0,0,17.53-1,22.54,34.38Z"/><path class="cls-1" d="M202.47,45.83s4.73-34.54-20.28-35.94c0,0,23.86.35,17.94,36.06Z"/><path class="cls-1" d="M199.43,46S198.74,14.83,179.81,0c0,0,17.26,12.59,17.81,46Z"/><path class="cls-1" d="M196.37,46s-2.78-19.77-18.09-22.69c0,0,12.94,1.68,16.7,22.58Z"/><path class="cls-1" d="M212.11,46.25s-3.74-17.46-12-21.33c0,0,6.76,4,10.58,21.22Z"/><path class="cls-1" d="M187,46s-3.75-17.46-12-21.33c0,0,6.77,4,10.6,21.22Z"/><path class="cls-1" d="M177.15,46.63s-4.1-23.82-12-30.08c0,0,7.14,6.56,10.59,29.92Z"/><path class="cls-1" d="M215.81,46.75s-4.11-23.82-12-30.08c0,0,7.14,6.55,10.59,29.92Z"/><path class="cls-1" d="M193.17,46s-4.59-34.71-23.93-34.37c0,0,17.53-1,22.54,34.37Z"/><path class="cls-1" d="M269.16,46.16S264,21,245.21,17.85c0,0,16.29,2.47,21.26,28.54Z"/><path class="cls-1" d="M256.78,46.16s-4.95-21.79-15.87-26.62c0,0,9.44,5.28,12.57,26.41Z"/><path class="cls-1" d="M182.12,47.24s-4.22-18.8-19.52-21.55c0,0,13,1.59,16.7,21.28Z"/><path class="cls-1" d="M244.7,46.61s-4.12-22.45-12-28.34c0,0,6.78,6.46,10.23,28.48Z"/><path class="cls-1" d="M264.92,46.16S257.1,3.72,233.23,3.26c0,0,22.13-1.25,28.76,42.91Z"/><path class="cls-1" d="M119.34,47S115-5.84,81.56,21.54c0,0,31.74-27.75,35.23,25.59Z"/><path class="cls-1" d="M260.72,48.37S256.36-4.5,222.93,22.88c0,0,31.75-27.75,35.23,25.6Z"/><path class="cls-1" d="M116,47.13s-.75-27.27-21.36-40.26c0,0,18.79,11,19.39,40.26Z"/><path class="cls-1" d="M112.7,47.13s-3-17.32-19.7-19.88c0,0,14.09,1.47,18.19,19.78Z"/><path class="cls-1" d="M129.84,47.39s-4.07-15.3-13-18.69c0,0,7.36,3.48,11.53,18.6Z"/><path class="cls-1" d="M102.52,47.13s-4.07-15.3-13-18.69c0,0,7.37,3.48,11.53,18.59Z"/><path class="cls-1" d="M91.4,46.7S86.93,25.83,78.35,20.34c0,0,7.78,5.75,11.54,26.21Z"/><path class="cls-1" d="M135.44,47.75S129.39,27,120.82,21.48c0,0,7.76,5.74,11.53,26.21Z"/><path class="cls-1" d="M109.21,47.13s-5-30.41-26.06-30.12c0,0,19.09-.88,24.55,30.12Z"/><path class="cls-1" d="M81.07,46.09S86.22,15.82,59,14.59c0,0,26,.31,19.53,31.6Z"/><path class="cls-1" d="M77.76,46.19S77,18.92,56.4,5.93c0,0,18.79,11,19.39,40.26Z"/><path class="cls-1" d="M74.43,46.19s-3-17.33-19.69-19.89c0,0,14.09,1.48,18.17,19.79Z"/><path class="cls-1" d="M91.58,46.45s-4.08-15.3-13-18.7c0,0,7.36,3.48,11.53,18.6Z"/><path class="cls-1" d="M61.8,46.19s-4.07-15.3-13-18.7c0,0,7.37,3.49,11.53,18.6Z"/><path class="cls-1" d="M50.69,45.75s-4.48-20.87-13-26.35c0,0,7.77,5.75,11.53,26.21Z"/><path class="cls-1" d="M95.59,46.88S91.12,26,82.55,20.53c0,0,7.77,5.74,11.53,26.21Z"/><path class="cls-1" d="M70.94,46.19s-5-30.41-26-30.12c0,0,19.09-.89,24.54,30.12Z"/><path class="cls-1" d="M155.92,47.07s5.14-28.52-22.09-29.67c0,0,26,.28,19.53,29.77Z"/><path class="cls-1" d="M152.61,47.17s-.77-25.69-21.37-37.94c0,0,18.79,10.39,19.4,37.94Z"/><path class="cls-1" d="M149.27,47.17s-3-16.33-19.69-18.74c0,0,14.09,1.39,18.17,18.65Z"/><path class="cls-1" d="M166.41,47.42s-4.07-14.42-13-17.62c0,0,7.36,3.29,11.53,17.53Z"/><path class="cls-1" d="M139.09,47.17S135,32.75,126,29.55c0,0,7.37,3.28,11.54,17.53Z"/><path class="cls-1" d="M54.91,47.17s-3-16.33-19.7-18.74c0,0,14.09,1.39,18.18,18.65Z"/><path class="cls-1" d="M6.79,29.38c-.11.36-.25.71-.37,1.06,2.75,3.42,5.85,8.67,8.17,16.61l1.94.12S13.44,36.26,6.79,29.38Z"/><path class="cls-1" d="M3.21,39a20.83,20.83,0,0,1,.32,2.5,40.25,40.25,0,0,1,1.91,5.4L6.6,47A36.13,36.13,0,0,0,3.21,39Z"/><path class="cls-1" d="M48.39,47.6S41.9,25.6,27.6,20.72c0,0,11.74,5,18.37,26.74Z"/><path class="cls-1" d="M6,31.64l-.08.15c3,1.38,9.44,5.35,13.53,14.8l2,.08S16.56,35.18,6,31.64Z"/><path class="cls-1" d="M27.78,47.07s-3.14-11.81-10-14.42c0,0,5.68,2.68,8.89,14.34Z"/><path class="cls-1" d="M33.39,46.67S29.21,36.72,20,34.52c0,0,7.56,2.25,11.83,12.09Z"/><path class="cls-1" d="M26.2,47s-3.15-7.47-10.06-9.13c0,0,5.68,1.7,8.89,9.08Z"/><path class="cls-1" d="M38.31,47.29s-5-18-16-22c0,0,9.05,4.1,14.17,21.89Z"/><path class="cls-1" d="M29.15,47.06S26.6,40.84,21,39.46c0,0,4.6,1.42,7.21,7.56Z"/><path class="cls-1" d="M128,46.76s-4.47-19.67-13-24.83c0,0,7.77,5.41,11.53,24.7Z"/><path class="cls-1" d="M171.58,47.73S166,28.16,157.39,23c0,0,7.77,5.41,11.53,24.69Z"/><path class="cls-1" d="M167.73,48.27s-4.48-19.66-13-24.83c0,0,7.77,5.41,11.53,24.7Z"/><path class="cls-1" d="M145.79,47.17s-5-28.66-26.07-28.38c0,0,19.09-.84,24.55,28.38Z"/><path class="cls-1" d="M6.28,30.81c-.22.57-.47,1.14-.74,1.69a53.91,53.91,0,0,1,4.65,15l2.41-.23A55.14,55.14,0,0,0,6.28,30.81Z"/><path class="cls-1" d="M5.22,33.16A23.84,23.84,0,0,1,4,35.29c.85,3.56,1.59,7.52,2.19,12H8.79A110.85,110.85,0,0,0,5.22,33.16Z"/><path class="cls-1" d="M3.49,45.15A21.69,21.69,0,0,1,0,54.82H269.5V45.15Z"/></g></g></svg>