<svg xmlns="http://www.w3.org/2000/svg" viewBox="0 0 1097.48 278.11"><defs><style>.cls-1{fill:#d1d1d1;fill-rule:evenodd;}</style></defs><title>Ресурс 7</title><g id="Слой_2" data-name="Слой 2"><g id="Layer_3" data-name="Layer 3"><path class="cls-1" d="M1097.48,54.72c-.67,0-1.35.06-2,0-8.07-.24-15.46-3.53-23.51-4.14-16.33,5.2-39.83,3.83-54.26,10.77-6.87-2-13.66-4-23.51-3.31-2-2.3-7.1-1.79-10.85-2.49a30.47,30.47,0,0,0-10-3.31c-10.59-1.61-22.94.34-33.46-1.66-4.66-.88-8.2-3-12.65-4.14s-9.7-1.6-13.57-3.31C900,42.69,890,40.33,876.58,41.51c-1.77-2.24-7.7-.68-9.94-2.48-6.64.26-14.23-.41-22.61,0-10.65.51-24.34-.69-32.57,2.48-2.72,1.05-8.78,4.33-13.56,5-8.78,3.27-16.06,7.93-28,8.28-2.55,1.52-3.76,4.28-8.13,4.14-9.7,4.92-20.88,7.41-32.56,9.95-11.41,2.46-23.72,5.78-37.08,5.79-2.85,2.24-5.53,1.44-8.14,2.49-5.73-.13-12.71,4.74-19,5-4.15.15-8.65-2-13.56-2.49-5.12-.49-10.6.34-15.37,0-2.52-.18-4-1.42-6.33-1.65-5.6-.58-12.91,2.52-19.9,2.49-4.5,0-7.87-1.85-12.67-1.67-1.76.07-2.51.87-3.61.83-10-.39-19.81-3.63-29.84,0-2.71-.35-4.37-.76-6.33-.83s-2.12-.07-4.52.83c-5.59,1.44-11.52,1.63-18.09,3.31-1.61.42-3.06,1.47-4.52,1.66-5.44.72-11.26.33-17.18.83q-15.61,1.34-32.56,1.66c-8.35.14-14.83-1.07-22.61,0-2.27.3-3.41,1.16-5.43,1.65-1.12.27-2.51-.31-3.61,0-1.54.43-3.74,2.61-7.24,2.49-4.41-.16-9.62-3.81-14.47-5.8-5.19-2.13-10.6-4.41-15.37-5-6.75-.81-13.69,2.06-20.8,1.65-4.9-.28-9.28-2.71-14.47-3.32-8.3-1-17.48-.32-25.32-.82-1.88-.12-2.35-.72-3.62-.83a9.94,9.94,0,0,0-3.62.83c-11-.51-20-2.56-29.84-5-7.33-1.8-14.8-1.65-21.7-4.14-.44-.16-.57-1.53-.91-1.66-5-2-13.83-.27-18.09-5-9.22,2.4-18.89.87-28,0-4.3-.41-9.08-1.09-13.57-1.66-1.94-.25-4.25-1.42-6.33-1.66-2.59-.29-5.16.46-7.23,0-3.64-.78-6.29-2.89-9.95-4.14-11.48-3.91-27.18-4.48-38.89-9.11-2.93-1.15-5.8-3-9.94-4.14-1.71-.46-3.66-.3-5.43-.82s-2.75-2-4.52-2.49c-5.43-1.37-11.84-.38-15.38-5-10.36-1.83-17.23-6.85-30.74-5.79-3.08-.69-6-2.65-9-3.32-1.88-.41-4.44.33-6.34,0-1.59-.28-3.07-1.36-4.52-1.66-3.65-.73-7.27-.64-10.85-1.65-1.28-.37-2.35-2.06-3.62-2.49-1.43-.48-3.28-.47-4.52-.83-11-3.2-22.34-5.51-32.55-9.93-.88-.39-2.71-1.38-3.62-1.67-3.46-1.06-7.1-1-10.86-1.65C12.62,3.36,7.76.83,3,.1a14.22,14.22,0,0,0-3,0V278.11H1097.48Z"/></g></g></svg>