<svg xmlns="http://www.w3.org/2000/svg" viewBox="0 0 1100.62 466.25"><defs><style>.cls-1{fill:#a6a6a6;fill-rule:evenodd;}</style></defs><title>Ресурс 5</title><g id="Слой_2" data-name="Слой 2"><g id="Layer_3" data-name="Layer 3"><path class="cls-1" d="M1095.29,348.64l-51.5-19.52c-15.77-6-32.3-14.38-49.39-15.26-8.26-.43-16.06,1.93-23.88,4.24a150.58,150.58,0,0,1-26.71,5.07c-18.27,1.95-36.71,3.33-55,5-.64.05-1,.11-2,.17V296.25h31v-5h0v-9h-30v-6h-2v-15h-1v-4h-3v4h0v-16h-1v16h-1.09a8.65,8.65,0,0,0,.35-1.48,2.65,2.65,0,0,0-2.55-2.66,2.69,2.69,0,0,0-2.56,2.71c0,.47.13.43.35,1.43h-1.5v15h-3v-11h0v-11H857.44c0-1,.07-1.26.07-2.08a.3.3,0,0,1-.23-.17c.33-.12.08-.65.12-.92,0,0,.15-.12.17-.2.06-.27-.13-.62,0-.94-.23-.12-.21-.36-.11-.58-.08-.14-.18.1-.24-.06a.19.19,0,0,0,.12-.35c.07,0,.16,0,.17-.06-.11-.73.2-1.71-.29-2.08.09,0,.22,0,.24-.06a10.68,10.68,0,0,0,0-2.19c-.09,0-.1-.07-.18,0a3.38,3.38,0,0,0,.18-2.19c-.16-.05-.12.11-.24.11,0-.24.28-.11.24-.35s-.18.11-.24,0c.63-.53.16-1.46.41-2-.39-.09.09-.4-.41-.41,0-.32.25,0,.24-.23s-.33.06-.24-.17c.11,0,.34.07.35-.06,0-.73,0-1,0-1.73-.07,0-.16,0-.17-.06.37-.13-.28-.26-.06-.4,0,.13.16.13.17,0a1,1,0,0,1,.12-.93h.08a1,1,0,0,1-.21-.25,1.45,1.45,0,0,1-.11-.58h19.32a26.58,26.58,0,0,0,.26,4.62,40.51,40.51,0,0,1,0-4.62h2.13a20.65,20.65,0,0,1-.41,4.62,18.22,18.22,0,0,0,.63-4.62h7.49v-1h-7.71s0-.28-.07-.34a2.43,2.43,0,0,1,.1-.62s-.05,0-.08-.06c-.32-.07-.63-.19-1-.26l-.2,0h-.09v-.27c0,.07-.25.22-.22.4,0,0,.08.19.11.19h-.1c-.08,0-.16-.16-.23-.16s.08,0,0,.12l-.38-.06a.17.17,0,0,1,0-.18.26.26,0,0,0,.16,0h-.3a.66.66,0,0,0,0,.15l-16.71-1,17.56.2,6.35-.12.52.52.29.12.36-.64.53-.11v-.35l-.36-.11-1.27-1.74-12-.21c-.43-.17-.84-.35-1.25-.54-.16.09.1.24-.06.29a.29.29,0,0,1,0-.34,7.92,7.92,0,0,0-1.16-.41c-.1.19.29.21,0,.23-.14.19,0-.36-.05-.29-1.08-.4-2-.91-3.18-1.27-.05.19.15.12.18.23-.29.06-.24-.19-.18-.34-.42-.08-.68-.32-1.09-.41,0,.19.09.24,0,.33l.2.08c-.08.11.5.31.63.23.06.19.09,0,.12.17a42.89,42.89,0,0,1,4.78,2l-12.4-.23.06.41-.76,1.09-.63-.24c-.19-2.15-.65-4.73-.93-7,.21-.31.61-.06.64-.23.16.09.34.19.55.29a.38.38,0,0,1,0-.41c-.34,0-.5-.27-.87-.29-.06.15.18.25-.05.23-.19-.4-.95-.07-1.27-.06,0,.09.08.15.11.24-.18,0-.08-.19-.23-.18-.3.4-1.13.56-1.1,1.1-.14,0-.12-.11-.29-.06-.74.64-1.56,1.2-2.36,1.79-.07.18.09.14.11.23-.47-.23-1.06.29-1,.75-.63-.15-1.11.65-1.67.93,0,.11.26,0,.17.23s-.12-.15-.23-.17c-.34.22-.82.46-.86.8,0,0,0-.11-.06-.11s.06.13.06.23c-.22.06-.19-.12-.29-.17-.22.29-.68.34-.78.74l-.24.13h0c-.21.11-.36.22-.51.31l0,0a1,1,0,0,1-.56.13c-.42,0-.73-.37-1.1-.34s-.64.5-1,.75l-.28,0a1.92,1.92,0,0,1-.06-.85c-.39.2-.45-.17-.6-.35-.2.13-.71,0-.71.06v.35c0,.07-.08,0-.21.06a2.81,2.81,0,0,1,.12.92l.27.92,1.39,0h0v.16l5.37.35h4.48s-.07.14-.07.18a9.86,9.86,0,0,0-.17,1.82h-8.36c.19,0,.46-.33.54-.58-.09,0-.1-.16-.18-.18-.09.37-.55.29-.92.25,0-.44.13-.46.23-.71-.2.06-.14-.44-.06-.47.2.32.19.84.64.92a8.73,8.73,0,0,0-.7-1.28c0,.11.08.35-.11.29,0-.12-.07-.38.06-.4.53,0,1.93,0,2.31,0-.09-.07-3.1-.2-4.28-.23.11.21-.14.41-.17.19v1.86a11.78,11.78,0,0,1,1.68,0c0-.24,0-.58,0-.89s0-1,.06-.46a7.26,7.26,0,0,1,.06,1.5c.12,0,.23.2.35.2h-3.35v1H854c.16,0,.26,1,.24,1h0c.14,0,0,.82.12,1.18-.07,0-.17,0-.18,0a4.92,4.92,0,0,1,0,1.77h.18a6.8,6.8,0,0,0,0,3.21c-.07,0-.17,0-.18,0a5.9,5.9,0,0,1,0,1.78c.07,0,.17,0,.18.05a2.24,2.24,0,0,0,0,.93c-.07,0-.17,0-.18.05,0,.85.16,1.35.18,2.14-.07,0-.17,0-.18.06a3.94,3.94,0,0,1,0,1.74h.18c-.27,2,.05,3-.1,5H833.86c0-3,.27-8.09.06-8.15a5.07,5.07,0,0,0,1.56-1.43c-.62-.13-1.16-.24-1.58.1,0-5.9,0-11.82-.08-17.72,0-2.89,0-5.81,0-8.7,0-1.39,0-2.8,0-4.19s2-1,3.27-1.2c1-.12,2.26-.59,2.46-1.58.33-1.61.48-1.59,2.17-1.89q4.62-.8,9.25-1.51c6.15-1,12.31-1.87,18.46-2.84,12.8-2,25.62-3.91,38.43-5.9,6.29-1,12.57-2,18.86-3.08l9.43-1.55c2.88-.47,6-1.34,8.89-1.23-.25.22-.72.73-.25,1.07.55.08.79-.17.73-.64a1.91,1.91,0,0,0,.58-.31c.62.24-.58,2,.49,2.48-.48,1.11-1.37,2.72-1.33,3.86s1-.12,1.15.67a5.26,5.26,0,0,1,.17,1.62,28.4,28.4,0,0,0,0,3.69l.36,0h.18a18.82,18.82,0,0,0-.35-4.23c.49-.28,0-1.11.4-1.43.94,0,1.24-.38.87-1.38a1.19,1.19,0,0,0-.56-.4,7,7,0,0,0-.33-1.37c-.21-.68.22-1.84-.22-2.21s0-1.38.54-1.48a2.12,2.12,0,0,0,.1.82c1.2.41.7-.92.77-1.48.46-.13.67.17,1,.35a.38.38,0,0,1-.31.1c.49.19,1.16-.18,1.59,0,0-1,.18-.37.61-1,0-.27-1.1-.79-1.33-1-.14.13.12.05,0,.26a5.52,5.52,0,0,1-.72,0c0,.15-.41.18-.51.08a1.09,1.09,0,0,1,.31-.08c-.69,0-1.5,0-1.43.13-.14.05.1.12.15.16a.87.87,0,0,1-.46.1c-.07,0,0-.34.2-.26a4.24,4.24,0,0,0-.66-.2c.17.08,0,.15.05.36-.79.22-1.15-.29-1.48-.69a7.92,7.92,0,0,1,1.38.24h-.15a6.82,6.82,0,0,0,1,.12,22.65,22.65,0,0,1-3.55-1c-.62-.32-2.1.33-2.81.44q-4.07.66-8.13,1.35c-4.74.79-9.32,1.49-14.11,2.26-9.12,1.44-18.35,3.43-27.64,3.43-4.39,0-8.84,0-13.18.23-4.13.18-8.52-.29-12.56.26-2.66.35-5.56,0-8.25.13-2.38.08-4.77,0-7.16,0-2.57,0-5.13,0-7.7.08a11.83,11.83,0,0,1-2.79-.08,1.3,1.3,0,0,1-.31-.31,3.84,3.84,0,0,1-1.28.41c-.14,0,.13-.19,0-.2s-.4.15-.87-.1c-.16.06.07.25-.05.3-.45.13-.47-.18-.66-.3a.29.29,0,0,0,0,.25c-.44-.06-1.16.18-1.23-.25-.12,0,0,.22,0,.25-.82,0-2.9.34-3.58-.36.2.41-.32.36-.5.51-.12,0,0-.31-.21-.25.17.72-.61.66-.81.71,0,.2.07.24-.05.36a1.77,1.77,0,0,1-.31-.15c.24.75-.89.43-1,.46-.19.82-1.45,1.06-2.33,1.46a24.87,24.87,0,0,0-2.36,1.71c-2.74,1.58-5.28,3.65-7.86,5.48l-2.21,1.55c-.93,0-1,0-1.2.71-.06.2-2.13.05-2.63.12-.8.12-1.6.24-2.39.39,0,.49,0,1,0,1.48a2.42,2.42,0,0,1-.44,1.33c.14.4.41.4.35,1.14,0,.34-.11.92.21,1.18.61.48.44.87,1.47,1.14a9.26,9.26,0,0,0,3.52,0c.87-.66.34-2.44.53-3.36.82-.07.23,1.57.43,1.89.36.08.19-1.17.19-1.25,0-1,1.16-.69,1.93-.8l4.7-.66c3.11-.45,6.21-.93,9.31-1.42-1.12,1.36-.18,5.65-.16,7.35,0,2.73,0,5.46,0,8.2,0,5.21.11,10.42,0,15.63-.55-.62-1.3.2-1.73.51.92.47,1.63.23,1.66,1.32,0,.79,0,1.58,0,2.37,0,2,0,4.2,0,6.19v.72h-7.15v-11H810.83c3.13,0,6.56-1.7,9.79-4.06,0,0,.06,0,.08,0a.4.4,0,0,0,.17-.14l0,0h0a.42.42,0,0,0,0-.33,36.1,36.1,0,0,0-6.64-9.22l-.07-.06,5.83-6.53-.79-.7-5.82,6.52C809,225,803,224.94,803,224.93a.39.39,0,0,0-.26.09.24.24,0,0,0,0-.08c-3.26,6.44-3.26,12.94.56,16.33a7.18,7.18,0,0,0,4.75,2H797.74l-1.32-16h1.35v-1h-1.4l-5.06-61.66,1.24-.09-1.37-.4-.41-3.94v-1.62l0,0-2.37-29.41a.51.51,0,0,0,.41-.34c.13-.44-2.58-1.33-2.58-1.33l-.41-1.55-2-.7s.12-1.61-.31-1.61a6.76,6.76,0,0,1-1.66-.65l-.14-1.84-2.69.14-.33,2.26-1.89.14v1.13l-2.35.28,0,1.51s-1.71.24-2.16.79c-.06.07,0,.17.08.3l-1.47,18h-.06l.06,0-1.45,17.68-1.62.2,1.56.37-5.11,62.29H763l.14,1h1.05l-1.32,16H738.77v-5h14v-2h-78v2h14v5h-31v9.35l21.91,1.1L693,267.31l.61,17.29-11.87.23v-1.58H681v-.5l-.5-.06-.5-2.26a8.83,8.83,0,0,1,.08-2.51c.26-.5-.33-1.08-.74-1.25s-15.4-10.32-15.4-10.32-.42-.34-.42-.58-.66-.59-.66-.59c-1.17-.33-27.8-17.81-27.8-17.81l-.41-.83c-.25-.5-1.17,0-1.67,0s-.58.67-.58.67-.17,1.41.25,1.66.75-.17,1.5.59,3.91,6.32,5.16,8,10.4,12.9,12.81,15.4c2,2.1,8.9,9.92,11,12.34l-8.23.16,8.87,4.76v2.15h3.55l6.45,3.23V337c-1-.09-2.67-.18-4-.29-18.23-1.4-36.51-3-54.78-3.75l-2.21-.07V299.35c1-.08,1.16-.67,1.77-1.15a4,4,0,0,1,.19-2.16l-.54-.16,0-3.35.23,0c-.06-2.15-.13-4.3-.19-6.45-1.35-7.57-3.24-14.46-6.75-19.86l-1.44-1.9a26.48,26.48,0,0,0-4.65-5.34,4.66,4.66,0,0,0-2.73-1.18,25.86,25.86,0,0,0-2.75.82l.66,3.44c.62,2.84.92,6,2,8.39l-44.67,21.72a5.66,5.66,0,0,0,.56,1.51l1.44,3.73a4.26,4.26,0,0,0,.92,1.84,5,5,0,0,1-.52,2.85l-4.13.33a4.26,4.26,0,0,1-.17,3.31l-.23.23,1-.13c-.07,1.23-.13,2.46-.2,3.7l-.39.23a4.49,4.49,0,0,0,.52,2.55c-.26.18-.67.35-.93.53a11.07,11.07,0,0,1,0,1.41v0h-1s0-.53-.06-.81c-2.94,0-5.88,0-8.82-.05L528,330.54c.07.93.13,1.86.2,2.79L531,334a1.56,1.56,0,0,1,.12.78c-8.21.12-16.43,0-24.65-.49-11.95-.75-23.84-2.14-35.73-3.6l-1.19-14.42h1.25v-1h-1.33l-7.28-89,1.79-.29-1.78-.66-.4-5.75V217.2l-.27,0-3.5-42.3a.69.69,0,0,0,.54-.5c.2-.64-3.72-1.9-3.72-1.9l-.62-2.24-2.84-1s.16-2.31-.45-2.31a9.73,9.73,0,0,1-2.4-.94l-.2-2.64-3.86.2-.22,3.25-2.46.21v1.62l-3.64.41-.08,2.16s-2.53.35-3.17,1.14c-.08.1-.06.25.08.43l-2.13,26h-.09l.08,0-2.09,25.44-2.33.29,2.25.85-7.36,89.94h-1.8l.21,1h1.51l-.89,10.81c-22.72,0-45.23,2.41-68,5.69-.37-1.23-.75-2.29-1.12-3.52-5.25-4.72-10.5-10-15.75-14H326.19c0-9-1.42-19.71.58-27.27v-.16c0-.37-.82-.74-1.24-1.11a4.73,4.73,0,0,1-4.44,2.11c0-1.59-.09-3.57-.15-4.57h1.28c-.48-4-1-7.31-1.43-10.86-23.27-9.75-46.55-19.6-69.82-29.36-2-7.39.67-13.52-3.49-19.13-9-.13-8.68,3.72-11.93,9a64.83,64.83,0,0,0-7.48,19.55q-1.26,10.89-2.54,21.78c.58.1,1.17.08,1.75.18.11,1.65.21,3.8.32,4.8h-1.11c-.14,3-1.37,4.38-.8,6.33.64.16,1.27.38,1.91.54q-.42,25.63-.84,51.31c-12.17-1.46-24.31-3.05-36.53-4.05-18.22-1.48-36.51-1.77-54.79-1.46-.81,0-1.62.24-2.44.26l-2.79-33.93h2.56v-2h-2.72L115.81,123.08l3.49-.58-3.62-1.28L114.77,110v-4.56l-.39-.07-6.77-82.76a1.42,1.42,0,0,0,1.09-1c.38-1.24-7.28-3.72-7.28-3.72l-1.19-4.38-5.57-2S95,7,93.79,7,89.1,5.16,89.1,5.16L88.7,0,81.15.39l-1,6.36-5.38.4v3.18l-6.54.8.12,4.22s-4.8.69-6.06,2.23c-.16.21,0,.49.24.85L58.39,69.19l-.15,0,.15.07-4.07,49.77-4.56.57,4.4,1.66-14.39,176H36.25l.39,2h3L36.27,339.8c-2.68.38-5.35.69-8,1.15A230.16,230.16,0,0,0,3,346.71a4.2,4.2,0,0,0-3,4.12c.12,14.86.77,29.45,1.77,44.24v71.18h1096V376s-1.12.14-2.52.28c1.74-6.28,3.39-12.56,5.12-18.85C1101.46,353.44,1098.91,350,1095.29,348.64ZM898.61,291.59H898v-.83h.6Zm.16-1.34h-1v-2h1Zm0-3h-1v-2h1Zm14-5h4v3h-4Zm0,3h4v2h-4Zm0,3h4v2h-4Zm0,3h0Zm-4-9h4v3h-4Zm0,3h4v2h-4Zm0,3h4v2h-4Zm0,3h0Zm-5-9h4v3h-4Zm0,3h4v2h-4Zm0,3h4v2h-4Zm0,3h0Zm-5-9h4v3h-4Zm0,3h4v2h-4Zm0,3h4v2h-4Zm0,3h0Zm-4-9h4v3h-1v-2h-3Zm-5,0h4v1h-4Zm-1.69.37h1.32v.88h-1.32Zm-10.69-49.25-.06.06a0,0,0,0,0,0,0S877.37,233.39,877.39,233.37Zm.7-.13.21,0a.55.55,0,0,1,.17.11s-.05,0-.05,0h.09a1.79,1.79,0,0,1,.3.55H877.2l.06-.09C877.43,233.72,877.75,233.29,878.09,233.24Zm-1.11,0s0,0,0,0,0,0,0,0h.11a.18.18,0,0,0-.07.22c0,.06.06.09.14.11a2.61,2.61,0,0,0-.14.32c-.05.07-.1.4-.14.4H859.66c0-1,.44-1.35.11-1.67,0,0,0,0,0,0s-.11-.31-.15-.31h0l.3.08S874.39,233.35,877,233.21Zm7.67-1.53-2.37.06,1.22-1.27Zm-1.85-1.21-1.38,1.16-1.16-1.27Zm-3.17-.22,1,1.27-1.21.22-.18-.37-1.27,0,1-1.08Zm-1.21-.07-1.16,1.33-.75.12-1.21-1.51Zm-3.59.23,1,1.27-3-.11,1.16-1.21Zm-1.27-.16-1.09,1h-.87l-.92-1Zm-4.44,0h1l.69,1.15-2.77.09Zm-3.93.05.75,1.15-2.94,0,1.15-1.16Zm-1.38-.31-1.22,1.26h-1l-1-1.35Zm-4.85.08,1.15.11.92,1.27-1.5,0-1.15-.58Zm-1.22,2.3a10,10,0,0,1,1.62.35c0-.28.08.66,0,1-.14,0-.13-.1-.29,0a1.7,1.7,0,0,1-.1.32h-.47a1.55,1.55,0,0,1,.11-.67,1.28,1.28,0,0,1-1-.17C857.82,232.79,857.91,232.7,857.74,232.37Zm-12.47-1.9-1.68.05a1.22,1.22,0,0,1,1.8-.34,2.67,2.67,0,0,0,.4,0ZM950,192.36c.35,0,.46-.28.46.3A.57.57,0,0,1,950,192.36Zm.61-.46c-.28-.15-.56.28-.86.1A.44.44,0,0,1,950.56,191.9Zm-.71-.31c0,.25-.25.23-.46.26C949.32,191.54,949.71,191.69,949.85,191.59ZM948,193c-.14-.05-.29-.08-.31-.25C948,192.65,948.15,192.81,948,193Zm-1.16,9.24c0,.23-.18.14-.3.1s0-.18.1-.2S946.74,202.23,946.85,202.21Zm-.11-6.07c.07.94,1.17,2.83-.45,2.86C945.42,198.54,946.69,196.75,946.74,196.14ZM70.92,288.25l-.06,2H65.77v-2Zm-5.15-1v-3H71l0,3Zm5.08,4,0,3h-5v-3Zm-.07,3,0,3h-5v-3Zm-7-59v-3h5v3Zm5,1v.9l-5,.36v-1.26Zm-5-4v-3h5v3Zm0-3v-3h5v3Zm-6.82-4,15.67-19.74-.41,19.74Zm.82,10v-3h5v3Zm5,1v1.32l-5,.36v-1.68Zm-5-4v-3h5v3Zm0-3v-3h5v3Zm-5,6v-3h5v3Zm5,1V238l-5,.36v-2.09Zm-5-4v-1.08l1.11-1.92h3.89v3Zm0-2.89-.29.37v-.37Zm0-.11v-3h2.57l-2.13,3Zm1.58,0,2.14-3h1.28v3Zm14.42,3v-3h3.36l-.06,3Zm3.29,0-.06,3H68.77v-3Zm-3.29-3v-3H72.2l-.06,3Zm0,7H72l-.19.81-3,.05Zm48.33-55.74L98.19,206.78l-.68-24.6Zm-19.79-5.1L96.75,155l20.11,25.09Zm.75,111.84H94.48l.06-3H98Zm0,1,.07,2H94.41l.07-2Zm.09,3,.07,3H96.85l-2.08-2.88v-.12Zm.09,3.4,0,1-.89-1Zm-2.62-.6h-1.3l0-1.39Zm.55.2,2,3H94.77v-.66l-.45-2.34Zm2.2,4.95.68,24.44L89.21,332l-.43-24.84Zm.51-66.95-.08-3h3v3Zm2.87,0v3h-.71l-2-.42,0-.16-.07-2.42Zm-3-3-.07-3h3v3ZM89.23,333.18l9.87-8.39.27,9.51-10.11.6Zm26.54-45.78v-.15h-5v-3h2.73Zm-1-2.67h1.38v1.4Zm-4,9.52v-3h5v3Zm5,0v3h-5v-3Zm-5-4v-2h5v2Zm-10.42-6L100,271.16l12.93,13.09Zm5.42,10v-3h5v3Zm5,0v3h-5v-3Zm-5-4v-2h5v2Zm0-3v-3h5v3Zm-5.14,7-.08-3h4.22v3Zm4.14,0v3h-4.06l-.06-3Zm-4.23-4-.08-2h4.31v2Zm-.09-3-.08-3h4.4v3ZM69.92,336.2c-6,.44-11.94.92-17.9,1.52l18.18-15.1ZM130.61,333c-9.63.23-19.25.63-28.86,1.14l-.32-11.36,26.5-22.53Zm-2.82-33.61L101.4,322l-.64-22.71h26.67Zm-7.1-9.17-2.67-2h3.75v2Zm1,1.09v.48l-.46-.48Zm-4.32-4.09-.65-.52v-2.48h5v3Zm-.66,1,2.67,2h-2.66v-2Zm3.26,3,1.75,1.84v1.16h-5v-3Zm1.75,3v3h-5v-3Zm1.51,0,2.19,3h-2.7v-3Zm-.94-.2v-.35l.35.35Zm2.2.2h3.23v3h-1Zm3.23-1v1H124l-1.18-1.82v-1.18h4.43Zm-.62-3h-4.38v-2h4.16Zm-.27-3h-4.11v-3h3.89Zm-.27-3H114.16L100,269.78l-.79-28,23.9-.88Zm-18.84-55v3h-5v-3Zm-5,0v-3h5v3Zm5,3v3h-5v-3Zm0,4v.5l-4-.5Zm5-7v3h-5v-3Zm-5,0v-3h5v3Zm5,3v3h-5v-3Zm0,4V238l-5-1.1v-.63Zm6-7v3h-5v-3Zm-5,0v-3h5v3Zm5,3v3h-5v-3Zm0,4v2h-2.92l-2.08-.14v-1.86Zm4.25,4-4.49-1h4.4Zm-.14-2h-4.11v-2h3.89Zm-.27-3h-3.84v-3h3.62Zm-.27-3h-3.57v-3h3.36Zm-.26-3h-3.31v-3h3.09Zm-.27-4H98.71l-.48-17.11,19.91-27.71ZM118.1,180.2,96.7,153.5l-.77-27.87,17.51-2.42ZM91.77,232.25v-3h5v3Zm5,0v2.82l-3.73.18H91.77v-3Zm-5-3v-3h4.58l.42.67v2.33Zm4-117.76V109l2,.36V112l-1.93-.37c0-.05,0-.11,0-.17Zm.14-3.06c0-.1,0-.19,0-.28h-.11v-2.38l2,.35v2.64Zm0-3a.35.35,0,0,0,0-.14h-.07v-2.74l1.74.32.26.31v2.39ZM96,102c0-.17,0-.35.07-.52l-.86.09,0-1.73L97,102.15Zm-.26,10.25,2,.37v2.49l-2.13-.71,0-.9C95.69,113.07,95.74,112.65,95.78,112.23Zm13-4.07v2.67L104,110l-.26-.27v-2.44Zm-5-1.5V104l5,.91v2.68Zm3.14,7.09-2.33-3.11,4.19.78v2.68Zm1.77.94v1.47l-1.29-1.71Zm-3.13-1.18-1.78-.35v-2Zm.52.68,2.36,3.13-4.66-.9v-2.66ZM109,118l.9,1.2-7-2.36Zm-6.2-9.11-1.55-2.05,1.55.29Zm0-2.36-1.85-.37-2.45-3.1,4.3.81Zm-2.47-.62-1.53-.28v-1.73Zm.27.69,2.47,3.1-4.27-.83v-2.65Zm2.2,3.78v2.66l-4-.92v-2.66Zm0,3.26v2.66l-3.88-.83-.12-.19v-2.57Zm10.43,6.69-1.82-.62-1.1-1.46,2.8.54ZM113,118.2l-3.53-.63-.73-.64V114.8l3.79.68Zm-.52-3.33-3.74-.66v-2.67l3.4.61Zm-.27-3.33-3.47-.6v-2.67l3.13.55Zm-.27-3.32-3.2-.55V105l2.85.51Zm0-3.32-13.67-2.51-3.11-4.11L94.5,74.46l14.79-2ZM94.46,73.25l-.19-6.86,12.44,5.24Zm14.74-1.87-15-6.3L93.7,45.94l11.73-20.57Zm-4-48.5.07.91L93.66,44.22,93.12,24.9ZM91.56,112.52,93,114.31l-2.25.29v-2ZM90.3,112v-.84l.6.78Zm2.07.4.8-.08,0,1.18Zm.78-.68-1,.12-1.4-2.17v-.4l2.54-.27Zm.15-3.31-2.53.26V106l2.57-.26Zm-.1-3.33-2.43.26v-2.71l2.48-.26ZM89.9,25.43l.84-.14.64,22.92L89.78,51Zm-.13,27.42,1.66-2.92.42,15.28-2.14.26ZM89.7,66.67l2.19-.26.2,7.16-2.43.32Zm0,8.42,2.46-.33L92.69,95l-3.1-4.11Zm-.08,17.28,3.15,4.18.15,5.24-3.35.33Zm.19,10.35v0Zm-.23,3.33.23,0v2.72h-.14l-.1-.12Zm-.05,4.06.22.29v1.67l-.23,0Zm0,2.59.26,0v2l-.25,0Zm-.09,13.81,4.13-.56.68,24.46-4.9-6.11Zm-.09,19.21,4.94,6.18.64,23-1.3.11-4.4-6.22Zm-.12,24.57,3.37,4.77-3.39.28Zm-.06,12.6.5,0-.51.64Zm0,2,1.74-2.19,4.24-.35L95.9,210,89,219.59ZM89,221l7-9.74.39,14H89Zm0,5.24h1.83v3H88.93Zm0,3h1.84v3H88.92Zm0,3h1.85v3H88.91Zm0,9.84,7.91-.3.71,25.43-8.7-8.82Zm-.09,17.58,8.75,8.93L98,284.25H94.55l.11-4.81-6-2Zm1,39.58h7.68l-8.65,7-.06-3.49Zm-7.5,36.1-1.65.11-8.27.57.32-15.43L82,312.79ZM82,302.64l.07,9.09-9.37,7.93.43-20.41h6.27ZM75.48,67.16,63,68.64,75.91,46.07Zm.64,84.58L80.53,158l-.08,18.05-4.85.4Zm-.67-83.37-.14,7L62.74,69.88Zm0,115.52L76,184l4.43-.38,0,10.93-5.26,6.63Zm4.9,12-.14,29.37H74.6l.47-22.77Zm-5.58,39.37v-3h4.81l-1.92,3Zm2.45,1-.4.45h-2v-.44Zm1.11-.33h1.33v.4l-1.72.12Zm.43-.6.9-1.26v1.26Zm-4-3.07v-3h5v3Zm0-3v-3h5v3Zm-.15-122.33-.85.08v-2.7l.88-.08Zm0,.6-.07,2.71-.76.07v-2.7Zm-.06,3.31-.08,2.7-.69.07v-2.7Zm-.07,3.31-.07,2.42-.63.08v-2.43Zm5.67,128.29,0,7.15-5.88-6,0-1Zm0,8.42L80,275.59l-6.28-6.86.49-23.86ZM80,276.91v2.47l-5.17,1.26.26,3.61H73.38l.29-14.16Zm-4.87,7.34.2,3h-2l.05-3Zm.24,4,.2,2h-2.3l.06-2Zm.24,3,.2,3h-2.6l0-3Zm.24,3,.16,3H73.12l0-3ZM81,106.92l.1,2.7-1.32.14v-2.7Zm-1.22-.46v-2.72L81,103.6l.1,2.71Zm1.2,3.77.1,2.71-1.3.14v-2.71Zm0,3.31.1,2.24-1.29.18v-2.28ZM80.9,79.42l-2.18-2.88,2.19-.29Zm-2.19-53,2.44-.18,0,8.93-2.68,4.71Zm-.32,15.33L81.1,37,81,66.48l0,0-3.07.37Zm-.55,26.34,2.36-.28-2.43,4.28ZM77.72,74,81,68.3l0,6.74-3,.41-.2-.27Zm0,2.73,0,0,3.18,4.22-.07,16.26-3.48-4.6ZM77.31,94l3.5,4.63,0,4.37-3.67.37Zm-.19,10,1.65-.17v2.72l-1.7.16Zm-.07,3.32,1.72-.18v2.71L77,110Zm-.07,3.3,1.79-.17v2.71l-1.84.18Zm-.07,3.32,1.86-.18V116l-1.9.24Zm-.31,14.38,4.07-.57,0,5.74-4.05-5.05Zm4,6.6-.1,21.57-4.39-6.22.42-20.43ZM65.93,21.09c3.94,2.58,9.66,5.54,9.66,5.54l.73-.05L76,44.21,62,68.6ZM61.86,70.8l13.42,5.85L75,89.49,61.77,72Zm-.21,2.49L75,90.93l-.26,12.68L59,105.19Zm7.12,40.85v-2.7l4-.48v2.7Zm4,.12v2.45l-4,.61v-2.59Zm-4-3.42v-2.69l4-.49v2.7Zm0-3.29v-2.7l4-.5v2.71Zm-6,7.11V112l5-.48v2.7Zm5,.13v2.6l-3.4.42-1.6.15v-2.7Zm-5-3.42v-2.69l5-.48v2.7Zm0-3.28V105.4l5-.49v2.69Zm-3.54-2.29,3.54-.34v2.69l-3.64.35ZM59,109.1l3.81-.36v2.7l-3.91.37Zm-.27,3.3,4.08-.36v2.69l-4.18.38Zm-.27,3.31,4.35-.39V118l-4.45.42Zm-.77,6.55,16.58,5.52L73.83,147l-16.31-23.1Zm-.25,3,16.4,23.23-.58,28.18L53.06,178.3ZM53,178.7l20.06,4.58-.43,20.85L55.81,225.25H49.2Zm-3.86,47.55h2.61v3H48.93Zm-.27,3h2.88v1.23l-1.16,1.77H48.67ZM51.76,232l.09-.11V232Zm0,.22v3H49.15l2.13-3Zm-3.15,0h1.52l-1.7,2.15Zm-.31,4.12.36-.12h3.1v2.14l-2.66-.14h-1Zm-.23,2.86L70,242.82l1.83-.07-.48,23.43L48,240.57Zm-.21,2.63,23.47,25.71L71,284.25H44.4Zm12.9,52.39v-3h5v3Zm5,0v3h-5v-3Zm-5-4v-2h5v2Zm0-3v-3h5v3Zm-6,7v-3h5v3Zm5,0v3h-5v-3Zm-5-4v-2h5v2Zm0-3v-3h5v3Zm-5,7v-3h5v3Zm5,0v3h-5v-3Zm-5-4v-2h5v2Zm0-3v-3h5v3Zm-5.41-3h4.41v3H44.13Zm-.28,4h4.69v2H43.86Zm-.31,3.87,0-.87h5v3h-5Zm0,2.13h5v3h-5Zm-.58,5h27.5l-.46,22.38L50.43,338c-3.51.36-7,.92-10.53,1.37Zm396,11,0,2h-2.42v-2Zm-2.45,0v-1h2.48l0,1Zm2.41,2,0,1h-2.38v-1Zm0,2,0,1h-2.35v-1Zm-3.37-31v-1h2v1Zm2,1v.28l-2,.19v-.47Zm-2-2v-2h2v2Zm0-2v-1h2v1Zm-3.69-2,8-10.09-.21,10.09Zm.69,5v-1h2v1Zm2,1v.49l-2,.19v-.68Zm-2-2v-2h2v2Zm0-2v-1h2v1Zm-3,3v-1h3v1Zm3,1V285l-3,.18v-.89Zm-3-2v-.78l.74-1.22h2.26v2Zm.16-1.7-.16.19v-.19Zm-.16-.31v-1.37h1.48l-1.08,1.37Zm1,0,1.09-1.37h.47v1.37Zm7.55,1.68v-1.37h1.53l0,1.37Zm1.5.3,0,1.38H438.3v-1.38Zm-1.5-2v-1.37h1.57l0,1.37Zm0,3.66h1.46v.5l-1.46.11Zm10.05,36.43,4.91-4.08.34,12.33-.62-.07c-1.5-.16-3-.29-4.5-.42Zm14.47-64.75L453.16,269l-.35-12.58ZM452.71,253l-.29-10.44,10.28,12.83Zm.38,57.26h-1.83l0-1.38h1.76Zm0,.31,0,1.39h-1.92l0-1.39Zm0,1.69,0,1.39h-.71l-1.25-1.37v0Zm.05,1.69,0,.5-.46-.5Zm-1.34-.3h-.66v-.71Zm.28.63,1,1h-2.4v-.34l.41-.66Zm1.39-32.33,0-1.37h1.59v1.37Zm1.55.3v1.38h-.45l-1-.24h0l0-1.15Zm-1.6-2,0-1.37h1.64v1.37Zm9.3,30v0h-3v-1H461Zm-1.15-1.37h.71v.72Zm-1.85,4.4v-1h3v1Zm3,1v1h-3v-1Zm-3-2v-2h3v2Zm-5.51-4-.19-6.69,6.61,6.69Zm2.51,5v-1h3v1Zm3,1v1h-3v-1Zm-3-2v-2h3v2Zm0-2v-1h3v1Zm-2.37,3,0-1h2.41v1Zm2.37,1v1h-2.33l0-1Zm-2.41-2,0-2h2.45v2Zm-.05-2,0-1h2.5v1Zm15.16,20.18q-7.32-.9-14.65-1.72v-.39l13.55-11.52Zm-1.18-14.08L454.8,327.87l-.33-11.62H468.1Zm-3.64-4.42-1.36-1.39h1.9v1.39Zm.54.3v.25l-.23-.25Zm-2.2-2-.22-.37v-.63h2v1Zm-.34.29,1.36,1.39h-1.38v-1.39Zm1.66,1.71.46.87v.13h-2v-1Zm.46,2v1h-2v-1Zm1.21-.33,1.12,1.13h-1.6v-1.13Zm-.48-.3v-.18l.18.18Zm1.13.3h1.43v1.13h-.32Zm1.14-.72v.05h-1.45l-.55-.46v-.54H468Zm.19-.95h-2.19v-2h2.07Zm-.14-2h-2.05v-1h1.94Zm-.14-2h-6.36L454.06,301l-.41-14.25,12.22-.58Zm-9.91-28v2h-2v-2Zm-2,0v-1h2v1Zm2,2v1h-2v-1Zm.14,1.65v.43L456,283.9Zm2.86-3.65v2h-3v-2Zm-3,0v-1h3v1Zm3,2v1h-3v-1Zm0,2V285l-3-.56v-.15Zm3-4v2h-3v-2Zm-3,0v-1h3v1Zm3,2v1h-3v-1Zm0,2v1h-1.59l-1.41-.23v-.77Zm2.08,1.51-2.3-.51h2.25Zm-.07-.49H463.9V283.9h1.76Zm-.14-1.67H463.9v-1.38h1.63Zm-.14-1.68h-1.6v-1.37h1.49Zm-.13-1.68H463.9v-1.37h1.35Zm-.14-2H453.42l-.24-8.65,10.17-14.21Zm-1.89-22.83L452.4,241.77l-.4-14.24,8.95-1.24Zm-13.57,26.83v-2h2v2Zm2,0v1.22l-1.25-.22h-.75v-1Zm-2-2v-1h2.44l-.44.05v.95Zm2.16-59.95V219l1,.18v1.36l-1-.19a.25.25,0,0,1,0-.08Zm0-1.57v-.14h0v-1.22l1,.19v1.35Zm0-1.66v-.18h0v-1.18l.87.16.11.16v1.22Zm.11-1.63a2.51,2.51,0,0,1,0-.27l-.44.05,0-.88.9,1.19Zm-.15,5.24,1,.19v1.27l-1.07-.36v-.46C451.86,221.11,451.89,220.9,451.91,220.68Zm6.86-2.08V220l-2.64-.45-.36-.13v-1.25Zm-3-.77v-1.37l3,.47v1.37Zm2,3.62-1.14-1.58,2.19.39v1.37Zm.8.49v.75l-.66-.88Zm-1.6-.61-.9-.17v-1Zm.15.35,1.14,1.6-2.44-.46v-1.36Zm1.59,1.95.46.62L455.56,223Zm-3-4.65-.79-1,.79.15Zm.06-1.21-1.08-.19L453.5,216l2.27.41Zm-1.78-.32-.78-.14v-.88Zm0,.35,1.09,1.59-2.35-.42v-1.36Zm1.74,1.94v1.36l-3-.47v-1.36Zm0,1.67v1.36l-2.46-.43-.54-.1v-1.31Zm5.06,3.41-.93-.31-.57-.75,1.44.28Zm-.09-1.09-1.68-.32-.24-.33V222l1.81.35Zm-.14-1.7-1.78-.34v-1.36l1.67.31Zm-.14-1.7-1.64-.31v-1.36l1.53.28Zm-.14-1.7-1.5-.28V217l1.39.26Zm-.13-1.7-7-1.28-1.59-2.1-.34-12.18,7.56-1Zm-8.94-16.18-.1-3.5,6.36,2.68Zm7.53-.95-7.65-3.22-.27-9.78,6-10.52Zm-2-24.79,0,.47-6,10.43-.28-9.87Zm-7.11,45.82.69.91-1.21.15v-1Zm-.52-.26v-.43l.31.4Zm1.06.2.41,0,0,.6Zm.4-.34-.62.06-.84-1.11v-.2l1.42-.14Zm-.05-1.7-1.41.14v-1.39l1.38-.13Zm0-1.7-1.36.14v-1.39l1.33-.13Zm-1.56-40.72.43-.07.33,11.72-.82,1.43Zm-.07,14,.85-1.5.21,7.81-1.09.14Zm0,7.06,1.11-.13.11,3.66-1.24.16Zm0,4.3,1.25-.16.29,10.35-1.58-2.1Zm-.05,8.84,1.61,2.13.08,2.68-1.71.17Zm0,5.29h.09v1.39h-.1Zm0,1.7h.1v1.39h-.06l-.05-.06Zm0,2.07.11.15v.86h-.11Zm0,1.33.12,0v1h-.12Zm0,7.06,2.11-.29.35,12.51-2.5-3.13Zm0,9.82,2.52,3.15.33,11.75-.66.05-2.25-3.18Zm-.06,12.56,1.72,2.44-1.74.14Zm0,6.44.25,0-.26.33Zm0,1,.89-1.12,2.17-.19.39,14.11-3.53,4.92Zm-.09,18.34,3.56-5,.2,7.1h-3.77Zm0,2.69h.95v1.37h-1Zm0,1.68h1v1.37h-1Zm0,1.67h1v1.38h-1Zm0,4.84,4-.16.37,13-4.45-4.51Zm0,9,4.47,4.39.22,7.82H451.3l.05-2.28-3-.94Zm.48,20.21h3.93l-4.42,3.58,0-1.79Zm-3.89,11.54c-1.62-.12-3.24-.24-4.86-.33v-.27l4.81-4Zm-.09-9.8,0,4.66-4.79,4,.22-10.44h3.2Zm-3.3-120.35-6.36.76,6.58-11.54Zm.32,43.24,2.26,3.2,0,9.23-2.48.2Zm-.34-42.62-.07,3.57L435,199Zm0,59.05.27.06,2.27-.2,0,5.59-2.69,3.39Zm2.51,6L444,278.25H441.1l.24-11.59Zm-3.27,19.91v-1h2.87l-1,1Zm1.67.65-.23.32-1.07.08v-.4Zm.56,0h.68v.21l-.87.06Zm.22-.3.46-.65v.65Zm-2.45-1.35v-2h3v2Zm0-2v-1h3v1Zm.36-62.29-.41,0v-1.38l.44,0Zm0,.31,0,1.39-.37,0v-1.38Zm0,1.69,0,1.38-.34,0V220Zm0,1.7,0,1.23-.31,0v-1.24Zm2.88,65.57,0,3.66-3-3.05v-.49Zm0,4.31-.06,12.64-3.21-3.51.25-12.19Zm-.07,13.32v1.26l-2.64.46.13,1.67h-.86l.15-7.06Zm-2.49,4,.1,1.38h-1l0-1.38Zm.12,1.69.11,1.39H440.4l0-1.39Zm.13,1.69.1,1.39h-1.33l0-1.39Zm.12,1.69.08,1.13h-1.46l0-1.13Zm2.53-96v1.39l-.73.07V218Zm-.73-.23v-1.39l.74-.07v1.38Zm.72,1.93V221l-.72.07v-1.38Zm0,1.69v1.15l-.71.08v-1.16Zm.08-17.44-1.11-1.47,1.11-.15Zm-1.12-27.1,1.25-.09,0,4.57-1.37,2.4Zm-.16,7.84,1.38-2.43-.07,15.07v0l-1.57.19Zm-.28,13.46L444,198l-1.24,2.19Zm-.07,3,1.65-2.9v3.45l-1.55.21-.1-.14Zm0,1.39h0l1.63,2.16,0,8.31-1.78-2.35Zm-.19,8.85,1.79,2.37V216l-1.87.19Zm-.1,5.1.84-.09v1.39l-.87.08Zm0,1.69.88-.09v1.39l-.9.09Zm0,1.69.91-.08v1.38l-.94.09Zm0,1.7,1-.09v1.17l-1,.12Zm-.15,7.35,2.08-.29v2.93L442.12,229Zm2.06,3.37-.05,11-2.24-3.18.22-10.45Zm-7.52-58.17c2,1.32,4.94,2.83,4.94,2.83l.38,0-.19,9-7.11,12.47Zm-2.08,25.41,6.87,3-.14,6.56-6.77-9Zm-.1,1.28,6.82,9-.14,6.48-8,.81Zm3.29,20.87v-1.38l3-.24v1.38Zm3,.07V223l-3,.31V222Zm-3-1.75v-1.38l3-.25v1.38Zm0-1.68v-1.38l3-.26V218Zm-3,3.63v-1.37l3-.25v1.38Zm3,.07v1.33l-2,.21-1,.08v-1.38Zm-3-1.75v-1.38l3-.24V220Zm0-1.67v-1.38l3-.25v1.37Zm-1.65-1.18,1.69-.17v1.37l-1.8.18Zm-.14,1.69,1.83-.18v1.37l-1.94.19Zm-.15,1.69,1.94-.19V222l-2.07.19Zm-.14,1.69,2.08-.2v1.37l-2.2.22Zm-.26,3.35,8.48,2.82-.21,9.8-8.33-11.81Zm-.12,1.52,8.38,11.87-.3,14.41-10.3.84Zm-2.24,27.23L440.32,257l-.22,10.58-8.61,10.72h-3.38Zm-2,24.31h1.38v1.37H428Zm-.13,1.68h1.51v.57l-.63.8h-1Zm1.46,1.37.05-.06v.06Zm.05.3v1.38h-1.38l1.09-1.38Zm-1.65,0h.77l-.86,1.1Zm-.16,1.92.19-.24h1.62v1.27l-1.4.1h-.5Zm-.12,1.45,11.22,1.84.93,0-.24,12-12-13.09Zm-.11,1.17,12,13.06-.17,8.43h-13.6Zm6.34,26.49v-1h3v1Zm3,1v1h-3v-1Zm-3-2v-2h3v2Zm0-2v-1h3v1Zm-3,3v-1h3v1Zm3,1v1h-3v-1Zm-3-2v-2h3v2Zm0-2v-1h3v1Zm-3,3v-1h3v1Zm3,1v1h-3v-1Zm-3-2v-2h3v2Zm0-2v-1h3v1Zm-2.13-1h2.13v1h-2.25Zm-.14,1h2.27v2h-2.39Zm.27,2.38-.41-.38h2.41v1h-2Zm0,1.62h2v1h-2Zm-.73,2H439.1l-.23,11.23c-4.92-.26-9.83-.35-14.72-.37ZM323.65,293.07c.38.21,1.12.42,1.12.64v21.54h-2v-15.5c0-1.45.26-4.74-.51-5.57C322.79,293.81,323.12,293.44,323.65,293.07Zm-3.5,2.18h.62v20H314.9c-.53,1-1.24,2.59-1.77,3.86-1.06.21-2.36.46-3.36.68V293.86A13.53,13.53,0,0,0,320.15,295.25Zm-28.71-23.33c7.47,3.13,15.33,6.26,22.33,9.38v7.48c-1,.37-2.14.74-3.25,1.11-.63-.85-1.23-1.7-1.86-2.54l-2.05.31c0,3,1,4,1.44,6l-.63,27.35-.15,11.77-3.34,4.29-.48.32q-8.43-31.8-16.9-63.61Zm-5.8,12.88Q291.83,312.39,298,340q-8.24.72-16.5,1.09Q282.87,313,284.21,285Zm-5.56,34.67-.69,21.69c-2.75.1-5.51.17-8.26.21q1.85-11,3.7-22.06ZM275,316.29l3.81-16.38c.34-.34.55-.32,1.28-.32l-.48,17Zm3.65-19c.54-2,1.06-4.35,1.59-6.52.22,2.17.43,4.52.64,6.52Zm-50.86,41.33c-.13-3.95-.62-8.45-.18-11.32q.24-15.58.47-31.17.09-4.53.16-9.06c.27-.53,1.35-1,1.28-1.91-.23-3-1.28-5.69-1.12-9.38l3.18.47,13.2-22.9,33.56,14c.47,1.85,1.74,3.54,2.06,5.09q-2.22,11.44-4.45,22.9-4.17,23-8.35,46.08c-7.92,0-15.87-.32-23.86-1.07C238.41,339.81,233.09,339.21,227.78,338.58Zm385-47.33h1v1.32s0,0,.17,0c0,.74-.17,1.47-.17,2.2v1s-.17-.05-.27-.07c0,.35,0,.7,0,1.05l-.44.49a4.09,4.09,0,0,1,.16-1.83c-.17-.09-.5-.18-.5-.27Zm-.31,1.06c0,.75,0,1.26,0,2s-.16,1.92-.16,1.92h-.33s-.09,0-.13-1h-.17l0-3h.62a4.45,4.45,0,0,1-.46-1.81v-.17a4.12,4.12,0,0,0,.59.07C612.35,291,612.48,291.65,612.46,292.31Zm.31-7.34c-1-.44-1-1.24-1-2.23v-.17c0-.1,0-.19,1-.29Zm-1.39-7.25.66,2-1,.59c-.17-.82-.35-1.64-.52-2.46Zm-1.9-4.94c.38.17.58,1,.82,1.27,0,.24-.6.76-.85.89l-.69-1.71Zm-.33,5.47h.17c.39,1,.76,1.32-.36,2.13l-1.08-1.82A5.35,5.35,0,0,1,609.15,278.25Zm-2.42-2.59-.1.1c-.22-.36-.44-.72-.65-1.08l1.63-1c.27.12.38.57.56.79Zm.81-7a2.35,2.35,0,0,1,1.23,1.6v0c0,.22-.54.44-.77.65a13.32,13.32,0,0,1-1.22-2.06Zm-2.32,3.11c-.45.2-1-1.52-1.18-2a3.05,3.05,0,0,1,1.61-.57h.1c.26,0,.52.88.78,1.35C606.1,271,605.66,271.38,605.22,271.79Zm-1.45-7.24c1,0,.85-.3,1.06-.3h.2c.37,1,.74,1,1.11,1.5,0,0,0,0,.07,0-.23.19-.46.5-.69.5h-.46c-.29,0-.29-1-1.29-1.67Zm.27,1.25-.29.42-.13.1h-.36a3.77,3.77,0,0,1-.1-1.18l.85.59Zm-.19-3.15-1,.69-.07.06c0-.59-.07-1.18-.1-1.77Zm-23.49,32.74c.53,2.37,1.41,4.74,1.41,7.11v0c0,.11-.47-.28-.89.72h0c-.43-4-1-7-1.4-10.35C580.22,293.42,580.09,294.34,580.36,295.39Zm3.17,28.86h3.14c.59,3,1.17,5.7,1.75,8.64-1.11,0-2.22.14-3.33.17C584.57,330.09,584.05,327.25,583.53,324.25Zm3.24-1.47c-1,.07-2.24.47-3.14.47h-.23c-.81-7-1.62-13.16-2.43-19.6.31,0,.61-.4.92-.4H582a196.46,196.46,0,0,0,4.75,19.5Zm-9.14-24.53c1.52,11,3,23.12,4.56,34.73-4.93.14-9.86.38-14.79.6,3.4-11.8,6.8-23.33,10.2-35.33Zm-16.86.81v-.92a5.12,5.12,0,0,1,.5-1.38,24.72,24.72,0,0,1,3.5-1.77c2.55-1.26,4.94-2.53,7.5-3.8,1-.49,2.5-1.53,3.5-1.51v1c0,.08-.3.17-.54.26a4,4,0,0,1,0,2.49,1.79,1.79,0,0,1,.73.36s0,.07.06.1a1.39,1.39,0,0,1-1.11.26c0,.1,0,.2-.06.3.15.18.42.36.47.65-.28.94-.55,1.88-.82,2.82-.91,3-1.82,6-2.72,9q-4,13.32-8.06,26.64a2,2,0,0,1-.25,0c.39-1.27.28-2.55,1.28-3.82v-.51h-1.69a2.09,2.09,0,0,0-.85-3.37,3.9,3.9,0,0,1,.06-1.51c.12-1.44.22-2.81.33-4.24.19-2.6.37-5.17.56-7.77l.56-1.72c0-.47,0-.93-.07-1.4.09-1.15.18-2.29.26-3.44l1-.13-.49-.39c.09-.87.18-1.75.26-2.62l.53-.52-4.43-.2C560.28,300.75,560.77,300.13,560.77,299.06Zm-7,13.27a2.28,2.28,0,0,1,.4-1.05c.09-.47.08-.94.16-1.41-.15-.16-.35-.33-.51-.49.09-1.11.15-2.21.24-3.31l8.38-.33c0,1.1,0,3.69-.6,4.16l.39,2.43c-.16,1.69-.33,3.38-.49,5.08q-.5,3.07-1,6.16c0-.39-.07-.56-.1-.94-.41-2.46.6-4.38.59-6.38h-.79c0-1,0-1.26-.06-1.78-1.44,0-2.87-.14-4.3-.11a20.73,20.73,0,0,1-2.68-.11h.35Zm-3,3.57c.25-.22,1.87,0,2.34-.07l6.67-.06v.72l-9.06.2C550.78,316.42,550.7,316.16,550.76,315.9Zm-4,18.43c-3.41.14-6.83.24-10.24.33l1.22-1.29c.62-.84,1.24-1.67,1.87-2.5l7.3-6.19ZM529.92,331c-.27-.08-.55-.1-.82-.18,0,0,0,0,0,0L539,319c1.21-1.47,2.42-3,3.63-4.49a9.86,9.86,0,0,1,1-.23h.13C539.18,320.25,534.55,325.45,529.92,331Zm2.62-1.11a2.3,2.3,0,0,1,1.87-.62l.75.75c-.06,1.56-.13,3.12-.19,4.68l-2.36,0C532.58,333.13,532.56,331.51,532.54,329.89Zm58.88,2.79c-.4-1.75-.87-3.5-1.26-5.25-2.71-12.08-5.33-24.16-8-36.24.18-.21.64-.41.64-.62v0a5.25,5.25,0,0,0-1.27.19c0-1,0-2,.08-3-.25-.08-.81-.16-.81-.23v0c5-2.57,10.17-5.15,15.26-7.73l3.3-1.67a4.68,4.68,0,0,1,2.68-.95l.27.85.94.63.69,1.34c.67,1.34,1.33,2.69,2,4l2.1,3.54q1.57,2.6,3.14,5.21c.06.91.09,1.81.14,2.72-.16.18-.52.37-.52.56v2.49c0,.08.47.17.69.26,0,.24.25.48.29.72a6.59,6.59,0,0,1,1-.07v33.47C605.77,332.62,598.48,332.58,591.42,332.68Zm275.35-78.43h4v2h-4Zm0,3h4v2h-4Zm-5-3h4v2h-4Zm0,3h4v2h-4Zm-4.36-3h4.36v2h-4.33s0-1,.13-1.78c-.07,0-.08,0-.17,0S857.41,254.25,857.41,254.25Zm4.36,3v2h-4.29c0-1,0-1.2,0-1.8,0-.11,0-.2,0-.2Zm2.72,42-.14,31s0-.06,0-.06l-11.54-30.92ZM834.56,318l9.63-18.7h1.43l11,31.69-11.49,1Zm1.37,15-5.65.49,2.26-5.41Zm19-89.11c.45,0,.54.27.93.29a1.48,1.48,0,0,1-.93.46C855,244.32,855.12,244,855,243.81Zm.87-4.68a5.84,5.84,0,0,0-.81-.46v-.58a1.31,1.31,0,0,1,1.85-.11v.63C856.5,238.76,856.2,239,855.84,239.13Zm1-.23v.69a3.06,3.06,0,0,1-.81-.4C856.36,239.11,856.5,238.88,856.88,238.9ZM855,237.81v-.76c.33.1.67.18.81.47A6.44,6.44,0,0,1,855,237.81Zm1.79-.12a2.64,2.64,0,0,0-.52-.17c.09-.23.07-.22.58-.35C856.84,237.32,857,237.63,856.82,237.69Zm-.06-5.43a2.34,2.34,0,0,1-1.1-.15l1.12,0A.88.88,0,0,1,856.76,232.26Zm.12,3.41c-.16.24-.72,0-1.22.06a1.3,1.3,0,0,1,.87,0C856.67,235.73,856.7,235.63,856.88,235.67Zm0,.4V237c-.32.07-.5.27-.81.34-.37-.15-.68-.36-1-.52a2,2,0,0,1,.06-.75C855.52,236.08,856.19,236.08,856.88,236.07Zm-1.79,2.83a5.65,5.65,0,0,0,.57.23c-.1.22-.36.29-.63.35C855.07,239.3,855,239,855.09,238.9Zm1.79.92c.07.31-.1.37-.12.58-.75-.05-1.9.29-1.79-.63A1.32,1.32,0,0,1,856.88,239.82Zm-1.1,2.55A6,6,0,0,0,855,242c-.06-.53.2-.76.11-1.33.61,0,1.07.07,1.56,0,.08.37.08.81.18,1.16A4.1,4.1,0,0,1,855.78,242.37Zm1.1-.29v.75a1.81,1.81,0,0,1-.87-.41C856.32,242.33,856.52,242.12,856.88,242.08Zm-1.85.86c.6-.6,1.27-.24,1.85.18v.52a3,3,0,0,1-.81.46c-.36-.22-.75-.4-1.1-.64C855,243.27,855.07,243.18,855,242.94Zm.17,14.9a8.6,8.6,0,0,1,1.39.7c-.48.25-1,.44-1.5.69C855.16,258.8,854.94,258.08,855.2,257.84Zm-.06-12.12h1.56v1c-.54.19-1.23.86-1.67.18A4.67,4.67,0,0,0,855.14,245.72Zm1.62,2.13a3.28,3.28,0,0,1-1-.52c.37-.13.66-.34,1-.46C856.78,247.18,856.9,247.64,856.76,247.85Zm.06,3.76c0,.36.08.88-.06,1.15a5.51,5.51,0,0,1-1.21-.58A8.16,8.16,0,0,1,856.82,251.61Zm-1.68-1.56c-.13-.29.21-.44.47-.58.46-.26.85-.37,1.21-.12v.7C856.14,250,855.79,250,855.14,250.05Zm1.68-1.91v.58c-.6.53-1.24-.19-1.79-.41v-.57C855.61,247.16,856.27,247.86,856.82,248.14Zm-.69,1c-.46,0-.61.39-1.1.4v-.92A1.81,1.81,0,0,1,856.13,249.12Zm.69,3.93v.58c-.64.23-1.17-.49-1.79-.64v-.52C855.62,252.11,856.29,252.81,856.82,253.05Zm-1.68.17c.35.22.83.3,1.11.59H855A.78.78,0,0,1,855.14,253.22Zm1.68,3.79a1.08,1.08,0,0,1-.06.54,5.12,5.12,0,0,1-1.16-.54Zm-1.74-.49c0-.37.13-.61.12-1a7.23,7.23,0,0,0,1.5-.06v.64a4.51,4.51,0,0,0-.92.41Zm1,0a3.47,3.47,0,0,1,.59-.24,1.69,1.69,0,0,1,0,.24Zm-.62-1.39c-.08,0-.21,0-.23.05s.17,0,.17.06-.29,0-.29-.17a2.66,2.66,0,0,1,1.56.06C856.54,255.2,855.58,255.37,855.49,255.13Zm-.35-.83h.33l-.27.13A.81.81,0,0,1,855.14,254.3Zm1.68,4.41v.52h-1.29A7.1,7.1,0,0,1,856.82,258.71Zm-.06-.29c-.51-.34-1.14-.55-1.67-.87V257a8.11,8.11,0,0,1,1.73.81C856.78,258,856.89,258.34,856.76,258.42Zm.06-3.64a6.26,6.26,0,0,0-1.62-.06c.12-.09.33-.27.57-.42h1.06A1.57,1.57,0,0,1,856.82,254.78Zm-.12-9.53h-1.56v-.52c.55-.38,1.36-.65,1.74.06C856.88,245,856.61,245,856.7,245.25Zm.52-13.34V232h0l0-.07Zm-2.4-1.17a6.49,6.49,0,0,1,1.36-.62c.28.19.56.38.81.58Zm-.14-.21c.07-.43,0-1,.29-1.21.27.26.7.38.93.69C855.45,230.14,855.18,230.45,854.68,230.53Zm2.14-.93c-.36,0-.43.26-.75.29a10,10,0,0,1-1.16-.86c.05-.61.46-.85.93-1,.31.26.62.54.92.81C856.74,229.11,856.86,229.27,856.82,229.6Zm-.75-3.63a1.6,1.6,0,0,1,.46,1.21,1.78,1.78,0,0,1-.75.52c-.16-.14-.34-.27-.52-.41A1.38,1.38,0,0,1,856.07,226Zm-1.82,4.78h-.32l-1.9-.29-.58-.75-2.66-.06-1.44.35-.25-.38a.55.55,0,0,1,.13-.08c1-.6,2.64-2,4-2.77,0-.15-.23-.09-.23-.23.2,0,.14.2.34.17a25.93,25.93,0,0,1,2.66-2.08c0-.1-.25-.1-.12-.23s.12.15.24.17.51-.56.29-.17c.23-.14.37-.42.57-.46a.15.15,0,0,0-.11.11c.22-.1.59-.56.75-.34-.4,1.9-.84,4.08-1.21,6A4.07,4.07,0,0,0,854.25,230.75Zm-1.48,23.5h1.62a7.2,7.2,0,0,0,0,2h-1.58Zm0,3h1.66s0,0,0,0-.16-.07-.17,0a4.15,4.15,0,0,1,0,1.65c.07,0,.16,0,.17,0s0,.29,0,.29h-1.66Zm-5-3h4v2h-4Zm0,3h4v2h-4Zm-4-3h4v2h-4Zm0,3h4v2h-4Zm-5-3h4v2h-4Zm0,3h4v2h-4Zm-4-3h4v2h-4Zm0,3h4v2h-4ZM834,212.11c0-.08,0-.19,0-.2,0,.14,0,.28-.15.25,0-.24-.18-.23-.16-.46.26-.19.26,0,.51-.15C834.13,211.75,834.28,212.13,834,212.11Zm0-.92c-.13,0-.11-.09-.26-.05,0-.18.07-.26.25-.25C834,211.06,834.1,211.1,834,211.19Zm0-.3c-.06-.16,0-.15,0-.36C834.38,210.48,834.24,210.88,834.05,210.89Zm-.26-1.18c-.11-.26,0-.44-.06-.76.25,0,.31.2.51.25C834.35,209.6,834.19,209.77,833.79,209.71Zm.35-.81c-.1-.12,0-.06.05-.15-.56,0-.47-.39,0-.41C834.21,208.53,834.32,208.86,834.14,208.9Zm0-1.38c0-.14-.11-.48.09-.46C834.26,207.18,834.38,207.55,834.13,207.52ZM836,206.2c-.51.1-.94-.15-1.27-.11,0,.15.11.16.1.31-.64,0-.22-.85-.32-1.38,1.45-.2,2.92-.38,4.34-.61a11.2,11.2,0,0,1,0,1.38c-.48,0-1.43.49-1.79,0,.08.13.06.23-.05.3s-.11-.29-.36-.2c0,.1.11.13.11.25a.72.72,0,0,1-.82-.2C835.79,206.08,836,206,836,206.2Zm2.8-1.94c0-.14,0-.22-.16-.21-.1.58-3.39.71-4.13.82-.1-1.42.52-1.21,1.77-1.39.87-.13,1.74-.25,2.61-.4C838.79,203.46,839,204,838.75,204.26Zm-.09,2h0Zm-2.19.46c.3-.3,1-.17,1.48-.31v.2C837.57,206.75,836.84,206.56,836.47,206.71Zm1.45,2.19c-.2-.06-.08-.37,0-.46h.21C838,208.58,838.13,208.9,837.92,208.9Zm.68,2c0-.13.09-.11,0-.26a.65.65,0,0,1,.51.15A.94.94,0,0,1,838.6,210.89Zm.86-.36c-.34-.18-.85-.2-1.07-.51.3-.18.86-.13,1.22-.25C839.64,209.91,839.63,210.41,839.46,210.53Zm-.63-2.4h.2a.19.19,0,0,1-.2.21Zm0,.67c0-.18.19.12.2-.05-.06-.55.29-.73.66-.47C839.74,208.86,838.93,209.27,838.84,208.8Zm1.17,0c0-.14,0-.31.1-.31S840.23,208.82,840,208.8Zm.2-.05a5.55,5.55,0,0,1-.11-1.13C840.53,207.75,840.89,208.63,840.21,208.75Zm0-1.28c.32-.33.73-.26,1.27-.36-.07.51-.77.13-.85.82C840.38,207.87,840.33,207.64,840.2,207.47Zm.68,1.23h-.31c0-.16.12-.2.2-.26C840.8,208.53,840.92,208.53,840.88,208.7Zm0-.26a1.87,1.87,0,0,1,.66-.1v.2C841.39,208.59,840.94,208.78,840.93,208.44Zm.81.1a.52.52,0,0,1,.82-.3C842.31,208.36,842,208.35,841.74,208.54Zm.35-1.53a4.48,4.48,0,0,1,1.27-.15V207C843,207,842.25,207.43,842.09,207Zm.52,1.38c0-.13.08-.16.1-.26a.21.21,0,0,1,.21.21C842.8,208.34,842.77,208.43,842.61,208.39Zm.3-.31c.3,0,.57-.15.77-.05C843.66,208.32,842.89,208.49,842.91,208.08Zm.82.1c-.08-.28.36-.31.51-.2-.15,0-.07.08.06.11-.13-.14.09-.25.3-.26a.37.37,0,0,1-.23.28C844.73,208.2,845.28,208.26,843.73,208.18Zm.4-1.53c.32,0,.56-.11.91-.1v.21C844.74,206.73,844.21,207.06,844.13,206.65Zm.52,1.43c0-.12,0-.26.2-.25,0,.1.14.06.11.2C844.8,208,844.77,208.08,844.65,208.08Zm1-.15c-.26,0-.69.19-.72-.16.29.06.62-.24.77,0C845.66,207.79,845.66,207.85,845.67,207.93Zm-.52-1.33c0-.19.24-.06.35-.1C845.6,206.71,845.14,206.8,845.15,206.6Zm.62,1.28c.05-.47.59-.19.86-.36C846.6,207.89,846.11,207.81,845.77,207.88Zm.4-1.53c.18,0,.48-.12.61-.06v.16C846.59,206.51,846.18,206.68,846.17,206.35Zm.52,1.32c.06-.17.29-.19.3.05C846.91,207.7,846.7,207.79,846.69,207.67Zm.19-1.32c.1-.21.42-.19.72-.21C847.61,206.41,847,206.55,846.88,206.35Zm.11,1.12c.26,0,.55-.18.77-.05C847.75,207.69,847,207.81,847,207.47Zm.71-1.22c.09,0,0-.17.15-.16S847.78,206.41,847.7,206.25Zm.16,1.32v-.2a2.68,2.68,0,0,1,.81-.15C848.7,207.56,848.09,207.58,847.86,207.57Zm.35-1.53c.32-.11.76-.12,1.12-.2,0,.15,0,.1,0,.25C849,206,848.4,206.4,848.21,206Zm.57,1.38c-.06-.21.15-.25.26-.15S848.93,207.43,848.78,207.42Zm.25-.26c.53-.32.7.25.66-.65a.6.6,0,0,1,.25-.72c0,.55-.12,1-.14,1.48C849.48,207.27,849.13,207.49,849,207.16Zm.4-1.17c0-.18.1-.2.26-.2C849.68,205.93,849.6,206,849.43,206Zm.47,1.23a4.47,4.47,0,0,1,.19-1.23c.09.1.06.29.16.36,0-.21-.1-.31-.11-.51a2.59,2.59,0,0,1,.78.92A1,1,0,0,1,849.9,207.22Zm.4-1.53c.45-.1,1-.12,1.42-.21a3.06,3.06,0,0,1-.8,1.12A3.66,3.66,0,0,1,850.3,205.69Zm.82,1.37c-.18,0-.26.13-.3-.05.1,0,0-.19.2-.15C851,207,851.16,206.92,851.12,207.06Zm0-.2a2.83,2.83,0,0,1,1-1.38c0,.51-.1,1-.19,1.48C851.52,207,851.23,207.1,851.07,206.86Zm.92,0a2.65,2.65,0,0,1,.2-1.22c.08.1.06.31.15.4,0-.25-.12-.35-.1-.61.34.22.49.63.77.92C852.87,206.76,852.48,206.89,852,206.91Zm.4-1.58c.51,0,1-.14,1.43-.21-.15.48-.53.74-.71,1.17A2,2,0,0,1,852.39,205.33Zm.52,1.43a.16.16,0,1,1,.31,0A.54.54,0,0,1,852.91,206.76Zm1.21-1.64c-.06.49-.11,1-.19,1.48C852.5,206.78,853.46,205.6,854.12,205.12Zm-.09,1.43c.11-.38,0-.94.25-1.22,0,.12,0,.3.15.3-.08-.14-.07-.37-.15-.51.35.13.36.59.71.72a7,7,0,0,1-.56-.82c.5-.06,1-.15,1.48-.2a5.68,5.68,0,0,0-1.11,1.68C854.57,206.37,854.25,206.68,854,206.55Zm1-.2c.1,0,0-.2.2-.15s.08.09.06.2S855.05,206.52,855,206.35Zm.31-.06a2.14,2.14,0,0,1,.9-1.47C856.16,205.23,856.24,206.94,855.31,206.29Zm.86.21a3.26,3.26,0,0,0,.67-.1C856.77,206.55,856.3,206.57,856.17,206.5Zm0-.25a2.73,2.73,0,0,1,.2-1.23c0,.09,0,.21.1.26a.87.87,0,0,0-.1-.46c.31.05.39.6.61.56-.13-.22-.43-.51-.41-.72.54,0,1-.15,1.48-.2a7.12,7.12,0,0,1-.86,1.23.23.23,0,0,0-.2-.21c.06.11.14.2.2.31C857,206.12,856.66,206.24,856.17,206.25Zm.92-.16c0-.14.1-.1.1-.2a.2.2,0,0,1,.21.2Zm.2-.25a4.72,4.72,0,0,1,1-1.38,7.64,7.64,0,0,1-.25,1.53C857.7,206,857.44,206.11,857.29,205.84Zm.93.36c.1,0,.37-.13.46,0C858.55,206.22,858.37,206.29,858.22,206.2Zm0-.31a7.66,7.66,0,0,0,.15-1.23.28.28,0,0,1,.2.06.34.34,0,0,1,0-.26c.15,0,.17.3.26.16s-.18-.1-.16-.26c.5-.09,1.07-.13,1.53-.26a5.14,5.14,0,0,1-.76,1.23c-.2,0-.09-.25-.31-.21.07.13.21.18.21.36C859.13,205.88,858.65,205.92,858.21,205.89Zm1-.1a.15.15,0,0,1,.26-.16C859.5,205.78,859.36,205.78,859.23,205.79Zm.21-.2a4.25,4.25,0,0,1,1-1.49,2,2,0,0,1-.4,1.38c0,.09.15.09.2.15C859.9,205.67,859.6,205.8,859.44,205.59Zm.41.35c.09,0,.29-.13.36,0S859.88,206.05,859.85,205.94Zm.51,0c.09-.18.62-.19.76-.15C860.91,205.88,860.59,205.86,860.36,205.94Zm0-.35c0-.49.13-.82.14-1.28.1,0,.1.07.15.1.08-.15-.14-.26,0-.31l.26.26c0-.18-.18-.13-.16-.31a6.66,6.66,0,0,1,1.59-.25,6.67,6.67,0,0,1-1.12,1.07c.12,0,.12.16.21.2C861.32,205.49,860.88,205.59,860.36,205.59Zm1.07.1c.12,0,.19-.09.36-.06C861.85,205.81,861.44,205.76,861.43,205.69Zm.2-.26c-.18,0-.26.13-.31-.05.44-.39.67-1.21,1.27-1.58C862.56,204,862.19,206.2,861.63,205.43Zm.31.26c0-.19.27-.08.36-.16C862.29,205.69,862.09,205.67,861.94,205.69Zm.51-.16c.06-.05.48-.14.46.06C862.77,205.55,862.5,205.65,862.45,205.53Zm1-.51c.09,0,.15-.16.25-.05S863.47,205.17,863.47,205Zm.61.26c.12,0,.2-.09.36-.05C864.44,205.37,864.07,205.41,864.08,205.28Zm-.26-.21a.63.63,0,0,1,0-.58,1.74,1.74,0,0,1-1.36.79,3.87,3.87,0,0,1,.19-1.38.42.42,0,0,0,.11.15c0-.14-.08-.13-.06-.25.19,0,.15.2.31.2,0-.13-.21-.13-.21-.3.22-.2,1.24-.14,1.59-.26a6.82,6.82,0,0,1-.35.72c.21-.26.46-.5.6-.72C864.71,204.39,864.76,204.91,863.82,205.07Zm.77.21c.11-.22.54-.12.77-.21C865.22,205.26,864.87,205.23,864.59,205.28Zm.87-.51c0-.15,0-.42.2-.41s.18.19.21.36S865.58,204.88,865.46,204.77Zm.46-.26a.64.64,0,0,1-.36-.55c0,.15-.25-.13-.26,0a.75.75,0,0,1,.11.87c-.2,0-.43.18-.82.1a8.72,8.72,0,0,1,.25-1.33c.08.08.06.28.15.36a1.91,1.91,0,0,0-.11-.51c.21.05.21.32.41.36-.07-.17-.25-.22-.25-.46.44,0,.48.26.66.31,0-.13,0-.27.16-.26A1.45,1.45,0,0,1,865.92,204.51Zm0-1.17c.06,0,.09-.07.2-.05s0,.36-.1.46A1.3,1.3,0,0,1,866,203.34Zm.41-.05a.69.69,0,0,1-.2.91A1,1,0,0,1,866.37,203.29Zm-.15,1.33a.66.66,0,0,1,.3-.67,4.38,4.38,0,0,1,.16.67C866.56,204.65,866.33,204.72,866.22,204.62Zm.71-1.59a1.19,1.19,0,0,1-.41.62C866.43,203.3,866.5,203,866.93,203Zm.16,1.79c.22,0,.71-.24.82,0C867.6,204.72,867.31,204.94,867.09,204.82Zm-.52-1a3.89,3.89,0,0,1,.56-.77c.15,0,0,.35.11.36s0-.19,0-.2c.18.22.17.65.37.86-.07-.33-.19-.59-.27-.92a3.15,3.15,0,0,1,.43.35,1.77,1.77,0,0,1-.32-.55c.64-.05,1.14-.2,1.68-.2a4.63,4.63,0,0,1-.91,1.22l-.33-.34c.21.26.32.55.08.8C867,204.45,866.85,205.06,866.57,203.8Zm2.91-1.13c0,.38-.45,2.77-1.17,1.38C868.74,203.63,869,203,869.48,202.67Zm-1.37,1.64c.07-.08.26-.18.26.05C868.29,204.33,868.1,204.42,868.11,204.31Zm.16.31c.11,0,.14-.09.3-.06S868.27,204.69,868.27,204.62Zm.45-.06c.12,0,.4-.17.41,0C869,204.49,868.8,204.71,868.72,204.56Zm.57-.1a4.86,4.86,0,0,1,.61-.1C869.85,204.51,869.38,204.52,869.29,204.46Zm0-.31c.15-.43.11-1,.35-1.37.15.16.09.53.31.61-.06-.18-.25-.5-.16-.66a11.43,11.43,0,0,1,.78,1C870.35,204.13,869.76,204.15,869.28,204.15Zm1.23.1h0Zm.26-.83-.16.17a3.19,3.19,0,0,1-.78-1c.59-.13,1.3-.16,1.74-.3l-.17.31a2.94,2.94,0,0,1,.47-.31c-.09.53-.22,1-.29,1.58C871,203.86,870.74,203.68,870.77,203.42Zm.91.73a1.13,1.13,0,0,1,.87-.15A5.63,5.63,0,0,0,871.68,204.15Zm.87-.5c-.13-.14-.11-.41-.26-.52,0,.24.13.36.16.57a3.59,3.59,0,0,1-.77.1,3.82,3.82,0,0,1,.3-1.43,3.25,3.25,0,0,0,.31.71c.05-.27-.36-.58-.11-.71C872.16,202.33,873.2,204.12,872.55,203.65Zm-.37-1.44c.52-.14,1.16-.16,1.74-.25a4.75,4.75,0,0,1-1,1.28A6.58,6.58,0,0,1,872.18,202.21Zm.67,1.44c0-.13.08-.17.16-.21s.08.09.1.15A.39.39,0,0,1,872.85,203.65Zm.21-.21a4.53,4.53,0,0,1,1.16-1.53c-.08.52-.19,1-.29,1.53C873.66,203.52,873.21,203.68,873.06,203.44Zm.92.26a4.13,4.13,0,0,0,.66-.11C874.58,203.75,874.13,203.79,874,203.7Zm1.12-.41c-.34-.06-.6.19-1.07.15,0-.53.17-.95.24-1.43.26.13.23.56.42.77,0-.3-.17-.49-.21-.77C874.82,202.3,875.53,202.86,875.1,203.29Zm1.28.05c.28-.05.78-.15.86-.15C877.56,203.15,876.39,203.5,876.38,203.34Zm0-.31c0-.21.18-.46,0-.61,0,.26-.1.4-.1.66-.37.13-.76,0-1.07.16a1.28,1.28,0,0,1,.33-.62,1.43,1.43,0,0,1-.23.26,5.73,5.73,0,0,1-.82-1.07,9.7,9.7,0,0,1,1.84-.21,7.89,7.89,0,0,0-.71.93c.33-.41.76-.86.91-1,.07.25-.15.46,0,.61,0-.23.12-.29.1-.51.25.08.21.72.42.67-.07-.18-.29-.47-.16-.67.24.36.5.69.77,1C877.49,203,876.86,203,876.37,203Zm.56-1.58c.62,0,1-.29,1.58,0-.16.45-.51.71-.71,1.12A4.3,4.3,0,0,1,876.93,201.45Zm.92,1.28a2.42,2.42,0,0,1,1.07-1.38,4.58,4.58,0,0,1-.25,1.38C878.35,202.68,878.05,203,877.85,202.73Zm1.58-.31c0,.32-.38.19-.61.25a3.25,3.25,0,0,1,.3-1.32c.12.22.09.59.26.76,0-.33-.24-.64-.11-.92.27.42.6.73.32,1.33C879.49,202.54,879.49,202.45,879.43,202.42Zm-.06-1.38c.17,0,.38,0,.47.05,0,.25-.08.33-.05.56A.76.76,0,0,1,879.37,201Zm.32,1.48c0-.16,0-.43.15-.46.08.17.26.22.26.46Zm.41-.25a.83.83,0,0,1,0-1.18C880.15,201.46,880.39,202,880.1,202.27Zm.15-.82V201h.16C880.39,201.22,880.42,201.43,880.25,201.45Zm.35-.36c.16.33.11.78-.25.87C880.4,201.63,880.4,201.27,880.6,201.09Zm.26,1.28c-.15,0-.29.12-.4,0a.58.58,0,0,1,.3-.61,2.25,2.25,0,0,0,0,.22,3.29,3.29,0,0,1,.61-1.24,3.42,3.42,0,0,1-.25,1.57c-.16,0-.26,0-.31-.1Zm.35-1.63a1.47,1.47,0,0,1-.45.66C880.75,201,880.67,200.76,881.21,200.74Zm.11,1.83c.29,0,.72-.23,1-.1A3.15,3.15,0,0,1,881.32,202.57Zm.06-.3a3.55,3.55,0,0,1,.24-1.38,3.86,3.86,0,0,0,.42.92,6.07,6.07,0,0,0-.26-.82c.33.21.5.59.77.87A3.41,3.41,0,0,1,881.38,202.27Zm.39-1.59a5.66,5.66,0,0,1,1.79-.2,7.64,7.64,0,0,1-1,1.28C882.31,201.41,882,201.06,881.77,200.68Zm.83,1.69s.28-.11.31,0S882.63,202.48,882.6,202.37Zm.46,0c0-.17.25-.12.41-.16C883.48,202.41,883.15,202.27,883.06,202.37Zm-.31-.36c.09-.63.72-1.14,1.12-1.63a10.54,10.54,0,0,1-.3,1.58C883.24,201.93,883,202.11,882.75,202Zm.87.2c.21,0,.68-.22.77-.05C884.12,202.14,883.8,202.32,883.62,202.21Zm1.07-.45c-.05,0-.12-.28-.15-.16s.06.07.05.16a5.63,5.63,0,0,1-.87.15,5.79,5.79,0,0,1,.3-1.48c.13.15.16.42.31.56.07-.22-.23-.35-.06-.51q.38.53.78,1C884.89,201.55,884.89,201.75,884.69,201.76Zm-.42-1.53c.66,0,1.2-.2,1.84-.26-.26.52-.66.9-1,1.38A2.81,2.81,0,0,1,884.27,200.23Zm.93,1.32a5.16,5.16,0,0,1,1.17-1.58c-.09.54-.23,1-.3,1.58C885.8,201.57,885.38,201.75,885.2,201.55Zm1.94.16a3.07,3.07,0,0,1-1.07.1C886.54,201.71,887.49,201.65,887.14,201.71Zm-1-.21a5.29,5.29,0,0,1,.35-1.53,1.85,1.85,0,0,0,.31.61c0-.18-.2-.34-.05-.46.24.36.54.65.77,1A2.25,2.25,0,0,1,886.17,201.5Zm.76-1.38c.57-.27,1.07-.32,1.68-.56-.28.52-.66.93-1,1.43C887.31,200.8,887.16,200.43,886.93,200.12Zm.77,1.07a5,5,0,0,1,1.12-1.58,10.31,10.31,0,0,1-.3,1.58C888.24,201.17,887.94,201.34,887.7,201.19Zm.87.26a1.7,1.7,0,0,1,.82-.1A1.84,1.84,0,0,1,888.57,201.45Zm0-.31c.17-.5.15-1.2.45-1.58.14.39.29,1.05.52,1.18,0-.32-.35-.64-.26-.92a4.51,4.51,0,0,1,.67,1C889.73,201.08,889.17,201,888.62,201.14Zm.6-1.68c.63-.1,1.28-.19,1.89-.31a4.48,4.48,0,0,1-1.06,1.43C889.8,200.18,889.46,199.88,889.22,199.46Zm1,1.33a5,5,0,0,1,1.17-1.59,12,12,0,0,1-.35,1.59C890.7,200.75,890.39,201,890.2,200.79Zm.92.25a3.82,3.82,0,0,1,1.18-.15A4.6,4.6,0,0,1,891.12,201Zm0-.3a4.88,4.88,0,0,1,.4-1.59c.09.22.13.49.31.62,0-.15-.19-.31,0-.41.22.36.52.63.72,1C892.3,200.68,891.73,200.63,891.17,200.74Zm1.43-.51c-.18,0-.8-1-.82-1.18l1.94-.31C893.57,198.89,892.81,200.24,892.6,200.23Zm.1.15a10,10,0,0,1,1.22-1.64c0,.61-.23,1.06-.3,1.64C893.29,200.35,892.94,200.62,892.7,200.38Zm1.94-.36v.21c-.32,0-.59.09-.92.1.12-.53.11-1.19.41-1.54.09.2.09.49.3.57,0-.16-.23-.35-.1-.47C894.61,199.4,895.56,200.21,894.64,200Zm2.76-.25a2.79,2.79,0,0,1-.52-1.28l.78,1C897.53,199.56,897.6,199.79,897.4,199.77Zm1.63,0a1.22,1.22,0,0,1,.62,0C899.6,199.85,899.22,199.84,899,199.77Zm2.2-.31a4.71,4.71,0,0,1,1.43-.15A5.09,5.09,0,0,1,901.23,199.46Zm3.42-.46s-.57.16-.77.05C904.1,199,905,199,904.65,199Zm2.44-.35c-.48,0,.54-.22.42-.06Zm.11-1.34a10.57,10.57,0,0,1,.82.82C907.56,198.26,907.3,197.53,907.2,197.31Zm1.33,1.13c0-.16.4-.15.41-.1S908.65,198.38,908.53,198.44Zm.56-.16c.21,0,.65-.24.77,0C909.64,198.14,909.29,198.43,909.09,198.28Zm2.76-.4a6.38,6.38,0,0,1,1.38-.26A2.57,2.57,0,0,1,911.85,197.88Zm1.53-.31c.12,0,.21-.1.31,0S913.35,197.68,913.38,197.57Zm.36.05c.38-.31,1.08-.22,1.68-.41C915.12,197.61,914.29,197.47,913.74,197.62Zm1.73-.36c.16,0,.31-.19.46,0C915.91,197.35,915.48,197.41,915.47,197.26Zm.56-.15c.16,0,.19,0,.31,0C916.38,197.35,916,197.28,916,197.11Zm.52-.05c.57,0,1.46-.45,2.09-.21A7,7,0,0,1,916.55,197.06Zm2.14-.25c0-.16.24-.18.31-.11S918.8,196.77,918.69,196.81Zm2.15-.31c0-.17.31-.26.45-.16S921,196.42,920.84,196.5Zm.56-.21c0-.12.28,0,.3.05S921.35,196.48,921.4,196.29Zm2.7-.35a4.34,4.34,0,0,1,1.84-.36A8.22,8.22,0,0,1,924.1,195.94Zm2.91-.52c.1.2.46.13.52.36C927.34,195.89,927,195.55,927,195.42Zm.16.05c-.06-.17.38-.12.41-.05A.89.89,0,0,1,927.17,195.47Zm.61-.2c.49-.05,1.35-.44,1.69-.15C928.91,195.15,928.23,195.46,927.78,195.27Zm4-.56c0-.19.23-.15.41-.15C932.21,194.73,932,194.7,931.81,194.71Zm.52-.1c-.05-.19.2-.08.3-.11C932.68,194.69,932.43,194.58,932.33,194.61Zm.91-.16a2.84,2.84,0,0,1,1.79-.25C934.43,194.27,933.91,194.43,933.24,194.45Zm1.9-.3a8.56,8.56,0,0,1,2.14-.46C936.73,194.12,935.89,194,935.14,194.15Zm2.24-.41a.65.65,0,0,1,.46-.1C937.9,193.85,937.46,193.82,937.38,193.74Zm.56-.49h.26C938.24,194.25,937.94,193.25,937.94,193.25Zm.57.23c.19,0,2.23-.45,2.19-.2A6.61,6.61,0,0,1,938.51,193.48Zm2.24-.3a3.87,3.87,0,0,1,1.94-.26A6.77,6.77,0,0,1,940.75,193.18Zm.26-.41c.26-.29.42-1,.66-1.07C941.64,191.82,941.54,193.42,941,192.77Zm1.84,0c.12,0,.15-.09.31,0S942.85,192.89,942.85,192.82Zm.92.15c-.14-.11,0-.17-.11-.31a1.13,1.13,0,0,1,.72.36C944.09,193.3,944,192.66,943.77,193Zm1.07-.51c.42-.12.94-.15,1.38-.26A2.71,2.71,0,0,1,944.84,192.46Zm0-.36c.37,0,.79-.23,1.13-.1C945.67,192,945.1,192.29,944.89,192.1Zm0-1.07a8.64,8.64,0,0,1,1.18.77,13.63,13.63,0,0,0-1.64.2c0,.16,0,.19,0,.31h-.2a1.31,1.31,0,0,1,.1-.77.13.13,0,0,1-.16.1c-.1-.4.25-.65,0-.82C944.49,190.46,944.71,191,944.84,191Zm-1.38,0c.79-.75.6.79.66,1.33-.39.09-.1-.21-.25-.26-.29.86-1.64-.9-1.9-1.22C942.37,190.87,943.29,190.4,943.46,191Zm-1.49.15c.44.44.91.84,1.34,1.28-.55.07-1,.22-1.59.26A13.4,13.4,0,0,1,942,191.18Zm-.35-.15s.1,0,.1.05a17.89,17.89,0,0,0-.92,1.74,5.82,5.82,0,0,1-1.68-1.48C939.37,191.3,941.63,191,941.62,191Zm-2.61.51c.46.48,1,.92,1.44,1.38-.5.1-1,.2-1.53.26A10.67,10.67,0,0,1,939,191.54Zm-1,1.79a8.85,8.85,0,0,1,.77-1.43C938.75,192.75,939,193.31,938,193.33Zm.72-1.89c-.3.69-.67,1.3-1,1.94-.13-.18-.58-.65-.93-1h0a.57.57,0,0,1-.29-.31c-.12-.13-.19-.21-.17-.2C937.06,191.67,937.89,191.56,938.71,191.44Zm-2.46.76c.13.24.43.4.67.62s.51.47.46.61a11.4,11.4,0,0,1-1.28.21C936.2,193.21,936.07,192.55,936.25,192.2Zm-1,1.59a11.71,11.71,0,0,1,.66-1.38C936,193.22,936.17,193.67,935.29,193.79ZM936,192c-.39.53-.53,1.31-1,1.79a12,12,0,0,1-1.43-1.43A14.67,14.67,0,0,1,936,192Zm-2.46.67,1.34,1.22c-.44.12-.94.18-1.43.26A7.69,7.69,0,0,1,933.49,192.62Zm-1.06,1.63a14,14,0,0,1,.81-1.48C933.26,193.67,933.53,194.22,932.43,194.25Zm.76-1.89a18.1,18.1,0,0,1-1,1.84c-.4-.54-1-.87-1.38-1.43A21.81,21.81,0,0,1,933.19,192.36Zm-2.5.61c.34.52,1.11.87,1.28,1.38-.52,0-.92.17-1.43.21A9.87,9.87,0,0,1,930.69,193Zm1,1.69a3.39,3.39,0,0,1-1.22.25C930.69,194.65,931.39,194.63,931.71,194.66Zm-2.14.41c.06-.22.78-.3.87-.16A2.87,2.87,0,0,1,929.57,195.07Zm.81-1.74c0,.35.1,1.95-.76,1.33a5.17,5.17,0,0,0,.41-.82C930.13,193.64,930.47,193.08,930.38,193.33Zm0-.51a17.73,17.73,0,0,1-.92,1.79c-.4-.54-1-.85-1.38-1.43C928.82,193.08,929.58,193,930.33,192.82Zm-1.12,1.94a11.22,11.22,0,0,1-2.1.31c.33-.51.54-1.13.87-1.64C928.15,193.6,929.29,194.55,929.21,194.76Zm-1.59-1.38a2.23,2.23,0,0,1-.51,1.18c0-.39-.22-.63-.26-1A1,1,0,0,0,927.62,193.38Zm-1,1.79c-.15-.29.06-.87.15-1.23C926.79,194.25,927.34,195.22,926.6,195.17Zm-.05-1.59a4.06,4.06,0,0,1-.26,1.23c-.25-.44-.71-.68-.92-1.17C925.8,193.65,926.16,193.45,926.55,193.58Zm-1.23.36c.34.45.76.81,1.08,1.28-.41.05-.91.29-1.33.15C925.23,195,925.08,194.26,925.32,193.94Zm-1.07,1.64A14.69,14.69,0,0,1,925,194C925,194.82,925.22,195.54,924.25,195.58Zm.66-1.79c-.35.58-.61,1.26-1,1.84-.4-.53-.87-1-1.23-1.53A21.31,21.31,0,0,1,924.91,193.79Zm-2.34.46c.38.48.79.95,1.17,1.43-.46.06-.88.17-1.37.21C922.48,195.38,922.31,194.61,922.57,194.25ZM924,196c-.57.08-1.08.22-1.68.26A2.27,2.27,0,0,1,924,196Zm-2.55.06a13.49,13.49,0,0,1,.76-1.28C922.28,195.62,922.4,196,921.45,196Zm.71-1.84a5.15,5.15,0,0,1-.92,1.69c-.4-.48-.88-.86-1.28-1.33C920.67,194.42,921.41,194.31,922.16,194.2Zm-2.35.46c.17.24,1.42,1.12,1.28,1.43a8.18,8.18,0,0,1-1.38.2A10.49,10.49,0,0,1,919.81,194.66Zm1,1.68c-.13.29-.93.42-1.17.26A9.6,9.6,0,0,1,920.78,196.34Zm-1.73.41c0-.25.32-.12.51-.15C919.59,196.85,919.24,196.72,919.05,196.75Zm-.26-.35c.29-.4.47-.89.76-1.28C919.52,195.47,919.66,197,918.79,196.4Zm.71-1.74a16.77,16.77,0,0,1-.86,1.63,7,7,0,0,1-1.39-1.32C918.05,194.91,918.69,194.7,919.5,194.66Zm-2.3.56c.37.48.91.8,1.29,1.28-.46.1-1,.16-1.43.25C917.16,196.3,917,195.59,917.2,195.22Zm-1.06,1.63c.28-.41.45-.93.76-1.32C916.93,195.93,917,197.41,916.14,196.85Zm.65-1.78a5.18,5.18,0,0,1-.86,1.63,4.61,4.61,0,0,1-1.23-1.33C915.45,195.32,916.07,195.15,916.79,195.07Zm-2.29.46c0,.36,1.4,1.05,1.23,1.43-.46.07-.89.16-1.38.2A9.22,9.22,0,0,1,914.5,195.53Zm-1.07,1.73c.3-.36.48-.85.76-1.22C914.23,196.41,914.25,197.85,913.43,197.26Zm.71-1.73a13,13,0,0,1-.81,1.58c-.1,0-.12-.06-.21-.05s.21.19,0,.25a7,7,0,0,0-.56-.66.39.39,0,0,0,.26.18c-.09-.1-.91-1-.88-1C912.77,195.79,913.39,195.59,914.14,195.53Zm-2.3.51c.31.52.85.82,1.13,1.37-.41,0-.71.15-1.12.16A4.91,4.91,0,0,1,911.84,196Zm-.15,1.53c-.11,0,0-.26-.15-.31.23.38-.26.48-.46.41a9,9,0,0,1,.61-1.43C911.72,196.6,911.83,197.39,911.69,197.57Zm-.61-.56a1.89,1.89,0,0,1,.2-.77C911.42,196.52,911.18,196.81,911.08,197Zm.1-.82a5.18,5.18,0,0,0-.15.82c-.25-.09-.2-.48-.26-.77C910.93,196.25,911,196.15,911.18,196.19Zm-.4,1.58c-.58-.1-.25-1-.11-1.37C910.75,196.86,911.05,197.38,910.78,197.77Zm-.27-1.48c-.07.34-.07.74-.14,1.08-.33-.32-.85-.69-.93-1.08C909.86,196.33,910.22,196.09,910.51,196.29Zm-1.27.16c.2.26.31.6.61.76,0-.08-.24-.23-.1-.3.17.31.56.39.57.86-.18,0-.26-.32-.36-.2.11,0,.13.18.2.25a6.87,6.87,0,0,1-1.07.16A5.16,5.16,0,0,1,909.24,196.45ZM909,198a4,4,0,0,1-.82.15,4.93,4.93,0,0,1,.86-1.63A11.92,11.92,0,0,1,909,198Zm-.11-1.58c-.22.54-.54,1-.76,1.53a4.88,4.88,0,0,1-1.33-1.23C907.61,196.62,908.12,196.51,908.88,196.4Zm-2.3.41c.12.18,1.17,1.22,1,1.42a10.41,10.41,0,0,0-1.12.16A5.83,5.83,0,0,1,906.58,196.81Zm-.2,1.58a3.76,3.76,0,0,1-.86.1,7.29,7.29,0,0,1,.86-1.64C906.48,197.27,906.32,197.84,906.38,198.39Zm-.16-1.58c-.2.55-.56,1-.76,1.53a4.69,4.69,0,0,1-1.28-1.23Q905.23,197,906.22,196.81Zm-.91,1.73c-.35.06-.65-.59-.72-.82C904.79,198,905.15,198.19,905.31,198.54Zm-1.44-1.28c.44.21.83.88,1.19,1.33a9.2,9.2,0,0,1-1.23.15C903.79,198.2,903.87,197.77,903.87,197.26Zm-.14,1.53c-.26,0-.62.18-.87.06a5.86,5.86,0,0,1,.91-1.54C903.8,198,903.73,198.19,903.73,198.79Zm-.16-1.58c-.2.56-.52,1-.76,1.53a5.28,5.28,0,0,1-1.23-1.22C902.21,197.39,902.93,197.34,903.57,197.21Zm-2.3.36c.36.24.47.73.87.92,0-.08-.36-.44-.15-.31s.56.43.71.77c-.44-.06-1,.31-1.52.15C901.31,198.69,901.15,198,901.27,197.57Zm-.14,1.63c-.3,0-.63.18-.87.05a6.45,6.45,0,0,1,.91-1.58C901.19,198.22,901.15,198.71,901.13,199.2Zm-.17-1.58a10.86,10.86,0,0,1-.76,1.48,4.53,4.53,0,0,1-1.18-1.17C899.67,197.82,900.3,197.7,901,197.62Zm-.91,1.74c-.47-.16-.75-.78-.92-1.08C899.4,198.65,900,198.92,900.05,199.36Zm-1.38.15c0-.49-.07-1.09.15-1.38a10,10,0,0,1,.93,1.28c-.73.1-1.15.21-1.89.26a2.46,2.46,0,0,1,.71-1.54C898.74,198.47,898.5,199.33,898.67,199.51Zm-.26-1.38c-.3.36-.42.9-.75,1.23a6.47,6.47,0,0,1-.78-1.13C897.49,198.22,898,197.94,898.41,198.13Zm-1.22,1.69a8.44,8.44,0,0,1-.91.1,3.11,3.11,0,0,1,.39-1.53A7.54,7.54,0,0,1,897.19,199.82Zm-1.07.15c-.24,0-.67.26-.81,0a5.19,5.19,0,0,1,1.16-1.58A12.59,12.59,0,0,1,896.12,200Zm-.36-.87c-.11.16-.45.72-.61.72s-.85-1-.82-1.18c.62-.11,1.29-.16,1.89-.3A2.51,2.51,0,0,1,895.76,199.1Zm-58.48-.16a5,5,0,0,1,1.8.14c.76.26.4,0,1.17-.18a18,18,0,0,1,4-.05c3.56.05,7.11-.11,10.67-.08,13.47.11,27-.6,40.43-.69-2.57.64-5.22.85-7.81,1.33-.64-.49-2.71.46-3.83.61a1.57,1.57,0,0,1,0-.61c-.23.2-.19-.21-.41-.16-.26.87.56.8-.86,1-.85.12-1.72.11-2.57.26s-.77-.19-1.47-.09a.76.76,0,0,1-.76.56c-.21-.17.08-.9-.52-.71.56,1.27-2.54,1.18-3.37,1.32-1.44.24-2.88.47-4.33.67.1-.21-.14-1.85-.37-1.89.75,2.17-1,2.28-2.69,2.29a13.77,13.77,0,0,0-3,.62c-.19-.17.14-.85-.41-.72.23,1.18-.9.91-1.8,1.05l-3.61.58-6.3,1c-1,.17-5.24,1.24-5.49.42-.16-.55,0-4.4-.44-4.53a44,44,0,0,1,.15,5c-1,.23-2.1.37-3.14.53-.81.13-.73-.17-1-.12s0,.15,0,.3a6.23,6.23,0,0,1-2.45-.15c.25-.71.43-.1,1-.56a6.74,6.74,0,0,0,0-1.42c0-.64.27-1.64-.62-1.69,0,.49.3,2.5-.18,2.76-.28-.64.08-2-.12-2.81-1.3.18-2.61.33-3.9.57s-.8,1.75-.77,2.85c-.16.05-.2-.27-.31-.1,0,.06.09,1.39-.09,1.47a28.18,28.18,0,0,1-.71-3.36.33.33,0,0,1,0,.15,1.73,1.73,0,0,1-.07-.75c-.19-1-.33-1.88-.36-2.11-.19-1.21-.62-1.74.49-2.58C834.1,198.38,836.21,199,837.28,198.94Zm2.12,4.19c.47,0,.22,1,.21,1.28C839.24,204.29,839.47,203.56,839.4,203.13Zm.13,2.76c0-.19-.26-1.08,0-1.38C839.81,204.63,839.86,205.78,839.53,205.89Zm-9.46,36.8a3,3,0,0,1,.46,1h-.35C830.28,243.26,830,242.91,830.07,242.69Zm.11,12c0-.26.1-.44.25-.44h.35a7,7,0,0,1,0,1.45.14.14,0,0,0-.15-.09c0,.13-.16.25,0,.31-.05-.16.16-.2.2-.28,0,.2,0,.61,0,.61h-.66s0-.93,0-1.32c-.06,0-.17-.15,0-.19a.7.7,0,0,0,.21.34c0-.49.32.34.4,0A.91.91,0,0,0,830.18,254.69Zm0-.38h0Zm0,3.74c0-.23,0-.61,0-1h.38A3.94,3.94,0,0,1,830.16,258.05Zm.36.16c-.13,0-.25.2-.36.1.1-.24.11-.57.35-.66Zm-.2,1c-.07,0,0-.12-.05-.21a.45.45,0,0,1,.45.27h-.61a1.25,1.25,0,0,0-.05-.47C830.16,258.85,830.21,259.26,830.32,259.17Zm-.21-.56c.17-.57.62,0,.46-.62-.05-.16-.06-.74.14-.74h.1s0,1.33-.08,2C830.56,259,830.28,258.82,830.11,258.61Zm.7-4.8h-.48a2.54,2.54,0,0,1,.49-1A6.41,6.41,0,0,1,830.81,253.81Zm0-2q0,.5,0,1c0-.06,0,.11-.1.07a6.52,6.52,0,0,0-.45,1.4h-.05a24.89,24.89,0,0,0-.08-3.32c.12.42.61.58.47,1.1.1,0,.16-.13.21-.19s0-.3,0-.44a7.86,7.86,0,0,0-.59-.88,2.77,2.77,0,0,1,.15-.29.16.16,0,0,1-.1,0c.07-.25.1-.54.3-.66a1,1,0,0,1,0,.25c.23-.42.4-.92.06-1.27a2.93,2.93,0,0,1-.55,1.42,12.15,12.15,0,0,0,0-3.35,6.27,6.27,0,0,0,.63,1.07c-.07-.43.14-.66-.22-1,.46-.39.36,1.86.36,2,0,.86-.06,1.72-.09,2.58A.44.44,0,0,1,830.77,251.79Zm-.11-32.44c-.12-.23-.47-.21-.51-.52a2.29,2.29,0,0,1,.51-.3A1.43,1.43,0,0,1,830.66,219.35Zm.06.4c-.19,0-.41-.42-.26-.4S830.79,219.46,830.72,219.75Zm-.45-10.14c-.18-.14-.27-.81,0-.86C830.34,209.08,830.22,209.27,830.27,209.61Zm.13,3.77c-.11.21,0,.61-.3.67C830,213.81,830,213.33,830.4,213.38Zm.26,0v1c-.16.09-.36.39-.56.26C830.37,214.31,830.27,213.6,830.66,213.38Zm0,1.23v.76a.84.84,0,0,1-.57-.46C830.33,214.84,830.42,214.65,830.67,214.61Zm0,1.27c-.06-.13-.3-.35-.21-.46C830.53,215.5,830.81,215.68,830.63,215.88Zm.06,1.38,0,1.12c-.26,0-.29.25-.56.25A4.56,4.56,0,0,1,830.69,217.26Zm-.31-.36c.3.21-.09.87-.24,1.12l0-2.19C831,215.26,830.39,216.94,830.38,216.9Zm0-6.67c0-.34.54-.32.62-.06C830.79,210.19,830.54,210.34,830.37,210.23Zm.09-1.43c.14,0,.35,0,.41.15-.18.1-.27.31-.45.41A1.42,1.42,0,0,0,830.46,208.8Zm.83-4.18c-.26,0-.35-.13-.56-.16a3,3,0,0,1,.55-.87C831.4,203.89,831.23,204.22,831.29,204.62Zm0,.25c-.09.18,0,.55-.1.72a4.77,4.77,0,0,1-.47-.93A1.26,1.26,0,0,1,831.3,204.87Zm.24,4.18c.09.15,0,.49-.2.51C831.2,209.17,831.27,209,831.54,209.05Zm1.3,8.21c.07.1.22.38.31.3-.51-.31,0-1-.12-1.37-.09.15-.09.38-.2.51.09-.7-.24-1.45.45-1.79.15.37-.3.77-.1,1.18,0-.07,0-.12.11-.11v1.73c-.09,0-.13-.07-.15,0,0,.39.35.21.36.46-.23.12-.4-.25-.62-.3C833,217.61,832.78,217.34,832.84,217.26Zm.09-7.09c.09,0,.12-.11.25-.1C833.28,210.27,833,210.27,832.93,210.17Zm.28,3.47c-.15,0-.1-.17-.15-.26C833.25,213.36,833.26,213.48,833.21,213.64Zm.16.61c-.21-.16-.56-.19-.51-.61C833.16,213.7,833.14,214.11,833.37,214.25Zm0-4.89c0,.06.08,0,.15,0v.36C833.3,209.79,833.21,209.46,833.33,209.36Zm.08,8.61a13.38,13.38,0,0,1,0-2.45A20.11,20.11,0,0,1,833.41,218Zm-.09-3.31a.87.87,0,0,1-.4.3C832.58,214.53,833.3,214,833.32,214.66Zm.1,4.38c-.12,0,0-.22-.06-.31h.15C833.48,218.84,833.6,219.09,833.42,219Zm-.11-.41c-.09.13-.27.18-.41.26v-.77A.45.45,0,0,1,833.31,218.63Zm.21.61c-.07.61.18,1.53-.14,1.89C833.33,220.6,833.18,219.55,833.52,219.24Zm-.23-14.07a11.74,11.74,0,0,1,.27,1.54A3.07,3.07,0,0,1,833.29,205.17Zm.13,3.73c0,.15-.15.18-.09.41-.22-.05-.12-.28-.06-.41Zm-.55-1.77,0,0a1.58,1.58,0,0,1-.31.11c0-.12.12-.28-.05-.31,0,.1,0,.22-.15.2,0-.21-.14-.72,0-.81l.1.15a10.14,10.14,0,0,1-.23-2.85,1.82,1.82,0,0,1,.41.15c.32,1.07.34,2.28.59,3.31A.43.43,0,0,1,832.87,207.13Zm-.3,35.81c-.14,0,0-.24-.11-.21,0,.52-.26-1.12-.27-1.42.33-.07.2.32.31.46,0-.13,0-.25.1-.25a.16.16,0,0,0,.16.1C832.66,242,833,242.85,832.57,242.94Zm.12,2.74c-.14,0-.33,0-.41-.05C832.17,245.06,832.72,245.35,832.69,245.68ZM831,256.18c.33-.54,1.22-.1,1.59.34h-1.28A1.27,1.27,0,0,1,831,256.18Zm.07.34H831v0Zm.61-20.49c.42,0,.53.59.46.92a2.78,2.78,0,0,1-1.13-.87c.17-.07.29-.18.46-.25s0,.49.21.51C831.73,236.16,831.59,236.12,831.69,236Zm0-3.15a.65.65,0,0,1,.41.36c-.16,0-.18-.1-.36-.06C831.75,233,831.62,233,831.66,232.88Zm-.62-.76c.82-.54.21.06.61.25.06-.16,0-.12,0-.31a1,1,0,0,1,.77,1c-.09,0-.11.06-.2.05A4.16,4.16,0,0,1,831,232.12Zm.1.3c.17.19.52.2.47.61-.17.12-.39-.06-.57-.1C831.09,232.78,830.93,232.41,831.14,232.42Zm-.11-.81a.26.26,0,0,1,.31.2c-.11,0-.14.13-.31.1Zm.12,1.52c.11.11.34.11.46.2a.5.5,0,0,1-.61.42C831.17,233.66,830.89,233.14,831.15,233.13Zm1-1.27c-.09-.42.34-.7.55-.76,0,.49,0,1,0,1.47-.23-.14-1-.57-1.07-.81s.28-.19.45-.25C832.13,231.61,832,231.84,832.16,231.86Zm-.39-3.71a.86.86,0,0,1,.31.82C831.69,228.91,831.38,228.45,831.77,228.15Zm.26,1.12a2,2,0,0,1-.35.21c-.09-.13-.07-.49.09-.51C831.87,229.13,831.84,229.16,832,229.27Zm-.37-1.53c.11,0,.17-.13.36-.1s0,.34.05.51C831.86,228.09,831.68,228,831.66,227.74Zm.05-.2c-.17-.13,0-.38-.16-.51v.66c-1,0-.64-1.62,0-1.88a5,5,0,0,0,.06,1.12c.19-.18,0-1,0-1.17a.59.59,0,0,1,.46-.25c0,.14,0,.4,0,.75a8,8,0,0,0,0-1h.15a2.94,2.94,0,0,1,0,1.91,1,1,0,0,1-.12-.48C832.13,227.13,832,227.56,831.71,227.54Zm-.66.4c-.1-.09,0-.09,0-.25.09,0,.11.06.2.05C831.29,227.91,831.17,227.93,831.05,227.94Zm.46,0a2.32,2.32,0,0,1,.06.67,1.07,1.07,0,0,1-.52-.41A.51.51,0,0,1,831.51,227.94Zm.06,1.64c-.2,0-.36.35-.55.25l0-1.28C831.4,228.49,831.68,229,831.57,229.58ZM831,215.22c.26-.06.31-.11.56,0,0,.31,0,.62-.19.71A.57.57,0,0,1,831,215.22Zm.55-1.17V215C830.31,215,831.4,214.27,831.53,214.05Zm0,2.29c-.13.15-.36-.06-.46,0A.23.23,0,0,1,831.5,216.34Zm-.5.66c.84.09.77.9,0,1.12C831,217.88,831,217.39,831,217Zm1.27-.36c0-.35-.34-1.06,0-1.12C832.37,215.8,832.46,216.45,832.27,216.64Zm.06.67c-.22.07-.28-.23-.11-.26S832.37,217.15,832.33,217.31Zm.24,3.46c-.17-.06-.05-.4-.21-.46v.26c-.32,0-.33-1.1,0-1.12v0a.41.41,0,0,1,.3-.25C832.59,219.72,832.79,220.46,832.57,220.77Zm.1.77c-.26.05-.35-.35,0-.31A.42.42,0,0,1,832.67,221.54Zm-.46-.26c-.05-.08-.15-.56,0-.56S832.45,221.28,832.21,221.28Zm-.11-1c-.31,0-.41-.2-.51-.41.11-.07.39-.24.45-.2S832.18,220,832.1,220.31Zm-.09.82c-.38-.16-.54-.63-.27-.82,0,.23.17.21.31.26C832,220.82,832.2,221,832,221.13Zm0,.3c-.15,0-.18.2-.41.15,0-.26,0-.43.15-.5C831.8,221.23,832,221.28,832,221.43Zm-.32-1.78c0-.52-.32-1.92.34-2C832,218.27,832.4,219.48,831.69,219.65Zm-.08-2.5c.29-.06.18.27.41.26,0,.21-.23.25-.4.3C831.56,217.48,831.71,217.28,831.61,217.15Zm.4-.76c-.21-.06-.38-.16-.41-.41s.31-.19.46-.3C831.92,215.9,832,216,832,216.39Zm-.36-.71c-.07-.07,0-.22,0-.36a.64.64,0,0,1,.46.15A.53.53,0,0,1,831.65,215.68Zm-.53,8.86c.36.37.88,1.23-.09,1.37C831.09,225.48,830.89,224.8,831.12,224.54Zm.41.1c-.21-.12-.43-.22-.52-.46C831.31,223.79,831.76,224.14,831.53,224.64ZM831,224v-.26a.21.21,0,0,1,.21.21C831.15,223.94,831.12,224,831,224Zm1.08,1c-.33.08-.52-.43-.46-.77A.62.62,0,0,1,832.09,225Zm-.41-1.07c.2,0,.42,0,.41.3A.49.49,0,0,1,831.68,223.93Zm0,1.07c.26,0,.27.25.42.35-.17,0-.23.15-.36.21C831.57,225.36,831.71,225.18,831.63,225Zm.61-.41c.22.08.24.75-.09.56C832.18,225,832.06,224.62,832.24,224.59Zm.1-.1c-.08-.1-.26-.12-.2-.36C832.4,224,832.47,224.37,832.34,224.49Zm0-.56c-.31,0-.26-.56,0-.56A.68.68,0,0,1,832.34,223.93Zm0,4.48c-.35,0-.32-1.13,0-1.07Zm-.15.09c.16,0,.29.61,0,.62S832.12,228.59,832.23,228.5Zm0,.82c.32.11.14.72.27,1,.06-.24-.13-.7.09-.76.13.24.28,1.33-.08,1.42,0-.19.06-.51-.06-.61-.13.23.1.8-.25.81A4.73,4.73,0,0,1,832.23,229.32Zm.36-.71c-.13-.28-.28-1.36.08-1.48C832.65,227.66,832.81,228.21,832.59,228.61Zm.11.81c-.25.06-.21-.16-.21-.35C832.73,229,832.76,229.19,832.7,229.42Zm0,4c-.24,0-.22-.18-.25-.36.09,0,.11-.06.2-.05S832.72,233.24,832.73,233.39Zm-.2,6v-.3h.2c-.06.45.14,1.14-.09,1.42-.13,0,0-.26-.15-.3s0,.12-.15.1-.14-.32-.21-.46v.21a.74.74,0,0,1-.46-.36c.43-.1.29.07.51.1C832.08,239.39,832.2,239.26,832.53,239.38Zm0,1.58h.15c.07.08.11.45-.05.46A.36.36,0,0,1,832.55,241Zm.06-4.48c-.21-.26-.11-1.06-.07-1.42h.16A2.52,2.52,0,0,1,832.61,236.48Zm-.05.52c.21,0,.22.19.16.41C832.51,237.43,832.46,237.13,832.56,237Zm0-.16v-.15c.11,0,.19,0,.2.1S832.62,236.87,832.51,236.84Zm-.06-.55c-.41.05-.29-.85-.16-1A1.24,1.24,0,0,1,832.45,236.29Zm-.15.15c.19.1.26.64-.1.61C832.24,236.84,832.11,236.48,832.3,236.44Zm-.06-1.27a10.65,10.65,0,0,1-.07-1.63h.16C832.46,233.86,832.6,235,832.24,235.17Zm-.56.55a.45.45,0,0,1,.41-.2c0,.13.14.52-.05.56C832,235.93,831.71,235.93,831.68,235.72Zm.37,1.48c-.13.05-.18.18-.35.21a.42.42,0,0,1,.09-.51C831.79,237.08,832,237.08,832.05,237.2Zm-.45.3c-.22.06-.26.28-.56.26v-1.32C831.49,236.52,831.68,236.87,831.6,237.5Zm-.58-1.62v-.31c.18,0,.26.08.26.26C831.15,235.81,831.17,235.92,831,235.88Zm.58,1.83c0,.07-.06.26,0,.25s0-.28,0-.35.33-.35.51-.2c0,.24-.15.56.05.61.06-.22-.12-.67.1-.72.25.19.07.67.16.92.14-.14,0-.59.1-.72.26.21.2,1.19.06,1.48-.18,0,0-.23-.21-.21a.46.46,0,0,1-.09.41c-.05,0-.61.39-.72.1,0,.1,0,.21,0,.31C831,239.84,830.53,237.72,831.6,237.71Zm.54,3.6a13.45,13.45,0,0,1,0,1.48c-.35.05-.37-.22-.47-.41a.41.41,0,0,1,0,.26c-.24,0-.3-.12-.52-.11a.61.61,0,0,1,.55-.86c0,.1,0,.33.06.35C831.61,241.7,831.72,241.28,832.14,241.31Zm-.36-.4a.26.26,0,0,0,.26.2c0,.16-.2.21-.36.26C831.72,241.14,831.64,240.92,831.78,240.91Zm-.62-1.37c0,.14.24.06.2.25-.16,0-.11.16-.3.1C831.09,239.77,831,239.49,831.16,239.54Zm-.08,2.23c.06-.41-.14-1.08.09-1.32C831.64,240.88,832,241.49,831.08,241.77Zm.54-1.21a.8.8,0,0,1-.56-.46c.18-.08.25-.26.51-.26C831.67,240,831.6,240.32,831.62,240.56Zm.41,4.66c0,.17,0,.24,0,.36s-.31,0-.36-.15C831.77,245.37,831.81,245.21,832,245.22Zm-.31-.3a.21.21,0,0,1,.31.05A.2.2,0,0,1,831.72,244.92Zm.27,1.57c-.11.13.36,1.28-.35.86C831.57,246.92,831.61,246.55,832,246.49Zm-.34,2.39c.22,0,.14.2.31.2,0,.17-.14.2-.3.2C831.59,249,831.77,249.11,831.65,248.88Zm0-.92a.31.31,0,0,1,.31.15C831.79,248.12,831.61,248.14,831.64,248Zm.11.66c.24-.06.36,0,.31.26A.35.35,0,0,1,831.75,248.62Zm.3-.71c-.14,0-.29-.08-.31-.25a.27.27,0,0,1,.25-.15C832.06,247.61,832.17,247.79,832.05,247.91Zm0,1.37c0,.95.17,1.61-.38,2.24a4.4,4.4,0,0,1-.11-.83c0,.29,0,.59,0,.88-.21-.08-.29-.39-.3-.74a.89.89,0,0,1-.12.48c-.14-.26-.23-1.29,0-1.47a6.3,6.3,0,0,1,.08.78c0-.43,0-.8.28-1v.63C831.59,249.78,831.71,249.34,832.06,249.28Zm0,2.69c-.07-.14-.31-.1-.31-.3.13,0,.15-.15.3-.15S832.14,251.92,832,252Zm-1-.05v-.4h.15C831.21,251.76,831.34,251.89,831.07,251.92Zm.46.25v.36c-.23,0-.22-.35-.46-.26C831,252,831.38,252.17,831.53,252.17Zm.47.92c0,.18-.79.53-1,.66,0-.43,0-.85,0-1.27C831.34,252.46,831.73,252.86,832,253.09Zm-.67-1c0-.2,0-.32.25-.3C831.61,252,831.57,252.18,831.33,252.12Zm.06-4c-.17-.08-.06-.26.1-.3C831.46,247.91,831.58,248.16,831.39,248.11Zm-.09,1.42v-.91C831.69,248.55,831.68,249.6,831.3,249.53Zm.13-2c-.23-.1-.09-.56,0-.81h.15C831.62,246.91,831.63,247.42,831.43,247.51Zm-.13-3.66c.05-.17-.16-.08-.26-.1s0-.19.1-.2S831.55,243.75,831.3,243.85Zm-.07,3.66c0,.16,0,.38-.15.35C831.11,247.72,831,247.43,831.23,247.51Zm0-.81v.56C831,247.3,831,246.64,831.22,246.7Zm0,1.72c0,.29.2,1.13-.09,1.27C831,249.34,830.94,248.49,831.19,248.42ZM831,254.3h1.68c0,.62-.17.8-1.05,1.32-.13,0,0-.24-.1-.2s0,.17-.1.15c-.31-.09,0-.5-.21-.66,0,.17.07.44-.1.46A1.16,1.16,0,0,1,831,254.3Zm.12,1.17c.14.08.16.48,0,.5S830.86,255.42,831.15,255.47Zm1.28,1.54h.29a3.15,3.15,0,0,1,0,.44c-.27,0-.36-.16-.46-.31A.86.86,0,0,1,832.43,257Zm-.36-1.18c0,.21-.34,0-.3-.11a4.08,4.08,0,0,1,1-.61v1.28A.88.88,0,0,1,832.07,255.83Zm-.79-2c.39-.54,1-.81,1.43-.22a1.55,1.55,0,0,0,0,.22Zm.35-1.13c.06-.24-.12-.73.1-.81a.58.58,0,0,1,.44.51.59.59,0,0,1,.54.3,2.74,2.74,0,0,1-.51.36C832,253,832,252.82,831.63,252.68Zm1.11-1.57v1.27C831.9,252.42,831.91,251.18,832.74,251.11Zm-1.6-8.38c.6.41.12.43.51.77.09-.12-.07-.39.05-.56.2,0,.45,0,.46.25C832,243.92,830.66,243.55,831.14,242.73Zm.63-2.74a1,1,0,0,1,.42.71v-.3c.13,0,.16.08.26.1C832.48,241.76,831.29,240.34,831.77,240Zm.77-5a3.45,3.45,0,0,1,0-1.32h.15C832.71,234,832.93,234.89,832.54,235Zm0-7.93a2.1,2.1,0,0,1,0-1.42A1.46,1.46,0,0,1,832.57,227Zm.14-1.52c-.2,0-.26-.16-.26-.36C832.71,225.09,832.71,225.21,832.71,225.51Zm-.26-.67c.12,0,.19,0,.2.1s-.09.08-.2.06Zm0-.61c.33,0,.24.18.26.46C832.43,224.73,832.43,224.48,832.44,224.23Zm.15-.25c-.4,0-.08-.73,0-.82C832.69,223.32,832.79,223.91,832.59,224Zm-.11-.87a2.78,2.78,0,0,1-.08-.38.66.66,0,0,1-.22.53c-.14-.12,0-.54-.11-.66-.05.34.19,1-.4,1,.05-.71-.4-1.8.39-2,0,.08,0,.27.06.26s0-.37.14-.36a3.67,3.67,0,0,1,.14.79.53.53,0,0,1,.18-.38C832.73,222.11,832.81,223,832.48,223.11Zm.12-4c-.23.08-.09-.21-.26-.2,0,.22,0,.43-.2.41v-1.79c.28.32.08.76.26,1.22a4.39,4.39,0,0,0,0-1C832.94,217.85,832.58,218.75,832.6,219.14Zm-.17-1.78c.22-.06.31.14.21.25S832.42,217.52,832.43,217.36Zm.1-.61c-.21-.09-.07-.52-.11-.77h.2C832.67,216.14,832.8,216.75,832.53,216.75Zm-.12-1.53c0-.14.06-.41,0-.46v.51c-.31.09-.2-.25-.31-.36v.26c-.21,0-.24-.1-.41-.1a3.79,3.79,0,0,1,0-.77c.14-.05.82.4.82.41v-.21C832.63,214.61,832.89,215.36,832.41,215.22Zm.1-.77c-.15,0-.19-.64,0-.66S832.81,214.42,832.51,214.45Zm0-4.74c0-.43,0-.55.1-.71C832.65,209.22,832.63,209.6,832.46,209.71Zm.09-1.12V209C832.35,209,832.39,208.62,832.55,208.59Zm-.4,5.86c-.09-.16.05-.25-.11-.35,0,.13,0,.3-.1.3s-.33-.27-.36-.35c.12-.51.64,0,.56-.46C832.43,213.55,832.49,214.5,832.15,214.45Zm-.57-.86c.07,0,.26-.06.26,0s-.07.14-.21.1A.23.23,0,0,0,831.58,213.59Zm.22-3.52c0-.25.21-.2.2-.4a4.25,4.25,0,0,1-.61.4c-.06-.35.31-.27.2-.66.26,0,.17-.44.56-.36C832.2,209.29,832.24,210.07,831.8,210.07Zm-.21-1.07c-.1-.09,0-.16.1-.2A.11.11,0,0,1,831.59,209Zm.56,0c-.11,0-.34.06-.36-.05.2,0,0-.24.1-.31C832.16,208.6,832.22,208.74,832.15,209Zm-.63-1.43a1.22,1.22,0,0,1-.09.82,4.38,4.38,0,0,1,.14-1.89,9.62,9.62,0,0,1,.46,1Zm0,6.17c-.18-.06-.1.43-.51.41v-.72C831.14,213.33,831.48,213.59,831.48,213.74Zm-1-4.23c.23-.16.37-.4.61-.56C831.05,209.22,830.77,209.57,830.52,209.51Zm.56,0a.59.59,0,0,1-.1.46c0-.08-.12,0-.2,0A.36.36,0,0,1,831.08,209.46Zm.49,8.56a12.2,12.2,0,0,1-.09,1.84C830.72,219.88,830.68,218,831.57,218Zm-.08,2.7c-.16-.15-.38-.23-.51-.41.17-.16.31-.3.56-.15C831.51,220.33,831.61,220.63,831.49,220.72Zm-.51-.66v-.2a.33.33,0,0,1,.21,0C831.19,220,831.11,220.07,831,220.06Zm0,.56c.5.06.64.48.57,1.12-.23,0-.29.24-.56.25A7,7,0,0,1,831,220.62Zm.57,1.27a10.93,10.93,0,0,1,0,1.73A.92.92,0,0,1,831.55,221.89Zm0,7.89v.28c0-.33.19-.6.5-.64-.17.7.41,1.89-.39,2a5.83,5.83,0,0,1-.1-.64v.84C830.73,231.68,830.71,229.8,831.58,229.78Zm0,3.91c.09,0,0,.24.11.26-.07-.28.05-.58.4-.51,0,.32.34,2.35-.49,1.88v.3C830.56,235.62,830.91,234,831.56,233.69Zm.22,23.67c-.35.15-.38.45-.76.52v-.63h.67c.06,0,.1.12.14.27.68-.28.9.28.93.82s-.25.91-.5.91H831C830.66,258.25,831.42,258,831.78,257.36Zm.93-4c-.25.05-.2-.21-.41-.2,0-.2.2-.28.41-.3C832.67,253.1,832.84,253.25,832.71,253.39Zm-.58-2.23c.15-.7-.13-1.44.14-1.93C832.9,249.51,833,251.51,832.13,251.16Zm.54-1.78c-.09-.12-.27-.16-.35-.3.15,0,.17-.2.4-.15C832.69,249.06,832.79,249.33,832.67,249.38Zm-.51-.4v-.31c.18,0,.31,0,.36.16C832.33,248.81,832.39,249,832.16,249Zm.56-.81c-.58.45-.88-1,0-1.17A5,5,0,0,1,832.72,248.17Zm-.57-1a2.58,2.58,0,0,0,.14-.86c.21,0,.29,0,.46,0C832.89,246.77,832.68,246.94,832.15,247.15Zm.4-39.22c.08-.21-.17-.51.05-.51.11.16.49.05.51.3S832.8,207.92,832.55,207.93Zm.71,10.9c0,.55-.33,2.94.18,3.16-.05-.1-.24-.54,0-.61.16.08.17.74,0,.82s-.91-.58-.52-.92a.23.23,0,0,0,.2.2c-.44-.36,0-1-.06-1.42-.1.19-.14.43-.25.61C833,219.91,832.61,219.32,833.26,218.83Zm-.23,19c.27.07.32.81,0,.81C833,238.42,832.91,238,833,237.86Zm.2-.1c-.36.07-.27-.58-.26-.71C833.07,237.25,833.38,237.47,833.23,237.76Zm-.28-3.1v-.76C833.35,233.84,833.4,234.67,833,234.66Zm0-1.58c.08.25.29.36.27.72C832.9,233.87,832.83,233.17,833,233.08Zm.19,4.12c-.33-.25-.2-.93.05-1.17A5.49,5.49,0,0,1,833.17,237.2Zm-.2-1c.14-.5-.2-1,.28-1.43A2.43,2.43,0,0,1,833,236.19Zm.59-1.07,0,2.94c-.12,0-.37-.2-.21-.35,0,0,.11.26.16.1A3.2,3.2,0,0,1,833.56,235.12Zm-.21-.66a.42.42,0,0,1-.05-.31c.14,0,.22.09.2.26A.18.18,0,0,0,833.35,234.46Zm.21,0a.54.54,0,0,1-.25.62C833.29,234.81,833.28,234.52,833.56,234.5Zm-.17,3.61c0,.12.17.1.15.25-.14,0-.1.11-.2.11S833.24,238.12,833.39,238.11Zm.2.41a.68.68,0,0,1-.3.61v-.46C833.4,238.63,833.44,238.52,833.59,238.52Zm-.24-4.77c0,.13.24.09.25.25C833.44,234,833.19,233.87,833.35,233.75Zm.15.1c-.26-.25-.17-.86-.27-1.28v.67c-.63-.17,0-2,.34-2.14A18.47,18.47,0,0,1,833.5,233.85Zm-.18-2.75c0-.17,0-.41,0-.51h.2A.58.58,0,0,1,833.32,231.1Zm0-.87a.33.33,0,0,1,.21.06c0,.16-.13.14-.2.2Zm-.36-1.11c.26.2.23.68.57.81a3.07,3.07,0,0,1-.23-1,4.74,4.74,0,0,1-.09.48c-.49-.32-.06-1-.11-1.43-.1.18-.12.42-.25.56.12-.4-.23-1.72.39-1.72,0,.14,0,.35.11.35,0-.19-.11-.53.14-.5a2.26,2.26,0,0,1,0,.65.69.69,0,0,1,.07-.15c0,1.09,0,1.92,0,3C833.27,230,832.59,229.49,833,229.12Zm0,.81c.32,0,.44.82,0,.77C833,230.43,832.91,230.05,833,229.93Zm.29-7.12c.12.05-.14.26.1.25,0-.17-.07-.44.15-.41a4.78,4.78,0,0,1-.55,1.53C832.89,223.75,832.73,222.83,833.25,222.81Zm-.32-.77a.39.39,0,0,1,0,.77C832.89,222.64,833,222.34,832.93,222Zm.24,3.42a1.15,1.15,0,0,1,.09-1.48C833.2,224.44,833.4,225.16,833.17,225.46Zm-.26-.31c.24.21.23.69.57.81a4.3,4.3,0,0,1,.08-2.75c-.07.92,0,1.92,0,2.9A.81.81,0,0,1,832.91,225.15Zm.63,1.27c-.07,0-.1.07-.21.05s0-.19.1-.2S833.52,226.35,833.54,226.42ZM833,226c.15.23.5.83-.09.77C833,226.48,832.82,226.05,833,226Zm.2,4.84a2.15,2.15,0,0,1-.39,1.68C833.11,232.07,832.61,230.89,833.22,230.8Zm0,7.92c.19.6-.05,1.46-.34,1.58C833.18,239.94,832.72,239.05,833.19,238.72Zm.07,2.59c.12-.63-.41-1.54.34-2.23,0,1.13,0,2,0,2.94-.18,0-.32-.06-.31-.25s.19.17.2,0a1.24,1.24,0,0,0-.25-.4c0,.14,0,.33,0,.4-.4-.07-.16-.47-.32-.76C833.1,241,833.06,241.29,833.26,241.31Zm-.17,8.43c-.13-.08-.16-.52-.06-.66a6.05,6.05,0,0,0,.57.91c-.24,0-.35-.14-.31-.35C833.19,249.64,833.23,249.78,833.09,249.74Zm0,.15c.22.13.2.73-.1.76C833.05,250.42,832.86,250,833.09,249.89Zm0-3.14c.08.09.07,1.33-.14,1.21C833.06,247.75,832.85,246.92,833.11,246.75Zm.38,2.94c-.19-.43-.09-.58-.41-.66-.11-.2-.13-.46.1-.56s0,.14.1.15c0-.51-.11-1.24.29-1.52A15.33,15.33,0,0,1,833.49,249.69Zm.06.66c-.1,0-.13.11-.25.1v-.36A.29.29,0,0,1,833.55,250.35Zm.05.2c-.11.21-.14.5-.3.66C833.31,250.9,833.2,250.47,833.6,250.55Zm-.09-4.92c0-.13-.29-.37-.06-.46a.14.14,0,0,0,.15.1C833.6,245.42,833.65,245.62,833.51,245.63Zm-.49-2.44c0-.1,0-.2,0-.3.29-.1.27-.26.61-.36C833.58,242.69,833.3,243.49,833,243.19Zm0-.5c0-.25-.13-.74.09-.82.18.23.22.31.52.36A1,1,0,0,1,833,242.69Zm.23,8.06c0,.54.11.95-.19,1.22C833,251.84,832.82,250.69,833.2,250.75Zm-.09,1.32c.1-.16.1.15.15,0a1.4,1.4,0,0,1,.35-1l0,2.74A1.65,1.65,0,0,1,833.11,252.07Zm-.1,1c.17.24.3.52.46.77h-.34A.56.56,0,0,1,833,253Zm.58,2.07c0,.4,0,.9,0,1.41h-.55a1.82,1.82,0,0,1,0-.74.72.72,0,0,1-.13.15v-1.07c.27,0,.29-.28.56-.3a2.12,2.12,0,0,1-.23.82A1.44,1.44,0,0,1,833.59,255.11Zm0,1.9c0,.3,0,.59,0,.84a2.21,2.21,0,0,1-.42-.84Zm-.61.18c.27.16.34.51.47.82-.27,0-.29-.26-.51-.31C833,257.53,832.91,257.29,833,257.19Zm.11.71c.08.26.47.22.51.51-.25.1-.37.34-.65.4C832.93,258.65,832.84,257.86,833.11,257.9Zm.46.71c0,.1-.08.35-.16.62H833V259C833.24,258.92,833.28,258.64,833.57,258.61Zm.06.56v.06h-.08S833.6,259.18,833.63,259.17Zm-.65-4.46a1.9,1.9,0,0,0,0-.41h.61l.06,0A5.25,5.25,0,0,1,833,254.71Zm0-55.82a1.51,1.51,0,0,1-.7.88C832.11,199.2,832.58,199,833,198.89Zm-.95,1.49c.09.25.42,1,0,1.12C832.06,201.19,831.86,200.58,832.07,200.38Zm-.16,5.1a.85.85,0,0,1,0-1.33A4.57,4.57,0,0,1,831.91,205.48Zm-.29-3.42h.16c0,.19.1.54-.15.51C831.59,202.36,831.7,202.15,831.62,202.06Zm.22.72c-.1.5.26,1.22-.24,1.48C831.65,203.73,831.42,202.94,831.84,202.78Zm-.24,2.45c.46.33.43,1.14.48,1.88A1.77,1.77,0,0,1,831.6,205.23Zm-.2-5.31c.08.1.1.48-.1.46C831.3,200.19,831.27,200,831.4,199.92Zm0,.66c.06.1,0,.38,0,.61-.14,0-.2-.14-.2-.3A.45.45,0,0,1,831.41,200.58Zm-.2.66a2.7,2.7,0,0,1-.38,2.71A23.53,23.53,0,0,1,831.21,201.24Zm-.73-1.63c.09.12-.09.29-.31.26C830.15,199.65,830.35,199.67,830.48,199.61Zm-.41.26c.21.42-1.35,1.6-1.58,1.83-.63.66-1.14.24-1.87,0A20.37,20.37,0,0,1,830.07,199.87Zm-16.39,10.45c-.2.14-.4.28-.61.41C813,210.41,813.36,210.05,813.68,210.32Zm1.19,1a2.07,2.07,0,0,1-1.18-.25c-.17.07-.54.2-.62,0a3.23,3.23,0,0,1,2-.92C815,210.35,814.91,211,814.87,211.29Zm-.32-1.37c2.44-1.57,4.78-3.3,7.16-5,1.28-.9,2.57-1.77,3.89-2.59.43-.26.71-.8,1.28-.54a1.93,1.93,0,0,0,.86.33c-2.74,2.24-5.86,4.33-8.82,6.43C817.35,209.71,816.35,209.53,814.55,209.92Zm3.62-.31c0,.26.16,1.33-.4,1.23C817.88,210.19,817.25,209.66,818.17,209.61Zm-.39,1.89c-.09-.14-.1-.54.09-.56a1.83,1.83,0,0,0,.37.46A.9.9,0,0,1,817.78,211.5Zm.6-.72c-.13-.23-.16-1,.09-1.22A4.66,4.66,0,0,1,818.38,210.78Zm.26-.05c-.67-1.84,2.76-1.67,4-1.78-.07,1.51-.28,1.21-1.77,1.47A9.43,9.43,0,0,1,818.64,210.73Zm1.17.36c.16-.13-.15-.42.1-.46C819.87,210.77,820,211.11,819.81,211.09Zm.31,0c-.1-.09-.09-.49.1-.46C820.17,210.77,820.33,211.11,820.12,211.09Zm.36.25c-.17-.12-.08-.49-.11-.76a20.84,20.84,0,0,1,2.24-.26C823,211.55,821.28,211.26,820.48,211.34Zm2.4.06a2,2,0,0,1-.06-1.17H823C822.91,210.59,823.11,211.2,822.88,211.4Zm-.07-2.5H823c-.06.38.14,1-.09,1.22A5.28,5.28,0,0,1,822.81,208.9Zm.32,2.09c-.26-.83.24-1,1-.92,0,1.25.41.12.42.66A6.26,6.26,0,0,1,823.13,211Zm1.67-1.63a1.63,1.63,0,0,0-.76,0c.35.82-.41.62-.92.71,0-1-.31-1.18.87-1.36,1.48-.23,3-.44,4.42-.68-.45.62-3,.67-3.67.72A1.39,1.39,0,0,1,824.8,209.36Zm4.76,1.07c-.17-.09-.53,0-.51-.26h.61C829.71,210.34,829.58,210.33,829.56,210.43Zm-.51-.41c0-1.17-.08-.84.85-1.22C829.81,209.37,829.85,210.25,829.05,210Zm0-1.27c.4-1.54-3.81-.41-4.39-.32-2.17.34-4.34.71-6.52.93,2.44-1.66,4.82-3.42,7.22-5.15a25,25,0,0,0,3.15-2.35,20.48,20.48,0,0,1,2.5-2.35,26.46,26.46,0,0,1-.34,3.21c-.08.53-.16,1.06-.23,1.59a.54.54,0,0,0-.61.15.38.38,0,0,0,.56.26c0,.51,0,1.19-.1,1.85.12-.63.32-1.26.41-1.65.77.75.4,2.64.39,3.83-.78.05-1-.6-.91-1.4C830.06,208.08,829.76,208.66,829.08,208.75Zm1.11,12.72c-.29-.15,0-2.09-.14-2.48.22.75.88,1.14.57,2a5.39,5.39,0,0,0-.54,1.5C829.76,222.16,830.56,221.67,830.19,221.47Zm.36,2.1c0-.13-.15-.15-.16-.31s.18.22.26.06c0-.32-.44-.28-.52-.56.17-.16.46-.19.51-.46a5,5,0,0,1-.46.25,4.19,4.19,0,0,1,.5-1.37c.17,6.92.16,15.14.06,22.52-.09-.27-.33-.39-.37-.71.19,0,.23.31.36.15-.06-.33-.47-.31-.56-.61.14-.2.56-.15.55-.51-.18.1-.29.25-.5.31,0-.6.56-1,.44-1.63-.2.53-.36,1.1-.6,1.58a9.49,9.49,0,0,0,0-3.56c.31.24.42.68.67,1,0-.35-.28-.37-.31-.66.18,0,.23.32.36.15,0-.4-.52-.3-.57-.66.2-.14.52-.16.56-.46-.22.06-.33.21-.51.3,0-.66.57-1,.44-1.67-.25.44-.36,1.29-.65,1.53a11.9,11.9,0,0,0,.07-3.46c.24.27.35.68.62.91,0-.28-.26-.35-.31-.61.16-.05.2.27.31.11-.05-.32-.43-.28-.51-.56.09-.23.42-.22.5-.46-.22,0-.32.19-.51.26,0-.47.4-.82.3-1.23a4,4,0,0,1-.45,1.12,10.81,10.81,0,0,0,0-3.5,11.31,11.31,0,0,1,.62,1c0-.29-.22-.43-.31-.66.15,0,.2.27.3.1,0-.33-.47-.28-.51-.61a1.09,1.09,0,0,0,.55-.41c-.24,0-.27.2-.51.21.09-.56.49-1.07.45-1.58-.25.37-.32,1.2-.6,1.37.39-1-.08-2.29,0-3.3.35.16.38.64.67.86-.07-.18-.2-.31-.26-.51s.19.21.26,0-.47-.25-.52-.55c.1-.16.52-.26.46-.41-.22,0-.25.19-.46.2.11-.55.51-1.08.44-1.63a10.54,10.54,0,0,1-.59,1.58,8.65,8.65,0,0,0,0-3.51C830.26,223,830.31,223.4,830.55,223.57Zm7.68,75.68-7,13.73-8.55-13.35.06-.38Zm-8.46-45h.14c0,1,0,2,0,2h-.13Zm0,3h.13c0,1,0,1,0,2h-.12Zm-5-3h4v2h-4Zm0,3h4v2h-4Zm-2-3h2v2h-2Zm0,3h2v2h-2Zm4.43,64.32-4.5,10-.14-16.14Zm-24.29-95.86h0s5.77.13,9.94,3.6l-3.63,4.06.78.7,3.62-4s0,0,0,0a35.89,35.89,0,0,1,6.47,8.95,19.28,19.28,0,0,1-11.77-4.78A19,19,0,0,1,802.91,225.71Zm5.45,73.54.55,35.82c-1.44.12-2.88.29-4.33.4L786.7,313.86l.23-1.81,8.8-12.8Zm-16.59-114-6.72,9.34-.25-8.75Zm-7-1.81-.21-7.26,7.15,8.92Zm.26,39.8h-1.27l0-1H785Zm0,.22,0,1H783.7l0-1Zm0,1.17,0,1h-.5l-.87-.95H785Zm0,1.18v.34l-.31-.34Zm-.93-.22h-.46v-.49Zm.2.22.72.78h-1.4v-.78Zm.78,1.61.24,8.69-3.5,3-.15-8.82Zm6.3-4.19h-1.78v-1h.84Zm-.49-.95h.49v.5Zm-1.29,3.31v-1h1.78v1Zm1.78.22v.78h-1.78v-.78Zm-1.78-1.39v-1h1.78v1Zm-3.82-2.14-.13-4.65,4.58,4.65Zm1.83,3.31v-1h1.78v1Zm1.78.22v.78h-1.78v-.78Zm-1.78-1.39v-1h1.78v1Zm0-1.18v-1h1.78v1Zm-1.74,2.35,0-1h1.54v1Zm1.52.22v.78h-1.49l0-.78Zm-1.55-1.39,0-1h1.58v1Zm0-1.18,0-1h1.61v1Zm4,76-6.36,10.39-.14-10.39Zm-5.9-56h-2l-.07-3.86,3.5-2.94.19,6.76Zm1.31-39.72,0-.95h1.11v.95Zm1.08.21v1h-.31l-.72-.16h0l0-.8Zm-1.11-1.38,0-1h1.14v1Zm-1.5,117.55,13.5,16.16c-4.5.33-8.5.64-13.5.94Zm13.12-76.66h-10l-.52,0-.21-7.54,9.41-8.06Zm-1.33-15.86-9.37,8-.23-8.11h9.47Zm-2.52-3-.95-1h1.32v1Zm.37.21v.17l-.16-.17Zm-1.53-1.39-.25-.25v-.71h1.78v1Zm-.24.22,1,1h-1v-1Zm1.16,1.17.61.62v.34h-1.78v-1Zm.61,1.18v.78h-1.78v-.78Zm.55,0,.78.78h-1.11v-.78Zm-.33-.22v-.12l.12.12Zm.78.22h1v.78h-.23Zm1-.51v.29H794.2l-.57-.58v-.38h1.72Zm-.07-.88h-1.71v-1h1.63Zm-.1-1.18h-1.61v-1h1.53Zm-.1-1h-4.42L785.67,217l-.28-10,8.49-.24Zm-6.79-19.67v.95h-1.76v-.95Zm-1.76-.22v-1h1.76v1Zm1.76,1.38v1h-1.76v-1Zm0,1.17v.29l-1.33-.29Zm2-2.33v.95h-1.77v-.95Zm-1.77-.22v-1h1.77v1Zm1.77,1.38v1h-1.77v-1Zm0,1.17v.73l-1.77-.39v-.34Zm2-2.33v.95h-1.76v-.95Zm-1.76-.22v-1h1.76v1Zm1.76,1.38v1h-1.76v-1Zm0,1.17v1h-1l-.78-.17v-.78Zm1.56,1.52-1.59-.36h1.57Zm0-.57h-1.3v-1h1.22Zm-.09-1.16h-1.21v-1h1.13Zm-.1-1.17h-1.11v-.95h1Zm-.1-1.17h-1v-1h.94Zm-.09-1.11h-8.21l-.17-6.15,7.07-9.81Zm-1.32-16.14-7.6-9.49-.28-9.9,6.23-.86Zm-9.48,18.42v-.95h1.76v.95Zm1.76.21v.87l-1.18.09h-.58v-1Zm-1.76-1.38v-1h1.75v1Zm1.55-41.66v-.88l.69.13v.94l-.68-.13s0,0,0-.06Zm0-1.09v-.1h0v-.86l.69.13v1Zm0-1.15v-.13h0v-.82l.61.11.08.11v.85Zm.07-1.14,0-.18-.31,0v-.61l.62.82Zm-.1,3.64.7.14V162l-.75-.25v-.32C784.15,161.26,784.16,161.11,784.18,161Zm4.59-1.44v.95l-1.66-.32-.07-.09v-.87ZM787,159V158l1.73.32v.95Zm1.09,2.53-.84-1.11,1.48.28v.95Zm.64.33v.52l-.45-.61Zm-1.1-.42-.63-.12v-.72Zm.18.24.84,1.11-1.65-.31v-1Zm1,1.36.32.42-2.48-.84Zm-2-3.24-.55-.73.55.1Zm0-.83-.74-.14-.83-1.1,1.57.29Zm-1.2-.23-.54-.1V158Zm.18.25.83,1.1-1.55-.29v-.95Zm1,1.34v.95l-1.74-.33v-1Zm0,1.16v.94l-1.54-.29-.2-.07v-.91Zm3.55,2.37-.65-.21-.39-.52,1,.19Zm-.06-.75-1.17-.23-.17-.23v-.75l1.26.24Zm-.1-1.19-1.24-.23v-.95l1.16.21Zm-.09-1.18-1.15-.21v-.95l1.07.19Zm-.1-1.18-1-.2v-1l1,.18Zm-.1-1.18-4.85-.89L784,156l-.24-8.47,5.26-.69Zm-6.21-11.24-.06-2.44,4.42,1.86Zm5.24-.67-5.32-2.24-.19-6.8,4.17-7.3Zm-1.41-17.23,0,.33-4.14,7.25-.2-6.86Zm-4.94,31.85.48.63-.85.11v-.71Zm-.37-.18v-.3l.22.28Zm.74.14.28,0v.42Zm.28-.24-.43,0-.59-.77v-.14l1-.09Zm0-1.18-1,.1v-1l1-.09Zm0-1.18-1,.1v-1l.93-.09Zm-1.09-28.3.3,0,.23,8.14-.57,1Zm-.05,9.74.6-1,.15,5.43-.77.09Zm0,4.91.78-.1.07,2.55-.86.11Zm0,3,.87-.12.2,7.19-1.1-1.45Zm0,6.14,1.12,1.48,0,1.86-1.19.12Zm0,3.68H782v1H782Zm0,1.18H782v1h0l0,0Zm0,1.44.08.1v.6H782Zm0,.92H782v.71H782Zm0,4.91,1.47-.2.24,8.69-1.74-2.17Zm0,6.82,1.76,2.2.22,8.16-.46,0-1.56-2.21Zm0,8.74,1.19,1.69-1.2.1Zm0,4.47.18,0-.18.23Zm0,.72.62-.78,1.51-.12.27,9.8-2.46,3.42Zm-.06,12.89,2.48-3.43.14,5h-2.63Zm0,1.73h.67v1h-.67Zm0,1.17h.67v.95h-.68Zm0,1.16h.68v1h-.68Zm0,3.36,2.81-.11.25,9-3.09-3.14Zm0,6.24,3.1,3.26.16,5.65h-1.21l0-1.79-2.12-.76Zm.33,13.91h2.73l-3.07,2.56,0-1.28Zm-2.27,72v9.26l-5.16-9.26Zm-13.93-56,9.26-7.69-.16,7.69Zm9.52-19.82,0,1h-1.66v-1Zm-1.68-.22v-1h1.7l0,1Zm1.65,1.39,0,1h-1.63v-1Zm0,1.18,0,.78h-1.61v-.78Zm-2.56-21.08v-1h1.76v1Zm1.76.21v.43l-1.76.14v-.57Zm-1.76-1.38v-.95h1.76v.95Zm0-1.17v-1h1.76v1Zm-2.35-1.11,5.56-7-.14,7Zm.37,3.45v-1h1.76v1Zm1.76.21v.58l-1.76.13v-.71Zm-1.76-1.38v-.95h1.76v.95Zm0-1.17v-1h1.76v1Zm-2,2.34v-1h1.76v1Zm1.76.21v.73l-1.76.13v-.86Zm-1.76-1.38v-.31l.51-.64h1.25v.95Zm.1-.95-.1.13v-.13Zm-.1-.22v-1h1l-.75,1Zm.67,0,.76-1h.33v1Zm5.25,1.17v-.95h1.07l0,.95Zm1,.21,0,1h-1v-1Zm-1-1.38v-1h1.09l0,1Zm0,2.55h1v.35l-1,.07Zm4.69,38.34h-2.18l2.16-1.83Zm0-2.17-2.65,2.17h-1l.18-8.33,3.34-2.78Zm-.11-12.55,0,3.28L776,234.56l.16-7.31h2.22ZM777,145l-4.42.53,4.57-8Zm.23,30.05,1.56,2.23,0,6.41-1.72.14ZM777,145.38l-.05,2.49-4.47-2Zm0,41,.19.05,1.57-.14,0,3.88-1.87,2.36Zm1.74,4.33-.05,10.5h-2l.16-8.12Zm-2,13.95v-1h1.74l-.69,1Zm.9.21-.16.22-.74.05v-.27Zm.39,0h.47v.14l-.61,0Zm.15-.21.32-.45v.45Zm-1.44-1.17v-.95h1.76v.95Zm0-1.17v-1h1.76v1Zm0-43.28-.29,0v-1l.31,0Zm0,.21,0,1-.26,0v-1Zm0,1.18,0,1-.24,0v-1Zm0,1.17v.86l-.22,0v-.87Zm2,45.58v2.54l-2.09-2.12v-.34Zm0,3,0,8.8-2.23-2.45.17-8.47Zm0,9.26v.88l-1.84.53.1,1.37h-.6l.11-5.12Zm-1.73,2.78.07,1h-.7l0-1Zm.09,1.18.07,1h-.82l0-1Zm.09,1.17.06,1h-.92l0-1Zm.08,1.18.06.78h-1l0-.78Zm1.76-66.71v1l-.5.05v-1Zm-.51-.16v-1l.52,0v1Zm.5,1.34v1l-.5,0v-1Zm0,1.18v.8l-.49.06v-.81Zm.06-12.12-.78-1,.78-.1Zm-.79-18.84.87-.06v3.17l-1,1.68Zm-.11,5.45,1-1.69-.05,10.48h0l-1.09.13Zm-.19,9.36.84-.1-.87,1.52Zm0,2.09,1.15-2,0,2.39-1.07.15-.07-.1Zm0,.88h0l1.13,1.54,0,5.8-1.24-1.67Zm-.13,6.24,1.24,1.64v1.56l-1.31.13Zm-.07,3.54.58-.06v1l-.6.06Zm0,1.18.61-.06v1l-.63.06Zm0,1.17.63-.06v1l-.65.06Zm0,1.18.66-.06v.81l-.68.09Zm.29,5.11,1.25-.2.09,2-1.34-1.8Zm1,2.34,0,7.67-1.56-2.21.15-7.26Zm-5.23-40.43c1.41.92,3.44,2,3.44,2l.26,0-.13,6.27-4.95,8.66Zm-1.44,17.66,4.77,2.08-.09,4.56-4.72-6.22Zm-.07.89,4.73,6.27-.09,4.5-5.57.56Zm2.38,14.51v-1l1.74-.17v1Zm1.74.05v.86l-1.74.22v-.92Zm-1.74-1.22v-1l1.74-.17v1Zm0-1.17v-1l1.74-.17v1Zm-1.94,2.53v-1l1.73-.17v1Zm1.73,0v.93l-1.19.14-.54.06v-1Zm-1.73-1.21v-.95l1.73-.18v1Zm0-1.17v-1l1.73-.18v1Zm-1.39-.81,1.18-.12v.95l-1.26.13Zm-.09,1.17,1.27-.12v1l-1.35.13Zm-.1,1.18,1.37-.14v1l-1.45.14Zm-.1,1.17,1.47-.14v1l-1.54.14Zm-.19,2.33,5.89,2-.14,6.81-5.79-8.21Zm-.08,1.06,5.82,8.25-.2,10-7.17.59ZM769,184.65l7.13,1.59-.16,7.45-6,7.56h-2.35Zm-1.37,16.76h1v1h-1Zm-.1,1.17h1.05v.4l-.44.55h-.69Zm1,.95,0,0v0Zm0,.21v1h-1l.76-1Zm-1.15,0H768l-.61.76Zm-.1,1.33.13-.16h1.12v.88l-1,.07h-.35Zm-.09,1,7.8,1.28.65,0-.17,8.33-8.32-9.1Zm-.07,1,8.34,9.18-.12,6h-9.45Zm4.52,18.46v-1h1.78v1Zm1.78.22v.78h-1.78v-.78Zm-1.78-1.39v-1h1.78v1Zm0-1.18v-1h1.78v1Zm-2,2.35v-1h1.78v1Zm1.78.22v.78h-1.78v-.78Zm-1.78-1.39v-1h1.78v1Zm0-1.18v-1h1.78v1Zm-2,2.35v-1h1.78v1Zm1.78.22v.78H767.7v-.78Zm-1.78-1.39v-1h1.78v1Zm0-1.18v-1h1.78v1Zm-1.78-1h1.57v1h-1.65Zm-.1,1.18h1.67v1h-1.74Zm-.12,1.45,0-.28h1.76v1H765.7Zm0,.9h1.79v.78H765.7Zm-.19,1.47h9.77l-.17,8-9.77,8h-1.15Zm-25.74,72h8.35l-8.35,11.83Zm13.27,0h15.87l8.45,12.82-21.42,26.34c-5.54.19-11.07.35-16.6.43l.14-21.37Zm-41,39.51q-4.94-.11-9.86-.28l.66-27.4,7.54-2.57,3.31,28.32ZM695.77,238.25h36v5h-36Zm26.42,16-21.7,8.46-7-8.46Zm-38.08,46.9-.37,36.5-3-.18v-38Zm-4.34,5.1v4h-5v-4Zm-5-2v-4h5v4Zm5,7v4h-5v-4Zm0,5v4h-5v-4Zm0,5v4h-5v-4Zm0,6v4h-5v-4Zm0,5v4h-5v-4Zm0-33.36v.36h-5v-3.2Zm-34.69-43.74,7.37,4.83,9.23,6c.21.17-.08.34-.24.29s-16.32-10.94-16.52-11-9.66-7.28-9.66-7.28ZM635.51,248l9.11,6.28,7.7,5.12,9.95,6.32c.12.42-.29.17-.29.17l-9.74-6.28s-7.62-5-7.78-5.16S635.51,248,635.51,248Zm25.76,18.72s-16.56-10.86-16.77-11l-9.16-7.45c.13.08,9.28,7.11,9.28,7.11l8.16,5.41,8.57,5.7C661.52,266.64,661.27,266.76,661.27,266.76Zm-17-10.9,16.81,11c0,.12-.13.2-.25.12L644,256l-8.78-7.48Zm16.66,11.38.63-.25.93.69L665,277l-7.36-4.68c-.56-.32-13.86-15.73-13.86-15.73C645.44,257.25,660.91,267.24,660.91,267.24ZM664.6,273l-.38-1h1l.46,1Zm1.12.46.71,2-1.37-.46-.38-1.62Zm-.5,4.18.31,1.19L659.92,275,658,272.92Zm0-2.18,1.37.37.71,2.71-1.66-1.17Zm2.16,3.74.21.92-1.45-.79-.3-1.13Zm-2.32-9.49,11.19,7.83-3.87,4.37-4.54-3Zm12.81,6.79-13.23-8.7s-.13-.42,0-.29,13.27,8.86,13.52,9.11Zm.62,1.79-.91.87s-.21-.83,0-.91S678.24,277.62,678.49,278.25Zm-1.16-1.88-.29.13-12.36-8.16,0-.37Zm-.58.21-.21.21-11.69-7.91-.09-.33Zm-.34.42c.13.41,0,.25,0,.25l-11.56-7.91-.05-.29Zm.46,1,.29-.38L677,279l-1,.08Zm-2,5.21,2.06-2.39-.12,1.49-.19.42-.69.48Zm5-1.47.12,1a4.14,4.14,0,0,1-2.25,0l-.37-.37.06-.75A18.4,18.4,0,0,1,679.83,281.78Zm-2.5-.53,1.18-1.31,1.25,1.31Zm2.31-2,.06,1.56-.87-.93S679.39,279.1,679.64,279.22Zm-.31-.43c-.34.33-2,2.08-2,2.08l0-.75,1.46-1.71C679.33,278.12,679.33,278.79,679.33,278.79Zm-.46-2.25-.09.17-14.18-9.45-.13-.33Zm-15.36-9c.54.13.54.71.75,1.17s.75,2.79.75,2.79l-1,0-.95-3.08S663,267.47,663.51,267.59ZM641,251.45s10.24,6.66,10.45,6.86S663,265.47,663,265.47c.25.38-.45.21-.45.21l-11.24-7.16s-6.2-4.12-6.86-4.53-9.32-6.33-9.32-6.33Zm2.71,4.58,1.79,1.16-1.83-.66L635,248.7C635.63,249.27,643.71,256,643.71,256Zm20.06,29.14h-.32l-12-13.37s-11.11-13.11-11.3-13.67l-1.31-1.69-3.06-4.93-1.62-2.43,3.87,4.37,4.26,5.43s19.5,21.88,21.5,24.46Zm-29.59-36.38s1.12.83,1.42,1.08,5,5.28,5,5.28l2.58,3s5.53,6.16,5.78,6.61,8.16,10.57,8.45,11.16L645.5,262.35l-5-5.91-5.21-6.24Zm31.38,34.46h-1.65l-7-8.39-8.24-10.71-7.55-8.56-5.56-5.88-1.24-1.13s8.42,7.18,9.17,8.11,13.61,15.48,13.86,15.86,8.42,10.61,8.42,10.61Zm.45,0-6.24-7.76,5.83,4,1.08,3.78Zm1.08-.14L666.3,280s1.17.42,1.46.92a10.34,10.34,0,0,1,.58,2.08Zm1.58-.12-.37-2,2.66,2.08Zm2.83-.17-3.32-2.41-.25-.92,4.24,2.83Zm.79.25.42-.54.54.54Zm.73-.79,2.62-2.68,1.06-.19-.12.69L673.9,283Zm6.75,55v.15a10.49,10.49,0,0,0-1.92-.15Zm88,.72,12-16.22v15.53s-.84.06-1.28.09C774.92,337.6,771.38,337.79,767.81,338Z"/></g></g></svg>