<svg xmlns="http://www.w3.org/2000/svg" viewBox="0 0 1097.48 270.08"><defs><style>.cls-1{fill:#dedede;fill-rule:evenodd;}</style></defs><title>Ресурс 8</title><g id="Слой_2" data-name="Слой 2"><g id="Layer_3" data-name="Layer 3"><polygon class="cls-1" points="1097.48 3.22 1093.31 3.37 1086.83 2.13 1080.35 0.82 1073.8 1.91 1067.28 2.69 1060.79 1.62 1054.27 0 1047.75 1.03 1041.25 1.7 1034.74 2.16 1028.32 3.88 1022.02 4.06 1015.62 4.03 1009.3 4.73 1003.32 7 997.13 8.28 990.55 8.29 984.92 11.61 978.82 13.3 971.67 11.61 965.89 14.4 959.93 16.66 953.29 16.24 947.23 18.13 940.68 20.8 933.61 19.14 926.8 20.4 919.93 21.32 913.02 20.12 906.13 20.71 899.15 19.89 892.2 20.36 885.3 21.62 878.81 24.33 871.65 24.03 865.74 27.41 859.63 30.06 854.69 34.72 846.91 34.47 843.06 40.69 836.47 42.53 830.21 44.95 825.59 49.84 819.29 52.19 813.57 55.47 807.93 58.99 800.19 58.22 794.1 60.51 788.52 64.79 781.9 66.17 775.01 65.05 768.3 67.93 761.57 67.2 755.07 64.9 748.28 65.07 741.59 64.34 735.22 62.33 729.23 59.24 722.02 60.03 716.41 56.09 709.46 55.79 704.19 51.29 696.31 53.03 690.98 48.78 684.25 47.73 678.75 43.94 672.85 41.02 666.15 39.89 659.41 38.91 654.07 34.57 647.54 33.12 640.76 32.39 634.21 31.2 627.47 30.75 621.53 27.32 614.72 27.34 608.6 23.61 601.76 23.79 594.94 25.11 588.24 23.26 581.42 25.27 574.62 22.52 567.93 25.3 561.15 25.27 554.48 26.68 547.67 26.51 540.86 26.66 534.3 28.62 527.17 26.76 520.78 29.79 514.02 30.43 507.65 32.24 501.08 33.23 494.63 30.24 487.97 32.03 481.91 28.55 475.18 29.75 468.78 28.76 462.06 29.34 456.17 25.94 449.31 27.37 443.12 25.43 436.88 23.75 430.67 21.6 424.08 22.46 417.7 21.54 411.19 22.04 404.8 20.92 398.25 23.21 391.87 21.59 385.43 21.63 378.98 19.47 372.59 23.48 366.12 21.84 359.39 23.41 352.67 20.81 345.98 20.14 339.09 23.67 332.6 19.39 325.84 19.78 318.95 22.21 312.41 18.95 305.57 20.88 298.84 21.48 292.14 21.46 285.33 18.49 278.73 21.52 271.82 20 265.33 21.96 258.76 24.32 252.03 23.61 245.36 21.3 238.67 23.13 231.96 23.82 225.27 23.98 218.74 21.61 212.12 20.92 205.34 22.22 198.87 19.6 192.19 19.56 185.55 19.01 178.76 21.01 172.16 19.63 165.51 18.77 158.83 21.14 152.13 18.59 145.6 21.9 138.97 21.99 132.29 19.56 125.94 21.1 119.57 22.5 113.01 20.86 106.65 22.7 100.27 24.41 93.74 23.01 87.31 23.73 80.83 23.28 74.38 23.43 68.03 26.06 61.47 23.83 55.1 25.68 48.72 27.36 42.14 25.19 35.58 26.94 29.09 28.72 22.45 29.07 15.86 29.99 9.16 30.26 2.16 28.51 0 28.73 0 270.08 108.2 270.08 109.76 269.47 113.83 270.08 126.48 270.08 129.85 269.09 136.49 268.46 143.19 268.25 150.02 269.1 156.34 265.86 162.91 264.64 169.8 265.87 176.47 265.48 183.03 264.2 189.42 261.55 196.26 262.39 202.88 261.54 209.54 260.84 215.95 258.37 222.5 257.03 229.19 256.56 235.79 255.49 242.37 254.34 249.53 256.45 255.6 252.41 262.55 253.25 269.27 252.75 275.66 250.58 281.9 247.64 288.73 247.73 295.65 248.33 302.21 247.04 308.5 244.3 315 242.65 321.61 241.63 328.83 243.9 335.33 242.35 341.72 240.04 348.18 238.1 354.71 236.57 361.55 237.01 368 234.86 375.05 236.84 381.53 234.88 388.13 233.72 394.78 234.09 401.16 232.19 407.64 231.12 414.23 230.98 420.66 229.37 427.21 228.85 433.91 229.93 440.18 226.56 446.96 228.58 453.3 225.84 459.81 224.83 466.6 227.27 473.03 225.38 479.63 225.62 486.29 226.65 492.76 225.19 499.2 223.19 505.75 222.72 512.39 223.75 519 224.31 525.49 223.03 532.05 222.74 538.63 223.06 545.05 219.78 551.71 221.69 558.18 219.65 564.82 221.17 571.37 220.79 577.9 219.56 584.47 219.67 590.97 217.79 597.6 219.68 604.14 219.02 610.71 219.2 617.28 220.1 623.83 218.83 630.36 216.73 636.93 216.49 643.51 217.67 650.07 217.96 656.62 216.21 663.2 218.56 669.75 217.44 676.32 215.6 682.88 218.52 689.49 215.43 696.13 218.93 702.74 218.1 709.34 217.04 715.91 214.95 722.52 214.75 729.13 215 735.86 217.59 742.48 217.17 748.97 214.25 755.6 214.51 762.19 213.87 768.92 215.37 775.58 215.68 782 212.71 788.62 212.4 795.36 213.62 801.82 211.5 808.49 211.76 814.97 210.02 821.61 209.9 828.13 208.57 834.74 208.15 841.55 209.73 848.01 207.83 854.41 205.57 861.16 206.4 867.8 206.23 874.45 206.13 880.91 204.36 887.6 204.57 893.98 202.25 900.85 203.89 907.32 202.27 913.57 198.89 920.29 199.33 927.02 199.79 933.78 200.48 940.26 198.98 946.5 195.66 953.04 194.61 959.89 196.06 966.32 194.11 972.73 192.02 979.33 191.47 986.19 193 992.91 193.42 999.53 193.04 1005.92 190.84 1012.67 191.56 1019.19 190.29 1025.67 188.81 1032.16 187.34 1038.79 187.01 1045.33 186.02 1051.98 185.85 1058.58 185.44 1064.93 182.44 1071.81 184.66 1078.22 182.21 1085.04 183.99 1091.39 180.9 1097.48 182.94 1097.48 3.22"/></g></g></svg>