<svg xmlns="http://www.w3.org/2000/svg" viewBox="0 0 1097.48 284.2"><defs><style>.cls-1{fill:#ebebeb;fill-rule:evenodd;}</style></defs><title>Ресурс 9</title><g id="Слой_2" data-name="Слой 2"><g id="Layer_3" data-name="Layer 3"><path class="cls-1" d="M1097.48,0c-5.13.74-10.07,1.43-14.72,1.88-2.29.22-4.27-.3-6.33,0-4.76.69-9.64,3.09-14.47,3.93-3.75.65-7.39.55-10.85,1.57-.91.28-2.74,1.22-3.61,1.58-10.22,4.2-21.57,6.39-32.57,9.44-1.23.34-3.08.33-4.51.79-1.27.4-2.35,2-3.63,2.36-3.58,1-7.19.88-10.85,1.57-1.45.28-2.93,1.31-4.51,1.58-1.9.31-4.47-.39-6.34,0-3.05.63-6,2.49-9,3.15-13.51-1-20.39,3.76-30.75,5.5-3.54,4.36-9.94,3.42-15.37,4.72-1.78.43-2.76,1.87-4.52,2.36s-3.72.35-5.43.79c-4.14,1.08-7,2.84-10,3.93-11.71,4.4-27.4,5-38.88,8.66-3.66,1.18-6.31,3.19-10,3.93-2.07.43-4.63-.27-7.23,0-2.07.22-4.38,1.34-6.33,1.57-4.49.55-9.26,1.19-13.57,1.58-9.14.82-18.81,2.28-28,0-4.25,4.46-13.13,2.78-18.08,4.72-.34.13-.48,1.43-.91,1.58-6.91,2.37-14.38,2.23-21.7,3.93-9.84,2.29-18.81,4.23-29.84,4.71a10.75,10.75,0,0,0-3.62-.78c-1.27.11-1.74.67-3.62.78-7.84.49-17-.12-25.33.8-5.19.57-9.57,2.87-14.46,3.14-7.12.38-14.05-2.33-20.8-1.57-4.78.53-10.18,2.7-15.37,4.72-4.86,1.89-10.06,5.36-14.47,5.51-3.5.11-5.7-2-7.24-2.37-1.1-.29-2.5.27-3.62,0-2-.45-3.16-1.27-5.42-1.57-7.78-1-14.27.15-22.61,0q-17-.28-32.55-1.57c-5.93-.48-11.75-.1-17.19-.79-1.46-.18-2.92-1.18-4.52-1.57-6.57-1.6-12.5-1.79-18.09-3.15a8.26,8.26,0,0,0-4.52-.78c-2,.06-3.62.45-6.33.78-10-3.45-19.83-.37-29.85,0-1.1,0-1.84-.72-3.61-.78-4.79-.18-8.16,1.54-12.66,1.57-7,0-14.3-2.9-19.9-2.37-2.33.23-3.81,1.41-6.33,1.58-4.78.32-10.26-.47-15.37,0-4.92.45-9.42,2.51-13.57,2.36-6.28-.22-13.25-4.83-19-4.72-2.61-1-5.28-.23-8.13-2.36-13.36,0-25.68-3.16-37.09-5.5-11.67-2.4-22.86-4.79-32.55-9.45-4.37.14-5.58-2.48-8.14-3.93-12-.34-19.25-4.76-28-7.87-4.79-.62-10.85-3.73-13.57-4.72-8.22-3-21.91-1.87-32.55-2.36-8.39-.39-16,.24-22.62,0-2.24,1.72-8.17.23-9.94,2.36-13.42-1.12-23.44,1.13-37.08,1.57-3.87,1.62-9.13,2-13.57,3.15s-8,3.1-12.65,3.93c-10.53,1.89-22.87.05-33.47,1.58a31.25,31.25,0,0,0-9.94,3.15c-3.76.66-8.84.18-10.86,2.36-9.85-.71-16.65,1.25-23.51,3.15C47.32,53.52,23.83,54.81,7.5,49.87A54.7,54.7,0,0,0,0,51V284.2H1097.48Z"/></g></g></svg>