<svg xmlns="http://www.w3.org/2000/svg" viewBox="0 0 1132.08 375.17"><defs><style>.cls-1{fill:#333;}</style></defs><title>Ресурс 4</title><g id="Слой_2" data-name="Слой 2"><g id="Layer_3" data-name="Layer 3"><path class="cls-1" d="M1132.08,131.34l-1.91-.56c0-3.82-.08-7.65-.11-11.47l.78-.11q-.35-11.07-.67-22.15c-4.61-25.94-11.12-49.61-23.16-68.12l-5-6.52c-4.71-6.61-9.69-13.28-16-18.33-1.68-1.35-6.2-4.45-9.33-4-3.77.49-6.3,2.15-9.44,2.81q1.13,5.9,2.24,11.8c2.15,9.76,3.18,20.68,6.86,28.78L923.21,118c.06,1.55,1.31,3.65,1.91,5.17q2.48,6.41,4.94,12.82c.94,2.29,1.36,4.87,3.15,6.29,0,4.79-.15,6.73-1.8,9.78l-14.16,1.13c1.65,2.65.86,8.45-.56,11.35l-.79.79,3.38-.45q-.35,6.34-.68,12.7l-1.35.79c.07,3.74.23,6.53,1.8,8.77l-2.71,1.8a36.38,36.38,0,0,1,.66,4.83v.44h-4.47c-.08-1-.15-2-.23-3q-15.12-.12-30.24-.25-23.88,29.38-47.77,58.78c.22,3.18.45,6.36.67,9.55l9.67,2.24c.72.83.35,4.93.28,7.73a5.69,5.69,0,0,0-3.16,1,59.34,59.34,0,0,0-31.49-1.08,4.47,4.47,0,0,0-.76.22l-5.88-1.8c-3.93-1.21-7,1.54-7.62,4.84h-1.15c-3.17-2.2-5.62-5.34-8.15-8.82l-.12-.15.43-.54-.53.41c-4.19-5.57-10.18-8-17.16-7.52-7.92.58-15.79,3-23.53,4.66l-27,5.93a6.62,6.62,0,0,0-4.73,6.22c-.71.49-1.4,1-2.09,1.57l-.44.35a25.72,25.72,0,0,0-31.45-7.86,6.56,6.56,0,0,0-3.17,6.36,14.13,14.13,0,0,0-3.12,1.68,6.26,6.26,0,0,0-7.5-6.18q-16.09,2.43-32.3,3.91v0l0,0q-4.74.43-9.51.79a79.78,79.78,0,0,0-7.59-6.71,56.92,56.92,0,0,1,1.58,7.14q-7.26.48-14.53.79a7.55,7.55,0,0,0-1.45-1.79l6-10.46H562.3a4.7,4.7,0,0,0-3.77-1.19c-5.54.19-11.08.59-16.61.79-.3-.26-.59-.6-.88-.6h73v-4H543.33a6.19,6.19,0,0,0,1.29-4.25c3.35-3.42.14-10.93-6-9.79-5.61,1-11.11,2.11-16.72,3.14-.23-8.08-.91-16.44,1.09-23v-.19a5.07,5.07,0,0,1-1.67-1.36c-1.16,1.61-2.62,2.33-5.49,2.28-.07-1.94-.19-3.88-.25-5.88h1.55c-.58-4-1.16-8.63-1.75-13q-42.64-17.88-85.31-35.73c-2.4-9,.81-16.45-4.28-23.31-11-.16-10.6,4.58-14.57,11.08a79.25,79.25,0,0,0-9.14,23.91q-1.54,13.31-3.11,26.63l2.14.37.39,6h-1.36c-.17,4-1.67,5.21-1,7.59l2.33.59q-.35,21.39-.7,42.8l-2.14-.49a5.46,5.46,0,0,0-.89-.13A13.85,13.85,0,0,0,387.43,266a15.48,15.48,0,0,0-5.7,5.41c-.3-.11-.59-.23-.9-.33l.06.29-.78-.5a6.49,6.49,0,0,0-4.55-.87q-.37-.07-.78-.12-4.83-.43-9.65-.49c1.7-3.43-.23-8.75-4.91-8.46a127.45,127.45,0,0,0-21.79,3.28,48.48,48.48,0,0,0-11.85-.23,6.15,6.15,0,0,0-2.71,0l-11.16,2.28a6.08,6.08,0,0,0-3.82-1.56l-4.16-.41-3.59-69H304v-10h-7v-3h-3v-3h-2v3h-3v3h-6v10h2.55l-1.46,18.22-.07.18v.69l-3.39,41.91a62.5,62.5,0,0,0-11.69,0q-5.68,0-11.38,0c-.34-2.6-2-4.84-5.22-4.42A7,7,0,0,0,251,252h-.21c-5.44.75-10.92,1.7-16.26,2.85a5.21,5.21,0,0,0-3.52-1.3,83.73,83.73,0,0,0-26.65,4.84,6.05,6.05,0,0,0-3.7,3.94l-3.07.69a5.08,5.08,0,0,0-3.85,4.05,10.56,10.56,0,0,0-2.09-.79,5.35,5.35,0,0,0-4-4.62,13.16,13.16,0,0,0-6,0,27.11,27.11,0,0,0-23.18,1.52,7.34,7.34,0,0,0-3,3.33,37.63,37.63,0,0,0-17.64.24,6.21,6.21,0,0,0-3.89,2.88,27.51,27.51,0,0,0-9.38.85,6.71,6.71,0,0,0-4.74,7.06,78.6,78.6,0,0,0-15.07,3.77q3.63-2.64,7.27-5.27a162.8,162.8,0,0,0-16.87,5.64,13.7,13.7,0,0,0,3.22-7.49,45.11,45.11,0,0,1-11.19,8.59,14.12,14.12,0,0,0-.62-10.45q-1.43,4.25-2.86,8.47a78.35,78.35,0,0,0-14.25-14.35,58.81,58.81,0,0,1,2.24,13.34,62.74,62.74,0,0,0-14.62-3.5c1.19,2.29,2.39,4.56,3.58,6.85-.19-.38-2.09-.77-4.66-1.12-3.69-11.56-18.69-15.38-29.82-11.12l-.6.25A16.79,16.79,0,0,0,17,268.42c-5.57-.05-10.14,3.17-11.5,8.65a13.75,13.75,0,0,0,.06,6.44C2.58,283.24,0,283,0,282.93v92.24H1096V285.59a94.55,94.55,0,0,0,1.44-18.59,2.38,2.38,0,0,0-1.21-2,5.91,5.91,0,0,0-1.23-4.17,5,5,0,0,0-2.53-1.77c-1.48-3.27-4-5.06-8.24-4a43.89,43.89,0,0,0-11.07-.47,16.39,16.39,0,0,1-8.28-1.36c-2.36-1.06-4.5-2.18-7.13-2.45-2-.22-4.83.64-7.43,1.12q-1.46-6.43-2.89-12.86c-9.29-41.44-18.82-82.9-28.11-124.34.63-.71,1.68-1.42,1.68-2.14v-.11c-1,.23-2.39.45-3.71.68.15-3.45.23-6.9.38-10.34-.87-.27-1.67-.53-2.67-.79v-.12c18-8.84,35.12-17.68,52.58-26.52,3.79-1.91,7.67-3.83,11.45-5.74,2.89-1.47,4.8-3.36,9.27-3.26.3,1,.62,2,.93,2.93l3.26,2.13c.79,1.54,1.59,3.08,2.37,4.61q3.44,6.91,6.86,13.83l7.2,12.14q5.4,8.93,10.79,17.87c.19,3.11.58,6.22.77,9.34-.56.63-1.48,1.27-1.48,1.9v8.55c0,.3,1.29.6,2,.9.15.82.09,1.65.24,2.47,1-.07,1.72-.15,2.72-.22V297.17h2V142.69c3-.29,3.59-2.29,5.68-3.93C1131.53,135.4,1130.94,134,1132.08,131.34ZM117,281.71a14.11,14.11,0,0,1,3-3.2,6.35,6.35,0,0,0,1.43,3C120,281.66,118.33,281.65,117,281.71Zm171.22-18.34a6.16,6.16,0,0,0-1.59-6.2H292v6.56ZM292,201.56l-4.67-6,4.67,0Zm0,1.91-6.13,7.84L287,197.09Zm0,1.89v7.81h-5.76Zm0,9.81v6.91l-5.66-6.91Zm0,19h-7l7-8.78Zm0,1v8.3l-6.94-8.3Zm0,21h-8.86l8.86-10Zm11.15,8.14-4.49-.25,4.18-5.66ZM294,187.17h8.27v7H301V194l-.73.22H294Zm0,8.38,4.12,0L294,200.81Zm0,7.8,5.58-7.13.8,15.51L294,203.57Zm0,2.77,5.69,7H294Zm0,9h5.56L294,221.23Zm0,8.44,6.62-7.53.85,16.52L294,223.91Zm0,2.7,6.58,7.86H294Zm0,8.86h6.56L294,242.28Zm0,9.38,7.68-8,.92,17.81-8.6-9.24Zm0,2.9,7.89,8.72H294Zm7.59,9.72-4.82,6.65H294v-6.64Zm-17.59-63v-7h8v7Zm1.44,22.12,6.4,7.45-7.71,8.8Zm-1.63,20.17,7.79,8.37-9.25,9.61Zm235-6.92c.45.26,1.23.52,1.23.78v16.26l-3,.55V237.7c0-1.77.66-5.79-.28-6.8C517.37,230.45,518.12,230,518.77,229.54Zm-4.15,2.63H515v15.42c-4,.77-8,1.54-13,2.31V230.51A17.65,17.65,0,0,0,514.62,232.17Zm-35-28.47c9.13,3.82,18.38,7.64,27.38,11.46v9.14c-1,.45-2.7.9-4.06,1.36l-2.32-3.11-2.53.38c0,3.63,1.18,4.95,1.75,7.39q-.22,10.06-.46,20.14l-3.26.6c-3.36.62-6.73,1.22-10.09,1.83Q479.82,229.46,473.6,206Zm-20,53.3q2.22-9.56,4.45-19.1c.41-.42.67-.4,1.55-.39l-.51,18.39Q462.37,256.38,459.64,257Zm4.25-21.83c.65-3,1.3-5.31,1.95-8,.26,2.66.52,5,.77,8Zm-20.1,38.68a6.1,6.1,0,0,0-1.13.48,7.92,7.92,0,0,0-1.43-2.31c-2.76-3.09-6.84-3.7-10.74-3.42l-10-6.14c-2.74-1.69-5.69-.77-8,1a43,43,0,0,0-3.87,3.45l-7-1.61q.25-16,.49-32.1c.07-3.69.13-7.38.2-11.07.32-.65,1.64-1.17,1.55-2.33-.27-3.62-1.56-7-1.36-11.47l3.89.58q8.06-14,16.13-28l41,17.1c.57,2.26,2.13,4.32,2.52,6.22q-2.71,14-5.44,28-2.32,12.81-4.64,25.61c-1.23.32-2.47.64-3.69,1-6.65,1.89-4.54,10.9,1.48,11.19l-.18,1-5.25.34A5.74,5.74,0,0,0,443.79,273.85ZM469,255.27l1.71-35.64,1.74-.19q3.88,17.25,7.75,34.51l-1.45.26Q473.85,254.56,469,255.27ZM947,141.68v-3.14c1-1.58,1.12-3.15,1.65-4.72.72-1.18,10-5.1,12-6.08,8.77-4.34,17.8-8.69,26.56-13,3.29-1.68,7.84-5.27,12.84-5.17v3.37c-1,.3-1.88.6-2.7.9,1.36,2.14.09,5.56-.34,8.55a5.1,5.1,0,0,1,2.3,1.23c0,.12,0,.23.09.34a5,5,0,0,1-3.84.9c-.08.34-.16.67-.23,1,.52.65,1.4,1.27,1.57,2.25L994,137.75l-9.33,30.91q-13.92,46-27.83,92.07l-1.11-.11c1.37-4.53,2.24-9.07,4.24-13.6v.15h-5.2c2.64-6,2.87-10.28-2.93-12.5-.56-1.28.09-4.11.23-5.68.38-4.92.75-9.86,1.12-14.76q1-13.38,1.91-26.78l1.92-6c-.08-1.61-.15-3.23-.23-4.84l.9-11.81,3.26-.45L959.29,163l.9-9,1.8-1.8-15.14-.68C945.25,147.5,946,145.35,947,141.68Zm-25,45.53c0-1.2,1.11-2.4,1.79-3.6.3-1.61.48-3.22.77-4.83-.52-.56-1.1-1.12-1.63-1.68.3-3.79.57-7.57.87-11.36l28.76-1.12c0,3.78.08,12.66-2,14.27l1.35,8.32q-.86,8.72-1.69,17.43-1.7,10.56-3.37,21.13c-.12-1.31-.23-2.66-.34-4-1.38-8.45,2.07-14.63,2-22.63h-2.7c-.07-2-.15-3.57-.22-5.36-4.91.11-9.82.07-14.73.18-3,.36-6.65-.82-9.22.18H922Zm-9.47,12.25c.87-.75,5.7,0,7.31-.22L942,199v2.48l-30.36.67C911.86,201.27,912.3,200.36,912.53,199.46Zm-71.5,52c-.93-.26-1.87-.44-2.81-.7a1.08,1.08,0,0,1-.11-.18q17-20.3,34.06-40.56c4.16-5,8.32-10.21,12.48-15.23,1.2-.15,2.4.39,3.6-.61h.44C872.81,213.17,856.92,232.42,841,251.45Zm9-4c1.39-1.48,3.43-2.22,6.41-2.13l2.59,2.59q-.35,8.15-.68,16.3l-8.09.22Q850.13,255.95,850,247.46Zm28.9,16c-4.28.07-8.56.21-12.84.38a6.16,6.16,0,0,0-3.6,1.23l5.31-5.63,6.4-8.55q12.54-10.62,25.07-21.25-.22,13.74-.44,27.5-6.81-.19-13.62-.25C880.86,256.8,878.79,260.13,878.92,263.41ZM1001.8,267l-6.68-.31a5.15,5.15,0,0,0-3.62-2c-.58-.08-1.16-.27-1.74-.35v-.14h-.1c-6.91-.8-13.83-1.52-20.76-2.22,11.9-41.28,23.79-82.78,35.69-123.78h.11c5.29,40,10.59,80.84,15.88,121.29a64.52,64.52,0,0,0-13.42,10.73A6.28,6.28,0,0,0,1001.8,267Zm38.77-15.58a4.72,4.72,0,0,0-2.79,2.47,44,44,0,0,0-7.83,1.59c-1.67-9.47-3.34-19.32-5-28.32h10.79C1037.35,235.17,1039,243.3,1040.57,251.43ZM1035,223.07c-3,.23-6.61.1-9.72,1.1h-.78c-2.78-23-5.55-44.33-8.33-66.44a23.41,23.41,0,0,1,3.15-.56h.46c4.94,22,10.22,43.8,15.22,65.79Zm-15-69.58v.11a15.33,15.33,0,0,0-4.16,1.57h-.11c-1.5-12-3-23.46-4.5-35.07,2.68,1.81,2.47,5.52,3.37,9.1C1016.44,137.33,1018,145.36,1020,153.49Zm87-116c1.7.55,3,3.69,4,5.51v.11a25,25,0,0,0-2.39,2.25,45.28,45.28,0,0,1-4.16-7.08Zm-11-14.16a10.44,10.44,0,0,1,2-.14h.67c1.27,1,2.55,3.07,3.82,4.68.08.07.15.24.23.31a11.44,11.44,0,0,0-2.36,2h-1.58c-1-2-1.8-4.61-2.8-6.75Zm-4.84-3.94c-.11-2-.23-4-.34-6.07l3.82,3.49-3.26,2.36Zm3.15,9.57a.88.88,0,0,1-.45.23h-1.24a12.13,12.13,0,0,1-.33-4c1,.68,1.94,1.41,2.92,2.08a1.28,1.28,0,0,0,.11.2C1095,28,1094.64,28.45,1094.31,28.94Zm5,19.21c-1.53.69-3.49-5.37-4-6.91,1.49-1.09,3.77-1.07,5.51-2.07h.33a32.28,32.28,0,0,1,2.7,4.77C1102.37,45.37,1100.86,46.73,1099.36,48.15Zm4.84,13.6L1102,58l5.62-3.48c.93.41,1.3,1.94,1.91,2.7l-4.94,4.16Zm8,15.79c-1.23-2.1-2.47-4.17-3.71-6.27,1.46-.37,2.92-1.1,4.39-1.1h.56C1114.77,74.17,1116,74.76,1112.18,77.54ZM1113.87,59l-2.36-5.85,2.47-1.57c1.28.58,2,3.27,2.81,4.38C1116.72,56.73,1114.73,58.49,1113.87,59Zm5.39,18.43-1.8-8.43,3-.45,2.25,6.86Zm.74,8.32v-.57a21.65,21.65,0,0,0,4-1v9.22C1121,91.85,1121,89.12,1120,85.7Zm4.21,32.82c0,2.59-.07,5.41-.11,8a46.45,46.45,0,0,0-.56,7.66h-1.13c-.15-2-.3-3-.45-5h-.56l-.12-9h2.14c-.22-3-.42-5.47-.42-8v-.57a7.2,7.2,0,0,0,1.45.23C1124.41,114,1124.25,116.28,1124.21,118.52Zm4.79,11.81a5.25,5.25,0,0,0-1.1-.23l.12,3.6c-.52.56-1,1.13-1.57,1.69,0-2.57-.44-4.44.4-6.3a7.21,7.21,0,0,0-1.85-.9v-14h.45c.3,0,.6,1,.9,2h.65v3.25a15.61,15.61,0,0,0,1.56-.11c.08,2.51.44,5,.44,7.53Z"/></g></g></svg>