<svg xmlns="http://www.w3.org/2000/svg" viewBox="0 0 1096 484.32"><defs><style>.cls-1{fill-rule:evenodd;}</style></defs><title>Ресурс 3</title><g id="Слой_2" data-name="Слой 2"><g id="Layer_3" data-name="Layer 3"><path class="cls-1" d="M1088.6,292.36c-.09-1-.21-2-.32-3-.28-2.79-.16-6.06-1.42-8.64s-3.7-3.68-6.42-4.19a12.87,12.87,0,0,0-10.14-.31,10,10,0,0,0-4.23-1.84c-3.81-.64-8,1.05-9.19,5a6.78,6.78,0,0,0-.27,1.23c-.22-.14-.43-.28-.66-.4a8.45,8.45,0,0,0-9.24.62,8.16,8.16,0,0,0-2.61,8.89c.06.18.12.35.19.53-4.58.46-8.85,1.06-9.15,1.64,1.2-2.29,2.39-4.56,3.58-6.85a62.86,62.86,0,0,0-14.62,3.5,58.73,58.73,0,0,1,2.25-13.34,78.1,78.1,0,0,0-14.26,14.35q-1.43-4.23-2.86-8.47a14.17,14.17,0,0,0-.61,10.45,45.4,45.4,0,0,1-11.2-8.59,13.64,13.64,0,0,0,3.23,7.49,163,163,0,0,0-16.88-5.64q3.65,2.63,7.27,5.27-3.3-1.18-6.72-2.07a10,10,0,0,0-3.48-2.48c-3.92-1.77-8.31-1.48-12.51-1.13a5.57,5.57,0,0,0-3.14-4.88l-11.38-4.88c-3.66-1.57-8.26-.57-9.39,3.83l-.06.25c-2.21-.54-4.25-.24-7.2.2l-.08-.62c-.15.23-.29.47-.43.69-3.3.48-6.66.1-9.7,1.82a10.53,10.53,0,0,0-2.32,1.81c-3.38-3.73-10.57-5.94-15.52-5.66-2.46-2.91-8.84-.88-8.36,3.65v.18l-.15,0,.15.25c0,.33,0,.66,0,1a18.51,18.51,0,0,0-2.41,6.45,42.5,42.5,0,0,1-5-4.44,6.83,6.83,0,0,1-1.19,5.43c.85-1.17-5.48-12.26-6.44-13.61-1.25,2.82-1,6.22-1.08,9.56l-2.4,0-1.94-2.69a66.9,66.9,0,0,0-4.63-6.4l-.63-.87a9.42,9.42,0,0,0-2.29-2.65l-.72-.86-.92-1.08a9.42,9.42,0,0,1,4.26,3.47l1.59,2.26,7.17-12.2H851l7.17,12.2.83-1.18c.22.3.43.58.63.89L853,285.32h-1.74a2.43,2.43,0,0,1,.73-2.52,43.87,43.87,0,0,1-11.59,5.75q-1.54-3.78-3.11-7.54a19.46,19.46,0,0,0-3.54,8.62l-3.88-2.93c-.08-2.1-.17-4.21-.25-6.32l-3.21-2.21c-.94-2.21-.38-5.9-2.11-7.3l-36.82-31.52c-6.57-5.25-12.16-12.37-21.67-14.59-8.15-1.9-15.63,1.64-22,4.09q-5.25-22.4-10.51-44.79l-1.65-6.85-2.44-2.66c-.29-2.32-.59-4.64-.88-7l2.43-2.54c-.07-1-.15-2.06-.22-3.1l2.1-1.1-3.21-28.64c-58.93-21.64-118.12-43.29-177.06-64.92,0-2.69.65-5.38-.35-8.07v-22a8.07,8.07,0,0,0-1.52-3.88h-6.74a37.57,37.57,0,0,0-8.41,3.88l-3.65,4.31c-3.85,4.82-7.9,9.37-11.17,14.82l-8.4,14-2.55,5.86a149.85,149.85,0,0,0-9.84,31.85c-1.92,9.87-1.3,22.5-1.21,34.06,9.21-1.22,9.71-5.38,13.6-11.61l25.32-41.25c1.26-.45,4.39,1.35,5.76,1.88l15,5.53L619.38,119c0,.55.07,1.1.11,1.66l5.09,1.54c.14,1.15.29,2.29.44,3.43.25.68,1.28,1.13,2,1.33L600.22,268.09l-1.3-5.17a40.64,40.64,0,0,0-2.85,24.41,143.75,143.75,0,0,1-13.72-21.9,195.75,195.75,0,0,0,5.88,24.82A53.83,53.83,0,0,0,566,275.66l13.35,19c-7.75-6.57-16.26-13.49-26.79-14.55a110.36,110.36,0,0,1,14.57,11.19,52.79,52.79,0,0,0-18.91-6.11,12.62,12.62,0,0,0-9.34-4.46c-.95-4.71-7.68-8-11.17-3.6-.48.61-.94,1.25-1.38,1.93a52.56,52.56,0,0,0-11.16-.64c-7.28.41-14.89,4.82-16.64,11.64-5.14.47-10.42,1.14-10.75,1.79,1.19-2.29,2.39-4.56,3.58-6.85a62.74,62.74,0,0,0-14.62,3.5A58.71,58.71,0,0,1,479,275.17a78.35,78.35,0,0,0-14.25,14.35c-.95-2.82-1.91-5.64-2.86-8.47a14.12,14.12,0,0,0-.62,10.45,45.35,45.35,0,0,1-11.19-8.59,13.7,13.7,0,0,0,3.22,7.49,162.8,162.8,0,0,0-16.87-5.64q3.65,2.63,7.27,5.27a78.6,78.6,0,0,0-16.89-4,14.09,14.09,0,0,1,4.69,4.38c-4-.18-11,.29-8.08-5.34-2.11.39-10.33.79-11.6,2.2a16.1,16.1,0,0,1,7.16-4.52,30.22,30.22,0,0,0-15.92,7.34l3.67-12a45.14,45.14,0,0,0-11.47,8l-.12-46.61c0-8-2-20.52,2.56-24.18l-.18-5.86L395,206.64q-.09-16.11-.19-32.24c.46-1.11,2.27-2.71,2-4.58-.19-1.37-1.61-2.34-2-3.3L394.6,116c1.33-7,2-15.92,3.3-23.81.06-2.93.12-5.87.18-8.79l.18-7.7c-1.77-10.23-2.86-20.89-4.94-30.41-2.78-12.68-5.35-23.94-9.53-34.44-1.68-4.23-2.61-8.18-5.86-10.81-5.36.62-8.64,8.88-11.17,12.64l-28.4,41.22c-1.65,1-15.88-1-19.23-1.65L266.18,46,53.49,20.7l-.18,21.43-2.75.19L49.28,43.6c-.08,4.22,1.43,6.67,2.75,9.89,3.13,7.66,5.66,15.05,14.84,16.67-.13,10.77-2.92,27.41,7,29.13l29.86,95.81-8.61-9c-8.8-8.4-16.81-16.83-28-22.89-3.95-2.14-13.67-6.51-18.69-2.75-4.28,3.22-2.14,12.26,0,15.94q10.91,20.06,21.8,40.11c-2.17,3.1-15.94,8.9-20.33,10.08l-16.49.19-2.93,2.74q.56,15,1.1,30l-13.74.19q-.35,12-.7,24.09a32.47,32.47,0,0,0-11.82-3.74,111.25,111.25,0,0,1,11.68,8.65l0,1.06A53.08,53.08,0,0,0,0,285.08v.76a56.9,56.9,0,0,1,13.11,7.63c-4.19-.31-9-1.15-13.11-1.15v192H1096V291.61C1096,291.66,1092.19,292,1088.6,292.36ZM502.71,133c-2.29-.88-1.13-3.56.44-4.31,1.13,0,1.87.24,2.21,1C506.9,131.15,504.77,133.76,502.71,133Zm39.7-86.81c-3.14.82-3.94-3.27-1.11-4.87A2.5,2.5,0,0,1,542.41,46.16ZM64,51.48a1,1,0,0,1-.8.84H61.56c-.37,0-.56-.35-1.56-.66V50c1-.75.89-.83,1.51-1.28l1.34.19c.36.3,1.15.6,1.15.91Zm322,22V90.31c-2,.92-8.57,4.4-11,4-3.3-.73-6.6-1.37-9.89-2.1.18-8.67.36-17.92.54-25.92h10.63A97.71,97.71,0,0,1,386,73.46ZM363.27,26.32h13.92c2.08,7,4.16,15.15,6.24,22.84-1.9,2.26-3.79,4.39-5.68,6.66-2.33,1.77-5.7,1-9.9.85-4.27-5.8-8.55-11.39-12.82-17.19C357.78,35,360.53,30.32,363.27,26.32Zm.37,77h8.06c4.58,4,9.16,8.12,13.74,12.28-5.56,15.75-11.11,31.28-16.67,47-.89,1.17-5,.69-6.6.69h-2.93c-3.17-15-6.35-30-9.52-45.11C354.36,113.14,359,108.32,363.64,103.32ZM213,106.8c4,2.42,3.63,9.91,3.85,15.21-1.29-.12-1.85-.25-3.85-.37Zm0,23.52h6.28c1.35,9,2.48,18.19,3.83,27.17A124.13,124.13,0,0,0,213,150ZM86.88,289.51a2.35,2.35,0,0,1-2.73,1.24c.36-2.66.71-5.32,1.07-8a17.4,17.4,0,0,0-7.3,5.86,14.33,14.33,0,0,1,2.88-9.31,17.76,17.76,0,0,0-3.5,1.4q.18-9.37.38-18.75l11.54-.55q.23,15.52.46,31.06C87.54,292.27,86.14,291.48,86.88,289.51ZM214,286.32v-10h13V284a28.09,28.09,0,0,0-5.21,2.35h-1.95a25,25,0,0,0-1.43-8,52.63,52.63,0,0,0-3.91,8Zm13-47v18.62c-4-2.39-9-4.77-13-7.15V239.32Zm-12-2v-9h12v9Zm11.06,29.41-11.17.73c-.06-1.89-.13-3.78-.18-5.68ZM229,285.59a25.45,25.45,0,0,1,3-2.72v4.45h-3Zm-17,.53a41.11,41.11,0,0,0-7.51-7.11,29.54,29.54,0,0,0,3.42,9.79c-6.44-1.08-12.91-5.12-18.91-4.29v-8.19h23Zm-26.82,1.09a20.29,20.29,0,0,0-5.85-3.48,74.3,74.3,0,0,0-10.4-7.15l-.05-.26H187v11.06C186,287.32,185.74,287.25,185.18,287.21ZM165,267.32v-6h22v6Zm24,20.36v-2.49a35.25,35.25,0,0,1,9.09,4.61A57.26,57.26,0,0,0,189,287.68Zm-29.07-28.36c1.47-7,2.93-14.61,4.4-21.94l43.23,20.13c.55.61,1.1.81,1.65,1.81Zm3.07,3v5h-4v-5Zm-16.78,5.39c-1.29.28-2.51.55-3.7.75-.06-2-.12-4.14-.18-6.14H148v.2a24.75,24.75,0,0,1-.85,5C146.77,267.56,146.59,267.63,146.22,267.71Zm2.72-8.49c-1.08,1-11.46.23-13.92.18-.76-10.87-4.1-17.84-7.7-25.65Q142.17,226.88,157,220l1.1.92Q153.53,240.07,148.94,259.22Zm-13.74,3.11,3.84,1.1c.05,1.78.1,3.56.14,5.34a14.92,14.92,0,0,1-3.43-.37l-.38-.09C135.3,266.26,135.22,264.25,135.2,262.33Zm97.46,29a.67.67,0,0,0-.33.17c.1-.14.22-.25.33-.38ZM243,291.1c-1,0-3,0-4,0V276.32h4Zm-8.88-30.78c.37-7,.73-12.95,1.1-19.42,1.22,6.47,2.44,12.42,3.66,19.42Zm-.12,16h3v14.75c-1,0-2,0-3,.07v-1.59a24.11,24.11,0,0,1,2.31-1.25H234Zm-5,7.18v-7.18h3v6.37A20.86,20.86,0,0,0,229,283.5Zm0-27.18v-17h4v17Zm4-19h-4v-9h4Zm-20-17.67V195.1c5-2.93,8.88-5.86,13.22-8.79,2.08,11.17,4.05,22.35,6.12,33.52Zm.42-39.33h6.41c-2.07,2-4.15,2.69-6.23,4C213.55,183,213.48,182.32,213.42,180.32Zm0-15.45a19.32,19.32,0,0,1,6.23,7l-5.86-.74C213,170.21,213.36,166.48,213.42,164.87ZM212,267.32H189v-6h23Zm0-17.81c-14-6.84-28.51-13.52-42.79-20.35-.13,0-.18.16-.3.16h.36l-.06-.16c14.28.06,28.79,0,42.79,0ZM191,146.19v24c-4,.12-8.7.24-13.15.36-1.8-1.76-.1-5.85.6-8.61,1.77-7.63,3.55-15.26,5.55-22.9v-.36C186,141.18,189,143.68,191,146.19Zm-2.68-33c.49-2.44.76-4.88,1.25-7.32.55-.19,1.43-.37,1.43-.55v17h-4.33c-.3-1-.61-2.2-.91-3.18C185.44,117.28,187.78,115.13,188.32,113.21Zm2.75,67.42c.06,5.86.13,11.73.19,17.58L184.11,203c.06-6.74-1.13-11.69-4-15.94l-4-4.58c-.43-.43-.86-.85-1.28-1.28C178.28,178.9,185.77,180.51,191.07,180.63ZM191,207.92v10.63l-15.94.18C180.37,215.13,186,211.53,191,207.92Zm19-11.17v22.57H195V205.91Zm-14.59-15.94,14.59-.18v6.23c-5,2.93-9.4,5.86-14,8.79l-.37.37Zm14.21-9.71L195,170.74V149.12c5,4,9.48,8.06,14.18,12.09C210.18,163.39,209.67,168.22,209.62,171.1ZM195,134.83v-3.51h15v15.79Zm15-13-15-.73v-15.2l15-.55ZM83.17,57.32h2.39c6.35,5,22.72,4.18,32.42,5.87,25.76,3.12,51.54,6.33,77.3,9.44-.18,2.14-.36,4.32-.54,6.46-4,.66-9.11,1.83-11.55,4.24-.14,1.32.51,2.07,1.1,3.13l-2.38,2.75-.36.37,4.94,4.76q-9.9,41.76-19.78,83.54c-1.24,1.88-10.55,4.55-13.19,5.68l-37.74,15.75Q98.92,146.93,82.07,94.53c-.81-4.23,2.62-8.91,1.65-14.11a50.73,50.73,0,0,0-5-14.48C80.24,63.13,81.7,60.32,83.17,57.32Zm-8.42-3c-.37,0-.75-.7-.75-1V51.66c0-.75.48-.83,1.1-1.28.43.06.62.12,1.05.18.36.31.85.61.85.92v1.65c0,.36-.3,1.19-.61,1.19ZM77,99.48c.11-1.93,1.41-1.78,2.56-2.57L112.3,200.6l-3.3.73Q93,150.4,77,99.48ZM99.79,272.89a10.92,10.92,0,0,0-.18,2.42c-3.69,1-6.4,4.17-7.72,7.75q-.06-10.46-.11-20.91l1.47-.91ZM88.3,250.61c1.77.75,4.34,5.8,5,7.69l.36.37-15.75.55-1.28-2.75ZM32,262.33v19.79A66.58,66.58,0,0,0,19.87,276c-.07-4.38,0-8.76-.08-13.14C23.81,262.7,27,262.52,32,262.33ZM19.89,277c4,5.63,8.11,11.27,12.11,16.91v.3c-4-3.12-7.68-6.28-11.86-8.84C20.1,282.59,19.93,279.8,19.89,277Zm369.86,1.24c-1.47,2.29-2.9,4.59-4.31,6.9a7.53,7.53,0,0,0-2.41-.52l-6.54-.35c-1-1-2-1.9-3.11-2.79a15.62,15.62,0,0,0,.18,2.64l-9.82-.52c-3.91-1.32-7.86-2.28-10.48-2.91a11.09,11.09,0,0,1,1.38,2.43L351.5,283a4.91,4.91,0,0,0-2.46-1.14c-2.87-.43-5.33-1.45-6.38-4.39a7,7,0,0,0-8.37-4.75c-1,.19-6.41,1.3-6.41-.09,0-2.66-2.08-6.16-5-6.56a25.76,25.76,0,0,0-3.36-.23l0-.06,0,.06a19,19,0,0,0-17.14,9.52,6.46,6.46,0,0,0-.36,5.88,6.31,6.31,0,0,0-2,2.42c-3.55-.81-5.64-2.69-7.78-5.94-2.54-3.85-9.45-4.94-11.71,0L279.51,280l-4.66,1-.35,0a46.85,46.85,0,0,0-9.18,1.11,43.19,43.19,0,0,1-3.79-3.66,5.56,5.56,0,0,0-6.62-.86c-.64.43-1.3.92-2,1.45Q237.77,183.5,222.58,87.93l1.65-1.46.73-.92-2.38-3.11c-.79-.75-3.44-.62-4.94-.55.06-1,0-2.08,0-3.12-1.16-.24-2.65-.48-3.65-.73V73.83c27,3.36,53.05,6.71,79.49,10.07l23.35,2.75c.43,1.16.9,2.32,1.33,3.48,4.09,2.16,9.86,3.9,14.67,2.93,1.23,1.26,2.92,1.92,3.68,3.67q2.1,11.26,4.22,22.53,4,21.15,8.06,42.32,2.19,12.18,4.4,24.36,3.39,1.92,6.77,3.85c4.66-4,8.64-12.75,11.91-18.32,6.05-10.31,10.44-21.13,15.21-33.16,1.83-4.95,3.78-9.89,5.61-14.84.06,4.09.3,8.19.3,12.28v31a3.64,3.64,0,0,0-1.84,2c-.68,2.3.84,3.53,1.84,4.76v33.71l-3,2.75v5.13a30.28,30.28,0,0,1,2.58,2.38c-.06,23.79,0,47.58-.06,71.37-.45.52-.85,1.05-1.28,1.59ZM554.09,292.2c-1.13-1-2.26-1.9-3.41-2.84a14.64,14.64,0,0,0-1.29-2.6,61.85,61.85,0,0,1,11.05,6.36C558.42,293,556.25,292.56,554.09,292.2ZM701.91,288c.26.07.51.16.77.24-.14.18-.29.34-.42.53A5.34,5.34,0,0,0,701.91,288Zm99-.87a16.23,16.23,0,0,1,2.57,1.95c-2.13.26-4.14.59-6.14.94l.15-3Zm25.51,1.16c-.75-.39-1.51-.75-2.28-1.11l1.35,0A10.59,10.59,0,0,0,826.46,288.29ZM787,284.58c0,.2-.52.4-.9.6-.28-.1-.44-.19-.72-.28a40.42,40.42,0,0,0-5.65-2l.52-.27c-.32,0-.61.11-.92.16a41.82,41.82,0,0,0-4.31-.93,6.35,6.35,0,0,0-2.79-3.51c5,2.05,9.77,4.1,14.77,6.15Zm-16.3-7a5.81,5.81,0,0,0-1-.12l-2.32-.06c0-.42-.07-.83-.1-1.24Zm-10.65-32.83a2.5,2.5,0,0,1,1.1,4.87C758,250.46,757.21,246.37,760.05,244.77ZM725,149.67c1.13,0,1.87.24,2.21,1,1.54,1.5-.59,4.11-2.65,3.32C722.25,153.11,723.42,150.42,725,149.67ZM649.35,136.4c.07-1.33.15-2.66.22-4l6.41,2.43c.22-.66.44-1.33.67-2l63.69,23.22c-1.1,1.73-2.2,3.47-3.31,5.2q.76,4,1.55,8.07l-2.66,1.88q2.88,9.24,5.75,18.47l3.76,2.21c1.63,2.87,1.74,8.35,2.63,11.84,2.06,8.69,3.94,17.4,5.94,26.09v.48h-3.26a9.2,9.2,0,0,0-.44-1.73,7.4,7.4,0,0,1-3.32-.76c-.8,1.18-2.87.91-4.87.84.08.78.15,1.53.23,2.3l-7.41,5.74-3.21,4.42c-.44,1.44-.89,2.87-1.33,4.31a2.43,2.43,0,0,1-1.66.89c0,1.29.08,2,.11,4h2.22c0,5,0,17.43-1.88,20.34-2.69,1.46-5.37,2.86-8,4.31a32.77,32.77,0,0,0-6.42-.22l-.33-.62c-.1.21-.18.42-.27.63a32.54,32.54,0,0,0-8.59,2,8.21,8.21,0,0,0-2,1.08l-.44-.31a12.42,12.42,0,0,0-3.11-1.66Q667.26,230,654.55,184.06q-3.88-13.94-7.75-27.86c-2-6.59-4.43-12.92-4.75-20.91C645.74,135.23,646.7,135.29,649.35,136.4Zm-11.72,19.92c11.23,39,22.47,79.62,33.71,119.54-1.21.22-2.46.37-3.75.61-4.38.84-9,1.69-10.48,6.37a24.3,24.3,0,0,0-10.08.09c-4.29,1-4.91,6.24-2.64,9.08-4.46.64-11.66,1.5-10.18-2.49a2.33,2.33,0,0,1-2.72,1.23q.54-4,1.06-8a17.3,17.3,0,0,0-7.3,5.85,14.34,14.34,0,0,1,2.89-9.31,16.93,16.93,0,0,0-10.63,8.54q0-9.75,0-19.5s-.06.3-.09.34c5.91-37.54,11.82-75.38,17.73-112.38Zm-8.3-28,2.21,1.11-3.87,20.9a.57.57,0,0,1-.11.11l-2.32-.33Q627.28,139.22,629.33,128.32ZM625,153.54v-.33s1.41-.08,2.22-.11c-4.79,24.76-9.69,49.77-14.48,74.54a8.56,8.56,0,0,0-2.1-.32h-.22C615.14,202.32,620,178,625,153.54ZM610,229.4c.33-.26,1.43-.05,2.21,0q-4.73,24.36-9.44,48.73c-.41-1.61-.82-3.23-1.22-4.84Q605.76,251.35,610,229.4Zm246.85,55.3c0,.21,0,.41,0,.62h-.48Zm5.68-7.77.49-.68a6.25,6.25,0,0,1,2.49-2.11,6.1,6.1,0,0,1,2.16-.37,6.43,6.43,0,0,1,1.74.26c.07.32.13.63.2.94a5.15,5.15,0,0,0-2-.43,5,5,0,0,0-4,2l-.56.82Zm6.19,7.14a9.44,9.44,0,0,0,2.64-.58,10.49,10.49,0,0,1,.27,1.83h-2C869.29,285.32,869,284.48,868.7,284.07Zm-8.91-9.81a9.38,9.38,0,0,1,7.78-4.17,8.59,8.59,0,0,1,1,.07c0,.17.07.35.11.52s0,.24.07.37a8.32,8.32,0,0,0-1.12-.08,8.42,8.42,0,0,0-7.16,4.07l-.78-.67Zm1.77,5.22-1.21,1.76a9.62,9.62,0,0,0,2.49,1.82,9.94,9.94,0,0,1,.31,2.26h-2.79a8.28,8.28,0,0,0-2.34-2.24l3.17-4.34C861.32,279,861.44,279.23,861.56,279.48Zm-8.89,8.58h1.43v.8A2.59,2.59,0,0,1,852.67,288.06Zm18.66,0h.28c0,.12,0,.24-.05.36C871.49,288.26,871.41,288.14,871.33,288Zm11.77.3h1.41a15.14,15.14,0,0,1-.46,2.67C883.78,290.08,883.46,289.32,883.1,288.32Z"/></g></g></svg>