<svg xmlns="http://www.w3.org/2000/svg" viewBox="0 0 1098 257.35"><defs><style>.cls-1{fill:#bebebe;fill-rule:evenodd;}</style></defs><title>Ресурс 6</title><g id="Слой_2" data-name="Слой 2"><g id="Layer_3" data-name="Layer 3"><path class="cls-1" d="M1094.38,22.22c-1.09.22-2.49-.23-3.86-.12-1.1.09-2.35.7-3.38.8-2.36.24-4.9.52-7.15.67-4.82.32-9.93,1-14.74-.49-2.29,2.52-6.94,1.38-9.57,2.42-.18.07-.27.81-.49.89-3.65,1.26-7.57,1-11.45,1.9A74.31,74.31,0,0,1,1028,30.5a5.32,5.32,0,0,0-1.89-.52,16.93,16.93,0,0,1-1.91.39c-4.12.14-8.94-.37-13.31,0-2.73.24-5.06,1.49-7.64,1.57-3.74.09-7.35-1.6-10.9-1.28-2.52.23-5.38,1.38-8.13,2.46-2.57,1-5.34,2.93-7.67,2.94-1.83,0-3-1.23-3.77-1.49-.58-.19-1.31.1-1.9-.07a22.44,22.44,0,0,0-2.84-1c-4.07-.72-7.49-.17-11.87-.4q-8.89-.45-17.09-1.47c-3.1-.38-6.16-.27-9-.76-.77-.13-1.52-.74-2.36-1-3.43-1-6.54-1.25-9.46-2.14a4.08,4.08,0,0,0-2.36-.54c-1,0-1.92.21-3.35.35-5.23-2.16-10.41-.57-15.67-.52-.58,0-1-.45-1.89-.52-2.52-.19-4.3.76-6.67.69-3.67-.1-7.48-1.93-10.42-1.71-1.23.09-2,.75-3.35.79-2.51.11-5.39-.44-8.07-.26s-5,1.29-7.16,1.13c-3.29-.24-6.9-3-9.92-3.07-1.36-.61-2.77-.22-4.24-1.5-7-.24-13.45-2.28-19.42-3.83s-12-3.16-17-6c-2.31,0-2.91-1.53-4.24-2.42-6.28-.4-10.06-3.08-14.63-5-2.51-.44-5.65-2.34-7.07-3C778.52.44,771.32.87,765.73.4c-4.4-.37-8.4-.14-11.87-.4-1.21,1-4.3,0-5.26,1.2-7-.89-12.32.24-19.49.26-2.05.86-4.82,1-7.16,1.58S717.7,4.7,715.24,5.1c-5.54.9-12-.37-17.59.33a15.31,15.31,0,0,0-5.26,1.64c-2,.32-4.64-.05-5.73,1.17-5.16-.57-8.75.44-12.38,1.42-3.41-1.85-7.83-2.79-12.43-3.55a117,117,0,0,1-19.54,8.49c-.3,0-.6,0-.91.05-.51.28-1,.53-1.59.78a170,170,0,0,1-35,6.79,11.78,11.78,0,0,0-2.26-.17,40.2,40.2,0,0,0-6.31.8c-3.49.19-7,.28-10.41.3a15.57,15.57,0,0,0-2-.3c-1.86-.18-4,0-5.64-.42-5.42.74-9.58.46-14.78,1.85-.89-.78-3.1.26-4.14-.32-2.6.56-5.65.8-8.93,1.53-4.16,1-9.67,1.39-12.66,3.24-1,.61-3.11,2.35-4.94,2.94-3.2,1.92-5.69,4.31-10.4,5.26-.88.79-1.13,2-2.87,2.24-3.43,2.65-7.64,4.42-12,6.25s-8.9,4-14.17,4.87c-.94,1.1-2.07,1-3,1.56-2.28.35-4.63,2.79-7.09,3.31-1.63.34-3.58-.22-5.57-.08s-4.15.86-6.07,1.05c-1,.1-1.7-.3-2.64-.24-2.26.15-4.89,1.9-7.65,2.36-1.79.3-3.26-.2-5.14.19-.69.15-.92.53-1.36.59-4,.52-8.13-.12-11.79,2-1.1,0-1.79,0-2.57.1a3.06,3.06,0,0,0-1.72.64c-2.09,1-4.42,1.45-6.87,2.58-.6.27-1.09.8-1.65,1-2.09.66-4.42.89-6.72,1.51-4,1.06-8.28,2-12.73,2.89-3.28.62-5.94.57-8.93,1.54a17.82,17.82,0,0,0-2,1c-.42.19-1,0-1.43.24-.57.29-1.27,1.32-2.66,1.51-1.75.23-4.11-.89-6.19-1.36a25.23,25.23,0,0,0-6.49-1c-2.73.13-5.23,1.77-8.08,2.09-2,.22-3.89-.46-6-.36-3.36.18-6.93,1.06-10.07,1.39a12,12,0,0,1-1.5-.08,4,4,0,0,0-1.36.57,58.46,58.46,0,0,1-12.19,0c-.59-.05-1.16-.06-1.74-.06-2.64-.28-5.24-.55-7.82-.77a5.45,5.45,0,0,0-1.09-.1c-1.95-.15-3.87-.26-5.78-.32a4.53,4.53,0,0,1-.55-.34c-.23.11-.47.21-.72.31a63.88,63.88,0,0,0-11.16.71A30.92,30.92,0,0,0,310.6,76h-.28c-.8,0-1.8-.3-2.64-.25-1.05.07-2,.54-2.86.5-1.51-.07-2.73-.74-4.27-1a61,61,0,0,0-8.84-.42c0-.59,0-1.18.05-1.75-3-.81-7.72-.21-11.24-1-2.17-.51-4.64-2-6.75-2.94-.46-.21-1-.92-1.58-1.13a14.27,14.27,0,0,1-3.18-1.2c-2.76-1.7-8.19-1.35-12-2.11-1.8-.36-3.14-1.18-4.79-1.26s-3.11.46-4.84.31c-3.59-.31-6.8-2.55-10.37-3.1-7.37,3-17.78,1.66-24.34,5.8-3-1.41-6-2.84-10.39-2.57-.85-1.5-3.11-1.27-4.77-1.79a11.17,11.17,0,0,0-4.36-2.31c-4.68-1.24-10.2-.24-14.84-1.71-2.05-.65-3.59-2.09-5.55-2.88s-4.27-1.22-6-2.39c-6-.56-10.46-2.27-16.45-1.77-.74-1.47-3.41-.59-4.37-1.78-3,0-6.32-.54-10.06-.45-4.74.13-10.8-.91-14.52,1-1.23.62-4,2.59-6.13,2.91-4,1.91-7.3,4.74-12.63,4.73-1.16.92-1.75,2.65-3.7,2.48-4.41,2.94-9.43,4.32-14.67,5.7s-10.66,3.23-16.6,3c-1.31,1.38-2.49.81-3.67,1.43-2.55-.18-5.74,2.78-8.54,2.8-1.85,0-3.8-1.45-6-1.85s-4.72,0-6.83-.3c-1.13-.17-1.75-1-2.79-1.18-2.48-.47-5.78,1.36-8.89,1.2-2-.11-3.46-1.33-5.6-1.3-.79,0-1.13.5-1.62.45-4.45-.45-8.74-2.69-13.27-.59a24,24,0,0,0-2.8-.64,2.64,2.64,0,0,0-2,.43A42.68,42.68,0,0,1,.35,70,2.27,2.27,0,0,1,0,70V244.79c95,4.19,190.73,8.37,286,12.56l812-72V20.86A13.08,13.08,0,0,1,1094.38,22.22Z"/></g></g></svg>